<svg xmlns="http://www.w3.org/2000/svg" width="107.71" height="115.13" viewBox="0 0 107.71 115.13"><defs><style>.\39 368c501-2f28-42c7-a2ca-2265c57a50b1{fill:#727575;}.\36 8f46e8b-22bb-435f-9fce-fd4d78787cbb{fill:#888d8e;}.e5763316-fe15-45f2-be86-590a96c93e29{fill:#575a5b;}.e1f5154d-ba9c-4515-b870-b299e4b2fa42{fill:#656868;}.\36 647b0de-d65b-45e6-8e29-3c93f6508fab{fill:none;stroke:#575a5b;stroke-linecap:round;stroke-miterlimit:10;}.\33 570dc44-4534-4ce6-b1a8-e2b88cc11ab1{fill:#d5dde0;}</style></defs><title>Audiovisual</title><g id="8eca9199-70c4-46ca-b087-abbd72563e7c" data-name="Layer 2"><g id="55cf0dae-031d-42a6-980c-3263ba410885" data-name="Layer 1"><rect class="9368c501-2f28-42c7-a2ca-2265c57a50b1" x="22.28" y="22.28" width="44.57" height="22.28"/><circle class="68f46e8b-22bb-435f-9fce-fd4d78787cbb" cx="22.28" cy="22.28" r="22.28"/><circle class="68f46e8b-22bb-435f-9fce-fd4d78787cbb" cx="66.85" cy="22.28" r="22.28"/><circle class="e5763316-fe15-45f2-be86-590a96c93e29" cx="46.43" cy="76.14" r="13"/><rect class="e1f5154d-ba9c-4515-b870-b299e4b2fa42" x="18.57" y="44.57" width="52" height="37.14"/><rect class="e1f5154d-ba9c-4515-b870-b299e4b2fa42" x="70.57" y="52" width="3.71" height="18.57"/><rect class="e1f5154d-ba9c-4515-b870-b299e4b2fa42" x="77.99" y="52" width="3.71" height="18.57"/><rect class="e1f5154d-ba9c-4515-b870-b299e4b2fa42" x="74.28" y="55.71" width="3.71" height="11.14"/><polygon class="e5763316-fe15-45f2-be86-590a96c93e29" points="107.71 78 81.71 70.57 81.71 52 107.71 44.57 107.71 78"/><line class="6647b0de-d65b-45e6-8e29-3c93f6508fab" x1="20.43" y1="26" x2="31.34" y2="38.12"/><line class="6647b0de-d65b-45e6-8e29-3c93f6508fab" x1="26" y1="20.43" x2="35.57" y2="35.98"/><circle class="3570dc44-4534-4ce6-b1a8-e2b88cc11ab1" cx="22.28" cy="22.28" r="5.57"/><circle class="3570dc44-4534-4ce6-b1a8-e2b88cc11ab1" cx="66.85" cy="22.28" r="5.57"/><circle class="e1f5154d-ba9c-4515-b870-b299e4b2fa42" cx="33.43" cy="37.14" r="3.71"/><circle class="68f46e8b-22bb-435f-9fce-fd4d78787cbb" cx="24.14" cy="65" r="1.86"/><circle class="68f46e8b-22bb-435f-9fce-fd4d78787cbb" cx="26" cy="74.28" r="3.71"/><rect class="9368c501-2f28-42c7-a2ca-2265c57a50b1" x="37.14" y="89.14" width="18.57" height="11.14"/><rect class="9368c501-2f28-42c7-a2ca-2265c57a50b1" x="33.43" y="100.28" width="26" height="3.71"/><polygon class="9368c501-2f28-42c7-a2ca-2265c57a50b1" points="37.1 115.14 33.38 115.14 40.9 103.99 44.61 103.99 37.1 115.14"/><polygon class="9368c501-2f28-42c7-a2ca-2265c57a50b1" points="55.75 115.14 59.47 115.14 51.95 103.99 48.24 103.99 55.75 115.14"/><rect class="e1f5154d-ba9c-4515-b870-b299e4b2fa42" x="38.5" y="53.35" width="23.28" height="15.86"/><path class="68f46e8b-22bb-435f-9fce-fd4d78787cbb" d="M61.28,53.85V68.71H39V53.85H61.28m1-1H38V69.71H62.28V52.85Z"/><rect class="68f46e8b-22bb-435f-9fce-fd4d78787cbb" x="3.71" y="48.28" width="22.28" height="7.43"/><rect class="e5763316-fe15-45f2-be86-590a96c93e29" x="26" y="48.28" width="7.43" height="7.43"/></g></g></svg>