<svg xmlns="http://www.w3.org/2000/svg" width="101.19" height="94.86" viewBox="0 0 101.19 94.86"><defs><style>.b67b448b-0f31-4f69-bb64-bb99764bd7c3{fill:#e1eeef;}.\35 3d5ac2d-0a19-4267-8236-909b3075158d{fill:#656868;}.\35 d81500a-d4d8-428d-ac24-7c909ab3fa8c{fill:#888d8e;}.b3f38b4a-926f-4b8b-b014-1cca7599f673{fill:#9faaaa;}.\34 6e0557f-5190-4f2f-8773-ff972d172732{fill:#b4c1c1;}.\33 92b4675-62f3-491c-923d-f1699e398ade{fill:#7985b2;}.\36 a0bff4a-96be-4a93-a311-4850bc40cf4b{fill:#4ad1ae;}</style></defs><title>Branding</title><g id="71a22eee-f4d6-421c-ac17-c80c5cd888f0" data-name="Layer 2"><g id="a9fcc7b5-c718-4d93-9b2c-695dcef98469" data-name="Layer 1"><rect class="b67b448b-0f31-4f69-bb64-bb99764bd7c3" x="3.16" y="3.16" width="94.86" height="63.24"/><rect class="53d5ac2d-0a19-4267-8236-909b3075158d" y="3.16" width="101.19" height="6.32"/><rect class="5d81500a-d4d8-428d-ac24-7c909ab3fa8c" x="31.62" width="37.95" height="3.16"/><rect class="b3f38b4a-926f-4b8b-b014-1cca7599f673" x="44.27" y="15.81" width="37.95" height="6.32"/><rect class="46e0557f-5190-4f2f-8773-ff972d172732" x="44.27" y="28.46" width="44.27" height="3.16"/><rect class="46e0557f-5190-4f2f-8773-ff972d172732" x="44.27" y="36.36" width="44.27" height="3.16"/><rect class="46e0557f-5190-4f2f-8773-ff972d172732" x="44.27" y="44.27" width="44.27" height="3.16"/><rect class="53d5ac2d-0a19-4267-8236-909b3075158d" y="60.08" width="101.19" height="6.32"/><rect class="5d81500a-d4d8-428d-ac24-7c909ab3fa8c" x="47.43" y="66.4" width="6.32" height="25.3"/><polygon class="5d81500a-d4d8-428d-ac24-7c909ab3fa8c" points="34.78 94.86 28.46 94.86 44.27 72.73 50.59 72.73 34.78 94.86"/><polygon class="5d81500a-d4d8-428d-ac24-7c909ab3fa8c" points="66.4 94.86 72.73 94.86 56.92 72.73 50.59 72.73 66.4 94.86"/><path class="392b4675-62f3-491c-923d-f1699e398ade" d="M22.13,28.46H34.78a12.65,12.65,0,1,1-6.9-11.27Z"/><path class="6a0bff4a-96be-4a93-a311-4850bc40cf4b" d="M26.88,25.3l4.38-8.41a9.49,9.49,0,0,1,5.1,8.41Z"/></g></g></svg>