<svg xmlns="http://www.w3.org/2000/svg" width="72.36" height="100.67" viewBox="0 0 72.36 100.67"><defs><style>.b45a5651-68a2-4017-b6dc-7d058000de1a{fill:#868491;}.\35 2224f0d-c268-4cad-aca2-df68f5c27f5e{fill:#5c546a;}.\33 401c3bc-6aa4-41ba-b699-4517818196a0{fill:#ffcd00;}.d7cfe76e-4286-4ff5-94fe-2d92590e7880{fill:#ffe671;}.\30 2108721-3009-49ef-942c-593bed27f1fc{fill:#fff;}.\30 6f4ba92-fd56-4ec7-ba48-9b18cd930784{fill:#b4b6bc;}</style></defs><title>Clases</title><g id="a3f19278-4698-4366-a8a4-5c3580d67a28" data-name="Layer 2"><g id="a6c0e1c0-25db-42ce-bb36-ca94d13b3327" data-name="Layer 1"><path class="b45a5651-68a2-4017-b6dc-7d058000de1a" d="M40.9,91.24H31.46a1.57,1.57,0,0,0-1.57,1.57v1.57a6.29,6.29,0,1,0,12.58,0V92.81A1.57,1.57,0,0,0,40.9,91.24Z"/><path class="52224f0d-c268-4cad-aca2-df68f5c27f5e" d="M36.18,91.24H31.46a1.57,1.57,0,0,0-1.57,1.57v1.57a6.3,6.3,0,0,0,6.29,6.29V91.24Z"/><path class="3401c3bc-6aa4-41ba-b699-4517818196a0" d="M61,9.81A35.89,35.89,0,0,0,33.87.07a36.18,36.18,0,0,0-15.1,67.81,9.37,9.37,0,0,1,4.83,8.22v12a6.3,6.3,0,0,0,6.29,6.29H42.47a6.3,6.3,0,0,0,6.29-6.29v-12a9.41,9.41,0,0,1,4.87-8.24A36.18,36.18,0,0,0,61,9.81Z"/><circle class="d7cfe76e-4286-4ff5-94fe-2d92590e7880" cx="36.18" cy="36.18" r="25.17"/><path class="02108721-3009-49ef-942c-593bed27f1fc" d="M41.68,45.62a4.94,4.94,0,0,1-3.94-2.11c-.69-.78-1-1-1.57-1s-.88.25-1.57,1a4.72,4.72,0,0,1-7.87,0c-.68-.78-1-1-1.57-1a1.57,1.57,0,1,1,0-3.15,5,5,0,0,1,3.93,2.11c.68.78,1,1,1.57,1s.88-.25,1.57-1a5,5,0,0,1,3.93-2.11,4.94,4.94,0,0,1,3.94,2.11c.69.78,1,1,1.57,1s.88-.25,1.57-1a5,5,0,0,1,3.94-2.11,1.57,1.57,0,0,1,0,3.15c-.61,0-.89.25-1.57,1A5,5,0,0,1,41.68,45.62Z"/><path class="52224f0d-c268-4cad-aca2-df68f5c27f5e" d="M31.46,75.51a1.58,1.58,0,0,1-1.54-1.24L22.06,38.09a1.57,1.57,0,0,1,3.08-.67L33,73.6a1.57,1.57,0,0,1-1.54,1.91Z"/><path class="52224f0d-c268-4cad-aca2-df68f5c27f5e" d="M40.9,75.51a1.57,1.57,0,0,1-1.54-1.91l7.87-36.18a1.57,1.57,0,0,1,3.08.67L42.44,74.27A1.57,1.57,0,0,1,40.9,75.51Z"/><path class="06f4ba92-fd56-4ec7-ba48-9b18cd930784" d="M23.33,73.93a9.44,9.44,0,0,1,.27,2.18v12a6.3,6.3,0,0,0,6.29,6.29H42.47a6.3,6.3,0,0,0,6.29-6.29v-12A9.39,9.39,0,0,1,49,73.93Z"/><path class="b45a5651-68a2-4017-b6dc-7d058000de1a" d="M36.18,73.93H23.33a9.44,9.44,0,0,1,.27,2.18v12a6.3,6.3,0,0,0,6.29,6.29h6.29Z"/><rect class="b45a5651-68a2-4017-b6dc-7d058000de1a" x="36.18" y="78.65" width="12.58" height="3.15"/><rect class="b45a5651-68a2-4017-b6dc-7d058000de1a" x="36.18" y="84.94" width="12.58" height="3.15"/><rect class="52224f0d-c268-4cad-aca2-df68f5c27f5e" x="23.6" y="78.65" width="12.58" height="3.15"/><rect class="52224f0d-c268-4cad-aca2-df68f5c27f5e" x="23.6" y="84.94" width="12.58" height="3.15"/></g></g></svg>