<svg xmlns="http://www.w3.org/2000/svg" width="86.05" height="86.05" viewBox="0 0 86.05 86.05"><title>collaboration</title><g id="Layer_2" data-name="Layer 2"><g id="Layer_1-2" data-name="Layer 1"><path d="M43,18a12.48,12.48,0,0,0-6.94,22.86V45.8H50V40.91A12.48,12.48,0,0,0,43,18Zm0,15.27a2.78,2.78,0,1,1,2.78-2.78A2.77,2.77,0,0,1,43,33.31Z" style="fill:#f9ba48"/><path d="M19.43,25a9.72,9.72,0,0,0-6.28-9.08,8.33,8.33,0,1,0-6.87,0A9.72,9.72,0,0,0,0,25v4.16H19.43ZM4.16,8.33a5.55,5.55,0,1,1,5.55,5.55A5.56,5.56,0,0,1,4.16,8.33Zm12.49,18H2.78V25a6.94,6.94,0,0,1,13.88,0Z" style="fill:#333"/><path d="M46.46,72.81a8.33,8.33,0,1,0-6.87,0,9.72,9.72,0,0,0-6.28,9.08V86H52.74V81.88A9.72,9.72,0,0,0,46.46,72.81Zm-9-7.58A5.55,5.55,0,1,1,43,70.78,5.56,5.56,0,0,1,37.47,65.23ZM50,83.27H36.08V81.88a6.94,6.94,0,1,1,13.88,0Z" style="fill:#333"/><path d="M79.76,15.9a8.33,8.33,0,1,0-6.87,0A9.72,9.72,0,0,0,66.62,25v4.16H86V25A9.72,9.72,0,0,0,79.76,15.9Zm-9-7.58a5.55,5.55,0,1,1,5.55,5.55A5.56,5.56,0,0,1,70.78,8.33Zm12.49,18H69.39V25a6.94,6.94,0,0,1,13.88,0Z" style="fill:#333"/><rect x="47.45" y="47.19" width="36.95" height="2.78" transform="translate(-11.35 75.66) rotate(-55.7)" style="fill:#333"/><rect x="18.73" y="30.1" width="2.78" height="36.95" transform="translate(-23.87 19.78) rotate(-34.29)" style="fill:#333"/><rect x="23.31" y="2.78" width="39.42" height="2.78" style="fill:#333"/><path d="M49.27,43H44.41V34.44a4.16,4.16,0,1,0-2.78,0V43H36.78a3.46,3.46,0,0,0-1.84,6.4,3.45,3.45,0,0,0,3.23,4.7h9.71a3.45,3.45,0,0,0,3.23-4.7A3.46,3.46,0,0,0,49.27,43ZM43,29.14a1.39,1.39,0,1,1-1.39,1.39A1.39,1.39,0,0,1,43,29.14ZM36.78,45.8H49.27a.69.69,0,0,1,0,1.39H36.78a.69.69,0,1,1,0-1.39Zm11.1,5.55H38.17a.69.69,0,1,1,0-1.39h9.71a.69.69,0,0,1,0,1.39Z" style="fill:#333"/><rect x="41.64" y="9.71" width="2.78" height="5.55" style="fill:#333"/><rect x="32.61" y="12.13" width="2.78" height="5.55" transform="translate(-2.9 18.99) rotate(-29.99)" style="fill:#333"/><rect x="26.01" y="18.74" width="2.78" height="5.55" transform="translate(-4.93 34.49) rotate(-60.01)" style="fill:#333"/><rect x="22.21" y="29.14" width="5.55" height="2.78" style="fill:#333"/><rect x="24.62" y="38.17" width="5.55" height="2.78" transform="translate(-16.1 18.99) rotate(-29.99)" style="fill:#333"/><rect x="57.26" y="36.78" width="2.78" height="5.55" transform="translate(-4.93 70.57) rotate(-60.01)" style="fill:#333"/><rect x="58.29" y="29.14" width="5.55" height="2.78" style="fill:#333"/><rect x="55.87" y="20.12" width="5.55" height="2.78" transform="translate(-2.9 32.2) rotate(-29.99)" style="fill:#333"/><rect x="49.27" y="13.52" width="5.55" height="2.78" transform="translate(13.11 52.52) rotate(-60)" style="fill:#333"/></g></g></svg>