<svg xmlns="http://www.w3.org/2000/svg" width="81.37" height="85.98" viewBox="0 0 81.37 85.98"><title>data</title><g id="Layer_2" data-name="Layer 2"><g id="Layer_1-2" data-name="Layer 1"><path d="M73.63,12.28h0C72.5,5.43,56.47,0,36.85,0S1.19,5.43.07,12.28H0V69.09H.07c1.12,6.85,17.16,12.28,36.78,12.28S72.5,75.94,73.63,69.09h.07V12.28Z" style="fill:#545e73"/><path d="M36.85,62.95C16.5,62.95,0,57.1,0,49.9V69.09H.07c1.12,6.85,17.16,12.28,36.78,12.28S72.5,75.94,73.63,69.09h.07V49.9C73.7,57.1,57.2,62.95,36.85,62.95Z" style="fill:#38454f"/><path d="M0,49.13v.77a4.77,4.77,0,0,1,.07-.77Z" style="fill:#38454f"/><path d="M73.63,49.13a4.77,4.77,0,0,1,.07.77v-.77Z" style="fill:#38454f"/><path d="M36.85,44.52C16.5,44.52,0,38.68,0,31.47V50.67H.07c1.12,6.85,17.16,12.28,36.78,12.28S72.5,57.51,73.63,50.67h.07V31.47C73.7,38.68,57.2,44.52,36.85,44.52Z" style="fill:#556080"/><path d="M0,30.71v.77a4.77,4.77,0,0,1,.07-.77Z" style="fill:#556080"/><path d="M73.63,30.71a4.77,4.77,0,0,1,.07.77v-.77Z" style="fill:#556080"/><ellipse cx="36.85" cy="13.05" rx="36.85" ry="13.05" style="fill:#91bae1"/><path d="M36.85,26.1C16.5,26.1,0,20.26,0,13.05V32.24H.07c1.12,6.85,17.16,12.28,36.78,12.28S72.5,39.09,73.63,32.24h.07V13.05C73.7,20.26,57.2,26.1,36.85,26.1Z" style="fill:#8697cb"/><path d="M0,12.28v.77a4.77,4.77,0,0,1,.07-.77Z" style="fill:#8697cb"/><path d="M73.63,12.28a4.77,4.77,0,0,1,.07.77v-.77Z" style="fill:#8697cb"/><path d="M62.95,60.18c1.49-3.35,4.77-6.45,8.73-6.45,5.32,0,9.16,4.33,9.64,9.49A9,9,0,0,1,81,66.82a15.73,15.73,0,0,1-5.08,8.06L62.95,86,50,74.88a15.73,15.73,0,0,1-5.08-8.06,9,9,0,0,1-.31-3.59c.48-5.16,4.31-9.49,9.64-9.49C58.17,53.74,61.46,56.83,62.95,60.18Z" style="fill:#ed7161"/></g></g></svg>