<svg xmlns="http://www.w3.org/2000/svg" width="75.61" height="79.88" viewBox="0 0 75.61 79.88"><title>data</title><g id="Layer_2" data-name="Layer 2"><g id="Layer_1-2" data-name="Layer 1"><path d="M68.41,11.41h0C67.37,5,52.47,0,34.24,0S1.11,5,.06,11.41H0V64.19H.06c1,6.36,15.94,11.41,34.17,11.41s33.13-5,34.17-11.41h.06V11.41Z" style="fill:#545e73"/><path d="M34.24,58.49C15.33,58.49,0,53.06,0,46.36V64.19H.06c1,6.36,15.94,11.41,34.17,11.41s33.13-5,34.17-11.41h.06V46.36C68.47,53.06,53.14,58.49,34.24,58.49Z" style="fill:#38454f"/><path d="M0,45.65v.71a4.43,4.43,0,0,1,.06-.71Z" style="fill:#38454f"/><path d="M68.41,45.65a4.43,4.43,0,0,1,.06.71v-.71Z" style="fill:#38454f"/><path d="M34.24,41.37C15.33,41.37,0,35.94,0,29.24V47.07H.06c1,6.36,15.94,11.41,34.17,11.41s33.13-5,34.17-11.41h.06V29.24C68.47,35.94,53.14,41.37,34.24,41.37Z" style="fill:#556080"/><path d="M0,28.53v.71a4.43,4.43,0,0,1,.06-.71Z" style="fill:#556080"/><path d="M68.41,28.53a4.43,4.43,0,0,1,.06.71v-.71Z" style="fill:#556080"/><ellipse cx="34.24" cy="12.13" rx="34.24" ry="12.13" style="fill:#91bae1"/><path d="M34.24,24.25C15.33,24.25,0,18.82,0,12.13V30H.06c1,6.36,15.94,11.41,34.17,11.41s33.13-5,34.17-11.41h.06V12.13C68.47,18.82,53.14,24.25,34.24,24.25Z" style="fill:#8697cb"/><path d="M0,11.41v.71a4.43,4.43,0,0,1,.06-.71Z" style="fill:#8697cb"/><path d="M68.41,11.41a4.43,4.43,0,0,1,.06.71v-.71Z" style="fill:#8697cb"/><circle cx="58.49" cy="62.77" r="17.12" style="fill:#26b999"/><path d="M67.86,54.46a1.42,1.42,0,0,0-2,.36l-8,11.47-5.63-4.62a1.43,1.43,0,0,0-1.81,2.21l6.83,5.6a1.43,1.43,0,0,0,.9.32h.2a1.43,1.43,0,0,0,1-.6l8.86-12.74A1.43,1.43,0,0,0,67.86,54.46Z" style="fill:#fff"/></g></g></svg>