<svg xmlns="http://www.w3.org/2000/svg" width="52" height="52" viewBox="0 0 52 52"><title>Disquera</title><g id="Layer_2" data-name="Layer 2"><g id="Layer_1-2" data-name="Layer 1"><path d="M26,0A26,26,0,1,0,52,26,26,26,0,0,0,26,0Zm0,32a6,6,0,1,1,6-6A6,6,0,0,1,26,32Z" style="fill:#a8a8cc"/><path d="M52,26a26.15,26.15,0,0,1-3.48,13L31.19,29A5.86,5.86,0,0,0,32,26Z" style="fill:#ccbddb"/><path d="M43.4,45.32a26.62,26.62,0,0,1-3.62,2.73,27,27,0,0,1-4,2.06L28.25,31.56A5.77,5.77,0,0,0,30,30.45Z" style="fill:#c3e1ed"/><path d="M26,2A24,24,0,1,1,2,26,24,24,0,0,1,26,2m0-2A26,26,0,1,0,52,26,26,26,0,0,0,26,0Z" style="fill:#798d93"/><path d="M26,14A12,12,0,1,0,38,26,12,12,0,0,0,26,14Zm0,18a6,6,0,1,1,6-6A6,6,0,0,1,26,32Z" style="fill:#fff"/><path d="M26,16A10,10,0,1,1,16,26,10,10,0,0,1,26,16m0-2A12,12,0,1,0,38,26,12,12,0,0,0,26,14Z" style="fill:#798d93"/></g></g></svg>