<svg xmlns="http://www.w3.org/2000/svg" width="183.48" height="17.67" viewBox="0 0 183.48 17.67"><title>Estadologo</title><g id="Layer_2" data-name="Layer 2"><g id="Layer_1-2" data-name="Layer 1"><path d="M3.4,14.54h7.52v2.68H.18V.43H10.85V3.11H3.4V7.43H9.82v2.68H3.4Z" style="fill:#fff;stroke:#fff;stroke-miterlimit:10;stroke-width:0.3625582814399427px"/><path d="M175.78,14.54h7.52v2.68H172.56V.43h10.67V3.11h-7.45V7.43h6.42v2.68h-6.42Z" style="fill:#fff;stroke:#fff;stroke-miterlimit:10;stroke-width:0.3625582814399427px"/><path d="M24.1,2.66l-2.2,1.81A3.5,3.5,0,0,0,18.76,3,2.44,2.44,0,0,0,17,3.54,2,2,0,0,0,16.41,5q0,1.45,1.72,2l2.1.65a6.51,6.51,0,0,1,3.08,1.85,4.31,4.31,0,0,1,.94,2.82,4.65,4.65,0,0,1-1.65,3.76,6.45,6.45,0,0,1-4.28,1.38q-4.3,0-5.91-3.08l2.2-1.84A4.27,4.27,0,0,0,16,14.15a4.16,4.16,0,0,0,2.36.56,2.93,2.93,0,0,0,1.93-.57,1.9,1.9,0,0,0,.68-1.54q0-1.44-1.86-2L17,9.91q-3.91-1.24-3.91-4.64a5,5,0,0,1,1.4-3.63A5.64,5.64,0,0,1,18.76.18,6,6,0,0,1,24.1,2.66Z" style="fill:#fff;stroke:#fff;stroke-miterlimit:10;stroke-width:0.3625582814399427px"/><path d="M25.79.43h12V3.11H33.4V17.22H30.18V3.11H25.79Z" style="fill:#fff;stroke:#fff;stroke-miterlimit:10;stroke-width:0.3625582814399427px"/><path d="M158.27.43h12V3.11h-4.42V17.22h-3.22V3.11h-4.39Z" style="fill:#fff;stroke:#fff;stroke-miterlimit:10;stroke-width:0.3625582814399427px"/><path d="M50.25,17.22l-1.16-3.8H43l-1.17,3.8H38.46L44.22.43H47.9l5.79,16.79ZM46.07,3.78l-2.2,7h4.41Z" style="fill:#fff;stroke:#fff;stroke-miterlimit:10;stroke-width:0.3625582814399427px"/><path d="M139.31,17.22l-1.16-3.8h-6l-1.17,3.8h-3.42L133.28.43H137l5.79,16.79ZM135.14,3.78l-2.2,7h4.41Z" style="fill:#fff;stroke:#fff;stroke-miterlimit:10;stroke-width:0.3625582814399427px"/><path d="M55.27,17.22V.43h5.2q4.22,0,6.19,2t2,6.38q0,4.35-2,6.37t-6.19,2Zm3.22-2.68h1.78q2.83,0,3.93-1.24t1.1-4.47q0-3.15-1.11-4.43T60.28,3.11H58.5Z" style="fill:#fff;stroke:#fff;stroke-miterlimit:10;stroke-width:0.3625582814399427px"/><path d="M84.66,8.85A10.42,10.42,0,0,1,83,15.13a6.18,6.18,0,0,1-5.35,2.33q-3.66,0-5.35-2.32a10.52,10.52,0,0,1-1.68-6.3,10.63,10.63,0,0,1,1.68-6.33Q73.95.18,77.63.18a7.7,7.7,0,0,1,3.27.65,5.23,5.23,0,0,1,2.2,1.85,8.59,8.59,0,0,1,1.18,2.73A14.34,14.34,0,0,1,84.66,8.85Zm-10.76,0a9.35,9.35,0,0,0,.81,4.35,3.57,3.57,0,0,0,5.81,0,9.13,9.13,0,0,0,.83-4.33,9.28,9.28,0,0,0-.83-4.36,3.49,3.49,0,0,0-5.77,0A9.16,9.16,0,0,0,73.9,8.85Z" style="fill:#fff;stroke:#fff;stroke-miterlimit:10;stroke-width:0.3625582814399427px"/><path d="M87.72,17.22V.43h5.1q4.14,0,6.07,2t1.93,6.38q0,4.35-1.93,6.37t-6.07,2Zm3.16-2.68h1.75q2.78,0,3.85-1.24t1.08-4.47q0-3.15-1.09-4.43T92.63,3.11H90.88Z" style="fill:#fff;stroke:#fff;stroke-miterlimit:10;stroke-width:0.6325750773680313px"/><path d="M106.53,14.54h7.37v2.68H103.37V.43h10.46V3.11h-7.3V7.43h6.29v2.68h-6.29Z" style="fill:#fff;stroke:#fff;stroke-miterlimit:10;stroke-width:0.6325750773680313px"/><path d="M119.57,14.54H126v2.68h-9.57V.43h3.16Z" style="fill:#fff;stroke:#fff;stroke-miterlimit:10;stroke-width:0.6325750773680313px"/><path d="M145,17.22V.38h6.06a6.3,6.3,0,0,1,4.28,1.31,4.6,4.6,0,0,1,1.49,3.65,4.79,4.79,0,0,1-1,3,4.92,4.92,0,0,1-2.76,1.72l4,7.15h-3.5L150,10.37h-1.85l0,6.85Zm8.61-11.88A2.14,2.14,0,0,0,153,3.64a3.4,3.4,0,0,0-2.24-.57h-2.6V7.68h2.6A3.39,3.39,0,0,0,153,7.11,2.26,2.26,0,0,0,153.62,5.34Z" style="fill:#fff;stroke:#fff;stroke-miterlimit:10;stroke-width:0.5066106162777626px"/></g></g></svg>