<svg xmlns="http://www.w3.org/2000/svg" width="177.69" height="17.12" viewBox="0 0 177.69 17.12"><title>Estadologo</title><g id="Layer_2" data-name="Layer 2"><g id="Layer_1-2" data-name="Layer 1"><path d="M3.3,14.08h7.28v2.6H.18V.42H10.51V3H3.3V7.2H9.51V9.8H3.3Z" style="fill:#fff;stroke:#fff;stroke-miterlimit:10;stroke-width:0.35111630808807254px"/><path d="M170.23,14.08h7.28v2.6h-10.4V.42h10.33V3h-7.21V7.2h6.22V9.8h-6.22Z" style="fill:#fff;stroke:#fff;stroke-miterlimit:10;stroke-width:0.35111630808807254px"/><path d="M23.34,2.58,21.22,4.34a3.39,3.39,0,0,0-3-1.47,2.36,2.36,0,0,0-1.67.56,1.9,1.9,0,0,0-.6,1.46q0,1.4,1.67,1.92l2,.63a6.31,6.31,0,0,1,3,1.79A4.17,4.17,0,0,1,23.48,12a4.5,4.5,0,0,1-1.6,3.64,6.25,6.25,0,0,1-4.15,1.33q-4.16,0-5.72-3l2.13-1.78a4.14,4.14,0,0,0,1.31,1.53,4,4,0,0,0,2.28.54,2.83,2.83,0,0,0,1.87-.55,1.84,1.84,0,0,0,.66-1.49q0-1.39-1.8-2l-2-.63q-3.79-1.2-3.79-4.49A4.88,4.88,0,0,1,14,1.59,5.46,5.46,0,0,1,18.17.18,5.81,5.81,0,0,1,23.34,2.58Z" style="fill:#fff;stroke:#fff;stroke-miterlimit:10;stroke-width:0.35111630808807254px"/><path d="M25,.42H36.63V3H32.35V16.68H29.23V3H25Z" style="fill:#fff;stroke:#fff;stroke-miterlimit:10;stroke-width:0.35111630808807254px"/><path d="M153.27.42h11.65V3h-4.28V16.68h-3.12V3h-4.26Z" style="fill:#fff;stroke:#fff;stroke-miterlimit:10;stroke-width:0.35111630808807254px"/><path d="M48.66,16.68,47.54,13H41.68l-1.13,3.68H37.24L42.82.42h3.57L52,16.68Zm-4-13L42.48,10.4h4.27Z" style="fill:#fff;stroke:#fff;stroke-miterlimit:10;stroke-width:0.35111630808807254px"/><path d="M134.92,16.68,133.8,13h-5.86l-1.13,3.68H123.5L129.08.42h3.57l5.6,16.26Zm-4-13-2.13,6.73H133Z" style="fill:#fff;stroke:#fff;stroke-miterlimit:10;stroke-width:0.35111630808807254px"/><path d="M53.53,16.68V.42h5q4.09,0,6,1.95t1.9,6.18q0,4.21-1.9,6.17t-6,2Zm3.12-2.6h1.73q2.74,0,3.81-1.2t1.06-4.33q0-3.05-1.08-4.29T58.38,3H56.65Z" style="fill:#fff;stroke:#fff;stroke-miterlimit:10;stroke-width:0.35111630808807254px"/><path d="M82,8.57a10.09,10.09,0,0,1-1.65,6.09,6,6,0,0,1-5.18,2.26A6,6,0,0,1,70,14.67a10.19,10.19,0,0,1-1.63-6.1A10.29,10.29,0,0,1,70,2.44Q71.61.18,75.18.18A7.46,7.46,0,0,1,78.35.8a5.06,5.06,0,0,1,2.13,1.79,8.32,8.32,0,0,1,1.15,2.65A13.88,13.88,0,0,1,82,8.57Zm-10.43,0a9.05,9.05,0,0,0,.78,4.21,3.46,3.46,0,0,0,5.63,0,8.84,8.84,0,0,0,.8-4.2A9,9,0,0,0,78,4.35a3.38,3.38,0,0,0-5.59,0A8.87,8.87,0,0,0,71.57,8.57Z" style="fill:#fff;stroke:#fff;stroke-miterlimit:10;stroke-width:0.35111630808807254px"/><path d="M85,16.68V.42h4.94q4,0,5.88,1.95t1.87,6.18q0,4.21-1.87,6.17t-5.88,2ZM88,14.08H89.7q2.69,0,3.73-1.2t1-4.33q0-3.05-1.05-4.29T89.7,3H88Z" style="fill:#fff;stroke:#fff;stroke-miterlimit:10;stroke-width:0.6126116465244273px"/><path d="M103.17,14.08h7.14v2.6h-10.2V.42h10.13V3h-7.07V7.2h6.1V9.8h-6.1Z" style="fill:#fff;stroke:#fff;stroke-miterlimit:10;stroke-width:0.6126116465244273px"/><path d="M115.8,14.08H122v2.6h-9.27V.42h3.06Z" style="fill:#fff;stroke:#fff;stroke-miterlimit:10;stroke-width:0.6126116465244273px"/><path d="M140.43,16.68V.37h5.87a6.1,6.1,0,0,1,4.15,1.27,4.46,4.46,0,0,1,1.44,3.53A4.64,4.64,0,0,1,151,8.09a4.77,4.77,0,0,1-2.67,1.66l3.9,6.92H148.8L145.25,10h-1.79l0,6.63Zm8.34-11.51a2.07,2.07,0,0,0-.63-1.64A3.29,3.29,0,0,0,146,3h-2.52V7.44H146a3.28,3.28,0,0,0,2.18-.55A2.19,2.19,0,0,0,148.77,5.17Z" style="fill:#fff;stroke:#fff;stroke-miterlimit:10;stroke-width:0.49062249666233776px"/></g></g></svg>