<svg xmlns="http://www.w3.org/2000/svg" width="310.21" height="29.88" viewBox="0 0 310.21 29.88"><title>Estadologo</title><g id="Layer_2" data-name="Layer 2"><g id="Layer_1-2" data-name="Layer 1"><path d="M5.75,24.58H18.47v4.53H.31V.73h18V5.26H5.75v7.31H16.61V17.1H5.75Z" style="stroke:#000;stroke-miterlimit:10;stroke-width:0.6129705951340024px"/><path d="M297.19,24.58H309.9v4.53H291.74V.73h18V5.26H297.19v7.31H308V17.1H297.19Z" style="stroke:#000;stroke-miterlimit:10;stroke-width:0.6129705951340024px"/><path d="M40.75,4.51,37,7.57A5.92,5.92,0,0,0,31.71,5,4.12,4.12,0,0,0,28.8,6a3.31,3.31,0,0,0-1.05,2.55q0,2.45,2.91,3.36L34.21,13a11,11,0,0,1,5.2,3.12A7.29,7.29,0,0,1,41,20.88a7.85,7.85,0,0,1-2.79,6.36A10.91,10.91,0,0,1,31,29.57q-7.26,0-10-5.21l3.71-3.11A7.23,7.23,0,0,0,27,23.93a7,7,0,0,0,4,.94,5,5,0,0,0,3.26-1,3.21,3.21,0,0,0,1.16-2.6q0-2.43-3.14-3.44l-3.5-1.11q-6.61-2.1-6.61-7.84a8.52,8.52,0,0,1,2.37-6.13Q26.88.31,31.71.31,37.9.31,40.75,4.51Z" style="stroke:#000;stroke-miterlimit:10;stroke-width:0.6129705951340024px"/><path d="M43.6.73H63.94V5.26H56.47V29.11H51V5.26H43.6Z" style="stroke:#000;stroke-miterlimit:10;stroke-width:0.6129705951340024px"/><path d="M267.58.73h20.35V5.26h-7.47V29.11H275V5.26h-7.43Z" style="stroke:#000;stroke-miterlimit:10;stroke-width:0.6129705951340024px"/><path d="M85,29.11l-2-6.42H72.77l-2,6.42H65L74.76.73H81l9.78,28.39ZM77.89,6.39,74.16,18.15h7.45Z" style="stroke:#000;stroke-miterlimit:10;stroke-width:0.6129705951340024px"/><path d="M235.53,29.11l-2-6.42H223.35l-2,6.42H215.6L225.34.73h6.23l9.78,28.39ZM228.47,6.39l-3.73,11.76h7.45Z" style="stroke:#000;stroke-miterlimit:10;stroke-width:0.6129705951340024px"/><path d="M93.45,29.11V.73h8.79q7.14,0,10.46,3.4T116,14.92q0,7.35-3.32,10.77t-10.46,3.42Zm5.45-4.53h3q4.79,0,6.64-2.1t1.86-7.56q0-5.33-1.88-7.5t-6.62-2.16h-3Z" style="stroke:#000;stroke-miterlimit:10;stroke-width:0.6129705951340024px"/><path d="M143.14,15q0,6.68-2.89,10.62t-9,3.95q-6.19,0-9-3.93T119.33,15q0-6.76,2.85-10.71T131.26.31a13,13,0,0,1,5.53,1.09,8.84,8.84,0,0,1,3.71,3.13,14.52,14.52,0,0,1,2,4.62A24.24,24.24,0,0,1,143.14,15Zm-18.2,0a15.81,15.81,0,0,0,1.36,7.35q1.36,2.52,4.91,2.52t4.91-2.54a15.43,15.43,0,0,0,1.4-7.33,15.69,15.69,0,0,0-1.4-7.37,5.9,5.9,0,0,0-9.76,0A15.49,15.49,0,0,0,124.94,15Z" style="stroke:#000;stroke-miterlimit:10;stroke-width:0.6129705951340024px"/><path d="M148.31,29.11V.73h8.62q7,0,10.26,3.4t3.26,10.79q0,7.35-3.26,10.77t-10.26,3.42Zm5.34-4.53h3q4.69,0,6.51-2.1t1.82-7.56q0-5.33-1.84-7.5T156.6,5.26h-3Z" style="stroke:#000;stroke-miterlimit:10;stroke-width:1.0694830086385714px"/><path d="M180.11,24.58h12.46v4.53h-17.8V.73h17.68V5.26H180.11v7.31h10.64V17.1H180.11Z" style="stroke:#000;stroke-miterlimit:10;stroke-width:1.0694830086385714px"/><path d="M202.16,24.58H213v4.53H196.82V.73h5.34Z" style="stroke:#000;stroke-miterlimit:10;stroke-width:1.0694830086385714px"/><path d="M245.16,29.11V.64H255.4q4.72,0,7.24,2.21A7.78,7.78,0,0,1,265.17,9a8.11,8.11,0,0,1-1.62,5.1A8.32,8.32,0,0,1,258.89,17l6.8,12.09h-5.92l-6.19-11.58h-3.13l0,11.58ZM259.73,9a3.62,3.62,0,0,0-1.1-2.86,5.75,5.75,0,0,0-3.78-1h-4.4V13h4.4a5.73,5.73,0,0,0,3.8-1A3.82,3.82,0,0,0,259.73,9Z" style="stroke:#000;stroke-miterlimit:10;stroke-width:0.8565172190458544px"/></g></g></svg>