<svg xmlns="http://www.w3.org/2000/svg" width="150.96" height="14.08" viewBox="0 0 150.96 14.08"><title>Estadologo1</title><g id="Layer_2" data-name="Layer 2"><g id="Layer_1-2" data-name="Layer 1"><g id="Layer_2-2" data-name="Layer 2"><g id="Layer_1-2-2" data-name="Layer 1-2"><path d="M2.69,11.51H8.64v2.12H.14V.36H8.58V2.46H2.69V5.89H7.76V8H2.69Z" style="fill:#ffcd3a;stroke:#ffcd3a;stroke-miterlimit:10;stroke-width:0.2866936414336058px"/><path d="M139,11.51h5.94v2.12h-8.49V.36h8.43V2.46H139V5.89h5.08V8H139Z" style="fill:#ffcd3a;stroke:#ffcd3a;stroke-miterlimit:10;stroke-width:0.2866936414336058px"/><path d="M19.05,2.12,17.32,3.56a2.77,2.77,0,0,0-2.45-1.2,1.93,1.93,0,0,0-1.36.46A1.55,1.55,0,0,0,13,4q0,1.14,1.36,1.57L16,6.09a5.15,5.15,0,0,1,2.45,1.46,3.4,3.4,0,0,1,.7,2.26,3.67,3.67,0,0,1-1.31,3,5.1,5.1,0,0,1-3.39,1.09q-3.4,0-4.67-2.45L11.54,10a3.38,3.38,0,0,0,1.07,1.25,3.27,3.27,0,0,0,1.86.44A2.31,2.31,0,0,0,16,11.21,1.5,1.5,0,0,0,16.54,10q0-1.13-1.47-1.63l-1.63-.51q-3.09-1-3.09-3.67a4,4,0,0,1,1.09-2.87A4.46,4.46,0,0,1,14.83.16,4.74,4.74,0,0,1,19.05,2.12Z" style="fill:#ffcd3a;stroke:#ffcd3a;stroke-miterlimit:10;stroke-width:0.2866936414336058px"/><path d="M20.41.36h9.5V2.46H26.41V13.63H23.86V2.46H20.41Z" style="fill:#ffcd3a;stroke:#ffcd3a;stroke-miterlimit:10;stroke-width:0.2866936414336058px"/><path d="M125.14.36h9.51V2.46h-3.49V13.63h-2.55V2.46h-3.48Z" style="fill:#ffcd3a;stroke:#ffcd3a;stroke-miterlimit:10;stroke-width:0.2866936414336058px"/><path d="M39.73,13.63l-.91-3H34l-.92,3H30.4L35,.36h2.91l4.58,13.28ZM36.46,3,34.68,8.51h3.49Z" style="fill:#ffcd3a;stroke:#ffcd3a;stroke-miterlimit:10;stroke-width:0.2866936414336058px"/><path d="M110.16,13.63l-.91-3h-4.78l-.92,3h-2.7L105.39.36h2.91l4.57,13.28ZM106.9,3l-1.74,5.5h3.44Z" style="fill:#ffcd3a;stroke:#ffcd3a;stroke-miterlimit:10;stroke-width:0.2866936414336058px"/><path d="M43.7,13.63V.36h4.08q3.34,0,4.9,1.59t1.55,5q0,3.44-1.55,5t-4.9,1.63Zm2.55-2.12h1.41a4,4,0,0,0,3.11-1A5.37,5.37,0,0,0,51.64,7a5.37,5.37,0,0,0-.88-3.5,4,4,0,0,0-3.09-1H46.25Z" style="fill:#ffcd3a;stroke:#ffcd3a;stroke-miterlimit:10;stroke-width:0.2866936414336058px"/><path d="M67,7a8.24,8.24,0,0,1-1.35,5,4.9,4.9,0,0,1-4.23,1.85A4.9,4.9,0,0,1,57.15,12a8.32,8.32,0,0,1-1.33-5,8.4,8.4,0,0,1,1.33-5A4.83,4.83,0,0,1,61.38.16,6.09,6.09,0,0,1,64,.67a4.13,4.13,0,0,1,1.74,1.46,6.79,6.79,0,0,1,.94,2.16A11.33,11.33,0,0,1,67,7ZM58.43,7a7.39,7.39,0,0,0,.64,3.44,2.83,2.83,0,0,0,4.6,0A7.22,7.22,0,0,0,64.32,7a7.35,7.35,0,0,0-.64-3.45,2.76,2.76,0,0,0-4.56,0A7.24,7.24,0,0,0,58.43,7Z" style="fill:#ffcd3a;stroke:#ffcd3a;stroke-miterlimit:10;stroke-width:0.2866936414336058px"/><path d="M69.4,13.63V.36h4a6.41,6.41,0,0,1,4.8,1.59q1.54,1.59,1.53,5t-1.53,5a6.46,6.46,0,0,1-4.8,1.63Zm2.45-2.12h1.39a3.89,3.89,0,0,0,3-1A5.4,5.4,0,0,0,77.1,7a5.49,5.49,0,0,0-.86-3.5,3.81,3.81,0,0,0-3-1H71.85Z" style="fill:#ffcd3a;stroke:#ffcd3a;stroke-miterlimit:10;stroke-width:0.5002099455818395px"/><path d="M84.24,11.51h5.83v2.12H81.74V.36H90V2.46H84.24V5.89h5V8h-5Z" style="fill:#ffcd3a;stroke:#ffcd3a;stroke-miterlimit:10;stroke-width:0.5002099455818395px"/><path d="M94.55,11.51h5.06v2.12H92V.36h2.5Z" style="fill:#ffcd3a;stroke:#ffcd3a;stroke-miterlimit:10;stroke-width:0.5002099455818395px"/><path d="M114.66,13.63V.32h4.79a5,5,0,0,1,3.39,1A3.64,3.64,0,0,1,124,4.24a3.79,3.79,0,0,1-.73,2.38A3.89,3.89,0,0,1,121.11,8l3.18,5.65h-2.8l-2.9-5.45h-1.46v5.41Zm6.81-9.4A1.69,1.69,0,0,0,121,2.9a2.69,2.69,0,0,0-1.75-.43h-2.06V6.09h2.06A2.68,2.68,0,0,0,121,5.64a1.79,1.79,0,0,0,.48-1.4Z" style="fill:#ffcd3a;stroke:#ffcd3a;stroke-miterlimit:10;stroke-width:0.40060330027578644px"/></g></g><path d="M151,11.73a2.38,2.38,0,1,1-2.37-2.32A2.33,2.33,0,0,1,151,11.73Zm-4.17,0a1.8,1.8,0,0,0,1.81,1.85,1.77,1.77,0,0,0,1.77-1.84,1.79,1.79,0,1,0-3.58,0Zm1.43,1.22h-.54V10.63a4.68,4.68,0,0,1,.89-.07,1.43,1.43,0,0,1,.8.17.64.64,0,0,1,.23.51.59.59,0,0,1-.48.54v0a.69.69,0,0,1,.42.57,1.74,1.74,0,0,0,.17.58h-.58a1.92,1.92,0,0,1-.18-.56c0-.26-.18-.37-.48-.37h-.25Zm0-1.31h.25c.3,0,.54-.1.54-.34s-.16-.35-.49-.35a1.23,1.23,0,0,0-.3,0Z" style="fill:#ffcd3a"/></g></g></svg>