<svg xmlns="http://www.w3.org/2000/svg" width="232.31" height="41.4" viewBox="0 0 232.31 41.4"><title>Estadologo</title><g id="Layer_2" data-name="Layer 2"><g id="Layer_1-2" data-name="Layer 1"><path d="M3.61,29.42h8v2.84H.19V14.48h11.3v2.84H3.61V21.9h6.8v2.84H3.61Z" style="fill:#fff;stroke:#fff;stroke-miterlimit:10;stroke-width:0.384029468595365px"/><path d="M25.53,16.85,23.2,18.77a3.71,3.71,0,0,0-3.34-1.6,2.58,2.58,0,0,0-1.82.61,2.08,2.08,0,0,0-.66,1.6q0,1.53,1.83,2.1l2.22.68a6.9,6.9,0,0,1,3.26,2,4.57,4.57,0,0,1,1,3,4.92,4.92,0,0,1-1.75,4,6.83,6.83,0,0,1-4.54,1.46q-4.55,0-6.26-3.26l2.33-1.95A4.53,4.53,0,0,0,16.91,29a4.41,4.41,0,0,0,2.5.59,3.1,3.1,0,0,0,2-.6,2,2,0,0,0,.72-1.63q0-1.52-2-2.16L18,24.53q-4.14-1.31-4.14-4.91a5.34,5.34,0,0,1,1.49-3.84,6,6,0,0,1,4.51-1.55Q23.75,14.22,25.53,16.85Z" style="fill:#fff;stroke:#fff;stroke-miterlimit:10;stroke-width:0.384029468595365px"/><path d="M27.31,14.48H40.06v2.84H35.38V32.27H32V17.32H27.31Z" style="fill:#fff;stroke:#fff;stroke-miterlimit:10;stroke-width:0.384029468595365px"/><path d="M53.22,32.27l-1.23-4H45.59l-1.24,4H40.73l6.1-17.78h3.9l6.13,17.78ZM48.8,18,46.46,25.4h4.67Z" style="fill:#fff;stroke:#fff;stroke-miterlimit:10;stroke-width:0.384029468595365px"/><path d="M58.55,32.27V14.48h5.51q4.47,0,6.55,2.13t2.08,6.76q0,4.6-2.08,6.75t-6.55,2.14ZM62,29.42h1.89q3,0,4.16-1.32t1.16-4.73q0-3.34-1.18-4.7t-4.15-1.35H62Z" style="fill:#fff;stroke:#fff;stroke-miterlimit:10;stroke-width:0.384029468595365px"/><path d="M89.68,23.4a11,11,0,0,1-1.81,6.66q-1.81,2.47-5.66,2.47t-5.66-2.46a11.14,11.14,0,0,1-1.78-6.67,11.26,11.26,0,0,1,1.78-6.71q1.78-2.47,5.69-2.47a8.16,8.16,0,0,1,3.46.68,5.54,5.54,0,0,1,2.33,2,9.1,9.1,0,0,1,1.25,2.89A15.19,15.19,0,0,1,89.68,23.4Zm-11.4,0a9.9,9.9,0,0,0,.85,4.6,3.78,3.78,0,0,0,6.15,0,9.67,9.67,0,0,0,.88-4.59,9.83,9.83,0,0,0-.88-4.62,3.7,3.7,0,0,0-6.11,0A9.71,9.71,0,0,0,78.28,23.4Z" style="fill:#fff;stroke:#fff;stroke-miterlimit:10;stroke-width:0.384029468595365px"/><path d="M205.35,3.33s1.52,2-1.36,2.05S205.35,3.33,205.35,3.33Z" style="fill:#0c773f"/><path d="M222.12,35.6a8,8,0,0,1,.29,2,9.56,9.56,0,0,1-.13,2l-.09.53-.39-.4a34.53,34.53,0,0,1-3-3.76c-.46-.65-.92-1.3-1.37-2l-.65-1-.33-.49-.15-.24-.07-.11,0,0h0a.62.62,0,0,0,.28.18l.41-1.33a.74.74,0,0,1,.45.39.54.54,0,0,1,0,.11.78.78,0,0,1,0,.11v.24l0,.23-.06.44c0,.29-.09.57-.11.85,0,.57,0,1.13,0,1.7l0,1.73A13.73,13.73,0,0,1,217,38.5l-.12.72-.79-.09c-1.51-.18-3-.45-4.51-.74l-.75-.14,0-.74a8.94,8.94,0,0,0-.62-3.62,13.15,13.15,0,0,0-2-3.24c-1.67-2.16-3.2-4.37-4.81-6.55a17,17,0,0,1-3.64-7.53,6.8,6.8,0,0,1,.73-4.35A15.75,15.75,0,0,1,203.29,9l-.16.6a4.89,4.89,0,0,0-.4-1.11c-.18-.26-.23-.3-.54-.27a2.52,2.52,0,0,0-1,.42,5,5,0,0,0-.9.8l-.89,1-.08-1.28A7.22,7.22,0,0,1,201.15,4a9.85,9.85,0,0,1,2.1-1.76,6.28,6.28,0,0,1,2.6-1,4.11,4.11,0,0,1,2.73.8,7.89,7.89,0,0,1,1.88,2,18.87,18.87,0,0,1,2.24,4.81L212,9a16.23,16.23,0,0,0-2.23-4.54c-.95-1.34-2.33-2.52-3.87-2.33a5.42,5.42,0,0,0-2.17.91,8.86,8.86,0,0,0-1.84,1.6,6.61,6.61,0,0,0-1.18,2.08,5.85,5.85,0,0,0-.3,2.3l-1-.29a6.17,6.17,0,0,1,1.09-1A3.62,3.62,0,0,1,202,7.11a1.66,1.66,0,0,1,1,.12,1.79,1.79,0,0,1,.73.68,5.78,5.78,0,0,1,.55,1.4l.11.34-.26.27a14.8,14.8,0,0,0-2.51,2.94,5.48,5.48,0,0,0-.5,3.51,11.18,11.18,0,0,0,1.3,3.56,24.78,24.78,0,0,0,2.21,3.26c1.63,2.14,3.24,4.33,4.89,6.43a14.76,14.76,0,0,1,2.25,3.63,10.94,10.94,0,0,1,.78,4.31l-.72-.88c1.49.25,3,.52,4.45.87l-.91.63c.13-.52.27-1.05.39-1.59s.23-1.1.3-1.63.1-1.12.1-1.67c0-.28,0-.56-.07-.84l-.05-.41,0-.19v-.07s0,0,0,0a.37.37,0,0,0,0,.06l0,.08a.68.68,0,0,0,.44.36l.41-1.33a.86.86,0,0,1,.33.23l0,.05.07.09.1.14.17.26.3.52.6,1,1.16,2.07a29.35,29.35,0,0,0,2.53,4l-.49.13a9.07,9.07,0,0,0,.25-1.86,13.11,13.11,0,0,0-.09-1.9Z" style="fill:#fff"/><polyline points="201.11 4.88 201.11 0.5 228.5 0.5 228.5 29.95 228.5 31.61" style="fill:none;stroke:#fff;stroke-miterlimit:10"/><polyline points="228.5 37.62 228.5 40.9 201.11 40.9 201.11 18.35" style="fill:none;stroke:#fff;stroke-miterlimit:10"/><polygon points="211.66 37.34 209.1 36.49 208.9 36.42 208.87 36.2 208.16 30.11 209.35 30.03 209.54 36.15 209.31 35.85 211.87 36.7 211.66 37.34" style="fill:#fff"/><polygon points="214.79 38.16 213.69 41.33 212.48 40.98 213.22 37.71 214.79 38.16" style="fill:#fff"/><polygon points="211.91 37.26 210.46 41 209.46 40.69 210.35 36.78 211.91 37.26" style="fill:#fff"/><path d="M96.18,30.82V15.93h4.46q3.62,0,5.31,1.78t1.69,5.66q0,3.85-1.69,5.65t-5.31,1.79Zm2.77-2.38h1.53a4.27,4.27,0,0,0,3.37-1.1q.94-1.1.94-4a6.2,6.2,0,0,0-1-3.93,4.21,4.21,0,0,0-3.36-1.13H98.94Z" style="fill:#fff;stroke:#fff;stroke-miterlimit:10;stroke-width:0.557242878630357px"/><path d="M112.64,28.44h6.45v2.38h-9.22V15.93H119v2.38h-6.39v3.83h5.51v2.38h-5.51Z" style="fill:#fff;stroke:#fff;stroke-miterlimit:10;stroke-width:0.557242878630357px"/><path d="M124.06,28.44h5.61v2.38h-8.38V15.93h2.77Z" style="fill:#fff;stroke:#fff;stroke-miterlimit:10;stroke-width:0.557242878630357px"/><path d="M146.75,32.27l-1.15-4h-6l-1.16,4H135l5.75-17.78h3.68l5.77,17.78ZM142.58,18l-2.2,7.37h4.39Z" style="fill:#fff;stroke:#fff;stroke-miterlimit:10;stroke-width:0.528049486905501px"/><path d="M151.77,32.27V14.48H158a6.37,6.37,0,0,1,4.41,1.38,4.92,4.92,0,0,1,1.53,3.85,5.15,5.15,0,0,1-1,3.18,5,5,0,0,1-2.84,1.81l4.14,7.55h-3.6L156.88,25H155l0,7.23Zm8.86-12.55a2.29,2.29,0,0,0-.67-1.79,3.43,3.43,0,0,0-2.3-.6H155v4.87h2.68a3.42,3.42,0,0,0,2.31-.61A2.42,2.42,0,0,0,160.63,19.72Z" style="fill:#fff;stroke:#fff;stroke-miterlimit:10;stroke-width:0.528049486905501px"/><path d="M165.47,14.48h12v2.84h-4.41V32.27h-3.21V17.32h-4.38Z" style="fill:#fff;stroke:#fff;stroke-miterlimit:10;stroke-width:0.528049486905501px"/><path d="M183,29.42h7.5v2.84H179.76V14.48H190.4v2.84H183V21.9h6.4v2.84H183Z" style="fill:#fff;stroke:#fff;stroke-miterlimit:10;stroke-width:0.528049486905501px"/><path d="M211.13,25.69c-.56-1.06-1.14-2.11-1.64-3.19a21.34,21.34,0,0,1-1.13-3.43,12.52,12.52,0,0,1,.22-7.25,6.9,6.9,0,0,1,2.18-3.09A3.92,3.92,0,0,1,212.66,8a4.49,4.49,0,0,1,2,.25,8.66,8.66,0,0,1,3.08,2.11A24.33,24.33,0,0,1,220.12,13a38.3,38.3,0,0,1,3.74,6.05c1.07,2.1,2,4.26,2.88,6.45,1.7,4.37,3.2,8.8,4.88,13.11v0l.68,1.78-1.78-.52a36.13,36.13,0,0,1-5.76-2.21,34,34,0,0,1-5.23-3.18,40.54,40.54,0,0,1-4.6-4A28.18,28.18,0,0,1,211.13,25.69Zm1.28-.77a30.75,30.75,0,0,0,3.38,4.8,23.38,23.38,0,0,0,4.38,3.93,26.39,26.39,0,0,0,5.15,2.83,24,24,0,0,0,5.62,1.57l-1.09,1.26v0c-1.6-4.42-2.91-8.9-4.55-13.23a51,51,0,0,0-6.24-12.25,23,23,0,0,0-2.22-2.57,7.47,7.47,0,0,0-2.6-1.87,2.87,2.87,0,0,0-2.77.29,5.56,5.56,0,0,0-1.8,2.54,10.56,10.56,0,0,0,0,6.52,19.91,19.91,0,0,0,1.18,3.17Z" style="fill:#fff"/><line x1="2.5" y1="35.42" x2="192.49" y2="35.42"/></g></g></svg>