<svg xmlns="http://www.w3.org/2000/svg" xmlns:xlink="http://www.w3.org/1999/xlink" width="112.31" height="117.62" viewBox="0 0 112.31 117.62"><defs><style>.e767b98b-abcf-4ca5-80e9-54fe10fd86bc{fill:#006837;stroke:url(#192a5244-ba13-46f4-810b-3bd9d1b32789);}.\34 dbc1192-2d4d-47f2-8504-3ad43e1d6383,.\37 6b58947-8f14-4943-b9f2-b8c7fc1a05b2,.cc6c8e75-8d60-4b33-a827-02b49bcbce17,.e767b98b-abcf-4ca5-80e9-54fe10fd86bc{stroke-miterlimit:10;}.\34 dbc1192-2d4d-47f2-8504-3ad43e1d6383,.\37 6b58947-8f14-4943-b9f2-b8c7fc1a05b2,.cc6c8e75-8d60-4b33-a827-02b49bcbce17{fill:none;}.\37 6b58947-8f14-4943-b9f2-b8c7fc1a05b2{stroke-width:3.5px;stroke:url(#e3c2595f-fde2-4c07-8949-1415ceae4f14);}.\34 dbc1192-2d4d-47f2-8504-3ad43e1d6383,.cc6c8e75-8d60-4b33-a827-02b49bcbce17{stroke-width:2.35px;}.\34 dbc1192-2d4d-47f2-8504-3ad43e1d6383{stroke:url(#f2978906-7824-4c0d-b60f-203362097044);}.cc6c8e75-8d60-4b33-a827-02b49bcbce17{stroke:url(#efc0dd8d-c657-4cef-abf7-50e18b530609);}</style><linearGradient id="192a5244-ba13-46f4-810b-3bd9d1b32789" x1="96.17" y1="17.83" x2="103.47" y2="17.83" gradientUnits="userSpaceOnUse"><stop offset="0" stop-color="#a37540"/><stop offset="0.38" stop-color="#b38650"/><stop offset="0.85" stop-color="#d3a66b"/></linearGradient><linearGradient id="e3c2595f-fde2-4c07-8949-1415ceae4f14" x1="0" y1="62.79" x2="112.31" y2="62.79" xlink:href="#192a5244-ba13-46f4-810b-3bd9d1b32789"/><linearGradient id="f2978906-7824-4c0d-b60f-203362097044" x1="17.35" y1="42.49" x2="103.01" y2="42.49" xlink:href="#192a5244-ba13-46f4-810b-3bd9d1b32789"/><linearGradient id="efc0dd8d-c657-4cef-abf7-50e18b530609" x1="17.14" y1="88.42" x2="103.01" y2="88.42" xlink:href="#192a5244-ba13-46f4-810b-3bd9d1b32789"/></defs><title>Estadoeagle</title><g id="3a7f2a25-a90f-4730-865b-0b543243decb" data-name="Layer 2"><g id="9549dd4d-3615-4016-b1bf-c6978e5b9fdf" data-name="Layer 1"><path class="e767b98b-abcf-4ca5-80e9-54fe10fd86bc" d="M98,15.14s-4.26,4.38,2.5,5.43S98,15.14,98,15.14Z"/><path class="76b58947-8f14-4943-b9f2-b8c7fc1a05b2" d="M85.85,37.38c-.52-4.32-3.52-11.49-8.91-12a4.22,4.22,0,0,0-.84,0c-6.25.61-11.45,4.31-15.93,8.47-4.94,4.58-10,9.19-14.11,14.59C33.55,65,21.48,79.77,10.61,97.48c14.75-1.25,29.6-1.62,42.79-8.74,9.44-5.09,19.38-9.57,25.24-19a49.91,49.91,0,0,0,3-5.7A50.5,50.5,0,0,0,85.85,37.38ZM75.58,26.54S87.28,2.89,100.27,11.65s10,19.35,10,19.35a12.2,12.2,0,0,0-4.65-4.38c-3.34-1.57-6,1.31-7.13,4.17,2.78,3.64,6.22,7.7,7,12.33.88,5.41-1.11,11-3.58,15.76-4.17,8-8.64,13.38-14.68,20C84.85,81.45,80.47,86,78,88.36c-1.73,1.64-5.56,4.48-6.2,6.87l-3.3,12.36-12.22.83L56,95.48m13,10.88,5.73-.15,3.11-16.81M17.89,96.88,5.32,107.44l6-.48A120.37,120.37,0,0,0,42,100.78a53.43,53.43,0,0,0,14.84-7.41c4.71-3.45,8.14-7.8,11.53-12.48m-5.72,28.68,1.49,7.72m5.1-9.33,2,8.09"/><polyline class="4dbc1192-2d4d-47f2-8504-3ad43e1d6383" points="18.53 84.98 18.53 1.18 101.83 1.18 101.83 11.78"/><polyline class="cc6c8e75-8d60-4b33-a827-02b49bcbce17" points="18.31 107.25 18.31 116.06 101.83 116.06 101.83 59.6"/></g></g></svg>