<svg xmlns="http://www.w3.org/2000/svg" width="221.5" height="84.75" viewBox="0 0 221.5 84.75"><defs><style>.\33 eb7984a-52f2-4013-a97f-8dd00e8e5d8e,.\35 147e9a9-9088-47b7-8e3c-d712afafb916,.c3a16b3d-ee7b-4a47-97a8-2ad10d0cf2c7,.e9a4c8ad-08df-42fd-b058-2772396bceb0{stroke:#000;stroke-miterlimit:10;}.e9a4c8ad-08df-42fd-b058-2772396bceb0{stroke-width:0.3px;}.c3a16b3d-ee7b-4a47-97a8-2ad10d0cf2c7{fill:#006837;stroke-width:0.72px;}.\33 eb7984a-52f2-4013-a97f-8dd00e8e5d8e,.\35 147e9a9-9088-47b7-8e3c-d712afafb916{fill:none;}.\33 eb7984a-52f2-4013-a97f-8dd00e8e5d8e{stroke-width:2.52px;}.\35 147e9a9-9088-47b7-8e3c-d712afafb916{stroke-width:1.7px;}</style></defs><title>Estadologomin</title><g id="1e4f3b31-558e-47c0-b18b-774fbff6f40b" data-name="Layer 2"><g id="18550bfd-dfdb-4e45-9f19-89e30bb370e4" data-name="Layer 1"><path class="e9a4c8ad-08df-42fd-b058-2772396bceb0" d="M104.37,39.41h10v3.5H100.09V21h14.18v3.5h-9.89v5.64h8.53v3.5h-8.53Z"/><path class="e9a4c8ad-08df-42fd-b058-2772396bceb0" d="M131.88,23.9,129,26.27a4.68,4.68,0,0,0-4.18-2,3.27,3.27,0,0,0-2.29.75,2.54,2.54,0,0,0-.83,2q0,1.89,2.29,2.6l2.79.84a8.68,8.68,0,0,1,4.09,2.41,5.57,5.57,0,0,1,1.24,3.69,6,6,0,0,1-2.19,4.91,8.67,8.67,0,0,1-5.69,1.8q-5.71,0-7.85-4l2.92-2.4a4.85,4.85,0,0,0,4.93,2.79,3.94,3.94,0,0,0,2.56-.75,2.46,2.46,0,0,0,.91-2q0-1.88-2.47-2.66l-2.75-.86q-5.19-1.62-5.19-6.06a6.52,6.52,0,0,1,1.87-4.74q1.87-1.91,5.66-1.91Q129.64,20.66,131.88,23.9Z"/><path class="e9a4c8ad-08df-42fd-b058-2772396bceb0" d="M134.12,21h16v3.5h-5.87V42.91H140V24.48h-5.84Z"/><path class="e9a4c8ad-08df-42fd-b058-2772396bceb0" d="M166.62,42.91l-1.54-5h-8l-1.55,5H151L158.61,21h4.9l7.69,21.93Zm-5.55-17.55-2.93,9.08H164Z"/><path class="e9a4c8ad-08df-42fd-b058-2772396bceb0" d="M173.3,42.91V21h6.91q5.61,0,8.22,2.63T191,31.94q0,5.68-2.61,8.32t-8.22,2.64Zm4.28-3.5H180q3.76,0,5.22-1.62t1.46-5.84q0-4.12-1.48-5.79T180,24.48h-2.37Z"/><path class="e9a4c8ad-08df-42fd-b058-2772396bceb0" d="M212.36,32a13.44,13.44,0,0,1-2.27,8.21q-2.27,3-7.1,3t-7.1-3q-2.24-3-2.24-8.22t2.24-8.27q2.24-3,7.14-3a10.39,10.39,0,0,1,4.35.84,6.92,6.92,0,0,1,2.92,2.42,11.12,11.12,0,0,1,1.57,3.57A18.42,18.42,0,0,1,212.36,32Zm-14.3,0a12,12,0,0,0,1.07,5.68,4.79,4.79,0,0,0,7.72,0,11.75,11.75,0,0,0,1.1-5.66,11.94,11.94,0,0,0-1.1-5.69,4.69,4.69,0,0,0-7.67,0A11.79,11.79,0,0,0,198.05,32Z"/><path class="e9a4c8ad-08df-42fd-b058-2772396bceb0" d="M88.88,68.09V46.16h6.91q5.61,0,8.22,2.63t2.61,8.34q0,5.68-2.61,8.32t-8.22,2.64Zm4.28-3.5h2.37q3.76,0,5.22-1.62t1.46-5.84q0-4.12-1.48-5.79t-5.21-1.67H93.16Z"/><path class="e9a4c8ad-08df-42fd-b058-2772396bceb0" d="M114.38,64.58h10v3.5H110.1V46.16h14.18v3.5h-9.89v5.64h8.53v3.5h-8.53Z"/><path class="e9a4c8ad-08df-42fd-b058-2772396bceb0" d="M132.06,64.58h8.69v3.5h-13V46.16h4.28Z"/><path class="e9a4c8ad-08df-42fd-b058-2772396bceb0" d="M163.1,68.09l-1.54-5h-8l-1.55,5h-4.54l7.65-21.93H160l7.69,21.93Zm-5.55-17.55-2.93,9.08h5.86Z"/><path class="e9a4c8ad-08df-42fd-b058-2772396bceb0" d="M169.78,68.09V46.16h8.3a9,9,0,0,1,5.87,1.7,5.85,5.85,0,0,1,2,4.75,6,6,0,0,1-1.31,3.93,6.8,6.8,0,0,1-3.78,2.24l5.51,9.31h-4.8l-5-8.92h-2.54l0,8.92Zm11.81-15.47a2.71,2.71,0,0,0-.89-2.21,4.84,4.84,0,0,0-3.07-.75h-3.57v6h3.57a4.83,4.83,0,0,0,3.08-.75A2.86,2.86,0,0,0,181.59,52.61Z"/><path class="e9a4c8ad-08df-42fd-b058-2772396bceb0" d="M188,46.16h16v3.5h-5.87V68.09h-4.28V49.66H188Z"/><path class="e9a4c8ad-08df-42fd-b058-2772396bceb0" d="M211.36,64.58h10v3.5H207.08V46.16h14.18v3.5h-9.89v5.64h8.53v3.5h-8.53Z"/><path class="c3a16b3d-ee7b-4a47-97a8-2ad10d0cf2c7" d="M70.61,10.91s-3.07,3.15,1.8,3.91S70.61,10.91,70.61,10.91Z"/><path class="3eb7984a-52f2-4013-a97f-8dd00e8e5d8e" d="M61.86,26.93c-.37-3.11-2.54-8.28-6.42-8.67a3,3,0,0,0-.6,0c-4.5.44-8.25,3.11-11.48,6.1A83.44,83.44,0,0,0,33.19,34.88c-9,11.94-17.72,22.6-25.55,35.36,10.63-.9,21.33-1.16,30.83-6.29,6.8-3.67,14-6.89,18.19-13.72a36,36,0,0,0,2.18-4.11A36.39,36.39,0,0,0,61.86,26.93Zm-7.4-7.81s8.44-17,17.79-10.73,7.2,13.94,7.2,13.94a8.79,8.79,0,0,0-3.35-3.15c-2.41-1.13-4.31.94-5.14,3,2,2.62,4.48,5.55,5,8.89.63,3.9-.8,7.94-2.58,11.35-3,5.74-6.22,9.64-10.58,14.42-1.68,1.84-4.84,5.1-6.65,6.82-1.25,1.18-4,3.23-4.47,5l-2.38,8.91-8.8.6-.17-9.32m9.35,7.84,4.13-.11,2.24-12.11M12.89,69.81,3.83,77.42l4.3-.35a86.73,86.73,0,0,0,22.1-4.45,38.5,38.5,0,0,0,10.69-5.34,38.59,38.59,0,0,0,8.31-9M45.12,78.95l1.08,5.56m3.68-6.73,1.43,5.83"/><polyline class="5147e9a9-9088-47b7-8e3c-d712afafb916" points="13.35 61.23 13.35 0.85 73.37 0.85 73.37 8.49"/><polyline class="5147e9a9-9088-47b7-8e3c-d712afafb916" points="13.2 77.28 13.2 83.62 73.37 83.62 73.37 42.94"/></g></g></svg>