<svg xmlns="http://www.w3.org/2000/svg" width="186.26" height="41.77" viewBox="0 0 186.26 41.77"><title>estadologo2</title><g id="Layer_2" data-name="Layer 2"><g id="Layer_1-2" data-name="Layer 1"><path d="M43.53,25.05h6.15v2.19H40.89V13.51h8.72v2.19H43.53v3.53h5.25v2.19H43.53Z" style="fill:#fff;stroke:#fff;stroke-miterlimit:10;stroke-width:0.296521084838686px"/><path d="M60.46,15.34l-1.8,1.48a2.87,2.87,0,0,0-2.58-1.24,2,2,0,0,0-1.41.47,1.6,1.6,0,0,0-.51,1.23q0,1.18,1.41,1.63l1.72.53A5.33,5.33,0,0,1,59.81,21a3.53,3.53,0,0,1,.77,2.31,3.8,3.8,0,0,1-1.35,3.08,5.28,5.28,0,0,1-3.5,1.13q-3.51,0-4.83-2.52l1.8-1.5a3.5,3.5,0,0,0,1.11,1.29,3.4,3.4,0,0,0,1.93.46,2.39,2.39,0,0,0,1.58-.47,1.55,1.55,0,0,0,.56-1.26q0-1.18-1.52-1.66l-1.69-.54q-3.2-1-3.2-3.79a4.12,4.12,0,0,1,1.15-3,4.61,4.61,0,0,1,3.48-1.2A4.9,4.9,0,0,1,60.46,15.34Z" style="fill:#fff;stroke:#fff;stroke-miterlimit:10;stroke-width:0.296521084838686px"/><path d="M61.84,13.51h9.84v2.19H68.07V27.24H65.43V15.71H61.84Z" style="fill:#fff;stroke:#fff;stroke-miterlimit:10;stroke-width:0.296521084838686px"/><path d="M81.84,27.24l-.95-3.11H75.95l-1,3.11H72.2l4.71-13.73h3l4.73,13.73Zm-3.42-11-1.8,5.69h3.6Z" style="fill:#fff;stroke:#fff;stroke-miterlimit:10;stroke-width:0.296521084838686px"/><path d="M86,27.24V13.51H90.2q3.45,0,5.06,1.65t1.61,5.22q0,3.55-1.61,5.21T90.2,27.24Zm2.64-2.19H90a4.15,4.15,0,0,0,3.21-1,5.61,5.61,0,0,0,.9-3.66,5.58,5.58,0,0,0-.91-3.63,4.09,4.09,0,0,0-3.2-1H88.59Z" style="fill:#fff;stroke:#fff;stroke-miterlimit:10;stroke-width:0.296521084838686px"/><path d="M110,20.4a8.52,8.52,0,0,1-1.4,5.14,6,6,0,0,1-8.74,0,8.6,8.6,0,0,1-1.38-5.15,8.69,8.69,0,0,1,1.38-5.18,5,5,0,0,1,4.39-1.91,6.3,6.3,0,0,1,2.68.53,4.28,4.28,0,0,1,1.8,1.51,7,7,0,0,1,1,2.23A11.73,11.73,0,0,1,110,20.4Zm-8.8,0a7.65,7.65,0,0,0,.66,3.55,2.92,2.92,0,0,0,4.75,0,7.46,7.46,0,0,0,.68-3.54,7.59,7.59,0,0,0-.68-3.56,2.86,2.86,0,0,0-4.72,0A7.49,7.49,0,0,0,101.19,20.4Z" style="fill:#fff;stroke:#fff;stroke-miterlimit:10;stroke-width:0.296521084838686px"/><path d="M30.1,5.75S28.24,7.42,31,8,30.1,5.75,30.1,5.75Z" style="fill:#024f29"/><path d="M21.84,9.71c.24,0,.27-.13.31-.24l.14-.3.29-.59c.2-.39.41-.77.64-1.15a15.45,15.45,0,0,1,1.54-2.16,8,8,0,0,1,2.1-1.78A4.17,4.17,0,0,1,29.74,3a4.54,4.54,0,0,1,1.38.54,13.68,13.68,0,0,1,1.13.78,9.69,9.69,0,0,1,1.88,2,7.37,7.37,0,0,1,1.19,5.44L35,13.51,33.94,12a4.92,4.92,0,0,0-.74-.85,2.25,2.25,0,0,0-.82-.49.29.29,0,0,0-.18,0,.42.42,0,0,0-.17.15,4.65,4.65,0,0,0-.5,1l-.1-.75a15.54,15.54,0,0,1,2.28,3.49,6.85,6.85,0,0,1,.14,4.36,16.74,16.74,0,0,1-4.47,6.88c-1.84,1.93-3.62,3.9-5.5,5.8a13.32,13.32,0,0,0-2.39,3,9.49,9.49,0,0,0-1.1,3.61l0,.38-.37,0-4.44.25-.43,0v-.42l0-2.16V35.21c0-.19,0-.33,0-.57a1.33,1.33,0,0,0,0-.43l.44.24a5.46,5.46,0,0,0-2.36,1.7l-.48-.41a6.61,6.61,0,0,1,2.63-1.95l.34-.13.1.37a2,2,0,0,1,0,.65v1.59l0,2.16-.42-.39,4.44-.34-.41.4a10.41,10.41,0,0,1,1.13-4,14.29,14.29,0,0,1,2.49-3.28C25,28.93,26.71,26.92,28.5,25a24.44,24.44,0,0,0,2.46-3,11.06,11.06,0,0,0,1.59-3.39,5.48,5.48,0,0,0-.15-3.47A14.65,14.65,0,0,0,30.24,12L30,11.62l.17-.41a5.82,5.82,0,0,1,.69-1.35,1.93,1.93,0,0,1,.85-.66,1.8,1.8,0,0,1,1.11,0,3.69,3.69,0,0,1,1.44.83,6.1,6.1,0,0,1,1,1.14l-1.37.25a5.7,5.7,0,0,0,0-2.19,6.28,6.28,0,0,0-.86-2.11,8.34,8.34,0,0,0-1.55-1.74,5,5,0,0,0-1.92-1.11c-1.35-.33-2.77.63-3.82,1.82A14.22,14.22,0,0,0,24.2,8c-.22.35-.42.71-.62,1.07l-.28.55-.13.28a.24.24,0,0,0,0,.34Z" style="fill:#fff"/><polyline points="3.21 33.35 3.21 0.49 32.59 0.49 32.59 5.86" style="fill:none;stroke:#fff;stroke-miterlimit:10;stroke-width:0.97985640184286px"/><polyline points="3.21 36.7 3.21 41.09 32.59 41.09 32.59 19.52" style="fill:none;stroke:#fff;stroke-miterlimit:10;stroke-width:0.978604245789495px"/><polygon points="20.08 37.4 22.69 36.86 22.48 37.07 23.4 31.09 24.35 31.27 23.01 37.17 22.97 37.35 22.8 37.38 20.19 37.93 20.08 37.4" style="fill:#fff"/><line x1="17.83" y1="38.31" x2="18.37" y2="41.57" style="fill:none;stroke:#fff;stroke-miterlimit:10;stroke-width:1.61135361374578px"/><line x1="20.76" y1="37.73" x2="21.48" y2="41.62" style="fill:none;stroke:#fff;stroke-miterlimit:10;stroke-width:1.61135361374578px"/><path d="M114.24,26.13V14.63h3.45a5.41,5.41,0,0,1,4.1,1.38,6.2,6.2,0,0,1,1.3,4.37,6.21,6.21,0,0,1-1.3,4.36,5.39,5.39,0,0,1-4.1,1.39Zm2.14-1.84h1.18a3.3,3.3,0,0,0,2.6-.85,4.81,4.81,0,0,0,.73-3.06,4.79,4.79,0,0,0-.74-3,3.25,3.25,0,0,0-2.6-.88h-1.18Z" style="fill:#fff;stroke:#fff;stroke-miterlimit:10;stroke-width:0.430264540620985px"/><path d="M126.95,24.29h5v1.84h-7.12V14.63h7.07v1.84h-4.93v3h4.25v1.84h-4.25Z" style="fill:#fff;stroke:#fff;stroke-miterlimit:10;stroke-width:0.430264540620985px"/><path d="M135.76,24.29h4.33v1.84h-6.47V14.63h2.14Z" style="fill:#fff;stroke:#fff;stroke-miterlimit:10;stroke-width:0.430264540620985px"/><path d="M152.65,27l-.88-3h-4.61l-.89,3h-2.6l4.39-13.22h2.81L155.27,27Zm-3.18-10.58-1.68,5.47h3.36Z" style="fill:#fff;stroke:#fff;stroke-miterlimit:10;stroke-width:0.397915366814859px"/><path d="M156.48,27V13.77h4.76a5,5,0,0,1,3.37,1,3.61,3.61,0,0,1,1.17,2.86A3.76,3.76,0,0,1,165,20a3.87,3.87,0,0,1-2.17,1.35L166,27h-2.75l-2.88-5.38h-1.46L159,27Zm6.77-9.33a1.68,1.68,0,0,0-.51-1.33,2.68,2.68,0,0,0-1.76-.45h-2V19.5h2a2.67,2.67,0,0,0,1.77-.45A1.77,1.77,0,0,0,163.25,17.66Z" style="fill:#fff;stroke:#fff;stroke-miterlimit:10;stroke-width:0.397915366814859px"/><path d="M167,13.77h9.17v2.11h-3.37V27H170.3V15.88H167Z" style="fill:#fff;stroke:#fff;stroke-miterlimit:10;stroke-width:0.397915366814859px"/><path d="M180.33,24.88h5.73V27h-8.18V13.77H186v2.11h-5.67v3.4h4.89V21.4h-4.89Z" style="fill:#fff;stroke:#fff;stroke-miterlimit:10;stroke-width:0.397915366814859px"/><path d="M21.45,26.16a28.33,28.33,0,0,0,1.8-2.64c1.87-3.12,3.38-7.25,2.07-10.85a7,7,0,0,0-.63-1.29c-1.51-2.45-4-2.18-6.14-.73-3.84,2.65-6.66,6.64-9,10.61C6.59,26.13,3.88,32.42,1.29,37.45A29.41,29.41,0,0,0,21.45,26.16Z" style="fill:none;stroke:#fff;stroke-miterlimit:10;stroke-width:1.49063008081861px"/><path d="M33.12,14.28" style="fill:none;stroke:#000;stroke-miterlimit:10;stroke-width:0.988721364899687px"/></g></g></svg>