<svg xmlns="http://www.w3.org/2000/svg" width="211" height="84.7" viewBox="0 0 210 83"><title>Firma</title><g data-name="Layer 1"><path d="M211 15.3c-1.9.2-1.6-1.6-3.4-1.7l-2.9-.5a22.1 22.1 0 0 0-2.5-.2l-1.4-.2h-1.4c-.5-.3-.5-.3-1.3 0h1.3c.2.5.9 0 1.1.4l-2 .2-4.5-.7-.2-.2-2.5-.3a1.4 1.4 0 0 0 1.5.8c-.8.5-1.4 0-2.1-.1l-2-.3v-.4h-1.3l.4-.4h-.3a43.5 43.5 0 0 1-4.9-.3 8 8 0 0 0-2.4-.2h-5.6a3.5 3.5 0 0 0 1.9.5h4.7l4.1.2 1.5.3 1.7.5a1.5 1.5 0 0 1-1.2 0l-1.1-.3a33.3 33.3 0 0 0-3.4-.3 2.6 2.6 0 0 1-1.7-.2l2.1.2-.9-.2h-.9c-.3 0-.8-.2-1-.1a1.8 1.8 0 0 1-1 .2l-1 .2a25.6 25.6 0 0 0 3.2.2c1.6-.1.2.2 1.7.3a8.6 8.6 0 0 1 2 .2 15.4 15.4 0 0 0 2.1.2c1.3.3 2.6.2 3.8.5s1.6.1 2.3.2l2.1.4a19.7 19.7 0 0 0 2 .3l3.8.5a14.5 14.5 0 0 1 3 .8 3.3 3.3 0 0 1-1.7 0l-1.7-.3-1.6-.3h-.5c-.3.3-.3-.1-.5-.1l-2.6-.2-1.8-.4h-.5l-2.4-.2-2.3-.3-2.3-.2c-.5 0-1-.3-1.4-.2s-.1.1-1.6.2l-1.1-.2c-.3.3-.8.2-1.3.2v-.2l-.2.2-.2.2h.1l.2-.2h.3v.2l.2.2c-2 .5-3.9.2-5.9.3v-.4h.7a8.3 8.3 0 0 0-2.3-.2c0 .2 0 .2.2.4a2.8 2.8 0 0 1-2.2.4c-.7-.2-.8-.2-1.6.1l-1.8-.2V14h-1.1v.7H165v.2l.7.3 1.1.2h1.2l.2.2H167c-.4 0-1 .1-1.3 0s-.6.1-.9-.2-.8.1-1.1-.1-1.2-.1-1.8-.2a6.8 6.8 0 0 0-1.8-.2c-.6-.3-.8-.3-1.6 0h1.6c.2.5.8 0 1.1.4s-2-.3-3-.1l-.3-.2h-1.3c-.6-.3-.8-.3-1.6 0h1.6l.4.2h1.3c.2.5.7.1 1 .3l.4.3 2.1.3 1.9.4h-1.2a3.6 3.6 0 0 0 1.6.4l2.2.2c.4 0 .7.4 1.2.6s2.7.4 4.1.5l3.6.3.4.2c-.9 0-1.8.4-2.6-.1h-.3a3.2 3.2 0 0 1-1.3-.2c-.6-.2-1.3 0-1.9-.2a5.5 5.5 0 0 0-1.3 0 2 2 0 0 1-1.1-.2 1.2 1.2 0 0 0-1 0c-.5.3-1 .1-1.5.3l.3.3a4.8 4.8 0 0 1-1.5.3 4.6 4.6 0 0 0-1.8-.1l1.9.6c.2-.2.5-.2.9-.1a9.5 9.5 0 0 1 1.3.2l1.4.5 1.4.3a3.1 3.1 0 0 1 1.7 0 22.9 22.9 0 0 1 3.8 1.4l2 1 .3.5a1.8 1.8 0 0 1-1.1-.4 7.3 7.3 0 0 0-2.6-1c-.6-.6-.8-.5-1.6-.9s-.8.1-1 .2l-3.3-.9v.2l1 .6a23.7 23.7 0 0 1 3.2.7c.5.2.2.1.6 0l.7.5c.1 0 .1-.1.1-.1h-.1c-.2-.6.2-.3.5-.4l.8.7-.6.4-.2-.2h.1c.2.3.6.3.9.4l.8.2a2.3 2.3 0 0 0 1.2.5l.4.2-.2.2-1.3-.2c0-.3-.3-.2-.5-.2l-.2-.2h.1a1.2 1.2 0 0 1 0 .2 10.1 10.1 0 0 1-1.8-.5l-.8-.2v-.1s-1-.5-1.9-.8h-.5l.6.5h-.8v.2h.8c.3 0 .7-.3.8.2h.6l-.3.3.5.4-1.9-.3-2.9-.6c-1.3-.3-2.6-.2-3.8-.6a4.4 4.4 0 0 0-1.2 0l-1.1-.6-4.1-.3h-.5l.2.2h-1l-1-.9h-2l-.5-.5-.7.3c-.8-.1-1.6.3-2.3-.2h-.6c-.6-.4-.9.3-1.5.1l-1.5-.2-.4.2c-.5.1-.8.4-1.4.1s-1.1 0-1.7.1l1.3.4h-.7c-.5-.4-.8-.1-1.2.1l-.2-.2h.1l.4.2h1.8l-2.2.3-1.3-.2a5.3 5.3 0 0 1-1.4-.2 1.3 1.3 0 0 0-1.5.2l-3.2-.6h-.6l-2.8-.3c-.5-.1-1.1-.3-1.6-.1a3.5 3.5 0 0 1-1.4.1c.5 0 .5 0 .5-.3l-.9-.4v.2c0 .1 0 .3.5.4l.6.2c.7.2 1.5-.1 2.3.2h.6c.5.4 1.1.1 1.6.3a10.4 10.4 0 0 0 2.7.6l2.6.3 3.4.4 1.1.4c1.3-.1 2.7.4 4.2.3s.9.4 1.6.1l-2-.5h2.8c.2 0 .5.1.5-.2a2.2 2.2 0 0 1 1.6-.2l.3.4-.2.2h.1l.2-.2.8.2 1.9.2a34.4 34.4 0 0 0 3.5.3l2.3.4c-.7 0-1.4.3-2-.1h-.1c-2 .2-3.9-.4-5.9-.1a17.1 17.1 0 0 0 2.6.1 1.2 1.2 0 0 0 1.1.5c0 .4.5.4.7.6s.6-.2.7-.1 2 .4 2.9.7 1.3 0 1.8.4l.3.2c1.3-.2 2.5.6 3.8.4v.4c-1.7-.1-3.3-1-5.3-.5a77.3 77.3 0 0 0 7.8 1.2l-.6.2v.2c-.2-.1-.5-.3-.7-.3s-2.3-.5-3.5-.2a2.9 2.9 0 0 0 1.7.6 13 13 0 0 1 1.7 0 18.8 18.8 0 0 0 3.4.2l1.6.3a25.1 25.1 0 0 1-3.9.5h2.1a6.5 6.5 0 0 1 1.9.4h-.8a7.3 7.3 0 0 0-2.5.3 7.8 7.8 0 0 1-2.1.1l-.3-.2c-1.1.1-2.1-.3-3.1-.3l-.8-.3c.2.7.8.4 1.2.5l.5.4c.4-.3.9 0 1.2.1s1.1.3 1.5.1a3.9 3.9 0 0 1 1.4-.2v.4a43.2 43.2 0 0 0 4.9.5h-.6l.2.2c-1.2-.1-1.6.2-2.7-.2a6.4 6.4 0 0 0-1.5 0 8.4 8.4 0 0 1-2.9-.2 1.3 1.3 0 0 0-1 .2h1v.4a11.4 11.4 0 0 1 3.3-.1h-.9c.6.6 1.4.4 2.1.4s-.6.9-1.3 1.2a13.1 13.1 0 0 1-2.9-.2c-1-.3-2 .3-2.9-.5l-.2.5a11.3 11.3 0 0 0 2.4.5c1.5 0 2.9.3 4.3.3h3.6l-.3.2h-1.5l-.3.2a5 5 0 0 0-2.5.4h-.8l.4-.4-2.6.3-.5.3v.2h2.7l-.5.5-3.2-.3v.2l.9.6h1.3l.5.5h1c2.4 0 4.1.4 6.5.2h.2a12.1 12.1 0 0 1-3.3.3l-5 .2h-1.3c-.1 0-.1.1-.1.1h.1l.4.3h3.2l.6-.3a3.3 3.3 0 0 0 3 .3 1.6 1.6 0 0 0 1.3.1 10.8 10.8 0 0 1 2.1-.4h.5l-1.1.3-1 .4a1.1 1.1 0 0 0 1.2-.1l.2.4-3.5.3h-2.8l-.9.4h1.8l-1.4.3h-.9l-.4.4h.2a24.9 24.9 0 0 0 5.1.2 20 20 0 0 1 2.8-.2h-1.2l-.8.7h-1.4c-.5 0-.2.2-.6.2h-1.5c-.4 0-.8-.3-1.2-.1s-.9 0-1.4-.1a6.7 6.7 0 0 0 1.8.4 3.7 3.7 0 0 1 1.5.2c.7.3.5.2 1.2 0a9 9 0 0 1 2.3 0l-.2.2h-1.3l-.4.3c2.1.6 4.4.8 6.4 1.7l-1.5-.3-1.4-.4h-.9a4.3 4.3 0 0 1-2.9.1l2.3-.3a3.3 3.3 0 0 0-2.1-.6h-.7l.6-.2h.1c0 .3-.2.2-.4.2l-.9-.3c.2.5.6.5.9.6s-.5.5 0 .5l-1.6.5a1.4 1.4 0 0 1-.9 0 7.1 7.1 0 0 0-2.6-.2h-2.5l-1.1.2-.2-.2h.1l.4.2h1.8l-.5.2.8.4h1.8v.7c-.3-.1-.7-.3-.9-.2a12.6 12.6 0 0 1-3.8.2l-2.7-.2-.2-.2-1.3 1 1.1.4c.7-.4 1.4-.2 2.2-.2l.2.2h-.1c.2-.5.7-.1 1-.2l-.2.2h1.2l.2.4c.7.4 1.4-.5 2.1-.1l-.3.3h1.1l-.5-.2c.3-.3.5-.2.8 0l1.1.2-.5.4-5.1.2v.3a5.1 5.1 0 0 0 2.5.3c.9-.1 1.6.3 2.4.2s1.5.3 2.3.3v.5h-.5c-.7-.1-1.3-.6-2.2-.2s-1.2-.2-1.8-.3l-.7-.2-.5.4h.9c-.5.1-.9.3-1.2 0l-2.1 1.8 3.5.3v1.3l1.6-.3 1 .6.5 1.2-.2.2h-.2l-.7-1.2-1-.3-.5.4c0 .5.1.9.7 1.1l.4 1.2c-.4.3-3.8-.9-3.6-1s1 1.8 2.5 1.6.5-.6.1-1.5h-.4l-.2-.2h-2.1l-1.7-.2-1.2.5a7.1 7.1 0 0 0-3.4-.5h-2.8l-2.4.3-.6-.8h-.9a7.9 7.9 0 0 1 2.3-.2l.5.4h2l-.6-.2a.8.8 0 0 1 .8 0 1.8 1.8 0 0 0 1.9.2 1.9 1.9 0 0 1 1.3 0 9.8 9.8 0 0 0 2.7.2l1.9-1.7-.2-.3.8-.2-.8-.3c-.9 1.2-2.2 1.5-3.9 1.3.2-.4.8.1.8-.4a5 5 0 0 0 1.6-.1c-.6-.1-1.2 0-1.7-.3l-.2.2-2.4-.2h-2.6c-.3 0-.6-.1-.8 0s-1.3 0-2.2-.2h-2.2v.2c-.4.2-.9-.1-1.2.3s-.8-.2-1.2-.2h-1.2a4.5 4.5 0 0 1-1.3 0 3.7 3.7 0 0 0-2-.2l-1.2.2c-.3 0-.7.1-1-.2h-.6a2.3 2.3 0 0 1-1.5.1 10.1 10.1 0 0 0-3.8 0 25.3 25.3 0 0 1-3.1 0 2.9 2.9 0 0 1-2.3.4v-.4h-2.2a5.2 5.2 0 0 0-2.2.2 5.7 5.7 0 0 0-2.3-.2h-4.5v.2h.7l3.2.2 1.6.5a2.8 2.8 0 0 0 1.2.2h2.7l2.2-.2a1.3 1.3 0 0 1 1 .2 1 1 0 0 0 .8 0c.8-.3 1.6-.2 2.3-.5a24 24 0 0 1 2.4-.2 14.9 14.9 0 0 1 3.4-.2c.3 0 .7-.1 1 .2s.5-.4.9 0 .6.1.9.3h-5.8v.2h5.7a8.1 8.1 0 0 1 2.5.2 2.3 2.3 0 0 0 1.7-.1 2.6 2.6 0 0 1 1-.1l1.3.6-.8.3a2.5 2.5 0 0 0-1 .2c-.2.1-.7 0-1.1 0v-.3h-.1c-1.6.2-3.2-.3-4.9-.2h-5.7c1.2.3 2.5-.1 3.8.3a3.9 3.9 0 0 1 2.4 0h-1.2l-.7.6c-1.5.2-3-.3-4.7.4h.6a6 6 0 0 1 3.1-.2c1.7.3 3.4 0 5 .2s5.1.1 7.7.2l.4.2h-13.1c-.4-.1-.8.4-1.3 0a2.4 2.4 0 0 1-1.4.2h-4.3a13.7 13.7 0 0 0-3.8.8c1.3-.1 2.7.3 4-.1a.8.8 0 0 1 1.1.4H124c.6.5 1.3 0 1.8.4s1.1-.6 1.6 0h3.8a7.6 7.6 0 0 0 1.8-.1 4.8 4.8 0 0 1 1.8 0l-1.4.4-5.5.2h-3.2v.4h5.3a7.8 7.8 0 0 1-2.7.2h-8.6v.2h4.3a2.4 2.4 0 0 1 1.5.2h1.9c.3-.3.8-.1 1.1-.2h4.5a2.3 2.3 0 0 0 1-.2c0 .4.4.3.6.2a5.7 5.7 0 0 1 3 0l2.7.2.5-.2.6.2v-.4c-.9-.2-1.9.2-2.7-.5.7.1 1.4-.2 2 .2h3.3l4.8.3-.6.2h.2a22.5 22.5 0 0 1 2.8.2h3c.2 0 .5.1.5-.2l1.6-.2h1.6a20.6 20.6 0 0 0 4.5.2c.3 0 .5.5.7.1a2.6 2.6 0 0 0 1.8 0 12.7 12.7 0 0 1 2.9 0c-.3.1-.4.5-.9.2s-.5.3-.8 0a1.1 1.1 0 0 0-.9 0 11.9 11.9 0 0 1-2.2.3l.7.2v.2a4.6 4.6 0 0 0-1.4.2h.8a11.7 11.7 0 0 1 2.7 0 12.9 12.9 0 0 0 2.7.2h2.5a11.3 11.3 0 0 1-2.2.1h-4.3l-.9.8a7.8 7.8 0 0 0 1.8.4 44 44 0 0 1 4.9-.2h.9c.3-.3.3-.3.3-1.2s.2-.7.6-1h1.3a1.2 1.2 0 0 0 1 .5l.3.2-.4.3 1.1.4.4-.5h.5v.6l-1.4 1v.2l1-.2h1.2c.9.6 2.1.5 3.1.9v-.4c.7-.1 1.2.3 1.9.3a31.4 31.4 0 0 1 3.5 1l.8.4a3.6 3.6 0 0 0 1.3.7c.4.1.6.3.5.7l-.6-.2a10 10 0 0 0-2.9-1.1l.7.8-.4.3c-.1-.4-.5-.1-1.1-.4s-.1.1 0 .1c.5.6.9.3 1.1.4s.3.4.4.4 1.4.8 2.3.8l.5.4-1.5-.2-.3-.2-.2-.2h.1l.3.2v.2h-.4c-1-.7-2.4-.7-3.5-1.3h-.7l-.2-.2-.9-.2v.4h-.5l.3.4a9.6 9.6 0 0 1-2.8-.4h.1l-3.4-.2a3.5 3.5 0 0 1-2.5-.8c-.8.3-.7.4-1.5.1a5.7 5.7 0 0 0-1.8 0v.6h-.7l-.7-.7a12.2 12.2 0 0 1-3-.2 7.5 7.5 0 0 0-2.4.2 5.4 5.4 0 0 0-2.3.2c-.3.1-.7 0-1 0l-.4-.4h.8v-.2h-1.7a9.6 9.6 0 0 1 3.5-.4c2.2.4 4.3.1 6.5.2a8.6 8.6 0 0 0 1.6-.3l.4.4 2 .3-.3-.3h.1c1 .1 1.2-.6 2.3-.1a1 1 0 0 0 1.2-.3c-.7-.3-1.6.2-2.2-.3l-1.5.2v.5h1.8a6.2 6.2 0 0 0-2.5-.2c-.5.5-1.1 0-1.6.2s-1-.1-1.5-.4h2.4c.7 0 1.5.2 2.2-.2l.8.3a2.6 2.6 0 0 0-.7-.8H164l-1.4-.2c-.4.4-1 0-1.6 0a5.3 5.3 0 0 0-2 .2h1.2a7.2 7.2 0 0 1-3.6.3l1-.4v-.2h-.7l-.2-.4a7.5 7.5 0 0 1-1.7 0 22.2 22.2 0 0 0-3.9-.2l.3-.5-1 .3-.2-.4-3.2-.4v.5h1c.4.4 1.1 0 1.9.3H148l4 .4.3.2c-.4.5-.8-.2-1.3.1s-1 0-1.4 0h-4.3v-.2h.3l.3-.4h-2.5c-.3-.2-.3-.2-.8 0h.8l-.2.2h-1.3a5.9 5.9 0 0 0-2.9.4l.4-.8h-2.3l-.5.5h-2.7l-.8.4c1.3-.1 2.4.3 3.5.2h1.5c.6 0 1.2-.5 2-.1a5.6 5.6 0 0 0 1.9.1l.2.2h-2.7c-.4-.1-.8.4-1.1 0s-.9.2-1.4.2l-1.2.2h-1.3l-1.5.6 1.5.5a6.1 6.1 0 0 1 3.2-.4l-.6.2-.3.2h2.2v.5h-6.9c-.2.5.4.6.6.9h.9l.8.2.4-.6.3.2c1.4.1 2.7.5 4.2.5s3.6-.4 5.4-.2h2l1.9.2a15.1 15.1 0 0 0 3.5.2 4.8 4.8 0 0 1 2.1.2c.1.1.5-.1.7-.1l.6.4h-1.9a2.8 2.8 0 0 0 1.9-.1l.4.3-2.9.5c-1-.4-2.2-.1-3.4-.1s.7.1 1 .2h1.3a5.9 5.9 0 0 1-2.6.1h-1.5c-.3 0-.7.1-1-.1s-.5.2-.8.1l-2.4-.2c-.8-.1-1.7.3-2.4-.2s-.5 0-.8.1-.7 0-1 .1l-1.5.4h5c1.9-.1 3.7.3 5.5.2s3 .1 4.5.2l3.4.3.3.3h-2.3c-.4 0-.8.3-1 .1s-.6.2-.9.1-1.1.1-1.4-.1a3.3 3.3 0 0 0-1.4-.2c-.5-.1-1 .1-1.4-.2h-1.9c-2-.1-4 .2-6.1.2-.4 0-.8.3-1.1.2l-1-.2h-7.7l-1.6.2h-1.7l-1.1.3v.3h1.5v-.4h2.1c.5.1 1-.3 1.5 0s1.9-.1 2.9-.3v.4l1.1.3.5-.2c.5-.1 1 .2 1.5.2h2.7l-.9-.4h2.6l.4.4a4.2 4.2 0 0 0-2.1.4h-.5c-.6-.4-1.2-.2-1.8-.2a13.5 13.5 0 0 1-3.4-.2c-.3-.1-.8 0-1.2 0s-.7.2-1.2.1a3.5 3.5 0 0 0-1.2.3 7.5 7.5 0 0 0 1.7.1c1.8.1 3.7 0 5.5.3l3.1.2 1.9.3a15.8 15.8 0 0 0-2.9.7v.3h1.6v.2h-1.5c1.4.7 2.7.4 3.9.6h-14.2l-4.1.3c-1.2 0-2.4.4-3.7.4l-1.1.3c.9.4 1.6-.2 2.4-.1h2.4c0 1-.9 1.1-1.6 1.1a24.1 24.1 0 0 1-3.4.3 8.1 8.1 0 0 0-1.4.2 3.7 3.7 0 0 0-1.3.2h4v.2h-2.2a24.3 24.3 0 0 0 4.8.1l-1 .2-1.1.2c-.3.1-.6 0-.9.1l-1.1.2a8.6 8.6 0 0 1-2.4.2c-.6 0-1.1.3-1.8.2a4.2 4.2 0 0 0-1.7 0 14.4 14.4 0 0 1-3 .2l-.4.3h.5c-1.9.3-1.9.4-2.7 0a4.9 4.9 0 0 1-2.8.1l.2-.4h4.6a5.9 5.9 0 0 0-2.3 0c-.7.2-1.6 0-2.3.2H104l-.4.3.7.3h10.1c1.3 0 2.6-.3 3.9-.2a4.4 4.4 0 0 1 2.2-.2c.5 0 1-.5 1.7-.1l-.9.3h-1.6l-1.5.2-3.9.3c-1.3.2-2.5.1-3.8.2h-3.9l-1-.2-.2.4h1.4a10.2 10.2 0 0 1-2.3.2l-.3.4a7.2 7.2 0 0 0-1.9.2 3 3 0 0 1-1.4-.1 11.6 11.6 0 0 0-2.6 0l-1 .2-.3.5h.2l4.6-.2c.8-.5 1.8-.1 2.8-.4a11.2 11.2 0 0 1 2.9-.1h.6l-.5.4-.2-.2-1.5.2a33.1 33.1 0 0 0-4.5.3 23.8 23.8 0 0 0-3.4.7c.3.4 1-.1 1.2.5-1.5.4-3.1.6-4.5 1.5a3.6 3.6 0 0 0 1.2 0c1-.5 2.3-.5 3.4-1.1s1.4-.4 2.1 0l.9-.5h.1l-.6 1.1h-.8c-.7.1-.6.1-.6.2h1c.2-.1.6-.3.1-.6s-.8.4-.4.5a3.1 3.1 0 0 1 1 .2l1.3.2h-1.3l-.8.5-.3-.2a5.5 5.5 0 0 0-1.9.2c-.6.2-1.2-.1-1.9.2a8.5 8.5 0 0 1-1.9.2c-1.4.2-2.8.2-4.2.3l-1.8.2c-.5.1-1.1-.2-1.6.2H87l-5.3.2-1.9.2a10.7 10.7 0 0 0-2 0c-.6.2-1.3 0-1.8.2s-1.2 0-1.7.2a8.4 8.4 0 0 1-2.3.2l-1.4.2c-.4 0-.9-.1-1.2.2H69a32.7 32.7 0 0 0-4.2.3 39.6 39.6 0 0 1-4.6.2c-.8.1-1.5-.3-2.3-.2a6.6 6.6 0 0 1-2.3 0 17 17 0 0 0-3-.2L51.4 84a10 10 0 0 1-3.2-.9l-1.4-.8h-.4l-1-1.3a2.4 2.4 0 0 1-1.3-.3 1.2 1.2 0 0 0 .2-.4 2.2 2.2 0 0 0-.2-.6l.6-.5-1-.6.4-.5.4.2a.7.7 0 0 0 .6-.9l-1.6-.4v-.2c.5-.3.8.1 1.3.1s-.2-.7-.8-.7l.4-.4-.2-.6h.4l.4-.6h-1.6c.2-.7.9-.9 1.2-1.4h1.1l-.7-.3 3.4-1.9a2.7 2.7 0 0 0-1.9.1l-1.6.2-.9-.8.6-.3h-1.4v-.4h1.3l-.9-.3h.7l-.2-.2.7.5.8-.6-1.6-.7-.2-.4.4-.3.3.2.2-.5h.6l.4-.3c-.1-.3-.7.1-.8-.4s.9 0 1.1-.4-.6-.5-1.1-.7h.8v-.6l-2.7.3.3-.4a2 2 0 0 1 1.2-.3c.1 0 .1-.1.1-.1h-.1c-.4-.2-.4-.3-.5-.4l1.2-.9V63h-.3a1 1 0 0 1-1-.4l.5-.2-.2-.3.5-.5-.4-.6.8-.6-.7-.8c0-.1-.2-.5.2-.7l-.3-.7 1-.7-.3-.7h-2.2a6.9 6.9 0 0 1-5-1.7h-.2v-.2L36.3 53c-.2-.4.1-.8-.3-1.2s.2-.8-.3-1.1-.3-1.5-.6-2.2-.5-1.4-.7-2.1-.4-1.7-.6-2.5a18.8 18.8 0 0 1-.3-3.2 11 11 0 0 1-.3-1.8v-1.8l-.6-.3c-1 0-1.9-.3-2.9-.4a10.1 10.1 0 0 1-3.1-1.1c-.4-.2.8-.4.3-.6L26 33h-1.1l-.4-.4.5-.2-.6-1h.6c.2-.5-.1-.8-.9-1l.8-.3h.1l1-.6a4.9 4.9 0 0 0-2.1-.4v-.5l.4.2.3-.2.8.3v-.2l-1-.7.2-.2-.5-.3h.6l-.3-.6c.2-.2 2.8-.2 2.7-.7s-1.2.2-1.5-.4-1.1-.9 0-1.2l-.3-.2 3.3-1.3V23c-1.2.1-.4.2-1.5.3l-.7-.7.2-.2h-1.1V22h1.3l-.9-.3.7-.2.5.3c.5-.2-1-.4-.4-.7s.4-.2-.4-.3l-.3-.4h1l.2-.5h-1.3c-.8-.5 1-1.1 1.1-2s-1.7-.2-1.4-.5 1.4.3 1.2.3h-1.6l-.5-.6c-.9.1.4.1-.4.3l-1.4.2-1.2.3a32.9 32.9 0 0 1-3.9.4c-.8.5-1.7.1-2.6.4a10.2 10.2 0 0 1-2.8.1 21.9 21.9 0 0 1-2.8 0L7 18.3c-.6-.1-.8-.6-1.2-.7h-.5l-1.5-1.1h.4l-1-.7v-.6l2.4-.4a4.9 4.9 0 0 0-3 .2c.2-.6.6-.6 1.1-.7l-.5-.2h.2a15.5 15.5 0 0 0 3-.4h1l.3-.3c-1.3.2-2.7.1-4 .4a17 17 0 0 1-3.7.1 26.6 26.6 0 0 1 3.2-.4 10.7 10.7 0 0 0 3-.4l-.2-.3c.1-.3.4-.3.7-.2s.5.4.8.1l.2-.4h.9l.9-.9c.8.3 1 .2 1.5-.4v.4c2.4-.1 4.5-1 6.7-1.2a1.2 1.2 0 0 0 0-.4l.8.3.7-.2.8-.4a3.4 3.4 0 0 0-2.3.4l-.8-.2-.4.2-2.3.2-.2.2c-.8-.2-1.6.3-2.2.3l-.7.4c-.2-.5-.7-.1-1-.2l-.2.4a2.5 2.5 0 0 0-1.3-.2c0-.3.3-.2.4-.2a1.7 1.7 0 0 0 .9-.4h-.8l.3-.2a25 25 0 0 0 3.8-.7 1.1 1.1 0 0 0-1.3 0l-.4-.3h.2a26.7 26.7 0 0 0 3.5-.5h.4a2.1 2.1 0 0 0 1.8-.7v.6l.8-.6h.2l1.2-.5-.2-.3.8.2 3-.7c1.1-.2 0-.5 1.1-.8h.3c1.1-.1.2-.2 1.2-.2a14.4 14.4 0 0 1 2-.3c.6.1-.2.1.4-.2a7.9 7.9 0 0 1 1.9 0 11.3 11.3 0 0 0 2.7-.2c.8-.3 1.8.2 2.7-.3h.3L43 3.6l1.5-1.1c3.2.2 6.4-.3 9.6-.2H58a7.9 7.9 0 0 0 2.4 0 8.3 8.3 0 0 1 2.3-.2 20.6 20.6 0 0 0 2.4 0 10.5 10.5 0 0 1 2.4-.2l1.9.2a5 5 0 0 1 1.9.2h.6l.4-.5c1.2.1 2.3-.3 3.5-.2h3.5c.4 0 .8-.3 1.1-.2a6.3 6.3 0 0 0 2.3.2c1.1.1 2.2-.3 3.4-.2s2.4-.1 3.5 0a45.6 45.6 0 0 0 6.1.2h7a1.1 1.1 0 0 1 .8-1.1l.8.9c-.5.1-.6-.3-1-.4l-.4.3v.6l.7-.2.6.2v-.5l1.1.5c.6-.2.5-.6.5-1l-.7-.6h-1.2l.2-.2h1.3l.6.7v.9h13.3a8.9 8.9 0 0 1 2.3 0 9.6 9.6 0 0 0 2.3.2 16 16 0 0 1 2.3 0 34.6 34.6 0 0 0 6.3.2h22.7a4.3 4.3 0 0 1 1.9.2l1.1.2 1-.2c1.2.1 2.4-.2 3.5.2h.9c2.4-.1 4.7.4 7.4.2l-.8.6h.1c2 .1 3.2 0 5.2.3s2.9.1 4.3.2a14.2 14.2 0 0 0 2.2.2c.7-.1-1.6.4-.8.2s1.1.2 1.6.4h-.6a3.9 3.9 0 0 1 1.5.2c.4.2 1-.2 1.4.2h.3l3.1.2 1.4.2c1.2.4 2.4.3 3.6.7a9.2 9.2 0 0 0 1.5.1c1.4.2 2.6.8 3.9 1.1l1.9.4 1 .2 3.2.7.2.2a6.2 6.2 0 0 1-1.5-.2l-3.5-.5A22.2 22.2 0 0 1 197 8a4.5 4.5 0 0 0-1.5.1c-.5-.3-1.3-.1-2-.2a5.7 5.7 0 0 0-2.1-.4c-.8.1-1.4-.5-2.5-.1l2.4.3a14.9 14.9 0 0 0 2.2.2l.2.2a9.3 9.3 0 0 1 2.6.4l2 .3 3.1.5c.5.1.7.7 1.4.5s1.3.2 1.9.4a22.3 22.3 0 0 0 3 .6 4 4 0 0 1-2.5-.2l-1.8-.3a18.1 18.1 0 0 1-2.3-.3c-.7-.3-1.5 0-2.1-.4s-.8 0-1.2 0l-1.1-.2a6.9 6.9 0 0 0-2-.2v-.3c-1.1 0-2.1-.4-3.5-.4s-.1.1-.1.1h.1l.4.3c1.1 0 2.1.4 3.1.3s.7 0 .8.4-1.3-.3-2-.2-1.3-.5-2.1-.1a6.4 6.4 0 0 1 1.9.5 7.2 7.2 0 0 0 1.6.3l1.2.2c.4.1.8-.1 1.1.2h.5a2.7 2.7 0 0 1 1.5.3h-.1l-1.4-.2a4.9 4.9 0 0 1-1.4-.2 3 3 0 0 0-1.6.1 8.1 8.1 0 0 0 2.1.5c.9 0 1.8.4 2.7.3s.8.2 1.2.3l2.6.5c.1 0 .1.1.2.3h.5c.4.4 1 .4 1.5.6l1.9.3 1.7.4c.7.2-.4 1.2.5 1.3l-.3-.8c.5-.2.5-.7 1.1-.9m-.1.6a3.1 3.1 0 0 0-.5.7M171 22.4h.1l-.2-.2h-.1l.3.2c.3.2.3.2.8 0zM31.1 15.9l-.4-.2-.2.2-.4-.2a2.7 2.7 0 0 0 .1.7 1 1 0 0 0-1.4-.3c-.3.2-1 .2-.8.8a5.8 5.8 0 0 1 2.1-.7h.8c.1 0 .2-.1.3-.4v.2h.5a.6.6 0 0 0-.6-.1zM149.2 18l-.3-.3h-.4c.2 0 .3.1-.1-.1a2.1 2.1 0 0 0-1.8 0 9.5 9.5 0 0 1 2.6.4zm-121-.5c-.3-.1 1-.2.6-.3s-1.1.8-.7.7a2.3 2.3 0 0 0 0-.6v.2h.8v-.2a1.1 1.1 0 0 0-.8.2zm161.7-8.8h-1.8c-.1-.3-.5-.2-.8-.2h-.9v.3h1.6l.3.2h1.7c.5.3.5.3 1.3 0h-1.4v-.4.2h.5a.6.6 0 0 0-.5-.1zm-29.3 35.5l1.1.5V44a1.2 1.2 0 0 0-1 .4 1.5 1.5 0 0 0-1.3 0 1.8 1.8 0 0 0 1.2-.2zm-2.7 2.2a3.6 3.6 0 0 0-2.3-.4l.4.5h.6a1.7 1.7 0 0 0 1.1-.1h.1l.4-.5h-.5a.9.9 0 0 0 .2.6zM27.4 19.1l-.9.2-.6-.2.7-.4 1.4-.3.6-.4-.4-.4h-2l-.6.9a2.4 2.4 0 0 0 .6.7v.4c.5.1 1 .5 1.7.1a1.8 1.8 0 0 0-.5-.6h1.4l-.6-.4zm.1-3c-1.2.1-.6.2-1.5.3s1.6.4 1.3.5h.2c.3-.1-1.3-.3-.8-.5s0 .5.9.2 1.1-.2.9-.2a.7.7 0 0 0 .2-.4h.1H27.4s-.1.1.1.1zM170 42.7l-.6.5h.6c0-.2 0-.3-1.2.3l.9-.7c-1.5.1-2.7-.2-3.9.4a9 9 0 0 0 4.2-.5zm7.9 18.3c-.2-.4-.4-.2-.6 0a5.4 5.4 0 0 0-3 0 13.9 13.9 0 0 1 3.1.5c.2 0 .5.1.5-.2l.8.5a12.2 12.2 0 0 1 3.8.5l1.5.4-.3-.3h-.4c.2 0 .3.1 0-.1l.5-.4a5.4 5.4 0 0 0-2.8-.6c-.3 0-.7.1-.9-.1a3.7 3.7 0 0 0-2.2-.2zm-60.3-39.6v-.2c-.7-.1-6.2 0-6.9.1v.2l1.3.3.4-.4h5.1c.7.2 1.4 0 1.9.1v.5l1.6.2h1.4a4.2 4.2 0 0 0 1.5.2c.5-.1 1.1.2 1.5-.2s.8.2 1.2.2h1.5c.4 0 1-.1 1.3 0a2.5 2.5 0 0 0 1.3.2h1.5a2 2 0 0 0 1.3-.2 7 7 0 0 1-2 0c-.7-.3-1.5 0-2.2-.2a9.2 9.2 0 0 0-2.3-.2h-2.9l-1.7-.3a19.6 19.6 0 0 0-3.6-.3l-.8-.2zm38.4-.9c.3.8 1.2.2 1.7.6h.5l-.4-.3 1.6-.2 2.1.4 1.4.2 1.6.3a17.6 17.6 0 0 1 3.3.6 2.3 2.3 0 0 0 1.3 0l-1.2-.3a15.1 15.1 0 0 0-2.4-.5c-1.1-.1-2.1-.6-3.3-.5s-1.1 0-1.5-.2a3.9 3.9 0 0 0-1.7-.2h-1.5V20a6.4 6.4 0 0 0-2.4-.3h-1.2c-.4 0-.9.2-1.2.1a3.9 3.9 0 0 0-1.2-.1c-1.1-.1-2.1.4-3.2.3.7.1 1.3.4 2 .1s1.6-.1 2.2.4l.6-.2c.8.4 1.7.2 2.8.5h.1l-.2.2h.1c.1-.1.1-.2.1-.5zm.5 27.3l-.6.2a10.9 10.9 0 0 1-2.6-.2 8.6 8.6 0 0 0-2.3 0l-.7-.6a1.5 1.5 0 0 1-1.6.3 5 5 0 0 0-1.7-.2h-2.4l-1.4-.2-.2.4a7.6 7.6 0 0 1-3.8.1l-1.3.2h-2.3a9.1 9.1 0 0 0-2.2.4h-.8a5.6 5.6 0 0 0-2.3-.2l-1.2-.2c-.4.4-.9.1-1.3-.1l-.2.2h-2.1l-.4-.4a4.3 4.3 0 0 1-2.7-.1l-.6.4a48.2 48.2 0 0 0 4.9.3h.9v.2l-1.2.4a8.6 8.6 0 0 1 1.9.3 2.2 2.2 0 0 0 1.2-.1 10 10 0 0 1 2.5-.4h7.9l1.7.2h.2l1.2.2h1.3l3.7-.2c.4 0 .7.2 1.1.2l1.1-.4h5.8v.7h2.1v-.5l.3.5a5.9 5.9 0 0 1 2.5.3l.4-.7.2-.7c-1.1-.1-2 .1-3-.2l-.5.7-.2-.7h-1l-.2.4zm8.6-27.8c-.5-.4-1-.1-1.4-.4s-1 .1-1.3-.3-1.3-.3-1.9-.2a7.4 7.4 0 0 1-1.9-.3l-.4-.2h-1.6l-1.6-.2c-1.4 0-2.8-.4-4.2-.3l-.6-.3c-.7.6-1.6 0-2.5.4a22.2 22.2 0 0 0 2.8.3 8.3 8.3 0 0 1 3.1.2 7.8 7.8 0 0 0 2.3.2c.4 0 .9-.1 1.3.2a1.1 1.1 0 0 0 .9 0c.8-.4 1.5 0 2.2.1a20.7 20.7 0 0 0 4.8.8zm7.1 38.6h.9l-.4-.3h-1.8c.1.5-.2.7.3 1.3s.4-.1.9 0a4.1 4.1 0 0 0 1.4.2l.8-.6c-.5-.6-1.3-.4-2.1-.6zm-21.7-41.3l.6.5a16.7 16.7 0 0 1 3.2.2 11 11 0 0 0 2.2.2V18h-.8l.3-.4a7.9 7.9 0 0 1-2.1 0 19.6 19.6 0 0 0-3.4-.3zm6.1 8.1a16.7 16.7 0 0 0-5.3-.1l5.3.5zm17.6 36.5c1 .5 2.1.3 3.1.5a12 12 0 0 0 3.1.4c-2-.7-4.1-.7-6.1-1.2zM161.5 2.5a4.4 4.4 0 0 0 2.2.5h2a7.1 7.1 0 0 0 3 0 8.6 8.6 0 0 1-2.2-.1 8.4 8.4 0 0 0-2.2-.2 5.8 5.8 0 0 1-2-.2zm-3.2 15.2a3.4 3.4 0 0 0 2.9.6 4.1 4.1 0 0 1-1.7-.5c-.2-.1-.7 0-1.2-.1zm27.6-9.5c-1 .1-1.9-.6-2.9-.1 1-.1 1.9.6 2.9.2zm-14.4 51.9v.4l.7.3.7-.3zm-32.1-39.7l.4.3h.8l-.5-.6zM133.8 57v.2h1.7V57zm47.1-52.6v.2h1.4v-.2zm-22.7 21.2c.3.6.6.6 1.2.5zM180 4.3v-.2h-1.2v.2zm2.8.3v.2H181v-.2zm-154 12.5l1-.4c-.7 0-.7 0-1 .4zM160.7 16v.2h1.2V16zm20.7-8.2V8h1.2v-.2zm-37.5 12.4V20zM26.2 16.7c-.5-.2-.6.1-.8.3s.6-.1.8-.3zm107.6 6.1v.2zm39.5-9v-.2zm-47.1 34.9v-.2zm-1.2-28h.4v-.6zm20-.4V20zm20.5-.1v.2zM132.9 61v-.2zM29.5 18v.2zm115.8 1.9zm-7.6 32.3h-.1v.2h.1zM167.1 32zm.9 30.4h.1v-.2h-.1zm5.6-1.4zM20.3 8.9h-.1v.2h.1zM14 8.3zm149.9 9.8zm7.9-4.2h.1v-.2h-.1zm8.2-.2h-.1v.2h.1z" fill="#e3c321"/><path d="M81.3 22.5a1.5 1.5 0 0 1 .5-.7l.6-.2a.4.4 0 0 1 .3.3 1.1 1.1 0 0 1-.1.7 7.7 7.7 0 0 1-2.3 3 7.2 7.2 0 0 1-3.1 1.5 5.9 5.9 0 0 1-3.1-.2 4.5 4.5 0 0 1-2.4-1.9 2.6 2.6 0 0 1-.5-1.9A1.8 1.8 0 0 1 72 22a2.2 2.2 0 0 1 1.3-.4 1.8 1.8 0 0 1 1.3.6 3.2 3.2 0 0 0-.2-1.8 1.2 1.2 0 0 0-1.4-.6 3.2 3.2 0 0 0-1.7.8 7.8 7.8 0 0 0-1.5 1.7 12 12 0 0 0-1.1 2.2 7.3 7.3 0 0 0-.5 2.1 2.4 2.4 0 0 0 .3 1.6 1.4 1.4 0 0 0 1.4.5 2.7 2.7 0 0 0 1.3-.5l1.2-1 1.6.8a4.2 4.2 0 0 1 1.6 1.6 14.8 14.8 0 0 1-3.7 4.4 8.6 8.6 0 0 1-4.6 2 4.9 4.9 0 0 1-2.4-.3 4.3 4.3 0 0 1-1.6-1.1 5.2 5.2 0 0 1-1-1.6 7.2 7.2 0 0 1-.4-1.7 9.7 9.7 0 0 1 .2-3.1 15.1 15.1 0 0 1 1.1-3.2 15.5 15.5 0 0 1 1.8-3 16.9 16.9 0 0 1 2.4-2.5 12.5 12.5 0 0 1 2.8-1.8 9.2 9.2 0 0 1 3.1-.9 3.4 3.4 0 0 1 1.9.3 3.5 3.5 0 0 1 1.2 1 4.3 4.3 0 0 1 .7 1.5 9.8 9.8 0 0 1 .3 1.6 11.8 11.8 0 0 1 0 1.9 15.8 15.8 0 0 1-.2 1.9 3.2 3.2 0 0 0 2.2-.3 4.4 4.4 0 0 0 1.9-2.2z" fill="#010101" stroke="#010101" stroke-miterlimit="10" stroke-width=".5"/><path d="M86.1 18.3a.7.7 0 0 0-.4-.6l-.8-.4-.7 1.9-.7 1.7-.6 1.3-.3.7a.8.8 0 0 1-.4.4h-.5l-.3-.3a.6.6 0 0 1 .1-.5l.4-.9.6-1.4.7-1.7.6-1.7a6.1 6.1 0 0 1-1.7-.8 6.1 6.1 0 0 1-1.3-1.1 3 3 0 0 1-.7-1.7 2.6 2.6 0 0 1 .7-2.1 4.1 4.1 0 0 1 2-1.2 3.1 3.1 0 0 1 2.1.2 2.2 2.2 0 0 1 .8 1.9 7 7 0 0 1 0 1.3 9.8 9.8 0 0 1-.2 1.2 9 9 0 0 1-.3 1.2l1.4.3 1.7.8a5.7 5.7 0 0 1 1.5 1.2 2.9 2.9 0 0 1 .7 1.6 3.1 3.1 0 0 1-.2 1.4l-.7 1.7-.9 1.8a11 11 0 0 0-.7 1.6 2.2 2.2 0 0 0-.1 1.1q.1.4.8.4a3.3 3.3 0 0 0 1.3-.5 8.6 8.6 0 0 0 1.6-1.3l1.7-2a21.1 21.1 0 0 0 1.7-2.6 1.4 1.4 0 0 1 .6-.6h.5a.5.5 0 0 1 .3.4 1.3 1.3 0 0 1-.1.8l-1.1 2.3-1.4 2.7-1.7 2.7a19.3 19.3 0 0 1-1.9 2.4 11.7 11.7 0 0 1-2.1 1.8 4.9 4.9 0 0 1-2.2.8 2.9 2.9 0 0 1-1.7-.3 3.4 3.4 0 0 1-1.1-1 4.3 4.3 0 0 1-.6-1.4 5.6 5.6 0 0 1-.2-1.5 10.6 10.6 0 0 1 .6-3.5q.6-1.9 1.4-3.6l1.4-3a4.4 4.4 0 0 0 .4-1.9z" fill="#010101" stroke="#010101" stroke-miterlimit="10" stroke-width=".5"/><path d="M103.5 14.4a5 5 0 0 1 2.7.3 2.8 2.8 0 0 1 1.3 1.1 1.7 1.7 0 0 1 .2 1.2q-.2.6-.5.6h-.3l-.3-.4-.6-.4h-1.2a3.1 3.1 0 0 0-1.5.8 12.7 12.7 0 0 0-1.7 1.7 15.3 15.3 0 0 0-1.5 2.1 11 11 0 0 0-1 2.1 2.7 2.7 0 0 0-.2 1.5q.2.6 1 .5a2.3 2.3 0 0 0 1.2-.6l1.3-1.2 1.2-1.5.8-1.2.3-.5h.1l1-1.2a1.6 1.6 0 0 1 .9-.5q.4 0 .5 1a16.7 16.7 0 0 1 0 2.8 36.8 36.8 0 0 1-.5 4q-.4 2.3-1 4.6a40.7 40.7 0 0 1-1.5 4.7 24 24 0 0 1-2 4.1 12.5 12.5 0 0 1-2.6 3 5.5 5.5 0 0 1-3.1 1.3 6.1 6.1 0 0 1-3.8-.6 5.2 5.2 0 0 1-2-2.1 6.5 6.5 0 0 1-.7-2.5 7.9 7.9 0 0 1 .1-2 1.1 1.1 0 0 1 .5-.7q.4-.2.7.2l.5.5.7.5 1 .4h1.2a4.9 4.9 0 0 0 2.9-1.4 12.6 12.6 0 0 0 2.3-2.9 23.6 23.6 0 0 0 1.7-3.7q.7-2 1.2-3.8l-.5 1.3-.5 1-.4.8-1 1.3-1.2 1.2-1.3.9a4.1 4.1 0 0 1-1.5.4 2.9 2.9 0 0 1-1.5-.2 3.4 3.4 0 0 1-1.1-.8 3.7 3.7 0 0 1-.7-1.1 4.6 4.6 0 0 1-.3-1.2 11.9 11.9 0 0 1 .2-3.7 15.4 15.4 0 0 1 1.2-3.5 18.3 18.3 0 0 1 1.9-3.1 16.9 16.9 0 0 1 2.3-2.5 12.2 12.2 0 0 1 2.5-1.7 6.6 6.6 0 0 1 2.6-.9zM127.1 18.2a.6.6 0 0 0-.3-.4h-.5a1.3 1.3 0 0 0-.5.6 15.4 15.4 0 0 1-3.3 4.7 9.2 9.2 0 0 1-3.4 2.1 3.8 3.8 0 0 1-2.8-.1 2.2 2.2 0 0 1-1.3-1.8v-.4-.4l1 .4h1.3a3.6 3.6 0 0 0 2.1-1 9.3 9.3 0 0 0 1.7-2.1 11 11 0 0 0 1.2-2.6v-.3a22.3 22.3 0 0 1-2.9 0l-.2.3a8.1 8.1 0 0 1-1.3 1.6 2.5 2.5 0 0 1-1.5.8h-.6l1-1.7 1.1-1.4 1-1 .7-.4q.5 0 .3.6a4.2 4.2 0 0 1-.3.9h2.8a5.7 5.7 0 0 0 .1-1.8v-.7a2.1 2.1 0 0 0-.4-.9 2.6 2.6 0 0 0-1-.7 3.4 3.4 0 0 0-1.6-.2 7.7 7.7 0 0 0-4 1.6 15.1 15.1 0 0 0-3.3 3.5 16.7 16.7 0 0 0-2.2 4.5 10.9 10.9 0 0 0-.5 4.5 5.3 5.3 0 0 0 .7 2.1 5.5 5.5 0 0 0 1.4 1.6 6.1 6.1 0 0 0 1.9 1 5.7 5.7 0 0 0 2.2.2 9.9 9.9 0 0 0 3.5-.9 10.8 10.8 0 0 0 2.7-1.8 12.8 12.8 0 0 0 2-2.4 20.8 20.8 0 0 0 1.5-2.7l1.1-2.6.8-2.2a1.1 1.1 0 0 0-.2-.5zM67.7 38.4a8.3 8.3 0 0 1 3.6.1 6.1 6.1 0 0 1 2.5 1.3 4.6 4.6 0 0 1 1.3 2 3.5 3.5 0 0 1 0 2.3 4.2 4.2 0 0 1-1.5 2 6.9 6.9 0 0 1-3.2 1.2l-3.2.4-3.3.2h-3.1l1.5.2 1.6.4a7.1 7.1 0 0 0 .6 2 9.3 9.3 0 0 0 1.1 1.8l1.4.5 1 .6a1.4 1.4 0 0 1 .6.9.8.8 0 0 1-.3.8 2.5 2.5 0 0 1-1.2.4h-1.6a6.3 6.3 0 0 1-1.9-.6H63a7.5 7.5 0 0 0-3.6 1.5 9.2 9.2 0 0 0-2.4 2.7 8.7 8.7 0 0 0-1.1 3.2 6.1 6.1 0 0 0 .3 3 4.1 4.1 0 0 0 1.8 2.4 5.3 5.3 0 0 0 3.5.4 9.2 9.2 0 0 0 3.5-1.2 5.1 5.1 0 0 0 2-2.3 1.2 1.2 0 0 1 1.2.6 3.8 3.8 0 0 1 .5 1.9 7.7 7.7 0 0 1-.4 2.6 8.7 8.7 0 0 1-1.5 2.8 10.2 10.2 0 0 1-2.8 2.4 11.9 11.9 0 0 1-4.4 1.4 12.4 12.4 0 0 1-5.4-.2 9.5 9.5 0 0 1-3.9-2.1 9.2 9.2 0 0 1-2.3-3.5 12.3 12.3 0 0 1-.8-4.3 13.4 13.4 0 0 1 .8-4.5 13.8 13.8 0 0 1 2.4-4.2 14.4 14.4 0 0 1 3.9-3.3 15.3 15.3 0 0 1 5.5-1.9 6.6 6.6 0 0 1-.8-1.7 9 9 0 0 1-.4-2.6l-2.7.2-2.6.3a9 9 0 0 0-3.6 1.2 4.8 4.8 0 0 0-1.5 1.4 1.3 1.3 0 0 1-1.1-.3 2.4 2.4 0 0 1-.7-1.2 4 4 0 0 1 .6-3.4 5.5 5.5 0 0 1 1.8-1.5 8.4 8.4 0 0 1 3-1 14.7 14.7 0 0 1 3.6-.1l4 .5a8.6 8.6 0 0 1 1-1.9 7.7 7.7 0 0 1 1.6-1.6 11.1 11.1 0 0 1 2.4-1.3 14.6 14.6 0 0 1 3.3-.9zm2 6.5a2.3 2.3 0 0 0 1.4-.6 1.1 1.1 0 0 0 .3-1 1.4 1.4 0 0 0-.8-.9 2.9 2.9 0 0 0-1.8-.2 6.9 6.9 0 0 0-2.8 1 5.2 5.2 0 0 0-1.6 1.7l2.7.2z" fill="#010101" stroke="#010101" stroke-miterlimit="10" stroke-width=".5"/><path d="M91.5 52.3a1.3 1.3 0 0 1 .4-.7h.5a.5.5 0 0 1 .3.4 1.3 1.3 0 0 1 0 .7L92 55l-.8 2.6q-.5 1.4-1 2.7a15.3 15.3 0 0 1-1.2 2.3 8.6 8.6 0 0 1-1.6 1.8 3.7 3.7 0 0 1-1.9.9 4 4 0 0 1-2.1-.2 4.2 4.2 0 0 1-1.5-1.1 5.8 5.8 0 0 1-1.1-1.8 10.5 10.5 0 0 1-.6-2.2v-.3a1.7 1.7 0 0 1 0-.3 8.2 8.2 0 0 0-.3 1.1q-.1.6-.2 1.3l-1 1.6-1.2 1.5A7.5 7.5 0 0 1 76 66a4.1 4.1 0 0 1-1.6.6 2.5 2.5 0 0 1-1.4-.1 3.1 3.1 0 0 1-1-.7 3.7 3.7 0 0 1-.7-1.1 4.9 4.9 0 0 1-.3-1.1 13 13 0 0 1 .3-5.4 18.8 18.8 0 0 1 2.1-4.9 14.8 14.8 0 0 1 3-3.6 6.8 6.8 0 0 1 3.3-1.7H81l1 .2q.6-2.2 1.4-4.3t1.5-3.7a19.1 19.1 0 0 1 1.4-2.7q.7-1 1.1-1.1t.7.6a6.4 6.4 0 0 1-.1 1.7l-.6 2.9-.7 3.6q-.4 2-.7 3.9t-.5 3.7a17.5 17.5 0 0 0-.1 3.2 4.6 4.6 0 0 0 .6 2 1.3 1.3 0 0 0 1.5.6q1-.2 2-1.8a30.9 30.9 0 0 0 2-4.5zM76.8 59a1.9 1.9 0 0 0 .9-.5l1-1.2 1-1.4.8-1.4.4-2.1.5-2.2h-.7a2.6 2.6 0 0 0-1.4.8 11.8 11.8 0 0 0-1.3 1.7 16.1 16.1 0 0 0-1.3 2.2 11.3 11.3 0 0 0-.8 2.1 2.9 2.9 0 0 0-.1 1.5q.2.6 1 .5z" fill="#010101" stroke="#010101" stroke-miterlimit="10" stroke-width=".5"/><path d="M107.9 49.8a1.2 1.2 0 0 1 .4-.7h.5a.6.6 0 0 1 .3.4 1.1 1.1 0 0 1 0 .7l-.7 2.3-.8 2.6q-.5 1.4-1 2.7a16.1 16.1 0 0 1-1.3 2.4 8.3 8.3 0 0 1-1.5 1.8 3.7 3.7 0 0 1-1.9.9 2.3 2.3 0 0 1-1.7-.3 3.6 3.6 0 0 1-1.1-1.2 6.1 6.1 0 0 1-.6-1.6l-.3-1.4v-1-1l-.2.9-.2 1v1.1l-.8 1.2-.9 1.4a5.6 5.6 0 0 1-1.2 1.2 3.7 3.7 0 0 1-1.6.6h-1l-.9-.5a3.1 3.1 0 0 1-.8-1 5 5 0 0 1-.5-1.7 11.2 11.2 0 0 1 0-3 22.4 22.4 0 0 1 .7-3.3 30.3 30.3 0 0 1 1.1-3.2 29.1 29.1 0 0 1 1.3-2.8 14.1 14.1 0 0 1 1.2-2q.6-.8 1-.8t.9.7a3.7 3.7 0 0 1-.2 1.3l-.6 2.2q-.3 1.3-.5 2.6a7.6 7.6 0 0 0-.1 2.4 2.2 2.2 0 0 0 .4 1 .8.8 0 0 0 .8.3 1.9 1.9 0 0 0 1.1-1 15 15 0 0 0 1-2l1.1-2.7 1.1-2.7 1-2.1q.5-.9 1-.9a.8.8 0 0 1 1.1.8 2.7 2.7 0 0 1-.1.7l-.3 1.4-.3 1.8-.3 2q-.1 1-.2 1.9a7.6 7.6 0 0 0 0 1.6 1.7 1.7 0 0 0 .6 1.3 1.4 1.4 0 0 0 .9.2q1-.2 2-1.8a29.7 29.7 0 0 0 2.1-4.7z" fill="#010101" stroke="#010101" stroke-miterlimit="10" stroke-width=".5"/><path d="M124.4 47.3a1.2 1.2 0 0 1 .4-.7h.5a.5.5 0 0 1 .3.4 1.3 1.3 0 0 1 0 .7l-.7 2.3-.8 2.6q-.5 1.4-1 2.7a16.1 16.1 0 0 1-1.3 2.4 8.3 8.3 0 0 1-1.5 1.8 3.7 3.7 0 0 1-1.9.9 2.4 2.4 0 0 1-1.6-.2 2.9 2.9 0 0 1-1.1-1 5.4 5.4 0 0 1-.7-1.5 13.4 13.4 0 0 1-.4-1.6 6.7 6.7 0 0 1-.1-1.3 9.1 9.1 0 0 1 .2-1.5 13.5 13.5 0 0 0-.5 2 13.3 13.3 0 0 0-.2 2.5 12.2 12.2 0 0 1-1.8 2.4 4 4 0 0 1-2.3 1.3 2.5 2.5 0 0 1-1.4-.1 3.1 3.1 0 0 1-1-.7 3.7 3.7 0 0 1-.7-1.1 4.9 4.9 0 0 1-.3-1.1 13 13 0 0 1 .3-5.4 18.8 18.8 0 0 1 2.1-4.9 14.8 14.8 0 0 1 3-3.6 6.8 6.8 0 0 1 3.3-1.7 4.2 4.2 0 0 1 2.4.2 2.5 2.5 0 0 1 1.2 1.1 1.9 1.9 0 0 1 .2 1.2q-.1.6-.4.6h-.3l-.3-.4-.6-.3h-1.1a2.6 2.6 0 0 0-1.4.8 11.9 11.9 0 0 0-1.4 1.7 16.1 16.1 0 0 0-1.3 2.2 11.3 11.3 0 0 0-.8 2.1 2.9 2.9 0 0 0-.1 1.5q.2.6 1 .5a2 2 0 0 0 1.1-.6l1.1-1.3 1-1.5.7-1.3.3-.5h.1a6.6 6.6 0 0 1 .9-1.3 1.5 1.5 0 0 1 .8-.6q.6-.1.7.6a3 3 0 0 1-.1.7l-.2 1.3q-.1.7-.1 1.6a8.2 8.2 0 0 0 .1 1.6q.2 1 .6 1.3a1.4 1.4 0 0 0 .9.2q1-.2 2-1.8a30.9 30.9 0 0 0 2.2-5.2z" fill="#010101" stroke="#010101" stroke-miterlimit="10" stroke-width=".5"/><path d="M128.5 43a.7.7 0 0 0-.4-.6l-.8-.4-.6 2-.6 1.7-.5 1.3-.3.7a.7.7 0 0 1-.4.4h-.4l-.3-.3a.6.6 0 0 1 0-.5l.3-.9.5-1.4.5-1.7q.3-.9.4-1.7a5.3 5.3 0 0 1-1.6-.7l-1.2-1a3.1 3.1 0 0 1-.7-1.7 2.7 2.7 0 0 1 .5-2.1 3.7 3.7 0 0 1 1.7-1.3 2.6 2.6 0 0 1 1.9.1 2.2 2.2 0 0 1 1.1 1.8 7.6 7.6 0 0 1 .4 1.3 10.4 10.4 0 0 1-.1 1.2 9.6 9.6 0 0 1-.2 1.2l1.3.3 1.6.7a5.4 5.4 0 0 1 1.4 1.1 3 3 0 0 1 .7 1.6 3.3 3.3 0 0 1-.2 1.4l-.6 1.7-.7 1.8a11.4 11.4 0 0 0-.5 1.6 2.3 2.3 0 0 0 0 1.1q.1.4.7.3a2.9 2.9 0 0 0 1.2-.6 8 8 0 0 0 1.4-1.3 17 17 0 0 0 1.5-2 21.3 21.3 0 0 0 1.4-2.7 1.4 1.4 0 0 1 .5-.7h.5a.5.5 0 0 1 .3.4 1.3 1.3 0 0 1-.1.7l-.9 2.3-1.2 2.7-1.4 2.7A18.9 18.9 0 0 1 133 56a10.9 10.9 0 0 1-1.8 1.8 4.2 4.2 0 0 1-2 .9 2.4 2.4 0 0 1-1.6-.2 3.2 3.2 0 0 1-1.1-1 4.4 4.4 0 0 1-.7-1.4 6.1 6.1 0 0 1-.3-1.4 11.3 11.3 0 0 1 .4-3.5q.5-1.9 1.1-3.6l1.1-3a4.6 4.6 0 0 0 .4-1.6zM139.7 53c-1.5.1-2.9-.3-4.3 0v.7a.8.8 0 0 1 .8-.1h7l.5-.8z" fill="#010101" stroke="#010101" stroke-miterlimit="10" stroke-width=".5"/><path d="M157.3 42.2a.5.5 0 0 0-.3-.4h-.5a1.2 1.2 0 0 0-.4.7 30.9 30.9 0 0 1-2.1 4.6q-1 1.6-2 1.8a1.3 1.3 0 0 1-1.5-.6 4.6 4.6 0 0 1-.6-2.1 17.6 17.6 0 0 1 .1-3.2q.2-1.8.5-3.7t.7-3.9l.7-3.6.6-2.9a6.4 6.4 0 0 0 .1-1.7q-.1-.7-.7-.6t-1.1 1.1a19.1 19.1 0 0 0-1.4 2.7q-.7 1.7-1.5 3.7t-1.4 4.3l-1-.2h-1.4a6.8 6.8 0 0 0-3.3 1.7 14.8 14.8 0 0 0-3 3.6 18.7 18.7 0 0 0-2.1 4.9 13 13 0 0 0-.4 4.2 34.1 34.1 0 0 1 4.1 0h4.5l.3-.5q.1-.7.2-1.3a8.2 8.2 0 0 1 .3-1.1 1.7 1.7 0 0 0 0 .3v.3a10.5 10.5 0 0 0 .5 2c-.1-.1 0-.3.1-.2h1.5l2.8-.3h.5l2.2-.7c.6-.2 1.3-.6 1.9-.2l.3.2.2-.5q.6-1.3 1-2.7l.8-2.6.7-2.3a1.3 1.3 0 0 0 .1-.8zm-11.8.5l-.4 2.1-.8 1.4-1 1.4-1 1.2a1.9 1.9 0 0 1-.9.5q-.8.1-1-.5a2.9 2.9 0 0 1 .1-1.5 11.3 11.3 0 0 1 .8-2.1 16.1 16.1 0 0 1 1.3-2.2 11.8 11.8 0 0 1 1.4-1.7 2.6 2.6 0 0 1 1.4-.8h.7zM151.5 52.1h-1.3a11.7 11.7 0 0 1-3.2.3h-1.5a.6.6 0 0 1 0 .4l.4.7 1-.2 1.1-.5a.8.8 0 0 1 1 .5 26.2 26.2 0 0 0 4.5-.5l.2-.4c-.8.1-1.8-.3-2.2-.3z" fill="#010101" stroke="#010101" stroke-miterlimit="10" stroke-width=".5"/><path d="M173.2 39.6a.4.4 0 0 0-.3-.3l-.5.2a1.4 1.4 0 0 0-.5.7 4.2 4.2 0 0 1-1.6 2.1 2.7 2.7 0 0 1-2 .4 17 17 0 0 0 .1-1.9 12.8 12.8 0 0 0-.1-1.9 10.4 10.4 0 0 0-.4-1.5 4.5 4.5 0 0 0-.7-1.4 3.3 3.3 0 0 0-1.2-1 2.9 2.9 0 0 0-1.7-.2 7.8 7.8 0 0 0-2.8 1 11.3 11.3 0 0 0-2.5 2 16.3 16.3 0 0 0-2 2.6 15.7 15.7 0 0 0-1.5 3 15.9 15.9 0 0 0-.8 3.2 10.5 10.5 0 0 0 0 3 7.7 7.7 0 0 0 .5 1.7 5.2 5.2 0 0 0 .9 1.5 33.2 33.2 0 0 1 6.8-.1l1-.9a14.4 14.4 0 0 0 3.1-4.5 4 4 0 0 0-1.5-1.5l-1.6-.7-1 1a2.4 2.4 0 0 1-1.1.5 1.2 1.2 0 0 1-1.3-.4 2.6 2.6 0 0 1-.4-1.5 7.7 7.7 0 0 1 .4-2.1 12.2 12.2 0 0 1 .9-2.2 7.5 7.5 0 0 1 1.3-1.8 2.8 2.8 0 0 1 1.5-.9 1.1 1.1 0 0 1 1.3.5 3.4 3.4 0 0 1 .3 1.8 1.6 1.6 0 0 0-1.2-.5 1.8 1.8 0 0 0-1.8 1.6 2.7 2.7 0 0 0 .5 1.8 4.2 4.2 0 0 0 2.3 1.8 4.9 4.9 0 0 0 2.8 0 6.4 6.4 0 0 0 2.7-1.6A7.6 7.6 0 0 0 173 40a1.2 1.2 0 0 0 .2-.4z" fill="#010101" stroke="#010101" stroke-miterlimit="10" stroke-width=".5"/><path d="M49.1 22a12.3 12.3 0 0 1 2-7.7 15.9 15.9 0 0 1 9.8-7.6 11.5 11.5 0 0 1 3.6-.2 1.5 1.5 0 0 1 1 1 9.6 9.6 0 0 1 0 2.9c-.2 1.1-.6 2.2-.8 3.3a32.9 32.9 0 0 1-1.7 4.9c-.9 2.7-2.3 5.3-3.5 7.9l-.2.2a6.7 6.7 0 0 1-1.1 2.5h4.6a2.1 2.1 0 0 1 1 .6c.1.1-.2.5-.4.7a1.5 1.5 0 0 1-.9.3h-4.1a1.9 1.9 0 0 0-1.8 1c-1.8 2.8-3.3 5.8-5.5 8.3s-3.8 4.6-6.9 5.7l-.4.3c-3 .3-6.1.7-8.6-1.5l-.9-.8c-2-1.7-2.9-4.9-1.6-7a11.4 11.4 0 0 1 4.1-3.7 35.1 35.1 0 0 1 8.6-3 23 23 0 0 1 4.2-.5c1.2 0 2.2-.8 3.5-.6s.7-.6.9-.9 1.6-3.5 2.5-5.3a126.1 126.1 0 0 0 5.4-12.4 9 9 0 0 0 .3-2c-1.2-.4-1.6.5-2.3 1-3.3 2.5-4.9 5.9-6.3 9.4a12 12 0 0 0-.8 5.4 3.3 3.3 0 0 1-.4 2.1c-.4.6-1.1.5-1.5.9l-.6-.5a5.6 5.6 0 0 1-1.2-3.5V22zM52 32.7c.1-.6 0-.7-.6-.5h-.5a24.8 24.8 0 0 0-7.7 1.6 10.4 10.4 0 0 0-4.8 2.6c-.9 1.1-1.6 2.4-1.4 3.6a6 6 0 0 0 3.1 4 10.2 10.2 0 0 0 2.3.7c.7.2 1-.5 1.5-.7s1.8-1.4 2.5-2.3a50.7 50.7 0 0 0 5.3-8.6z" fill="#231f20" stroke="#010101" stroke-miterlimit="10" stroke-width="1.6"/></g></svg>