<svg xmlns="http://www.w3.org/2000/svg" width="167.73" height="107.83" viewBox="0 0 167.73 107.83"><title>Fresh</title><g id="Layer_2" data-name="Layer 2"><g id="Layer_1-2" data-name="Layer 1"><path d="M34.36,35.92a13.4,13.4,0,0,1-2.13,6.16c1,.31,1.87.58,2.76.87,7.67,2.53,10.8,9.91,6.26,15.23a18.58,18.58,0,0,1-8.41,5.39,10.83,10.83,0,0,1-3.46.4,25.12,25.12,0,0,1-4.58-.44c-5.51-1.14-8.55-4.1-10.17-8.09a8.5,8.5,0,0,0-1.28-1.69l-1.48-.83.49-.32,2.16-.41,1.37,0A8.11,8.11,0,0,1,20.42,54a29,29,0,0,1,2.69,2.75,6.36,6.36,0,0,0,6.33,1.88A22.83,22.83,0,0,0,33.32,57c3.46-1.53,5.12-6.29,1.83-9.15C33,46,30.21,45.29,26.79,45.35c1,2.65,1.78,5.23,4.37,7.4-1.2.29-2.27.62-3.37.8-2.27.35-3.74-.26-4.62-1.89a11.49,11.49,0,0,1-.91-2.13c-1.19-4-2.42-7.9-4.84-11.5a5.62,5.62,0,0,1,3.3-1.33,2.68,2.68,0,0,1,2.28.6,7.57,7.57,0,0,1,2.26,3.76c.26.88.64,1.74,1,2.61h.28a21.71,21.71,0,0,0,1.37-2.44c.73-1.79,1.3-3.6.56-5.5A5,5,0,0,0,24,32.42c-2.74-.34-5.36,0-7.11,1.81A5,5,0,0,0,16,40.87c.38.65.85,1.26,1.35,2a14.5,14.5,0,0,1-4.43-.5L11,41.65l-.35-.24-1.3-1.74a6.93,6.93,0,0,1,.8-5.09,12.37,12.37,0,0,0,.64-1.09,11.78,11.78,0,0,1,4.89-4.78,13.84,13.84,0,0,1,10-1.33c2.48.48,4.89,1.15,6.52,2.84a6.63,6.63,0,0,1,2,4.36C34.31,35,34.34,35.48,34.36,35.92Zm-9.65,15a3.42,3.42,0,0,1,0-1c.22-.63-.13-1-.71-1.16.08.5.13,1,.25,1.52C24.3,50.48,24.51,50.64,24.71,50.91Z" style="fill:#f8f8f8;stroke:#000;stroke-miterlimit:10;stroke-width:0.7514456132724701px"/><path d="M63.53,8.65l-.89-5.42L62,2.42,61.27,2A16.74,16.74,0,0,1,63.87.58,2.93,2.93,0,0,1,67.67,2c.92,2.09.85,4.27,1,6.43.08,1.32,0,2.64,0,4a1.53,1.53,0,0,1-1,1.5c-1.05.55-2,1.17-3,1.77q-.09,0-.09.06l-.24.14-.16.16.3,0h.07l0,0,.31-.09c2.24-.83,4.45-1.69,6-3.29a3.16,3.16,0,0,0,.78-3.67A7.82,7.82,0,0,0,71,7.51c-.35-.53-.11-.75.55-.94A6.15,6.15,0,0,1,77.3,7.8c.9,1,.54,2,.11,3.08-.09.21-.18.41-.27.61l-.17.14-.8.91-.39.45h0c-2.14,2-5.38,2.66-8.27,3.75-1.27.48-2.53,1-3.8,1.47l.18.33,4.48-1.15a18.47,18.47,0,0,1-.57,3.18,25.8,25.8,0,0,1-1.87,3.92,4.4,4.4,0,0,1-3.16,1.89,5.33,5.33,0,0,1-4-1,3.74,3.74,0,0,1-.44-5.87,11.4,11.4,0,0,1,5.28-3.28v-2.4l-.8.4c-.46.24-.89.51-1.37.73-2.85,1.32-4.34,1.07-6.19-1-.51-.58-.51-.58-1.6-.51.15-.56-.4-1.27.77-1.54.08,0,.15-.16.16-.25.31-2.2,1-4.41.06-6.6a7.65,7.65,0,0,0-1.19-1.5l0-.58,1.38-.65L58.17,2l.8.27.18.31.52.71L60,5.36l-.07.3-.14,1.19-.08.31,0,1v.6l0,.3,0,.3,0,.3.09,1.21.28.89.11.31c.41.78.83.94,2,.78s1.49-.43,1.48-1.24c0-.15,0-.29,0-.44v-.15l.06-.3s0,0,0-.05a.55.55,0,0,0-.05-.1l0-.45Zm.29,9.63a8.06,8.06,0,0,0-3.49,2.89c-.29.52-.48,1.05,0,1.55a3.44,3.44,0,0,0,2.43.74l-1.16-.63,1.64-3.45C63.43,19.06,63.59,18.74,63.82,18.28Z" style="fill:#f8f8f8;stroke:#000;stroke-miterlimit:10;stroke-width:0.7514456132724701px"/><path d="M80.91,46.67l-4.2.14A26.4,26.4,0,0,1,73,45.32a11.66,11.66,0,0,1-2.15-2.06c-.42-1.68-.85-3.36-1.25-5-.2-.86-.32-1.72-.55-2.57a1.26,1.26,0,0,0-2.51.19A11,11,0,0,0,67,37.55a12.25,12.25,0,0,0,2.19,5.33l-1.11.35-2.17,0-1.36-.35c-1.13-1-.85-2.26-1.16-3.41-.5-1.9-1-3.81-1.56-5.7a5.72,5.72,0,0,0-.94-1.37c2.42-1,4-1.49,5.3,1.36a6.61,6.61,0,0,1,4-1.76c1.35-.11,2.67.33,3,1.27a23.66,23.66,0,0,1,1.46,4.84,19.22,19.22,0,0,0,.74,3.1c.77,2.31,3.74,3.39,6.69,2.49l-.67-.27c0-.08.06-.14.1-.16.45-.24.94-.44,1.34-.72,1.21-.81,2.36-1.66,3.57-2.47a10.91,10.91,0,0,1,5.31-1.93,7.39,7.39,0,0,1,3.75,1.06,2.9,2.9,0,0,1,1.52,2.92,5.66,5.66,0,0,1-.36,1.05c-.36-.16-.59-.24-.79-.36a5.78,5.78,0,0,0-4.13-.52,3.87,3.87,0,0,1-1-.08L90.75,42c-1.29.65-2.65,1.22-3.84,2A20,20,0,0,1,80.91,46.67Z" style="fill:#f8f8f8;stroke:#000;stroke-miterlimit:10;stroke-width:0.7514456132724701px"/><path d="M48.42,3.14l1.43,1.12C51.25,6,52.58,7.85,52.92,10a8.28,8.28,0,0,1-1.72,7,5.68,5.68,0,0,1-4.25,1.87c-.15,0-.33-.16-.66-.34l-1,.19.35-.39c-1.95,0-2.84-.4-2.32-1.08l-1.61.19.55-.5-1,0-.14-.14.61-.16L40,16l1-.43-.09-.17-1.44.28.27-.47h-.95l1.39-.63-.08-.2-1.47.26.41-.43-.81-.09,1.1-.62-.05-.11-1.49.25.7-1.13-.95.08-.09-.14,1.33-.55-.5-.5-1.08.14-.07-.1,1.3-.66-.07-.13-1.18.18-.05-.08,1-.48H37.1l0-.11,1.4-.53-.06-.17L37,9.67,37,9.58c.21-.09.42-.19.63-.28s.47-.16.95-.32L37.17,8.9h0a.16.16,0,0,0,.08-.11l.63-.37-.64,0c.12-.4.23-.8.38-1.19s.23-.49.41-.86c0-.06-.23-.37-.11-.53.45-.6,1-1.16,1.52-1.74,0,0-.07-.15-.11-.22l-.1-.28,2.18-1.19A7.32,7.32,0,0,1,46.2,2ZM49.18,10l-1.12-.11,1-.57H47.78l.95-.4-.82-.19,1-.53H47.4l.74-.48-.86-.2.5-.46L47,7l.62-.51-.83,0,.17-.4-.2-.2c-.45.23-1.25.43-1.29.7a3.48,3.48,0,0,0,1.12,3.71,1.32,1.32,0,0,1,.63,1.41A10.84,10.84,0,0,0,47,12.88c0,.48-.38.57-.85.33a12.61,12.61,0,0,1-2-1.18c-.77-.61-1.4-1.32-2.26-2.15a10.66,10.66,0,0,0,.27,1.75c.42,1.23.76,2.53,2.5,3.13A4.38,4.38,0,0,0,46.5,15,2.73,2.73,0,0,0,48,14.27a4,4,0,0,0,.59-1.38L48,12.81l1-.44-1-.17.79-.33-.6-.23,1-.39,0-.11H48.05l.87-.47L48,10.5l1.15-.5h0ZM39.9,15.28l.17-.06s-.05-.09-.08-.09a.55.55,0,0,0-.16,0Zm2.58,1.52,0,0h.06Z" style="fill:#f8f8f8;stroke:#000;stroke-miterlimit:10;stroke-width:0.5009637421816474px"/><path d="M61.52,47.78l1.54.79a5.66,5.66,0,0,1,2.38,2.24,33.06,33.06,0,0,1,1.81,3.07,5.87,5.87,0,0,1-.13,4.2,19,19,0,0,1-3.88,6.19,1.89,1.89,0,0,1-2.16.58,1.93,1.93,0,0,1,.18-.48,11.08,11.08,0,0,0,2.16-7.44A8.65,8.65,0,0,0,58.85,50c-3.14-1.83-9-1-10.32,3a5.32,5.32,0,0,0,.87,5.54c0,.06,0,.14.06.21a4.48,4.48,0,0,1-4-.38A3.51,3.51,0,0,1,44,54.12a11.53,11.53,0,0,1,2.57-4.75,9.48,9.48,0,0,1,6.88-2.92c1.31,0,2.62.13,3.93.2l.59.05,2.53.62.4.19.43.21A.25.25,0,0,0,61.52,47.78Zm5,8.3-.26,0-.69,2.12.27,0Z" style="fill:#a4a4a4;stroke:#000;stroke-miterlimit:10;stroke-width:0.5009637421816474px"/><path d="M30.88,17.35H27.09a4.49,4.49,0,0,0-.67.11c-.75.12-.92.39-.61,1,.88,1.66,1.67,3.35,2.5,5-1.8,1.09-4.66.76-5.73-.55a14.8,14.8,0,0,1-2-3.39c-1.91-4.32-3.73-8.66-5.64-13-.15-.33-.65-.58-1-.87,1.34-1.35,5.59-1.39,6.8.92,1.07,2,1.88,4.14,2.74,6.23.45,1.09.39,1.11,1.91,1.06l3.65-.12c.56,0,.82.15.93.58C30.27,15.29,30.57,16.25,30.88,17.35ZM19.13,8.09l-.54.08.74,1.69.35-.07Z" style="fill:#f8f8f8;stroke:#000;stroke-miterlimit:10;stroke-width:0.7514456132724701px"/><path d="M32.82,16.8l-.63.09L32,16.74l.78-.38-1-.1.91-.57.14-.06-.09,0,0,.1-.76,0,1.27-.72-.12-.14-1.49.43.24-.53-.51-.12.8-.51-.53-.32.75-.5-1.82-.34,1.21-.62.29-.1,0-.08-.41,0-1.22.26.62-.53.29-.18-.09-.09-.34.15c0-.07-.15-.19-.14-.2a3.08,3.08,0,0,0,.93-.69l-1.31.33-.09-.12.72-.42.33-.15-.06-.1-.43.1-.63.11-.09-.12,1.21-.58-.06-.13-.85.12-.09-.07.14-.19.31-.19-.07-.09-.42.14-.89.19.37-.55A5.48,5.48,0,0,1,28.21,9c-.32-.14-.4-.59-.6-.93h-1l.84-.39,0-.13-.93.07,1.73-2.22-.61-.22,1.31-.66L28,4.43c.09-.32.37-.7.24-.95-.34-.65.26-.87.76-.93a3.64,3.64,0,0,1,2,.13,8.15,8.15,0,0,1,1.72,1.84,5.06,5.06,0,0,1,.87,1.27c.57,1.46,1,2.94,1.6,4.39,1.3,3.29,2.64,6.57,4,9.84a8.17,8.17,0,0,0,.66,1.06,21.06,21.06,0,0,1-2.46.48A17.15,17.15,0,0,1,35,21.43l.94-.53-1.3.19-.45-.66.42-.36h-.95l.81-.54-.06-.11-1.18.23.26-.43L32.89,19l.49-.47-.55-.08V17.9l-.25,0,.37-.32.19-.11h-.33l-.63,0,.78-.49.29-.11,0-.08Zm1.88,2.57s0,0-.06,0l-.13,0s0,0,.06,0Zm-1.09-.94-.06,0s0,0,0,0,0,0,.06,0Z" style="fill:#f8f8f8;stroke:#000;stroke-miterlimit:10;stroke-width:0.25048187109082315px"/><path d="M48.66,26.71a5.8,5.8,0,0,1-1-1.11,1.64,1.64,0,0,1-.08-1.16,12.79,12.79,0,0,1,.79-1.71l-.32-.11A7.65,7.65,0,0,0,47.14,24c-.53,1.33-.92,2.7-1.43,4a10.4,10.4,0,0,1-3.56,5.16,5.66,5.66,0,0,1-5.5.47,2.7,2.7,0,0,1-1-1c-1.35-2.24-2.06-4.54-.46-6.87a5.2,5.2,0,0,1,4.11-2.41c1.88-.15,2.92.74,2.53,2.15a7,7,0,0,1-2.14,3.24c-.31.29-.67.91-.5,1.07a3.9,3.9,0,0,0,1.77.93,3,3,0,0,0,2.66-1.26c.56-1.5,1-3,1.55-4.54.68-1.95,1.12-4,3.65-5.19a7.78,7.78,0,0,1,2-.49c.52-.08.61.18.6.56,0,1,0,2,0,3a1,1,0,0,1-.11.57c-.73,1-1.5,2-2.26,3.05Zm-9.18-1.45a2.86,2.86,0,0,0-1.18,3.58C39.47,28.13,39.86,27,39.48,25.26Z" style="fill:#a4a4a4;stroke:#000;stroke-miterlimit:10;stroke-width:0.5009637421816474px"/><path d="M50.59,40.3A11,11,0,0,0,53,45.44c-2.12.9-3.37.83-5.21-.33-.49.26-1,.52-1.54.83-2.56,1.61-5.26.88-5.89-1.61-.39-1.54-.81-3.07-1.22-4.6a1.6,1.6,0,0,0-1.49-1.13c0-.72,1.09-1.46,2.29-1.61a2.61,2.61,0,0,1,2.78,1.26c.24.56.39,1.14.58,1.72.33,1.16.62,2.33,1,3.48a1.73,1.73,0,0,0,.85,1,2.9,2.9,0,0,0,1.56.12c.29-.06.69-.52.63-.74-.29-1.14-.72-2.25-1.09-3.37a15.78,15.78,0,0,0-2.27-4.62,6.64,6.64,0,0,1,3.36-.69c.73.06,1.24.28,1.46.83C49.45,37.4,50,38.85,50.59,40.3Z" style="fill:#f8f8f8;stroke:#000;stroke-miterlimit:10;stroke-width:0.7514456132724701px"/><path d="M86.61,55.56l.8,2.46a6.26,6.26,0,0,1-3.61-.23,1.65,1.65,0,0,0-1.57,0c-3.09,1.44-6.53.46-7.69-2.14a4.77,4.77,0,0,1,.62-5.26c1.25-1.52,4.45-2.47,6.56-.48-1.92.41-3.37,1.21-3.53,2.81-.13,1.36-.27,2.75,1.3,4H78a3.39,3.39,0,0,0,2.54.56,1.81,1.81,0,0,0,1.69-.87,1.93,1.93,0,0,0,.24-.64,17.61,17.61,0,0,0-.23-5.79A9.43,9.43,0,0,0,81.37,48l1.75-.45.37,0,1.18.14a2,2,0,0,1,1.41,1.64.15.15,0,0,0,0,.14A16.19,16.19,0,0,0,86.61,55.56Zm-2.72-3.76h0l-.2-.31-.19,0L83.58,53,84,53l.63-1.55C84,51.38,84.72,52.18,83.89,51.81Z" style="fill:#a4a4a4;stroke:#000;stroke-miterlimit:10;stroke-width:0.5009637421816474px"/><path d="M58.18,44.94c-1.72.53-3.15-.16-4.47-.78-.62-.29-.91-1.05-1.22-1.64s-.67-1.5-1-2.25c-.2-1.79.65-3.38,1.59-5,.71-1.19,4.07-2.18,5.69-1.74.86.23,1.55.91,1.37,1.73A9.65,9.65,0,0,1,59,38a7.37,7.37,0,0,1-1.48,1.49c-.82.74-.55,1.5.69,1.81a3,3,0,0,0,3.17-.85,18.39,18.39,0,0,0,1.19-2c.13,1.28.9,2.44-.31,3.53l-1.83,1.83-.5.35-1.06.51Zm-.67-9.4c-1.46.58-1.69,2.14-.92,3.51A3.31,3.31,0,0,0,57.51,35.54Z" style="fill:#f8f8f8;stroke:#000;stroke-miterlimit:10;stroke-width:0.7514456132724701px"/><path d="M91.19,24.31l.4,1,.22.17c.45.35.38.68,0,1a3.07,3.07,0,0,1-2.74.62,1.66,1.66,0,0,1-1.38-1.62c-.05-1.26,0-2.53,0-3.79a5.1,5.1,0,0,0-.27-1.09l-.15-.29h0l-.18-.5-.15-.22-.27-.29-.37-.19h-.63l-.6.27-.5.67a.1.1,0,0,0,0,.12l.1.6.06.76.34,1.79a21.58,21.58,0,0,0,.4,2.32c.1.35.47.66.72,1l-.22.57h-.06l-.05,0a.32.32,0,0,0-.18,0l-1.61,0-.38,0A2,2,0,0,1,82,25.4c-.19-1.58-.24-3.17-.48-4.75a29.31,29.31,0,0,0-.81-3.13c1.2-.79,2.73-.44,3.95,1.13L86,17.74a3.2,3.2,0,0,1,4.18.36l.38,1.65.05.45.15.32,0,2.37.19.89.06.31Z" style="fill:#a4a4a4;stroke:#000;stroke-miterlimit:10;stroke-width:0.5009637421816474px"/><path d="M76.21,22.25l-.07-.57a.1.1,0,0,0,0-.12,26.48,26.48,0,0,0-.76-2.91c-.21-.57-.12-.8.65-.95,2-.38,3.08.18,3.28,1.74.26,2.06.53,4.12.84,6.17a4.06,4.06,0,0,0,.58,1.1c.31.58.1.84-.7.72a17.92,17.92,0,0,1-2.71-.65,1.77,1.77,0,0,0-1.6,0,11.52,11.52,0,0,1-2.29.94,2.07,2.07,0,0,1-2.21-.44,3.31,3.31,0,0,1-1.12-2.65c.11-.67.21-1.34.32-2a3.23,3.23,0,0,0-.71-2.94c-.14-.15,0-.59.25-.76a2.4,2.4,0,0,1,2.37-.57c.91.33,1.54.9,1.51,1.7s-.24,1.54-.27,2.31a20.87,20.87,0,0,0,.07,2.75c.05.59.8,1,1.54.91,1-.09,1.41-.5,1.3-1.19-.05-.32-.11-.64-.16-1L77,22.79l.21.09-.08-1.2Zm1.78,0H77.7L78,24.86H79V22.48h-.23v1.45C77.65,23.58,78,22.87,78,22.27Zm-6.06.43c-.08-.41.66-1-.5-1.28l-.23,1,.64-.21Z" style="fill:#a4a4a4;stroke:#000;stroke-miterlimit:10;stroke-width:0.5009637421816474px"/><path d="M53.23,21c2.11,1.18,3,2.13,1.23,4-.83.87-1.72,1.7-2.59,2.54a4.77,4.77,0,0,0-1.76,3.64c0,.83,1,1.2,2.07.79l-.73-.28c.07-.91.1-1.75.23-2.58a1.58,1.58,0,0,1,.56-.88c.57-.47,1.22-.88,2-1.42a9.3,9.3,0,0,1,1,1.74,4.43,4.43,0,0,1-.47,4c-.8,1.18-3.93,1.83-5.42,1.13A2.36,2.36,0,0,1,48,31.63a6.57,6.57,0,0,1,2.36-5.85A8.14,8.14,0,0,0,53.23,21Z" style="fill:#a4a4a4;stroke:#000;stroke-miterlimit:10;stroke-width:0.5009637421816474px"/><path d="M84.48,35a1.48,1.48,0,0,0-.64,1.49c.05.42-.1.85,0,1.27.15,1.13-.74,1.55-2,1.86a4.79,4.79,0,0,0-1.61.75c-1,.76-2.06.64-2.63-.36a3.09,3.09,0,0,1,.12-3.34,1.8,1.8,0,0,1,1.95-.88,1.38,1.38,0,0,0,.62-.12c1.1-.43,1.51-.24,1.45.71a10.32,10.32,0,0,0-.16,1.34A6.75,6.75,0,0,0,81.9,39l.33,0a2.92,2.92,0,0,0,.11-.52c0-.65,0-1.3,0-1.95,0-1.27.53-2.34,2.44-2.88-2.13-.78-1.69-2.17-1.72-3.43a1.05,1.05,0,0,1,.42-.81,3.45,3.45,0,0,1,1.63-.77c.82,0,.92.65,1.1,1.16.5,1.44-.08,2.68-1.13,3.86v.45l0,0-1.4.59,0,.19.76.11Zm.82-5.76-.38.07a2.25,2.25,0,0,0-.44,2.48c.09.16.33.27.5.4.16-.14.42-.27.46-.43a3.68,3.68,0,0,0,.19-1.26A6.42,6.42,0,0,0,85.3,29.26ZM80,36.9c-.74.53-1,2.29-.44,2.75a.69.69,0,0,0,.49.14c.2-.08.49-.28.47-.4C80.37,38.58,80.17,37.77,80,36.9Z" style="fill:#a4a4a4;stroke:#000;stroke-miterlimit:10;stroke-width:0.5009637421816474px"/><path d="M86.67,35c.26-.71.28-1.6,1.62-1.65a7.46,7.46,0,0,1,1.78.43l1.55-1.27c.69,1,1.35,1.86,1.9,2.78a1.1,1.1,0,0,1-.46,1.61,3.44,3.44,0,0,1-1.83.41c-.38,0-.69-.58-1-.9l.22-.18,1.21.13-.4-1.57c-.93.12-1.34.39-1.45,1-.22,1.17-.51,1.35-2.06,1.63-.33.06-.58.33-.91.41a3.35,3.35,0,0,1-1.53.17c-.32-.11-.49-.63-.56-1a10.56,10.56,0,0,1,0-1.34,2.38,2.38,0,0,0-.25-.66h0l.86-.73a.13.13,0,0,0,.11,0l.18,0,.52.25.2,2.94h.51a2.48,2.48,0,0,0,.13-.75C86.93,36.2,86.79,35.61,86.67,35Zm1.56.15,0,0,0,0,.24,1.26C89.22,35.41,89.18,35.31,88.23,35.18Z" style="fill:#a4a4a4;stroke:#000;stroke-miterlimit:10;stroke-width:0.5009637421816474px"/><path d="M21.71,24.5a40.61,40.61,0,0,1-3.91-1.39,10.35,10.35,0,0,1-3.62-2.85c-.37-.46-.91-1-.15-1.46a1.9,1.9,0,0,1,2.31.34,1.2,1.2,0,0,1,.32.46c.69,2.21,2.73,3.55,5.18,4.64Z" style="fill:#a4a4a4;stroke:#000;stroke-miterlimit:10;stroke-width:0.5009637421816474px"/><path d="M93.62,54.73c.81-.18,1.62-.39,2.44-.51a1.33,1.33,0,0,1,1,.28c.32.42.77,1,.63,1.37-.22.56-1.09.48-1.8.4A19.65,19.65,0,0,0,92.66,56a5.91,5.91,0,0,0-2,.73,12.9,12.9,0,0,0-1.25.74v-.74h0c.15,0,.36,0,.46-.05.83-.55,1.63-1.12,2.45-1.68Z" style="fill:#f8f8f8;stroke:#000;stroke-miterlimit:10;stroke-width:0.25048187109082315px"/><path d="M70.66,46.86c-.66.58-1.28,1.18-2,1.72a6.74,6.74,0,0,1-1.3.59A5.14,5.14,0,0,1,66.9,48a3.44,3.44,0,0,1,.23-1.1l.29-.42.75-1h0a.12.12,0,0,0,.12,0A1.93,1.93,0,0,1,70,45.21C71.27,45.6,71.45,46.05,70.66,46.86Z" style="fill:#a4a4a4;stroke:#000;stroke-miterlimit:10;stroke-width:0.5009637421816474px"/><path d="M21.63,25.93a10.73,10.73,0,0,0-1.79.22c-1,.31-2.06.71-3.06,1.1a6.57,6.57,0,0,1-1.23.59,5.19,5.19,0,0,1-1.44-.19c.09-.31,0-.73.29-.92a7.66,7.66,0,0,1,4.89-1.23,20.7,20.7,0,0,1,2.35.26Z" style="fill:#a4a4a4;stroke:#000;stroke-miterlimit:10;stroke-width:0.5009637421816474px"/><path d="M78.35,11.65A8.28,8.28,0,0,1,79,10.3,1.19,1.19,0,0,1,79.9,10c.21,0,.55.34.54.51a12.78,12.78,0,0,1-.37,1.73A7.94,7.94,0,0,1,75.68,15,6.94,6.94,0,0,0,78.35,11.65Z" style="fill:#f8f8f8"/><path d="M79.41,31.32c.65-.73,1.23-1.41,1.85-2.07a.88.88,0,0,1,.59-.16.43.43,0,0,1,.29.34c-.2,1.56-.42,3.11-.65,4.66,0,.09-.12.17-.33.45a4.66,4.66,0,0,1-.44-.92,6.58,6.58,0,0,1,0-1C80.67,31.69,80.67,31.69,79.41,31.32Z" style="fill:#a4a4a4;stroke:#000;stroke-miterlimit:10;stroke-width:0.5009637421816474px"/><path d="M17.84,24.67c-2.67,0-4.84-.47-6.51-2a.56.56,0,0,1,0-1c.21-.15.75-.07,1.13,0,.16,0,.3.18.44.28a20.58,20.58,0,0,0,2.18,1.6A23.79,23.79,0,0,0,17.84,24.67Z" style="fill:#a4a4a4;stroke:#000;stroke-miterlimit:10;stroke-width:0.5009637421816474px"/><path d="M89.45,56.74l-.55.05.27-.6.2-.3.31-.55-.09-2.53,0-.21v-.34c.18-.46-.24-1.14.82-1.27.95.6.79,1.46.78,2.23a8.13,8.13,0,0,1-.48,1.89l-1.24,1.65Z" style="fill:#f8f8f8;stroke:#000;stroke-miterlimit:10;stroke-width:0.25048187109082315px"/><path d="M17.31,50.75l-2-.45c-.58,0-1.17,0-1.75-.06-.8,0-1.6-.12-2.4-.18-.47-.57-.36-.93.49-1a9.46,9.46,0,0,1,3.07.24,12.62,12.62,0,0,1,2.56,1.43Z" style="fill:#a4a4a4;stroke:#000;stroke-miterlimit:10;stroke-width:0.5009637421816474px"/><path d="M77.9,14.78A10.38,10.38,0,0,1,84,14.16c.28.06.47.36.7.55-.28.14-.55.39-.83.4-.61,0-1.23-.12-1.85-.15C80.6,14.89,79.23,14.84,77.9,14.78Z" style="fill:#f8f8f8"/><path d="M30.42,9.91l-.29.05.2-.12Z" style="fill:#f8f8f8"/><path d="M37.17,8.9l.06,0,0,0Z" style="fill:#f8f8f8"/><path d="M48.55,62.43a16.66,16.66,0,0,0-.77,3c-.16,2.58,2.43,4.47,5.81,4.78C58.87,70.7,63,68.95,67,66.72Q72.17,63.85,77.41,61a16.71,16.71,0,0,1,8.53-1.7c3,.13,6,.81,7.68,3a7.88,7.88,0,0,1,.95,3,9.89,9.89,0,0,1,.12,1.7l-.43.15c-.4-.36-.84-.7-1.19-1.09-1.4-1.55-3.49-2.16-5.79-2.49a12.64,12.64,0,0,0-8.7,1.85,110,110,0,0,1-16.24,8.7,50.13,50.13,0,0,1-8,2.68,17.93,17.93,0,0,1-11.91-1.22,5.11,5.11,0,0,1-2.85-6.31c1.11-3.2,3.66-5.53,7.85-6.7C47.79,62.55,48.16,62.5,48.55,62.43Z" style="fill:#f8f8f8;stroke:#000;stroke-miterlimit:10;stroke-width:0.5009637421816474px"/><path d="M61.66,65.75c-1.33.52-2.61,1.12-4,1.52a5.26,5.26,0,0,1-4.48-1.57,8.91,8.91,0,0,1-1.86-4.76c-.06-1.49,0-3,0-4.49,0-.67-.12-1.34-.17-2a1.72,1.72,0,0,0-1.4-1.52,4,4,0,0,1,2.81-1.51c1.53-.23,2.68.22,3,1.37.46,1.7.75,3.43,1.06,5.15.35,1.92.61,3.85,1,5.78.25,1.34,2,2.12,3.94,1.85ZM54.78,62.1l-.61-1.78-.24,0-.69,1.17.22.32.13-.17Zm-1.48-1.27v-.12h-.43v.09Z" style="fill:#a4a4a4;stroke:#000;stroke-miterlimit:10;stroke-width:0.5009637421816474px"/><path d="M67,50.24l1.28-.39c1.6-.52,3.15,0,3.53,1.28.67,2.29,1.17,4.6,1.8,6.89a25.67,25.67,0,0,0,1,2.61c-2,1-4.94-.12-5.18-2.07a22.06,22.06,0,0,0-1.68-6.72C67.57,51.33,67.3,50.82,67,50.24Z" style="fill:#a4a4a4;stroke:#000;stroke-miterlimit:10;stroke-width:0.5009637421816474px"/><path d="M42.39,62.89a11.21,11.21,0,0,0-1.77,1.43A17,17,0,0,0,39,66.85a1.32,1.32,0,0,1-1.54.74c-.71-.31-.62-.76-.28-1.28a7.06,7.06,0,0,1,5.2-3.42Z" style="fill:#a4a4a4;stroke:#000;stroke-miterlimit:10;stroke-width:0.5009637421816474px"/><path d="M42.07,62.06c-.12.07-.23.18-.36.2A9.62,9.62,0,0,0,37.79,64c-.58.35-1.35,1-2,.36s.35-1,.93-1.33A14.25,14.25,0,0,1,42,61.87Z" style="fill:#a4a4a4;stroke:#000;stroke-miterlimit:10;stroke-width:0.5009637421816474px"/><path d="M91.43,57.79a6.9,6.9,0,0,1,4.47,0c.58.17,1.1.45,1.66.66s.9.66.55,1.28C95.87,59.12,94.09,57.6,91.43,57.79Z" style="fill:#f8f8f8;stroke:#000;stroke-miterlimit:10;stroke-width:0.25048187109082315px"/><path d="M42.4,62.9h0Z" style="fill:#a4a4a4;stroke:#000;stroke-miterlimit:10;stroke-width:0.5009637421816474px"/><path d="M24.71,50.91c-.21-.27-.41-.43-.45-.61-.12-.51-.17-1-.25-1.52.59.19.93.53.71,1.16A3.42,3.42,0,0,0,24.71,50.91Z" style="fill:#a4a4a4;stroke:#000;stroke-miterlimit:10;stroke-width:0.5009637421816474px"/><path d="M16.31,49a5.06,5.06,0,0,1-3-2.93c-.08-.19.24-.66.45-.69a1.29,1.29,0,0,1,1,.34c.24.44.19,1,.41,1.42A20.79,20.79,0,0,0,16.3,49Z" style="fill:#a4a4a4;stroke:#000;stroke-miterlimit:10;stroke-width:0.5009637421816474px"/><path d="M16.3,49l.13,0-.12,0Z" style="fill:#a4a4a4;stroke:#000;stroke-miterlimit:10;stroke-width:0.5009637421816474px"/><path d="M17.3,50.76l.2.15h0l-.2-.15Z" style="fill:#a4a4a4;stroke:#000;stroke-miterlimit:10;stroke-width:0.5009637421816474px"/><path d="M17.5,50.91h0Z" style="fill:#a4a4a4;stroke:#000;stroke-miterlimit:10;stroke-width:0.5009637421816474px"/><path d="M83.89,51.81l0,.27-.1,0,.14-.24Z" style="fill:#a4a4a4;stroke:#000;stroke-miterlimit:10;stroke-width:0.5009637421816474px"/><path d="M31.82,94.37c-1.81,0-4.88.68-6.52-.22-2.36-1.29-.66-3.86-2.58-4.82-1.27-.64-6-.36-7.26.47-2.61,1.75-.46,4-3.85,4.67-1.27.24-10.56.81-11.42-.22-1-1.22,2.51-9.08,3-10.66q1.6-5.36,3.18-10.73C7.49,69,8.05,63.9,10,60.35c1.62-2.89,4.93-1.86,8.36-1.86,1.7,0,8.74-.93,9.63.45.44.68-.89,1.61-.05,2.44.57.57,3.26.07,4.05.15,1.47.14,3.2,1.12,4.6,1s2.72-.82,4.45-.86c16.84-.47,34-.27,50.72.45,2.36.1,4.52-.44,6.85-.56,1.87-.1,5,.79,6.69.19,2.29-.8,1.47-3,4.64-3.37,1.82-.24,9.8-.66,10.72.61s-1.9,8.22-2.45,9.72c1.89-6.51,7.81-8.36,14.76-7,1.74.35,3.86,1.49,3.5-.62-.2-1.18-4-3.73-5-4.64l-6.12-5.73c.69-12.51,12.4-1.41,16.95,3.09,3-7.24,11.7,3.5,14.93,5.61a39.71,39.71,0,0,0,5,2.84c.91.42,4.63,1.26,5.18,2.07,1.06,1.54-2.1,5.92-3.31,7.54-.89,1.19-1.63,1.45-1.67,2.62-.05,1.41,1,3,.91,4.5a10.87,10.87,0,0,1-6.58,9.3,15,15,0,0,1-10.39.67c-2.17-.61-2.4-.79-4.72-.31-2.16.45-4,.62-6.19.87-4.4.49-.87,1.42-3,4-1.36,1.64-8,.87-10.06.8-1.25,0-2.51.28-3.23-.86s.79-2.45.3-3.27c-1-1.79-6.56-.95-8.78-1-2.63,0-4,.08-4.77,2.49-.58,1.91.65,1.7-1,2.58-1.13.6-5,0-6.37,0-.9,0-4.52.46-5.33-.14-1.05-.78-.34-1.35-.56-2.35-.39-1.76.58-1.7-1.37-2.59-1.55-.7-5.88.21-7.55.24-11,.22-22,0-32.93-.12l-8.2-.06c-.12,0-3.73-.29-4.1,0-1.12.78-.48.29-.81,1.63s.81,2-.58,3.11C36,95,33.21,94.33,31.82,94.37Zm99-26.74c-.51-.78.38-1.6-.23-2.26a13,13,0,0,0-3.44-.47c-3.53.18-3.92,2-5.41,4.87-1.17,2.23-6.19,16.41-10.75,12-.94-.9,1.85-7.71,2.23-9,.68-2.39,3.4-7.56,2.85-9.74-.3-1.17-3.27-2.15-5-1.28-2.17,1.1-3.07,8.07-3.69,10.24-1,3.66-2.18,7.31-3.09,11-1.1,4.47,1.39,3.14,5.81,3.13,3.77,0,6.87.78,9.41-1.41.89-.76,2.93-3.41,4.49-1,.9,1.42-2,5.44-.87,6.77.52.6,4.62,1.09,5.6.28,1.8-1.47,1.1-7.94,1.26-10.14C130.33,76.33,130.53,72,130.84,67.63ZM26.29,76.18c.21,2.58.67,5.15.76,7.74.06,1.68-.55,4.17.45,5.69a3.74,3.74,0,0,0,3,1.62c2.59.33,3.05-.19,3.28-2,.5-4.17-3.29-9.86-.79-13.6,1.91-2.85,6.56-5.91,2.45-9.54-2-1.81-8.41-1.83-10.77-.59-3.3,1.74-3.87,10-4.92,13.31-.83,2.57-3.54,6.76.55,7.5C25.15,87.13,25.44,79.13,26.29,76.18ZM70,86c4.84,1.66,5.75-10.46,6.64-13.22.81-2.55,4-8-1.17-7.83-3.31.1-3.29,2.67-4,5.18-.19.69-1.57,5.48-3.41,2.89-.62-.87,1.73-4.83,1.71-6,0-1.74.27-2.25-2.6-2.08-5.09.31-5.4,9.71-6.6,13.6-.75,2.45-4,8.91,1.89,7.68,3.12-.65,2.86-3.76,3.69-6.29.27-.82,1.63-4.6,3.29-2.31C70.63,79.28,63.56,87.58,70,86Zm71.54-21.15c-7.36-.73-7.21,8.57-8.63,13.16-1.61,5.21-3.19,9.29,4.5,8.33C147.76,85,155.88,64.78,141.52,64.83ZM99.59,90.9c4.3,1.19,3.28-4.18,3.37-6.56.18-5,.35-10.06.72-15.07.1-1.31.74-3.15-.24-4-.46-.41-4.13-.6-4.78-.4-3.51,1.06-5.86,8.54-7.32,11.4-1.1,2.15-2.18,4.31-3.27,6.46-1,1.94-2.06,2.57-.23,3.43,3.43,1.62,4.08-2,5.89-2.9C100.07,80.22,93.1,92.5,99.59,90.9ZM17.73,61.82c-4.62-1.47-5.35,3.12-6.18,6.15-1.43,5.22-3,10.41-4.56,15.59-.8,2.62-4.6,9.76,2,7.67,3.49-1.11,3.52-6.57,4.31-9.35.35-1.24.42-3.26,1.57-4.16s2.7-.18,3.66-1.39a2.74,2.74,0,0,0-.14-2.94c-1.12-1.07-2,1.06-2.22-1.41-.08-1,1.57-5.54,2.37-6,1.23-.76,2.81.3,4-.81C26.24,61.6,19.58,61.82,17.73,61.82Zm26.82,3.3c-5.42-1.63-5.6,4.26-6.49,7.58-.68,2.53-4.39,9.23-3,11.89,1,1.85,5.9,2.16,7.72,1.51,1.12-.4,3.18-1.83,2.18-3.39-.75-1.18-2,.13-3-.59-.61-.45-.55-1.72-.1-2.74,1-2.31,1.6-1.11,3.43-2.25.7-.44,2.25-2.08,1.62-3.18-.53-.93-1.64.09-2.26-.49a2.67,2.67,0,0,1-.45-2.84c1.11-2.4,2.27-.6,4.28-1.8.88-.52,2.09-2.5,1.18-3.47C49.1,64.71,45.39,65.11,44.55,65.11Zm13.52-.31c-3.12.1-6,1.33-7.56,3.9-2.55,4.21.72,5.89,1.74,9.57,1.34,4.81-3.57,2.61-5.72,4.77-2.59,2.6.45,3.36,3,3.41a9.47,9.47,0,0,0,7.76-3.62c2.48-3.29,1.13-5.68-.47-8.88-.7-1.41-2.06-2.52-.83-4.14,1.4-1.86,2.6-.2,4.14-.82C64.29,67.32,61.33,64.89,58.07,64.8Zm29.32,0c-3.36,0-6.54,1.38-8.06,4.22-1.76,3.28,0,5.49,1.44,8.45C81.51,79,82.31,81.05,80,82c-1.16.49-2.43-.53-3.56,0-2.49,1.13-1.9,3.39-.07,4.19,7.6,3.33,12.9-5.61,10.19-11.05-.79-1.6-2.92-3.33-1.58-5.25,1.13-1.62,2.51-.41,3.88-.91C92.55,67.66,91.21,64.79,87.39,64.82Zm71.28,0a8.42,8.42,0,0,0-7.84,5.29c-1.48,4.21,3.25,6.2,2.76,9.69s-4.61,1.13-6.24,3.57c-1.86,2.78,1,3.09,3.72,3.05,3.65-.05,7.19-2.16,8.4-5.42,1.44-3.9-2.08-5.54-2.78-8.87-.85-4,3.66-2.38,5.44-3.81C165.49,65.64,161,64.83,158.67,64.81Z" style="fill:#4a4a4a"/><path d="M118.32,68.49c.72-2.67,3.86-8.64,1.17-10.05-1.33-.7-6.69-.05-8.42,0s-2.75-.13-3.9,1.1c-1.61,1.72.13,1.89-2.8,2.22-2.77.31-5.66-.14-8.48.16-4.78.51-9.94-1.47-14.57-.16-1.88-2.56-6.92-10.65-1.64-12.42,1.53-.51,3.65.91,4.49-.53,1-1.77-.68-5.74.15-8,4.62-12.33,22.61,10.56,25.54,8.48,2-1.43.58-3.77,4.1-4.12,2.66-.26,5.59,1.67,7.65,3a54.72,54.72,0,0,1,7.89,6.44c1.27,1.19,7.07,5.21,7.2,6.71.16,1.9-6.28.18-8.22.19-5.27,0-9.06,2-10.18,7Z" style="fill:#acacac"/><path d="M31.82,94.37c1.93-.05,4.94.83,6.1-1.1,1.69-2.8-2.49-3.8,2.75-3.94,8.17-.23,16.42.13,24.59.18,4.1,0,8.2.05,12.3.06,3.89,0,8.76-.86,12.56-.29,3.34.5,2,.71,2.55,3.16.64,2.86,2.94,1.89,6,1.94C82.66,112.32,47.71,112.32,31.82,94.37Zm21.76,3.36c.94,1.09,2.33.83,3.4.14,2-1.28.81-1.76.88-3.43.05-1.22-1-.74-.38-2,0,.1,2.28-.27,1.94-1-.73-1.67-3.88.15-4.29,1.07-1,2.19,2.08,3.83-1.59,5.25-2-1.55-.34-2.54.28-3.84-.42.87-.19-1.66-.25-1.43.1-.38,1.61-.19,1.52-1-.13-1.06-2.92-.51-3.44-.06-1.17,1-1.49,5.45-1.65,6.8C51.21,98.18,52.53,98.74,53.58,97.73Zm23.64-5.89c-.27,1.11-3,8.59.55,6,.58-.44,1.81-4.81,1.68-5.51s-1-2.89-2.26-.44c.32-1.48-1.35-.78-2-.29s-.47,1.85-1.06,2.58h-.54c.19-1,1.13-2.83-.24-3.21-2.18-.61-1.64,2.94-1.69,3.89-.07,1.28-.88,3.44,1,3.41S76.48,93.16,77.21,91.84Zm-14.75,6c-3.08-3.72.21-3.76,1.67-6.57-3.05-1.24-5.47,2-5.35,4.58.17,3.73,4.05,2.34,6.91,1.85,2.37-.41,2,1.66,2.41-1.92.07-.57.74-4,.29-4.45C65.91,88.66,63,96.77,62.46,97.84Zm17.91.62c4.31-.54,6.53-8.68,1.45-7.38-2.34.6-2.19,2.23-2.59,4C78.64,97.86,78.39,97.28,80.38,98.46ZM46.93,95c.13,1.56.48,5.12,2.47,2.37,0,0,0-2.61,0-2.9.33-1.34,2.35-2,.2-3.44-3.46-2.29-5.41,3.72-5.27,5.68,0,.44-.92,2.47,1.08,1.59C46.46,97.86,46.66,95.88,46.93,95Zm41.42-4c-1.57-.38-4.89,7-4.64,7.11,1.1.69,2.08-.69,3.14-.66s.67,1.3,2,.59C89.84,97.53,90.6,90.55,88.35,91ZM43.9,91.1c-2.59-.7-4.2,4.31-3.69,6,.22.74-.73.61.24,1.15,1.47.82,1.3-.76,1.73-1.2a10.61,10.61,0,0,0,1.44-2c.23-.72-.25-1.77-.07-2.17.29-.67,1.8-.41,1.59-1.12C44.76,90.53,44.76,91.57,43.9,91.1Z" style="fill:#5c5c5c"/><path d="M124.29,46.44l-.7.91-1.19-1s1.72-1.17,1.92-.74Q124.28,46,124.29,46.44Z" style="fill:#b1b1b1"/><path d="M138.87,91.19l-4.11,1.19C135.39,89.88,137.63,92,138.87,91.19Z" style="fill:#b1b1b1"/><path d="M108.29,46.57l-.5-.79,1.45-.26-.25.78-.33.29Q108.86,46.46,108.29,46.57Z" style="fill:#fbfbfb"/><path d="M125.66,44.17l-.25,0C125.47,44,125.57,43.85,125.66,44.17Z" style="fill:#fbfbfb"/><path d="M8.46,58.92l.11-.52q.46.13-.06.55Z" style="fill:#fbfbfb"/><path d="M15.92,92.95l-.06.53q-.4-.08.08-.51Z" style="fill:#b1b1b1"/><path d="M154.72,91c-.29.32-.58.39-.89,0Z" style="fill:#b1b1b1"/><path d="M75.7,50.53l.1-.35.11.08-.23.25Z" style="fill:#b1b1b1"/><path d="M106.82,45.44l.11.07-.14,0Z" style="fill:#fbfbfb"/><path d="M106.79,45.47l-.11-.07.14,0Z" style="fill:#fbfbfb"/><path d="M108.29,46.57h0Z" style="fill:#b1b1b1"/><path d="M108.66,46.59l.33-.29Z" style="fill:#b1b1b1"/><path d="M130.84,67.63c-.3,4.34-.51,8.69-.82,13-.14,1.88.4,8.78-1.26,10.14-.76.62-5.05.62-5.59,0-1.09-1.21,1.43-5.24.81-6.63-1.31-2.91-3.22-.4-4.43.52-1.53,1.17-.24.8-2.34,1.45-1.6.49-4.29-.05-6.06-.05-3.52,0-7.46,1.51-7.08-2.21s2.27-8.14,3.35-11.92c.69-2.4,1.22-8.6,3.29-10,1.3-.9,5-.35,5.47.69.68,1.46-2.44,8.4-2.93,10.13-.43,1.51-3.28,7.83-2.55,8.82,4,5.48,10.1-10,11.08-11.82,1.38-2.63,2-4.79,5.41-4.87a13.25,13.25,0,0,1,3.17.36C131.34,66.08,130.18,66.62,130.84,67.63ZM125.66,71c-.63,1.41-4.44,7.66-3.09,8.61C125.16,81.45,125.51,72.08,125.66,71Z" style="fill:#acacac"/><path d="M26.29,76.18c-.88,3-1.14,10.08-5.43,10.09-4.5,0-2.18-4.22-1.36-6.68,1-3.15,1.79-12.05,4.64-13.89,2.29-1.47,9.2-1.54,11.32.34,3.65,3.23.09,6.47-2,9.09-2.66,3.36-.18,9.23.2,13.21.22,2.25.43,3-2.57,2.88a4.07,4.07,0,0,1-3.37-1.27c-1.18-1.41-.63-3.6-.66-5.23C27,81.86,26.53,79,26.29,76.18Zm4.46-6c.08-4.81-5.43,2.57-3.81,4.14C28.81,76.17,30.59,70.81,30.75,70.21Z" style="fill:#fbfbfb"/><path d="M70,86c-6.39,1.59.66-6.69-.54-8.35-1.78-2.45-3.1,1.73-3.29,2.31-.73,2.18-.66,5.26-3.06,6.22-6.38,2.56-3.15-5.55-2.51-7.62.9-2.93,1.6-5.9,2.48-8.83s.86-4.52,4.12-4.77c6.78-.51-.63,5.56.89,8.06s3-1.43,3.19-2.13c.81-2.46.53-5.25,3.57-5.87,5.95-1.22,2.58,5.34,1.8,7.77C75.73,75.5,74.81,87.64,70,86Z" style="fill:#fbfbfb"/><path d="M141.52,64.83c14.36,0,6.24,20.2-4.13,21.49-7.06.88-6.36-2.39-4.76-7.52C134.1,74.1,134,64.07,141.52,64.83Zm1.74,6.33c-.36-4.52-2.21-1.35-2.86,1-.35,1.28-3.34,9.67-2.47,10C141.15,83.29,142.91,73,143.26,71.16Z" style="fill:#acacac"/><path d="M99.59,90.9c-6.66,1.64.67-10.13-5.55-7.78-2.37.89-1.94,4-5.71,3-2.16-.54-1.69-.49-.67-2.63,1.16-2.45,2.45-4.85,3.68-7.27C92.79,73.37,95,66.37,98.16,65a8.56,8.56,0,0,1,4.69.2c1.52.91,1,1.24.87,3.14-.42,5-.53,10.06-.72,15.07C102.9,85.81,104.14,92.17,99.59,90.9Zm-.92-20c-1.25,2.83-2.79,5.68-3.55,8.65C99.19,79.83,98.27,73.81,98.66,70.87Z" style="fill:#acacac"/><path d="M17.73,61.82c1.9,0,7.91-.66,5,3-1.19,1.52-2.6.12-3.91.86s-2.1,4.05-2.41,5.49c-.77,3.61.45.72,1.56,2.19.41.53,1.33,1.17.56,2.54-.92,1.64-2,.56-3.45,1.57s-1.45,2.93-1.86,4.38c-.74,2.61-.81,8-3.85,9.24-6.47,2.74-3.49-4-2.7-6.65,1.59-5.18,3.18-10.36,4.59-15.58C12.14,65.79,12.76,60.23,17.73,61.82Z" style="fill:#fbfbfb"/><path d="M44.55,65.11c.54,0,4.61-.37,5,0,.86.77.2,2.88-.58,3.54-1.58,1.33-3.4-.38-4.64,1.63-.42.67-.38,2.8.08,3.15.64.49,2-.42,2.55.32s-.74,2.95-1.25,3.3c-2,1.35-2.71-.2-3.81,2.35-.45,1-.55,2.26.1,2.74,1,.76,2.15-.6,3,.59s-.62,2.88-1.52,3.32c-1.5.74-7.32.47-8.33-1.21-1.47-2.46,2.07-9,2.72-11.32C38.79,70.12,38.81,63.39,44.55,65.11Z" style="fill:#fbfbfb"/><path d="M58.07,64.8c2.75.08,6.48,2.09,2.46,4.22-1.49.79-3-1.18-4.51.79-1,1.34-.21,2.33.39,3.53,1.62,3.19,3.54,5.47,1.28,9a9.48,9.48,0,0,1-8.13,4.11c-2.79-.06-4.83-.41-3.24-2.92,1.8-2.84,6.3-.16,6.12-4.57-.07-1.63-2.06-3.08-2.58-4.65a6.31,6.31,0,0,1,.31-4.89C51.55,66.41,54.61,64.91,58.07,64.8Z" style="fill:#fbfbfb"/><path d="M87.39,64.82c3.81,0,5.16,2.84,1.5,4.16-1.7.61-2.48-1.09-3.88.91s.79,3.65,1.58,5.25C89.32,80.61,84,89.51,76.41,86.19c-1.94-.85-2.31-2.94.07-4.19,1.1-.58,2.35.53,3.56,0,2.28-1,1.48-3,.74-4.52-1.49-3-3.22-5.09-1.44-8.45C80.84,66.2,84,64.81,87.39,64.82Z" style="fill:#acacac"/><path d="M158.67,64.81c2.32,0,6.74.89,3.47,3.5-1.83,1.46-6.33-.42-5.44,3.81.73,3.46,4.27,4.84,2.78,8.87-1.2,3.25-4.76,5.37-8.4,5.42-2.64,0-5.51-.3-3.72-3.05,1.61-2.47,5.75-.06,6.24-3.57s-4.16-5.54-2.76-9.69C151.9,66.95,155.16,64.92,158.67,64.81Z" style="fill:#acacac"/><path d="M118.31,68.48l-.07.24.08-.23Z" style="fill:#acacac"/><path d="M62.46,97.84c.55-1.06,3.44-9.18,5.93-6.51.45.48-.22,3.88-.29,4.45-.43,3.58,0,1.51-2.41,1.92-2.86.5-6.74,1.88-6.91-1.85-.12-2.61,2.3-5.82,5.35-4.58C62.67,94.08,59.39,94.12,62.46,97.84Zm4-3.68L66.05,94l-.63,1.89C66.15,96.1,66.31,94.7,66.51,94.16Z" style="fill:#fbfbfb"/><path d="M80.38,98.46c-.94-.56-1.23.13-1.74-.74.06.11.6-2.59.61-2.61.4-1.81.21-3.42,2.59-4C86.91,89.78,84.7,97.92,80.38,98.46Zm2.13-7.27-1.63,5.6C82.35,95.51,82.93,94,82.51,91.19Z" style="fill:#fbfbfb"/><path d="M46.93,95c-.27.87-.47,2.85-1.49,3.29-2,.87-1-1.15-1.08-1.59-.14-2,1.81-8,5.27-5.68,2.15,1.42.13,2.1-.2,3.44-.07.29,0,2.88,0,2.9C47.41,100.13,47.06,96.57,46.93,95Zm0-.48c.79-.45,2.27-1.72.9-2.36Z" style="fill:#fbfbfb"/><path d="M88.35,91c2.25-.44,1.49,6.54.54,7-1.36.71-.94-.56-2-.59s-2,1.34-3.14.66C83.46,97.94,86.79,90.61,88.35,91Zm-.67,3.29-.47-.08-.54,1.75Q88,96.35,87.68,94.28Zm0-.85q-.15,0-.12.15l.17,0Z" style="fill:#fbfbfb"/><path d="M77.21,91.84c-.7,1.27-3,7.57-5.14,6.43-1.19-.63-.53-3.69-.35-4.81.12-.76.64-4.35,2.43-2,.24.31-.57,3.46-.57,4.09.34-.87.66-2.59,1.21-3.26.42-.52,2.83-2.39,2.4-.4Z" style="fill:#fbfbfb"/><path d="M53.57,97.73c-1,1-2.36.45-3.57.5.16-1.37.45-5.87,1.65-6.8.67-.52,3.21-1.07,3.44.06.12.6-1.47.83-1.52,1s0,2,.25,1.43c-.59,1.25-2.14,2.36-.28,3.84Z" style="fill:#fbfbfb"/><path d="M53.54,97.76c3.66-1.42.52-3.1,1.59-5.25.45-.9,4.12-2.77,4.29-1.07.09.93-1.87.84-1.94,1-.35,1,.43,1.06.38,2-.07,1.3.77,1.67-.37,3-1,1.09-2.82,1.61-3.91.34Z" style="fill:#fbfbfb"/><path d="M43.9,91.1c.52.28.85-.43,1.36.26.71,1-1.39.79-1.62,1.33-.63,1.45.27,2.67-1.46,4.37-1.11,1.09-1.32,1.93-2.09.26C39.41,95.83,41.6,90.48,43.9,91.1Z" style="fill:#fbfbfb"/><path d="M77.18,91.87c.92-1.78,2.09-.73,2.39.17.19.56-1.52,5.56-1.81,5.78-3.55,2.61-.79-4.95-.55-6Z" style="fill:#fbfbfb"/><path d="M74.11,94.16l-.54,1.36c0-.78,0-1.07,0-1.35Z" style="fill:#b1b1b1"/><path d="M125.66,71c-.14,1-.52,10.43-3.09,8.61C121.2,78.65,125,72.48,125.66,71Z" style="fill:#4a4a4a"/><path d="M30.75,70.21c-.18.68-1.92,6-3.81,4.14C25.33,72.79,30.83,65.43,30.75,70.21Z" style="fill:#4a4a4a"/><path d="M143.26,71.16c-.32,1.68-2.14,12.12-5.33,11-.82-.29,2.21-9,2.47-10C141,69.82,142.9,66.71,143.26,71.16Z" style="fill:#4a4a4a"/><path d="M98.66,70.87c-.4,2.94.53,9-3.55,8.65C95.87,76.54,97.41,73.7,98.66,70.87Z" style="fill:#4a4a4a"/><path d="M66.51,94.16c-.19.54-.35,1.95-1.09,1.77L66.05,94Z" style="fill:#5c5c5c"/><path d="M82.51,91.19c.42,2.83-.15,4.32-1.63,5.6Z" style="fill:#5c5c5c"/><path d="M47,94.53l.9-2.36C49.24,92.81,47.76,94.08,47,94.53Z" style="fill:#5c5c5c"/><path d="M87.68,94.28q.31,2.06-1,1.66l.54-1.75Z" style="fill:#5c5c5c"/><path d="M87.7,93.43l0,.12-.17,0Q87.55,93.43,87.7,93.43Z" style="fill:#b1b1b1"/></g></g></svg>