<svg xmlns="http://www.w3.org/2000/svg" width="508.66" height="327.01" viewBox="0 0 508.66 327.01"><title>Fresh</title><g id="Layer_2" data-name="Layer 2"><g id="Layer_1-2" data-name="Layer 1"><path d="M104.21,108.94a40.64,40.64,0,0,1-6.45,18.67c3,.93,5.68,1.75,8.37,2.63,23.26,7.66,32.76,30,19,46.18-6.17,7.23-14.93,12.84-25.49,16.34A32.83,32.83,0,0,1,89.15,194a76.19,76.19,0,0,1-13.89-1.35c-16.69-3.45-25.93-12.44-30.85-24.55-.75-1.84-2.56-3.43-3.88-5.14L36,160.41l1.5-1,6.55-1.25,4.14.06a24.61,24.61,0,0,1,13.71,5.44A88,88,0,0,1,70.09,172a19.27,19.27,0,0,0,19.19,5.71c4.17-1,7.91-3.09,11.76-4.79,10.49-4.63,15.54-19.08,5.54-27.75-6.57-5.7-15-7.86-25.33-7.66,3.06,8,5.41,15.87,13.25,22.45-3.64.88-6.87,1.89-10.23,2.41-6.9,1.07-11.34-.79-14-5.74a34.85,34.85,0,0,1-2.76-6.46c-3.61-12-7.33-23.95-14.68-34.86,2.71-2.52,6.14-3.56,10-4,2.77-.34,4.94.09,6.9,1.82,3.8,3.33,5.6,7.23,6.85,11.41.8,2.67,1.95,5.28,2.94,7.91l.84,0a65.84,65.84,0,0,0,4.15-7.39c2.21-5.43,3.94-10.91,1.69-16.67-2.07-5.29-6-9.17-13.38-10.09-8.32-1-16.25.09-21.56,5.48-6.07,6.16-6.82,13.07-2.6,20.15,1.17,2,2.59,3.83,4.09,6-5,.58-9.17-.78-13.44-1.53l-5.85-2.14-1.06-.74-3.93-5.28c-1.41-5.35-.19-10.46,2.41-15.45a37.51,37.51,0,0,0,2-3.29c2.83-6.08,8.39-10.63,14.81-14.49,9-5.43,19.57-6.13,30.34-4,7.51,1.47,14.84,3.48,19.78,8.62,3.81,4,6,8.3,6.21,13.21C104,106.23,104.13,107.58,104.21,108.94ZM74.94,154.39a10.37,10.37,0,0,1,0-2.95c.66-1.9-.38-2.94-2.17-3.52.23,1.53.39,3.09.75,4.62C73.69,153.09,74.31,153.58,74.94,154.39Z" style="fill:#f8f8f8;stroke:#000;stroke-miterlimit:10;stroke-width:2.2788019723951702px"/><path d="M192.66,26.24,190,9.81l-1.92-2.47L185.8,6c2.83-1.57,5.12-3.33,7.89-4.26,5.1-1.72,9.77.2,11.53,4.2,2.79,6.35,2.57,13,2.94,19.49.23,4,0,8,.12,12,.07,2-.86,3.38-3.07,4.53C202,43.65,199,45.55,196,47.34q-.28,0-.28.2L195,48l-.5.47.92-.11h.21l.08-.14.93-.26c6.8-2.53,13.49-5.13,18.12-10,3.31-3.45,4-7.12,2.37-11.13a23.7,23.7,0,0,0-1.85-4.05c-1.05-1.6-.32-2.29,1.66-2.84,6.14-1.71,13.7-.31,17.52,3.72,2.74,2.9,1.65,6.18.34,9.33-.26.62-.55,1.24-.83,1.86l-.53.42L231,38l-1.19,1.36h0c-6.48,6.17-16.32,8.08-25.07,11.38-3.86,1.46-7.68,3-11.52,4.47l.54,1,13.57-3.5c-.59,3.48-.67,6.66-1.74,9.63a78.25,78.25,0,0,1-5.68,11.89c-1.76,3.1-5.63,5.1-9.59,5.72a16.15,16.15,0,0,1-12.05-3c-6.21-4.75-6.7-12.38-1.32-17.81,4.37-4.4,9.2-8.13,16-9.95V42c-1,.53-1.75.86-2.44,1.23-1.39.74-2.71,1.56-4.15,2.23-8.64,4-13.16,3.24-18.78-3.1-1.54-1.75-1.54-1.75-4.85-1.54.45-1.69-1.23-3.84,2.33-4.68.25-.06.45-.49.49-.77,1-6.67,3.08-13.36.19-20-.71-1.63-2.37-3-3.6-4.54L162.27,9l4.18-2,10-1,2.43.82.55.94L181,10l.92,6.27-.21.92-.43,3.61-.25.93-.14,3.17,0,1.82-.1.91.1.91.12.9.29,3.66.85,2.7.35.93c1.23,2.35,2.51,2.86,5.94,2.36s4.51-1.3,4.49-3.77c0-.45-.09-.89-.14-1.34v-.45l.18-.91c0-.06.09-.12.08-.17a1.67,1.67,0,0,0-.16-.3l-.13-1.36Zm.87,29.2c-4.63,2.47-8.49,5-10.58,8.77-.88,1.59-1.46,3.2.12,4.7s3.94,2.15,7.38,2.25l-3.52-1.92c1.78-3.75,3.37-7.11,5-10.46C192.35,57.79,192.85,56.82,193.52,55.44Z" style="fill:#f8f8f8;stroke:#000;stroke-miterlimit:10;stroke-width:2.2788019723951702px"/><path d="M245.37,141.53l-12.74.42c-3.75-1.47-7.87-2.58-11.15-4.51-2.68-1.58-4.38-4.12-6.52-6.24-1.27-5.09-2.57-10.18-3.78-15.28-.62-2.59-1-5.22-1.66-7.81-.41-1.56-1.16-3.21-3.72-3.34a3.81,3.81,0,0,0-3.88,3.93,33.3,33.3,0,0,0,1.28,5.18c1.34,5.54,2.49,11.11,6.64,16.18l-3.36,1-6.59.13-4.13-1.05c-3.42-3-2.59-6.85-3.51-10.36-1.52-5.77-3-11.54-4.74-17.27-.45-1.47-1.88-2.77-2.87-4.15,7.33-2.94,12.26-4.51,16.08,4.11A20.06,20.06,0,0,1,213,97.18c4.1-.33,8.09,1,9.2,3.86a71.76,71.76,0,0,1,4.44,14.67,58.29,58.29,0,0,0,2.25,9.4c2.33,7,11.34,10.28,20.3,7.55l-2-.81c.14-.24.17-.41.29-.48,1.36-.73,2.84-1.35,4.07-2.18,3.66-2.46,7.16-5,10.82-7.5a33.1,33.1,0,0,1,16.1-5.86c3.7-.24,8.23,1.4,11.38,3.2a8.8,8.8,0,0,1,4.6,8.86,17.17,17.17,0,0,1-1.08,3.19c-1.1-.49-1.8-.73-2.39-1.09-3.8-2.29-8-2.36-12.52-1.57a11.74,11.74,0,0,1-2.91-.24l-.28-.95c-3.9,2-8,3.71-11.64,5.94C258,136.59,252.36,139.89,245.37,141.53Z" style="fill:#f8f8f8;stroke:#000;stroke-miterlimit:10;stroke-width:2.2788019723951702px"/><path d="M146.83,9.51l4.35,3.39c4.23,5.41,8.28,10.89,9.3,17.28,1.19,7.46.19,14.64-5.22,21.17-3,3.6-7.42,5.34-12.9,5.66-.47,0-1-.49-2-1l-3.07.57,1-1.17c-5.9,0-8.62-1.2-7-3.26l-4.87.58,1.67-1.51-3.16.12-.43-.43,1.84-.49-5.13-1.75,3.13-1.29-.26-.53-4.35.85.81-1.42h-2.87l4.21-1.92-.26-.61-4.45.8,1.24-1.3-2.46-.28L119.27,41l-.16-.34-4.51.74L116.72,38l-2.87.25-.29-.41,4-1.66-1.52-1.51-3.28.43-.2-.31,4-2-.22-.39-3.59.54-.17-.25,3.14-1.47h-3.2l-.13-.32,4.26-1.6-.19-.52-4.09.53-.21-.27c.64-.28,1.26-.59,1.92-.84s1.42-.48,2.88-1L112.72,27l0,0a.47.47,0,0,0,.24-.34l1.92-1.12L113,25.41c.38-1.21.71-2.42,1.14-3.62.28-.76.7-1.49,1.25-2.6,0-.18-.69-1.11-.32-1.6,1.36-1.83,3.07-3.51,4.6-5.27.1-.12-.22-.45-.35-.68l-.3-.84,6.61-3.61C130.26,5.59,135,4.39,140.09,6Zm2.33,20.9-3.41-.34,3-1.74h-3.9l2.88-1.22-2.5-.58,3-1.6h-4.55L146,23.48l-2.61-.62,1.51-1.41-2.53-.34,1.87-1.55-2.53-.15.52-1.22-.62-.61c-1.37.7-3.78,1.31-3.92,2.13-.68,4-.66,8.06,3.39,11.26,1.6,1.26,2.27,2.56,1.9,4.26a32.88,32.88,0,0,0-.56,3.83c-.15,1.46-1.16,1.73-2.58,1a38.23,38.23,0,0,1-6.1-3.57c-2.33-1.85-4.25-4-6.86-6.52a32.32,32.32,0,0,0,.82,5.31C129,39,130,43,135.3,44.79a13.28,13.28,0,0,0,5.71.77,8.27,8.27,0,0,0,4.53-2.28c1.08-1.16,1.24-2.81,1.78-4.19l-1.87-.24,3.18-1.33-3-.51,2.41-1-1.82-.71,3.15-1.2-.11-.34h-3.56l2.63-1.43-2.69-.49,3.49-1.52-.11,0ZM121,46.32l.52-.18c-.08-.09-.16-.26-.25-.26a1.68,1.68,0,0,0-.5.14Zm7.82,4.61-.1.11h.17Z" style="fill:#f8f8f8;stroke:#000;stroke-miterlimit:10;stroke-width:1.5192013149301176px"/><path d="M186.55,144.88l4.66,2.39a17.15,17.15,0,0,1,7.22,6.8c1.81,3.11,4.06,6.11,5.48,9.32,1.85,4.2.92,8.51-.38,12.74-2.12,6.91-6.89,12.86-11.77,18.77-1.47,1.78-3.51,2.62-6.56,1.77a5.85,5.85,0,0,1,.54-1.47c5-7.05,7.26-14.76,6.56-22.55-.72-8.15-4.91-15.68-13.86-20.89-9.53-5.55-27.25-3-31.29,9-2,5.91-1.82,11.52,2.63,16.81.15.17.13.43.18.64-4,1.59-9.15,1-12.14-1.14-5-3.66-5.81-8.09-4.28-13,1.6-5.1,3.67-10.08,7.78-14.4,5.14-5.39,12-8.6,20.86-8.84,4-.11,8,.39,11.93.62l1.79.16,7.68,1.87,1.2.56,1.32.63A.76.76,0,0,0,186.55,144.88ZM201.68,170l-.78-.13-2.1,6.44.82.15Z" style="fill:#a4a4a4;stroke:#000;stroke-miterlimit:10;stroke-width:1.5192013149301176px"/><path d="M93.66,52.6c-4,0-7.75,0-11.49,0a13.62,13.62,0,0,0-2,.33c-2.28.37-2.78,1.18-1.85,2.93,2.67,5,5.07,10.16,7.58,15.28-5.47,3.31-14.13,2.31-17.37-1.68A44.9,44.9,0,0,1,62.56,59.2c-5.8-13.1-11.32-26.27-17.09-39.38-.44-1-2-1.75-3-2.65,4.06-4.09,16.94-4.22,20.63,2.78,3.24,6.15,5.7,12.55,8.31,18.89,1.36,3.3,1.18,3.36,5.79,3.22,3.69-.11,7.38-.23,11.06-.38,1.69-.07,2.5.46,2.82,1.75C91.79,46.37,92.7,49.29,93.66,52.6ZM58,24.54l-1.63.23,2.24,5.12,1.06-.2Z" style="fill:#f8f8f8;stroke:#000;stroke-miterlimit:10;stroke-width:2.2788019723951702px"/><path d="M99.52,50.94l-1.91.27-.42-.45,2.38-1.15-3.12-.31,2.76-1.72.42-.17-.26-.11-.09.31L97,47.49l3.84-2.2-.35-.44-4.52,1.32.73-1.61-1.55-.37,2.42-1.54-1.61-1,2.27-1.5-5.53-1,3.68-1.88.89-.31-.09-.26-1.23.15-3.69.8L94.1,36l.89-.56-.27-.28-1,.47c-.15-.21-.46-.59-.41-.62A9.35,9.35,0,0,0,96.07,33l-4,1-.27-.36L94,32.32l1-.46-.2-.31-1.29.3-1.92.32-.26-.37L95,30.06l-.17-.38L92.25,30,92,29.83l.44-.56.93-.57-.2-.27-1.29.41-2.7.59,1.13-1.68c-1.66-.13-3.49.07-4.75-.47-1-.42-1.21-1.78-1.83-2.84H80.53l2.55-1.19-.13-.4-2.82.2,5.24-6.73-1.84-.67,4-2-2.71-.2c.28-1,1.12-2.11.72-2.87-1-2,.78-2.63,2.31-2.83,2-.26,4.79-.45,6.06.38,2.22,1.44,3.61,3.64,5.22,5.58a15.34,15.34,0,0,1,2.62,3.86c1.73,4.41,3.1,8.91,4.84,13.32,3.94,10,8,19.91,12.07,29.85a24.77,24.77,0,0,0,2,3.21,63.88,63.88,0,0,1-7.47,1.47A52,52,0,0,1,106,65l2.86-1.6-3.93.56-1.38-2,1.28-1.1h-2.88l2.45-1.64-.19-.35-3.58.69.79-1.3-1.66-.51,1.49-1.42-1.67-.24V54.27l-.76-.14,1.13-1,.58-.35h-1l-1.9.09L100,51.39l.89-.35-.1-.25Zm5.69,7.79c-.07-.05-.15-.15-.2-.14a2.2,2.2,0,0,0-.4.14c.07.05.15.15.2.14A1.84,1.84,0,0,0,105.21,58.73Zm-3.29-2.87-.18.1c.05,0,.1.12.15.12s.12-.06.18-.1Z" style="fill:#f8f8f8;stroke:#000;stroke-miterlimit:10;stroke-width:0.7596006574650579px"/><path d="M147.57,81c-1-1.11-2.33-2.14-2.94-3.36a5,5,0,0,1-.23-3.52,38.79,38.79,0,0,1,2.4-5.19l-1-.34c-1,1.39-2.28,2.71-2.87,4.2-1.6,4-2.79,8.18-4.35,12.24-2.22,5.75-4.82,11.34-10.8,15.66-4.41,3.18-11.75,4-16.69,1.41a8.18,8.18,0,0,1-3-3c-4.09-6.79-6.25-13.78-1.39-20.84a15.78,15.78,0,0,1,12.48-7.31c5.71-.44,8.86,2.23,7.68,6.52a21.08,21.08,0,0,1-6.5,9.83c-.95.87-2,2.75-1.51,3.24a11.82,11.82,0,0,0,5.37,2.83c2.58.55,7.32-1.81,8.08-3.83C134,85,135.41,80.33,137,75.75c2-5.91,3.38-12.17,11.07-15.74a23.61,23.61,0,0,1,6.09-1.48c1.59-.25,1.85.55,1.81,1.69-.12,3,0,6,0,9a3,3,0,0,1-.34,1.74c-2.23,3.11-4.55,6.18-6.85,9.26Zm-27.84-4.4c-3.54,1.41-5.51,7.75-3.57,10.87C119.69,85.31,120.89,81.77,119.74,76.59Z" style="fill:#a4a4a4;stroke:#000;stroke-miterlimit:10;stroke-width:1.5192013149301176px"/><path d="M153.41,122.21a33.38,33.38,0,0,0,7.46,15.59c-6.43,2.73-10.23,2.53-15.79-1-1.49.8-3.17,1.58-4.66,2.52-7.78,4.9-16,2.66-17.86-4.87-1.17-4.66-2.46-9.3-3.69-13.94-.51-1.91-2-3-4.53-3.43.1-2.17,3.29-4.42,6.95-4.89s7.25,1.08,8.43,3.83c.73,1.7,1.18,3.47,1.75,5.21,1,3.53,1.89,7.08,3.11,10.56a5.26,5.26,0,0,0,2.59,2.89,8.8,8.8,0,0,0,4.72.36c.88-.17,2.09-1.57,1.92-2.24-.89-3.44-2.17-6.83-3.31-10.23-1.83-4.76-3.31-9.61-6.87-14a20.14,20.14,0,0,1,10.19-2.08c2.21.18,3.77.84,4.42,2.52C150,113.41,151.68,117.81,153.41,122.21Z" style="fill:#f8f8f8;stroke:#000;stroke-miterlimit:10;stroke-width:2.2788019723951702px"/><path d="M262.66,168.49l2.42,7.46a19,19,0,0,1-10.94-.69,5,5,0,0,0-4.77,0c-9.36,4.37-19.8,1.38-23.31-6.48-2.48-5.56-2.1-11.15,1.88-16,3.8-4.6,13.5-7.5,19.89-1.45-5.82,1.26-10.23,3.66-10.7,8.53-.4,4.13-.83,8.35,3.93,12h-4.6c2.28,2.08,5.1,1.69,7.72,1.69a5.49,5.49,0,0,0,5.11-2.65,5.86,5.86,0,0,0,.74-2c1-5.88.28-11.73-.7-17.55-.32-1.9-1.56-3.71-2.54-5.91l5.31-1.36,1.14-.14,3.57.43a6.19,6.19,0,0,1,4.27,5,.44.44,0,0,0,0,.43C260.85,156.08,260.49,162.35,262.66,168.49Zm-8.24-11.39h0l-.61-.95-.59,0,.26,4.41,1.27.17,1.91-4.69C254.73,155.81,256.93,158.23,254.41,157.1Z" style="fill:#a4a4a4;stroke:#000;stroke-miterlimit:10;stroke-width:1.5192013149301176px"/><path d="M176.42,136.27c-5.22,1.61-9.56-.49-13.55-2.36-1.88-.88-2.75-3.19-3.71-5-1.2-2.22-2-4.55-3-6.84-.62-5.41,2-10.26,4.83-15,2.17-3.62,12.34-6.62,17.26-5.29,2.61.7,4.71,2.75,4.16,5.23a29.26,29.26,0,0,1-3.5,8.28c-1,1.68-2.87,3.07-4.47,4.51-2.5,2.25-1.66,4.53,2.1,5.48s7.53.08,9.62-2.57a55.76,55.76,0,0,0,3.62-6c.39,3.89,2.73,7.4-.95,10.7l-5.54,5.56-1.51,1.06-3.22,1.56Zm-2-28.51c-4.42,1.77-5.13,6.5-2.78,10.64C175.16,115.18,175.21,111.6,174.39,107.77Z" style="fill:#f8f8f8;stroke:#000;stroke-miterlimit:10;stroke-width:2.2788019723951702px"/><path d="M276.53,73.73l1.22,3,.68.53c1.38,1.06,1.16,2.07,0,3.18a9.32,9.32,0,0,1-8.3,1.88c-3-.81-4.09-2.73-4.18-4.9-.15-3.83,0-7.67-.07-11.51a15.47,15.47,0,0,0-.82-3.3l-.45-.89h0l-.54-1.53-.45-.68-.82-.88L261.68,58l-1.9,0-1.81.81-1.52,2a.3.3,0,0,0,0,.38l.29,1.81.2,2.29,1,5.42a65.44,65.44,0,0,0,1.2,7c.29,1.06,1.43,2,2.19,3l-.67,1.72h-.19l-.15.08a1,1,0,0,0-.54.12L255,82.65l-1.15-.15c-3.5-.85-5-2.92-5.27-5.47-.56-4.8-.74-9.63-1.44-14.41a88.88,88.88,0,0,0-2.46-9.48c3.63-2.4,8.28-1.32,12,3.44,1.45-.94,2.88-1.85,4.29-2.78,4.22-2.8,9.33-2.37,12.66,1.08l1.16,5,.16,1.37.45,1,.09,7.19.56,2.71.18.94Z" style="fill:#a4a4a4;stroke:#000;stroke-miterlimit:10;stroke-width:1.5192013149301176px"/><path d="M231.1,67.48l-.23-1.74a.32.32,0,0,0-.06-.37,80.3,80.3,0,0,0-2.3-8.82c-.65-1.74-.37-2.43,2-2.87,6.09-1.14,9.33.54,9.94,5.27.8,6.24,1.6,12.48,2.56,18.71.18,1.15,1.16,2.23,1.76,3.35.94,1.75.3,2.55-2.12,2.17a54.35,54.35,0,0,1-8.23-2c-1.78-.57-3.08-.88-4.86.1a34.92,34.92,0,0,1-6.94,2.86c-2.47.72-5.08.5-6.69-1.35-2.11-2.41-3.89-5-3.39-8,.33-2,.63-4.06,1-6.08.51-3.14.35-6.14-2.16-8.9-.41-.45.09-1.8.75-2.3,1.93-1.48,4.29-2.77,7.19-1.72,2.74,1,4.67,2.72,4.59,5.17s-.72,4.66-.81,7a63.28,63.28,0,0,0,.21,8.33c.16,1.78,2.44,3,4.68,2.76,2.91-.27,4.28-1.51,4-3.6-.15-1-.33-1.95-.49-2.92l2.23-3.38.65.28L234,65.77Zm5.39.06-.85,0,1,7.84h2.75V68.16h-.71v4.39C235.47,71.49,236.65,69.34,236.49,67.54Zm-18.37,1.29c-.25-1.25,2-3.05-1.51-3.88l-.69,3.14,1.95-.64Z" style="fill:#a4a4a4;stroke:#000;stroke-miterlimit:10;stroke-width:1.5192013149301176px"/><path d="M161.43,63.81c6.39,3.58,9.12,6.45,3.74,12.09-2.5,2.63-5.21,5.14-7.86,7.69-3.37,3.24-5.55,6.83-5.35,11,.12,2.53,2.91,3.63,6.28,2.4l-2.2-.84c.22-2.77.3-5.31.7-7.81a4.8,4.8,0,0,1,1.69-2.67c1.72-1.43,3.71-2.67,6-4.3,1,1.67,2.39,3.4,3,5.28,1.29,4.11,1.2,8.26-1.42,12.12-2.43,3.58-11.92,5.54-16.42,3.42-3-1.42-3.74-3.9-4.06-6.29-.89-6.64,1.61-12.63,7.14-17.75C157.21,74,160.59,69.53,161.43,63.81Z" style="fill:#a4a4a4;stroke:#000;stroke-miterlimit:10;stroke-width:1.5192013149301176px"/><path d="M256.2,106.2a4.5,4.5,0,0,0-2,4.53c.16,1.27-.3,2.58-.13,3.85.46,3.44-2.25,4.71-6,5.64a14.53,14.53,0,0,0-4.88,2.29c-3.15,2.3-6.24,1.94-8-1.1-2-3.42-1.64-6.81.35-10.12a5.46,5.46,0,0,1,5.9-2.68,4.2,4.2,0,0,0,1.88-.37c3.35-1.3,4.58-.73,4.38,2.15a31.3,31.3,0,0,0-.49,4.06,20.47,20.47,0,0,0,1.05,4l1-.06a8.86,8.86,0,0,0,.34-1.59c.06-2,0-3.94.09-5.91.11-3.85,1.61-7.1,7.4-8.72-6.46-2.36-5.14-6.59-5.22-10.41a3.19,3.19,0,0,1,1.28-2.47c1.44-1,3.23-2.29,4.93-2.34,2.47-.07,2.8,2,3.34,3.51,1.52,4.36-.26,8.14-3.44,11.69l0,1.36-.06.07-4.24,1.77.12.58,2.29.32Zm2.47-17.46-1.14.22c-2,2.52-2.57,5.41-1.34,7.52.28.48,1,.82,1.53,1.22.49-.43,1.26-.82,1.4-1.31a11.17,11.17,0,0,0,.58-3.81A19.46,19.46,0,0,0,258.67,88.74Zm-16.15,23.16c-2.25,1.6-2.93,6.93-1.32,8.35a2.08,2.08,0,0,0,1.49.41c.61-.26,1.49-.84,1.43-1.21C243.73,117,243.11,114.54,242.52,111.89Z" style="fill:#a4a4a4;stroke:#000;stroke-miterlimit:10;stroke-width:1.5192013149301176px"/><path d="M262.83,106.23c.8-2.16.86-4.86,4.9-5,1.55-.05,3.15.74,5.38,1.31l4.71-3.87c2.08,3,4.1,5.65,5.77,8.42a3.34,3.34,0,0,1-1.39,4.88,10.44,10.44,0,0,1-5.56,1.25c-1.17-.11-2.08-1.76-3.11-2.73l.66-.54,3.66.4-1.22-4.77c-2.83.38-4.07,1.19-4.4,3-.65,3.54-1.56,4.1-6.24,4.94-1,.18-1.76,1-2.75,1.24-1.52.35-3.41.91-4.64.51-1-.32-1.49-1.92-1.7-3-.25-1.33.12-2.71,0-4.07a7.22,7.22,0,0,0-.75-2l0,0,2.6-2.2a.38.38,0,0,0,.35,0,5.25,5.25,0,0,0,.55.12l1.58.77q.31,4.46.61,8.91l1.55,0a7.52,7.52,0,0,0,.39-2.27C263.63,109.77,263.19,108,262.83,106.23Zm4.74.47,0-.13.09.1.74,3.83C270.57,107.39,270.43,107.07,267.57,106.69Z" style="fill:#a4a4a4;stroke:#000;stroke-miterlimit:10;stroke-width:1.5192013149301176px"/><path d="M65.83,74.3c-4-1.38-8.18-2.48-11.87-4.21a31.37,31.37,0,0,1-11-8.63c-1.13-1.38-2.75-2.89-.45-4.42,2-1.36,5-.85,7,1a3.63,3.63,0,0,1,1,1.39c2.1,6.7,8.29,10.77,15.7,14.06Z" style="fill:#a4a4a4;stroke:#000;stroke-miterlimit:10;stroke-width:1.5192013149301176px"/><path d="M283.9,166c2.47-.53,4.9-1.19,7.41-1.54a4,4,0,0,1,2.9.85c1,1.28,2.35,3,1.9,4.14-.65,1.68-3.29,1.45-5.44,1.21a59.58,59.58,0,0,0-9.66-.78c-2,.11-4,1.34-6,2.21a39.12,39.12,0,0,0-3.79,2.23v-2.24l-.06,0c.47,0,1.09,0,1.39-.16,2.51-1.67,5-3.39,7.42-5.1Z" style="fill:#f8f8f8;stroke:#000;stroke-miterlimit:10;stroke-width:0.7596006574650579px"/><path d="M214.27,142.11c-2,1.75-3.89,3.59-6.06,5.22a20.45,20.45,0,0,1-4,1.79,15.6,15.6,0,0,1-1.4-3.68,10.43,10.43,0,0,1,.69-3.33l.87-1.26,2.28-3,0,0a.35.35,0,0,0,.37-.12,5.84,5.84,0,0,1,5.25-.53C216.13,138.29,216.69,139.66,214.27,142.11Z" style="fill:#a4a4a4;stroke:#000;stroke-miterlimit:10;stroke-width:1.5192013149301176px"/><path d="M65.61,78.64a32.54,32.54,0,0,0-5.43.67c-3.18.94-6.23,2.15-9.28,3.33-1.32.51-2.39,1.59-3.74,1.8s-2.9-.35-4.36-.57c.27-.95.13-2.2.89-2.8,4-3.18,9.39-3.73,14.84-3.72a62.78,62.78,0,0,1,7.12.8Z" style="fill:#a4a4a4;stroke:#000;stroke-miterlimit:10;stroke-width:1.5192013149301176px"/><path d="M237.6,35.33a25.12,25.12,0,0,1,2.1-4.09,3.61,3.61,0,0,1,2.59-1c.64.05,1.68,1,1.63,1.56a38.75,38.75,0,0,1-1.14,5.24,24.06,24.06,0,0,1-13.29,8.3A21,21,0,0,0,237.6,35.33Z" style="fill:#f8f8f8"/><path d="M240.8,95c2-2.22,3.72-4.29,5.61-6.29a2.67,2.67,0,0,1,1.78-.5,1.3,1.3,0,0,1,.87,1c-.59,4.72-1.27,9.43-2,14.14,0,.28-.37.53-1,1.36a14.13,14.13,0,0,1-1.33-2.78,20,20,0,0,1-.11-3.17C244.64,96.1,244.64,96.1,240.8,95Z" style="fill:#a4a4a4;stroke:#000;stroke-miterlimit:10;stroke-width:1.5192013149301176px"/><path d="M54.1,74.82c-8.11,0-14.69-1.44-19.74-6-1.33-1.2-.85-2.27.11-3,.64-.46,2.28-.23,3.44-.12.48,0,.91.55,1.34.86a62.4,62.4,0,0,0,6.6,4.86C48.14,72.76,50.93,73.56,54.1,74.82Z" style="fill:#a4a4a4;stroke:#000;stroke-miterlimit:10;stroke-width:1.5192013149301176px"/><path d="M271.26,172.07l-1.67.16.82-1.83.61-.92.93-1.67-.26-7.67-.08-.65,0-1c.53-1.4-.74-3.47,2.49-3.86,2.88,1.82,2.4,4.41,2.36,6.75,0,1.92-.95,3.82-1.47,5.73l-3.77,5Z" style="fill:#f8f8f8;stroke:#000;stroke-miterlimit:10;stroke-width:0.7596006574650579px"/><path d="M52.5,153.9l-6-1.37c-1.77-.05-3.54-.06-5.31-.17-2.43-.15-4.86-.37-7.28-.56-1.42-1.72-1.08-2.82,1.49-2.94a28.7,28.7,0,0,1,9.31.72c2.89.88,5.2,2.85,7.77,4.34Z" style="fill:#a4a4a4;stroke:#000;stroke-miterlimit:10;stroke-width:1.5192013149301176px"/><path d="M236.25,44.83a31.48,31.48,0,0,1,18.38-1.89c.84.17,1.42,1.1,2.11,1.67-.84.43-1.66,1.19-2.51,1.22-1.86,0-3.74-.35-5.62-.45C244.44,45.15,240.25,45,236.25,44.83Z" style="fill:#f8f8f8"/><path d="M92.25,30l-.88.16.6-.37Z" style="fill:#f8f8f8"/><path d="M112.72,27l.18.1-.13-.06Z" style="fill:#f8f8f8"/><path d="M147.24,189.31c-.91,3.39-2.17,6.23-2.35,9.12-.47,7.83,7.36,13.55,17.61,14.49,16,1.48,28.56-3.84,40.69-10.58q15.68-8.72,31.57-17.21c7.73-4.11,16.8-5.54,25.87-5.16s18.32,2.45,23.29,9.16c1.95,2.63,2.14,6,2.88,9.14a30,30,0,0,1,.37,5.15l-1.3.46c-1.21-1.1-2.56-2.13-3.62-3.31C278,195.86,271.67,194,264.7,193a38.34,38.34,0,0,0-26.38,5.61C222.68,208.24,207,217.74,189.08,225c-7.86,3.19-15.68,6.2-24.24,8.11-12.79,2.86-24.8,1.65-36.11-3.7-8.45-4-10.92-12.54-8.64-19.12,3.37-9.69,11.11-16.77,23.81-20.33C144.94,189.67,146.05,189.54,147.24,189.31Z" style="fill:#f8f8f8;stroke:#000;stroke-miterlimit:10;stroke-width:1.5192013149301176px"/><path d="M187,199.39c-4,1.57-7.92,3.4-12.13,4.62-3.89,1.13-11.35-1.61-13.6-4.77-3.2-4.49-5.42-9.29-5.63-14.44-.18-4.53.11-9.07.07-13.6,0-2-.36-4.06-.52-6.09s-1.49-3.71-4.26-4.6c1.93-2.61,4.83-4,8.51-4.59,4.64-.69,8.12.68,9.06,4.16,1.4,5.15,2.27,10.4,3.22,15.62,1.05,5.83,1.84,11.69,2.91,17.52.75,4.08,5.92,6.42,11.94,5.61Zm-20.86-11.07-1.85-5.39-.73.14-2.1,3.54.68,1,.4-.53Zm-4.48-3.84,0-.37h-1.31l0,.28Z" style="fill:#a4a4a4;stroke:#000;stroke-miterlimit:10;stroke-width:1.5192013149301176px"/><path d="M203.19,152.35c1.32-.4,2.62-.77,3.89-1.18,4.86-1.58,9.54-.06,10.69,3.88,2,6.93,3.54,14,5.47,20.9a77.86,77.86,0,0,0,3.16,7.93c-6.15,2.88-15-.35-15.7-6.28-.84-6.91-2-13.78-5.09-20.38C204.9,155.65,204.08,154.12,203.19,152.35Z" style="fill:#a4a4a4;stroke:#000;stroke-miterlimit:10;stroke-width:1.5192013149301176px"/><path d="M128.56,190.72c-1.82,1.43-4,2.69-5.36,4.34a51.56,51.56,0,0,0-4.88,7.68c-1,1.75-3,3-4.67,2.26-2.14-.95-1.88-2.31-.85-3.89,3.36-5.16,7.89-9.21,15.78-10.37Z" style="fill:#a4a4a4;stroke:#000;stroke-miterlimit:10;stroke-width:1.5192013149301176px"/><path d="M127.59,188.19c-.36.21-.69.55-1.08.6-4.9.61-8.25,3.14-11.9,5.35-1.76,1.06-4.09,3-6.06,1.08-1.68-1.67,1.07-3.13,2.82-4,4.78-2.49,10.38-3,15.93-3.55Z" style="fill:#a4a4a4;stroke:#000;stroke-miterlimit:10;stroke-width:1.5192013149301176px"/><path d="M277.26,175.25c4.65-1.7,9.15-1.18,13.57.13,1.75.52,3.33,1.37,5,2,2.13.81,2.72,2,1.67,3.88C290.72,179.28,285.32,174.68,277.26,175.25Z" style="fill:#f8f8f8;stroke:#000;stroke-miterlimit:10;stroke-width:0.7596006574650579px"/><path d="M128.58,190.73h0Z" style="fill:#a4a4a4;stroke:#000;stroke-miterlimit:10;stroke-width:1.5192013149301176px"/><path d="M74.94,154.39c-.63-.82-1.25-1.3-1.38-1.85-.36-1.53-.51-3.09-.75-4.62,1.79.58,2.83,1.62,2.17,3.52A10.37,10.37,0,0,0,74.94,154.39Z" style="fill:#a4a4a4;stroke:#000;stroke-miterlimit:10;stroke-width:1.5192013149301176px"/><path d="M49.46,148.48a15.35,15.35,0,0,1-9.18-8.9c-.24-.58.73-2,1.37-2.1.92-.13,2.64.42,3,1,.74,1.33.58,2.94,1.25,4.31a63,63,0,0,0,3.56,5.69Z" style="fill:#a4a4a4;stroke:#000;stroke-miterlimit:10;stroke-width:1.5192013149301176px"/><path d="M49.43,148.5l.39.1-.35-.12Z" style="fill:#a4a4a4;stroke:#000;stroke-miterlimit:10;stroke-width:1.5192013149301176px"/><path d="M52.46,153.93l.6.45h0l-.59-.46Z" style="fill:#a4a4a4;stroke:#000;stroke-miterlimit:10;stroke-width:1.5192013149301176px"/><path d="M53.07,154.38h0Z" style="fill:#a4a4a4;stroke:#000;stroke-miterlimit:10;stroke-width:1.5192013149301176px"/><path d="M254.41,157.1l-.11.81-.3-.07.42-.74Z" style="fill:#a4a4a4;stroke:#000;stroke-miterlimit:10;stroke-width:1.5192013149301176px"/><path d="M96.49,286.17c-5.49-.12-14.81,2.05-19.77-.65-7.17-3.91-2-11.71-7.83-14.62-3.86-1.93-18.26-1.1-22,1.43-7.9,5.31-1.4,12.18-11.67,14.17-3.84.74-32,2.47-34.64-.66-3.11-3.71,7.61-27.54,9-32.33q4.84-16.26,9.65-32.53c3.45-11.65,5.16-27.2,11.18-38,4.9-8.76,14.94-5.64,25.36-5.63,5.17,0,26.52-2.84,29.21,1.35,1.33,2.08-2.71,4.88-.16,7.41,1.72,1.71,9.9.22,12.29.44,4.46.42,9.71,3.39,13.94,3.09,4.47-.32,8.24-2.48,13.49-2.62,51.06-1.42,103.16-.83,153.81,1.37,7.16.31,13.71-1.33,20.78-1.71,5.66-.3,15.11,2.38,20.28.57,7-2.43,4.45-9,14.06-10.23,5.51-.73,29.72-2,32.5,1.85s-5.76,24.93-7.43,29.48c5.74-19.73,23.68-25.34,44.75-21.08,5.28,1.07,11.72,4.53,10.63-1.87-.61-3.58-12.08-11.3-15-14.06q-9.27-8.7-18.57-17.38c2.09-37.93,37.61-4.29,51.39,9.38,9.14-22,35.49,10.6,45.29,17A120.41,120.41,0,0,0,492.31,189c2.77,1.29,14,3.84,15.7,6.28,3.21,4.68-6.35,17.94-10,22.85-2.7,3.62-4.95,4.39-5.08,7.94-.16,4.28,2.89,9,2.77,13.64-.31,12-8.37,22.82-19.95,28.21-9.9,4.6-21.05,5-31.51,2-6.57-1.83-7.27-2.4-14.31-.94-6.54,1.36-12.08,1.89-18.76,2.63-13.33,1.48-2.65,4.3-9.11,12.07-4.13,5-24.38,2.64-30.49,2.42-3.81-.13-7.6.84-9.8-2.6-2-3.18,2.38-7.42.91-9.93-3.18-5.42-19.9-2.87-26.62-3-8-.12-12.26.23-14.47,7.56-1.75,5.78,2,5.16-3.07,7.82-3.42,1.8-15.11.12-19.33.12-2.72,0-13.71,1.39-16.17-.43-3.19-2.36-1-4.11-1.69-7.13-1.19-5.34,1.77-5.16-4.16-7.84-4.71-2.13-17.82.62-22.88.73-33.26.68-66.61-.11-99.87-.36l-24.86-.19c-.36,0-11.32-.87-12.43-.1-3.39,2.36-1.46.87-2.44,4.94-.91,3.79,2.45,6.16-1.77,9.45C109.24,288.07,100.72,286.06,96.49,286.17ZM396.77,205.1c-1.54-2.35,1.15-4.86-.69-6.86-.74-.81-9.15-1.49-10.44-1.42-10.69.56-11.9,6.21-16.39,14.77-3.54,6.75-18.77,49.77-32.6,36.52-2.86-2.74,5.6-23.38,6.75-27.44,2.06-7.26,10.31-22.92,8.63-29.53-.91-3.56-9.92-6.53-15.11-3.89-6.57,3.33-9.31,24.47-11.19,31.06-3.16,11.09-6.62,22.18-9.37,33.37-3.34,13.56,4.2,9.53,17.61,9.49,11.42,0,20.82,2.37,28.55-4.26,2.69-2.31,8.89-10.34,13.6-2.91,2.74,4.31-6.14,16.48-2.64,20.53,1.56,1.81,14,3.29,17,.85,5.45-4.47,3.33-24.08,3.81-30.74C395.23,231.46,395.85,218.27,396.77,205.1ZM79.73,231c.65,7.83,2,15.61,2.29,23.47.17,5.1-1.68,12.65,1.35,17.25,2.2,3.34,5.09,4.4,9.18,4.92,7.87,1,9.26-.56,9.93-6.19,1.5-12.63-10-29.9-2.39-41.25,5.79-8.66,19.88-17.91,7.42-28.94-6.21-5.5-25.52-5.56-32.65-1.79-10,5.29-11.73,30.39-14.92,40.36-2.5,7.8-10.74,20.49,1.68,22.73C76.26,264.23,77.15,240,79.73,231ZM212.2,260.74c14.67,5,17.45-31.71,20.13-40.08,2.47-7.73,12.22-24.25-3.54-23.76-10,.31-10,8.1-12.08,15.7-.59,2.11-4.77,16.61-10.35,8.77-1.88-2.63,5.24-14.63,5.2-18.14-.06-5.26.82-6.83-7.89-6.3-15.43.93-16.39,29.43-20,41.24-2.27,7.43-12.09,27,5.73,23.3,9.46-2,8.69-11.4,11.18-19.06.81-2.5,4.93-13.94,10-7C214.19,240.43,192.73,265.58,212.2,260.74Zm217-64.15c-22.31-2.23-21.87,26-26.18,39.91-4.89,15.79-9.66,28.18,13.66,25.26C448.08,257.83,472.71,196.44,429.17,196.59ZM302,275.67c13,3.62,9.95-12.67,10.21-19.89.56-15.22,1.06-30.52,2.18-45.71.29-4,2.23-9.57-.74-12.22-1.4-1.26-12.51-1.82-14.49-1.22-10.65,3.22-17.77,25.9-22.19,34.57-3.33,6.52-6.6,13.07-9.92,19.6-3,5.87-6.23,7.79-.7,10.4,10.42,4.92,12.37-6.2,17.86-8.8C303.48,243.27,282.34,280.52,302,275.67ZM53.76,187.46C39.75,183,37.53,196.92,35,206.1c-4.33,15.83-9,31.56-13.83,47.27-2.43,7.94-13.95,29.59,5.93,23.26,10.57-3.37,10.67-19.92,13.07-28.36,1.07-3.77,1.29-9.88,4.76-12.6s8.2-.55,11.11-4.22c2-2.49,1-7.55-.42-8.92-3.39-3.24-6.11,3.22-6.73-4.26-.24-2.9,4.75-16.79,7.19-18.3,3.73-2.31,8.52.91,12.09-2.44C79.59,186.81,59.39,187.46,53.76,187.46Zm81.33,10c-16.44-4.94-17,12.91-19.68,23-2,7.68-13.32,28-9.13,36.06,2.9,5.6,17.88,6.55,23.42,4.58,3.39-1.21,9.64-5.56,6.62-10.29-2.27-3.57-6.06.39-9-1.78-1.84-1.36-1.67-5.22-.3-8.31,3.11-7,4.86-3.35,10.4-6.84,2.11-1.33,6.82-6.3,4.91-9.64-1.61-2.82-5,.27-6.86-1.5a8.09,8.09,0,0,1-1.36-8.61c3.38-7.28,6.9-1.83,13-5.45,2.66-1.58,6.35-7.57,3.59-10.52C148.89,196.23,137.65,197.46,135.1,197.46Zm41-.95c-9.48.3-18.2,4-22.92,11.83-7.74,12.76,2.18,17.87,5.29,29,4.07,14.57-10.81,7.92-17.34,14.48-7.86,7.9,1.37,10.18,9.17,10.36a28.73,28.73,0,0,0,23.53-11c7.52-10,3.44-17.22-1.42-26.93-2.13-4.26-6.24-7.63-2.53-12.56,4.26-5.65,7.88-.6,12.55-2.49C195,204.16,186,196.79,176.11,196.51Zm88.91.07c-10.19,0-19.83,4.19-24.45,12.8-5.35,10,0,16.64,4.37,25.62,2.25,4.57,4.68,10.79-2.23,13.72-3.53,1.49-7.37-1.61-10.79-.06-7.56,3.43-5.75,10.28-.21,12.71,23,10.11,39.12-17,30.9-33.52-2.41-4.84-8.85-10.11-4.8-15.91,3.43-4.91,7.62-1.25,11.76-2.75C280.66,205.17,276.61,196.49,265,196.58Zm216.16,0c-10.75.34-20.43,6.53-23.77,16-4.48,12.77,9.87,18.81,8.38,29.38s-14,3.43-18.92,10.84c-5.63,8.42,3.13,9.37,11.28,9.25,11.05-.16,21.81-6.56,25.46-16.45,4.37-11.82-6.3-16.8-8.43-26.91-2.57-12.2,11.08-7.22,16.51-11.55C501.86,199.06,488.16,196.59,481.19,196.55Z" style="fill:#4a4a4a"/><path d="M358.82,207.7c2.19-8.09,11.69-26.2,3.55-30.48-4-2.12-20.29-.16-25.53-.06-5.07.09-8.33-.4-11.82,3.32-4.89,5.21.38,5.74-8.48,6.73-8.4.94-17.16-.43-25.72.48-14.5,1.54-30.16-4.47-44.18-.49-5.71-7.77-21-32.3-5-37.66,4.65-1.56,11.07,2.75,13.6-1.61,3.13-5.37-2.07-17.41.46-24.16,14-37.4,68.57,32,77.46,25.72,6.15-4.35,1.75-11.45,12.43-12.5,8.07-.8,16.95,5.07,23.19,9.08,9,5.74,16.32,12.39,23.93,19.52,3.85,3.6,21.44,15.8,21.83,20.35.5,5.75-19,.55-24.92.57-16,0-27.47,5.95-30.87,21.16Z" style="fill:#acacac"/><path d="M96.49,286.17c5.85-.16,15,2.52,18.5-3.32,5.11-8.5-7.56-11.51,8.33-12,24.79-.7,49.78.39,74.58.54,12.43.07,24.86.16,37.29.17,11.8,0,26.55-2.61,38.1-.89,10.14,1.51,6.07,2.16,7.75,9.58,2,8.67,8.92,5.74,18.12,5.87C250.67,340.62,144.67,340.62,96.49,286.17Zm66,10.19c2.85,3.31,7.07,2.53,10.31.42,6-3.88,2.47-5.34,2.68-10.41.16-3.69-3-2.25-1.16-5.94-.14.29,6.91-.82,5.89-3.16-2.22-5.07-11.75.44-13,3.25-2.95,6.63,6.3,11.61-4.81,15.93-5.92-4.7-1-7.71.84-11.64-1.27,2.64-.57-5-.76-4.32.31-1.15,4.9-.59,4.6-3.06-.39-3.22-8.84-1.54-10.42-.19-3.55,3-4.52,16.54-5,20.62C155.3,297.74,159.29,299.45,162.47,296.37Zm71.68-17.86c-.81,3.37-9,26.06,1.65,18.12,1.77-1.32,5.48-14.6,5.11-16.69-.43-2.42-3-8.77-6.85-1.33,1-4.48-4.09-2.36-6.08-.88-2.38,1.77-1.44,5.61-3.22,7.84l-1.64,0c.58-3,3.42-8.57-.73-9.74-6.6-1.86-5,8.91-5.13,11.79-.22,3.87-2.68,10.43,3.1,10.35S231.94,282.5,234.15,278.51Zm-44.72,18.2c-9.33-11.27.63-11.41,5.06-19.91-9.25-3.76-16.58,6-16.22,13.88.52,11.3,12.29,7.1,21,5.6,7.18-1.25,6,5,7.32-5.83.21-1.73,2.25-12,.88-13.49C199.87,268.87,191.1,293.47,189.43,296.7Zm54.33,1.88c13.08-1.63,19.8-26.33,4.4-22.37-7.11,1.83-6.64,6.75-7.84,12.22C238.49,296.76,237.72,295,243.75,298.59ZM142.32,288.13c.4,4.74,1.45,15.53,7.5,7.19,0-.07-.13-7.92.09-8.8,1-4.08,7.12-6.14.6-10.45-10.5-6.95-16.41,11.27-16,17.22.1,1.35-2.79,7.48,3.28,4.83C140.9,296.77,141.49,290.76,142.32,288.13Zm125.61-12.2c-4.75-1.14-14.82,21.09-14.07,21.56,3.33,2.08,6.32-2.08,9.53-2s2,3.94,6.17,1.79C272.46,295.77,274.74,274.59,267.93,275.93Zm-134.8.34c-7.85-2.11-12.73,13.08-11.2,18.24.66,2.23-2.23,1.84.73,3.5,4.45,2.49,3.93-2.29,5.26-3.64.85-.87,4-4.89,4.36-6.12.69-2.19-.75-5.37-.22-6.59.89-2,5.47-1.25,4.82-3.38C135.75,274.55,135.73,277.69,133.13,276.27Z" style="fill:#5c5c5c"/><path d="M376.91,140.84l-2.13,2.75-3.6-2.9c.07,0,5.22-3.54,5.82-2.24Q376.9,139.64,376.91,140.84Z" style="fill:#b1b1b1"/><path d="M421.14,276.55l-12.46,3.6C410.57,272.56,417.38,278.87,421.14,276.55Z" style="fill:#b1b1b1"/><path d="M328.4,141.23l-1.52-2.4,4.39-.78-.76,2.36-1,.89Q330.11,140.9,328.4,141.23Z" style="fill:#fbfbfb"/><path d="M381.08,134l-.75.12C380.49,133.33,380.81,133,381.08,134Z" style="fill:#fbfbfb"/><path d="M25.65,178.68,26,177.1q1.4.4-.2,1.67Z" style="fill:#fbfbfb"/><path d="M48.27,281.88l-.19,1.61q-1.2-.25.23-1.56Z" style="fill:#b1b1b1"/><path d="M469.21,275.84c-.87,1-1.77,1.19-2.69.05Z" style="fill:#b1b1b1"/><path d="M229.57,153.23l.3-1.06.32.23-.69.77Z" style="fill:#b1b1b1"/><path d="M323.93,137.81l.34.22-.42-.14Z" style="fill:#fbfbfb"/><path d="M323.84,137.89l-.32-.21.41.14Z" style="fill:#fbfbfb"/><path d="M328.4,141.23h0Z" style="fill:#b1b1b1"/><path d="M329.52,141.3l1-.89Z" style="fill:#b1b1b1"/><path d="M396.77,205.1c-.92,13.17-1.54,26.36-2.5,39.53-.42,5.72,1.22,26.62-3.81,30.74-2.3,1.88-15.33,1.87-17,.06-3.3-3.65,4.34-15.9,2.46-20.1-4-8.84-9.78-1.21-13.43,1.57-4.65,3.54-.71,2.43-7.11,4.41-4.85,1.5-13-.16-18.38-.16-10.68,0-22.61,4.59-21.47-6.7,1.18-11.72,6.89-24.69,10.16-36.14,2.08-7.28,3.69-26.07,10-30.45,3.93-2.74,15.12-1.05,16.58,2.09,2.06,4.42-7.4,25.47-8.89,30.72-1.3,4.57-9.94,23.73-7.74,26.76,12.09,16.62,30.63-30.21,33.59-35.84,4.19-8,6-14.51,16.39-14.77,1.07,0,8.72.35,9.62,1.08C398.28,200.4,394.77,202,396.77,205.1Zm-15.71,10.22c-1.91,4.28-13.46,23.24-9.38,26.12C379.55,247,380.61,218.59,381.06,215.32Z" style="fill:#acacac"/><path d="M79.73,231c-2.66,9.2-3.47,30.56-16.48,30.6-13.66,0-6.61-12.79-4.13-20.27,3.16-9.54,5.42-36.55,14.07-42.12,6.94-4.46,27.89-4.67,34.33,1,11.08,9.81.27,19.61-6,27.55-8.06,10.2-.54,28,.61,40.07.65,6.83,1.31,9-7.78,8.73-4.18-.12-7.56-.7-10.21-3.86-3.58-4.29-1.92-10.91-2-15.86C82,248.25,80.44,239.66,79.73,231Zm13.52-18.1c.25-14.58-16.48,7.78-11.55,12.56C87.36,231,92.77,214.72,93.25,212.93Z" style="fill:#fbfbfb"/><path d="M212.2,260.74c-19.39,4.83,2-20.3-1.65-25.32-5.39-7.44-9.39,5.26-10,7-2.21,6.61-2,15.94-9.29,18.86-19.35,7.75-9.55-16.83-7.62-23.1,2.73-8.87,4.84-17.9,7.52-26.78,2.61-8.67,2.6-13.71,12.48-14.45,20.57-1.55-1.9,16.87,2.69,24.44,4.39,7.22,9-4.35,9.68-6.46,2.45-7.47,1.61-15.91,10.82-17.81,18-3.71,7.84,16.2,5.47,23.55C229.66,229,226.85,265.77,212.2,260.74Z" style="fill:#fbfbfb"/><path d="M429.17,196.59c43.53-.14,18.92,61.24-12.52,65.17-21.42,2.68-19.29-7.24-14.43-22.81C406.65,224.72,406.3,194.31,429.17,196.59Zm5.27,19.21c-1.09-13.7-6.71-4.1-8.68,3.11-1.05,3.87-10.13,29.31-7.49,30.24C428,252.57,433.39,221.24,434.43,215.79Z" style="fill:#acacac"/><path d="M302,275.67c-20.19,5,2-30.73-16.83-23.6-7.18,2.71-5.87,12-17.32,9.15-6.55-1.65-5.12-1.5-2-8,3.53-7.42,7.43-14.72,11.17-22,4.43-8.69,11-29.92,20.71-34.1,2.68-1.16,11.73-.88,14.21.6,4.62,2.76,3.1,3.76,2.62,9.51-1.26,15.17-1.59,30.51-2.19,45.71C312,260.21,315.82,279.51,302,275.67Zm-2.8-60.75c-3.79,8.58-8.46,17.22-10.78,26.24C300.8,242.09,298,223.82,299.2,214.92Z" style="fill:#acacac"/><path d="M53.76,187.46c5.75,0,24-2,15.24,9.13-3.62,4.61-7.88.37-11.86,2.62-4.37,2.46-6.37,12.29-7.3,16.66-2.33,11,1.35,2.19,4.74,6.64,1.24,1.62,4,3.54,1.7,7.72-2.79,5-6.12,1.7-10.46,4.76s-4.38,8.89-5.64,13.29c-2.25,7.92-2.46,24.13-11.67,28C8.9,284.6,17.92,264,20.34,256.15c4.82-15.71,9.63-31.42,13.92-47.25C36.81,199.51,38.7,182.66,53.76,187.46Z" style="fill:#fbfbfb"/><path d="M135.1,197.46c1.62,0,14-1.12,15.16-.06,2.61,2.33.6,8.74-1.77,10.74-4.79,4-10.31-1.15-14.08,5-1.27,2-1.16,8.48.24,9.56,1.93,1.49,6.08-1.27,7.74,1,1.51,2-2.25,8.94-3.79,10-5.93,4.08-8.23-.61-11.56,7.11-1.35,3.14-1.65,6.86.3,8.31,3.14,2.32,6.53-1.82,9,1.78,2.16,3.17-1.89,8.74-4.62,10.08-4.55,2.24-22.2,1.42-25.25-3.68-4.45-7.45,6.27-27.38,8.25-34.33C117.63,212.64,117.69,192.22,135.1,197.46Z" style="fill:#fbfbfb"/><path d="M176.11,196.51c8.34.24,19.66,6.35,7.45,12.8-4.51,2.39-9.16-3.59-13.68,2.41-3.05,4.05-.65,7.06,1.19,10.7,4.9,9.69,10.75,16.6,3.88,27.31-5.06,7.89-14.75,12.69-24.66,12.46-8.47-.19-14.65-1.25-9.82-8.87,5.46-8.62,19.11-.48,18.55-13.87-.2-5-6.26-9.33-7.84-14.11a19.14,19.14,0,0,1,.94-14.83C156.34,201.4,165.61,196.84,176.11,196.51Z" style="fill:#fbfbfb"/><path d="M265,196.57c11.57-.07,15.65,8.62,4.54,12.62-5.16,1.86-7.53-3.3-11.76,2.75-4,5.8,2.39,11.07,4.8,15.91,8.27,16.61-7.95,43.59-30.9,33.52-5.88-2.58-7-8.92.21-12.71,3.33-1.75,7.13,1.61,10.79.06,6.91-2.93,4.48-9.15,2.23-13.72-4.51-9.18-9.76-15.44-4.37-25.62C245.14,200.76,254.88,196.54,265,196.57Z" style="fill:#acacac"/><path d="M481.19,196.55c7,0,20.43,2.7,10.53,10.6-5.56,4.44-19.21-1.27-16.51,11.55,2.21,10.49,12.94,14.69,8.43,26.91-3.64,9.86-14.44,16.29-25.46,16.45-8,.12-16.71-.92-11.28-9.25,4.88-7.48,17.42-.17,18.92-10.84,1.47-10.49-12.62-16.8-8.38-29.38C460.65,203,470.52,196.89,481.19,196.55Z" style="fill:#acacac"/><path d="M358.77,207.67l-.21.72.25-.69Z" style="fill:#acacac"/><path d="M189.43,296.7c1.67-3.23,10.44-27.83,18-19.75,1.37,1.47-.68,11.76-.88,13.49-1.29,10.86-.14,4.59-7.32,5.83-8.66,1.51-20.44,5.7-21-5.6-.36-7.93,7-17.64,16.22-13.88C190.06,285.29,180.09,285.43,189.43,296.7Zm12.26-11.17-1.38-.37-1.92,5.74C200.62,291.44,201.1,287.17,201.69,285.53Z" style="fill:#fbfbfb"/><path d="M243.75,298.59c-2.86-1.7-3.72.4-5.28-2.24.19.32,1.83-7.86,1.84-7.9,1.2-5.48.63-10.36,7.84-12.22C263.56,272.25,256.87,297,243.75,298.59Zm6.45-22-5,17C249.74,289.64,251.48,285.12,250.2,276.54Z" style="fill:#fbfbfb"/><path d="M142.32,288.13c-.83,2.63-1.42,8.64-4.51,10-6.07,2.65-3.18-3.49-3.28-4.83-.43-5.95,5.48-24.17,16-17.22,6.52,4.31.4,6.37-.6,10.45-.22.89,0,8.73-.09,8.8C143.77,303.66,142.72,292.87,142.32,288.13Zm.1-1.45c2.41-1.36,6.9-5.21,2.72-7.15Z" style="fill:#fbfbfb"/><path d="M267.93,275.93c6.81-1.34,4.53,19.84,1.63,21.35-4.13,2.16-2.84-1.7-6.17-1.79s-6.2,4.08-9.53,2C253.11,297,263.18,274.79,267.93,275.93Zm-2,10-1.43-.25L262.83,291Q266.82,292.18,265.88,285.92Zm.07-2.59q-.45,0-.37.47l.5-.12Z" style="fill:#fbfbfb"/><path d="M234.14,278.51c-2.12,3.85-9.14,22.95-15.6,19.5-3.6-1.92-1.62-11.18-1.06-14.6.38-2.31,1.93-13.2,7.37-6.13.73.95-1.74,10.5-1.74,12.41,1-2.62,2-7.85,3.68-9.89,1.28-1.57,8.58-7.25,7.27-1.2Z" style="fill:#fbfbfb"/><path d="M162.47,296.37c-3.17,3.08-7.16,1.37-10.84,1.51.5-4.16,1.38-17.81,5-20.62,2-1.58,9.74-3.23,10.42.19.37,1.82-4.45,2.53-4.6,3.06-.22.77,0,6,.76,4.32-1.79,3.8-6.5,7.14-.84,11.64Z" style="fill:#fbfbfb"/><path d="M162.38,296.47c11.1-4.32,1.58-9.41,4.81-15.93,1.35-2.73,12.51-8.41,13-3.25.27,2.81-5.67,2.56-5.89,3.16-1.06,2.88,1.3,3.23,1.16,5.94-.2,3.94,2.33,5.07-1.12,9-2.93,3.3-8.54,4.88-11.87,1Z" style="fill:#fbfbfb"/><path d="M133.13,276.27c1.57.86,2.59-1.31,4.12.8,2.17,3-4.2,2.41-4.91,4-1.91,4.41.83,8.1-4.42,13.25-3.37,3.31-4,5.85-6.32.79C119.52,290.62,126.16,274.4,133.13,276.27Z" style="fill:#fbfbfb"/><path d="M234.05,278.6c2.8-5.4,6.33-2.22,7.24.51.57,1.71-4.61,16.87-5.5,17.52-10.78,7.9-2.4-15-1.66-18.11Z" style="fill:#fbfbfb"/><path d="M224.75,285.56l-1.64,4.14c0-2.37,0-3.23,0-4.1Z" style="fill:#b1b1b1"/><path d="M381.06,215.32c-.42,3-1.59,31.63-9.38,26.12C367.54,238.5,379.06,219.8,381.06,215.32Z" style="fill:#4a4a4a"/><path d="M93.25,212.93c-.56,2.06-5.81,18.13-11.55,12.56C76.81,220.74,93.5,198.41,93.25,212.93Z" style="fill:#4a4a4a"/><path d="M434.43,215.79c-1,5.09-6.48,36.75-16.16,33.35-2.48-.87,6.71-27.35,7.49-30.24C427.68,211.72,433.36,202.29,434.43,215.79Z" style="fill:#4a4a4a"/><path d="M299.2,214.92c-1.2,8.9,1.6,27.17-10.78,26.24C290.74,232.13,295.41,223.5,299.2,214.92Z" style="fill:#4a4a4a"/><path d="M201.69,285.53c-.59,1.64-1.07,5.91-3.31,5.37l1.92-5.74Z" style="fill:#5c5c5c"/><path d="M250.2,276.54c1.28,8.58-.46,13.1-5,17Z" style="fill:#5c5c5c"/><path d="M142.43,286.68l2.72-7.15C149.33,281.46,144.84,285.32,142.43,286.68Z" style="fill:#5c5c5c"/><path d="M265.88,285.92q.94,6.26-3.05,5l1.62-5.29Z" style="fill:#5c5c5c"/><path d="M265.95,283.32l.14.35-.5.12Q265.5,283.34,265.95,283.32Z" style="fill:#b1b1b1"/></g></g></svg>