<svg xmlns="http://www.w3.org/2000/svg" width="207.62" height="133.48" viewBox="0 0 207.62 133.48"><title>Fresh</title><g id="Layer_2" data-name="Layer 2"><g id="Layer_1-2" data-name="Layer 1"><path d="M42.54,44.47a16.59,16.59,0,0,1-2.63,7.62c1.2.38,2.32.71,3.42,1.08C52.81,56.29,56.69,65.43,51.07,72a23,23,0,0,1-10.41,6.67,13.4,13.4,0,0,1-4.28.49,31.1,31.1,0,0,1-5.67-.55c-6.81-1.41-10.58-5.08-12.59-10a10.52,10.52,0,0,0-1.58-2.1l-1.84-1,.61-.4L18,64.57l1.69,0a10,10,0,0,1,5.6,2.22,35.93,35.93,0,0,1,3.33,3.41,7.87,7.87,0,0,0,7.83,2.33,28.26,28.26,0,0,0,4.8-2c4.28-1.89,6.34-7.79,2.26-11.33-2.68-2.32-6.11-3.21-10.34-3.13,1.25,3.28,2.21,6.48,5.41,9.16-1.49.36-2.8.77-4.18,1-2.81.44-4.63-.32-5.72-2.34a14.23,14.23,0,0,1-1.12-2.64c-1.47-4.89-3-9.77-6-14.23a7,7,0,0,1,4.08-1.65,3.32,3.32,0,0,1,2.82.74,9.37,9.37,0,0,1,2.79,4.66c.32,1.09.8,2.15,1.2,3.23h.34a26.87,26.87,0,0,0,1.7-3c.9-2.22,1.61-4.45.69-6.81a6.18,6.18,0,0,0-5.46-4.12c-3.4-.42-6.63,0-8.8,2.24-2.48,2.51-2.78,5.34-1.06,8.23.48.8,1.06,1.56,1.67,2.46A18,18,0,0,1,16,52.43l-2.39-.88-.43-.3-1.6-2.15a8.57,8.57,0,0,1,1-6.31,15.31,15.31,0,0,0,.8-1.34c1.16-2.48,3.43-4.34,6-5.92,3.68-2.22,8-2.5,12.39-1.64,3.06.6,6.06,1.42,8.07,3.52a8.2,8.2,0,0,1,2.53,5.39C42.46,43.36,42.51,43.91,42.54,44.47ZM30.59,63a4.23,4.23,0,0,1,0-1.2c.27-.78-.16-1.2-.89-1.44.09.62.16,1.26.3,1.89C30.08,62.49,30.33,62.69,30.59,63Z" style="fill:#f8f8f8;stroke:#000;stroke-miterlimit:10;stroke-width:0.930162012577057px"/><path d="M78.64,10.71,77.54,4l-.79-1-.92-.53A20.72,20.72,0,0,1,79.06.72a3.63,3.63,0,0,1,4.7,1.71c1.14,2.59,1,5.29,1.2,8,.09,1.63,0,3.26,0,4.89a1.89,1.89,0,0,1-1.25,1.85c-1.3.68-2.52,1.45-3.77,2.19q-.12,0-.12.08l-.29.17-.2.19.38,0h.08l0-.06.38-.11c2.78-1,5.5-2.09,7.4-4.07a3.91,3.91,0,0,0,1-4.54,9.67,9.67,0,0,0-.76-1.65c-.43-.65-.13-.93.68-1.16,2.5-.7,5.59-.13,7.15,1.52,1.12,1.18.67,2.52.14,3.81-.11.26-.23.51-.34.76l-.22.17-1,1.13-.48.55h0c-2.65,2.52-6.66,3.3-10.23,4.64-1.58.59-3.14,1.22-4.7,1.82l.22.41,5.54-1.43a22.86,22.86,0,0,1-.71,3.93,31.94,31.94,0,0,1-2.32,4.85,5.44,5.44,0,0,1-3.91,2.33,6.59,6.59,0,0,1-4.92-1.21,4.63,4.63,0,0,1-.54-7.27,14.11,14.11,0,0,1,6.54-4.06v-3l-1,.5c-.57.3-1.1.64-1.69.91-3.52,1.63-5.37,1.32-7.66-1.27-.63-.71-.63-.71-2-.63.19-.69-.5-1.57,1-1.91.1,0,.18-.2.2-.31C68,11.7,68.84,9,67.66,6.26A9.47,9.47,0,0,0,66.19,4.4l0-.72,1.71-.81L72,2.46l1,.33.23.39.64.88.38,2.56L74.16,7,74,8.48l-.1.38-.06,1.29v.74l0,.37,0,.37,0,.37L74,13.5l.35,1.1.14.38c.5,1,1,1.17,2.42,1s1.84-.53,1.83-1.54c0-.18,0-.36-.06-.55v-.18l.07-.37s0,0,0-.07a.68.68,0,0,0-.07-.12l-.05-.55ZM79,22.63c-1.89,1-3.47,2-4.32,3.58-.36.65-.6,1.3,0,1.92a4.26,4.26,0,0,0,3,.92l-1.44-.78,2-4.27C78.51,23.59,78.72,23.19,79,22.63Z" style="fill:#f8f8f8;stroke:#000;stroke-miterlimit:10;stroke-width:0.930162012577057px"/><path d="M100.15,57.77l-5.2.17A32.67,32.67,0,0,1,90.4,56.1a14.44,14.44,0,0,1-2.66-2.55c-.52-2.08-1-4.16-1.54-6.24-.25-1.06-.4-2.13-.68-3.19a1.56,1.56,0,0,0-3.1.24,13.59,13.59,0,0,0,.52,2.11c.55,2.26,1,4.54,2.71,6.6l-1.37.43-2.69.05-1.69-.43c-1.4-1.23-1.06-2.8-1.43-4.23-.62-2.35-1.22-4.71-1.94-7a7.08,7.08,0,0,0-1.17-1.69c3-1.2,5-1.84,6.56,1.68a8.19,8.19,0,0,1,5-2.18c1.67-.13,3.3.41,3.76,1.57a29.29,29.29,0,0,1,1.81,6,23.79,23.79,0,0,0,.92,3.83c1,2.85,4.63,4.2,8.28,3.08l-.83-.33c.06-.1.07-.17.12-.2.55-.3,1.16-.55,1.66-.89,1.49-1,2.92-2.06,4.42-3.06a13.51,13.51,0,0,1,6.57-2.39,9.14,9.14,0,0,1,4.64,1.31,3.59,3.59,0,0,1,1.88,3.61,7,7,0,0,1-.44,1.3c-.45-.2-.74-.3-1-.44a7.15,7.15,0,0,0-5.11-.64,4.79,4.79,0,0,1-1.19-.1l-.11-.39c-1.59.8-3.28,1.51-4.75,2.42A24.79,24.79,0,0,1,100.15,57.77Z" style="fill:#f8f8f8;stroke:#000;stroke-miterlimit:10;stroke-width:0.930162012577057px"/><path d="M59.93,3.88l1.77,1.38c1.73,2.21,3.38,4.45,3.79,7.05A10.25,10.25,0,0,1,63.37,21a7,7,0,0,1-5.26,2.31c-.19,0-.4-.2-.82-.42L56,23.08l.43-.48c-2.41,0-3.52-.49-2.88-1.33l-2,.24.68-.62-1.29,0-.17-.18.75-.2-2.09-.72,1.28-.53-.11-.22-1.78.35.33-.58H48l1.72-.78-.11-.25-1.82.33.51-.53-1-.11,1.36-.77-.07-.14-1.84.3.87-1.4-1.17.1-.12-.17L48,14.77l-.62-.62L46,14.33,46,14.2l1.61-.82-.09-.16L46,13.45l-.07-.1,1.28-.6H45.92l-.05-.13L47.61,12l-.08-.21L45.86,12l-.09-.11c.26-.12.51-.24.78-.34s.58-.2,1.17-.39L46,11h0a.19.19,0,0,0,.1-.14l.78-.46-.79-.06c.15-.49.29-1,.47-1.48.11-.31.29-.61.51-1.06,0-.07-.28-.45-.13-.65.56-.75,1.25-1.43,1.88-2.15,0,0-.09-.18-.14-.28l-.12-.34,2.7-1.47a9.06,9.06,0,0,1,5.92-.47Zm.95,8.53-1.39-.14,1.24-.71H59.14l1.17-.5-1-.24,1.24-.65H58.68l.92-.59-1.07-.25.62-.57-1-.14L58.88,8l-1-.06.21-.5-.25-.25c-.56.29-1.54.53-1.6.87-.28,1.63-.27,3.29,1.38,4.6a1.64,1.64,0,0,1,.77,1.74,13.42,13.42,0,0,0-.23,1.56c-.06.6-.47.71-1.05.4a15.61,15.61,0,0,1-2.49-1.46c-1-.76-1.74-1.63-2.8-2.66a13.19,13.19,0,0,0,.34,2.17c.52,1.52.94,3.14,3.09,3.88a5.42,5.42,0,0,0,2.33.31,3.38,3.38,0,0,0,1.85-.93A4.92,4.92,0,0,0,60.13,16l-.77-.1,1.3-.54-1.21-.21,1-.41-.74-.29L61,13.92l0-.14H59.48l1.07-.58-1.1-.2,1.43-.62h0Zm-11.49,6.5.21-.07s-.07-.11-.1-.11a.69.69,0,0,0-.2.06Zm3.19,1.88,0,0h.07Z" style="fill:#f8f8f8;stroke:#000;stroke-miterlimit:10;stroke-width:0.620108008384705px"/><path d="M76.15,59.14l1.9,1A7,7,0,0,1,81,62.89a40.93,40.93,0,0,1,2.24,3.8c.76,1.71.37,3.47-.16,5.2-.86,2.82-2.81,5.25-4.8,7.66a2.34,2.34,0,0,1-2.68.72,2.39,2.39,0,0,1,.22-.6,13.71,13.71,0,0,0,2.68-9.21,10.7,10.7,0,0,0-5.66-8.53C69,59.68,61.72,60.73,60.07,65.63a6.59,6.59,0,0,0,1.07,6.86c.06.07.05.18.07.26a5.55,5.55,0,0,1-5-.47A4.34,4.34,0,0,1,54.52,67a14.27,14.27,0,0,1,3.18-5.88,11.74,11.74,0,0,1,8.51-3.61c1.62,0,3.25.16,4.87.25l.73.06,3.13.76.49.23.54.26A.31.31,0,0,0,76.15,59.14Zm6.17,10.27L82,69.35,81.14,72l.33.06Z" style="fill:#a4a4a4;stroke:#000;stroke-miterlimit:10;stroke-width:0.620108008384705px"/><path d="M38.23,21.47c-1.63,0-3.16,0-4.69,0a5.56,5.56,0,0,0-.83.14c-.93.15-1.14.48-.76,1.2C33,24.87,34,27,35,29c-2.23,1.35-5.77.94-7.09-.69a18.33,18.33,0,0,1-2.42-4.2c-2.37-5.35-4.62-10.72-7-16.08-.18-.41-.8-.71-1.24-1.08C19,5.34,24.23,5.29,25.74,8.14c1.32,2.51,2.33,5.12,3.39,7.71.56,1.35.48,1.37,2.36,1.31L36,17c.69,0,1,.19,1.15.71C37.47,18.93,37.84,20.12,38.23,21.47ZM23.68,10l-.66.09.91,2.09.43-.08Z" style="fill:#f8f8f8;stroke:#000;stroke-miterlimit:10;stroke-width:0.930162012577057px"/><path d="M40.62,20.79l-.78.11-.17-.18,1-.47-1.28-.13,1.13-.7.17-.07-.11,0,0,.13-.94-.05,1.57-.9L41,18.31l-1.84.54.3-.66L38.83,18l1-.63-.66-.4.93-.61L37.83,16l1.5-.77.36-.13,0-.1-.5.06-1.51.33.76-.66.36-.23-.11-.11-.42.19c-.06-.09-.19-.24-.17-.25a3.82,3.82,0,0,0,1.15-.85l-1.62.4-.11-.15.89-.52.41-.19-.08-.12-.53.12-.78.13L37.29,13l1.49-.72-.07-.15-1.06.15-.11-.09.18-.23.38-.23L38,11.6l-.53.17-1.1.24.46-.68a6.79,6.79,0,0,1-1.94-.19c-.39-.17-.49-.73-.75-1.16h-1.3l1-.49-.05-.16-1.15.08,2.14-2.75-.75-.28,1.63-.81-1.11-.08c.11-.4.46-.86.3-1.17-.42-.8.32-1.08.94-1.16a4.51,4.51,0,0,1,2.47.15,10.09,10.09,0,0,1,2.13,2.28,6.26,6.26,0,0,1,1.07,1.57c.71,1.8,1.26,3.64,2,5.44,1.61,4.07,3.27,8.13,4.93,12.18a10.11,10.11,0,0,0,.82,1.31,26.07,26.07,0,0,1-3,.6,21.23,21.23,0,0,1-2.94-.17l1.17-.65-1.6.23-.56-.82.52-.45H41.61l1-.67L42.53,24l-1.46.28.32-.53-.68-.21.61-.58-.68-.1v-.73l-.31-.06.46-.4.24-.14h-.41l-.77,0,1-.6.36-.14,0-.1ZM42.95,24s-.06-.06-.08-.06a.9.9,0,0,0-.16.06s.06.06.08.06A.75.75,0,0,0,42.95,24ZM41.6,22.8l-.07,0s0,0,.06,0,0,0,.07,0Z" style="fill:#f8f8f8;stroke:#000;stroke-miterlimit:10;stroke-width:0.310054004192352px"/><path d="M60.24,33.06A7.18,7.18,0,0,1,59,31.68a2,2,0,0,1-.09-1.44,15.83,15.83,0,0,1,1-2.12l-.4-.14a9.47,9.47,0,0,0-1.17,1.71c-.65,1.65-1.14,3.34-1.78,5a12.88,12.88,0,0,1-4.41,6.39,7,7,0,0,1-6.81.58,3.34,3.34,0,0,1-1.23-1.23c-1.67-2.77-2.55-5.62-.57-8.51a6.44,6.44,0,0,1,5.09-3c2.33-.18,3.62.91,3.13,2.66a8.61,8.61,0,0,1-2.65,4c-.39.36-.83,1.12-.62,1.32a4.83,4.83,0,0,0,2.19,1.16A3.73,3.73,0,0,0,54,36.54c.7-1.86,1.26-3.75,1.91-5.62.84-2.41,1.38-5,4.52-6.43a9.64,9.64,0,0,1,2.49-.61c.65-.1.76.23.74.69,0,1.22,0,2.44,0,3.66a1.22,1.22,0,0,1-.14.71c-.91,1.27-1.86,2.52-2.79,3.78ZM48.88,31.26a3.54,3.54,0,0,0-1.46,4.44C48.85,34.82,49.34,33.37,48.88,31.26Z" style="fill:#a4a4a4;stroke:#000;stroke-miterlimit:10;stroke-width:0.620108008384705px"/><path d="M62.62,49.88a13.63,13.63,0,0,0,3,6.36c-2.63,1.11-4.18,1-6.44-.41-.61.33-1.29.65-1.9,1-3.17,2-6.51,1.09-7.29-2-.48-1.9-1-3.79-1.51-5.69a2,2,0,0,0-1.85-1.4c0-.89,1.34-1.8,2.84-2a3.23,3.23,0,0,1,3.44,1.56c.3.69.48,1.42.72,2.13.41,1.44.77,2.89,1.27,4.31A2.15,2.15,0,0,0,56,55a3.59,3.59,0,0,0,1.93.15c.36-.07.85-.64.78-.91-.36-1.41-.89-2.79-1.35-4.18a19.53,19.53,0,0,0-2.8-5.72,8.22,8.22,0,0,1,4.16-.85c.9.07,1.54.34,1.81,1C61.21,46.29,61.91,48.09,62.62,49.88Z" style="fill:#f8f8f8;stroke:#000;stroke-miterlimit:10;stroke-width:0.930162012577057px"/><path d="M107.21,68.78l1,3a7.74,7.74,0,0,1-4.46-.28,2,2,0,0,0-1.95,0c-3.82,1.78-8.08.56-9.52-2.65A5.9,5.9,0,0,1,93,62.36c1.55-1.88,5.51-3.06,8.12-.59-2.38.51-4.18,1.49-4.37,3.48-.16,1.69-.34,3.41,1.6,4.91H96.51c.93.85,2.08.69,3.15.69a2.24,2.24,0,0,0,2.09-1.08,2.39,2.39,0,0,0,.3-.8,21.8,21.8,0,0,0-.29-7.16,11.67,11.67,0,0,0-1-2.41l2.17-.56.46-.06,1.46.18a2.53,2.53,0,0,1,1.74,2,.18.18,0,0,0,0,.17C106.47,63.71,106.33,66.27,107.21,68.78Zm-3.37-4.65h0l-.25-.39-.24,0,.11,1.8.52.07.78-1.92C104,63.6,104.87,64.59,103.85,64.13Z" style="fill:#a4a4a4;stroke:#000;stroke-miterlimit:10;stroke-width:0.620108008384705px"/><path d="M72,55.62c-2.13.66-3.9-.2-5.53-1-.77-.36-1.12-1.3-1.51-2-.49-.91-.83-1.86-1.23-2.79-.25-2.21.81-4.19,2-6.13.88-1.48,5-2.7,7-2.16,1.06.29,1.92,1.12,1.7,2.14A11.94,11.94,0,0,1,73,47.07a9.12,9.12,0,0,1-1.83,1.84c-1,.92-.68,1.85.86,2.24a3.73,3.73,0,0,0,3.93-1,22.76,22.76,0,0,0,1.48-2.43c.16,1.59,1.12,3-.39,4.37l-2.26,2.27-.62.43-1.32.64ZM71.18,44c-1.8.72-2.09,2.65-1.13,4.34A4.1,4.1,0,0,0,71.18,44Z" style="fill:#f8f8f8;stroke:#000;stroke-miterlimit:10;stroke-width:0.930162012577057px"/><path d="M112.87,30.1l.5,1.21.28.22c.56.43.48.84,0,1.3a3.81,3.81,0,0,1-3.39.77,2.06,2.06,0,0,1-1.71-2c-.06-1.56,0-3.13,0-4.7a6.31,6.31,0,0,0-.33-1.35l-.18-.36h0l-.22-.63-.19-.28-.33-.36-.46-.23H106l-.74.33-.62.83a.12.12,0,0,0,0,.15l.12.74.08.93.43,2.21a26.71,26.71,0,0,0,.49,2.88c.12.43.59.81.89,1.22l-.27.7h-.08l-.06,0a.4.4,0,0,0-.22,0l-2,0-.47-.06a2.5,2.5,0,0,1-2.15-2.23c-.23-2-.3-3.93-.59-5.88a36.28,36.28,0,0,0-1-3.87c1.48-1,3.38-.54,4.89,1.4L106.5,22a4,4,0,0,1,5.17.44l.47,2,.07.56.18.4,0,2.94.23,1.11.07.39Z" style="fill:#a4a4a4;stroke:#000;stroke-miterlimit:10;stroke-width:0.620108008384705px"/><path d="M94.33,27.54l-.09-.71a.13.13,0,0,0,0-.15,32.78,32.78,0,0,0-.94-3.6c-.26-.71-.15-1,.81-1.17,2.48-.47,3.81.22,4.06,2.15.33,2.55.65,5.1,1,7.64a5,5,0,0,0,.72,1.37c.38.71.12,1-.87.89a22.19,22.19,0,0,1-3.36-.81,2.19,2.19,0,0,0-2,0,14.25,14.25,0,0,1-2.83,1.17,2.56,2.56,0,0,1-2.73-.55,4.09,4.09,0,0,1-1.38-3.28c.13-.83.26-1.66.39-2.48a4,4,0,0,0-.88-3.63c-.17-.18,0-.74.3-.94a3,3,0,0,1,2.93-.7c1.12.41,1.91,1.11,1.87,2.11s-.29,1.9-.33,2.86a25.83,25.83,0,0,0,.09,3.4c.07.73,1,1.21,1.91,1.13,1.19-.11,1.75-.62,1.61-1.47-.06-.4-.13-.79-.2-1.19l.91-1.38.26.11-.1-1.48Zm2.2,0h-.35l.42,3.2h1.12v-3h-.29v1.79C96.12,29.18,96.6,28.3,96.53,27.57ZM89,28.1c-.1-.51.81-1.25-.62-1.58l-.28,1.28.79-.26Z" style="fill:#a4a4a4;stroke:#000;stroke-miterlimit:10;stroke-width:0.620108008384705px"/><path d="M65.89,26c2.61,1.46,3.72,2.63,1.53,4.93-1,1.07-2.13,2.1-3.21,3.14A5.9,5.9,0,0,0,62,38.63c0,1,1.19,1.48,2.56,1l-.9-.34c.09-1.13.12-2.17.29-3.19A2,2,0,0,1,64.67,35c.7-.58,1.51-1.09,2.47-1.76a11.51,11.51,0,0,1,1.22,2.15,5.48,5.48,0,0,1-.58,4.95c-1,1.46-4.86,2.26-6.7,1.4a2.92,2.92,0,0,1-1.66-2.57,8.13,8.13,0,0,1,2.92-7.25A10.08,10.08,0,0,0,65.89,26Z" style="fill:#a4a4a4;stroke:#000;stroke-miterlimit:10;stroke-width:0.620108008384705px"/><path d="M104.58,43.35a1.84,1.84,0,0,0-.8,1.85c.07.52-.12,1.05-.05,1.57.19,1.4-.92,1.92-2.44,2.3a5.93,5.93,0,0,0-2,.93c-1.29.94-2.55.79-3.26-.45a3.83,3.83,0,0,1,.14-4.13,2.23,2.23,0,0,1,2.41-1.09,1.71,1.71,0,0,0,.77-.15c1.37-.53,1.87-.3,1.79.88a12.77,12.77,0,0,0-.2,1.66,8.35,8.35,0,0,0,.43,1.62l.41,0a3.62,3.62,0,0,0,.14-.65c0-.8,0-1.61,0-2.41,0-1.57.66-2.9,3-3.56-2.64-1-2.1-2.69-2.13-4.25a1.3,1.3,0,0,1,.52-1,4.26,4.26,0,0,1,2-1c1,0,1.14.8,1.37,1.43.62,1.78-.1,3.32-1.4,4.77v.56l0,0-1.73.72,0,.24.93.13Zm1-7.13-.47.09a2.78,2.78,0,0,0-.55,3.07c.11.2.41.33.62.5.2-.18.51-.34.57-.54a4.56,4.56,0,0,0,.24-1.56A7.94,7.94,0,0,0,105.59,36.22ZM99,45.67c-.92.65-1.2,2.83-.54,3.41a.85.85,0,0,0,.61.17c.25-.1.61-.34.59-.49C99.49,47.75,99.23,46.75,99,45.67Z" style="fill:#a4a4a4;stroke:#000;stroke-miterlimit:10;stroke-width:0.620108008384705px"/><path d="M107.28,43.36c.32-.88.35-2,2-2a9.24,9.24,0,0,1,2.2.53l1.92-1.58c.85,1.22,1.68,2.31,2.36,3.44a1.36,1.36,0,0,1-.57,2,4.26,4.26,0,0,1-2.27.51c-.48,0-.85-.72-1.27-1.11l.27-.22,1.49.16-.5-1.95c-1.16.15-1.66.49-1.8,1.22-.27,1.44-.64,1.67-2.55,2-.4.07-.72.41-1.12.51a4.14,4.14,0,0,1-1.89.21c-.4-.13-.61-.78-.69-1.23a13.07,13.07,0,0,1,0-1.66,3,3,0,0,0-.31-.82h0l1.06-.9a.16.16,0,0,0,.14,0l.22.05.65.31.25,3.64h.63a3.07,3.07,0,0,0,.16-.92C107.61,44.8,107.43,44.08,107.28,43.36Zm1.94.19,0-.05,0,0,.3,1.56C110.44,43.84,110.39,43.7,109.22,43.55Z" style="fill:#a4a4a4;stroke:#000;stroke-miterlimit:10;stroke-width:0.620108008384705px"/><path d="M26.87,30.33A50.27,50.27,0,0,1,22,28.61a12.81,12.81,0,0,1-4.49-3.52c-.46-.57-1.12-1.18-.18-1.8a2.36,2.36,0,0,1,2.86.43,1.48,1.48,0,0,1,.4.57C21.47,27,24,28.67,27,30Z" style="fill:#a4a4a4;stroke:#000;stroke-miterlimit:10;stroke-width:0.620108008384705px"/><path d="M115.88,67.75c1-.22,2-.49,3-.63a1.64,1.64,0,0,1,1.18.35c.4.52,1,1.22.77,1.69-.27.69-1.34.59-2.22.49a24.32,24.32,0,0,0-3.94-.32,7.32,7.32,0,0,0-2.43.9,16,16,0,0,0-1.55.91v-.91h0c.19,0,.45,0,.57-.06,1-.68,2-1.38,3-2.08Z" style="fill:#f8f8f8;stroke:#000;stroke-miterlimit:10;stroke-width:0.310054004192352px"/><path d="M87.46,58c-.82.72-1.59,1.47-2.47,2.13a8.35,8.35,0,0,1-1.61.73,6.37,6.37,0,0,1-.57-1.5A4.26,4.26,0,0,1,83.09,58l.35-.52.93-1.24v0a.14.14,0,0,0,.15-.05A2.38,2.38,0,0,1,86.68,56C88.22,56.45,88.45,57,87.46,58Z" style="fill:#a4a4a4;stroke:#000;stroke-miterlimit:10;stroke-width:0.620108008384705px"/><path d="M26.78,32.1a13.28,13.28,0,0,0-2.22.27c-1.3.39-2.54.88-3.79,1.36a8.14,8.14,0,0,1-1.53.73,6.43,6.43,0,0,1-1.78-.23c.11-.39.05-.9.36-1.14,1.64-1.3,3.83-1.52,6.06-1.52a25.63,25.63,0,0,1,2.91.33Z" style="fill:#a4a4a4;stroke:#000;stroke-miterlimit:10;stroke-width:0.620108008384705px"/><path d="M97,14.42a10.25,10.25,0,0,1,.86-1.67,1.47,1.47,0,0,1,1.06-.39c.26,0,.68.42.66.64a15.82,15.82,0,0,1-.46,2.14,9.82,9.82,0,0,1-5.42,3.39A8.59,8.59,0,0,0,97,14.42Z" style="fill:#f8f8f8"/><path d="M98.29,38.77c.8-.91,1.52-1.75,2.29-2.57a1.09,1.09,0,0,1,.73-.2.53.53,0,0,1,.36.42c-.24,1.93-.52,3.85-.8,5.77,0,.11-.15.21-.4.56a5.77,5.77,0,0,1-.54-1.13,8.14,8.14,0,0,1,0-1.29C99.86,39.23,99.86,39.23,98.29,38.77Z" style="fill:#a4a4a4;stroke:#000;stroke-miterlimit:10;stroke-width:0.620108008384705px"/><path d="M22.08,30.54c-3.31,0-6-.59-8.06-2.45a.69.69,0,0,1,0-1.21c.26-.19.93-.09,1.4,0,.2,0,.37.22.55.35a25.47,25.47,0,0,0,2.7,2A29.45,29.45,0,0,0,22.08,30.54Z" style="fill:#a4a4a4;stroke:#000;stroke-miterlimit:10;stroke-width:0.620108008384705px"/><path d="M110.72,70.23l-.68.07.34-.75.25-.38.38-.68-.11-3.13,0-.26v-.42c.22-.57-.3-1.42,1-1.58,1.18.74,1,1.8,1,2.76a10.06,10.06,0,0,1-.6,2.34l-1.54,2Z" style="fill:#f8f8f8;stroke:#000;stroke-miterlimit:10;stroke-width:0.310054004192352px"/><path d="M21.43,62.82,19,62.26c-.72,0-1.45,0-2.17-.07-1-.06-2-.15-3-.23-.58-.7-.44-1.15.61-1.2a11.72,11.72,0,0,1,3.8.3,15.62,15.62,0,0,1,3.17,1.77Z" style="fill:#a4a4a4;stroke:#000;stroke-miterlimit:10;stroke-width:0.620108008384705px"/><path d="M96.43,18.3a12.85,12.85,0,0,1,7.5-.77c.34.07.58.45.86.68-.34.17-.68.49-1,.5-.76,0-1.53-.14-2.29-.18C99.77,18.43,98.07,18.37,96.43,18.3Z" style="fill:#f8f8f8"/><path d="M37.65,12.26l-.36.06.25-.15Z" style="fill:#f8f8f8"/><path d="M46,11l.08,0L46,11Z" style="fill:#f8f8f8"/><path d="M60.1,77.27a20.63,20.63,0,0,0-1,3.72c-.19,3.2,3,5.53,7.19,5.92,6.54.61,11.66-1.57,16.61-4.32q6.4-3.56,12.89-7a20.68,20.68,0,0,1,10.56-2.11c3.76.16,7.48,1,9.51,3.74.79,1.07.87,2.47,1.17,3.73a12.25,12.25,0,0,1,.15,2.1l-.53.19c-.5-.45-1-.87-1.48-1.35-1.73-1.92-4.32-2.68-7.16-3.08a15.65,15.65,0,0,0-10.77,2.29c-6.38,3.92-12.8,7.8-20.1,10.77a62,62,0,0,1-9.89,3.31,22.19,22.19,0,0,1-14.74-1.51A6.33,6.33,0,0,1,49,85.84c1.37-4,4.53-6.85,9.72-8.3C59.16,77.42,59.61,77.37,60.1,77.27Z" style="fill:#f8f8f8;stroke:#000;stroke-miterlimit:10;stroke-width:0.620108008384705px"/><path d="M76.33,81.39c-1.64.64-3.23,1.39-4.95,1.89a6.51,6.51,0,0,1-5.55-1.95,11,11,0,0,1-2.3-5.89c-.07-1.85,0-3.7,0-5.55,0-.83-.15-1.66-.21-2.49a2.13,2.13,0,0,0-1.74-1.88,5,5,0,0,1,3.47-1.88c1.89-.28,3.31.28,3.7,1.7.57,2.1.93,4.24,1.31,6.37.43,2.38.75,4.77,1.19,7.15.31,1.66,2.42,2.62,4.87,2.29Zm-8.52-4.52-.75-2.2-.3.06-.86,1.45.28.4.16-.22ZM66,75.3v-.15h-.54v.11Z" style="fill:#a4a4a4;stroke:#000;stroke-miterlimit:10;stroke-width:0.620108008384705px"/><path d="M82.94,62.19c.54-.16,1.07-.31,1.59-.48,2-.64,3.9,0,4.36,1.58.82,2.83,1.44,5.7,2.23,8.53a31.78,31.78,0,0,0,1.29,3.24c-2.51,1.18-6.11-.14-6.41-2.56a27.3,27.3,0,0,0-2.08-8.32C83.64,63.54,83.3,62.91,82.94,62.19Z" style="fill:#a4a4a4;stroke:#000;stroke-miterlimit:10;stroke-width:0.620108008384705px"/><path d="M52.48,77.85a13.88,13.88,0,0,0-2.19,1.77,21,21,0,0,0-2,3.13,1.64,1.64,0,0,1-1.91.92c-.87-.39-.77-.94-.35-1.59a8.74,8.74,0,0,1,6.44-4.23Z" style="fill:#a4a4a4;stroke:#000;stroke-miterlimit:10;stroke-width:0.620108008384705px"/><path d="M52.08,76.81c-.15.08-.28.23-.44.25-2,.25-3.37,1.28-4.86,2.18-.72.43-1.67,1.24-2.47.44s.44-1.28,1.15-1.65A17.65,17.65,0,0,1,52,76.59Z" style="fill:#a4a4a4;stroke:#000;stroke-miterlimit:10;stroke-width:0.620108008384705px"/><path d="M113.17,71.53a8.54,8.54,0,0,1,5.54.05c.71.21,1.36.56,2,.82.87.33,1.11.81.68,1.58C118.67,73.18,116.46,71.3,113.17,71.53Z" style="fill:#f8f8f8;stroke:#000;stroke-miterlimit:10;stroke-width:0.310054004192352px"/><path d="M52.48,77.85h0Z" style="fill:#a4a4a4;stroke:#000;stroke-miterlimit:10;stroke-width:0.620108008384705px"/><path d="M30.59,63c-.26-.33-.51-.53-.56-.76-.15-.63-.21-1.26-.3-1.89.73.24,1.15.66.89,1.44A4.23,4.23,0,0,0,30.59,63Z" style="fill:#a4a4a4;stroke:#000;stroke-miterlimit:10;stroke-width:0.620108008384705px"/><path d="M20.19,60.61A6.26,6.26,0,0,1,16.44,57c-.1-.24.3-.82.56-.86a1.59,1.59,0,0,1,1.21.42c.3.54.24,1.2.51,1.76a25.73,25.73,0,0,0,1.45,2.32Z" style="fill:#a4a4a4;stroke:#000;stroke-miterlimit:10;stroke-width:0.620108008384705px"/><path d="M20.18,60.61l.16,0-.14-.05Z" style="fill:#a4a4a4;stroke:#000;stroke-miterlimit:10;stroke-width:0.620108008384705px"/><path d="M21.41,62.83l.25.18h0l-.24-.19Z" style="fill:#a4a4a4;stroke:#000;stroke-miterlimit:10;stroke-width:0.620108008384705px"/><path d="M21.66,63h0Z" style="fill:#a4a4a4;stroke:#000;stroke-miterlimit:10;stroke-width:0.620108008384705px"/><path d="M103.85,64.13l0,.33-.12,0,.17-.3Z" style="fill:#a4a4a4;stroke:#000;stroke-miterlimit:10;stroke-width:0.620108008384705px"/><path d="M39.39,116.81c-2.24,0-6,.84-8.07-.27-2.93-1.6-.82-4.78-3.2-6-1.58-.79-7.45-.45-9,.58-3.22,2.17-.57,5-4.77,5.78-1.57.3-13.07,1-14.14-.27-1.27-1.51,3.11-11.24,3.69-13.19q2-6.64,3.94-13.28c1.41-4.76,2.11-11.1,4.57-15.5,2-3.57,6.1-2.3,10.35-2.3,2.11,0,10.82-1.16,11.92.55.54.85-1.11,2-.07,3,.7.7,4,.09,5,.18,1.82.17,4,1.38,5.69,1.26s3.36-1,5.5-1.07c20.84-.58,42.11-.34,62.78.56,2.92.13,5.59-.54,8.48-.7,2.31-.12,6.17,1,8.28.23,2.84-1,1.82-3.66,5.74-4.17,2.25-.3,12.13-.82,13.27.75s-2.35,10.18-3,12c2.34-8.05,9.66-10.35,18.27-8.6,2.16.44,4.78,1.85,4.34-.76-.25-1.46-4.93-4.61-6.13-5.74l-7.58-7.09c.85-15.48,15.35-1.75,21,3.83,3.73-9,14.48,4.33,18.48,6.95A49.15,49.15,0,0,0,201,77.15c1.13.53,5.73,1.57,6.41,2.56,1.31,1.91-2.59,7.32-4.09,9.33-1.1,1.48-2,1.79-2.07,3.24-.06,1.75,1.18,3.67,1.13,5.57-.13,4.9-3.42,9.32-8.14,11.51a18.56,18.56,0,0,1-12.86.83c-2.68-.75-3-1-5.84-.38-2.67.55-4.93.77-7.66,1.07-5.44.61-1.08,1.76-3.72,4.93-1.69,2-10,1.08-12.45,1-1.55-.05-3.1.34-4-1.06s1-3,.37-4.05c-1.3-2.21-8.12-1.17-10.87-1.21-3.26,0-5,.09-5.91,3.09-.71,2.36.8,2.1-1.25,3.19-1.4.74-6.17,0-7.89.05-1.11,0-5.59.57-6.6-.18-1.3-1-.41-1.68-.69-2.91-.49-2.18.72-2.1-1.7-3.2-1.92-.87-7.28.25-9.34.3-13.58.28-27.19,0-40.76-.15l-10.15-.08c-.15,0-4.62-.36-5.07,0-1.38,1-.6.36-1,2s1,2.52-.72,3.86C44.59,117.58,41.11,116.76,39.39,116.81ZM162,83.72c-.63-1,.47-2-.28-2.8-.3-.33-3.73-.61-4.26-.58-4.36.23-4.86,2.53-6.69,6-1.45,2.76-7.66,20.31-13.31,14.91-1.17-1.12,2.29-9.54,2.76-11.2.84-3,4.21-9.36,3.52-12.05-.37-1.45-4-2.66-6.17-1.59-2.68,1.36-3.8,10-4.57,12.68-1.29,4.53-2.7,9.05-3.82,13.62-1.36,5.54,1.71,3.89,7.19,3.87,4.66,0,8.5,1,11.65-1.74,1.1-.94,3.63-4.22,5.55-1.19,1.12,1.76-2.51,6.73-1.08,8.38.64.74,5.72,1.34,6.93.35,2.22-1.83,1.36-9.83,1.56-12.55C161.33,94.48,161.58,89.09,162,83.72ZM32.54,94.3c.26,3.2.83,6.37.93,9.58.07,2.08-.69,5.16.55,7a4.63,4.63,0,0,0,3.75,2c3.21.41,3.78-.23,4.05-2.53.61-5.16-4.07-12.21-1-16.84,2.36-3.53,8.11-7.31,3-11.81-2.54-2.24-10.42-2.27-13.33-.73-4.08,2.16-4.79,12.41-6.09,16.47-1,3.18-4.38,8.36.68,9.28C31.13,107.85,31.49,97.95,32.54,94.3Zm54.07,12.13c6,2.06,7.12-12.94,8.22-16.36,1-3.15,5-9.9-1.44-9.7-4.1.13-4.07,3.31-4.93,6.41-.24.86-1.95,6.78-4.23,3.58-.77-1.07,2.14-6,2.12-7.4,0-2.15.33-2.79-3.22-2.57-6.3.38-6.69,12-8.16,16.83-.93,3-4.93,11,2.34,9.51,3.86-.81,3.55-4.65,4.56-7.78.33-1,2-5.69,4.07-2.85C87.43,98.14,78.67,108.41,86.62,106.43Zm88.56-26.18c-9.11-.91-8.93,10.61-10.69,16.29-2,6.45-3.94,11.5,5.57,10.31C182.9,105.24,193,80.18,175.18,80.24Zm-51.91,32.28c5.32,1.48,4.06-5.17,4.17-8.12.23-6.21.43-12.46.89-18.66.12-1.62.91-3.9-.3-5-.57-.51-5.11-.74-5.91-.5-4.35,1.31-7.25,10.57-9.06,14.11-1.36,2.66-2.69,5.34-4,8-1.22,2.4-2.54,3.18-.29,4.25,4.25,2,5-2.53,7.29-3.59C123.88,99.3,115.24,114.5,123.27,112.52Zm-101.32-36c-5.72-1.82-6.63,3.86-7.65,7.61-1.77,6.46-3.68,12.88-5.65,19.3-1,3.24-5.69,12.08,2.42,9.49,4.31-1.38,4.36-8.13,5.33-11.58.44-1.54.53-4,1.94-5.14s3.35-.22,4.53-1.72a3.39,3.39,0,0,0-.17-3.64c-1.38-1.32-2.49,1.31-2.75-1.74-.1-1.18,1.94-6.85,2.94-7.47,1.52-.94,3.48.37,4.93-1C32.49,76.25,24.24,76.52,21.94,76.52Zm33.2,4.08c-6.71-2-6.94,5.27-8,9.39-.84,3.14-5.44,11.42-3.73,14.72,1.18,2.28,7.3,2.68,9.56,1.87,1.39-.49,3.93-2.27,2.7-4.2-.93-1.46-2.47.16-3.67-.72-.75-.56-.68-2.13-.12-3.39,1.27-2.86,2-1.37,4.25-2.79.86-.54,2.78-2.57,2-3.93-.66-1.15-2,.11-2.8-.61a3.3,3.3,0,0,1-.55-3.52c1.38-3,2.81-.75,5.3-2.23,1.09-.65,2.59-3.09,1.46-4.3C60.77,80.1,56.19,80.6,55.14,80.6Zm16.74-.39c-3.87.12-7.43,1.65-9.36,4.83-3.16,5.21.89,7.3,2.16,11.84,1.66,5.95-4.41,3.23-7.08,5.91-3.21,3.22.56,4.15,3.74,4.23a11.73,11.73,0,0,0,9.6-4.48c3.07-4.08,1.4-7-.58-11-.87-1.74-2.55-3.11-1-5.13,1.74-2.31,3.22-.25,5.12-1C79.58,83.33,75.91,80.33,71.89,80.21Zm36.29,0c-4.16,0-8.09,1.71-10,5.22-2.18,4.07,0,6.79,1.78,10.46.92,1.87,1.91,4.4-.91,5.6-1.44.61-3-.66-4.4,0-3.09,1.4-2.35,4.19-.08,5.19,9.41,4.13,16-6.94,12.61-13.68-1-2-3.61-4.13-2-6.49,1.4-2,3.11-.51,4.8-1.12C114.56,83.75,112.91,80.2,108.18,80.24Zm88.23,0c-4.39.14-8.34,2.66-9.7,6.55-1.83,5.21,4,7.68,3.42,12s-5.7,1.4-7.72,4.42c-2.3,3.44,1.28,3.82,4.61,3.78,4.51-.07,8.9-2.68,10.39-6.71,1.78-4.82-2.57-6.86-3.44-11-1-5,4.52-2.95,6.74-4.71C204.85,81.25,199.26,80.24,196.41,80.23Z" style="fill:#4a4a4a"/><path d="M146.46,84.78c.9-3.3,4.77-10.7,1.45-12.44-1.64-.86-8.28-.07-10.42,0s-3.4-.16-4.83,1.36c-2,2.13.16,2.34-3.46,2.75-3.43.38-7-.18-10.5.2-5.92.63-12.31-1.82-18-.2-2.33-3.17-8.56-13.18-2-15.37,1.9-.64,4.52,1.12,5.55-.66,1.28-2.19-.84-7.11.19-9.86,5.72-15.27,28,13.07,31.62,10.5,2.51-1.77.72-4.67,5.07-5.1,3.3-.33,6.92,2.07,9.47,3.71a67.73,67.73,0,0,1,9.77,8c1.57,1.47,8.75,6.45,8.91,8.31.2,2.35-7.77.23-10.17.23-6.53,0-11.21,2.43-12.6,8.64Z" style="fill:#acacac"/><path d="M39.39,116.81c2.39-.06,6.12,1,7.55-1.36,2.09-3.47-3.09-4.7,3.4-4.88,10.12-.29,20.32.16,30.44.22,5.07,0,10.15.07,15.22.07,4.82,0,10.84-1.06,15.55-.36,4.14.62,2.48.88,3.16,3.91.8,3.54,3.64,2.34,7.4,2.4C102.32,139,59.05,139,39.39,116.81ZM66.32,121c1.16,1.35,2.89,1,4.21.17,2.43-1.58,1-2.18,1.09-4.25.06-1.51-1.22-.92-.47-2.42-.06.12,2.82-.33,2.4-1.29-.91-2.07-4.8.18-5.31,1.33-1.2,2.71,2.57,4.74-2,6.5-2.42-1.92-.42-3.15.34-4.75-.52,1.08-.23-2.05-.31-1.76.12-.47,2-.24,1.88-1.25-.16-1.32-3.61-.63-4.25-.08-1.45,1.24-1.84,6.75-2,8.42C63.39,121.53,65,122.23,66.32,121Zm29.26-7.29c-.33,1.38-3.68,10.64.67,7.39.72-.54,2.24-6,2.09-6.81s-1.22-3.58-2.8-.54c.4-1.83-1.67-1-2.48-.36-1,.72-.59,2.29-1.31,3.2l-.67,0c.24-1.23,1.39-3.5-.3-4-2.69-.76-2,3.64-2.09,4.81-.09,1.58-1.09,4.26,1.27,4.23S94.67,115.31,95.57,113.68Zm-18.25,7.43c-3.81-4.6.26-4.66,2.06-8.13-3.78-1.53-6.77,2.43-6.62,5.67.21,4.61,5,2.9,8.55,2.29,2.93-.51,2.46,2.05,3-2.38.08-.7.92-4.91.36-5.51C81.58,109.75,78,119.79,77.32,121.11Zm22.18.77c5.34-.66,8.08-10.75,1.8-9.13-2.9.75-2.71,2.75-3.2,5C97.35,121.13,97,120.41,99.5,121.88Zm-41.4-4.27c.16,1.93.59,6.34,3.06,2.93,0,0-.05-3.23,0-3.59.41-1.66,2.91-2.5.25-4.26-4.29-2.84-6.7,4.6-6.52,7,0,.55-1.14,3.05,1.34,2C57.51,121.14,57.75,118.68,58.09,117.61Zm51.27-5c-1.94-.46-6.05,8.61-5.74,8.8,1.36.85,2.58-.85,3.89-.81s.83,1.61,2.52.73C111.21,120.73,112.14,112.08,109.36,112.63Zm-55,.14c-3.2-.86-5.2,5.34-4.57,7.45.27.91-.91.75.3,1.43,1.82,1,1.61-.93,2.15-1.49a13.13,13.13,0,0,0,1.78-2.5c.28-.89-.31-2.19-.09-2.69.36-.83,2.23-.51,2-1.38C55.41,112.07,55.4,113.35,54.34,112.77Z" style="fill:#5c5c5c"/><path d="M153.85,57.49,153,58.61l-1.47-1.18s2.13-1.44,2.38-.91Q153.84,57,153.85,57.49Z" style="fill:#b1b1b1"/><path d="M171.9,112.88l-5.09,1.47C167.59,111.25,170.37,113.83,171.9,112.88Z" style="fill:#b1b1b1"/><path d="M134,57.65l-.62-1,1.79-.32-.31,1-.41.36Q134.74,57.51,134,57.65Z" style="fill:#fbfbfb"/><path d="M155.55,54.68l-.3,0C155.31,54.42,155.44,54.28,155.55,54.68Z" style="fill:#fbfbfb"/><path d="M10.47,72.93l.13-.65q.57.16-.08.68Z" style="fill:#fbfbfb"/><path d="M19.7,115.06l-.08.66q-.49-.1.1-.64Z" style="fill:#b1b1b1"/><path d="M191.52,112.59c-.36.39-.72.49-1.1,0Z" style="fill:#b1b1b1"/><path d="M93.71,62.54l.12-.43.13.1-.28.32Z" style="fill:#b1b1b1"/><path d="M132.22,56.25l.14.09-.17-.06Z" style="fill:#fbfbfb"/><path d="M132.19,56.28l-.13-.09.17.06Z" style="fill:#fbfbfb"/><path d="M134,57.65h0Z" style="fill:#b1b1b1"/><path d="M134.5,57.68l.41-.36Z" style="fill:#b1b1b1"/><path d="M162,83.72c-.38,5.38-.63,10.76-1,16.14-.17,2.33.5,10.87-1.56,12.55-.94.77-6.26.76-6.92,0-1.35-1.49,1.77-6.49,1-8.21-1.62-3.61-4-.5-5.48.64-1.9,1.45-.29,1-2.9,1.8-2,.61-5.32-.07-7.5-.07-4.36,0-9.23,1.87-8.77-2.74.48-4.78,2.81-10.08,4.15-14.75.85-3,1.51-10.64,4.07-12.43,1.61-1.12,6.17-.43,6.77.85.84,1.81-3,10.4-3.63,12.54-.53,1.86-4.06,9.69-3.16,10.92,4.94,6.78,12.5-12.33,13.71-14.63,1.71-3.26,2.46-5.92,6.69-6a16.41,16.41,0,0,1,3.93.44C162.57,81.8,161.14,82.47,162,83.72Zm-6.41,4.17c-.78,1.75-5.49,9.49-3.83,10.66C154.93,100.82,155.36,89.22,155.54,87.89Z" style="fill:#acacac"/><path d="M32.54,94.3c-1.08,3.76-1.42,12.48-6.73,12.49-5.57,0-2.7-5.22-1.69-8.27,1.29-3.89,2.21-14.92,5.74-17.19,2.83-1.82,11.38-1.9,14,.42,4.52,4,.11,8-2.45,11.25-3.29,4.16-.22,11.43.25,16.36.27,2.79.53,3.67-3.18,3.56-1.71,0-3.09-.29-4.17-1.58-1.46-1.75-.78-4.45-.82-6.47C33.45,101.33,32.84,97.83,32.54,94.3Zm5.52-7.39c.1-6-6.73,3.18-4.71,5.13C35.66,94.28,37.87,87.65,38.06,86.91Z" style="fill:#fbfbfb"/><path d="M86.62,106.43c-7.92,2,.81-8.29-.67-10.34-2.2-3-3.83,2.15-4.07,2.85-.9,2.7-.81,6.51-3.79,7.7-7.9,3.16-3.9-6.87-3.11-9.43,1.11-3.62,2-7.31,3.07-10.93s1.06-5.6,5.1-5.9c8.4-.63-.78,6.89,1.1,10s3.67-1.77,4-2.64c1-3,.66-6.5,4.42-7.27,7.36-1.52,3.2,6.61,2.23,9.61C93.74,93.46,92.6,108.48,86.62,106.43Z" style="fill:#fbfbfb"/><path d="M175.18,80.24c17.77-.06,7.72,25-5.11,26.6-8.74,1.09-7.87-3-5.89-9.31C166,91.72,165.85,79.31,175.18,80.24Zm2.15,7.84c-.44-5.59-2.74-1.67-3.54,1.27-.43,1.58-4.14,12-3.06,12.34C174.71,103.09,176.9,90.3,177.33,88.08Z" style="fill:#acacac"/><path d="M123.27,112.52c-8.24,2,.83-12.54-6.87-9.64-2.93,1.11-2.4,4.91-7.07,3.74-2.67-.67-2.09-.61-.83-3.26,1.44-3,3-6,4.56-9,1.81-3.55,4.5-12.21,8.45-13.92,1.09-.47,4.79-.36,5.8.25,1.88,1.13,1.27,1.53,1.07,3.88-.52,6.19-.65,12.45-.9,18.66C127.37,106.21,128.91,114.09,123.27,112.52Zm-1.14-24.8c-1.55,3.5-3.45,7-4.4,10.71C122.78,98.81,121.64,91.36,122.13,87.73Z" style="fill:#acacac"/><path d="M21.94,76.52c2.35,0,9.79-.82,6.22,3.73-1.48,1.88-3.22.15-4.84,1.07-1.78,1-2.6,5-3,6.8-1,4.47.55.89,1.93,2.71.5.66,1.65,1.45.69,3.15-1.14,2-2.5.7-4.27,1.94s-1.79,3.63-2.3,5.42c-.92,3.23-1,9.85-4.76,11.44-8,3.39-4.32-5-3.34-8.23,2-6.41,3.93-12.82,5.68-19.29C15,81.44,15.8,74.56,21.94,76.52Z" style="fill:#fbfbfb"/><path d="M55.14,80.6c.66,0,5.71-.46,6.19,0,1.06,1,.24,3.57-.72,4.38-2,1.65-4.21-.47-5.75,2-.52.83-.47,3.46.1,3.9.79.61,2.48-.52,3.16.4s-.92,3.65-1.55,4.08c-2.42,1.67-3.36-.25-4.72,2.9-.55,1.28-.68,2.8.12,3.39,1.28.95,2.66-.74,3.67.72.88,1.29-.77,3.57-1.89,4.11-1.86.91-9.06.58-10.31-1.5-1.82-3,2.56-11.18,3.37-14C48,86.8,48,78.46,55.14,80.6Z" style="fill:#fbfbfb"/><path d="M71.89,80.21c3.41.1,8,2.59,3,5.22-1.84,1-3.74-1.46-5.58,1-1.25,1.65-.26,2.88.49,4.37,2,4,4.39,6.78,1.58,11.15A11.73,11.73,0,0,1,61.35,107c-3.46-.08-6-.51-4-3.62,2.23-3.52,7.8-.2,7.57-5.66-.08-2-2.55-3.81-3.2-5.76a7.81,7.81,0,0,1,.39-6.05C63.81,82.21,67.6,80.35,71.89,80.21Z" style="fill:#fbfbfb"/><path d="M108.18,80.24c4.72,0,6.39,3.52,1.85,5.15-2.11.76-3.07-1.35-4.8,1.12s1,4.52,2,6.49c3.37,6.78-3.24,17.79-12.61,13.68-2.4-1.05-2.86-3.64.08-5.19,1.36-.71,2.91.66,4.4,0,2.82-1.2,1.83-3.73.91-5.6-1.84-3.75-4-6.3-1.78-10.46C100.06,81.95,104,80.22,108.18,80.24Z" style="fill:#acacac"/><path d="M196.41,80.23c2.87,0,8.34,1.1,4.3,4.33-2.27,1.81-7.84-.52-6.74,4.71.9,4.28,5.28,6,3.44,11-1.49,4-5.89,6.65-10.39,6.71-3.27,0-6.82-.38-4.61-3.78,2-3.05,7.11-.07,7.72-4.42s-5.15-6.86-3.42-12C188,82.87,192.06,80.37,196.41,80.23Z" style="fill:#acacac"/><path d="M146.44,84.76l-.09.29.1-.28Z" style="fill:#acacac"/><path d="M77.32,121.11c.68-1.32,4.26-11.36,7.34-8.06.56.6-.28,4.8-.36,5.51-.53,4.43-.06,1.87-3,2.38-3.53.61-8.34,2.33-8.55-2.29-.15-3.23,2.84-7.2,6.62-5.67C77.58,116.45,73.51,116.51,77.32,121.11Zm5-4.56-.57-.15L81,118.74C81.89,119,82.09,117.22,82.33,116.55Z" style="fill:#fbfbfb"/><path d="M99.5,121.88c-1.17-.69-1.52.16-2.16-.91.08.13.75-3.21.75-3.23.49-2.24.26-4.23,3.2-5C107.58,111.13,104.85,121.21,99.5,121.88Zm2.63-9-2,6.93C101.94,118.22,102.65,116.38,102.13,112.88Z" style="fill:#fbfbfb"/><path d="M58.09,117.61c-.34,1.07-.58,3.53-1.84,4.08-2.48,1.08-1.3-1.42-1.34-2-.18-2.43,2.23-9.87,6.52-7,2.66,1.76.16,2.6-.25,4.26-.09.36,0,3.57,0,3.59C58.69,123.95,58.26,119.54,58.09,117.61Zm0-.59c1-.56,2.82-2.13,1.11-2.92Z" style="fill:#fbfbfb"/><path d="M109.36,112.63c2.78-.55,1.85,8.1.67,8.71-1.69.88-1.16-.69-2.52-.73s-2.53,1.66-3.89.81C103.31,121.24,107.43,112.16,109.36,112.63Zm-.83,4.08-.58-.1-.66,2.16Q108.91,119.26,108.53,116.7Zm0-1.06q-.18,0-.15.19l.2,0Z" style="fill:#fbfbfb"/><path d="M95.57,113.68c-.87,1.57-3.73,9.37-6.37,8-1.47-.78-.66-4.56-.43-6,.15-.94.79-5.39,3-2.5.3.39-.71,4.28-.71,5.06.43-1.07.82-3.21,1.5-4,.52-.64,3.5-3,3-.49Z" style="fill:#fbfbfb"/><path d="M66.32,121c-1.29,1.26-2.92.56-4.42.62.2-1.7.56-7.27,2-8.42.83-.64,4-1.32,4.25.08.15.74-1.82,1-1.88,1.25s0,2.43.31,1.76c-.73,1.55-2.65,2.92-.34,4.75Z" style="fill:#fbfbfb"/><path d="M66.28,121c4.53-1.76.64-3.84,2-6.5.55-1.11,5.1-3.43,5.31-1.33.11,1.15-2.31,1-2.4,1.29-.43,1.18.53,1.32.47,2.42-.08,1.61,1,2.07-.46,3.66-1.19,1.35-3.49,2-4.85.42Z" style="fill:#fbfbfb"/><path d="M54.34,112.77c.64.35,1.06-.53,1.68.33.88,1.22-1.72,1-2,1.65-.78,1.8.34,3.3-1.81,5.41-1.38,1.35-1.63,2.39-2.58.32C48.78,118.63,51.5,112,54.34,112.77Z" style="fill:#fbfbfb"/><path d="M95.54,113.72c1.14-2.2,2.59-.9,3,.21.23.7-1.88,6.89-2.24,7.15-4.4,3.23-1-6.13-.68-7.39Z" style="fill:#fbfbfb"/><path d="M91.74,116.56l-.67,1.69c0-1,0-1.32,0-1.67Z" style="fill:#b1b1b1"/><path d="M155.54,87.89c-.17,1.24-.65,12.91-3.83,10.66C150,97.35,154.73,89.72,155.54,87.89Z" style="fill:#4a4a4a"/><path d="M38.06,86.91c-.23.84-2.37,7.4-4.71,5.13C31.35,90.1,38.17,81,38.06,86.91Z" style="fill:#4a4a4a"/><path d="M177.33,88.08c-.4,2.08-2.64,15-6.6,13.61-1-.35,2.74-11.16,3.06-12.34C174.57,86.42,176.89,82.57,177.33,88.08Z" style="fill:#4a4a4a"/><path d="M122.13,87.73c-.49,3.63.65,11.09-4.4,10.71C118.68,94.75,120.58,91.23,122.13,87.73Z" style="fill:#4a4a4a"/><path d="M82.33,116.55c-.24.67-.44,2.41-1.35,2.19l.78-2.34Z" style="fill:#5c5c5c"/><path d="M102.13,112.88c.52,3.5-.19,5.35-2,6.93Z" style="fill:#5c5c5c"/><path d="M58.14,117l1.11-2.92C61,114.89,59.12,116.46,58.14,117Z" style="fill:#5c5c5c"/><path d="M108.53,116.7q.38,2.56-1.25,2.06l.66-2.16Z" style="fill:#5c5c5c"/><path d="M108.56,115.65l.06.14-.2,0Q108.37,115.66,108.56,115.65Z" style="fill:#b1b1b1"/></g></g></svg>