<svg xmlns="http://www.w3.org/2000/svg" width="291.13" height="187.17" viewBox="0 0 291.13 187.17"><title>Fresh</title><g id="Layer_2" data-name="Layer 2"><g id="Layer_1-2" data-name="Layer 1"><path d="M59.65,62.35A23.26,23.26,0,0,1,56,73c1.69.53,3.25,1,4.79,1.51C74.06,78.93,79.5,91.74,71.62,101A32.25,32.25,0,0,1,57,110.33a18.79,18.79,0,0,1-6,.69,43.61,43.61,0,0,1-7.95-.77c-9.56-2-14.84-7.12-17.66-14a14.76,14.76,0,0,0-2.22-2.94l-2.58-1.44.86-.56,3.75-.72,2.37,0a14.08,14.08,0,0,1,7.85,3.11,50.37,50.37,0,0,1,4.67,4.78,11,11,0,0,0,11,3.27A39.62,39.62,0,0,0,57.83,99c6-2.65,8.9-10.92,3.17-15.88-3.76-3.26-8.57-4.5-14.5-4.39,1.75,4.59,3.09,9.08,7.58,12.85-2.08.5-3.93,1.08-5.86,1.38-3.95.61-6.49-.45-8-3.29A20,20,0,0,1,38.64,86c-2.07-6.86-4.2-13.71-8.4-20A9.76,9.76,0,0,1,36,63.7a4.65,4.65,0,0,1,4,1,13.14,13.14,0,0,1,3.92,6.53c.46,1.53,1.12,3,1.68,4.53l.48,0a37.68,37.68,0,0,0,2.38-4.23c1.27-3.11,2.26-6.24,1-9.54a8.66,8.66,0,0,0-7.66-5.77c-4.76-.59-9.3.05-12.34,3.14-3.48,3.53-3.9,7.48-1.49,11.54.67,1.12,1.48,2.19,2.34,3.45-2.87.33-5.25-.45-7.69-.87L19.15,72.3l-.61-.42-2.25-3A12,12,0,0,1,17.67,60a21.47,21.47,0,0,0,1.12-1.88c1.62-3.48,4.8-6.08,8.48-8.3,5.16-3.11,11.2-3.51,17.37-2.3,4.3.84,8.5,2,11.32,4.93A11.5,11.5,0,0,1,59.51,60C59.55,60.8,59.6,61.58,59.65,62.35Zm-16.75,26a5.94,5.94,0,0,1,0-1.69c.38-1.09-.22-1.68-1.24-2,.13.88.22,1.77.43,2.64C42.18,87.62,42.53,87.9,42.89,88.37Z" style="fill:#f8f8f8;stroke:#000;stroke-miterlimit:10;stroke-width:1.304295224684502px"/><path d="M110.27,15l-1.54-9.4-1.1-1.42-1.29-.75A29.06,29.06,0,0,1,110.86,1c2.92-1,5.59.11,6.6,2.4,1.59,3.63,1.47,7.41,1.68,11.16.13,2.28,0,4.58.07,6.86a2.65,2.65,0,0,1-1.76,2.6c-1.83,1-3.53,2-5.28,3.07q-.16,0-.16.11l-.41.24-.29.27.53-.06H112l0-.08.53-.15c3.89-1.45,7.72-2.94,10.37-5.7a5.48,5.48,0,0,0,1.36-6.37A13.57,13.57,0,0,0,123.2,13c-.6-.92-.19-1.31,1-1.63,3.51-1,7.84-.18,10,2.13,1.57,1.66.94,3.54.19,5.34-.15.36-.32.71-.47,1.07l-.3.24-1.39,1.59-.68.78h0c-3.71,3.53-9.34,4.62-14.35,6.51-2.21.83-4.4,1.7-6.6,2.56l.31.57,7.77-2a32.05,32.05,0,0,1-1,5.51,44.79,44.79,0,0,1-3.25,6.8,7.63,7.63,0,0,1-5.49,3.27,9.24,9.24,0,0,1-6.9-1.7c-3.55-2.72-3.83-7.09-.76-10.19a19.79,19.79,0,0,1,9.17-5.69V24c-.6.3-1,.49-1.39.7-.79.42-1.55.89-2.37,1.27-4.94,2.29-7.53,1.86-10.75-1.78-.88-1-.88-1-2.77-.88.26-1-.7-2.2,1.33-2.68.14,0,.26-.28.28-.44.55-3.82,1.76-7.65.11-11.46a13.28,13.28,0,0,0-2.06-2.6l.06-1L95.27,4l5.7-.57,1.39.47.32.54.9,1.24.53,3.59-.12.53-.25,2.07-.14.53-.08,1.81v1l-.06.52.06.52.07.51.16,2.1.49,1.55.2.53c.7,1.35,1.44,1.64,3.4,1.35s2.58-.75,2.57-2.16c0-.25-.05-.51-.08-.76v-.26l.1-.52s.05-.07,0-.09a1,1,0,0,0-.09-.17l-.07-.78Zm.5,16.71c-2.65,1.42-4.86,2.86-6.06,5-.5.91-.84,1.83.07,2.69S107,40.67,109,40.73l-2-1.1,2.84-6C110.09,33.08,110.38,32.52,110.77,31.73Z" style="fill:#f8f8f8;stroke:#000;stroke-miterlimit:10;stroke-width:1.304295224684502px"/><path d="M140.44,81l-7.29.24a45.82,45.82,0,0,1-6.38-2.58c-1.54-.9-2.51-2.36-3.73-3.57-.72-2.91-1.47-5.83-2.16-8.75-.35-1.48-.56-3-1-4.47a2.18,2.18,0,0,0-4.35.33,19.06,19.06,0,0,0,.73,3c.77,3.17,1.42,6.36,3.8,9.26l-1.92.6-3.77.08-2.36-.6c-2-1.72-1.48-3.92-2-5.93-.87-3.3-1.71-6.61-2.71-9.89a9.93,9.93,0,0,0-1.64-2.37c4.19-1.68,7-2.58,9.2,2.35a11.48,11.48,0,0,1,7-3.06c2.35-.19,4.63.58,5.27,2.21a41.07,41.07,0,0,1,2.54,8.39A33.36,33.36,0,0,0,131,71.6c1.34,4,6.49,5.88,11.62,4.32l-1.16-.47c.08-.14.1-.24.17-.28.78-.42,1.62-.77,2.33-1.25,2.09-1.41,4.1-2.89,6.19-4.29a18.94,18.94,0,0,1,9.22-3.35,12.82,12.82,0,0,1,6.51,1.83,5,5,0,0,1,2.63,5.07,9.83,9.83,0,0,1-.62,1.83c-.63-.28-1-.42-1.37-.62-2.18-1.31-4.6-1.35-7.17-.9a6.72,6.72,0,0,1-1.67-.14l-.16-.54c-2.23,1.12-4.59,2.12-6.66,3.4A34.76,34.76,0,0,1,140.44,81Z" style="fill:#f8f8f8;stroke:#000;stroke-miterlimit:10;stroke-width:1.304295224684502px"/><path d="M84,5.44l2.49,1.94c2.42,3.1,4.74,6.23,5.32,9.89.68,4.27.11,8.38-3,12.12-1.71,2.06-4.25,3.06-7.38,3.24-.27,0-.57-.28-1.15-.59l-1.76.32.6-.67c-3.38,0-4.94-.69-4-1.87l-2.79.33,1-.87-1.81.07-.24-.25,1.05-.28-2.94-1,1.79-.74-.15-.3-2.49.49.46-.81H67.34l2.41-1.1L69.6,25,67,25.46l.71-.74-1.41-.16,1.91-1.07-.09-.2-2.58.43,1.22-2-1.64.14L65,21.65l2.3-.95-.87-.86-1.88.25-.11-.17,2.26-1.15-.12-.22-2.05.31-.1-.14,1.8-.84H64.39l-.07-.18,2.44-.91-.11-.29-2.34.3-.12-.16c.37-.16.72-.34,1.1-.48s.81-.27,1.65-.55l-2.42-.14,0,0a.27.27,0,0,0,.14-.19l1.1-.64-1.11-.08c.21-.69.4-1.39.65-2.07.16-.43.4-.85.71-1.49,0-.1-.39-.63-.18-.92.78-1,1.76-2,2.63-3,.06-.07-.13-.26-.2-.39l-.17-.48,3.78-2.07c2.67-.91,5.37-1.6,8.3-.66Zm1.33,12-2-.2,1.74-1H82.93l1.65-.7-1.43-.33,1.74-.91H82.28l1.29-.82-1.5-.36.87-.81-1.45-.2,1.07-.89-1.45-.09.3-.7-.35-.35c-.78.4-2.16.75-2.24,1.22-.39,2.28-.38,4.62,1.94,6.44a2.3,2.3,0,0,1,1.09,2.44,18.82,18.82,0,0,0-.32,2.19c-.08.84-.66,1-1.48.57a21.88,21.88,0,0,1-3.49-2c-1.33-1.06-2.43-2.29-3.93-3.73a18.5,18.5,0,0,0,.47,3c.73,2.13,1.31,4.4,4.34,5.44a7.6,7.6,0,0,0,3.27.44,4.73,4.73,0,0,0,2.59-1.3,6.9,6.9,0,0,0,1-2.4l-1.07-.14,1.82-.76-1.69-.29,1.38-.57-1-.41,1.81-.68-.07-.2h-2l1.51-.82-1.54-.28,2-.87-.06,0ZM69.26,26.51l.3-.1c0-.05-.09-.15-.14-.15a1,1,0,0,0-.28.08Zm4.47,2.64-.05.06h.1Z" style="fill:#f8f8f8;stroke:#000;stroke-miterlimit:10;stroke-width:0.8695301497896686px"/><path d="M106.78,82.93l2.67,1.37a9.82,9.82,0,0,1,4.13,3.89,57.39,57.39,0,0,1,3.14,5.33c1.06,2.4.52,4.87-.22,7.29-1.21,4-3.94,7.36-6.73,10.74a3.28,3.28,0,0,1-3.75,1,3.35,3.35,0,0,1,.31-.84,19.23,19.23,0,0,0,3.76-12.91c-.41-4.66-2.81-9-7.93-12-5.45-3.18-15.6-1.71-17.91,5.17-1.14,3.38-1,6.6,1.51,9.62.08.1.07.25.1.37a7.78,7.78,0,0,1-6.95-.66,6.09,6.09,0,0,1-2.45-7.42A20,20,0,0,1,80.9,85.7a16.46,16.46,0,0,1,11.94-5.06c2.27-.06,4.55.22,6.83.35l1,.09,4.39,1.07.69.32.75.36A.43.43,0,0,0,106.78,82.93Zm8.66,14.4-.45-.08-1.2,3.68.47.08Z" style="fill:#a4a4a4;stroke:#000;stroke-miterlimit:10;stroke-width:0.8695301497896686px"/><path d="M53.6,30.11c-2.29,0-4.44,0-6.58,0a7.79,7.79,0,0,0-1.17.19c-1.31.21-1.59.67-1.06,1.68,1.53,2.89,2.9,5.82,4.34,8.74-3.13,1.9-8.09,1.32-9.94-1a25.7,25.7,0,0,1-3.39-5.88c-3.32-7.5-6.48-15-9.78-22.54-.25-.58-1.13-1-1.74-1.51,2.33-2.34,9.7-2.41,11.81,1.59,1.86,3.52,3.26,7.18,4.76,10.81.78,1.89.67,1.92,3.32,1.84,2.11-.06,4.22-.13,6.33-.22,1,0,1.43.26,1.61,1C52.54,26.54,53.06,28.21,53.6,30.11ZM33.2,14l-.93.13,1.28,2.93.61-.11Z" style="fill:#f8f8f8;stroke:#000;stroke-miterlimit:10;stroke-width:1.304295224684502px"/><path d="M57,29.15l-1.1.15-.24-.26L57,28.39l-1.79-.18,1.58-1,.24-.1-.15-.06-.05.18-1.31-.07,2.2-1.26-.2-.25-2.59.75.42-.92-.89-.21,1.38-.88-.92-.55,1.3-.86L53,22.4l2.11-1.07.51-.18L55.6,21l-.7.08-2.11.46,1.07-.92.51-.32-.15-.16-.59.27c-.08-.12-.26-.34-.24-.35A5.35,5.35,0,0,0,55,18.87l-2.27.57-.15-.21,1.25-.73.58-.26-.11-.17-.74.17-1.1.19-.15-.21,2.09-1-.1-.22-1.48.21-.16-.12.25-.32.53-.33-.11-.15-.74.23L51,16.84l.65-1A9.52,9.52,0,0,1,49,15.61c-.55-.24-.69-1-1-1.62H46.09l1.46-.68-.07-.23-1.61.11,3-3.85L47.81,9l2.28-1.14L48.54,7.7c.16-.56.64-1.21.41-1.64-.59-1.13.45-1.51,1.32-1.62,1.14-.15,2.74-.25,3.47.22a14.15,14.15,0,0,1,3,3.19A8.78,8.78,0,0,1,58.24,10c1,2.53,1.77,5.1,2.77,7.62,2.26,5.71,4.58,11.4,6.91,17.09a14.17,14.17,0,0,0,1.15,1.84,36.56,36.56,0,0,1-4.28.84,29.78,29.78,0,0,1-4.13-.24l1.64-.92-2.25.32-.79-1.15.73-.63H58.35l1.4-.94-.11-.2-2,.39.45-.75-1-.29.85-.81-1-.14v-1L56.55,31l.65-.56.33-.2H57l-1.09,0,1.36-.85.51-.2-.06-.14Zm3.26,4.46s-.08-.09-.11-.08a1.26,1.26,0,0,0-.23.08s.08.09.11.08A1.06,1.06,0,0,0,60.22,33.62ZM58.33,32l-.1.06s.06.07.09.07.07,0,.1-.05Z" style="fill:#f8f8f8;stroke:#000;stroke-miterlimit:10;stroke-width:0.43476507489483357px"/><path d="M84.47,46.35a10.07,10.07,0,0,1-1.68-1.92,2.84,2.84,0,0,1-.13-2,22.2,22.2,0,0,1,1.38-3l-.56-.2a13.28,13.28,0,0,0-1.64,2.4c-.92,2.31-1.59,4.68-2.49,7-1.27,3.29-2.76,6.49-6.18,9a9.82,9.82,0,0,1-9.55.81,4.68,4.68,0,0,1-1.73-1.72c-2.34-3.89-3.58-7.89-.79-11.93a9,9,0,0,1,7.14-4.19c3.27-.25,5.07,1.28,4.4,3.73a12.07,12.07,0,0,1-3.72,5.63c-.54.5-1.16,1.57-.87,1.86a6.77,6.77,0,0,0,3.08,1.62c1.48.32,4.19-1,4.62-2.19,1-2.61,1.77-5.25,2.68-7.88,1.17-3.38,1.94-7,6.33-9a13.51,13.51,0,0,1,3.49-.85c.91-.14,1.06.32,1,1-.07,1.71,0,3.42,0,5.13a1.71,1.71,0,0,1-.19,1c-1.27,1.78-2.61,3.54-3.92,5.3ZM68.53,43.84c-2,.81-3.15,4.43-2,6.22C68.51,48.83,69.19,46.8,68.53,43.84Z" style="fill:#a4a4a4;stroke:#000;stroke-miterlimit:10;stroke-width:0.8695301497896686px"/><path d="M87.81,69.95a19.11,19.11,0,0,0,4.27,8.92c-3.68,1.56-5.86,1.45-9-.57-.85.46-1.81.91-2.67,1.45-4.45,2.8-9.13,1.52-10.22-2.79-.67-2.67-1.41-5.32-2.11-8a2.78,2.78,0,0,0-2.59-2c.06-1.24,1.89-2.53,4-2.8s4.15.62,4.83,2.19c.42,1,.67,2,1,3,.58,2,1.08,4,1.78,6a3,3,0,0,0,1.48,1.66,5,5,0,0,0,2.7.21c.5-.1,1.19-.9,1.1-1.28-.51-2-1.24-3.91-1.9-5.86-1-2.72-1.89-5.5-3.93-8a11.53,11.53,0,0,1,5.83-1.19c1.27.1,2.16.48,2.53,1.44C85.83,64.91,86.82,67.43,87.81,69.95Z" style="fill:#f8f8f8;stroke:#000;stroke-miterlimit:10;stroke-width:1.304295224684502px"/><path d="M150.33,96.44l1.38,4.27a10.86,10.86,0,0,1-6.26-.4,2.87,2.87,0,0,0-2.73,0c-5.36,2.5-11.33.79-13.34-3.71a8.28,8.28,0,0,1,1.07-9.13c2.17-2.63,7.73-4.29,11.39-.83-3.33.72-5.85,2.09-6.13,4.88-.23,2.36-.48,4.78,2.25,6.89h-2.64c1.31,1.19,2.92,1,4.42,1a3.14,3.14,0,0,0,2.93-1.51,3.35,3.35,0,0,0,.42-1.12,30.57,30.57,0,0,0-.4-10,16.37,16.37,0,0,0-1.45-3.38l3-.78.65-.08,2,.25a3.54,3.54,0,0,1,2.44,2.84.25.25,0,0,0,0,.24C149.3,89.33,149.1,92.92,150.33,96.44Zm-4.72-6.52h0l-.35-.54-.34,0,.15,2.52.73.1,1.09-2.69C145.8,89.18,147.06,90.57,145.61,89.92Z" style="fill:#a4a4a4;stroke:#000;stroke-miterlimit:10;stroke-width:0.8695301497896686px"/><path d="M101,78c-3,.92-5.47-.28-7.76-1.35-1.08-.5-1.57-1.82-2.12-2.84-.69-1.27-1.16-2.61-1.72-3.91C89,66.8,90.51,64,92.14,61.3c1.24-2.07,7.07-3.79,9.88-3,1.49.4,2.7,1.57,2.38,3a16.75,16.75,0,0,1-2,4.74,12.79,12.79,0,0,1-2.56,2.58c-1.43,1.29-1,2.6,1.2,3.14a5.22,5.22,0,0,0,5.51-1.47,31.92,31.92,0,0,0,2.07-3.41c.22,2.23,1.56,4.24-.54,6.12l-3.17,3.18-.86.61-1.85.89ZM99.82,61.68c-2.53,1-2.94,3.72-1.59,6.09C100.25,65.92,100.28,63.87,99.82,61.68Z" style="fill:#f8f8f8;stroke:#000;stroke-miterlimit:10;stroke-width:1.304295224684502px"/><path d="M158.27,42.2l.7,1.69.39.3c.79.61.67,1.18,0,1.82a5.34,5.34,0,0,1-4.75,1.08,2.89,2.89,0,0,1-2.39-2.8c-.09-2.19,0-4.39,0-6.59a8.85,8.85,0,0,0-.47-1.89l-.26-.51h0l-.31-.88-.26-.39-.47-.51-.64-.32h-1.09l-1,.46-.87,1.16a.17.17,0,0,0,0,.22l.17,1,.11,1.31.6,3.1a37.46,37.46,0,0,0,.69,4c.17.61.82,1.14,1.25,1.71l-.38,1h-.11l-.09,0a.56.56,0,0,0-.31.07l-2.79,0-.66-.09a3.51,3.51,0,0,1-3-3.13c-.32-2.75-.42-5.51-.83-8.25A50.87,50.87,0,0,0,140,30.41c2.07-1.38,4.74-.76,6.85,2,.83-.54,1.65-1.06,2.45-1.59a5.56,5.56,0,0,1,7.25.62l.66,2.87.09.78.26.56,0,4.12.32,1.55.1.54Z" style="fill:#a4a4a4;stroke:#000;stroke-miterlimit:10;stroke-width:0.8695301497896686px"/><path d="M132.27,38.62l-.13-1a.18.18,0,0,0,0-.21,46,46,0,0,0-1.32-5c-.37-1-.21-1.39,1.13-1.65,3.48-.65,5.34.31,5.69,3,.46,3.57.91,7.14,1.47,10.71a7,7,0,0,0,1,1.92c.54,1,.17,1.46-1.22,1.24a31.11,31.11,0,0,1-4.71-1.13,3.07,3.07,0,0,0-2.78.06,20,20,0,0,1-4,1.63,3.6,3.6,0,0,1-3.83-.77c-1.21-1.38-2.22-2.84-1.94-4.6.19-1.16.36-2.32.55-3.48a5.61,5.61,0,0,0-1.24-5.1c-.23-.26.05-1,.43-1.32a4.17,4.17,0,0,1,4.11-1c1.57.57,2.67,1.56,2.63,3s-.41,2.67-.46,4a36.22,36.22,0,0,0,.12,4.77c.09,1,1.39,1.7,2.68,1.58,1.67-.16,2.45-.87,2.26-2.06-.09-.56-.19-1.11-.28-1.67l1.28-1.93.37.16-.15-2.08Zm3.08,0h-.49l.59,4.49H137V39h-.4v2.51C134.77,40.92,135.45,39.69,135.35,38.66Zm-10.52.74c-.14-.72,1.14-1.75-.87-2.22l-.39,1.8,1.11-.37Z" style="fill:#a4a4a4;stroke:#000;stroke-miterlimit:10;stroke-width:0.8695301497896686px"/><path d="M92.4,36.52c3.65,2.05,5.22,3.69,2.14,6.92-1.43,1.5-3,2.94-4.5,4.4-1.93,1.86-3.18,3.91-3.06,6.32.07,1.45,1.67,2.08,3.6,1.38l-1.26-.48c.13-1.59.17-3,.4-4.47a2.75,2.75,0,0,1,1-1.53c1-.82,2.12-1.53,3.46-2.46a16.14,16.14,0,0,1,1.71,3A7.68,7.68,0,0,1,95,56.55c-1.39,2.05-6.82,3.17-9.4,2a4.1,4.1,0,0,1-2.32-3.6c-.51-3.8.92-7.23,4.09-10.16C90,42.36,91.92,39.79,92.4,36.52Z" style="fill:#a4a4a4;stroke:#000;stroke-miterlimit:10;stroke-width:0.8695301497896686px"/><path d="M146.64,60.78a2.58,2.58,0,0,0-1.12,2.59c.09.73-.17,1.48-.07,2.2.26,2-1.29,2.7-3.42,3.23a8.32,8.32,0,0,0-2.79,1.31c-1.81,1.32-3.57,1.11-4.57-.63a5.37,5.37,0,0,1,.2-5.79,3.13,3.13,0,0,1,3.38-1.53,2.4,2.4,0,0,0,1.08-.21c1.92-.75,2.62-.42,2.51,1.23a17.91,17.91,0,0,0-.28,2.32,11.71,11.71,0,0,0,.6,2.27l.58,0a5.07,5.07,0,0,0,.19-.91c0-1.13,0-2.25.05-3.38.06-2.2.92-4.06,4.23-5-3.7-1.35-2.94-3.77-3-6a1.83,1.83,0,0,1,.73-1.41,6,6,0,0,1,2.82-1.34c1.41,0,1.61,1.12,1.91,2,.87,2.5-.15,4.66-2,6.69v.78l0,0-2.42,1,.07.33,1.31.18Zm1.42-10-.65.12c-1.14,1.44-1.47,3.1-.77,4.3.16.28.58.47.88.7.28-.25.72-.47.8-.75a6.39,6.39,0,0,0,.33-2.18A11.14,11.14,0,0,0,148.05,50.79ZM138.81,64c-1.29.92-1.68,4-.76,4.78a1.19,1.19,0,0,0,.85.24c.35-.15.85-.48.82-.69C139.5,67,139.15,65.56,138.81,64Z" style="fill:#a4a4a4;stroke:#000;stroke-miterlimit:10;stroke-width:0.8695301497896686px"/><path d="M150.43,60.8c.46-1.23.49-2.78,2.81-2.86a13,13,0,0,1,3.08.75l2.7-2.21c1.19,1.72,2.35,3.23,3.3,4.82a1.91,1.91,0,0,1-.79,2.79,6,6,0,0,1-3.18.72c-.67-.06-1.19-1-1.78-1.56l.38-.31,2.1.23-.7-2.73c-1.62.22-2.33.68-2.52,1.71-.37,2-.89,2.35-3.57,2.83-.57.1-1,.58-1.58.71A5.81,5.81,0,0,1,148,66c-.56-.18-.85-1.1-1-1.72a18.33,18.33,0,0,1,0-2.33,4.13,4.13,0,0,0-.43-1.14l0,0,1.49-1.26a.22.22,0,0,0,.2,0l.31.07.9.44.35,5.1h.89a4.31,4.31,0,0,0,.22-1.3C150.89,62.83,150.64,61.81,150.43,60.8Zm2.71.27,0-.08.05.06.43,2.19C154.86,61.47,154.79,61.28,153.14,61.07Z" style="fill:#a4a4a4;stroke:#000;stroke-miterlimit:10;stroke-width:0.8695301497896686px"/><path d="M37.68,42.53a70.49,70.49,0,0,1-6.79-2.41,18,18,0,0,1-6.29-4.94c-.65-.79-1.57-1.65-.26-2.53a3.31,3.31,0,0,1,4,.6,2.08,2.08,0,0,1,.56.8c1.2,3.83,4.74,6.17,9,8Z" style="fill:#a4a4a4;stroke:#000;stroke-miterlimit:10;stroke-width:0.8695301497896686px"/><path d="M162.49,95c1.41-.31,2.81-.68,4.24-.88a2.3,2.3,0,0,1,1.66.49c.56.73,1.34,1.71,1.09,2.37-.37,1-1.89.83-3.12.69a34.1,34.1,0,0,0-5.53-.45,10.26,10.26,0,0,0-3.41,1.27,22.39,22.39,0,0,0-2.17,1.28V98.48h0c.27,0,.62,0,.79-.09,1.44-1,2.84-1.94,4.25-2.92Z" style="fill:#f8f8f8;stroke:#000;stroke-miterlimit:10;stroke-width:0.43476507489483357px"/><path d="M122.64,81.34c-1.15,1-2.23,2.06-3.47,3a11.71,11.71,0,0,1-2.26,1,8.93,8.93,0,0,1-.8-2.1,6,6,0,0,1,.4-1.91l.5-.72,1.31-1.74v0a.2.2,0,0,0,.21-.07,3.34,3.34,0,0,1,3-.3C123.7,79.15,124,79.94,122.64,81.34Z" style="fill:#a4a4a4;stroke:#000;stroke-miterlimit:10;stroke-width:0.8695301497896686px"/><path d="M37.55,45a18.63,18.63,0,0,0-3.11.38c-1.82.54-3.57,1.23-5.31,1.91a11.41,11.41,0,0,1-2.14,1A9,9,0,0,1,24.5,48c.16-.54.07-1.26.51-1.6,2.3-1.82,5.38-2.14,8.49-2.13a35.93,35.93,0,0,1,4.08.46Z" style="fill:#a4a4a4;stroke:#000;stroke-miterlimit:10;stroke-width:0.8695301497896686px"/><path d="M136,20.22a14.38,14.38,0,0,1,1.2-2.34,2.07,2.07,0,0,1,1.48-.55c.37,0,1,.59.93.89a22.18,22.18,0,0,1-.65,3A13.77,13.77,0,0,1,131.35,26,12,12,0,0,0,136,20.22Z" style="fill:#f8f8f8"/><path d="M137.83,54.37c1.12-1.27,2.13-2.46,3.21-3.6a1.53,1.53,0,0,1,1-.28.74.74,0,0,1,.5.58c-.34,2.7-.73,5.4-1.12,8.1,0,.16-.21.3-.57.78a8.09,8.09,0,0,1-.76-1.59,11.42,11.42,0,0,1-.06-1.81C140,55,140,55,137.83,54.37Z" style="fill:#a4a4a4;stroke:#000;stroke-miterlimit:10;stroke-width:0.8695301497896686px"/><path d="M31,42.82c-4.64,0-8.41-.82-11.3-3.43a1,1,0,0,1,.06-1.69c.37-.26,1.3-.13,2-.07.28,0,.52.31.76.49a35.71,35.71,0,0,0,3.78,2.78A41.3,41.3,0,0,0,31,42.82Z" style="fill:#a4a4a4;stroke:#000;stroke-miterlimit:10;stroke-width:0.8695301497896686px"/><path d="M155.26,98.48l-1,.09.47-1,.35-.53.53-1-.15-4.39,0-.37V90.7c.3-.8-.42-2,1.43-2.21,1.65,1,1.38,2.53,1.35,3.87a14.1,14.1,0,0,1-.84,3.28l-2.16,2.86Z" style="fill:#f8f8f8;stroke:#000;stroke-miterlimit:10;stroke-width:0.43476507489483357px"/><path d="M30,88.09l-3.44-.79c-1,0-2,0-3-.1-1.39-.08-2.78-.21-4.17-.32-.81-1-.62-1.61.85-1.68a16.43,16.43,0,0,1,5.33.41A21.9,21.9,0,0,1,30,88.1Z" style="fill:#a4a4a4;stroke:#000;stroke-miterlimit:10;stroke-width:0.8695301497896686px"/><path d="M135.22,25.66a18,18,0,0,1,10.52-1.08c.48.1.81.63,1.21,1-.48.25-.95.68-1.44.7-1.07,0-2.14-.2-3.22-.26C139.9,25.84,137.51,25.75,135.22,25.66Z" style="fill:#f8f8f8"/><path d="M52.8,17.2l-.5.09.35-.21Z" style="fill:#f8f8f8"/><path d="M64.51,15.44l.11.06-.08,0Z" style="fill:#f8f8f8"/><path d="M84.27,108.35a28.93,28.93,0,0,0-1.34,5.22c-.27,4.48,4.21,7.75,10.08,8.3,9.17.85,16.35-2.2,23.29-6.06q9-5,18.07-9.85a29,29,0,0,1,14.81-3c5.27.22,10.49,1.4,13.33,5.24,1.11,1.51,1.23,3.46,1.65,5.23a17.17,17.17,0,0,1,.21,3l-.74.26c-.69-.63-1.46-1.22-2.07-1.9-2.43-2.69-6.05-3.75-10-4.32a21.94,21.94,0,0,0-15.1,3.21c-9,5.5-17.95,10.94-28.19,15.1a87,87,0,0,1-13.87,4.64,31.12,31.12,0,0,1-20.67-2.12,8.88,8.88,0,0,1-4.94-10.95c1.93-5.55,6.36-9.6,13.63-11.64C83,108.56,83.59,108.48,84.27,108.35Z" style="fill:#f8f8f8;stroke:#000;stroke-miterlimit:10;stroke-width:0.8695301497896686px"/><path d="M107,114.12c-2.31.9-4.54,1.94-6.94,2.64-2.23.65-6.5-.92-7.78-2.73a15.47,15.47,0,0,1-3.22-8.26c-.1-2.59.06-5.19,0-7.79,0-1.16-.2-2.32-.3-3.49s-.85-2.12-2.44-2.63a7,7,0,0,1,4.87-2.63c2.65-.4,4.65.39,5.19,2.38.8,3,1.3,5.95,1.84,8.94.6,3.34,1.05,6.69,1.67,10,.43,2.33,3.39,3.68,6.83,3.21Zm-11.94-6.34L94,104.7l-.42.08-1.2,2,.39.55.23-.3Zm-2.56-2.2v-.21h-.75v.16Z" style="fill:#a4a4a4;stroke:#000;stroke-miterlimit:10;stroke-width:0.8695301497896686px"/><path d="M116.3,87.2c.75-.23,1.5-.44,2.23-.68,2.78-.9,5.46,0,6.12,2.22,1.16,4,2,8,3.13,12a44.56,44.56,0,0,0,1.81,4.54c-3.52,1.65-8.57-.2-9-3.6A38.28,38.28,0,0,0,117.69,90C117.28,89.09,116.81,88.21,116.3,87.2Z" style="fill:#a4a4a4;stroke:#000;stroke-miterlimit:10;stroke-width:0.8695301497896686px"/><path d="M73.58,109.16a19.46,19.46,0,0,0-3.07,2.48,29.51,29.51,0,0,0-2.79,4.4,2.29,2.29,0,0,1-2.67,1.29c-1.23-.54-1.08-1.32-.49-2.23a12.25,12.25,0,0,1,9-5.94Z" style="fill:#a4a4a4;stroke:#000;stroke-miterlimit:10;stroke-width:0.8695301497896686px"/><path d="M73,107.71c-.21.12-.4.32-.62.34-2.8.35-4.72,1.8-6.81,3.06-1,.61-2.34,1.73-3.47.62-1-1,.62-1.79,1.62-2.31,2.74-1.42,5.94-1.72,9.12-2Z" style="fill:#a4a4a4;stroke:#000;stroke-miterlimit:10;stroke-width:0.8695301497896686px"/><path d="M158.69,100.3a12,12,0,0,1,7.77.07c1,.3,1.9.78,2.87,1.15,1.22.46,1.55,1.14,1,2.22C166.4,102.61,163.31,100,158.69,100.3Z" style="fill:#f8f8f8;stroke:#000;stroke-miterlimit:10;stroke-width:0.43476507489483357px"/><path d="M73.59,109.17h0Z" style="fill:#a4a4a4;stroke:#000;stroke-miterlimit:10;stroke-width:0.8695301497896686px"/><path d="M42.89,88.37c-.36-.47-.71-.74-.79-1.06-.21-.88-.29-1.77-.43-2.64,1,.33,1.62.93,1.24,2A5.94,5.94,0,0,0,42.89,88.37Z" style="fill:#a4a4a4;stroke:#000;stroke-miterlimit:10;stroke-width:0.8695301497896686px"/><path d="M28.31,85a8.78,8.78,0,0,1-5.26-5.09c-.14-.33.42-1.15.78-1.2a2.23,2.23,0,0,1,1.7.58c.42.76.33,1.68.72,2.46a36.08,36.08,0,0,0,2,3.26Z" style="fill:#a4a4a4;stroke:#000;stroke-miterlimit:10;stroke-width:0.8695301497896686px"/><path d="M28.29,85l.22.06-.2-.07Z" style="fill:#a4a4a4;stroke:#000;stroke-miterlimit:10;stroke-width:0.8695301497896686px"/><path d="M30,88.1l.35.26h0L30,88.09Z" style="fill:#a4a4a4;stroke:#000;stroke-miterlimit:10;stroke-width:0.8695301497896686px"/><path d="M30.37,88.36h0Z" style="fill:#a4a4a4;stroke:#000;stroke-miterlimit:10;stroke-width:0.8695301497896686px"/><path d="M145.61,89.92l-.06.46-.17,0,.24-.42Z" style="fill:#a4a4a4;stroke:#000;stroke-miterlimit:10;stroke-width:0.8695301497896686px"/><path d="M55.23,163.79c-3.14-.07-8.48,1.17-11.31-.37-4.1-2.24-1.15-6.7-4.48-8.37-2.21-1.11-10.45-.63-12.6.82-4.52,3-.8,7-6.68,8.11-2.2.42-18.33,1.41-19.83-.38-1.78-2.12,4.36-15.76,5.17-18.5q2.77-9.31,5.52-18.62c2-6.67,3-15.57,6.4-21.73,2.8-5,8.55-3.23,14.52-3.22,3,0,15.18-1.62,16.72.77.76,1.19-1.55,2.79-.09,4.24,1,1,5.67.12,7,.25,2.55.24,5.56,1.94,8,1.77s4.71-1.42,7.72-1.5c29.23-.81,59-.48,88,.79,4.1.18,7.85-.76,11.89-1,3.24-.17,8.65,1.36,11.61.33,4-1.39,2.55-5.13,8-5.85,3.15-.42,17-1.14,18.6,1.06s-3.3,14.27-4.25,16.87c3.29-11.29,13.55-14.51,25.61-12.07,3,.61,6.71,2.59,6.08-1.07-.35-2.05-6.91-6.47-8.6-8L217.7,88.14c1.2-21.71,21.53-2.45,29.42,5.37,5.23-12.57,20.31,6.07,25.92,9.74a68.92,68.92,0,0,0,8.74,4.93c1.59.74,8,2.2,9,3.59,1.83,2.68-3.64,10.27-5.74,13.08-1.55,2.07-2.83,2.51-2.91,4.54-.09,2.45,1.66,5.15,1.59,7.81-.18,6.88-4.79,13.06-11.42,16.14a26,26,0,0,1-18,1.17c-3.76-1.05-4.16-1.37-8.19-.54-3.74.78-6.91,1.08-10.74,1.5-7.63.85-1.51,2.46-5.22,6.91-2.36,2.84-14,1.51-17.45,1.39-2.18-.08-4.35.48-5.61-1.49-1.16-1.82,1.36-4.25.52-5.68-1.82-3.1-11.39-1.64-15.24-1.7-4.57-.07-7,.13-8.28,4.33-1,3.31,1.13,3-1.76,4.47-2,1-8.65.07-11.06.07-1.56,0-7.84.8-9.25-.25-1.82-1.35-.58-2.35-1-4.08-.68-3.05,1-3-2.38-4.49-2.69-1.22-10.2.36-13.1.42-19,.39-38.12-.06-57.16-.21l-14.23-.11c-.2,0-6.48-.5-7.11-.06-1.94,1.35-.84.5-1.4,2.83-.52,2.17,1.4,3.53-1,5.41C62.52,164.88,57.65,163.73,55.23,163.79Zm171.87-46.4c-.88-1.35.66-2.78-.39-3.92-.43-.46-5.23-.85-6-.82-6.12.32-6.81,3.55-9.38,8.46-2,3.86-10.74,28.48-18.66,20.9-1.64-1.57,3.2-13.38,3.86-15.71,1.18-4.16,5.9-13.12,4.94-16.9-.52-2-5.68-3.74-8.65-2.23-3.76,1.91-5.33,14-6.41,17.78-1.81,6.35-3.79,12.7-5.36,19.1-1.91,7.76,2.4,5.45,10.08,5.43,6.54,0,11.92,1.35,16.34-2.44,1.54-1.32,5.09-5.92,7.79-1.67,1.57,2.47-3.52,9.43-1.51,11.75.89,1,8,1.88,9.72.49,3.12-2.56,1.9-13.78,2.18-17.59C226.21,132.48,226.57,124.93,227.1,117.39ZM45.63,132.23c.37,4.48,1.16,8.94,1.31,13.43.1,2.92-1,7.24.77,9.87,1.26,1.91,2.91,2.52,5.25,2.82,4.5.58,5.3-.32,5.69-3.54.86-7.23-5.71-17.11-1.37-23.61,3.31-5,11.38-10.25,4.25-16.56-3.56-3.15-14.61-3.18-18.69-1-5.72,3-6.71,17.4-8.54,23.1-1.43,4.46-6.15,11.73,1,13C43.65,151.23,44.16,137.35,45.63,132.23Zm75.82,17c8.4,2.89,10-18.15,11.52-22.94,1.41-4.42,7-13.88-2-13.6-5.75.18-5.7,4.64-6.92,9-.34,1.2-2.73,9.51-5.92,5-1.07-1.51,3-8.38,3-10.38,0-3,.47-3.91-4.52-3.61-8.83.53-9.38,16.85-11.45,23.6-1.3,4.25-6.92,15.47,3.28,13.33,5.42-1.14,5-6.52,6.4-10.91.47-1.43,2.82-8,5.71-4C122.59,137.61,110.31,152,121.46,149.23Zm124.18-36.72c-12.77-1.27-12.52,14.88-15,22.84-2.8,9-5.53,16.13,7.82,14.46C256.46,147.57,270.56,112.44,245.64,112.52Zm-72.79,45.27c7.46,2.07,5.69-7.25,5.85-11.38.32-8.71.61-17.47,1.25-26.16.17-2.27,1.28-5.48-.42-7-.8-.72-7.16-1-8.29-.7-6.09,1.84-10.17,14.82-12.7,19.79-1.91,3.73-3.78,7.48-5.68,11.22-1.71,3.36-3.57,4.46-.4,6,6,2.82,7.08-3.55,10.22-5C173.7,139.24,161.6,160.56,172.85,157.78ZM30.77,107.3c-8-2.56-9.29,5.41-10.73,10.67C17.57,127,14.88,136,12.13,145c-1.39,4.54-8,16.94,3.39,13.31,6.05-1.93,6.11-11.4,7.48-16.23.61-2.16.74-5.65,2.72-7.21s4.69-.31,6.36-2.41c1.13-1.42.58-4.32-.24-5.11-1.94-1.85-3.5,1.84-3.85-2.44-.14-1.66,2.72-9.61,4.12-10.47,2.13-1.32,4.87.52,6.92-1.4C45.55,106.92,34,107.3,30.77,107.3ZM77.32,113c-9.41-2.83-9.73,7.39-11.27,13.16-1.17,4.4-7.62,16-5.23,20.64,1.66,3.2,10.24,3.75,13.41,2.62,1.94-.69,5.51-3.18,3.79-5.89-1.3-2-3.47.22-5.14-1-1.05-.78-1-3-.17-4.75,1.78-4,2.78-1.92,6-3.91,1.21-.76,3.9-3.61,2.81-5.52-.92-1.61-2.84.16-3.92-.86a4.63,4.63,0,0,1-.78-4.93c1.93-4.17,3.95-1,7.43-3.12,1.52-.91,3.63-4.34,2.05-6C85.22,112.31,78.79,113,77.32,113Zm23.48-.54c-5.42.17-10.42,2.31-13.12,6.77-4.43,7.3,1.25,10.23,3,16.61,2.33,8.34-6.19,4.54-9.92,8.29-4.5,4.52.78,5.82,5.25,5.93a16.44,16.44,0,0,0,13.47-6.28c4.31-5.72,2-9.85-.81-15.42-1.22-2.44-3.57-4.37-1.45-7.19,2.44-3.23,4.51-.34,7.18-1.43C111.59,116.85,106.45,112.64,100.8,112.47Zm50.89,0c-5.83,0-11.35,2.4-14,7.33-3.06,5.7,0,9.52,2.5,14.66,1.29,2.62,2.68,6.18-1.28,7.85-2,.86-4.22-.92-6.17,0-4.33,2-3.29,5.88-.12,7.27,13.19,5.79,22.39-9.73,17.68-19.19-1.38-2.77-5.06-5.79-2.75-9.1,2-2.81,4.36-.72,6.73-1.57C160.64,117.43,158.32,112.46,151.69,112.51Zm123.72,0c-6.15.2-11.69,3.74-13.6,9.18-2.57,7.31,5.65,10.77,4.8,16.82s-8,2-10.83,6.2c-3.22,4.82,1.79,5.36,6.46,5.3,6.33-.09,12.48-3.76,14.57-9.42,2.5-6.76-3.61-9.62-4.82-15.4-1.47-7,6.34-4.13,9.45-6.61C287.24,113.94,279.4,112.52,275.41,112.5Z" style="fill:#4a4a4a"/><path d="M205.37,118.88c1.26-4.63,6.69-15,2-17.45-2.31-1.21-11.61-.09-14.61,0s-4.77-.23-6.77,1.9c-2.8,3,.22,3.29-4.85,3.85-4.81.54-9.82-.25-14.72.27-8.3.88-17.26-2.56-25.29-.28-3.27-4.45-12-18.49-2.85-21.56,2.66-.89,6.33,1.57,7.78-.92,1.79-3.07-1.18-10,.27-13.83,8-21.41,39.25,18.32,44.34,14.72,3.52-2.49,1-6.55,7.11-7.15,4.62-.46,9.7,2.9,13.28,5.2a95,95,0,0,1,13.7,11.17c2.2,2.06,12.27,9,12.5,11.65.29,3.29-10.9.32-14.27.33-9.15,0-15.72,3.4-17.67,12.11Z" style="fill:#acacac"/><path d="M55.23,163.79c3.35-.09,8.58,1.44,10.59-1.9,2.93-4.87-4.33-6.59,4.77-6.85,14.19-.4,28.49.22,42.69.31,7.11,0,14.23.09,21.35.1,6.75,0,15.2-1.49,21.81-.51,5.8.86,3.48,1.23,4.43,5.48,1.12,5,5.1,3.28,10.37,3.36C143.47,195,82.8,195,55.23,163.79ZM93,169.63c1.63,1.9,4,1.45,5.9.24,3.41-2.22,1.41-3.06,1.54-6,.09-2.11-1.71-1.29-.66-3.4-.08.17,4-.47,3.37-1.81-1.27-2.9-6.73.25-7.44,1.86-1.69,3.8,3.6,6.64-2.75,9.12-3.39-2.69-.6-4.41.48-6.66-.72,1.51-.33-2.88-.43-2.47.17-.66,2.8-.34,2.63-1.75-.22-1.85-5.06-.88-6-.11-2,1.74-2.59,9.47-2.87,11.8C88.89,170.41,91.17,171.39,93,169.63Zm41-10.22c-.46,1.93-5.16,14.91.95,10.37,1-.76,3.14-8.35,2.92-9.56-.25-1.38-1.71-5-3.92-.76.56-2.57-2.34-1.35-3.48-.5-1.36,1-.82,3.21-1.84,4.49l-.94,0c.33-1.72,2-4.91-.42-5.58-3.78-1.07-2.84,5.1-2.94,6.75-.13,2.22-1.53,6,1.78,5.93S132.75,161.69,134,159.41Zm-25.6,10.41c-5.34-6.45.36-6.53,2.89-11.4-5.3-2.15-9.49,3.41-9.28,7.95.3,6.47,7,4.07,12,3.2,4.11-.71,3.45,2.88,4.19-3.34.12-1,1.29-6.88.5-7.72C114.4,153.89,109.38,168,108.42,169.82Zm31.09,1.08c7.48-.93,11.33-15.07,2.52-12.8-4.07,1-3.8,3.86-4.49,7C136.5,169.85,136.06,168.84,139.52,170.9Zm-58.06-6c.23,2.71.83,8.89,4.29,4.11,0,0-.07-4.53.05-5,.58-2.33,4.08-3.51.35-6-6-4-9.39,6.45-9.15,9.86.06.77-1.6,4.28,1.88,2.77C80.65,169.86,81,166.42,81.46,164.91Zm71.89-7c-2.72-.65-8.48,12.07-8.05,12.34,1.91,1.19,3.62-1.19,5.46-1.14s1.17,2.26,3.53,1C155.94,169.29,157.25,157.17,153.35,157.93Zm-77.15.19c-4.49-1.21-7.28,7.48-6.41,10.44.38,1.28-1.27,1.05.41,2,2.55,1.43,2.25-1.31,3-2.09a18.41,18.41,0,0,0,2.5-3.5c.4-1.25-.43-3.07-.12-3.77.51-1.17,3.13-.72,2.76-1.94C77.7,157.14,77.69,158.94,76.2,158.13Z" style="fill:#5c5c5c"/><path d="M215.73,80.61l-1.22,1.57-2.06-1.66s3-2,3.33-1.28Q215.72,79.93,215.73,80.61Z" style="fill:#b1b1b1"/><path d="M241,158.29l-7.13,2.06C235,156,238.89,159.62,241,158.29Z" style="fill:#b1b1b1"/><path d="M188,80.83l-.87-1.37,2.51-.45-.43,1.35-.57.51Q188.94,80.65,188,80.83Z" style="fill:#fbfbfb"/><path d="M218.12,76.67l-.43.07C217.78,76.31,218,76.11,218.12,76.67Z" style="fill:#fbfbfb"/><path d="M14.68,102.27l.18-.91q.8.23-.11,1Z" style="fill:#fbfbfb"/><path d="M27.63,161.33l-.11.92q-.69-.15.13-.89Z" style="fill:#b1b1b1"/><path d="M268.56,157.88c-.5.55-1,.68-1.54,0Z" style="fill:#b1b1b1"/><path d="M131.4,87.7l.17-.61.18.13-.39.44Z" style="fill:#b1b1b1"/><path d="M185.41,78.88l.19.13-.24-.08Z" style="fill:#fbfbfb"/><path d="M185.36,78.92l-.19-.12.23.08Z" style="fill:#fbfbfb"/><path d="M188,80.83h0Z" style="fill:#b1b1b1"/><path d="M188.6,80.87l.57-.51Z" style="fill:#b1b1b1"/><path d="M227.1,117.39c-.53,7.54-.88,15.09-1.43,22.63-.24,3.27.7,15.24-2.18,17.59-1.32,1.08-8.77,1.07-9.71,0-1.89-2.09,2.49-9.1,1.41-11.51-2.27-5.06-5.6-.69-7.69.9-2.66,2-.41,1.39-4.07,2.53-2.78.86-7.45-.09-10.52-.09-6.11,0-12.94,2.62-12.29-3.84.68-6.71,3.94-14.13,5.82-20.69,1.19-4.17,2.11-14.92,5.71-17.43,2.25-1.57,8.65-.6,9.49,1.2,1.18,2.53-4.23,14.58-5.09,17.58-.74,2.61-5.69,13.58-4.43,15.32,6.92,9.51,17.53-17.29,19.23-20.51,2.4-4.56,3.45-8.31,9.38-8.46.61,0,5,.2,5.5.62C228,114.7,226,115.64,227.1,117.39Zm-9,5.85c-1.09,2.45-7.7,13.3-5.37,14.95C217.24,141.37,217.84,125.11,218.1,123.24Z" style="fill:#acacac"/><path d="M45.63,132.23c-1.52,5.27-2,17.49-9.43,17.52-7.82,0-3.78-7.32-2.37-11.6,1.81-5.46,3.1-20.92,8.05-24.11,4-2.56,16-2.67,19.65.59,6.34,5.61.15,11.22-3.44,15.77-4.61,5.84-.31,16,.35,22.93.37,3.91.75,5.14-4.45,5-2.4-.07-4.33-.4-5.84-2.21-2.05-2.45-1.1-6.24-1.15-9.08C46.91,142.09,46,137.17,45.63,132.23Zm7.74-10.36c.14-8.34-9.43,4.45-6.61,7.19C50,132.2,53.1,122.9,53.37,121.87Z" style="fill:#fbfbfb"/><path d="M121.46,149.23c-11.1,2.76,1.14-11.62-.95-14.49-3.08-4.26-5.38,3-5.71,4-1.27,3.79-1.14,9.12-5.32,10.8-11.07,4.44-5.46-9.63-4.36-13.22,1.56-5.08,2.77-10.24,4.3-15.33s1.49-7.85,7.15-8.27c11.77-.89-1.09,9.66,1.54,14,2.51,4.13,5.15-2.49,5.54-3.7,1.4-4.27.92-9.11,6.19-10.19,10.33-2.13,4.49,9.27,3.13,13.48C131.45,131,129.84,152.12,121.46,149.23Z" style="fill:#fbfbfb"/><path d="M245.64,112.52c24.92-.08,10.83,35.05-7.17,37.3-12.26,1.53-11-4.15-8.26-13.05C232.75,128.62,232.55,111.21,245.64,112.52Zm3,11c-.62-7.84-3.84-2.35-5,1.78-.6,2.21-5.8,16.78-4.29,17.31C245,144.56,248.06,126.63,248.65,123.51Z" style="fill:#acacac"/><path d="M172.85,157.78c-11.55,2.85,1.16-17.59-9.63-13.51-4.11,1.55-3.36,6.89-9.92,5.24-3.75-.94-2.93-.86-1.17-4.56,2-4.25,4.25-8.43,6.39-12.62,2.54-5,6.31-17.12,11.85-19.52,1.53-.66,6.71-.5,8.14.35,2.64,1.58,1.78,2.15,1.5,5.44-.72,8.68-.91,17.46-1.26,26.16C178.6,148.94,180.76,160,172.85,157.78ZM171.25,123c-2.17,4.91-4.84,9.85-6.17,15C172.16,138.56,170.56,128.11,171.25,123Z" style="fill:#acacac"/><path d="M30.77,107.3c3.29,0,13.73-1.14,8.72,5.22-2.07,2.64-4.51.21-6.79,1.5-2.5,1.41-3.64,7-4.18,9.54-1.33,6.27.77,1.25,2.71,3.8.71.93,2.31,2,1,4.42-1.6,2.85-3.5,1-6,2.73s-2.51,5.09-3.23,7.61c-1.29,4.53-1.41,13.81-6.68,16-11.22,4.75-6.06-7-4.68-11.54,2.76-9,5.51-18,8-27C21.07,114.19,22.15,104.55,30.77,107.3Z" style="fill:#fbfbfb"/><path d="M77.32,113c.93,0,8-.64,8.68,0,1.49,1.33.34,5-1,6.15-2.74,2.31-5.9-.66-8.06,2.83-.72,1.17-.66,4.85.14,5.47,1.1.86,3.48-.73,4.43.55s-1.29,5.12-2.17,5.73c-3.39,2.34-4.71-.35-6.61,4.07-.77,1.8-.95,3.93.17,4.75,1.79,1.33,3.73-1,5.14,1,1.24,1.81-1.08,5-2.64,5.77-2.6,1.28-12.71.81-14.45-2.11-2.55-4.26,3.59-15.67,4.72-19.65C67.33,121.71,67.36,110,77.32,113Z" style="fill:#fbfbfb"/><path d="M100.8,112.47c4.78.14,11.25,3.63,4.27,7.33-2.58,1.37-5.24-2.05-7.83,1.38-1.75,2.32-.37,4,.68,6.12,2.8,5.55,6.15,9.5,2.22,15.63A16.45,16.45,0,0,1,86,150.06c-4.85-.11-8.39-.71-5.62-5.07,3.13-4.93,10.94-.28,10.62-7.94-.12-2.83-3.58-5.34-4.49-8.07a11,11,0,0,1,.54-8.49C89.48,115.27,94.79,112.66,100.8,112.47Z" style="fill:#fbfbfb"/><path d="M151.69,112.51c6.62,0,9,4.93,2.6,7.22-3,1.06-4.31-1.89-6.73,1.57s1.37,6.33,2.75,9.1c4.73,9.51-4.55,24.95-17.68,19.19-3.37-1.48-4-5.1.12-7.27,1.9-1,4.08.92,6.17,0,4-1.68,2.56-5.24,1.28-7.85-2.58-5.26-5.59-8.84-2.5-14.66C140.31,114.91,145.88,112.49,151.69,112.51Z" style="fill:#acacac"/><path d="M275.41,112.5c4,0,11.7,1.55,6,6.07-3.18,2.54-11-.73-9.45,6.61,1.26,6,7.41,8.41,4.82,15.4-2.08,5.64-8.27,9.32-14.57,9.42-4.58.07-9.56-.53-6.46-5.3,2.79-4.28,10-.1,10.83-6.2s-7.23-9.62-4.8-16.82C263.66,116.2,269.31,112.69,275.41,112.5Z" style="fill:#acacac"/><path d="M205.35,118.86l-.12.41.14-.39Z" style="fill:#acacac"/><path d="M108.42,169.82c1-1.85,6-15.93,10.3-11.31.79.84-.39,6.73-.5,7.72-.74,6.22-.08,2.62-4.19,3.34-5,.86-11.7,3.26-12-3.2-.21-4.54,4-10.1,9.28-7.95C108.78,163.29,103.08,163.37,108.42,169.82Zm7-6.39-.79-.21-1.1,3.29C114.82,166.81,115.1,164.37,115.44,163.43Z" style="fill:#fbfbfb"/><path d="M139.52,170.9c-1.64-1-2.13.23-3-1.28.11.19,1-4.5,1.05-4.52.69-3.14.36-5.93,4.49-7C150.85,155.83,147,170,139.52,170.9Zm3.69-12.62L140.37,168C142.94,165.78,143.94,163.19,143.21,158.28Z" style="fill:#fbfbfb"/><path d="M81.46,164.91c-.48,1.5-.81,4.95-2.58,5.72-3.47,1.52-1.82-2-1.88-2.77-.25-3.4,3.13-13.84,9.15-9.86,3.73,2.47.23,3.65-.35,6-.13.51,0,5-.05,5C82.29,173.8,81.69,167.62,81.46,164.91Zm.06-.83c1.38-.78,3.95-3,1.56-4.09Z" style="fill:#fbfbfb"/><path d="M153.35,157.93c3.9-.77,2.59,11.36.93,12.22-2.37,1.23-1.63-1-3.53-1s-3.55,2.33-5.46,1.14C144.87,170,150.64,157.28,153.35,157.93Zm-1.17,5.72-.82-.15-.93,3Q152.72,167.23,152.18,163.65Zm0-1.48q-.26,0-.21.27l.29-.07Z" style="fill:#fbfbfb"/><path d="M134,159.41c-1.22,2.2-5.23,13.13-8.93,11.16-2.06-1.1-.92-6.4-.61-8.36.21-1.32,1.11-7.55,4.22-3.51.42.54-1,6-1,7.1.6-1.5,1.15-4.49,2.1-5.66.73-.9,4.91-4.15,4.16-.69Z" style="fill:#fbfbfb"/><path d="M93,169.63c-1.82,1.76-4.1.78-6.2.87.28-2.38.79-10.19,2.87-11.8,1.17-.9,5.57-1.85,6,.11.21,1-2.55,1.45-2.63,1.75s0,3.41.43,2.47c-1,2.18-3.72,4.09-.48,6.66Z" style="fill:#fbfbfb"/><path d="M92.94,169.69c6.35-2.47.9-5.39,2.75-9.12.77-1.56,7.16-4.81,7.44-1.86.15,1.61-3.24,1.47-3.37,1.81-.61,1.65.74,1.85.66,3.4-.11,2.25,1.34,2.9-.64,5.13-1.67,1.89-4.89,2.79-6.79.58Z" style="fill:#fbfbfb"/><path d="M76.2,158.13c.9.49,1.48-.75,2.36.46,1.24,1.71-2.41,1.38-2.81,2.31-1.09,2.52.47,4.63-2.53,7.58-1.93,1.9-2.29,3.35-3.62.45C68.41,166.34,72.21,157.05,76.2,158.13Z" style="fill:#fbfbfb"/><path d="M134,159.46c1.6-3.09,3.63-1.27,4.14.29.33,1-2.64,9.65-3.15,10-6.17,4.52-1.37-8.59-.95-10.37Z" style="fill:#fbfbfb"/><path d="M128.64,163.44l-.94,2.37c0-1.36,0-1.85,0-2.35Z" style="fill:#b1b1b1"/><path d="M218.1,123.24c-.24,1.73-.91,18.11-5.37,14.95C210.36,136.51,217,125.8,218.1,123.24Z" style="fill:#4a4a4a"/><path d="M53.37,121.87c-.32,1.18-3.32,10.37-6.61,7.19C44,126.34,53.52,113.56,53.37,121.87Z" style="fill:#4a4a4a"/><path d="M248.65,123.51c-.56,2.91-3.71,21-9.25,19.09-1.42-.5,3.84-15.65,4.29-17.31C244.78,121.18,248,115.78,248.65,123.51Z" style="fill:#4a4a4a"/><path d="M171.25,123c-.69,5.1.91,15.55-6.17,15C166.41,132.86,169.08,127.92,171.25,123Z" style="fill:#4a4a4a"/><path d="M115.44,163.43c-.34.94-.61,3.38-1.89,3.07l1.1-3.29Z" style="fill:#5c5c5c"/><path d="M143.21,158.28c.73,4.91-.27,7.5-2.83,9.72Z" style="fill:#5c5c5c"/><path d="M81.52,164.08,83.08,160C85.47,161.1,82.9,163.3,81.52,164.08Z" style="fill:#5c5c5c"/><path d="M152.18,163.65q.54,3.58-1.75,2.89l.93-3Z" style="fill:#5c5c5c"/><path d="M152.22,162.16l.08.2-.29.07Q152,162.18,152.22,162.16Z" style="fill:#b1b1b1"/></g></g></svg>