<svg xmlns="http://www.w3.org/2000/svg" width="123.6" height="92.3" viewBox="0 0 123.6 92.3"><title>Producer2</title><g id="Layer_2" data-name="Layer 2"><g id="Layer_1-2" data-name="Layer 1"><g id="Layer_2-2" data-name="Layer 2"><g id="Layer_1-2-2" data-name="Layer 1-2"><g id="Layer_2-2-2" data-name="Layer 2-2"><g id="Layer_1-2-2-2" data-name="Layer 1-2-2"><path d="M4,0H119.6a3.7,3.7,0,0,1,4,3.3h0V88.9a3.7,3.7,0,0,1-3.9,3.4H4A3.7,3.7,0,0,1,0,89H0V3.4A3.7,3.7,0,0,1,3.9,0Z" style="fill:#1c1c2d"/><path d="M16.4,81.8a2.1,2.1,0,0,1-2,2.2H8.7a2.1,2.1,0,0,1-2-2.2h0V36.3a2.1,2.1,0,0,1,2-2.2h5.8a2.1,2.1,0,0,1,1.9,2.2h0Z" style="fill:#f1f1f1"/><path d="M27.6,81.8a2.1,2.1,0,0,1-2,2.2H19.8a2.1,2.1,0,0,1-2-2.2h0V36.3a2.1,2.1,0,0,1,2-2.2h5.8a2.1,2.1,0,0,1,2,2.2h0Z" style="fill:#f1f1f1"/><path d="M38.7,81.8a2.1,2.1,0,0,1-2,2.2H31a2.1,2.1,0,0,1-2-2.2h0V36.3a2.1,2.1,0,0,1,2-2.2h5.8a2.1,2.1,0,0,1,2,2.2h0Z" style="fill:#f1f1f1"/><path d="M49.9,81.8a2.1,2.1,0,0,1-2,2.2H42.1a2.1,2.1,0,0,1-1.9-2.2h0V36.3a2.1,2.1,0,0,1,2-2.2h5.8a2.1,2.1,0,0,1,1.9,2.2h0Z" style="fill:#f1f1f1"/><path d="M61.1,81.8a2.1,2.1,0,0,1-2,2.2H53.3a2.1,2.1,0,0,1-2-2.2h0V36.3a2.1,2.1,0,0,1,2-2.2H59a2.1,2.1,0,0,1,2,2.2h0Z" style="fill:#f1f1f1"/><path d="M72.2,81.8a2.1,2.1,0,0,1-2,2.2H64.4a2.1,2.1,0,0,1-2-2.2h0V36.3a2.1,2.1,0,0,1,2-2.2h5.8a2.1,2.1,0,0,1,2,2.2h0Z" style="fill:#f1f1f1"/><path d="M83.3,81.8a2.1,2.1,0,0,1-2,2.2H75.5a2.1,2.1,0,0,1-2-2.2h0V36.3a2.1,2.1,0,0,1,2-2.2h5.8a2.1,2.1,0,0,1,2,2.2h0Z" style="fill:#f1f1f1"/><path d="M94.4,81.8a2.1,2.1,0,0,1-2,2.2H86.7a2.1,2.1,0,0,1-1.9-2.2V36.3a2.1,2.1,0,0,1,2-2.2h5.8a2.1,2.1,0,0,1,2,2.2h0Z" style="fill:#f1f1f1"/><path d="M105.7,81.8a2.1,2.1,0,0,1-2,2.2H97.9a2.1,2.1,0,0,1-1.9-2.2V36.3a2.1,2.1,0,0,1,2-2.2h5.8a2.1,2.1,0,0,1,1.9,2.2Z" style="fill:#f1f1f1"/><path d="M116.8,81.8a2.1,2.1,0,0,1-1.9,2.2h-5.7a2.1,2.1,0,0,1-2-2.2h0V36.3a2.1,2.1,0,0,1,2-2.2h5.8a2.1,2.1,0,0,1,1.9,2.2h0Z" style="fill:#f1f1f1"/><path d="M19.9,61.5a1.2,1.2,0,0,1-1.2,1.3H15.5a1.2,1.2,0,0,1-1.2-1.3h0V35.4a1.2,1.2,0,0,1,1.2-1.3h3.3a1.2,1.2,0,0,1,1.1,1.3Z" style="fill:#343335"/><path d="M31,61.5a1.2,1.2,0,0,1-1.2,1.3H26.6a1.2,1.2,0,0,1-1.2-1.3h0V35.4a1.2,1.2,0,0,1,1.2-1.3h3.3A1.2,1.2,0,0,1,31,35.4Z" style="fill:#343335"/><path d="M53.4,61.5a1.2,1.2,0,0,1-1.2,1.3H48.9a1.2,1.2,0,0,1-1.2-1.2h0V35.4a1.2,1.2,0,0,1,1.2-1.3h3.3a1.2,1.2,0,0,1,1,1.3Z" style="fill:#343335"/><path d="M64.5,61.5a1.2,1.2,0,0,1-1.2,1.3H60.1a1.2,1.2,0,0,1-1.2-1.3h0V35.4A1.2,1.2,0,0,1,60,34.2h3.3a1.2,1.2,0,0,1,1.1,1.3Z" style="fill:#343335"/><path d="M75.5,61.5a1.2,1.2,0,0,1-1.2,1.3H71.1a1.2,1.2,0,0,1-1.2-1.3h0V35.4a1.2,1.2,0,0,1,1.2-1.3h3.3a1.2,1.2,0,0,1,1.2,1.3h0Z" style="fill:#343335"/><path d="M98.1,61.5a1.2,1.2,0,0,1-1.2,1.3H93.6a1.2,1.2,0,0,1-1.1-1.3V35.4a1.2,1.2,0,0,1,1.2-1.3H97a1.2,1.2,0,0,1,1.2,1.3h0Z" style="fill:#343335"/><path d="M109.2,61.5a1.2,1.2,0,0,1-1.2,1.3h-3.3a1.2,1.2,0,0,1-1.2-1.3h0V35.4a1.2,1.2,0,0,1,1.2-1.3h3.3a1.2,1.2,0,0,1,1.2,1.3h0Z" style="fill:#343335"/><polygon points="2.8 40 2.8 0 121.2 0.3 121.1 40.3 2.8 40" style="fill:#29293f"/><rect x="35.5" y="6.7" width="46.9" height="20.71" style="fill:#1c1c2d"/><rect x="39.4" y="9.9" width="39.2" height="14.32" style="fill:#d1d2d3"/><polyline points="78.5 24.2 39.4 24.2 39.4 9.9" style="fill:#e5e6e6"/><path d="M.6,1.1V37.7H29.3S15.5,20,14.8,1.1Z" style="fill:#1c1c2d"/><path d="M123.3,2.4V39H90.9S108.2,21.3,109,2.4Z" style="fill:#1c1c2d"/><path d="M16.2,12.2H11.8a1.1,1.1,0,0,0-1.1,1.2h0v.8a1.1,1.1,0,0,0,1.1,1.2h4.5Z" style="fill:#1c1c2d"/><path d="M21.4,12.2H16.8v3.1h4.6a1.1,1.1,0,0,0,1.1-1.2h0v-.7a1.1,1.1,0,0,0-1-1.3Z" style="fill:#1c1c2d"/><path d="M24.5,12.2H20.1A1.1,1.1,0,0,0,19,13.3h0v.8a1.1,1.1,0,0,0,1.1,1.2h4.5Z" style="fill:#1c1c2d"/><path d="M29.7,12.2H25.1v3.1h4.6a1.1,1.1,0,0,0,1.1-1.2h0v-.7a1.1,1.1,0,0,0-1-1.3Z" style="fill:#1c1c2d"/><path d="M24.5,19.2H20.1A1.1,1.1,0,0,0,19,20.4h0v.8a1.1,1.1,0,0,0,1.1,1.2h4.5Z" style="fill:#1c1c2d"/><path d="M29.7,19.2H25.1v3.1h4.6a1.1,1.1,0,0,0,1.1-1.2h0v-.8a1.1,1.1,0,0,0-1.1-1.2Z" style="fill:#1c1c2d"/><path d="M92.7,12.2H88.2a1.1,1.1,0,0,0-1.1,1.2h0v.8a1.1,1.1,0,0,0,1.1,1.2h4.5Z" style="fill:#1c1c2d"/><path d="M97.9,12.2H93.2v3.1h4.6A1.1,1.1,0,0,0,99,14.1h0v-.7a1.1,1.1,0,0,0-1-1.3Z" style="fill:#1c1c2d"/><path d="M92.7,19.2H88.2a1.1,1.1,0,0,0-1.1,1.2h0v.8a1.1,1.1,0,0,0,1.1,1.2h4.5Z" style="fill:#1c1c2d"/><path d="M97.9,19.2H93.2v3.1h4.6A1.1,1.1,0,0,0,99,21.2h0v-.8a1.1,1.1,0,0,0-1.1-1.2Z" style="fill:#1c1c2d"/><ellipse cx="111.3" cy="9.9" rx="3" ry="3.2" style="fill:#1c1c2d"/><ellipse cx="101.4" cy="9.9" rx="2" ry="2.2" style="fill:#ee4137"/></g></g></g></g></g></g></svg>