<svg xmlns="http://www.w3.org/2000/svg" width="71.35" height="84.28" viewBox="0 0 71.35 84.28"><title>ideas</title><g id="Layer_2" data-name="Layer 2"><g id="Layer_1-2" data-name="Layer 1"><path d="M60.49,34V25.84H57.28a17.38,17.38,0,0,0-2.15-5.19l2.27-2.27-5.77-5.77-2.27,2.27a17.4,17.4,0,0,0-5.19-2.15V9.52H36v3.21a17.38,17.38,0,0,0-5.19,2.15l-2.27-2.27-5.77,5.77,2.27,2.27a17.4,17.4,0,0,0-2.15,5.19H19.7V34h3.21a17.38,17.38,0,0,0,2.15,5.19l-2.27,2.27,5.77,5.77,2.27-2.27c.3.18.61.36.94.53l1.28-2.4h1.6V39.3a10.88,10.88,0,1,1,10.88,0v3.77h1.63l1.29,2.39.9-.52,2.27,2.27,5.77-5.77-2.27-2.27A17.4,17.4,0,0,0,57.28,34h3.21Z" style="fill:#f9ba48"/><path d="M71.35,31.26A31.38,31.38,0,0,0,40.49,0h-.4A31.49,31.49,0,0,0,9.48,25a30.45,30.45,0,0,0-.29,11L0,52.48l10.18,2.94V72h13.6V84.28H26.5v-15H12.9v-16L4,50.82l8-14.28L12,36.06a27.78,27.78,0,0,1,.19-10.48,28.53,28.53,0,0,1,56.49,5.68v5A33.09,33.09,0,0,1,54.28,63.51l-.59.41V84.28h2.72V65.33A35.81,35.81,0,0,0,71.35,36.22Z" style="fill:#333"/><path d="M52.34,29.89a12.24,12.24,0,1,0-19,10.16V42.2a3.39,3.39,0,0,0-1.13,6.2A3.38,3.38,0,0,0,35.34,53h9.52A3.38,3.38,0,0,0,48,48.4a3.39,3.39,0,0,0-1.13-6.2V40.05A12.28,12.28,0,0,0,52.34,29.89Zm-21.76,0a9.52,9.52,0,1,1,14.28,8.23l-.68.39v3.61H41.46V33.72a4.08,4.08,0,1,0-2.72,0v8.41H36V38.52l-.68-.39A9.55,9.55,0,0,1,30.58,29.89Zm8.16,0a1.36,1.36,0,1,1,1.36,1.36A1.36,1.36,0,0,1,38.74,29.89ZM34,44.85H46.22a.68.68,0,0,1,0,1.36H34a.68.68,0,1,1,0-1.36Zm10.88,5.44H35.34a.68.68,0,0,1,0-1.36h9.52a.68.68,0,1,1,0,1.36Z" style="fill:#333"/><rect x="38.72" y="55.73" width="2.72" height="2.72" style="fill:#333"/><rect x="38.72" y="61.16" width="2.72" height="2.72" style="fill:#333"/><rect x="38.72" y="66.6" width="2.72" height="2.72" style="fill:#333"/><rect x="38.72" y="72.04" width="2.72" height="2.72" style="fill:#333"/></g></g></svg>