<svg xmlns="http://www.w3.org/2000/svg" xmlns:xlink="http://www.w3.org/1999/xlink" width="40.73" height="42.13" viewBox="0 0 40.73 42.13"><defs><style>.ef5bc3d6-2498-45c7-831a-8912d3ed80c4{isolation:isolate;}.\35 5f98ba6-4ba0-487b-8cfe-60970fe502cd{fill:url(#f89a35cf-039c-447e-85ba-c9b2c027e465);}.\33 75e047b-deff-4364-ab0c-9cd79ae2e227{fill:url(#1d1cda80-adac-429c-85f5-c5c587f737da);}.\39 b57b41a-b8aa-4635-9142-3b3b3c69ff1e{fill:url(#32c6d963-de6e-4b32-8f38-8236396e1989);}.db7586fa-8238-45af-89f2-505d5155bdee{fill:url(#70e1e4e4-0074-4d74-81ee-64629bf1f59f);}.\31 b295965-9f15-4231-9be0-ce725f4a827d{fill:url(#72f2dd61-6353-43b7-9b43-4dd6d3866156);}.\33 111a80e-8ba2-4b15-9cdf-1c8dbbece76a{opacity:0.6;mix-blend-mode:screen;fill:url(#f7af49f4-20e1-4c4e-9d05-58684936008e);}.\37 3d0fba7-9f68-4fe8-8ebd-36a54e029f15{fill:url(#429bf6c9-1cac-4cc7-80d0-4c85441f2fae);}</style><linearGradient id="f89a35cf-039c-447e-85ba-c9b2c027e465" x1="0.34" y1="21.07" x2="41.64" y2="21.07" gradientUnits="userSpaceOnUse"><stop offset="0" stop-color="#b07515"/><stop offset="0.09" stop-color="#e1ba60"/><stop offset="0.14" stop-color="#f5d77f"/><stop offset="0.26" stop-color="#ffffd7"/><stop offset="0.36" stop-color="#f5d77f"/><stop offset="0.49" stop-color="#b07515"/><stop offset="0.57" stop-color="#e1ba60"/><stop offset="0.61" stop-color="#f5d77f"/><stop offset="0.74" stop-color="#ffffd7"/><stop offset="0.84" stop-color="#f5d77f"/><stop offset="1" stop-color="#b07515"/></linearGradient><linearGradient id="1d1cda80-adac-429c-85f5-c5c587f737da" x1="5.68" y1="6.38" x2="34.71" y2="35.41" xlink:href="#f89a35cf-039c-447e-85ba-c9b2c027e465"/><linearGradient id="32c6d963-de6e-4b32-8f38-8236396e1989" x1="2.37" y1="21.07" x2="38.29" y2="21.07" xlink:href="#f89a35cf-039c-447e-85ba-c9b2c027e465"/><linearGradient id="70e1e4e4-0074-4d74-81ee-64629bf1f59f" x1="8" y1="33.43" x2="31.63" y2="9.81" gradientUnits="userSpaceOnUse"><stop offset="0" stop-color="#0f1115"/><stop offset="0.14" stop-color="#1c2228"/><stop offset="0.26" stop-color="#232a32"/><stop offset="0.36" stop-color="#1c2228"/><stop offset="0.49" stop-color="#0f1115"/><stop offset="0.61" stop-color="#1c2228"/><stop offset="0.74" stop-color="#232a32"/><stop offset="0.84" stop-color="#1c2228"/><stop offset="1" stop-color="#0f1115"/></linearGradient><linearGradient id="72f2dd61-6353-43b7-9b43-4dd6d3866156" x1="9.8" y1="31.65" x2="29.99" y2="11.45" gradientUnits="userSpaceOnUse"><stop offset="0" stop-color="#161a1f"/><stop offset="0.14" stop-color="#2a323b"/><stop offset="0.26" stop-color="#343f4a"/><stop offset="0.36" stop-color="#2a323b"/><stop offset="0.49" stop-color="#161a1f"/><stop offset="0.61" stop-color="#2a323b"/><stop offset="0.74" stop-color="#343f4a"/><stop offset="0.84" stop-color="#2a323b"/><stop offset="1" stop-color="#161a1f"/></linearGradient><radialGradient id="f7af49f4-20e1-4c4e-9d05-58684936008e" cx="3.76" cy="16.34" r="53.86" gradientUnits="userSpaceOnUse"><stop offset="0" stop-color="#e8e8e8"/><stop offset="0.05" stop-color="#a6a6a6"/><stop offset="0.14" stop-color="#606060"/><stop offset="0.21" stop-color="#4c4c4c"/><stop offset="0.33" stop-color="#303030"/><stop offset="0.45" stop-color="#1b1b1b"/><stop offset="0.59" stop-color="#0c0c0c"/><stop offset="0.76" stop-color="#030303"/><stop offset="1"/></radialGradient><linearGradient id="429bf6c9-1cac-4cc7-80d0-4c85441f2fae" x1="12.82" y1="28.78" x2="31.21" y2="10.39" xlink:href="#f89a35cf-039c-447e-85ba-c9b2c027e465"/></defs><title>Instagram</title><g class="ef5bc3d6-2498-45c7-831a-8912d3ed80c4"><g id="3fa3c38f-d449-488c-aac3-428db60d8ad1" data-name="Layer 2"><g id="7b71d374-0ff0-40ee-ab9d-7d91d411245a" data-name="Layer 1"><path class="55f98ba6-4ba0-487b-8cfe-60970fe502cd" d="M20.37,42.13C-6.8,42.13-6.78,0,20.37,0S47.54,42.13,20.37,42.13Z"/><path class="375e047b-deff-4364-ab0c-9cd79ae2e227" d="M20.37,41.74C-6.29,41.74-6.28.39,20.37.39S47,41.74,20.37,41.74Z"/><path class="9b57b41a-b8aa-4635-9142-3b3b3c69ff1e" d="M20.37,39.69c-24,0-24-37.24,0-37.24S44.41,39.69,20.37,39.69Z"/><path class="db7586fa-8238-45af-89f2-505d5155bdee" d="M20.37,39.28c-23.5,0-23.5-36.44,0-36.44S43.86,39.28,20.37,39.28Z"/><path class="1b295965-9f15-4231-9be0-ce725f4a827d" d="M20.37,36.65C.26,36.65.31,5.49,20.37,5.49S40.5,36.65,20.37,36.65Z"/><path class="3111a80e-8ba2-4b15-9cdf-1c8dbbece76a" d="M31.38,32.09c14.71-14.69-9-36.87-22.7-21.32A46.74,46.74,0,0,1,31.38,32.09Z"/><path class="73d0fba7-9f68-4fe8-8ebd-36a54e029f15" d="M28.07,17.43c-.48-4.71-10.08-5.31-13.27-3.18-2.79,1.86-3,9.14-1.62,11.94,1.61,3.35,8.07,3.76,11.39,2.65C29.24,27.27,28.48,21.52,28.07,17.43Zm-1.42,7.73c-.47,3.08-7.47,3.19-9.7,2.34-3-1.15-4.09-7-2.67-10.1s6.58-3.31,9.6-2.34C27.84,16.33,27.2,21.54,26.65,25.16Zm-6.18-7.84c-5.11,0-5.12,7.92,0,7.93S25.59,17.32,20.47,17.32Zm0,6.53c-3.25,0-3.22-5.14,0-5.13S23.81,23.85,20.44,23.85Zm5.07-6.68c0,2.11-1.87,0-1.86,0S25.52,15,25.51,17.17Z"/></g></g></g></svg>