<svg xmlns="http://www.w3.org/2000/svg" width="90.55" height="72.86" viewBox="0 0 90.55 72.86"><title>magic</title><g id="Layer_2" data-name="Layer 2"><g id="Layer_1-2" data-name="Layer 1"><path d="M14.15,9.9V61c.78,6.58,14.43,11.88,31.13,11.88S75.62,67.62,76.4,61h.07V9.9Z" style="fill:#324d5b"/><path d="M14.15,36.71c8.14,3.11,19.1,5.09,31.13,5.09s23-1.91,31.13-5.09V9.9H14.15Z" style="fill:#2d4552"/><path d="M40.53,72.72l-.21-38.55H26.24V70.24A61.73,61.73,0,0,0,40.53,72.72Z" style="fill:#3b5562"/><path d="M40.39,41.66l-.07-7.5H26.24v5.94A96.19,96.19,0,0,0,40.39,41.66Z" style="fill:#354c58"/><path d="M45.27,1.41c25,0,45.27,8.21,45.27,18.39S70.25,38.2,45.27,38.2,0,30,0,19.8,20.3,1.41,45.27,1.41Z" style="fill:#465765"/><path d="M45.27,8.49c17.19,0,31.13,4.74,31.13,10.61S62.46,29.71,45.27,29.71,14.15,25,14.15,19.1,28.08,8.49,45.27,8.49Z" style="fill:#2b414d"/><path d="M67.06.42a2.15,2.15,0,0,1,.42,3L41.38,35.23a2.22,2.22,0,0,1-3,.42,2.15,2.15,0,0,1-.42-3L63.95.85A2.31,2.31,0,0,1,67.06.42Z" style="fill:#efefef"/><path d="M41.31,28.43,45,30.84,64.23,7.42,60.55,5.09Z" style="fill:#d07c40"/></g></g></svg>