<svg xmlns="http://www.w3.org/2000/svg" width="59.84" height="31.44" viewBox="0 0 59.84 31.44"><title>mexicanhat</title><g id="Layer_2" data-name="Layer 2"><g id="Layer_1-2" data-name="Layer 1"><path d="M36.72,11.75H23.16q-.15.61-.29,1.2H37C36.92,12.56,36.82,12.16,36.72,11.75Z" style="fill:#dc4437"/><path d="M36.42,10.55H23.47q-.16.61-.31,1.2H36.72C36.62,11.36,36.52,11,36.42,10.55Z" style="fill:#f2efdc"/><path d="M30,0c-3,0-5.12,5.44-6.5,10.55H36.42C35.06,5.44,32.93,0,30,0Z" style="fill:#663f30"/><path d="M25.66,19.38h.14l2-2.87,2,2.87H30l2-2.87,2,2.87h.14l2-2.87,2,2.87h0S37.81,16.5,37,13H22.86c-.83,3.54-1.24,6.43-1.24,6.43l2-2.87Z" style="fill:#663f30"/><path d="M23.65,16.52l-2,2.87h4Zm0,.65L25,19.05H22.32Z" style="fill:#f7c63b"/><path d="M25.8,19.38h4l-2-2.87Zm.69-.33,1.33-1.89,1.33,1.89Z" style="fill:#f7c63b"/><path d="M30,19.38h4l-2-2.87Zm.69-.33L32,17.17l1.33,1.89Z" style="fill:#f7c63b"/><path d="M34.15,19.38h4l-2-2.87Zm.69-.33,1.33-1.89,1.33,1.89Z" style="fill:#f7c63b"/><polygon points="34.84 19.05 37.49 19.05 36.16 17.17 34.84 19.05" style="fill:#f2efdc"/><polygon points="30.66 19.05 33.32 19.05 31.99 17.17 30.66 19.05" style="fill:#f2efdc"/><polygon points="26.49 19.05 29.14 19.05 27.82 17.17 26.49 19.05" style="fill:#f2efdc"/><polygon points="23.65 17.17 22.32 19.05 24.97 19.05 23.65 17.17" style="fill:#f2efdc"/><polygon points="4.24 23.85 1.07 23.85 2.65 26.11 4.24 23.85" style="fill:#dc4437"/><polygon points="9.23 23.85 6.06 23.85 7.65 26.11 9.23 23.85" style="fill:#dc4437"/><polygon points="14.23 23.85 11.05 23.85 12.64 26.11 14.23 23.85" style="fill:#dc4437"/><polygon points="19.22 23.85 16.05 23.85 17.63 26.11 19.22 23.85" style="fill:#dc4437"/><polygon points="24.05 23.85 20.88 23.85 22.46 26.11 24.05 23.85" style="fill:#dc4437"/><polygon points="29.04 23.85 25.87 23.85 27.45 26.11 29.04 23.85" style="fill:#dc4437"/><polygon points="34.04 23.85 30.86 23.85 32.45 26.11 34.04 23.85" style="fill:#dc4437"/><polygon points="39.03 23.85 35.85 23.85 37.44 26.11 39.03 23.85" style="fill:#dc4437"/><polygon points="43.82 23.85 40.65 23.85 42.24 26.11 43.82 23.85" style="fill:#dc4437"/><polygon points="48.82 23.85 45.64 23.85 47.23 26.11 48.82 23.85" style="fill:#dc4437"/><polygon points="53.81 23.85 50.63 23.85 52.22 26.11 53.81 23.85" style="fill:#dc4437"/><polygon points="57.22 26.11 58.8 23.85 55.63 23.85 57.22 26.11" style="fill:#dc4437"/><path d="M57.22,26.89l2.41-3.42H54.8Zm0-.78-1.59-2.26H58.8Z" style="fill:#f2efdc"/><path d="M54.64,23.46H49.81l2.41,3.43Zm-.83.4-1.59,2.26-1.59-2.26Z" style="fill:#f2efdc"/><path d="M49.64,23.46H44.82l2.41,3.43Zm-.83.4-1.59,2.26-1.59-2.26Z" style="fill:#f2efdc"/><path d="M42.24,26.89l2.41-3.43h-4.8l0,0Zm1.59-3-1.59,2.26-1.59-2.26Z" style="fill:#f2efdc"/><path d="M39.84,23.48l0,0H35l2.41,3.43Zm-.81.37-1.59,2.26-1.59-2.26Z" style="fill:#f2efdc"/><path d="M34.86,23.46H30l2.41,3.43Zm-.83.4-1.59,2.26-1.59-2.26Z" style="fill:#f2efdc"/><path d="M29.87,23.46H25l2.41,3.43Zm-.83.4-1.59,2.26-1.59-2.26Z" style="fill:#f2efdc"/><path d="M24.88,23.46H20l2.42,3.43Zm-.83.4-1.59,2.26-1.59-2.26Z" style="fill:#f2efdc"/><path d="M20,23.46H15.22l2.42,3.43Zm-.83.4-1.59,2.26L16,23.85Z" style="fill:#f2efdc"/><path d="M15.05,23.46H10.22l2.42,3.43Zm-.83.4-1.59,2.26-1.59-2.26Z" style="fill:#f2efdc"/><path d="M10.06,23.46H5.23l2.41,3.43Zm-.83.4L7.65,26.11,6.06,23.85Z" style="fill:#f2efdc"/><path d="M5.07,23.46H.24l2.42,3.43Zm-.83.4L2.65,26.11,1.07,23.85Z" style="fill:#f2efdc"/><path d="M.21,23.46H59.63a7.8,7.8,0,0,0,.17-1H0A7.8,7.8,0,0,0,.21,23.46Z" style="fill:#f7c63b"/><path d="M38.21,19.38H0v2.24q0,.39,0,.78H59.8a7.78,7.78,0,0,0,0-.78V19.38Z" style="fill:#dc4437"/><path d="M54.8,23.46h-.16l-2.41,3.43-2.41-3.43h-.16l-2.41,3.43-2.41-3.43h-.17l-2.41,3.43-2.4-3.41-2.4,3.41L35,23.46h-.16l-2.41,3.43L30,23.46h-.16l-2.42,3.43L25,23.46h-.16l-2.41,3.43L20,23.46l-2.41,3.43-2.42-3.43h-.16l-2.41,3.43-2.42-3.43h-.16L7.65,26.89,5.23,23.46H5.07L2.65,26.89.24,23.46h0c1,4.55,5.91,8,11.75,8H47.88c5.84,0,10.7-3.43,11.75-8l-2.41,3.42Z" style="fill:#109d59"/><path d="M36.72,11.75H33.25c.16.4.31.8.44,1.2H37C36.92,12.56,36.82,12.16,36.72,11.75Z" style="fill:#c43d31"/><path d="M36.42,10.55H32.7c.21.39.39.8.56,1.2h3.47C36.62,11.36,36.52,11,36.42,10.55Z" style="fill:#dad8c6"/><path d="M30,0c-1.55,0-2.88,1.49-4,3.65a18,18,0,0,1,6.72,6.9h3.72C35.06,5.44,32.93,0,30,0Z" style="fill:#4e3025"/><path d="M37,13H33.69v0a6.2,6.2,0,0,1-.55,5.18L34,19.38h.14l2-2.87,2,2.87h0S37.81,16.5,37,13Z" style="fill:#4e3025"/><path d="M27.82,16.52l-2,2.87h4Zm0,.65,1.33,1.89H26.49Z" style="fill:#dfb335"/><path d="M33.15,18.16l-.21.36.38.53h-.73l-.24.33H34Z" style="fill:#dfb335"/><path d="M34.15,19.38h4l-2-2.87Zm.69-.33,1.33-1.89,1.33,1.89Z" style="fill:#dfb335"/><polygon points="34.84 19.05 37.49 19.05 36.16 17.17 34.84 19.05" style="fill:#dad8c6"/><path d="M32.94,18.52c-.11.18-.23.36-.35.53h.73Z" style="fill:#dad8c6"/><polygon points="27.82 17.17 26.49 19.05 29.14 19.05 27.82 17.17" style="fill:#dad8c6"/><polygon points="53.81 23.85 50.63 23.85 52.22 26.11 53.81 23.85" style="fill:#c43d31"/><polygon points="57.22 26.11 58.8 23.85 55.63 23.85 57.22 26.11" style="fill:#c43d31"/><path d="M57.22,26.89l2.41-3.42H54.8Zm0-.78-1.59-2.26H58.8Z" style="fill:#dad8c6"/><path d="M54.64,23.46H49.81l2.41,3.43Zm-.83.4-1.59,2.26-1.59-2.26Z" style="fill:#dad8c6"/><path d="M49.07,23.46c0,.29,0,.57,0,.86l.61-.86Z" style="fill:#dad8c6"/><path d="M49,22.41c0,.35.06.7.06,1H59.63a7.8,7.8,0,0,0,.17-1Z" style="fill:#dfb335"/><path d="M48.49,19.38a29.25,29.25,0,0,1,.52,3H59.8a7.78,7.78,0,0,0,0-.78V19.38H48.49Z" style="fill:#c43d31"/><path d="M57.22,26.89,54.8,23.46h-.16l-2.41,3.43-2.41-3.43h-.16l-.61.86c0,.06,0,.11,0,.17-.24,3-2.13,5.35-4.8,6.95h3.66c5.84,0,10.7-3.43,11.75-8Z" style="fill:#0e854c"/></g></g></svg>