<svg xmlns="http://www.w3.org/2000/svg" width="293.2" height="67.5" viewBox="0 0 293.2 67.5"><title>Nati</title><g id="Layer_2" data-name="Layer 2"><g id="Layer_1-2" data-name="Layer 1"><path d="M160,48.1c.58,1,3.92.37,4.94.4,3.79-.36,8.82-1.84,10.53-4.9-2.11-.44-4.34-1.61-6.71-1.27-2.15.5-4.27,2.3-6.07,3.69-.9.69-2,1.59-2.86,2.29" style="fill:#646464"/><path d="M156.36,46.5c-2,4.78-3.57,11.18-10.66,11.27,1.15-2.78,1.9-5.51,4.36-7.74,1.4-1.33,5.19-1.69,6-2.75" style="fill:#646464"/><path d="M147.05,37.29a23.32,23.32,0,0,0-3.15-1.2c-.67-.09-2.46-.53-2.1.34.18.67,2.14,1.31,2.81,1.87-1,.22-1.94-.52-2.94-.42-1.67,0,0,1,.93,1.1-1.52.1-.13,1,.56,1.18.85.29,1.85.19,2.7.47.7.2,5.16,1,5.15,1.48s-3.79,2.26-4.34,2.62c-1.32.88-2.63,1.77-4.07,2.68-.43.33-2.45,1.49-1.85,2.31.54.59,2.13-.23,2.56-.56-.49.58-3.32,3.58-.85,2.68a13,13,0,0,0,3.64-2.35c2.27-2.16,4.66-3.88,7-5.93,0,1.06-.84,2.2-.67,3.35.74-.64.93-1.87,1.37-2.67,0,3.56,1.2,7.09,2,10.6.13-.5.1-1.09.53-1.42.3.65.26,1.49.65,2,.89-.55.69-1.81.73-2.65.41,1.1,1.14,1.41,1.67,0,.31-.78-.26-1.49-.19-2.21,1,1.21,1.72.69,1.59-.83a8.33,8.33,0,0,0-1-2.86c-1.37-2.31-3.6-4-5.31-6.07,1.05,1.07,3.13,2.63,4.74,2.87,1.34.18,3-.53,4.5-.52,2.07,0,4.37.46,6.56,0,.61-.13,2-.68,1.11-1.19-.45-.26-1.82-.07-2.52-.28a2.89,2.89,0,0,0,1.65-.6c.4-.44.8-1.36-.32-1.23.43-.33,1.13-.61.5-1.06-.33-.28-1.67,0-2,.09-1.52.1-3,.2-4.53.41a59.77,59.77,0,0,0-7.76,1.36c1.83-.4,5.32-3.31,5.8-5-.74.64-1.77,1.1-2.51,1.74a6,6,0,0,0,1.34-2.79,27.67,27.67,0,0,0-.06-3.19c.13-.5.48-2.6,0-2.86-.76-.43-1.85,2.31-2.1,2.84.16-.39.17-1.34-.29-1.6-.78-.54-1,.47-1.26,1.11.09-.14.06-.25.16-.39-1.06,2.37-.38,7-3.19,8.54-1.56.94-2.88-.67-4.12-1.47-1.09-.71-2.42-.89-3.51-1.6" style="fill:#545454"/><path d="M148.26,38.66c-.87-.87-1.92-1.47-2.67-2.37-.21-.31-.86-1.35-.56-1.65s1.21.21,1.6.24c1.78.43,2-1.38,2.66-2.59.65-1,2.34-3.35,3.8-2.14.48.37.41,1.09.92,1.57s1,.26,1.54.49c1.69.57,1.19,2.1,1,3.44-.23,1.59.14,6.94-2.49,6.69-1.72-.21-3.4-1.73-4.69-2.75-.48-.37,0,0-1.14-.93" style="fill:#828282"/><path d="M155.59,41A41.89,41.89,0,0,1,158,35.63a10.24,10.24,0,0,1,2.7-3.32c1.66-1.05,1.31.59,1.53,1.61,1.14.14,2.45-.54,3.69-.75,1.59-.36,1.29.36.63,1.45,1-.08,3.31-.72,3.79.39.62,1.33-1.46,3.11-2.42,3.65-3,1.5-6.43,2.23-9.59,3.17-1.35.34-2.57.66-3.76-.05.22-.36.84-.41,1.19-.67" style="fill:#828282"/><path d="M155.3,41.51c-3.13.79-6.43-.76-9.47-1.42-1.49-.22-3.68-.62-5.21-.12-.84.21-1.52,1-.51,1.32.85.26,1.72-.31,2.48.09-.42.34-4.38,2.65-2.76,3.32-.38.45-1,.72-1,1.33.7.18,2-.52,2.45,0,.54.94-1.32,1.64.8,1.82a10.26,10.26,0,0,0,5.48-1.14c1.64-1,3.09-2.21,4.73-3.22,1-.6,2-1.68,3.13-2.1" style="fill:#828282"/><path d="M154.44,41.54c-.83.69-1.81,1.29-2.77,2-1.61,1.12-3,2.65-4.57,3.77A7,7,0,0,0,144,51.79c-.33,2.82,3.14,1,4-.31.49.35.18,1,.46,1.55A4.27,4.27,0,0,0,150,54.09a11.7,11.7,0,0,0,1.5.69,3.71,3.71,0,0,0,2,.34c1.51-1.45,1.83-1.67,2.11-3.77a34,34,0,0,0,.63-5.28c0-.95.37-3.55-.62-4.25-.68-.54-2.3.1-2.89.73" style="fill:#828282"/><path d="M154,42.12c.41,1.09,1.85,2.19,2.63,3.2a52.54,52.54,0,0,0,3.46,4.91c.39.5,1.63,2.83,2.36,2.67,1.33-.29.6-2.14.18-2.76a7.65,7.65,0,0,0,2.87.19c1.58-.35.73-.63,1-1.63.19-.75,3.93-2.16,1.42-2.44,2-1.15,1-2.94-.74-3.85s-4.1-1-6.19-1.12c-1.66,0-3.3.14-5,0-.51,0-1.9-.41-2.12.23s1.26,1.38,1.77,1.38" style="fill:#828282"/><path d="M156.62,40.5c-.52-1.25,2.09-4.09,3.1-4.77.64,1.31-2.27,3.41-2.63,4.67,1.56-2,3.94-2.68,6-4-.08,1.2-3.4,2.84-4.3,3.58,1.4-.67,2.79-1.8,4.46-1.8-.2,1.5-4.63,2.29-6,2.86" style="fill:#aaa"/><path d="M154.41,41.32c-1.45.1-3.65-3-4.07-4.11,1.55-.18,2.89,3,4.09,3.67-1.61-1.94-1.66-4.25-2.48-6.41,1.22.42,2,3.82,2.49,4.82-.3-1.43-1.06-3-.59-4.46,1.5.61,1,4.74,1.25,6.08" style="fill:#aaa"/><path d="M152.33,42.93c-.3,1.31-4.17,2.4-5.41,2.46.24-1.42,3.91-1.73,5-2.61-2.47.89-4.89.29-7.38.42.78-1,4.53-.69,5.72-.86-1.57-.14-3.4.12-4.81-.71,1.05-1.16,5.24.39,6.69.58" style="fill:#aaa"/><path d="M154.09,43.18c1,1-.32,4.51-1,5.48-1.11-1,.76-3.93.6-5.23-.66,2.37-2.6,3.82-3.94,5.76-.4-1.14,2-3.79,2.58-4.78-1,1.1-1.88,2.61-3.44,3.18-.41-1.46,3.4-3.69,4.41-4.67" style="fill:#aaa"/><path d="M156.88,42.34c1.16-.81,4.85.72,5.83,1.43-1.19.93-4.18-1.07-5.59-1,2.49.83,3.88,2.75,5.85,4.16-1.27.26-3.9-2.23-4.92-2.82,1.09,1.06,2.64,2,3.11,3.46-1.62.23-3.67-3.47-4.62-4.49" style="fill:#aaa"/><path d="M158.28,41.82c.42.14,1.21-1.81,1.36-2.2-.58.25-.8.89-1.23,1.22,0-.48.5-1.06.26-1.48a5.91,5.91,0,0,0-.9,1.5c.28-.42.47-1.17.11-1.57-.4.44-.35,1.14-.72,1.7a1.52,1.52,0,0,0-.41-1.57,3,3,0,0,0-.14,1.45,7.92,7.92,0,0,0-1.47-1.69c0,.36-.13.5.2.79-.39-.51-3.53-2.19-4.15-1.58-.92.92,2.13,2.74,2.73,3.08a2.22,2.22,0,0,0-1.24-.8c-.07.73.9,1,1.38,1.36-.82-.18-1.7-.58-2.51-.75a4.06,4.06,0,0,0,1.6.71,12.58,12.58,0,0,0-2.73-.58c.15.56.84.76,1.48.74-.76,0-1.49-.27-2.19,0,.24.42,1.06.6,1.57.6-.24.05-2.07,0-1.53.57.3.17,1.52-.1,1.91-.07-.49.11-1.1.24-1.25.63.88.4,2.1-.34,2.77-.73A1.25,1.25,0,0,0,152,44c.73.31,1.4-.55,2-.91a3.32,3.32,0,0,0-.81,1.36c.61-.13,1-.8,1.23-1.22-.1.61-.59,1.2-.44,1.76a4.93,4.93,0,0,0,1.18-1.92c-.49.58-1,1.42-.72,2.18.85-.19,1.79-2.06,1.12-2.62-.49.58-.32,1.73.77,1.49.73-.16,1.11-1.67.24-2.07-.14,1.93,3,.28.79-.41,0,1.79,3-.2.86-.66a1.07,1.07,0,0,0,1.21.21,1.24,1.24,0,0,0-1.18-.57,2,2,0,0,0,1.46.15c-.21-.31-1.6-.71-1.17-1" style="fill:#c3c3c3"/><path d="M11.2,61.68c-.29.72-.63,1.53-1,2.43a6.15,6.15,0,0,1-.87,1.62h.15a2.64,2.64,0,0,1-1.38,1.49A6.8,6.8,0,0,1,6,67.5,10.13,10.13,0,0,1,2,66.82,3.27,3.27,0,0,1,.13,64,1.1,1.1,0,0,1,.2,62.83Q.56,62.09,2.31,59l1.75-3,8.52-17.18L21.1,21.64,28.81,5.82A3.81,3.81,0,0,1,30.27,4.6,15.45,15.45,0,0,1,32,3.79a4,4,0,0,1,1-.34A1.69,1.69,0,0,0,33.91,3a25,25,0,0,1-3.79.61q-2.18.2-3.79.47l-3.64.41a63.36,63.36,0,0,0-11.43,3,20.22,20.22,0,0,0-9,6.09,5.1,5.1,0,0,1-1.16.95q-.87,0-.87-1.08a.76.76,0,0,1,.29-.54H.42A20.93,20.93,0,0,1,9.16,6.29,56.54,56.54,0,0,1,20.22,3a14.23,14.23,0,0,1,2.48-.34c.87,0,1.7-.11,2.48-.2q2.76-.27,5.46-.61A12,12,0,0,0,35.51.13V.27A.86.86,0,0,1,36.09,0c.58,0,1,.4,1.16,1.22q-2,6.09-4.59,12.44T27.43,26.17q-2.7,6.16-5.46,11.9t-5.1,10.75Q20.51,44,24,39.36t7.28-9.2l2.48-3.11q1.16-1.35,2.4-3t2.69-3.58q2.33-3.11,5-6.42T49,7.91a51.28,51.28,0,0,1,4.44-4.6,6.8,6.8,0,0,1,3.35-2h.15l.29-.13.15.54A14.16,14.16,0,0,0,59,1.69q.51-.07.66,2a11.19,11.19,0,0,1-.29,1.76.53.53,0,0,0-.15.4V6l-.15.13v.27H59l-.87,2.16q-.73,1.49-1.6,3.59t-1.82,4.4q-.95,2.3-1.82,4.53t-1.46,3.86q-2.62,6-4.22,9.33t-2.48,5.34q-.87,2-1.46,3t-1.16,2.23q-.58.95-1.53,2.57t-2,3.45q-1.09,1.83-2,3.72A15.9,15.9,0,0,0,35.15,58a3.88,3.88,0,0,0,.07,2.5q.44.95,2,.95a5.55,5.55,0,0,0,2.84-.81,14.18,14.18,0,0,0,2.48-1.83,12.19,12.19,0,0,0,1.82-2.1q.73-1.08,1.16-1.62l.58-.54q.58,0,.87,1.08a10.15,10.15,0,0,1-1.16,2.71,10.74,10.74,0,0,1-2.4,2.77A14.67,14.67,0,0,1,40,63.24a10.41,10.41,0,0,1-4.3.88q-3.64,0-4.59-1.76a7.58,7.58,0,0,1-.95-3.65v-.81a7.66,7.66,0,0,1,.29-1.69q.29-1.15.95-3.11t2-5.21q3.2-8.12,6.33-16.3T47,14.34Q42.35,20,37.55,26.11T28.09,38.28q-4.66,6.09-9,12T11.2,61.68Z" style="fill:#666"/><path d="M55.46,62.09a7.42,7.42,0,0,1-4.22,1.08q-4.08,0-6-2.3a7.89,7.89,0,0,1-2-5.28,13.24,13.24,0,0,1,2.18-8,16.27,16.27,0,0,1,4.66-4.47,21,21,0,0,1,6.85-2.3,12.88,12.88,0,0,1,1.46.14,1,1,0,0,1,1,1.08,9,9,0,0,1-.95,3.79q-.95,2-1.82,2a9,9,0,0,0-4.73,1.28,7.87,7.87,0,0,0-2.48,2.57,8.42,8.42,0,0,0-1,2.71,13.07,13.07,0,0,0-.22,1.69q0,4.87,4.46,4.87a8.4,8.4,0,0,0,2.59-.54q1.58-.54,1.58-1.62a11.22,11.22,0,0,1-.15-4.26,37,37,0,0,1,1.15-6.22A28.54,28.54,0,0,1,60,42.68q1.3-2.5,2.9-2.5a3.43,3.43,0,0,1,2.69,1.69,5.37,5.37,0,0,1,1.24,3,.57.57,0,0,1-.07.27.55.55,0,0,0-.07.27,1,1,0,0,0-.15.4q-.15,0-1,1a28.3,28.3,0,0,0-2,2.64,21.45,21.45,0,0,0-2,3.72,11,11,0,0,0-.87,4.26,8.68,8.68,0,0,0,.36,2.37q.36,1.29,2.84,1.29A5.6,5.6,0,0,0,68.42,59a23.33,23.33,0,0,0,2.91-4.4c.1-.18.29-.22.58-.13s.39.18.29.27a26.41,26.41,0,0,1-3.28,5.68A6.93,6.93,0,0,1,63,63.31a9.74,9.74,0,0,1-3.49-.61,4.42,4.42,0,0,1-2.33-1.83A6.87,6.87,0,0,1,55.46,62.09Z" style="fill:#666"/><path d="M65.65,61a2.84,2.84,0,0,1,.29-1.35q2.77-5.68,5-10.35t4.88-10.69q2.69-6,5.31-12.38h-.29a2.57,2.57,0,0,0-.58.07,3.23,3.23,0,0,1-.73.07q-.44,0-.44-.81,0-.54.87-.61c.58,0,1.26-.11,2-.2q1.16-2.3,2.48-5.14T86.9,14.2l2.62-6q.29-1.08,2.11-1.42a16.54,16.54,0,0,1,2.69-.34q2.33,0,2.33,3.11v.88a7.76,7.76,0,0,1-.51,2.1q-.51,1.49-1.67,4.26t-3.35,7.37l12.67-.81q.87,0,.87.81,0,.27-2.18.47t-4.88.41q-2.7.2-7.06.61-2.91,6.09-6.11,12.58t-6,11.9q-2.84,5.41-6.48,12.31A1.82,1.82,0,0,1,70,63.58a8.75,8.75,0,0,1-3.2-.47A2,2,0,0,1,65.65,61Z" style="fill:#666"/><path d="M93.17,62.09a7.42,7.42,0,0,1-4.22,1.08q-4.08,0-6-2.3a7.89,7.89,0,0,1-2-5.28,13.24,13.24,0,0,1,2.18-8,16.27,16.27,0,0,1,4.66-4.47,21,21,0,0,1,6.85-2.3,12.88,12.88,0,0,1,1.46.14,1,1,0,0,1,1,1.08,9,9,0,0,1-.95,3.79q-.95,2-1.82,2a9,9,0,0,0-4.73,1.28,7.87,7.87,0,0,0-2.48,2.57,8.42,8.42,0,0,0-1,2.71,13.07,13.07,0,0,0-.22,1.69q0,4.87,4.46,4.87a8.4,8.4,0,0,0,2.59-.54q1.58-.54,1.58-1.62a11.22,11.22,0,0,1-.15-4.26,37,37,0,0,1,1.15-6.22,28.54,28.54,0,0,1,2.16-5.68q1.3-2.5,2.9-2.5a3.43,3.43,0,0,1,2.69,1.69,5.37,5.37,0,0,1,1.24,3,.57.57,0,0,1-.07.27.55.55,0,0,0-.07.27,1,1,0,0,0-.15.4q-.15,0-1,1a28.3,28.3,0,0,0-2,2.64,21.45,21.45,0,0,0-2,3.72,11,11,0,0,0-.87,4.26,8.68,8.68,0,0,0,.36,2.37q.36,1.29,2.84,1.29a5.6,5.6,0,0,0,4.51-2.1,23.33,23.33,0,0,0,2.91-4.4c.1-.18.29-.22.58-.13s.39.18.29.27a26.41,26.41,0,0,1-3.28,5.68,6.93,6.93,0,0,1-5.9,2.84,9.74,9.74,0,0,1-3.49-.61,4.42,4.42,0,0,1-2.33-1.83A6.87,6.87,0,0,1,93.17,62.09Z" style="fill:#666"/><path d="M121.85,55.59a4.69,4.69,0,0,1-.66,1.62,11.91,11.91,0,0,1-2,2.57A12.47,12.47,0,0,1,116,62.16a9.54,9.54,0,0,1-4.44,1,8.77,8.77,0,0,1-4.66-1.08,4,4,0,0,1-1.75-3.65,15.25,15.25,0,0,1,.51-2.77,78.69,78.69,0,0,1,2.55-7.51Q112.38,38,117,28t9.46-20.29c.1-.18.41-.36.95-.54a9.89,9.89,0,0,1,1.75-.41q.95-.13,1.75-.2l.95-.07a1.79,1.79,0,0,1,.51.07,1.24,1.24,0,0,0,.36.07,3.2,3.2,0,0,1,.8.68,3.29,3.29,0,0,1,.51,2.16,21.47,21.47,0,0,1-2.18,8q-2.18,5-5.17,10.41t-6.19,10.48q-3.2,5.07-5.1,8.32a27.31,27.31,0,0,1-1.67,2.64q-1.09,1.56-2.18,3.31T109.69,56a6.43,6.43,0,0,0-.8,2.71,2,2,0,0,0,1,1.76,4.1,4.1,0,0,0,2.33.68,6.74,6.74,0,0,0,3.49-.95A11.33,11.33,0,0,0,118.43,58a27.07,27.07,0,0,0,1.82-2.23q.73-1,1-1T121.85,55.59Z" style="fill:#666"/><path d="M130.73,59.65A20.5,20.5,0,0,1,128,62a7.94,7.94,0,0,1-4.8,1.29,6.79,6.79,0,0,1-3-.74,4.09,4.09,0,0,1-2.11-2.23,10.5,10.5,0,0,1-.58-4.39,20.33,20.33,0,0,1,.95-5,17.09,17.09,0,0,1,2.33-4.67,13.52,13.52,0,0,1,3.57-3.52,3.92,3.92,0,0,1,1.89.47,4.72,4.72,0,0,1,1.38,1.08,7.19,7.19,0,0,1,.8,1.15,2.31,2.31,0,0,1,.29.68,3.56,3.56,0,0,1-1.09,2.3q-1.09,1.22-2.4,2.84a25.39,25.39,0,0,0-2.4,3.59,8.89,8.89,0,0,0-1.09,4.4,1.28,1.28,0,0,0,.73,1.28,5.91,5.91,0,0,0,1.75.47,4.49,4.49,0,0,0,3.28-.74,11.53,11.53,0,0,0,2.62-2.37,19,19,0,0,0,1.75-2.5q.66-1.15.8-1.15c.19,0,.39.13.58.4a10.07,10.07,0,0,1-.8,2.23A15.24,15.24,0,0,1,130.73,59.65Zm.87-25.84q.73.54,1.53,1.08c.53.36.8.72.8,1.08a7,7,0,0,1-.51,1.22A17.74,17.74,0,0,1,132,39.57a19.2,19.2,0,0,1-1.82,2.3,2.62,2.62,0,0,1-1.82,1,2.14,2.14,0,0,1-2-.81,3.47,3.47,0,0,1-.51-1.89,13,13,0,0,1,.44-3.72,9.49,9.49,0,0,1,.95-2.23,4.89,4.89,0,0,1,1.24-1.35,4,4,0,0,1,1.53.34Q130.87,33.55,131.6,33.82Z" style="fill:#666"/><path d="M141.51,62.09a7.42,7.42,0,0,1-4.22,1.08q-4.08,0-6-2.3a7.89,7.89,0,0,1-2-5.28,13.24,13.24,0,0,1,2.18-8,16.27,16.27,0,0,1,4.66-4.47,21,21,0,0,1,6.85-2.3,12.88,12.88,0,0,1,1.46.14,1,1,0,0,1,1,1.08,9,9,0,0,1-.95,3.79q-.95,2-1.82,2a9,9,0,0,0-4.73,1.28,7.87,7.87,0,0,0-2.48,2.57,8.42,8.42,0,0,0-1,2.71,13.07,13.07,0,0,0-.22,1.69q0,4.87,4.46,4.87a8.4,8.4,0,0,0,2.59-.54q1.58-.54,1.58-1.62a11.22,11.22,0,0,1-.15-4.26,37,37,0,0,1,1.15-6.22A28.54,28.54,0,0,1,146,42.68q1.3-2.5,2.9-2.5a3.43,3.43,0,0,1,2.69,1.69,5.37,5.37,0,0,1,1.24,3,.57.57,0,0,1-.07.27.55.55,0,0,0-.07.27,1,1,0,0,0-.15.4q-.15,0-1,1a28.3,28.3,0,0,0-2,2.64,21.45,21.45,0,0,0-2,3.72,11,11,0,0,0-.87,4.26,8.68,8.68,0,0,0,.36,2.37q.36,1.29,2.84,1.29a5.6,5.6,0,0,0,4.51-2.1,23.33,23.33,0,0,0,2.91-4.4c.1-.18.29-.22.58-.13s.39.18.29.27A26.41,26.41,0,0,1,155,60.46a6.93,6.93,0,0,1-5.9,2.84,9.74,9.74,0,0,1-3.49-.61,4.42,4.42,0,0,1-2.33-1.83A6.87,6.87,0,0,1,141.51,62.09Z" style="fill:#666"/><path d="M168.5,17.45a8.44,8.44,0,0,1-1.31-2,4.94,4.94,0,0,1-.58-2q0-.94,1.89-2.1a29.39,29.39,0,0,1,5-2.3q3.13-1.15,7.21-2.32t8.59-2q4.51-.84,9-1.4a70.12,70.12,0,0,1,8.59-.56,22.88,22.88,0,0,1,9,1.42,10.4,10.4,0,0,1,4.66,3.66,11.16,11.16,0,0,1,1.75,4.95,50.94,50.94,0,0,1,.29,5.42,40.9,40.9,0,0,1-1,8,65.57,65.57,0,0,1-3.13,10.3,79.38,79.38,0,0,1-5.24,10.85,51.12,51.12,0,0,1-7.35,9.83,35.49,35.49,0,0,1-9.54,7.12A25.14,25.14,0,0,1,184.81,67q-5.68,0-8-2.5A9,9,0,0,1,174.47,58a22.3,22.3,0,0,1,1.16-6.56A71,71,0,0,1,178.48,44q1.67-3.79,3.57-7.37t3.35-6.29l1.16-1.76-4.08,3.38a67.6,67.6,0,0,1-5,4.67q-2.33,2-3.49,1.69c-.2,0-.29-.09-.29-.27a.79.79,0,0,1,.44-.68,4.18,4.18,0,0,0,1.75-1.08,39.48,39.48,0,0,0,2.91-2.71q1.6-1.62,3.35-3.45l3.06-3.18q.87-.94,2.62-3t3.64-4.33q1.89-2.23,3.28-4.13T196.46,13a2.31,2.31,0,0,1,1.46-.88,8.88,8.88,0,0,1,2.48-.34,8.14,8.14,0,0,1,2.4.34q1.09.34,1.09,1.15l-5.68,9.87Q195,28.81,192,34.29t-5.39,10.15q-2.4,4.67-3.93,8.39a25.19,25.19,0,0,0-1.82,6,3.63,3.63,0,0,0,.36,2.3,3.18,3.18,0,0,0,1.38,1.22,5.15,5.15,0,0,0,1.82.47c.63,0,1.14.07,1.53.07a22.82,22.82,0,0,0,14.12-4.73,42.4,42.4,0,0,0,10.56-11.7,61.16,61.16,0,0,0,6.62-14.88,51.11,51.11,0,0,0,2.33-14.27q0-6.49-2.62-8.52a11.12,11.12,0,0,0-7-2A49.83,49.83,0,0,0,194.64,9q-6.92,2.23-13.76,4.94l-5.46,2.16q-2.7,1.08-5.46,2h-.29l-1.16-.54Z" style="fill:#666"/><path d="M226.16,53.7a2.5,2.5,0,0,0,1.82-.81,5.94,5.94,0,0,0,1.24-1.83,19.7,19.7,0,0,0,.73-2,8.39,8.39,0,0,1,.44-1.22A7.39,7.39,0,0,0,227.47,49a17.86,17.86,0,0,0-3.06,2.3,14.76,14.76,0,0,0-2.48,3,7.2,7.2,0,0,0-1.16,3.11,11.07,11.07,0,0,0,.07,1.22,2.18,2.18,0,0,0,.66,1.28,4.36,4.36,0,0,0,1.82,1,9.49,9.49,0,0,0,3.42.27,8.54,8.54,0,0,0,4.08-1.22,15.24,15.24,0,0,0,3-2.37,18,18,0,0,0,2-2.37q.73-1.08,1-1.08c.29,0,.53.23.73.68a10,10,0,0,1-2,3.45,14.56,14.56,0,0,1-2.91,2.43,16.93,16.93,0,0,1-3.28,1.62,19.73,19.73,0,0,1-3.13.88,10.7,10.7,0,0,1-7.64-1.35A6.52,6.52,0,0,1,215.39,56a12.38,12.38,0,0,1,2-7.17,20.5,20.5,0,0,1,4.44-4.8,32.56,32.56,0,0,1,6.33-3.59,4.48,4.48,0,0,1,3.28,1.62A4.79,4.79,0,0,1,233,45.31a11.64,11.64,0,0,1-.36,2.5,10.92,10.92,0,0,1-1.24,3,9.57,9.57,0,0,1-2.18,2.57,4.86,4.86,0,0,1-3.2,1.08,6.91,6.91,0,0,1-1.31-.27c-.68-.18-1-.41-1-.68a.38.38,0,0,1,.15-.27,5.61,5.61,0,0,0,.73.27A6.25,6.25,0,0,0,226.16,53.7Z" style="fill:#666"/><path d="M247.86,59.65A20.5,20.5,0,0,1,245.09,62a7.94,7.94,0,0,1-4.8,1.29,6.79,6.79,0,0,1-3-.74,4.09,4.09,0,0,1-2.11-2.23,10.5,10.5,0,0,1-.58-4.39,20.33,20.33,0,0,1,.95-5,17.09,17.09,0,0,1,2.33-4.67,13.52,13.52,0,0,1,3.57-3.52,3.92,3.92,0,0,1,1.89.47,4.72,4.72,0,0,1,1.38,1.08,7.19,7.19,0,0,1,.8,1.15,2.31,2.31,0,0,1,.29.68,3.56,3.56,0,0,1-1.09,2.3q-1.09,1.22-2.4,2.84a25.39,25.39,0,0,0-2.4,3.59,8.89,8.89,0,0,0-1.09,4.4,1.28,1.28,0,0,0,.73,1.28,5.91,5.91,0,0,0,1.75.47,4.49,4.49,0,0,0,3.28-.74,11.53,11.53,0,0,0,2.62-2.37,19,19,0,0,0,1.75-2.5q.66-1.15.8-1.15c.19,0,.39.13.58.4a10.07,10.07,0,0,1-.8,2.23A15.24,15.24,0,0,1,247.86,59.65Zm.87-25.84q.73.54,1.53,1.08c.53.36.8.72.8,1.08a7,7,0,0,1-.51,1.22,17.74,17.74,0,0,1-1.38,2.37,19.2,19.2,0,0,1-1.82,2.3,2.62,2.62,0,0,1-1.82,1,2.14,2.14,0,0,1-2-.81,3.47,3.47,0,0,1-.51-1.89,13,13,0,0,1,.44-3.72,9.49,9.49,0,0,1,.95-2.23,4.89,4.89,0,0,1,1.24-1.35,4,4,0,0,1,1.53.34Q248,33.55,248.73,33.82Z" style="fill:#666"/><path d="M271.88,44.37c.19,0,.29.09.29.27l-.44.41a10,10,0,0,1-4.08,2.3,9.49,9.49,0,0,1-5.24-.14,7.17,7.17,0,0,1,.29,1.76A18.1,18.1,0,0,1,260,58.1a13.1,13.1,0,0,1-3.42,3.72,7.93,7.93,0,0,1-4.8,1.49,3.38,3.38,0,0,1-3.13-1.56,6.76,6.76,0,0,1-.95-3.58q0-1.08.29-3.92a35.52,35.52,0,0,1,1.09-5.75,22.68,22.68,0,0,1,2.11-5.21,3.84,3.84,0,0,1,3.35-2.3c.19,0,.58,0,1.16.07a6.23,6.23,0,0,1,1.75.41,6.8,6.8,0,0,1,1.53.81,1.21,1.21,0,0,1,.51,1.28,8.11,8.11,0,0,0-.95,1.28,24.53,24.53,0,0,0-1.38,2.5l-.73,1.35a27,27,0,0,0-1.38,2.71q-.95,2-1.75,4.19a17.93,17.93,0,0,0-1,3.86q-.22,1.69.95,1.69a4.5,4.5,0,0,0,3.2-1.42A14.65,14.65,0,0,0,259,56.34a22.23,22.23,0,0,0,1.75-4,11.07,11.07,0,0,0,.66-3.11,4.79,4.79,0,0,0-.58-2.71,2.61,2.61,0,0,1-.58-1.49.73.73,0,0,1,.58-.81,10.38,10.38,0,0,0,2.11,1.49,6.71,6.71,0,0,0,2.62.81,7.79,7.79,0,0,0,3-.34A10.36,10.36,0,0,0,271.88,44.37Z" style="fill:#666"/><path d="M276.68,59.65A20.5,20.5,0,0,1,273.92,62a7.94,7.94,0,0,1-4.8,1.29,6.79,6.79,0,0,1-3-.74A4.09,4.09,0,0,1,264,60.33a10.5,10.5,0,0,1-.58-4.39,20.33,20.33,0,0,1,.95-5,17.09,17.09,0,0,1,2.33-4.67,13.52,13.52,0,0,1,3.57-3.52,3.92,3.92,0,0,1,1.89.47,4.72,4.72,0,0,1,1.38,1.08,7.19,7.19,0,0,1,.8,1.15,2.31,2.31,0,0,1,.29.68,3.56,3.56,0,0,1-1.09,2.3q-1.09,1.22-2.4,2.84a25.39,25.39,0,0,0-2.4,3.59,8.89,8.89,0,0,0-1.09,4.4,1.28,1.28,0,0,0,.73,1.28,5.91,5.91,0,0,0,1.75.47,4.49,4.49,0,0,0,3.28-.74A11.53,11.53,0,0,0,276,57.89a19,19,0,0,0,1.75-2.5q.66-1.15.8-1.15c.19,0,.39.13.58.4a10.07,10.07,0,0,1-.8,2.23A15.24,15.24,0,0,1,276.68,59.65Zm.87-25.84q.73.54,1.53,1.08c.53.36.8.72.8,1.08a7,7,0,0,1-.51,1.22A17.74,17.74,0,0,1,278,39.57a19.2,19.2,0,0,1-1.82,2.3,2.62,2.62,0,0,1-1.82,1,2.14,2.14,0,0,1-2-.81,3.47,3.47,0,0,1-.51-1.89,13,13,0,0,1,.44-3.72,9.49,9.49,0,0,1,.95-2.23,4.89,4.89,0,0,1,1.24-1.35,4,4,0,0,1,1.53.34Q276.83,33.55,277.56,33.82Z" style="fill:#666"/><path d="M287,41.12a30.4,30.4,0,0,1,3.2,3.65,16.37,16.37,0,0,1,1.75,3,9.42,9.42,0,0,1,.73,2.57,20.78,20.78,0,0,0,.44,2.43,9.61,9.61,0,0,1-.66,5.07,9.12,9.12,0,0,1-2.33,3.11,9.5,9.5,0,0,1-2.91,1.69c-1,.36-1.82.63-2.4.81a2.69,2.69,0,0,1-2.48-.27,4.23,4.23,0,0,1-1-2.43v-.61a2,2,0,0,1,.29-.74q0-.13,1-.61a14.89,14.89,0,0,0,2.18-1.28,8.47,8.47,0,0,0,2-2,4.1,4.1,0,0,0,.73-2.84,8.12,8.12,0,0,0-1.31-3.38q-1-1.49-1.89-.81-2,3-3.28,4.73t-3.28,4.6H278a1.89,1.89,0,0,1-.66-.14c-.24-.09-.36-.22-.36-.4s0-.32.15-.68a18.15,18.15,0,0,1,.87-1.76q.73-1.35,1.82-3.45t2.33-4.74q1.24-2.64,2.55-5.75.73-2.7.87-3.18a.58.58,0,0,1,.58-.47c.58,0,.87.23.87.68a.54.54,0,0,0,.07.27c0,.09,0,.23-.07.41.1.09.1.54,0,1.35S286.92,41.12,287,41.12Z" style="fill:#666"/></g></g></svg>