<svg xmlns="http://www.w3.org/2000/svg" width="169.55" height="39.03" viewBox="0 0 169.55 39.03"><title>Nati</title><g id="Layer_2" data-name="Layer 2"><g id="Layer_1-2" data-name="Layer 1"><path d="M92.53,27.81c.34.6,2.27.21,2.86.23,2.19-.21,5.1-1.07,6.09-2.83-1.22-.26-2.51-.93-3.88-.73a10.44,10.44,0,0,0-3.51,2.13c-.52.4-1.13.92-1.65,1.32" style="fill:#646464"/><path d="M90.42,26.89c-1.17,2.77-2.06,6.46-6.16,6.52.66-1.61,1.1-3.19,2.52-4.48.81-.77,3-1,3.48-1.59" style="fill:#646464"/><path d="M85,21.56a13.48,13.48,0,0,0-1.82-.7c-.39-.05-1.42-.3-1.21.2s1.24.76,1.62,1.08c-.56.12-1.12-.3-1.7-.24-1,0,0,.55.54.64-.88.06-.08.57.33.68s1.07.11,1.56.27,3,.58,3,.85-2.19,1.31-2.51,1.51c-.76.51-1.52,1-2.35,1.55-.25.19-1.42.86-1.07,1.33s1.23-.13,1.48-.33c-.28.34-1.92,2.07-.49,1.55a7.53,7.53,0,0,0,2.11-1.36c1.31-1.25,2.7-2.24,4-3.43,0,.62-.49,1.27-.39,1.94.43-.37.54-1.08.79-1.55a29.74,29.74,0,0,0,1.15,6.13c.07-.29.06-.63.31-.82.17.37.15.86.37,1.15.51-.32.4-1,.42-1.53.24.63.66.82,1,0,.18-.45-.15-.86-.11-1.28.55.7,1,.4.92-.48a4.82,4.82,0,0,0-.58-1.66c-.79-1.33-2.08-2.29-3.07-3.51A6,6,0,0,0,92,25.24c.77.1,1.71-.31,2.6-.3a16.6,16.6,0,0,0,3.8,0c.35-.08,1.16-.39.64-.69-.26-.15-1.05,0-1.46-.16a1.67,1.67,0,0,0,1-.35c.23-.26.47-.79-.19-.71.25-.19.65-.35.29-.61-.19-.16-1,0-1.18.05-.88.06-1.76.11-2.62.23a34.56,34.56,0,0,0-4.49.78,6.34,6.34,0,0,0,3.35-2.87c-.43.37-1,.64-1.45,1A3.45,3.45,0,0,0,93,20a16,16,0,0,0,0-1.85c.07-.29.28-1.5,0-1.65-.44-.25-1.07,1.33-1.21,1.64.09-.23.1-.78-.17-.92-.45-.31-.6.27-.73.64.05-.08,0-.15.09-.23-.61,1.37-.22,4-1.85,4.94-.9.54-1.67-.39-2.38-.85s-1.4-.52-2-.93" style="fill:#545454"/><path d="M85.73,22.36c-.5-.5-1.11-.85-1.54-1.37-.12-.18-.5-.78-.32-1s.7.12.93.14c1,.25,1.13-.8,1.54-1.5s1.35-1.94,2.2-1.24c.28.21.24.63.53.91s.56.15.89.28c1,.33.69,1.21.59,2s.08,4-1.44,3.87a6.34,6.34,0,0,1-2.71-1.59c-.28-.21,0,0-.66-.54" style="fill:#828282"/><path d="M90,23.71a24.22,24.22,0,0,1,1.38-3.11,5.92,5.92,0,0,1,1.56-1.92c1-.61.76.34.88.93a8.35,8.35,0,0,0,2.13-.43c.92-.21.74.21.37.84.57,0,1.92-.42,2.19.23s-.85,1.8-1.4,2.11a33.46,33.46,0,0,1-5.55,1.83,2.7,2.7,0,0,1-2.17,0c.13-.21.48-.24.69-.39" style="fill:#828282"/><path d="M89.8,24c-1.81.46-3.72-.44-5.48-.82a7.27,7.27,0,0,0-3-.07c-.49.12-.88.57-.3.76s1-.18,1.44.05c-.24.2-2.54,1.53-1.6,1.92-.22.26-.55.41-.59.77.4.1,1.18-.3,1.42,0,.31.54-.76,1,.46,1.05A5.93,5.93,0,0,0,85.31,27c.95-.58,1.79-1.28,2.74-1.86a10.47,10.47,0,0,1,1.81-1.21" style="fill:#828282"/><path d="M89.31,24c-.48.4-1,.75-1.6,1.16-.93.65-1.71,1.53-2.64,2.18a4,4,0,0,0-1.78,2.58c-.19,1.63,1.82.58,2.34-.18.28.2.1.59.27.9a2.47,2.47,0,0,0,.85.61,6.77,6.77,0,0,0,.87.4,2.15,2.15,0,0,0,1.18.2A2.75,2.75,0,0,0,90,29.7a19.65,19.65,0,0,0,.36-3.05c0-.55.21-2.05-.36-2.46-.39-.31-1.33.06-1.67.42" style="fill:#828282"/><path d="M89.07,24.36c.24.63,1.07,1.27,1.52,1.85a30.38,30.38,0,0,0,2,2.84c.22.29.94,1.64,1.36,1.54.77-.17.35-1.24.1-1.59a4.42,4.42,0,0,0,1.66.11c.91-.2.42-.37.57-.95s2.27-1.25.82-1.41c1.16-.67.6-1.7-.43-2.23a8.34,8.34,0,0,0-3.58-.65c-1,0-1.91.08-2.89,0-.3,0-1.1-.24-1.23.13s.73.8,1,.8" style="fill:#828282"/><path d="M90.57,23.42c-.3-.72,1.21-2.37,1.79-2.76.37.76-1.31,2-1.52,2.7.9-1.14,2.28-1.55,3.44-2.33,0,.69-2,1.64-2.48,2.07a6.27,6.27,0,0,1,2.58-1c-.12.87-2.68,1.33-3.45,1.65" style="fill:#aaa"/><path d="M89.29,23.89c-.84.06-2.11-1.75-2.35-2.37.9-.11,1.67,1.72,2.37,2.12-.93-1.12-1-2.46-1.44-3.71.71.24,1.14,2.21,1.44,2.79A5.13,5.13,0,0,1,89,20.14c.87.35.61,2.74.73,3.52" style="fill:#aaa"/><path d="M88.09,24.83c-.17.76-2.41,1.39-3.13,1.42.14-.82,2.26-1,2.87-1.51-1.43.51-2.83.17-4.27.24.45-.56,2.62-.4,3.31-.5a6.47,6.47,0,0,1-2.78-.41c.61-.67,3,.22,3.87.33" style="fill:#aaa"/><path d="M89.11,25c.57.57-.19,2.61-.57,3.17-.64-.58.44-2.28.35-3-.38,1.37-1.5,2.21-2.28,3.33-.23-.66,1.18-2.19,1.49-2.76-.6.64-1.09,1.51-2,1.84-.23-.85,2-2.14,2.55-2.7" style="fill:#aaa"/><path d="M90.72,24.49c.67-.47,2.8.42,3.37.83-.69.54-2.42-.62-3.24-.6,1.44.48,2.25,1.59,3.38,2.4-.74.15-2.26-1.29-2.84-1.63.63.61,1.53,1.14,1.8,2-.94.13-2.12-2-2.67-2.6" style="fill:#aaa"/><path d="M91.53,24.18c.25.08.7-1,.79-1.27-.34.14-.46.51-.71.71,0-.27.29-.61.15-.86a3.42,3.42,0,0,0-.52.87c.16-.24.27-.68.06-.91-.23.26-.2.66-.41,1a.88.88,0,0,0-.24-.91,1.76,1.76,0,0,0-.08.84,4.58,4.58,0,0,0-.85-1c0,.21-.07.29.12.45-.23-.29-2-1.27-2.4-.91-.53.53,1.23,1.58,1.58,1.78a1.28,1.28,0,0,0-.72-.46c0,.42.52.57.8.78-.47-.1-1-.33-1.45-.43a2.35,2.35,0,0,0,.93.41A7.28,7.28,0,0,0,87,23.95c.08.32.49.44.86.43-.44,0-.86-.15-1.27,0,.14.24.61.35.91.35-.14,0-1.2,0-.88.33.17.1.88-.06,1.11,0-.28.06-.63.14-.72.37.51.23,1.21-.2,1.6-.42a.72.72,0,0,0-.69.5c.42.18.81-.32,1.13-.52a1.92,1.92,0,0,0-.47.79c.35-.08.55-.46.71-.71-.06.36-.34.69-.26,1a2.85,2.85,0,0,0,.68-1.11c-.28.34-.61.82-.42,1.26.49-.11,1-1.19.65-1.52-.29.34-.19,1,.45.86.42-.09.64-1,.14-1.2-.08,1.12,1.76.16.46-.24,0,1,1.76-.11.5-.38a.62.62,0,0,0,.7.12.72.72,0,0,0-.68-.33,1.17,1.17,0,0,0,.84.09c-.12-.18-.93-.41-.68-.61" style="fill:#c3c3c3"/><path d="M6.47,35.67c-.17.42-.37.89-.59,1.41a3.55,3.55,0,0,1-.51.94h.08a1.52,1.52,0,0,1-.8.86A3.93,3.93,0,0,1,3.44,39a5.86,5.86,0,0,1-2.27-.39A1.89,1.89,0,0,1,.08,37a.63.63,0,0,1,0-.66q.21-.43,1.22-2.23l1-1.72,4.93-9.93,4.93-9.93,4.46-9.15a2.2,2.2,0,0,1,.84-.7,8.94,8.94,0,0,1,1-.47A2.3,2.3,0,0,1,19.1,2a1,1,0,0,0,.51-.27,14.44,14.44,0,0,1-2.19.35q-1.26.12-2.19.27l-2.1.23A36.64,36.64,0,0,0,6.52,4.3,11.7,11.7,0,0,0,1.34,7.82a3,3,0,0,1-.67.55q-.51,0-.51-.63a.44.44,0,0,1,.17-.31H.24A12.1,12.1,0,0,1,5.3,3.64a32.69,32.69,0,0,1,6.4-1.92,8.23,8.23,0,0,1,1.43-.2c.51,0,1-.06,1.43-.12q1.6-.16,3.16-.35a6.91,6.91,0,0,0,2.82-1V.16A.5.5,0,0,1,20.87,0c.34,0,.56.23.67.7q-1.18,3.52-2.65,7.2t-3,7.24Q14.3,18.7,12.7,22T9.76,28.24q2.1-2.82,4.13-5.48t4.21-5.32l1.43-1.8q.67-.78,1.39-1.76t1.56-2.07q1.35-1.8,2.9-3.72t2.95-3.52a29.65,29.65,0,0,1,2.57-2.66A3.93,3.93,0,0,1,32.83.78h.08L33.08.7l.08.31a8.19,8.19,0,0,0,1,0q.29,0,.38,1.13a6.47,6.47,0,0,1-.17,1,.3.3,0,0,0-.08.23v.08l-.08.08v.16h-.08l-.51,1.25q-.42.86-.93,2.07L31.61,9.54q-.55,1.33-1.05,2.62t-.84,2.23q-1.52,3.44-2.44,5.4t-1.43,3.09Q25.33,24,25,24.6t-.67,1.29q-.34.55-.88,1.49l-1.18,2q-.63,1.06-1.18,2.15a9.2,9.2,0,0,0-.76,2,2.24,2.24,0,0,0,0,1.45q.25.55,1.18.55A3.21,3.21,0,0,0,23.19,35,8.2,8.2,0,0,0,24.62,34a7,7,0,0,0,1.05-1.21q.42-.63.67-.94l.34-.31q.34,0,.51.63a5.87,5.87,0,0,1-.67,1.56,6.21,6.21,0,0,1-1.39,1.6,8.48,8.48,0,0,1-2,1.25,6,6,0,0,1-2.48.51q-2.11,0-2.65-1a4.39,4.39,0,0,1-.55-2.11v-.47a4.43,4.43,0,0,1,.17-1q.17-.66.55-1.8t1.14-3q1.85-4.69,3.66-9.43t4.25-10q-2.7,3.28-5.47,6.81t-5.47,7q-2.7,3.52-5.18,7T6.47,35.67Z" style="fill:#666"/><path d="M32.07,35.9a4.29,4.29,0,0,1-2.44.63,4.34,4.34,0,0,1-3.49-1.33A4.56,4.56,0,0,1,25,32.15a7.66,7.66,0,0,1,1.26-4.61A9.41,9.41,0,0,1,28.95,25a12.14,12.14,0,0,1,4-1.33,7.45,7.45,0,0,1,.84.08.59.59,0,0,1,.59.63,5.21,5.21,0,0,1-.55,2.19q-.55,1.17-1.05,1.17a5.23,5.23,0,0,0-2.74.74,4.55,4.55,0,0,0-1.43,1.49A4.87,4.87,0,0,0,28,31.48a7.56,7.56,0,0,0-.13,1q0,2.82,2.58,2.82a4.86,4.86,0,0,0,1.5-.31q.92-.31.92-.94a6.49,6.49,0,0,1-.08-2.46,21.39,21.39,0,0,1,.67-3.6,16.5,16.5,0,0,1,1.25-3.29q.75-1.45,1.68-1.45a2,2,0,0,1,1.56,1A3.11,3.11,0,0,1,38.64,26a.33.33,0,0,1,0,.16.32.32,0,0,0,0,.16.57.57,0,0,0-.08.23q-.08,0-.59.59a16.36,16.36,0,0,0-1.14,1.52,12.4,12.4,0,0,0-1.14,2.15,6.37,6.37,0,0,0-.51,2.46,5,5,0,0,0,.21,1.37q.21.75,1.64.74a3.24,3.24,0,0,0,2.61-1.21,13.49,13.49,0,0,0,1.68-2.54c.06-.1.17-.13.34-.08s.22.1.17.16A15.27,15.27,0,0,1,39.86,35a4,4,0,0,1-3.41,1.64,5.63,5.63,0,0,1-2-.35,2.55,2.55,0,0,1-1.35-1.06A4,4,0,0,1,32.07,35.9Z" style="fill:#666"/><path d="M38,35.28a1.64,1.64,0,0,1,.17-.78q1.6-3.29,2.86-6t2.82-6.18q1.56-3.48,3.07-7.16h-.17a1.49,1.49,0,0,0-.34,0,1.87,1.87,0,0,1-.42,0q-.25,0-.25-.47,0-.31.51-.35l1.18-.12q.67-1.33,1.43-3l1.43-3.13,1.52-3.44q.17-.62,1.22-.82a9.56,9.56,0,0,1,1.56-.2q1.35,0,1.35,1.8v.51a4.49,4.49,0,0,1-.29,1.21q-.3.86-1,2.46T52.7,14L60,13.53q.51,0,.51.47,0,.16-1.26.27l-2.82.23q-1.56.12-4.08.35-1.69,3.52-3.54,7.28T45.33,29l-3.75,7.12a1.05,1.05,0,0,1-1.09.63,5.06,5.06,0,0,1-1.85-.27A1.16,1.16,0,0,1,38,35.28Z" style="fill:#666"/><path d="M53.87,35.9a4.29,4.29,0,0,1-2.44.63,4.34,4.34,0,0,1-3.49-1.33,4.56,4.56,0,0,1-1.14-3.05,7.66,7.66,0,0,1,1.26-4.61A9.41,9.41,0,0,1,50.75,25a12.14,12.14,0,0,1,4-1.33,7.45,7.45,0,0,1,.84.08.59.59,0,0,1,.59.63,5.21,5.21,0,0,1-.55,2.19q-.55,1.17-1.05,1.17a5.23,5.23,0,0,0-2.74.74,4.55,4.55,0,0,0-1.43,1.49,4.87,4.87,0,0,0-.59,1.56,7.56,7.56,0,0,0-.13,1q0,2.82,2.58,2.82a4.86,4.86,0,0,0,1.5-.31q.92-.31.92-.94a6.49,6.49,0,0,1-.08-2.46,21.39,21.39,0,0,1,.67-3.6,16.5,16.5,0,0,1,1.25-3.29q.75-1.45,1.68-1.45a2,2,0,0,1,1.56,1A3.11,3.11,0,0,1,60.44,26a.33.33,0,0,1,0,.16.32.32,0,0,0,0,.16.57.57,0,0,0-.08.23q-.08,0-.59.59a16.36,16.36,0,0,0-1.14,1.52,12.4,12.4,0,0,0-1.14,2.15,6.37,6.37,0,0,0-.51,2.46,5,5,0,0,0,.21,1.37q.21.75,1.64.74a3.24,3.24,0,0,0,2.61-1.21,13.49,13.49,0,0,0,1.68-2.54c.06-.1.17-.13.34-.08s.22.1.17.16A15.27,15.27,0,0,1,61.66,35a4,4,0,0,1-3.41,1.64,5.63,5.63,0,0,1-2-.35,2.55,2.55,0,0,1-1.35-1.06A4,4,0,0,1,53.87,35.9Z" style="fill:#666"/><path d="M70.46,32.15a2.71,2.71,0,0,1-.38.94,6.88,6.88,0,0,1-1.14,1.49,7.21,7.21,0,0,1-1.89,1.37,5.52,5.52,0,0,1-2.57.59,5.07,5.07,0,0,1-2.69-.63,2.29,2.29,0,0,1-1-2.11,8.82,8.82,0,0,1,.29-1.6,45.5,45.5,0,0,1,1.47-4.34Q65,22,67.68,16.19L73.16,4.46c.06-.1.24-.21.55-.31a5.72,5.72,0,0,1,1-.23l1-.12.55,0a1,1,0,0,1,.29,0,.71.71,0,0,0,.21,0,1.85,1.85,0,0,1,.46.39,1.9,1.9,0,0,1,.29,1.25,12.42,12.42,0,0,1-1.26,4.62q-1.26,2.89-3,6T69.7,22.18Q67.85,25.11,66.76,27a15.79,15.79,0,0,1-1,1.53q-.63.9-1.26,1.92t-1.09,2A3.72,3.72,0,0,0,63,33.95a1.17,1.17,0,0,0,.59,1,2.37,2.37,0,0,0,1.35.39,3.9,3.9,0,0,0,2-.55,6.55,6.55,0,0,0,1.56-1.25,15.66,15.66,0,0,0,1.05-1.29q.42-.59.59-.59T70.46,32.15Z" style="fill:#666"/><path d="M75.6,34.5A11.85,11.85,0,0,1,74,35.86a4.59,4.59,0,0,1-2.78.74,3.93,3.93,0,0,1-1.73-.43,2.36,2.36,0,0,1-1.22-1.29,6.07,6.07,0,0,1-.34-2.54,11.75,11.75,0,0,1,.55-2.89,9.88,9.88,0,0,1,1.35-2.7,7.82,7.82,0,0,1,2.06-2A2.27,2.27,0,0,1,73,25a2.73,2.73,0,0,1,.8.63,4.16,4.16,0,0,1,.46.67,1.34,1.34,0,0,1,.17.39A2.06,2.06,0,0,1,73.79,28q-.63.7-1.39,1.64A14.68,14.68,0,0,0,71,31.72a5.14,5.14,0,0,0-.63,2.54.74.74,0,0,0,.42.74,3.42,3.42,0,0,0,1,.27,2.59,2.59,0,0,0,1.89-.43,6.67,6.67,0,0,0,1.52-1.37,11,11,0,0,0,1-1.45q.38-.66.46-.66c.11,0,.22.08.34.23a5.82,5.82,0,0,1-.46,1.29A8.82,8.82,0,0,1,75.6,34.5Zm.51-14.94q.42.31.88.63c.31.21.46.42.46.63a4,4,0,0,1-.29.7,10.26,10.26,0,0,1-.8,1.37,11.1,11.1,0,0,1-1.05,1.33,1.51,1.51,0,0,1-1.05.59,1.24,1.24,0,0,1-1.14-.47,2,2,0,0,1-.29-1.1,7.51,7.51,0,0,1,.25-2.15,5.49,5.49,0,0,1,.55-1.29,2.83,2.83,0,0,1,.72-.78,2.29,2.29,0,0,1,.88.2Z" style="fill:#666"/><path d="M81.83,35.9a4.29,4.29,0,0,1-2.44.63,4.34,4.34,0,0,1-3.49-1.33,4.56,4.56,0,0,1-1.14-3.05A7.66,7.66,0,0,1,76,27.53,9.41,9.41,0,0,1,78.71,25a12.14,12.14,0,0,1,4-1.33,7.45,7.45,0,0,1,.84.08.59.59,0,0,1,.59.63,5.21,5.21,0,0,1-.55,2.19Q83,27.69,82.5,27.69a5.23,5.23,0,0,0-2.74.74,4.55,4.55,0,0,0-1.43,1.49,4.87,4.87,0,0,0-.59,1.56,7.56,7.56,0,0,0-.13,1q0,2.82,2.58,2.82A4.86,4.86,0,0,0,81.7,35q.92-.31.92-.94a6.49,6.49,0,0,1-.08-2.46,21.39,21.39,0,0,1,.67-3.6,16.5,16.5,0,0,1,1.25-3.29q.75-1.45,1.68-1.45a2,2,0,0,1,1.56,1A3.11,3.11,0,0,1,88.4,26a.33.33,0,0,1,0,.16.32.32,0,0,0,0,.16.57.57,0,0,0-.08.23q-.08,0-.59.59a16.36,16.36,0,0,0-1.14,1.52,12.4,12.4,0,0,0-1.14,2.15,6.37,6.37,0,0,0-.51,2.46,5,5,0,0,0,.21,1.37q.21.75,1.64.74a3.24,3.24,0,0,0,2.61-1.21A13.49,13.49,0,0,0,91,31.6c.06-.1.17-.13.34-.08s.22.1.17.16A15.27,15.27,0,0,1,89.62,35a4,4,0,0,1-3.41,1.64,5.63,5.63,0,0,1-2-.35,2.55,2.55,0,0,1-1.35-1.06A4,4,0,0,1,81.83,35.9Z" style="fill:#666"/><path d="M97.44,10.09a4.88,4.88,0,0,1-.76-1.17,2.86,2.86,0,0,1-.34-1.17q0-.55,1.09-1.21a17,17,0,0,1,2.9-1.33q1.81-.66,4.17-1.34t5-1.16q2.61-.48,5.22-.81a40.55,40.55,0,0,1,5-.32,13.23,13.23,0,0,1,5.22.82,6,6,0,0,1,2.69,2.12,6.45,6.45,0,0,1,1,2.86,29.46,29.46,0,0,1,.17,3.13,23.65,23.65,0,0,1-.59,4.62,37.91,37.91,0,0,1-1.81,6,45.9,45.9,0,0,1-3,6.27A29.56,29.56,0,0,1,119.08,33a20.52,20.52,0,0,1-5.51,4.12,14.54,14.54,0,0,1-6.69,1.57q-3.28,0-4.63-1.45a5.23,5.23,0,0,1-1.35-3.72,12.89,12.89,0,0,1,.67-3.79,41.06,41.06,0,0,1,1.64-4.34q1-2.19,2.06-4.26t1.94-3.64l.67-1-2.36,2a39.09,39.09,0,0,1-2.86,2.7q-1.35,1.13-2,1c-.11,0-.17-.05-.17-.16a.45.45,0,0,1,.25-.39,2.42,2.42,0,0,0,1-.63,22.83,22.83,0,0,0,1.68-1.56q.93-.94,1.94-2l1.77-1.84q.51-.55,1.52-1.76l2.1-2.5q1.09-1.29,1.89-2.39t1-1.41a1.34,1.34,0,0,1,.84-.51,5.14,5.14,0,0,1,1.43-.2,4.71,4.71,0,0,1,1.39.2q.63.2.63.67l-3.28,5.71q-1.85,3.28-3.58,6.45t-3.12,5.87q-1.39,2.7-2.27,4.85A14.57,14.57,0,0,0,104.6,34a2.1,2.1,0,0,0,.21,1.33,1.84,1.84,0,0,0,.8.7,3,3,0,0,0,1.05.27c.36,0,.66,0,.88,0a13.2,13.2,0,0,0,8.17-2.74,24.52,24.52,0,0,0,6.1-6.77,35.37,35.37,0,0,0,3.83-8.6A29.55,29.55,0,0,0,127,10q0-3.75-1.52-4.93a6.43,6.43,0,0,0-4-1.17,28.81,28.81,0,0,0-8.88,1.29q-4,1.29-8,2.85l-3.16,1.25q-1.56.63-3.16,1.17h-.17l-.67-.31Z" style="fill:#666"/><path d="M130.78,31.05a1.44,1.44,0,0,0,1.05-.47,3.44,3.44,0,0,0,.72-1.06,11.39,11.39,0,0,0,.42-1.13,4.85,4.85,0,0,1,.25-.7,4.27,4.27,0,0,0-1.68.63,10.33,10.33,0,0,0-1.77,1.33,8.53,8.53,0,0,0-1.43,1.72,4.16,4.16,0,0,0-.67,1.8,6.4,6.4,0,0,0,0,.7,1.26,1.26,0,0,0,.38.74,2.52,2.52,0,0,0,1.05.59,5.49,5.49,0,0,0,2,.16,4.94,4.94,0,0,0,2.36-.7,8.81,8.81,0,0,0,1.73-1.37,10.43,10.43,0,0,0,1.14-1.37q.42-.62.59-.63c.17,0,.31.13.42.39a5.8,5.8,0,0,1-1.18,2,8.42,8.42,0,0,1-1.68,1.41,9.79,9.79,0,0,1-1.89.94,11.41,11.41,0,0,1-1.81.51,6.19,6.19,0,0,1-4.42-.78,3.77,3.77,0,0,1-1.81-3.36,7.16,7.16,0,0,1,1.18-4.15,11.85,11.85,0,0,1,2.57-2.78A18.83,18.83,0,0,1,132,23.39a2.59,2.59,0,0,1,1.89.94,2.77,2.77,0,0,1,.88,1.88,6.73,6.73,0,0,1-.21,1.45,6.31,6.31,0,0,1-.72,1.76,5.54,5.54,0,0,1-1.26,1.49,2.81,2.81,0,0,1-1.85.63,4,4,0,0,1-.76-.16c-.39-.1-.59-.23-.59-.39a.22.22,0,0,1,.08-.16,3.24,3.24,0,0,0,.42.16A3.61,3.61,0,0,0,130.78,31.05Z" style="fill:#666"/><path d="M143.33,34.5a11.85,11.85,0,0,1-1.6,1.37,4.59,4.59,0,0,1-2.78.74,3.93,3.93,0,0,1-1.73-.43A2.36,2.36,0,0,1,136,34.89a6.07,6.07,0,0,1-.34-2.54,11.75,11.75,0,0,1,.55-2.89,9.88,9.88,0,0,1,1.35-2.7,7.82,7.82,0,0,1,2.06-2,2.27,2.27,0,0,1,1.09.27,2.73,2.73,0,0,1,.8.63,4.16,4.16,0,0,1,.46.67,1.34,1.34,0,0,1,.17.39,2.06,2.06,0,0,1-.63,1.33q-.63.7-1.39,1.64a14.68,14.68,0,0,0-1.39,2.07,5.14,5.14,0,0,0-.63,2.54.74.74,0,0,0,.42.74,3.42,3.42,0,0,0,1,.27,2.59,2.59,0,0,0,1.89-.43,6.67,6.67,0,0,0,1.52-1.37A11,11,0,0,0,144,32q.38-.66.46-.66c.11,0,.22.08.34.23a5.82,5.82,0,0,1-.46,1.29A8.82,8.82,0,0,1,143.33,34.5Zm.51-14.94q.42.31.88.63c.31.21.46.42.46.63a4,4,0,0,1-.29.7,10.26,10.26,0,0,1-.8,1.37A11.1,11.1,0,0,1,143,24.21a1.51,1.51,0,0,1-1.05.59,1.24,1.24,0,0,1-1.14-.47,2,2,0,0,1-.29-1.1,7.51,7.51,0,0,1,.25-2.15,5.49,5.49,0,0,1,.55-1.29,2.83,2.83,0,0,1,.72-.78,2.29,2.29,0,0,1,.88.2Z" style="fill:#666"/><path d="M157.22,25.66c.11,0,.17.05.17.16l-.25.23a5.78,5.78,0,0,1-2.36,1.33,5.49,5.49,0,0,1-3-.08,4.15,4.15,0,0,1,.17,1,10.47,10.47,0,0,1-1.56,5.28,7.57,7.57,0,0,1-2,2.15,4.58,4.58,0,0,1-2.78.86,2,2,0,0,1-1.81-.9,3.91,3.91,0,0,1-.55-2.07q0-.63.17-2.27A20.54,20.54,0,0,1,144,28a13.11,13.11,0,0,1,1.22-3,2.22,2.22,0,0,1,1.94-1.33l.67,0a3.6,3.6,0,0,1,1,.23,3.93,3.93,0,0,1,.88.47.7.7,0,0,1,.29.74,4.69,4.69,0,0,0-.55.74,14.19,14.19,0,0,0-.8,1.45l-.42.78a15.6,15.6,0,0,0-.8,1.56q-.55,1.17-1,2.42a10.37,10.37,0,0,0-.59,2.23q-.13,1,.55,1a2.6,2.6,0,0,0,1.85-.82,8.47,8.47,0,0,0,1.47-2,12.86,12.86,0,0,0,1-2.31,6.4,6.4,0,0,0,.38-1.8,2.77,2.77,0,0,0-.34-1.56,1.51,1.51,0,0,1-.34-.86.42.42,0,0,1,.34-.47,6,6,0,0,0,1.22.86,3.88,3.88,0,0,0,1.52.47,4.51,4.51,0,0,0,1.73-.2A6,6,0,0,0,157.22,25.66Z" style="fill:#666"/><path d="M160,34.5a11.85,11.85,0,0,1-1.6,1.37,4.59,4.59,0,0,1-2.78.74,3.93,3.93,0,0,1-1.73-.43,2.36,2.36,0,0,1-1.22-1.29,6.07,6.07,0,0,1-.34-2.54,11.75,11.75,0,0,1,.55-2.89,9.88,9.88,0,0,1,1.35-2.7,7.82,7.82,0,0,1,2.06-2,2.27,2.27,0,0,1,1.09.27,2.73,2.73,0,0,1,.8.63,4.16,4.16,0,0,1,.46.67,1.34,1.34,0,0,1,.17.39,2.06,2.06,0,0,1-.63,1.33q-.63.7-1.39,1.64a14.68,14.68,0,0,0-1.39,2.07,5.14,5.14,0,0,0-.63,2.54.74.74,0,0,0,.42.74,3.42,3.42,0,0,0,1,.27,2.59,2.59,0,0,0,1.89-.43,6.67,6.67,0,0,0,1.52-1.37,11,11,0,0,0,1-1.45q.38-.66.46-.66c.11,0,.22.08.34.23a5.82,5.82,0,0,1-.46,1.29A8.82,8.82,0,0,1,160,34.5Zm.51-14.94q.42.31.88.63c.31.21.46.42.46.63a4,4,0,0,1-.29.7,10.26,10.26,0,0,1-.8,1.37,11.1,11.1,0,0,1-1.05,1.33,1.51,1.51,0,0,1-1.05.59,1.24,1.24,0,0,1-1.14-.47,2,2,0,0,1-.29-1.1,7.51,7.51,0,0,1,.25-2.15,5.49,5.49,0,0,1,.55-1.29,2.83,2.83,0,0,1,.72-.78,2.29,2.29,0,0,1,.88.2Z" style="fill:#666"/><path d="M166,23.78a17.58,17.58,0,0,1,1.85,2.11,9.46,9.46,0,0,1,1,1.72,5.45,5.45,0,0,1,.42,1.49,12,12,0,0,0,.25,1.41,5.56,5.56,0,0,1-.38,2.93,5.27,5.27,0,0,1-1.35,1.8,5.49,5.49,0,0,1-1.68,1c-.59.21-1.05.36-1.39.47a1.56,1.56,0,0,1-1.43-.16,2.44,2.44,0,0,1-.59-1.41v-.35a1.16,1.16,0,0,1,.17-.43q0-.08.59-.35a8.61,8.61,0,0,0,1.26-.74,4.9,4.9,0,0,0,1.18-1.17,2.37,2.37,0,0,0,.42-1.64,4.69,4.69,0,0,0-.76-2q-.59-.86-1.09-.47-1.18,1.72-1.89,2.74l-1.89,2.66h.08a1.09,1.09,0,0,1-.38-.08c-.14-.05-.21-.13-.21-.23s0-.18.08-.39a10.5,10.5,0,0,1,.51-1q.42-.78,1.05-2t1.35-2.74q.71-1.53,1.47-3.32.42-1.56.51-1.84a.33.33,0,0,1,.34-.27c.34,0,.51.13.51.39a.31.31,0,0,0,0,.16c0,.05,0,.13,0,.23s.06.31,0,.78S165.92,23.78,166,23.78Z" style="fill:#666"/></g></g></svg>