<svg xmlns="http://www.w3.org/2000/svg" width="191.68" height="44.13" viewBox="0 0 191.68 44.13"><title>Nati</title><g id="Layer_2" data-name="Layer 2"><g id="Layer_1-2" data-name="Layer 1"><path d="M104.61,31.44c.38.68,2.56.24,3.23.26,2.48-.24,5.77-1.2,6.88-3.2-1.38-.29-2.83-1.06-4.39-.83a11.81,11.81,0,0,0-4,2.41c-.59.45-1.28,1-1.87,1.49" style="fill:#646464"/><path d="M102.22,30.4c-1.32,3.13-2.33,7.31-7,7.37.75-1.82,1.24-3.6,2.85-5.06.91-.87,3.39-1.1,3.94-1.79" style="fill:#646464"/><path d="M96.13,24.38a15.24,15.24,0,0,0-2.06-.79c-.44-.06-1.61-.34-1.37.23s1.4.86,1.83,1.23c-.64.14-1.27-.34-1.92-.27-1.09,0,0,.62.61.72-1,.06-.09.64.37.77s1.21.12,1.76.31,3.37.65,3.37,1S96.24,29,95.88,29.24c-.86.58-1.72,1.16-2.66,1.75-.28.22-1.6,1-1.21,1.51s1.39-.15,1.67-.37c-.32.38-2.17,2.34-.56,1.75a8.51,8.51,0,0,0,2.38-1.53c1.49-1.41,3-2.53,4.55-3.87,0,.7-.55,1.44-.44,2.19.48-.42.61-1.22.89-1.75a33.62,33.62,0,0,0,1.29,6.93c.08-.33.07-.71.35-.93.19.42.17,1,.42,1.3.58-.36.45-1.19.48-1.73.27.72.74.92,1.09,0,.2-.51-.17-1-.12-1.45.63.79,1.13.45,1-.54a5.45,5.45,0,0,0-.65-1.87c-.9-1.51-2.36-2.58-3.47-4a6.8,6.8,0,0,0,3.1,1.88c.87.12,1.93-.35,2.94-.34a18.77,18.77,0,0,0,4.29,0c.4-.09,1.32-.45.72-.78-.3-.17-1.19,0-1.65-.18a1.89,1.89,0,0,0,1.08-.39c.26-.29.53-.89-.21-.81.28-.22.74-.4.33-.69-.22-.18-1.09,0-1.33.06-1,.06-2,.13-3,.27a39.07,39.07,0,0,0-5.08.89c1.19-.26,3.48-2.16,3.79-3.24-.48.42-1.16.72-1.64,1.14a3.9,3.9,0,0,0,.87-1.82,18.09,18.09,0,0,0,0-2.09c.08-.33.32-1.7,0-1.87-.49-.28-1.21,1.51-1.37,1.85.1-.26.11-.88-.19-1-.51-.35-.68.3-.82.72.06-.09,0-.16.1-.26-.69,1.55-.25,4.55-2.09,5.58-1,.61-1.88-.44-2.69-1s-1.58-.58-2.29-1" style="fill:#545454"/><path d="M96.92,25.27c-.57-.57-1.26-1-1.74-1.55-.14-.2-.56-.88-.36-1.08s.79.13,1,.16c1.16.28,1.28-.9,1.74-1.7.42-.63,1.53-2.19,2.49-1.4.31.24.27.71.6,1s.63.17,1,.32c1.1.37.78,1.37.67,2.25-.15,1,.09,4.54-1.63,4.38a7.17,7.17,0,0,1-3.06-1.8c-.31-.24,0,0-.75-.61" style="fill:#828282"/><path d="M101.71,26.8a27.39,27.39,0,0,1,1.56-3.51A6.7,6.7,0,0,1,105,21.12c1.08-.69.85.39,1,1.05a9.44,9.44,0,0,0,2.41-.49c1-.23.84.24.41.95.65-.05,2.17-.47,2.48.26s-1,2-1.58,2.39a37.82,37.82,0,0,1-6.27,2.07,3.06,3.06,0,0,1-2.46,0c.14-.24.55-.27.78-.44" style="fill:#828282"/><path d="M101.52,27.13c-2,.51-4.21-.5-6.19-.93a8.22,8.22,0,0,0-3.4-.08c-.55.14-1,.64-.34.86s1.12-.2,1.62.06c-.27.22-2.87,1.73-1.81,2.17-.25.3-.62.47-.67.87.46.12,1.34-.34,1.6,0,.35.61-.86,1.07.52,1.19a6.71,6.71,0,0,0,3.58-.75c1.07-.66,2-1.44,3.09-2.1a11.84,11.84,0,0,1,2-1.37" style="fill:#828282"/><path d="M101,27.16c-.54.45-1.19.84-1.81,1.31-1.05.73-1.94,1.73-3,2.47a4.55,4.55,0,0,0-2,2.92c-.21,1.84,2.05.65,2.65-.2.32.23.12.67.3,1a2.79,2.79,0,0,0,1,.69,7.65,7.65,0,0,0,1,.45,2.43,2.43,0,0,0,1.34.22,3.11,3.11,0,0,0,1.38-2.46,22.22,22.22,0,0,0,.41-3.45c0-.62.24-2.32-.4-2.78-.44-.36-1.5.07-1.89.48" style="fill:#828282"/><path d="M100.7,27.54c.27.71,1.21,1.43,1.72,2.09a34.35,34.35,0,0,0,2.26,3.21c.25.33,1.07,1.85,1.54,1.75.87-.19.39-1.4.12-1.8a5,5,0,0,0,1.88.13c1-.23.48-.41.64-1.07.12-.49,2.57-1.42.93-1.59,1.31-.75.67-1.92-.49-2.52a9.43,9.43,0,0,0-4-.73c-1.09,0-2.16.09-3.26,0-.34,0-1.24-.27-1.39.15s.82.9,1.16.9" style="fill:#828282"/><path d="M102.39,26.48c-.34-.82,1.37-2.68,2-3.12.42.86-1.48,2.23-1.72,3.05,1-1.29,2.57-1.75,3.89-2.64-.05.78-2.22,1.86-2.81,2.34a7.09,7.09,0,0,1,2.92-1.18c-.13,1-3,1.5-3.9,1.87" style="fill:#aaa"/><path d="M100.95,27c-.95.07-2.39-2-2.66-2.68,1-.12,1.89,1.95,2.68,2.4-1.05-1.27-1.08-2.78-1.62-4.19.8.27,1.29,2.5,1.62,3.15-.19-.94-.7-1.95-.38-2.91,1,.4.69,3.1.82,4" style="fill:#aaa"/><path d="M99.58,28.07c-.19.86-2.72,1.57-3.54,1.61.15-.93,2.56-1.13,3.24-1.7-1.62.58-3.19.19-4.82.27.51-.63,3-.45,3.74-.56-1-.09-2.22.08-3.14-.47.69-.76,3.43.25,4.37.38" style="fill:#aaa"/><path d="M100.74,28.23c.64.64-.21,3-.65,3.58-.73-.66.5-2.57.39-3.42-.43,1.55-1.7,2.5-2.57,3.77-.26-.75,1.33-2.48,1.68-3.12-.68.72-1.23,1.71-2.25,2.08-.27-1,2.22-2.41,2.89-3.05" style="fill:#aaa"/><path d="M102.56,27.68c.76-.53,3.17.47,3.81.93-.78.61-2.73-.7-3.66-.68,1.63.54,2.54,1.8,3.83,2.72-.83.17-2.55-1.46-3.22-1.84.71.69,1.73,1.29,2,2.26-1.06.15-2.4-2.27-3-2.94" style="fill:#aaa"/><path d="M103.47,27.34c.28.09.79-1.18.89-1.44-.38.16-.52.58-.8.8,0-.31.33-.69.17-1a3.86,3.86,0,0,0-.59,1c.18-.27.31-.77.07-1-.26.29-.23.75-.47,1.11a1,1,0,0,0-.27-1,2,2,0,0,0-.09,1,5.18,5.18,0,0,0-1-1.11c0,.24-.08.33.13.51-.25-.33-2.31-1.43-2.71-1-.6.6,1.39,1.79,1.79,2a1.45,1.45,0,0,0-.81-.52c0,.48.59.65.9.89-.54-.12-1.11-.38-1.64-.49a2.65,2.65,0,0,0,1,.47,8.23,8.23,0,0,0-1.78-.38c.1.37.55.5,1,.48-.5,0-1-.17-1.43,0,.16.28.69.39,1,.39-.16,0-1.35,0-1,.38.2.11,1-.06,1.25,0-.32.07-.72.16-.82.41.57.26,1.37-.23,1.81-.48a.81.81,0,0,0-.78.56c.47.21.92-.36,1.28-.59a2.17,2.17,0,0,0-.53.89c.4-.09.62-.52.8-.8-.06.4-.39.78-.29,1.15a3.22,3.22,0,0,0,.77-1.26c-.32.38-.69.93-.47,1.42.56-.12,1.17-1.34.73-1.71-.32.38-.21,1.13.51,1,.48-.11.73-1.09.15-1.35-.09,1.26,2,.18.52-.27,0,1.17,2-.13.56-.43a.7.7,0,0,0,.79.14.81.81,0,0,0-.77-.37,1.32,1.32,0,0,0,1,.1c-.14-.2-1-.47-.77-.68" style="fill:#c3c3c3"/><path d="M7.32,40.32c-.19.47-.41,1-.67,1.59A4,4,0,0,1,6.08,43h.1a1.72,1.72,0,0,1-.9,1,4.44,4.44,0,0,1-1.38.18,6.62,6.62,0,0,1-2.57-.44A2.14,2.14,0,0,1,.09,41.83a.72.72,0,0,1,0-.75q.24-.48,1.38-2.52l1.14-1.95L8.22,25.38l5.57-11.23,5-10.35a2.49,2.49,0,0,1,1-.8,10.1,10.1,0,0,1,1.14-.53,2.61,2.61,0,0,1,.67-.22,1.1,1.1,0,0,0,.57-.31,16.33,16.33,0,0,1-2.47.4q-1.43.13-2.47.31l-2.38.27A41.42,41.42,0,0,0,7.37,4.86a13.22,13.22,0,0,0-5.85,4,3.34,3.34,0,0,1-.76.62q-.57,0-.57-.71A.5.5,0,0,1,.37,8.4H.28A13.68,13.68,0,0,1,6,4.11a37,37,0,0,1,7.23-2.17,9.3,9.3,0,0,1,1.62-.22c.57,0,1.11-.07,1.62-.13q1.81-.18,3.57-.4A7.82,7.82,0,0,0,23.21.09V.18A.56.56,0,0,1,23.6,0c.38,0,.63.26.76.8q-1.33,4-3,8.13t-3.43,8.18q-1.76,4-3.57,7.78t-3.33,7q2.38-3.18,4.66-6.19t4.76-6l1.62-2q.76-.88,1.57-2t1.76-2.34q1.52-2,3.28-4.2t3.33-4a33.52,33.52,0,0,1,2.9-3A4.45,4.45,0,0,1,37.11.88h.1L37.4.8l.1.35a9.26,9.26,0,0,0,1.09,0q.33,0,.43,1.28a7.32,7.32,0,0,1-.19,1.15.34.34,0,0,0-.1.26v.09l-.1.09v.18h-.1L38,5.57q-.48,1-1,2.34l-1.19,2.87q-.62,1.5-1.19,3t-1,2.52q-1.71,3.89-2.76,6.1t-1.62,3.49q-.57,1.28-1,1.95t-.76,1.46q-.38.62-1,1.68l-1.33,2.25q-.71,1.19-1.33,2.43A10.4,10.4,0,0,0,23,37.89a2.54,2.54,0,0,0,0,1.64q.29.62,1.33.62a3.63,3.63,0,0,0,1.86-.53,9.27,9.27,0,0,0,1.62-1.19A8,8,0,0,0,29,37.05q.47-.71.76-1.06l.38-.35q.38,0,.57.71A6.64,6.64,0,0,1,30,38.11a7,7,0,0,1-1.57,1.81,9.59,9.59,0,0,1-2.28,1.42,6.81,6.81,0,0,1-2.81.58q-2.38,0-3-1.15a5,5,0,0,1-.62-2.39v-.53a5,5,0,0,1,.19-1.11q.19-.75.62-2t1.28-3.4Q23.88,26,25.93,20.65T30.73,9.37q-3,3.71-6.19,7.69t-6.19,8q-3,4-5.85,7.87T7.32,40.32Z" style="fill:#fff"/><path d="M36.25,40.59a4.85,4.85,0,0,1-2.76.71,4.91,4.91,0,0,1-4-1.5,5.16,5.16,0,0,1-1.28-3.45,8.66,8.66,0,0,1,1.42-5.22,10.64,10.64,0,0,1,3-2.92,13.73,13.73,0,0,1,4.48-1.5,8.42,8.42,0,0,1,1,.09.66.66,0,0,1,.67.71A5.89,5.89,0,0,1,38.21,30Q37.59,31.3,37,31.3a5.91,5.91,0,0,0-3.09.84,5.14,5.14,0,0,0-1.62,1.68,5.51,5.51,0,0,0-.67,1.77,8.54,8.54,0,0,0-.14,1.11q0,3.18,2.92,3.18a5.49,5.49,0,0,0,1.69-.35q1-.35,1-1.06a7.33,7.33,0,0,1-.1-2.79,24.18,24.18,0,0,1,.75-4.07,18.65,18.65,0,0,1,1.41-3.71q.85-1.64,1.9-1.64a2.24,2.24,0,0,1,1.76,1.11,3.51,3.51,0,0,1,.81,2,.38.38,0,0,1,0,.18.36.36,0,0,0,0,.18.64.64,0,0,0-.1.26q-.1,0-.67.66a18.5,18.5,0,0,0-1.28,1.72,14,14,0,0,0-1.29,2.43,7.2,7.2,0,0,0-.57,2.79,5.68,5.68,0,0,0,.24,1.55q.24.84,1.86.84a3.66,3.66,0,0,0,3-1.37,15.25,15.25,0,0,0,1.9-2.87c.06-.12.19-.15.38-.09s.25.12.19.18a17.27,17.27,0,0,1-2.14,3.71,4.53,4.53,0,0,1-3.85,1.86,6.37,6.37,0,0,1-2.28-.4,2.89,2.89,0,0,1-1.52-1.19A4.49,4.49,0,0,1,36.25,40.59Z" style="fill:#fff"/><path d="M42.92,39.88a1.86,1.86,0,0,1,.19-.88q1.81-3.71,3.24-6.76t3.19-7q1.76-3.93,3.47-8.09h-.19a1.68,1.68,0,0,0-.38,0,2.11,2.11,0,0,1-.48,0q-.29,0-.29-.53,0-.35.57-.4l1.33-.13q.76-1.5,1.62-3.36t1.62-3.54l1.71-3.89q.19-.71,1.38-.93a10.81,10.81,0,0,1,1.76-.22q1.52,0,1.52,2v.57a5.07,5.07,0,0,1-.33,1.37q-.33,1-1.09,2.79t-2.19,4.82l8.28-.53q.57,0,.57.53,0,.18-1.43.31l-3.19.27q-1.76.13-4.62.4-1.91,4-4,8.22t-4,7.78l-4.24,8a1.19,1.19,0,0,1-1.24.71,5.72,5.72,0,0,1-2.09-.31A1.31,1.31,0,0,1,42.92,39.88Z" style="fill:#fff"/><path d="M60.91,40.59a4.85,4.85,0,0,1-2.76.71,4.91,4.91,0,0,1-4-1.5,5.16,5.16,0,0,1-1.28-3.45,8.66,8.66,0,0,1,1.42-5.22,10.64,10.64,0,0,1,3-2.92,13.73,13.73,0,0,1,4.48-1.5,8.42,8.42,0,0,1,1,.09.66.66,0,0,1,.67.71A5.89,5.89,0,0,1,62.86,30q-.62,1.33-1.19,1.33a5.91,5.91,0,0,0-3.09.84A5.14,5.14,0,0,0,57,33.82a5.51,5.51,0,0,0-.67,1.77,8.54,8.54,0,0,0-.14,1.11q0,3.18,2.92,3.18a5.49,5.49,0,0,0,1.69-.35q1-.35,1-1.06a7.33,7.33,0,0,1-.1-2.79,24.18,24.18,0,0,1,.75-4.07,18.65,18.65,0,0,1,1.41-3.71q.85-1.64,1.9-1.64a2.24,2.24,0,0,1,1.76,1.11,3.51,3.51,0,0,1,.81,2,.38.38,0,0,1,0,.18.36.36,0,0,0,0,.18.64.64,0,0,0-.1.26q-.1,0-.67.66a18.5,18.5,0,0,0-1.28,1.72A14,14,0,0,0,64.9,34.8a7.2,7.2,0,0,0-.57,2.79,5.68,5.68,0,0,0,.24,1.55q.24.84,1.86.84a3.66,3.66,0,0,0,3-1.37,15.25,15.25,0,0,0,1.9-2.87c.06-.12.19-.15.38-.09s.25.12.19.18a17.27,17.27,0,0,1-2.14,3.71,4.53,4.53,0,0,1-3.85,1.86,6.37,6.37,0,0,1-2.28-.4A2.89,2.89,0,0,1,62,39.79,4.49,4.49,0,0,1,60.91,40.59Z" style="fill:#fff"/><path d="M79.66,36.34a3.06,3.06,0,0,1-.43,1.06,7.78,7.78,0,0,1-1.28,1.68,8.15,8.15,0,0,1-2.14,1.55,6.24,6.24,0,0,1-2.9.66,5.73,5.73,0,0,1-3-.71,2.59,2.59,0,0,1-1.14-2.39A10,10,0,0,1,69,36.39a51.44,51.44,0,0,1,1.67-4.91q2.76-6.63,5.81-13.18T82.7,5c.06-.12.27-.23.62-.35a6.47,6.47,0,0,1,1.14-.27q.62-.09,1.14-.13l.62,0a1.17,1.17,0,0,1,.33,0,.81.81,0,0,0,.24,0,2.09,2.09,0,0,1,.52.44,2.15,2.15,0,0,1,.33,1.42,14,14,0,0,1-1.43,5.22q-1.43,3.27-3.38,6.81t-4,6.85q-2.09,3.32-3.33,5.44a17.85,17.85,0,0,1-1.09,1.72q-.71,1-1.43,2.17t-1.24,2.21a4.2,4.2,0,0,0-.52,1.77,1.33,1.33,0,0,0,.67,1.15,2.68,2.68,0,0,0,1.52.44,4.41,4.41,0,0,0,2.28-.62,7.41,7.41,0,0,0,1.76-1.42,17.7,17.7,0,0,0,1.19-1.46q.48-.66.67-.66T79.66,36.34Z" style="fill:#fff"/><path d="M85.46,39a13.4,13.4,0,0,1-1.81,1.55,5.19,5.19,0,0,1-3.14.84,4.44,4.44,0,0,1-2-.49,2.67,2.67,0,0,1-1.38-1.46,6.87,6.87,0,0,1-.38-2.87,13.29,13.29,0,0,1,.62-3.27,11.17,11.17,0,0,1,1.52-3.05,8.84,8.84,0,0,1,2.33-2.3,2.56,2.56,0,0,1,1.24.31,3.09,3.09,0,0,1,.9.71,4.7,4.7,0,0,1,.52.75,1.51,1.51,0,0,1,.19.44,2.33,2.33,0,0,1-.71,1.5q-.71.8-1.57,1.86a16.6,16.6,0,0,0-1.57,2.34,5.81,5.81,0,0,0-.71,2.87.84.84,0,0,0,.48.84,3.86,3.86,0,0,0,1.14.31,2.93,2.93,0,0,0,2.14-.49A7.54,7.54,0,0,0,85,37.85a12.44,12.44,0,0,0,1.14-1.64q.43-.75.52-.75c.13,0,.25.09.38.26a6.59,6.59,0,0,1-.52,1.46A10,10,0,0,1,85.46,39ZM86,22.11q.48.35,1,.71c.35.24.52.47.52.71a4.57,4.57,0,0,1-.33.8,11.6,11.6,0,0,1-.9,1.55,12.55,12.55,0,0,1-1.19,1.5,1.71,1.71,0,0,1-1.19.66,1.4,1.4,0,0,1-1.28-.53,2.27,2.27,0,0,1-.33-1.24,8.49,8.49,0,0,1,.29-2.43,6.21,6.21,0,0,1,.62-1.46,3.19,3.19,0,0,1,.81-.88,2.59,2.59,0,0,1,1,.22Z" style="fill:#fff"/><path d="M92.51,40.59a4.85,4.85,0,0,1-2.76.71,4.91,4.91,0,0,1-4-1.5,5.16,5.16,0,0,1-1.28-3.45,8.66,8.66,0,0,1,1.42-5.22,10.64,10.64,0,0,1,3-2.92,13.73,13.73,0,0,1,4.48-1.5,8.42,8.42,0,0,1,1,.09.66.66,0,0,1,.67.71A5.89,5.89,0,0,1,94.46,30q-.62,1.33-1.19,1.33a5.91,5.91,0,0,0-3.09.84,5.14,5.14,0,0,0-1.62,1.68,5.51,5.51,0,0,0-.67,1.77,8.54,8.54,0,0,0-.14,1.11q0,3.18,2.92,3.18a5.49,5.49,0,0,0,1.69-.35q1-.35,1-1.06a7.33,7.33,0,0,1-.1-2.79,24.18,24.18,0,0,1,.75-4.07,18.65,18.65,0,0,1,1.41-3.71q.85-1.64,1.9-1.64a2.24,2.24,0,0,1,1.76,1.11,3.51,3.51,0,0,1,.81,2,.38.38,0,0,1,0,.18.36.36,0,0,0,0,.18.64.64,0,0,0-.1.26q-.1,0-.67.66a18.5,18.5,0,0,0-1.28,1.72A14,14,0,0,0,96.5,34.8a7.2,7.2,0,0,0-.57,2.79,5.68,5.68,0,0,0,.24,1.55Q96.41,40,98,40a3.66,3.66,0,0,0,3-1.37,15.25,15.25,0,0,0,1.9-2.87c.06-.12.19-.15.38-.09s.25.12.19.18a17.27,17.27,0,0,1-2.14,3.71,4.53,4.53,0,0,1-3.85,1.86,6.37,6.37,0,0,1-2.28-.4,2.89,2.89,0,0,1-1.52-1.19A4.49,4.49,0,0,1,92.51,40.59Z" style="fill:#fff"/><path d="M110.16,11.41a5.51,5.51,0,0,1-.86-1.33,3.23,3.23,0,0,1-.38-1.33q0-.62,1.24-1.37a19.21,19.21,0,0,1,3.28-1.5q2-.75,4.71-1.52T123.77,3q2.95-.55,5.9-.91a45.84,45.84,0,0,1,5.62-.37,15,15,0,0,1,5.9.93,6.8,6.8,0,0,1,3,2.39,7.3,7.3,0,0,1,1.14,3.24,33.3,33.3,0,0,1,.19,3.54,26.74,26.74,0,0,1-.67,5.23,42.86,42.86,0,0,1-2,6.74,51.89,51.89,0,0,1-3.43,7.09,33.42,33.42,0,0,1-4.81,6.42A23.2,23.2,0,0,1,128.38,42a16.44,16.44,0,0,1-7.57,1.77q-3.71,0-5.24-1.64a5.91,5.91,0,0,1-1.52-4.2,14.58,14.58,0,0,1,.76-4.29,46.42,46.42,0,0,1,1.86-4.91q1.09-2.48,2.33-4.82t2.19-4.11l.76-1.15-2.67,2.21a44.19,44.19,0,0,1-3.24,3.05q-1.52,1.28-2.28,1.11c-.13,0-.19-.06-.19-.18a.51.51,0,0,1,.29-.44A2.73,2.73,0,0,0,115,23.7a25.81,25.81,0,0,0,1.9-1.77q1-1.06,2.19-2.25l2-2.08q.57-.62,1.71-2l2.38-2.83q1.24-1.46,2.14-2.7t1.09-1.59a1.51,1.51,0,0,1,1-.58A5.81,5.81,0,0,1,131,7.69a5.32,5.32,0,0,1,1.57.22q.71.22.71.75l-3.71,6.46q-2.09,3.71-4,7.29T122,29q-1.57,3-2.57,5.48a16.47,16.47,0,0,0-1.19,3.93,2.37,2.37,0,0,0,.24,1.5,2.08,2.08,0,0,0,.9.8,3.37,3.37,0,0,0,1.19.31c.41,0,.75,0,1,0A14.92,14.92,0,0,0,130.81,38a27.72,27.72,0,0,0,6.9-7.65A40,40,0,0,0,142,20.65a33.41,33.41,0,0,0,1.52-9.33q0-4.24-1.71-5.57a7.27,7.27,0,0,0-4.57-1.33,32.57,32.57,0,0,0-10,1.46q-4.52,1.46-9,3.23l-3.57,1.42q-1.76.71-3.57,1.33h-.19l-.76-.35Z" style="fill:#fff"/><path d="M147.85,35.11a1.63,1.63,0,0,0,1.19-.53,3.89,3.89,0,0,0,.81-1.19,12.88,12.88,0,0,0,.48-1.28,5.49,5.49,0,0,1,.29-.8,4.83,4.83,0,0,0-1.9.71,11.67,11.67,0,0,0-2,1.5,9.65,9.65,0,0,0-1.62,1.95,4.71,4.71,0,0,0-.76,2,7.24,7.24,0,0,0,0,.8,1.43,1.43,0,0,0,.43.84,2.85,2.85,0,0,0,1.19.66,6.2,6.2,0,0,0,2.24.18,5.58,5.58,0,0,0,2.67-.8,10,10,0,0,0,2-1.55,11.79,11.79,0,0,0,1.28-1.55q.48-.71.67-.71c.19,0,.35.15.48.44a6.55,6.55,0,0,1-1.33,2.25,9.52,9.52,0,0,1-1.9,1.59,11.07,11.07,0,0,1-2.14,1.06,12.9,12.9,0,0,1-2,.58,7,7,0,0,1-5-.88,4.26,4.26,0,0,1-2-3.8,8.09,8.09,0,0,1,1.33-4.69,13.4,13.4,0,0,1,2.9-3.14,21.28,21.28,0,0,1,4.14-2.34,2.93,2.93,0,0,1,2.14,1.06,3.13,3.13,0,0,1,1,2.12,7.61,7.61,0,0,1-.24,1.64,7.14,7.14,0,0,1-.81,2,6.26,6.26,0,0,1-1.43,1.68,3.18,3.18,0,0,1-2.09.71,4.51,4.51,0,0,1-.86-.18c-.44-.12-.67-.27-.67-.44a.25.25,0,0,1,.1-.18,3.67,3.67,0,0,0,.48.18A4.09,4.09,0,0,0,147.85,35.11Z" style="fill:#fff"/><path d="M162,39a13.4,13.4,0,0,1-1.81,1.55,5.19,5.19,0,0,1-3.14.84,4.44,4.44,0,0,1-2-.49,2.67,2.67,0,0,1-1.38-1.46,6.87,6.87,0,0,1-.38-2.87,13.29,13.29,0,0,1,.62-3.27,11.17,11.17,0,0,1,1.52-3.05,8.84,8.84,0,0,1,2.33-2.3,2.56,2.56,0,0,1,1.24.31,3.09,3.09,0,0,1,.9.71,4.7,4.7,0,0,1,.52.75,1.51,1.51,0,0,1,.19.44,2.33,2.33,0,0,1-.71,1.5q-.71.8-1.57,1.86a16.6,16.6,0,0,0-1.57,2.34,5.81,5.81,0,0,0-.71,2.87.84.84,0,0,0,.48.84,3.86,3.86,0,0,0,1.14.31,2.93,2.93,0,0,0,2.14-.49,7.54,7.54,0,0,0,1.71-1.55,12.44,12.44,0,0,0,1.14-1.64q.43-.75.52-.75c.13,0,.25.09.38.26a6.59,6.59,0,0,1-.52,1.46A10,10,0,0,1,162,39Zm.57-16.89q.48.35,1,.71c.35.24.52.47.52.71a4.57,4.57,0,0,1-.33.8,11.6,11.6,0,0,1-.9,1.55,12.55,12.55,0,0,1-1.19,1.5,1.71,1.71,0,0,1-1.19.66,1.4,1.4,0,0,1-1.28-.53,2.27,2.27,0,0,1-.33-1.24,8.49,8.49,0,0,1,.29-2.43,6.21,6.21,0,0,1,.62-1.46,3.19,3.19,0,0,1,.81-.88,2.59,2.59,0,0,1,1,.22Z" style="fill:#fff"/><path d="M177.74,29c.13,0,.19.06.19.18l-.29.27A6.54,6.54,0,0,1,175,31a6.2,6.2,0,0,1-3.43-.09,4.69,4.69,0,0,1,.19,1.15A11.83,11.83,0,0,1,170,38a8.56,8.56,0,0,1-2.24,2.43,5.18,5.18,0,0,1-3.14,1,2.21,2.21,0,0,1-2-1,4.42,4.42,0,0,1-.62-2.34q0-.71.19-2.56a23.22,23.22,0,0,1,.71-3.76,14.82,14.82,0,0,1,1.38-3.4,2.51,2.51,0,0,1,2.19-1.5l.76,0a4.07,4.07,0,0,1,1.14.27,4.44,4.44,0,0,1,1,.53.79.79,0,0,1,.33.84,5.3,5.3,0,0,0-.62.84,16,16,0,0,0-.9,1.64l-.48.88a17.64,17.64,0,0,0-.9,1.77q-.62,1.33-1.14,2.74a11.72,11.72,0,0,0-.67,2.52q-.14,1.11.62,1.11a2.94,2.94,0,0,0,2.09-.93,9.58,9.58,0,0,0,1.67-2.21,14.54,14.54,0,0,0,1.14-2.61,7.23,7.23,0,0,0,.43-2,3.13,3.13,0,0,0-.38-1.77,1.71,1.71,0,0,1-.38-1,.48.48,0,0,1,.38-.53,6.78,6.78,0,0,0,1.38,1,4.39,4.39,0,0,0,1.71.53,5.1,5.1,0,0,0,2-.22A6.77,6.77,0,0,0,177.74,29Z" style="fill:#fff"/><path d="M180.88,39a13.4,13.4,0,0,1-1.81,1.55,5.19,5.19,0,0,1-3.14.84,4.44,4.44,0,0,1-2-.49,2.67,2.67,0,0,1-1.38-1.46,6.87,6.87,0,0,1-.38-2.87,13.29,13.29,0,0,1,.62-3.27,11.17,11.17,0,0,1,1.52-3.05,8.84,8.84,0,0,1,2.33-2.3,2.56,2.56,0,0,1,1.24.31,3.09,3.09,0,0,1,.9.71,4.7,4.7,0,0,1,.52.75,1.51,1.51,0,0,1,.19.44,2.33,2.33,0,0,1-.71,1.5q-.71.8-1.57,1.86a16.6,16.6,0,0,0-1.57,2.34,5.81,5.81,0,0,0-.71,2.87.84.84,0,0,0,.48.84,3.86,3.86,0,0,0,1.14.31,2.93,2.93,0,0,0,2.14-.49,7.54,7.54,0,0,0,1.71-1.55,12.44,12.44,0,0,0,1.14-1.64q.43-.75.52-.75c.13,0,.25.09.38.26a6.59,6.59,0,0,1-.52,1.46A10,10,0,0,1,180.88,39Zm.57-16.89q.48.35,1,.71c.35.24.52.47.52.71a4.57,4.57,0,0,1-.33.8,11.6,11.6,0,0,1-.9,1.55,12.55,12.55,0,0,1-1.19,1.5,1.71,1.71,0,0,1-1.19.66,1.4,1.4,0,0,1-1.28-.53,2.27,2.27,0,0,1-.33-1.24,8.49,8.49,0,0,1,.29-2.43,6.21,6.21,0,0,1,.62-1.46,3.19,3.19,0,0,1,.81-.88,2.59,2.59,0,0,1,1,.22Z" style="fill:#fff"/><path d="M187.63,26.88a19.87,19.87,0,0,1,2.09,2.39,10.7,10.7,0,0,1,1.14,1.95,6.16,6.16,0,0,1,.48,1.68,13.59,13.59,0,0,0,.29,1.59,6.28,6.28,0,0,1-.43,3.32,6,6,0,0,1-1.52,2,6.21,6.21,0,0,1-1.9,1.11c-.67.24-1.19.41-1.57.53a1.76,1.76,0,0,1-1.62-.18,2.76,2.76,0,0,1-.67-1.59v-.4a1.31,1.31,0,0,1,.19-.49q0-.09.67-.4a9.73,9.73,0,0,0,1.43-.84,5.54,5.54,0,0,0,1.33-1.33A2.68,2.68,0,0,0,188,34.4a5.31,5.31,0,0,0-.86-2.21q-.67-1-1.24-.53-1.33,1.95-2.14,3.09l-2.14,3h.1a1.24,1.24,0,0,1-.43-.09c-.16-.06-.24-.15-.24-.26s0-.21.09-.44a11.87,11.87,0,0,1,.57-1.15q.48-.88,1.19-2.25t1.52-3.1q.81-1.72,1.67-3.76.47-1.77.57-2.08a.38.38,0,0,1,.38-.31c.38,0,.57.15.57.44a.35.35,0,0,0,0,.18c0,.06,0,.15,0,.27s.06.35,0,.88S187.57,26.88,187.63,26.88Z" style="fill:#fff"/></g></g></svg>