<svg xmlns="http://www.w3.org/2000/svg" width="25.73" height="25.73" viewBox="0 0 25.73 25.73"><title>peso</title><g id="Layer_2" data-name="Layer 2"><g id="Layer_1-2" data-name="Layer 1"><circle cx="12.87" cy="12.87" r="12.46" style="fill:#8c8484"/><circle cx="12.87" cy="12.87" r="8.4" style="fill:#fbcd18"/><path d="M22.56,14.13a.41.41,0,0,1-.21-.77l.86-.5-.86-.5a.41.41,0,0,1,.41-.71l1.48.85a.41.41,0,0,1,0,.71l-1.48.85A.41.41,0,0,1,22.56,14.13Z" style="fill:#a8a2a2"/><path d="M11.65,7.38,10.2,10.82h.91a.54.54,0,0,1,.54.54v6.88h2.43V7.38Z" style="fill:#fef7d8"/><path d="M22,3.77A12.87,12.87,0,1,0,3.77,22,12.87,12.87,0,1,0,22,3.77Zm-9.1,21.14a12,12,0,1,1,12-12A12.06,12.06,0,0,1,12.87,24.91Zm-1.21-6.26h2.43a.41.41,0,0,0,.41-.41V7.38A.41.41,0,0,0,14.08,7H11.65a.41.41,0,0,0-.38.25L9.82,10.66a.41.41,0,0,0,.38.57h.91a.13.13,0,0,1,.13.13v6.88A.41.41,0,0,0,11.65,18.65Zm-.54-8.25h-.29l1.11-2.62h1.75v10H12.06V11.36A1,1,0,0,0,11.11,10.41ZM9.57,13.46v-.51H8.91v.92a.31.31,0,0,0,.11.19l.83.47a1.1,1.1,0,0,1,.53.91v1a.78.78,0,0,1-.74.78v.19a.41.41,0,1,1-.82,0v-.19a.78.78,0,0,1-.74-.78v-.56a.41.41,0,1,1,.82,0v.51h.66v-.92a.31.31,0,0,0-.11-.19l-.83-.47a1.1,1.1,0,0,1-.53-.91v-1a.78.78,0,0,1,.74-.78v-.19a.41.41,0,0,1,.82,0v.19a.78.78,0,0,1,.74.78v.56a.41.41,0,0,1-.82,0ZM11.66,3l.85-1.48a.41.41,0,0,1,.71,0L14.08,3a.41.41,0,1,1-.71.41l-.5-.86-.5.86A.41.41,0,1,1,11.66,3ZM3,14.08l-1.48-.85a.41.41,0,0,1,0-.71L3,11.66a.41.41,0,0,1,.41.71l-.86.5.86.5a.41.41,0,1,1-.41.71Zm11.11,8.69-.85,1.48a.41.41,0,0,1-.71,0l-.85-1.48a.41.41,0,0,1,.71-.41l.5.86.5-.86a.41.41,0,1,1,.71.41Zm10.37-9.9a.41.41,0,0,1-.21.36l-1.48.85a.41.41,0,1,1-.41-.71l.86-.5-.86-.5a.41.41,0,0,1,.41-.71l1.48.85A.41.41,0,0,1,24.45,12.87ZM23.5,15a.41.41,0,0,1-.48.32l-.33-.07a10,10,0,0,1-.34,1.11l.31.13a.41.41,0,1,1-.31.76L22,17.11a10,10,0,0,1-.55,1l.28.19a.41.41,0,1,1-.46.68L21,18.82a10.16,10.16,0,0,1-.74.9l.24.24a.41.41,0,0,1-.58.58l-.24-.24a10.17,10.17,0,0,1-.9.74l.19.28a.41.41,0,1,1-.68.46l-.19-.28a10,10,0,0,1-1,.55l.13.31a.41.41,0,1,1-.76.31l-.13-.31a10.06,10.06,0,0,1-1.11.34l.07.33a.41.41,0,0,1-.32.48H14.9a.41.41,0,0,1-.4-.33l-.14-.72a.41.41,0,0,1,.32-.48,9.35,9.35,0,0,0,1.69-.5l.05,0,.06,0A9.24,9.24,0,0,0,18,20.64l.06-.05.07,0a9.22,9.22,0,0,0,1.28-1l.06-.07.07-.05a9.22,9.22,0,0,0,1-1.28l0-.07.05-.06a9.25,9.25,0,0,0,.79-1.49l0-.06,0-.05a9.35,9.35,0,0,0,.5-1.69.41.41,0,0,1,.48-.32l.72.14A.41.41,0,0,1,23.5,15ZM11.32,22.14a.41.41,0,0,1,.06.31l-.14.72a.41.41,0,0,1-.4.33h-.08a.41.41,0,0,1-.32-.48l.07-.33a10,10,0,0,1-1.11-.34l-.13.31a.41.41,0,1,1-.76-.31L8.62,22a10,10,0,0,1-1-.55l-.19.28a.41.41,0,1,1-.68-.46L6.92,21a10.16,10.16,0,0,1-.9-.74l-.24.24A.41.41,0,0,1,5.2,20l.24-.24a10.16,10.16,0,0,1-.74-.9L4.42,19A.41.41,0,1,1,4,18.32l.28-.19a10,10,0,0,1-.55-1l-.31.13a.41.41,0,0,1-.31-.76l.31-.13A10.06,10.06,0,0,1,3,15.24l-.33.07a.41.41,0,0,1-.16-.81l.72-.14a.41.41,0,0,1,.48.32,9.35,9.35,0,0,0,.5,1.69l0,.05,0,.06A9.24,9.24,0,0,0,5.1,18l.05.06,0,.07a9.21,9.21,0,0,0,1,1.28l.07.05.06.07a9.21,9.21,0,0,0,1.28,1l.07,0,.06.05a9.24,9.24,0,0,0,1.49.79l.06,0,.05,0a9.35,9.35,0,0,0,1.69.5A.41.41,0,0,1,11.32,22.14Zm3.1-18.56a.41.41,0,0,1-.06-.31l.14-.72a.41.41,0,1,1,.81.16L15.24,3a10,10,0,0,1,1.11.34l.13-.31a.41.41,0,1,1,.76.31l-.13.31a10,10,0,0,1,1,.55L18.32,4a.41.41,0,1,1,.68.46l-.19.28a10.17,10.17,0,0,1,.9.74L20,5.2a.41.41,0,1,1,.58.58L20.29,6a10.16,10.16,0,0,1,.74.9l.28-.19a.41.41,0,1,1,.46.68l-.28.19a10,10,0,0,1,.55,1l.31-.13a.41.41,0,0,1,.31.76l-.31.13a10.06,10.06,0,0,1,.34,1.11l.33-.07a.41.41,0,0,1,.16.81l-.72.14h-.08a.41.41,0,0,1-.4-.33,9.34,9.34,0,0,0-.5-1.69l0-.05,0-.06a9.23,9.23,0,0,0-.79-1.49l0-.06,0-.07a9.21,9.21,0,0,0-1-1.28l-.07-.05-.05-.07a9.21,9.21,0,0,0-1.28-1l-.07,0L18,5.1a9.24,9.24,0,0,0-1.49-.79l-.06,0-.05,0a9.35,9.35,0,0,0-1.69-.5A.41.41,0,0,1,14.42,3.59ZM2.23,10.75a.41.41,0,0,1,.48-.32l.33.07a10,10,0,0,1,.34-1.11l-.31-.13a.41.41,0,1,1,.31-.76l.31.13a10,10,0,0,1,.55-1L4,7.41a.41.41,0,0,1,.46-.68l.28.19A10.16,10.16,0,0,1,5.44,6L5.2,5.78a.41.41,0,1,1,.58-.58L6,5.44a10.16,10.16,0,0,1,.9-.74l-.19-.28A.41.41,0,0,1,7.41,4l.19.28a10,10,0,0,1,1-.55L8.5,3.39a.41.41,0,1,1,.76-.31l.13.31A10.06,10.06,0,0,1,10.49,3l-.07-.33a.41.41,0,1,1,.81-.16l.14.72a.41.41,0,0,1-.32.48,9.35,9.35,0,0,0-1.69.5l-.05,0-.06,0a9.24,9.24,0,0,0-1.49.79l-.06.05-.07,0a9.22,9.22,0,0,0-1.28,1L6.3,6.3l-.07.05a9.22,9.22,0,0,0-1,1.28l0,.07,0,.06a9.24,9.24,0,0,0-.79,1.49l0,.06,0,.05a9.35,9.35,0,0,0-.5,1.69.41.41,0,0,1-.4.33H3.28l-.72-.14A.41.41,0,0,1,2.23,10.75Zm15.62,1.79v-.85l-.12.1a.41.41,0,0,1-.52,0l-.12-.1v.85a.41.41,0,0,1-.82,0V10.82a.41.41,0,0,1,.67-.32l.53.44L18,10.5a.41.41,0,0,1,.67.32v1.72a.41.41,0,1,1-.82,0Zm-.38-2.22a.44.44,0,1,1,.44-.44A.44.44,0,0,1,17.47,10.32Zm1.05-3.69a.41.41,0,0,1-.58.06A8,8,0,1,0,19,7.79a.41.41,0,1,1,.63-.52,8.82,8.82,0,1,1-1.22-1.22A.41.41,0,0,1,18.52,6.63Z"/></g></g></svg>