<svg xmlns="http://www.w3.org/2000/svg" width="54.95" height="54.95" viewBox="0 0 54.95 54.95"><title>productora</title><g id="Layer_2" data-name="Layer 2"><g id="Layer_1-2" data-name="Layer 1"><rect x="14.18" y="10.64" width="21.27" height="10.64" style="fill:#727575"/><circle cx="14.18" cy="10.64" r="10.64" style="fill:#888d8e"/><circle cx="35.45" cy="10.64" r="10.64" style="fill:#888d8e"/><circle cx="25.7" cy="36.34" r="6.2" style="fill:#575a5b"/><rect x="12.41" y="21.27" width="24.82" height="17.73" style="fill:#656868"/><rect x="37.23" y="24.82" width="1.77" height="8.86" style="fill:#656868"/><rect x="40.77" y="24.82" width="1.77" height="8.86" style="fill:#656868"/><rect x="39" y="26.59" width="1.77" height="5.32" style="fill:#656868"/><polygon points="54.95 37.23 42.55 33.68 42.55 24.82 54.95 21.27 54.95 37.23" style="fill:#575a5b"/><line x1="13.3" y1="12.41" x2="18.5" y2="18.2" style="fill:none;stroke:#575a5b;stroke-linecap:round;stroke-miterlimit:10;stroke-width:0.8863648772239685px"/><line x1="15.95" y1="9.75" x2="20.52" y2="17.17" style="fill:none;stroke:#575a5b;stroke-linecap:round;stroke-miterlimit:10;stroke-width:0.8863648772239685px"/><circle cx="14.18" cy="10.64" r="2.66" style="fill:#d5dde0"/><circle cx="35.45" cy="10.64" r="2.66" style="fill:#d5dde0"/><circle cx="19.5" cy="17.73" r="1.77" style="fill:#656868"/><circle cx="15.07" cy="31.02" r="0.89" style="fill:#888d8e"/><circle cx="15.95" cy="35.45" r="1.77" style="fill:#888d8e"/><rect x="21.27" y="42.55" width="8.86" height="5.32" style="fill:#727575"/><rect x="19.5" y="47.86" width="12.41" height="1.77" style="fill:#727575"/><polygon points="21.25 54.95 19.48 54.95 23.07 49.64 24.84 49.64 21.25 54.95" style="fill:#727575"/><polygon points="30.16 54.95 31.93 54.95 28.34 49.64 26.57 49.64 30.16 54.95" style="fill:#727575"/><rect x="21.72" y="25.26" width="11.52" height="7.98" style="fill:#656868"/><path d="M32.8,25.7V32.8H22.16V25.7H32.8m.89-.89H21.27v8.86H33.68V24.82Z" style="fill:#888d8e"/><rect x="5.32" y="23.05" width="10.64" height="3.55" style="fill:#888d8e"/><polygon points="0 28.36 0 21.27 5.32 23.05 5.32 26.59 0 28.36" style="fill:#656868"/><rect x="15.95" y="23.05" width="3.55" height="3.55" style="fill:#575a5b"/></g></g></svg>