<svg xmlns="http://www.w3.org/2000/svg" xmlns:xlink="http://www.w3.org/1999/xlink" width="237.14" height="84.04" viewBox="0 0 237.14 84.04"><defs><clipPath id="clip-path"><rect x="20.84" y="0.76" width="81.44" height="80.67" rx="9.23" ry="9.23" style="fill:none"/></clipPath></defs><title>Producerapp</title><g style="isolation:isolate"><g id="Layer_2" data-name="Layer 2"><g id="Layer_1-2" data-name="Layer 1"><path d="M211.72,46.19c0-1.51,1.08-2.37,3.14-2.53l3-.22v-.79a2.28,2.28,0,0,0-2.51-2.45,2.45,2.45,0,0,0-2.69,2.1h-.61a3,3,0,0,1,3.31-2.69,2.85,2.85,0,0,1,3.13,3v6h-.61v-1.9h0a3.37,3.37,0,0,1-3.24,2C212.91,48.68,211.72,47.66,211.72,46.19Zm6.15-.9V44l-2.93.22c-1.68.12-2.59.81-2.59,2a2.1,2.1,0,0,0,2.36,1.93A3,3,0,0,0,217.87,45.29Z"/><path d="M228,44.15c0,2.7-1.51,4.53-3.71,4.53a3.33,3.33,0,0,1-3.25-2.45h0V51.4h-.64V39.72h.6v2.36h0a3.39,3.39,0,0,1,3.29-2.48C226.5,39.61,228,41.45,228,44.15Zm-.64,0c0-2.36-1.28-4-3.15-4s-3.2,1.62-3.2,4,1.31,4,3.2,4S227.37,46.51,227.37,44.15Z"/><path d="M237.14,44.15c0,2.7-1.51,4.53-3.71,4.53a3.33,3.33,0,0,1-3.25-2.45h0V51.4h-.64V39.72h.6v2.36h0a3.39,3.39,0,0,1,3.29-2.48C235.63,39.61,237.14,41.45,237.14,44.15Zm-.64,0c0-2.36-1.28-4-3.15-4s-3.2,1.62-3.2,4,1.31,4,3.2,4S236.5,46.51,236.5,44.15Z"/><rect x="26.2" y="30.64" width="72.05" height="21.9"/><rect x="20.84" y="1.5" width="81.44" height="81.04" rx="9.17" ry="9.17" style="fill:none;stroke:#000;stroke-miterlimit:10;stroke-width:3px"/><g style="clip-path:url(#clip-path)"><path d="M116.91.21H6a6,6,0,0,0-6,6V74.82a6,6,0,0,0,6,6H116.91a6,6,0,0,0,6-6V6.23A6,6,0,0,0,116.91.21ZM39.64,47,39,46.12,37.22,47.4l.66.91a6.89,6.89,0,0,1-6.28,0l.64-.89L30.5,46.12l-.65.9a7,7,0,0,1-2-6l1.11.36.67-2.07-1.14-.37a7,7,0,0,1,5.17-3.82v1.17h2.16V35.09a7,7,0,0,1,5.09,3.65l-1.06.35.67,2.07,1.09-.36a7,7,0,0,1-2,6.25ZM93,47l-.67-.93L90.6,47.4l.66.91a6.89,6.89,0,0,1-6.28,0l.64-.89-1.75-1.28-.65.9a7,7,0,0,1-2-6l1.11.36L83,39.29l-1.14-.37a7,7,0,0,1,5.17-3.82v1.17h2.16V35.09a7,7,0,0,1,5.09,3.65l-1.06.35.67,2.07L95,40.8A7,7,0,0,1,93,47Z" style="fill:#5b5b5b"/><g style="mix-blend-mode:soft-light"><path d="M116.91.21H6a6,6,0,0,0-6,6v1.5a6,6,0,0,1,6-6H116.91a6,6,0,0,1,6,6V6.23A6,6,0,0,0,116.91.21Z" style="fill:#fff"/></g><polygon points="99.68 62.35 23.21 62.35 18.71 80.84 104.18 80.84 99.68 62.35" style="fill:#545454"/><polygon points="99.31 63.35 23.58 63.35 19.12 81.84 103.77 81.84 99.31 63.35" style="fill:#545454"/><polygon points="23.58 64.85 99.31 64.85 103.41 81.84 103.77 81.84 99.31 63.35 23.58 63.35 19.12 81.84 19.48 81.84 23.58 64.85" style="fill:#fff;mix-blend-mode:soft-light"/><ellipse cx="31.27" cy="77.14" rx="2.76" ry="2.77" style="fill:#282828"/><ellipse cx="43.72" cy="74.37" rx="2.76" ry="2.77" style="fill:#282828"/><ellipse cx="91.62" cy="77.14" rx="2.76" ry="2.77" style="fill:#282828"/><ellipse cx="79.17" cy="74.37" rx="2.76" ry="2.77" style="fill:#282828"/><path d="M34.76,34a8,8,0,1,0,8,8A8,8,0,0,0,34.76,34Zm5.78,7.16,1.09-.36a7,7,0,0,1-2,6.25L39,46.12,37.22,47.4l.66.91a6.89,6.89,0,0,1-6.28,0l.64-.89L30.5,46.12l-.65.9a7,7,0,0,1-2-6l1.11.36.67-2.07-1.14-.37a7,7,0,0,1,5.17-3.82v1.17h2.16V35.09a7,7,0,0,1,5.09,3.65l-1.06.35Z" style="fill:#bebebe"/><path d="M88.13,34a8,8,0,1,0,8,8A8,8,0,0,0,88.13,34Zm5.78,7.16L95,40.8A7,7,0,0,1,93,47l-.67-.93L90.6,47.4l.66.91a6.89,6.89,0,0,1-6.28,0l.64-.89-1.75-1.28-.65.9a6.95,6.95,0,0,1-2-6l1.11.36L83,39.29l-1.14-.37a7,7,0,0,1,5.17-3.82v1.17h2.16V35.09a7,7,0,0,1,5.09,3.65l-1.06.35Z" style="fill:#bebebe"/><path d="M56.5,42a22,22,0,0,0-2.26-9.74h-6.9V51.77h6.91A22,22,0,0,0,56.5,42Z" style="fill:#282828"/><path d="M75.56,32.29H68.4a22.12,22.12,0,0,0,0,19.48h7.16Z" style="fill:#282828"/><rect x="47.34" y="51.77" width="28.22" height="0.75" style="fill:#fff;mix-blend-mode:soft-light"/><rect x="47.34" y="32.29" width="28.19" height="1.5" transform="translate(122.86 66.07) rotate(180)" style="fill:#5b5b5b;mix-blend-mode:multiply"/><path d="M61.45,47.56a.25.25,0,0,1-.25-.25V37.78a.25.25,0,1,1,.5,0v9.53A.25.25,0,0,1,61.45,47.56Z" style="fill:#bebebe"/><path d="M58.67,44.09a.14.14,0,0,1-.14-.14V41.14a.14.14,0,1,1,.27,0v2.81A.14.14,0,0,1,58.67,44.09Z" style="fill:#bebebe"/><path d="M55.9,44.09a.14.14,0,0,1-.13-.14V41.14a.14.14,0,1,1,.27,0v2.81A.14.14,0,0,1,55.9,44.09Z" style="fill:#bebebe"/><path d="M53.12,44.09a.14.14,0,0,1-.13-.14V41.14a.14.14,0,1,1,.27,0v2.81A.14.14,0,0,1,53.12,44.09Z" style="fill:#bebebe"/><path d="M50.34,44.09a.14.14,0,0,1-.14-.14V41.14a.14.14,0,1,1,.27,0v2.81A.14.14,0,0,1,50.34,44.09Z" style="fill:#bebebe"/><path d="M64.22,44.09a.14.14,0,0,1-.14-.14V41.14a.14.14,0,1,1,.27,0v2.81A.14.14,0,0,1,64.22,44.09Z" style="fill:#bebebe"/><path d="M67,44.09a.14.14,0,0,1-.14-.14V41.14a.14.14,0,1,1,.27,0v2.81A.14.14,0,0,1,67,44.09Z" style="fill:#bebebe"/><path d="M69.77,44.09a.14.14,0,0,1-.14-.14V41.14a.14.14,0,1,1,.27,0v2.81A.14.14,0,0,1,69.77,44.09Z" style="fill:#bebebe"/><path d="M72.55,44.09a.14.14,0,0,1-.13-.14V41.14a.14.14,0,1,1,.27,0v2.81A.14.14,0,0,1,72.55,44.09Z" style="fill:#bebebe"/><rect x="7.85" y="54.86" width="107.18" height="5.12" rx="2.01" ry="2.01" style="fill:#c2c2c2"/><ellipse cx="4.96" cy="5.64" rx="1.29" ry="1.3" style="fill:#5b5b5b"/><ellipse cx="118.82" cy="5.64" rx="1.29" ry="1.3" style="fill:#5b5b5b"/><ellipse cx="4.96" cy="76.67" rx="1.29" ry="1.3" style="fill:#5b5b5b"/><ellipse cx="118.82" cy="76.67" rx="1.29" ry="1.3" style="fill:#5b5b5b"/><ellipse cx="61.45" cy="70.3" rx="1.29" ry="1.3" style="fill:#282828"/><rect x="8.05" y="8.99" width="107.18" height="18.77" rx="2.52" ry="2.52" style="fill:#c2c2c2"/></g><g style="opacity:0.77"><path d="M40.54,15.63A3.78,3.78,0,0,1,39,18.78a10.11,10.11,0,0,1-3.27,1.68,10.44,10.44,0,0,0-1.45.42,14.84,14.84,0,0,0-.84,1.75q-.78,1.73-1,1.74c-.17,0-.36-.11-.56-.36a1.22,1.22,0,0,1-.32-.65A5.45,5.45,0,0,1,32.11,22a5.46,5.46,0,0,0,.57-1.31,1.41,1.41,0,0,0-.2-.46,1.35,1.35,0,0,1-.2-.49c0-.33.06-.49.23-.5l.21,0,.21,0q.5,0,1.2-1.51a15.38,15.38,0,0,1,1.55-2.76,3.9,3.9,0,0,1,2.94-1.6,1.57,1.57,0,0,1,1.35.7A2.54,2.54,0,0,1,40.54,15.63Zm-1-.54a2.24,2.24,0,0,0-1.15-.28q-1.41.07-2.58,2.53L35.1,19l.23.1A18.11,18.11,0,0,0,38,17.63,3.45,3.45,0,0,0,39.59,15.09Z" style="stroke:#000;stroke-miterlimit:10;stroke-width:0.25px"/><path d="M46.53,17.69q0,.42-.48.45h-.57A3.62,3.62,0,0,0,42.67,20a5.6,5.6,0,0,0-1,3.31.63.63,0,0,1-.42.27,2.71,2.71,0,0,1-.66-.26q0-.88,0-2.47c.06-1.19.09-2,.1-2.47a1.16,1.16,0,0,1,.3-.07c.12,0,.32.15.59.47a17.76,17.76,0,0,1,1.51-1.28,3.48,3.48,0,0,1,1.81-.68,2.17,2.17,0,0,1,1,.24Q46.51,17.36,46.53,17.69Z" style="stroke:#000;stroke-miterlimit:10;stroke-width:0.25px"/><path d="M52.39,19.05a3.7,3.7,0,0,1-1.24,2.65,3.93,3.93,0,0,1-2.56,1.44q-1.28.07-1.47-3.76a2.07,2.07,0,0,1,.49-1.12q.51-.73.89-.78l.9-.44a3.07,3.07,0,0,1,.84-.32,1.82,1.82,0,0,1,1.5.74A2.62,2.62,0,0,1,52.39,19.05Zm-.95-.12q0-.78-.78-.74a2.46,2.46,0,0,0-1.08.4.86.86,0,0,1-.25.27,1.49,1.49,0,0,0-.27.25,10.64,10.64,0,0,0-.66,2.61,3.5,3.5,0,0,0,2.08-.82A2.34,2.34,0,0,0,51.44,18.94Z" style="stroke:#000;stroke-miterlimit:10;stroke-width:0.25px"/><path d="M61.83,21.67q0,.31-.47.56a1.87,1.87,0,0,1-.77.24q-1.46.07-2.17-2.11A17.51,17.51,0,0,1,56.88,22a3.81,3.81,0,0,1-1.77,1.18,1.27,1.27,0,0,1-1.1-.53,2,2,0,0,1-.45-1.19,4.69,4.69,0,0,1,.94-2.66q1.05-1.64,2.12-1.69.82,0,1.27,1.16a.45.45,0,0,1-.31.18.73.73,0,0,1-.24-.05.72.72,0,0,0-.24-.05q-.61,0-1.56,1.21a3.21,3.21,0,0,0-.92,1.82l0,.41.34,0a8,8,0,0,0,1.91-1.37,8.64,8.64,0,0,0,1.29-2l.55-1,.86-2.23a6.29,6.29,0,0,1,1.11-2,.74.74,0,0,1,.56.77,14.8,14.8,0,0,1-.91,2.45,8.59,8.59,0,0,0-.87,3.25q.08,1.56.5,1.54.68,0,1.71-.17A2.13,2.13,0,0,1,61.83,21.67Z" style="stroke:#000;stroke-miterlimit:10;stroke-width:0.25px"/><path d="M69.19,16.86a2.25,2.25,0,0,1-.2.63c-.09.2-.18.42-.27.67a8.27,8.27,0,0,1-1.17,2.44,2.94,2.94,0,0,1-2,1.52,1.88,1.88,0,0,1-1.27-.42,1.48,1.48,0,0,1-.62-1.14,19.85,19.85,0,0,1,0-4,.77.77,0,0,1,.27-.34,1.26,1.26,0,0,0,.27-.27l.42,0a1.07,1.07,0,0,1,.27.67l0,.73q0,.42.1,1.25t.1,1.25a2.81,2.81,0,0,1,0,.69.35.35,0,0,0,.23.05l.44,0q.6,0,1.62-2.06.19-.37,1.18-2.67A2,2,0,0,1,69.19,16.86Z" style="stroke:#000;stroke-miterlimit:10;stroke-width:0.25px"/><path d="M74.64,16.94a2.38,2.38,0,0,1,0,.39q-.24.16-.67.51a.42.42,0,0,1-.14-.3,2.68,2.68,0,0,1,.07-.56l-.08-.06q-.65,0-1.66,1.19a3,3,0,0,0-1,1.8q0,.94,3.35.76l0,.11q.11.58-.62,1a2.9,2.9,0,0,1-1.22.32A2.35,2.35,0,0,1,71,21.52a2.25,2.25,0,0,1-.74-1.66A3.7,3.7,0,0,1,70.58,18a11.39,11.39,0,0,1,1.09-1.56l.9-.52a2.25,2.25,0,0,1,.92-.36Q74.57,15.49,74.64,16.94Z" style="stroke:#000;stroke-miterlimit:10;stroke-width:0.25px"/><path d="M81.72,16.73A2.09,2.09,0,0,1,81,18.49a6.51,6.51,0,0,1-1.8.94,12.17,12.17,0,0,0-1.84.81,2.85,2.85,0,0,0,1.63.26,2.58,2.58,0,0,0,.78-.23,2.56,2.56,0,0,1,.78-.23c.11,0,.24.11.4.33a1.16,1.16,0,0,1,.25.52q0,.46-.82.74a4.46,4.46,0,0,1-1.22.24A3.42,3.42,0,0,1,77,21.37a2.27,2.27,0,0,1-1-1.89,3.64,3.64,0,0,1,1.62-3,5.55,5.55,0,0,1,3.26-1.36c.25,0,.46.2.63.64A3.08,3.08,0,0,1,81.72,16.73Zm-.93-.2-.4,0a3.2,3.2,0,0,0-1.72,1,5.25,5.25,0,0,0-1.28,1.57l2-1A3.2,3.2,0,0,0,80.79,16.53Z" style="stroke:#000;stroke-miterlimit:10;stroke-width:0.25px"/><path d="M89.31,15.51q0,.42-.48.45h-.57a3.62,3.62,0,0,0-2.81,1.87,5.6,5.6,0,0,0-1,3.31.63.63,0,0,1-.42.27,2.71,2.71,0,0,1-.66-.26q0-.88,0-2.47.09-1.78.1-2.47a1.18,1.18,0,0,1,.3-.06c.12,0,.32.15.59.47a17.56,17.56,0,0,1,1.51-1.28,3.48,3.48,0,0,1,1.81-.68,2.17,2.17,0,0,1,1,.24Q89.3,15.18,89.31,15.51Z" style="stroke:#000;stroke-miterlimit:10;stroke-width:0.25px"/></g><ellipse cx="87.53" cy="21.29" rx="0.72" ry="0.72" style="opacity:0.65"/><path d="M116.34,34.39A5.4,5.4,0,0,1,122,40.06a5.46,5.46,0,0,1-5.74,5.69h-4v5.89h-2.66V34.39Zm-4.05,9.11h3.35c2.3,0,3.63-1.25,3.63-3.43s-1.32-3.42-3.63-3.42h-3.35Z"/><path d="M124.06,38.66h2.46v2.19h0a3.09,3.09,0,0,1,3.11-2.32,3.59,3.59,0,0,1,.86.1v2.43a4,4,0,0,0-1.13-.17,2.71,2.71,0,0,0-2.77,3v7.75h-2.58Z"/><path d="M131.11,45.15c0-4.08,2.39-6.66,6.11-6.66s6.09,2.57,6.09,6.66-2.36,6.65-6.09,6.65S131.11,49.24,131.11,45.15Zm9.59,0c0-2.83-1.29-4.51-3.48-4.51s-3.49,1.69-3.49,4.51,1.31,4.49,3.49,4.49S140.7,48,140.7,45.15Z"/><path d="M144.79,45.14c0-4,2.21-6.61,5.42-6.61a4.36,4.36,0,0,1,4.06,2.28h.06v-7.2h2.57v18H154.4v-2.2h0a4.41,4.41,0,0,1-4.12,2.33C147,51.78,144.79,49.16,144.79,45.14Zm2.64,0c0,2.69,1.37,4.42,3.46,4.42s3.46-1.77,3.46-4.42-1.39-4.42-3.46-4.42S147.43,42.47,147.43,45.15Z"/><path d="M170.86,51.64H168.4V49.42h0a4.3,4.3,0,0,1-4.17,2.37c-2.82,0-4.62-1.83-4.62-4.81V38.66h2.58v7.83c0,2,1.06,3.06,2.92,3.06a3.13,3.13,0,0,0,3.22-3.41V38.66h2.58Z"/><path d="M182.06,43.1A2.89,2.89,0,0,0,179,40.68c-2.08,0-3.46,1.75-3.46,4.47s1.4,4.47,3.47,4.47a2.84,2.84,0,0,0,3.09-2.34h2.46c-.3,2.71-2.46,4.52-5.56,4.52-3.66,0-6.07-2.54-6.07-6.65s2.4-6.66,6-6.66c3.29,0,5.33,2.1,5.56,4.6Z"/><path d="M197.45,47.84c-.37,2.33-2.64,4-5.54,4-3.74,0-6.07-2.54-6.07-6.6s2.35-6.71,6-6.71,5.77,2.48,5.77,6.41v.91h-9.13V46A3.42,3.42,0,0,0,192,49.7a3,3,0,0,0,3-1.85Zm-9-3.87H195a3.16,3.16,0,0,0-3.21-3.36A3.34,3.34,0,0,0,188.46,44Z"/><path d="M199.64,38.66h2.46v2.19h0a3.09,3.09,0,0,1,3.11-2.32,3.59,3.59,0,0,1,.86.1v2.43a4,4,0,0,0-1.13-.17,2.71,2.71,0,0,0-2.77,3v7.75h-2.58Z"/><path d="M206.9,50.21a1.56,1.56,0,1,1,1.56,1.57A1.54,1.54,0,0,1,206.9,50.21Z"/></g></g></g></svg>