<svg xmlns="http://www.w3.org/2000/svg" xmlns:xlink="http://www.w3.org/1999/xlink" width="321.67" height="113.99" viewBox="0 0 321.67 113.99"><defs><clipPath id="clip-path"><rect x="28.26" y="1.03" width="110.46" height="109.43" rx="12.51" ry="12.51" style="fill:none"/></clipPath></defs><title>Producerapp</title><g style="isolation:isolate"><g id="Layer_2" data-name="Layer 2"><g id="Layer_1-2" data-name="Layer 1"><path d="M287.19,62.65c0-2,1.46-3.22,4.26-3.43l4.08-.3V57.85a3.09,3.09,0,0,0-3.41-3.33,3.33,3.33,0,0,0-3.65,2.85h-.83c.21-2.22,2-3.64,4.49-3.64s4.25,1.56,4.25,4.07v8.09h-.83V63.29h0A4.57,4.57,0,0,1,291.14,66C288.8,66,287.19,64.65,287.19,62.65Zm8.34-1.21V59.64l-4,.3c-2.28.17-3.51,1.1-3.51,2.71s1.34,2.62,3.2,2.62A4.06,4.06,0,0,0,295.53,61.43Z"/><path d="M309.29,59.89c0,3.67-2,6.15-5,6.15a4.51,4.51,0,0,1-4.41-3.32h0v7h-.86V53.88h.81v3.21h0a4.6,4.6,0,0,1,4.46-3.36C307.23,53.73,309.29,56.22,309.29,59.89Zm-.87,0c0-3.2-1.74-5.37-4.27-5.37s-4.34,2.19-4.34,5.37,1.78,5.37,4.34,5.37S308.42,63.08,308.42,59.89Z"/><path d="M321.67,59.89c0,3.67-2,6.15-5,6.15a4.51,4.51,0,0,1-4.41-3.32h0v7h-.86V53.88h.81v3.21h0a4.6,4.6,0,0,1,4.46-3.36C319.61,53.73,321.67,56.22,321.67,59.89Zm-.87,0c0-3.2-1.74-5.37-4.27-5.37s-4.34,2.19-4.34,5.37,1.78,5.37,4.34,5.37S320.79,63.08,320.79,59.89Z"/><rect x="35.54" y="41.56" width="97.73" height="29.71"/><rect x="28.26" y="2.03" width="110.46" height="109.92" rx="12.44" ry="12.44" style="fill:none;stroke:#000;stroke-miterlimit:10;stroke-width:4.0692983865737915px"/><g style="clip-path:url(#clip-path)"><path d="M158.58.28H8.12A8.14,8.14,0,0,0,0,8.45v93a8.14,8.14,0,0,0,8.12,8.17H158.58a8.14,8.14,0,0,0,8.12-8.17v-93A8.14,8.14,0,0,0,158.58.28ZM53.77,63.82l-.91-1.26-2.37,1.73.89,1.24a9.35,9.35,0,0,1-8.52,0l.87-1.21-2.37-1.73-.88,1.22a9.43,9.43,0,0,1-2.69-8.18l1.51.49.91-2.81-1.54-.5a9.47,9.47,0,0,1,7-5.19v1.58h2.93V47.6a9.47,9.47,0,0,1,6.9,4.95L54.08,53,55,55.82l1.48-.48a9.48,9.48,0,0,1-2.69,8.47Zm72.4,0-.91-1.26-2.37,1.73.89,1.24a9.35,9.35,0,0,1-8.52,0l.87-1.21-2.37-1.73-.88,1.22a9.43,9.43,0,0,1-2.69-8.18l1.51.49.91-2.81-1.54-.5a9.47,9.47,0,0,1,7-5.19v1.58H121V47.6a9.47,9.47,0,0,1,6.9,4.95l-1.44.47.91,2.81,1.48-.48a9.48,9.48,0,0,1-2.69,8.47Z" style="fill:#5b5b5b"/><g style="mix-blend-mode:soft-light"><path d="M158.58.28H8.12A8.14,8.14,0,0,0,0,8.45v2A8.14,8.14,0,0,1,8.12,2.32H158.58a8.14,8.14,0,0,1,8.12,8.17v-2A8.14,8.14,0,0,0,158.58.28Z" style="fill:#fff"/></g><polygon points="135.21 84.58 31.49 84.58 25.38 109.66 141.31 109.66 135.21 84.58" style="fill:#545454"/><polygon points="134.71 85.93 31.99 85.93 25.94 111.02 140.76 111.02 134.71 85.93" style="fill:#545454"/><polygon points="31.99 87.97 134.71 87.97 140.27 111.02 140.76 111.02 134.71 85.93 31.99 85.93 25.94 111.02 26.43 111.02 31.99 87.97" style="fill:#fff;mix-blend-mode:soft-light"/><ellipse cx="42.41" cy="104.64" rx="3.74" ry="3.76" style="fill:#282828"/><ellipse cx="59.31" cy="100.88" rx="3.74" ry="3.76" style="fill:#282828"/><ellipse cx="124.28" cy="104.64" rx="3.74" ry="3.76" style="fill:#282828"/><ellipse cx="107.39" cy="100.88" rx="3.74" ry="3.76" style="fill:#282828"/><path d="M47.15,46.12A10.89,10.89,0,1,0,58,57,10.87,10.87,0,0,0,47.15,46.12ZM55,55.82l1.48-.48a9.48,9.48,0,0,1-2.69,8.47l-.91-1.26-2.37,1.73.89,1.24a9.35,9.35,0,0,1-8.52,0l.87-1.21-2.37-1.73-.88,1.22a9.43,9.43,0,0,1-2.69-8.18l1.51.49.91-2.81-1.54-.5a9.47,9.47,0,0,1,7-5.19v1.58h2.93V47.6a9.47,9.47,0,0,1,6.9,4.95L54.08,53Z" style="fill:#bebebe"/><path d="M119.55,46.12A10.89,10.89,0,1,0,130.37,57,10.87,10.87,0,0,0,119.55,46.12Zm7.84,9.71,1.48-.48a9.48,9.48,0,0,1-2.69,8.47l-.91-1.26-2.37,1.73.89,1.24a9.35,9.35,0,0,1-8.52,0l.87-1.21-2.37-1.73-.88,1.22a9.42,9.42,0,0,1-2.69-8.18l1.51.49.91-2.81-1.54-.5a9.47,9.47,0,0,1,7-5.19v1.58H121V47.6a9.47,9.47,0,0,1,6.9,4.95l-1.44.47Z" style="fill:#bebebe"/><path d="M76.64,57a29.86,29.86,0,0,0-3.07-13.21H64.21V70.22h9.37A29.85,29.85,0,0,0,76.64,57Z" style="fill:#282828"/><path d="M102.49,43.79h-9.7a30,30,0,0,0,0,26.43h9.71Z" style="fill:#282828"/><rect x="64.21" y="70.22" width="38.28" height="1.02" style="fill:#fff;mix-blend-mode:soft-light"/><rect x="64.21" y="43.79" width="38.24" height="2.04" transform="translate(166.66 89.62) rotate(180)" style="fill:#5b5b5b;mix-blend-mode:multiply"/><path d="M83.35,64.51a.34.34,0,0,1-.34-.34V51.25a.34.34,0,1,1,.67,0V64.18A.34.34,0,0,1,83.35,64.51Z" style="fill:#bebebe"/><path d="M79.58,59.8a.18.18,0,0,1-.18-.18V55.81a.18.18,0,1,1,.37,0v3.81A.18.18,0,0,1,79.58,59.8Z" style="fill:#bebebe"/><path d="M75.82,59.8a.18.18,0,0,1-.18-.18V55.81a.18.18,0,1,1,.37,0v3.81A.18.18,0,0,1,75.82,59.8Z" style="fill:#bebebe"/><path d="M72.05,59.8a.18.18,0,0,1-.18-.18V55.81a.18.18,0,1,1,.37,0v3.81A.18.18,0,0,1,72.05,59.8Z" style="fill:#bebebe"/><path d="M68.29,59.8a.18.18,0,0,1-.18-.18V55.81a.18.18,0,1,1,.37,0v3.81A.18.18,0,0,1,68.29,59.8Z" style="fill:#bebebe"/><path d="M87.11,59.8a.18.18,0,0,1-.18-.18V55.81a.18.18,0,1,1,.37,0v3.81A.18.18,0,0,1,87.11,59.8Z" style="fill:#bebebe"/><path d="M90.88,59.8a.18.18,0,0,1-.18-.18V55.81a.18.18,0,1,1,.37,0v3.81A.18.18,0,0,1,90.88,59.8Z" style="fill:#bebebe"/><path d="M94.64,59.8a.18.18,0,0,1-.18-.18V55.81a.18.18,0,1,1,.37,0v3.81A.18.18,0,0,1,94.64,59.8Z" style="fill:#bebebe"/><path d="M98.41,59.8a.18.18,0,0,1-.18-.18V55.81a.18.18,0,1,1,.37,0v3.81A.18.18,0,0,1,98.41,59.8Z" style="fill:#bebebe"/><rect x="10.65" y="74.41" width="145.39" height="6.94" rx="2.73" ry="2.73" style="fill:#c2c2c2"/><ellipse cx="6.73" cy="7.65" rx="1.75" ry="1.77" style="fill:#5b5b5b"/><ellipse cx="161.18" cy="7.65" rx="1.75" ry="1.77" style="fill:#5b5b5b"/><ellipse cx="6.73" cy="104" rx="1.75" ry="1.77" style="fill:#5b5b5b"/><ellipse cx="161.18" cy="104" rx="1.75" ry="1.77" style="fill:#5b5b5b"/><ellipse cx="83.35" cy="95.35" rx="1.75" ry="1.77" style="fill:#282828"/><rect x="10.91" y="12.2" width="145.39" height="25.46" rx="3.42" ry="3.42" style="fill:#c2c2c2"/></g><g style="opacity:0.77"><path d="M55,21.2a5.13,5.13,0,0,1-2.14,4.27,13.72,13.72,0,0,1-4.44,2.29,14.16,14.16,0,0,0-2,.57,20.12,20.12,0,0,0-1.15,2.37Q44.23,33,44,33.05c-.23,0-.49-.15-.76-.49a1.65,1.65,0,0,1-.43-.89,7.39,7.39,0,0,1,.78-1.78,7.41,7.41,0,0,0,.78-1.78,1.91,1.91,0,0,0-.27-.62,1.82,1.82,0,0,1-.28-.66c0-.44.08-.67.32-.68l.29,0,.29,0q.68,0,1.63-2.05a20.86,20.86,0,0,1,2.1-3.74,5.3,5.3,0,0,1,4-2.17,2.12,2.12,0,0,1,1.83.95A3.44,3.44,0,0,1,55,21.2Zm-1.29-.73a3,3,0,0,0-1.56-.39q-1.91.1-3.5,3.43l-1,2.27.32.14a24.57,24.57,0,0,0,3.68-2A4.68,4.68,0,0,0,53.7,20.47Z" style="stroke:#000;stroke-miterlimit:10;stroke-width:0.3391081988811493px"/><path d="M63.11,24q0,.57-.65.61h-.77a4.91,4.91,0,0,0-3.81,2.53,7.6,7.6,0,0,0-1.42,4.49.85.85,0,0,1-.58.36,3.67,3.67,0,0,1-.9-.35q-.06-1.19.05-3.35c.08-1.61.13-2.73.14-3.35a1.57,1.57,0,0,1,.41-.09c.16,0,.43.21.8.64a24.09,24.09,0,0,1,2-1.74,4.72,4.72,0,0,1,2.46-.92,3,3,0,0,1,1.29.33Q63.09,23.55,63.11,24Z" style="stroke:#000;stroke-miterlimit:10;stroke-width:0.3391081988811493px"/><path d="M71.06,25.85a5,5,0,0,1-1.68,3.6,5.33,5.33,0,0,1-3.48,2q-1.73.09-2-5.1a2.81,2.81,0,0,1,.67-1.52q.7-1,1.2-1.06.58-.3,1.22-.59a4.16,4.16,0,0,1,1.14-.43,2.47,2.47,0,0,1,2,1A3.56,3.56,0,0,1,71.06,25.85Zm-1.28-.16q-.05-1.06-1.06-1a3.34,3.34,0,0,0-1.47.54,1.17,1.17,0,0,1-.35.36,2,2,0,0,0-.37.34,14.43,14.43,0,0,0-.9,3.54,4.75,4.75,0,0,0,2.83-1.12A3.17,3.17,0,0,0,69.78,25.69Z" style="stroke:#000;stroke-miterlimit:10;stroke-width:0.3391081988811493px"/><path d="M83.87,29.4q0,.42-.64.76a2.54,2.54,0,0,1-1,.32q-2,.1-2.94-2.86a23.75,23.75,0,0,1-2.09,2.25,5.16,5.16,0,0,1-2.4,1.61,1.72,1.72,0,0,1-1.49-.72,2.72,2.72,0,0,1-.61-1.61,6.36,6.36,0,0,1,1.27-3.61q1.43-2.22,2.88-2.29,1.12-.06,1.73,1.57a.62.62,0,0,1-.43.24,1,1,0,0,1-.33-.07,1,1,0,0,0-.33-.07q-.83,0-2.12,1.65A4.36,4.36,0,0,0,74.08,29l0,.55.46,0a10.82,10.82,0,0,0,2.58-1.86A11.72,11.72,0,0,0,78.9,25l.74-1.39,1.16-3a8.53,8.53,0,0,1,1.51-2.73,1,1,0,0,1,.75,1,20.08,20.08,0,0,1-1.23,3.33,11.65,11.65,0,0,0-1.17,4.41q.11,2.12.68,2.09.92,0,2.32-.23A2.89,2.89,0,0,1,83.87,29.4Z" style="stroke:#000;stroke-miterlimit:10;stroke-width:0.3391081988811493px"/><path d="M93.85,22.87a3,3,0,0,1-.27.86c-.12.27-.24.57-.37.9a11.21,11.21,0,0,1-1.59,3.31q-1.4,2-2.78,2.07a2.55,2.55,0,0,1-1.72-.56,2,2,0,0,1-.85-1.54,26.93,26.93,0,0,1,0-5.38,1,1,0,0,1,.37-.46,1.71,1.71,0,0,0,.37-.37l.56,0a1.46,1.46,0,0,1,.37.91l.05,1q0,.57.13,1.7T88.3,27a3.81,3.81,0,0,1,0,.93.48.48,0,0,0,.31.07l.59,0q.81,0,2.19-2.79.26-.5,1.6-3.62A2.68,2.68,0,0,1,93.85,22.87Z" style="stroke:#000;stroke-miterlimit:10;stroke-width:0.3391081988811493px"/><path d="M101.25,23a3.23,3.23,0,0,1,0,.53q-.32.22-.91.69a.57.57,0,0,1-.2-.41,3.64,3.64,0,0,1,.09-.76l-.11-.08q-.88,0-2.25,1.61A4.12,4.12,0,0,0,96.53,27q.06,1.28,4.54,1l0,.15q.15.79-.84,1.3a3.93,3.93,0,0,1-1.65.44,3.19,3.19,0,0,1-2.36-.74,3.05,3.05,0,0,1-1-2.25,5,5,0,0,1,.49-2.55,15.45,15.45,0,0,1,1.48-2.11l1.22-.7a3,3,0,0,1,1.25-.48Q101.15,21,101.25,23Z" style="stroke:#000;stroke-miterlimit:10;stroke-width:0.3391081988811493px"/><path d="M110.85,22.69a2.84,2.84,0,0,1-1,2.4,8.83,8.83,0,0,1-2.44,1.28,16.5,16.5,0,0,0-2.5,1.1,3.86,3.86,0,0,0,2.22.35,3.5,3.5,0,0,0,1.06-.31,3.47,3.47,0,0,1,1.06-.31c.15,0,.33.14.54.45a1.57,1.57,0,0,1,.33.7q0,.62-1.12,1a6.05,6.05,0,0,1-1.65.33,4.64,4.64,0,0,1-2.9-.69,3.08,3.08,0,0,1-1.38-2.56,4.94,4.94,0,0,1,2.19-4.1,7.53,7.53,0,0,1,4.42-1.84c.34,0,.62.27.86.86A4.18,4.18,0,0,1,110.85,22.69Zm-1.27-.27-.55,0a4.34,4.34,0,0,0-2.33,1.29A7.12,7.12,0,0,0,105,25.87q1.33-.67,2.68-1.31A4.34,4.34,0,0,0,109.58,22.42Z" style="stroke:#000;stroke-miterlimit:10;stroke-width:0.3391081988811493px"/><path d="M121.15,21q0,.57-.65.61h-.77a4.91,4.91,0,0,0-3.81,2.53,7.6,7.6,0,0,0-1.42,4.49.85.85,0,0,1-.58.36,3.68,3.68,0,0,1-.9-.35q-.06-1.19.05-3.35.12-2.42.14-3.35a1.6,1.6,0,0,1,.41-.09c.16,0,.43.21.8.64a23.82,23.82,0,0,1,2-1.74,4.72,4.72,0,0,1,2.46-.92,3,3,0,0,1,1.29.33Q121.13,20.59,121.15,21Z" style="stroke:#000;stroke-miterlimit:10;stroke-width:0.3391081988811493px"/></g><ellipse cx="118.73" cy="28.88" rx="0.98" ry="0.98" style="opacity:0.65"/><path d="M157.81,46.65a7.33,7.33,0,0,1,7.67,7.69,7.41,7.41,0,0,1-7.78,7.72h-5.38v8h-3.61V46.65ZM152.32,59h4.54c3.13,0,4.93-1.7,4.93-4.65s-1.79-4.64-4.93-4.64h-4.54Z"/><path d="M168.28,52.44h3.34v3h.06a4.19,4.19,0,0,1,4.22-3.15,4.86,4.86,0,0,1,1.16.13v3.29a5.45,5.45,0,0,0-1.53-.23c-2.3,0-3.75,1.61-3.75,4.09V70.05h-3.5Z"/><path d="M177.85,61.25c0-5.53,3.24-9,8.28-9s8.27,3.49,8.27,9-3.21,9-8.27,9S177.85,66.79,177.85,61.25Zm13,0c0-3.84-1.76-6.11-4.72-6.11s-4.74,2.29-4.74,6.11,1.77,6.1,4.74,6.1S190.85,65.09,190.85,61.25Z"/><path d="M196.4,61.23c0-5.42,3-9,7.35-9a5.91,5.91,0,0,1,5.51,3.1h.08V45.6h3.48V70.05h-3.38v-3h-.06a6,6,0,0,1-5.59,3.16C199.4,70.23,196.4,66.68,196.4,61.23Zm3.58,0c0,3.65,1.85,6,4.69,6s4.69-2.4,4.69-6-1.89-6-4.69-6S200,57.61,200,61.25Z"/><path d="M231.76,70.05h-3.34V67h-.06a5.83,5.83,0,0,1-5.66,3.21c-3.82,0-6.27-2.48-6.27-6.52V52.44h3.5V63.06c0,2.71,1.43,4.15,4,4.15s4.37-1.83,4.37-4.62V52.44h3.5Z"/><path d="M247,58.46a3.91,3.91,0,0,0-4.17-3.27c-2.82,0-4.69,2.37-4.69,6.06s1.9,6.06,4.7,6.06c2.27,0,3.77-1.12,4.19-3.18h3.34c-.4,3.68-3.34,6.13-7.54,6.13-5,0-8.23-3.44-8.23-9s3.25-9,8.2-9c4.46,0,7.23,2.85,7.54,6.24Z"/><path d="M267.83,64.9c-.5,3.16-3.58,5.37-7.51,5.37-5.08,0-8.23-3.44-8.23-9s3.19-9.1,8.09-9.1S268,55.57,268,60.91v1.23H255.62v.21c0,3,1.9,5.06,4.77,5.06,2,0,3.63-1,4.11-2.51Zm-12.2-5.25h8.88c-.08-2.74-1.8-4.56-4.35-4.56A4.53,4.53,0,0,0,255.63,59.64Z"/><path d="M270.8,52.44h3.34v3h.06a4.19,4.19,0,0,1,4.22-3.15,4.86,4.86,0,0,1,1.16.13v3.29a5.45,5.45,0,0,0-1.53-.23c-2.3,0-3.75,1.61-3.75,4.09V70.05h-3.5Z"/><path d="M280.65,68.11a2.11,2.11,0,1,1,2.11,2.12A2.09,2.09,0,0,1,280.65,68.11Z"/></g></g></g></svg>