<svg xmlns="http://www.w3.org/2000/svg" xmlns:xlink="http://www.w3.org/1999/xlink" width="178.12" height="72.49" viewBox="0 0 178.12 72.49"><defs><clipPath id="clip-path"><rect x="2.84" y="4.12" width="64.92" height="64.31" rx="7.35" ry="7.35" style="fill:none"/></clipPath></defs><title>Producerapp</title><g style="isolation:isolate"><g id="Layer_1" data-name="Layer 1"><path d="M155,40.34c0-1.2.86-1.89,2.5-2l2.4-.18v-.63a1.81,1.81,0,0,0-2-2,2,2,0,0,0-2.15,1.68h-.49a2.41,2.41,0,0,1,2.64-2.14,2.27,2.27,0,0,1,2.5,2.39v4.75h-.49V40.72h0a2.68,2.68,0,0,1-2.58,1.61A2.07,2.07,0,0,1,155,40.34Zm4.9-.71V38.57l-2.33.18c-1.34.1-2.06.65-2.06,1.59a1.67,1.67,0,0,0,1.88,1.54A2.39,2.39,0,0,0,159.92,39.62Z"/><path d="M168,38.71c0,2.15-1.2,3.61-3,3.61a2.65,2.65,0,0,1-2.59-2h0v4.12h-.51V35.19h.47v1.88h0a2.7,2.7,0,0,1,2.62-2C166.8,35.09,168,36.56,168,38.71Zm-.51,0c0-1.88-1-3.15-2.51-3.15s-2.55,1.29-2.55,3.15,1,3.15,2.55,3.15S167.49,40.59,167.49,38.71Z"/><path d="M175.28,38.71c0,2.15-1.2,3.61-3,3.61a2.65,2.65,0,0,1-2.59-2h0v4.12h-.51V35.19h.47v1.88h0a2.7,2.7,0,0,1,2.62-2C174.07,35.09,175.28,36.56,175.28,38.71Zm-.51,0c0-1.88-1-3.15-2.51-3.15s-2.55,1.29-2.55,3.15,1,3.15,2.55,3.15S174.77,40.59,174.77,38.71Z"/><rect x="7.12" y="27.94" width="57.44" height="17.46"/><rect x="2.84" y="4.71" width="64.92" height="64.6" rx="7.31" ry="7.31" style="fill:none;stroke:#000;stroke-miterlimit:10;stroke-width:2.3915555267358313px"/><g style="clip-path:url(#clip-path)"><path d="M79.43,3.68H-9a4.79,4.79,0,0,0-4.77,4.8V63.17A4.79,4.79,0,0,0-9,68H79.43a4.79,4.79,0,0,0,4.77-4.8V8.48A4.79,4.79,0,0,0,79.43,3.68ZM17.84,41l-.53-.74-1.39,1,.52.73a5.49,5.49,0,0,1-5,0l.51-.71-1.39-1L10,41a5.54,5.54,0,0,1-1.58-4.8l.89.29.53-1.65L9,34.54a5.57,5.57,0,0,1,4.12-3v.93h1.72v-.93a5.57,5.57,0,0,1,4.06,2.91l-.84.28.53,1.65.87-.28a5.57,5.57,0,0,1-1.58,5Zm42.55,0-.53-.74-1.39,1L59,42a5.49,5.49,0,0,1-5,0l.51-.71-1.39-1-.52.72A5.54,5.54,0,0,1,51,36.2l.89.29.53-1.65-.91-.3a5.57,5.57,0,0,1,4.12-3v.93h1.72v-.93a5.57,5.57,0,0,1,4.06,2.91l-.84.28.53,1.65L62,36a5.57,5.57,0,0,1-1.58,5Z" style="fill:#5b5b5b"/><g style="mix-blend-mode:soft-light"><path d="M79.43,3.68H-9a4.79,4.79,0,0,0-4.77,4.8v1.2A4.79,4.79,0,0,1-9,4.88H79.43a4.79,4.79,0,0,1,4.77,4.8V8.48A4.79,4.79,0,0,0,79.43,3.68Z" style="fill:#fff"/></g><polygon points="65.7 53.22 4.74 53.22 1.15 67.97 69.28 67.97 65.7 53.22" style="fill:#545454"/><polygon points="65.41 54.02 5.03 54.02 1.48 68.76 68.96 68.76 65.41 54.02" style="fill:#545454"/><polygon points="5.03 55.22 65.41 55.22 68.67 68.76 68.96 68.76 65.41 54.02 5.03 54.02 1.48 68.76 1.77 68.76 5.03 55.22" style="fill:#fff;mix-blend-mode:soft-light"/><ellipse cx="11.16" cy="65.02" rx="2.2" ry="2.21" style="fill:#282828"/><ellipse cx="21.09" cy="62.81" rx="2.2" ry="2.21" style="fill:#282828"/><ellipse cx="59.28" cy="65.02" rx="2.2" ry="2.21" style="fill:#282828"/><ellipse cx="49.35" cy="62.81" rx="2.2" ry="2.21" style="fill:#282828"/><path d="M13.94,30.62A6.4,6.4,0,1,0,20.31,37,6.39,6.39,0,0,0,13.94,30.62Zm4.61,5.71.87-.28a5.57,5.57,0,0,1-1.58,5l-.53-.74-1.39,1,.52.73a5.49,5.49,0,0,1-5,0l.51-.71-1.39-1L10,41a5.54,5.54,0,0,1-1.58-4.8l.89.29.53-1.65L9,34.54a5.57,5.57,0,0,1,4.12-3v.93h1.72v-.93a5.57,5.57,0,0,1,4.06,2.91l-.84.28Z" style="fill:#bebebe"/><path d="M56.49,30.62A6.4,6.4,0,1,0,62.85,37,6.39,6.39,0,0,0,56.49,30.62Zm4.61,5.71L62,36a5.57,5.57,0,0,1-1.58,5l-.53-.74-1.39,1L59,42a5.49,5.49,0,0,1-5,0l.51-.71-1.39-1-.52.72A5.54,5.54,0,0,1,51,36.2l.89.29.53-1.65-.91-.3a5.57,5.57,0,0,1,4.12-3v.93h1.72v-.93a5.57,5.57,0,0,1,4.06,2.91l-.84.28Z" style="fill:#bebebe"/><path d="M31.28,37a17.55,17.55,0,0,0-1.8-7.77H24V44.79h5.51A17.55,17.55,0,0,0,31.28,37Z" style="fill:#282828"/><path d="M46.47,29.26h-5.7a17.63,17.63,0,0,0,0,15.53h5.71Z" style="fill:#282828"/><rect x="23.97" y="44.79" width="22.5" height="0.6" style="fill:#fff;mix-blend-mode:soft-light"/><rect x="23.97" y="29.26" width="22.47" height="1.2" transform="translate(70.42 59.71) rotate(180)" style="fill:#5b5b5b;mix-blend-mode:multiply"/><path d="M35.22,41.43a.2.2,0,0,1-.2-.2v-7.6a.2.2,0,1,1,.4,0v7.6A.2.2,0,0,1,35.22,41.43Z" style="fill:#bebebe"/><path d="M33,38.66a.11.11,0,0,1-.11-.11V36.32a.11.11,0,1,1,.22,0v2.24A.11.11,0,0,1,33,38.66Z" style="fill:#bebebe"/><path d="M30.79,38.66a.11.11,0,0,1-.11-.11V36.32a.11.11,0,1,1,.22,0v2.24A.11.11,0,0,1,30.79,38.66Z" style="fill:#bebebe"/><path d="M28.58,38.66a.11.11,0,0,1-.11-.11V36.32a.11.11,0,1,1,.22,0v2.24A.11.11,0,0,1,28.58,38.66Z" style="fill:#bebebe"/><path d="M26.37,38.66a.11.11,0,0,1-.11-.11V36.32a.11.11,0,1,1,.22,0v2.24A.11.11,0,0,1,26.37,38.66Z" style="fill:#bebebe"/><path d="M37.43,38.66a.11.11,0,0,1-.11-.11V36.32a.11.11,0,1,1,.22,0v2.24A.11.11,0,0,1,37.43,38.66Z" style="fill:#bebebe"/><path d="M39.64,38.66a.11.11,0,0,1-.11-.11V36.32a.11.11,0,1,1,.22,0v2.24A.11.11,0,0,1,39.64,38.66Z" style="fill:#bebebe"/><path d="M41.86,38.66a.11.11,0,0,1-.11-.11V36.32a.11.11,0,1,1,.22,0v2.24A.11.11,0,0,1,41.86,38.66Z" style="fill:#bebebe"/><path d="M44.07,38.66a.11.11,0,0,1-.11-.11V36.32a.11.11,0,1,1,.22,0v2.24A.11.11,0,0,1,44.07,38.66Z" style="fill:#bebebe"/><rect x="-7.5" y="47.25" width="85.44" height="4.08" rx="1.6" ry="1.6" style="fill:#c2c2c2"/><ellipse cx="80.96" cy="8.01" rx="1.03" ry="1.04" style="fill:#5b5b5b"/><ellipse cx="80.96" cy="64.64" rx="1.03" ry="1.04" style="fill:#5b5b5b"/><ellipse cx="35.22" cy="59.56" rx="1.03" ry="1.04" style="fill:#282828"/><rect x="-7.35" y="10.69" width="85.44" height="14.97" rx="2.01" ry="2.01" style="fill:#c2c2c2"/></g><g style="opacity:0.77"><path d="M18.55,16a3,3,0,0,1-1.26,2.51,8.06,8.06,0,0,1-2.61,1.34,8.32,8.32,0,0,0-1.16.33,11.83,11.83,0,0,0-.67,1.39q-.62,1.38-.78,1.39c-.14,0-.29-.09-.45-.29a1,1,0,0,1-.25-.52,4.35,4.35,0,0,1,.46-1,4.35,4.35,0,0,0,.46-1,1.12,1.12,0,0,0-.16-.36,1.07,1.07,0,0,1-.16-.39c0-.26,0-.39.19-.4l.17,0,.17,0q.4,0,1-1.21a12.26,12.26,0,0,1,1.23-2.2A3.11,3.11,0,0,1,17,14.25a1.25,1.25,0,0,1,1.08.56A2,2,0,0,1,18.55,16Zm-.76-.43a1.78,1.78,0,0,0-.92-.23q-1.12.06-2.06,2l-.61,1.33.19.08a14.44,14.44,0,0,0,2.16-1.18A2.75,2.75,0,0,0,17.79,15.55Z" style="stroke:#000;stroke-miterlimit:10;stroke-width:0.1992962938946525px"/><path d="M23.33,17.62q0,.34-.38.36h-.45a2.89,2.89,0,0,0-2.24,1.49,4.47,4.47,0,0,0-.84,2.64.5.5,0,0,1-.34.21,2.16,2.16,0,0,1-.53-.21q0-.7,0-2c0-.95.07-1.6.08-2a.92.92,0,0,1,.24-.05c.09,0,.25.12.47.38a14.16,14.16,0,0,1,1.2-1A2.78,2.78,0,0,1,22,16.93a1.73,1.73,0,0,1,.76.2Q23.31,17.36,23.33,17.62Z" style="stroke:#000;stroke-miterlimit:10;stroke-width:0.1992962938946525px"/><path d="M28,18.71a3,3,0,0,1-1,2.11A3.13,3.13,0,0,1,25,22q-1,.05-1.17-3a1.65,1.65,0,0,1,.39-.89q.41-.58.71-.62l.72-.35a2.45,2.45,0,0,1,.67-.26,1.45,1.45,0,0,1,1.19.59A2.09,2.09,0,0,1,28,18.71Zm-.75-.09q0-.62-.62-.59a2,2,0,0,0-.86.32.69.69,0,0,1-.2.21,1.19,1.19,0,0,0-.22.2,8.48,8.48,0,0,0-.53,2.08,2.79,2.79,0,0,0,1.66-.66A1.86,1.86,0,0,0,27.24,18.62Z" style="stroke:#000;stroke-miterlimit:10;stroke-width:0.1992962938946525px"/><path d="M35.52,20.8q0,.25-.38.45a1.49,1.49,0,0,1-.61.19q-1.16.06-1.73-1.68a14,14,0,0,1-1.23,1.33,3,3,0,0,1-1.41.94,1,1,0,0,1-.87-.42,1.6,1.6,0,0,1-.36-.94,3.74,3.74,0,0,1,.75-2.12q.84-1.3,1.69-1.35.66,0,1,.92a.36.36,0,0,1-.25.14.58.58,0,0,1-.2,0,.57.57,0,0,0-.2,0q-.49,0-1.24,1a2.56,2.56,0,0,0-.73,1.45l0,.32h.27a6.36,6.36,0,0,0,1.52-1.09,6.89,6.89,0,0,0,1-1.59L33,17.4l.68-1.78A5,5,0,0,1,34.61,14a.59.59,0,0,1,.44.62,11.8,11.8,0,0,1-.72,2,6.85,6.85,0,0,0-.69,2.59q.06,1.25.4,1.23.54,0,1.36-.13A1.7,1.7,0,0,1,35.52,20.8Z" style="stroke:#000;stroke-miterlimit:10;stroke-width:0.1992962938946525px"/><path d="M41.39,17a1.79,1.79,0,0,1-.16.5c-.07.16-.14.34-.22.53a6.59,6.59,0,0,1-.94,1.95,2.34,2.34,0,0,1-1.63,1.21,1.5,1.5,0,0,1-1-.33,1.18,1.18,0,0,1-.5-.91,15.83,15.83,0,0,1,0-3.16.61.61,0,0,1,.22-.27,1,1,0,0,0,.22-.22l.33,0a.86.86,0,0,1,.22.54l0,.58q0,.34.08,1t.08,1a2.24,2.24,0,0,1,0,.55.28.28,0,0,0,.18,0l.35,0q.48,0,1.29-1.64.15-.29.94-2.13A1.57,1.57,0,0,1,41.39,17Z" style="stroke:#000;stroke-miterlimit:10;stroke-width:0.1992962938946525px"/><path d="M45.74,17a1.9,1.9,0,0,1,0,.31q-.19.13-.54.4a.34.34,0,0,1-.12-.24,2.14,2.14,0,0,1,.06-.45l-.07,0q-.52,0-1.32.95A2.42,2.42,0,0,0,43,19.39q0,.75,2.67.61l0,.09q.09.46-.49.77a2.31,2.31,0,0,1-1,.26,1.87,1.87,0,0,1-1.39-.44,1.79,1.79,0,0,1-.59-1.32,3,3,0,0,1,.29-1.5,9.08,9.08,0,0,1,.87-1.24l.72-.41a1.79,1.79,0,0,1,.74-.28Q45.68,15.87,45.74,17Z" style="stroke:#000;stroke-miterlimit:10;stroke-width:0.1992962938946525px"/><path d="M51.38,16.85a1.67,1.67,0,0,1-.59,1.41,5.19,5.19,0,0,1-1.44.75,9.7,9.7,0,0,0-1.47.65,2.27,2.27,0,0,0,1.3.21,2.06,2.06,0,0,0,.62-.18,2,2,0,0,1,.62-.18c.09,0,.19.08.32.26a.92.92,0,0,1,.2.41q0,.36-.66.59a3.56,3.56,0,0,1-1,.19,2.73,2.73,0,0,1-1.7-.41,1.81,1.81,0,0,1-.81-1.51,2.91,2.91,0,0,1,1.29-2.41,4.43,4.43,0,0,1,2.6-1.08c.2,0,.37.16.5.51A2.45,2.45,0,0,1,51.38,16.85Zm-.74-.16-.32,0a2.55,2.55,0,0,0-1.37.76,4.18,4.18,0,0,0-1,1.25l1.58-.77A2.55,2.55,0,0,0,50.64,16.7Z" style="stroke:#000;stroke-miterlimit:10;stroke-width:0.1992962938946525px"/><path d="M57.43,15.88q0,.34-.38.36H56.6a2.89,2.89,0,0,0-2.24,1.49,4.47,4.47,0,0,0-.84,2.64.5.5,0,0,1-.34.21,2.16,2.16,0,0,1-.53-.21q0-.7,0-2,.07-1.42.08-2a.94.94,0,0,1,.24-.05c.09,0,.25.12.47.38a14,14,0,0,1,1.2-1,2.78,2.78,0,0,1,1.45-.54,1.73,1.73,0,0,1,.76.2Q57.42,15.62,57.43,15.88Z" style="stroke:#000;stroke-miterlimit:10;stroke-width:0.1992962938946525px"/></g><circle cx="56.01" cy="20.49" r="0.57" style="opacity:0.65"/><path d="M79,30.94a4.31,4.31,0,0,1,4.51,4.52A4.36,4.36,0,0,1,78.92,40H75.75v4.7H73.63V30.94ZM75.75,38.2h2.67a2.57,2.57,0,0,0,2.9-2.74c0-1.73-1.05-2.73-2.9-2.73H75.75Z"/><path d="M85.13,34.34h2v1.74h0a2.46,2.46,0,0,1,2.48-1.85,2.86,2.86,0,0,1,.68.08v1.93a3.2,3.2,0,0,0-.9-.13,2.16,2.16,0,0,0-2.21,2.4v6.18H85.13Z"/><path d="M90.76,39.51c0-3.25,1.9-5.31,4.87-5.31s4.86,2,4.86,5.31-1.88,5.3-4.86,5.3S90.76,42.77,90.76,39.51Zm7.64,0c0-2.26-1-3.59-2.77-3.59s-2.78,1.34-2.78,3.59,1,3.58,2.78,3.58S98.4,41.77,98.4,39.51Z"/><path d="M101.66,39.5c0-3.18,1.76-5.27,4.32-5.27a3.47,3.47,0,0,1,3.24,1.82h0V30.32h2V44.69h-2V42.94h0A3.52,3.52,0,0,1,106,44.79C103.42,44.79,101.66,42.71,101.66,39.5Zm2.1,0c0,2.14,1.09,3.53,2.76,3.53s2.76-1.41,2.76-3.53S108.17,36,106.52,36,103.76,37.38,103.76,39.51Z"/><path d="M122.44,44.69h-2V42.92h0a3.42,3.42,0,0,1-3.32,1.89A3.5,3.5,0,0,1,113.44,41V34.34h2.05v6.24A2.15,2.15,0,0,0,117.82,43a2.5,2.5,0,0,0,2.57-2.72v-6h2.05Z"/><path d="M131.37,37.87a2.3,2.3,0,0,0-2.45-1.92c-1.66,0-2.76,1.39-2.76,3.56s1.12,3.56,2.76,3.56a2.26,2.26,0,0,0,2.46-1.87h2c-.24,2.16-2,3.6-4.43,3.6-2.92,0-4.84-2-4.84-5.3S126,34.2,128.9,34.2a4.13,4.13,0,0,1,4.43,3.67Z"/><path d="M143.64,41.66c-.29,1.86-2.1,3.15-4.41,3.15-3,0-4.84-2-4.84-5.26s1.87-5.35,4.75-5.35,4.6,2,4.6,5.11V40h-7.28v.12a2.73,2.73,0,0,0,2.8,3,2.36,2.36,0,0,0,2.41-1.48Zm-7.17-3.09h5.22a2.52,2.52,0,0,0-2.56-2.68A2.66,2.66,0,0,0,136.47,38.57Z"/><path d="M145.39,34.34h2v1.74h0a2.46,2.46,0,0,1,2.48-1.85,2.86,2.86,0,0,1,.68.08v1.93a3.2,3.2,0,0,0-.9-.13,2.16,2.16,0,0,0-2.21,2.4v6.18h-2.05Z"/><path d="M151.17,43.55a1.24,1.24,0,1,1,1.24,1.25A1.23,1.23,0,0,1,151.17,43.55Z"/></g></g></svg>