<svg xmlns="http://www.w3.org/2000/svg" width="69.8" height="65.08" viewBox="0 0 69.8 65.08"><title>resources</title><g id="Layer_2" data-name="Layer 2"><g id="Layer_1-2" data-name="Layer 1"><path d="M63.54,65.08H6.25a.33.33,0,0,1-.32-.28L0,25.69a.33.33,0,0,1,.32-.38H69.47a.33.33,0,0,1,.32.38L63.87,64.81A.33.33,0,0,1,63.54,65.08Z" style="fill:#f7b563"/><path d="M65.08,25.31V7A.93.93,0,0,0,64.16,6H27a.92.92,0,0,1-.79-.45L23.17.45A.93.93,0,0,0,22.38,0H5.75a.93.93,0,0,0-.93.93V25.31Z" style="fill:#b5885b"/><rect x="8.44" y="20.49" width="53.03" height="4.82" style="fill:#fff"/><rect x="9.64" y="16.87" width="50.62" height="3.62" style="fill:#e7eced"/><rect x="10.85" y="13.26" width="48.21" height="3.62" style="fill:#c7cac7"/></g></g></svg>