<svg xmlns="http://www.w3.org/2000/svg" width="65.83" height="36" viewBox="0 0 65.83 36"><title>Ticket</title><g id="Layer_2" data-name="Layer 2"><g id="Layer_1-2" data-name="Layer 1"><path d="M63.78,12a2,2,0,0,0,2.06,2v2a2,2,0,1,0,0,4v2a2,2,0,1,0,0,4v2a8.11,8.11,0,0,0-8.23,8H8.23A8.11,8.11,0,0,0,0,28V26a2,2,0,1,0,0-4V20a2,2,0,1,0,0-4V14a2,2,0,1,0,0-4V8A8.11,8.11,0,0,0,8.23,0H57.61a8.11,8.11,0,0,0,8.23,8v2A2,2,0,0,0,63.78,12Z" style="fill:#efc1ab"/><path d="M53.68,5a.85.85,0,0,1,.85.85V30.13a.85.85,0,0,1-.85.85H12.15a.85.85,0,0,1-.85-.85V5.87A.85.85,0,0,1,12.15,5H53.68m0-1H12.15a1.87,1.87,0,0,0-1.87,1.87V30.13A1.87,1.87,0,0,0,12.15,32H53.68a1.87,1.87,0,0,0,1.87-1.87V5.87A1.87,1.87,0,0,0,53.68,4Z" style="fill:#d79b86"/><rect x="16.46" y="1" width="2.06" height="4" style="fill:#fff"/><rect x="16.46" y="7" width="2.06" height="4" style="fill:#fff"/><rect x="16.46" y="13" width="2.06" height="4" style="fill:#fff"/><rect x="16.46" y="19" width="2.06" height="4" style="fill:#fff"/><rect x="16.46" y="25" width="2.06" height="4" style="fill:#fff"/><rect x="16.46" y="31" width="2.06" height="4" style="fill:#fff"/><polygon points="27.77 26.65 25.87 27.63 26.23 25.56 24.69 24.1 26.82 23.8 27.77 21.92 28.73 23.8 30.86 24.1 29.32 25.56 29.68 27.63 27.77 26.65" style="fill:#d79b86"/><polygon points="36 26.65 34.1 27.63 34.46 25.56 32.92 24.1 35.05 23.8 36 21.92 36.96 23.8 39.09 24.1 37.55 25.56 37.91 27.63 36 26.65" style="fill:#d79b86"/><polygon points="44.23 26.65 42.33 27.63 42.69 25.56 41.15 24.1 43.28 23.8 44.23 21.92 45.19 23.8 47.32 24.1 45.78 25.56 46.14 27.63 44.23 26.65" style="fill:#d79b86"/><text transform="translate(19.38 17.74)" style="font-size:12px;font-family:MyriadPro-Regular, Myriad Pro"><tspan style="letter-spacing:-0.011983235677083334em">T</tspan><tspan x="5.82" y="0">icket</tspan></text></g></g></svg>