<svg xmlns="http://www.w3.org/2000/svg" xmlns:xlink="http://www.w3.org/1999/xlink" width="424.8" height="134.62" viewBox="0 0 424.8 134.62"><defs><style>.\35 5f78260-6366-47c4-8ef5-380f1d658e3f,.\38 32d026c-ff59-44ef-9bdd-71116a7fc4dd,.f0dffd96-9397-40af-b02c-6d65af2f088a{fill:none;}.f0dffd96-9397-40af-b02c-6d65af2f088a{stroke:#000;}.\35 5f78260-6366-47c4-8ef5-380f1d658e3f,.f0dffd96-9397-40af-b02c-6d65af2f088a{stroke-miterlimit:10;}.\35 5f78260-6366-47c4-8ef5-380f1d658e3f{stroke-width:1.54px;stroke:url(#3d1ef5a3-aa89-4b42-9285-1b0960108503);}.e08a9916-457f-4afb-b1bf-d1e30229c343{fill:#fff;}.cf10ad7e-f056-4cc5-874e-c208500d4209{clip-path:url(#0fc387af-a6b3-4a18-9805-f7acd126e8b3);}.a48ab45b-5574-45c7-94a4-141d00026221{fill:url(#31b6e080-7e58-45be-84b0-6e8ded35b81a);}</style><linearGradient id="3d1ef5a3-aa89-4b42-9285-1b0960108503" x1="151.61" y1="120.02" x2="271.37" y2="120.02" gradientUnits="userSpaceOnUse"><stop offset="0" stop-color="#a37540"/><stop offset="0.38" stop-color="#b38650"/><stop offset="0.85" stop-color="#d3a66b"/></linearGradient><clipPath id="0fc387af-a6b3-4a18-9805-f7acd126e8b3"><path class="832d026c-ff59-44ef-9bdd-71116a7fc4dd" d="M88.16,40.83H124.7v8H111.29v42.1H101.5V48.84H88.16Zm44.62,50.11V40.83h9.78V90.94Zm30.61-8h22.83v8H153.61V40.83H186v8H163.39v12.9h19.49v8H163.39Zm62.41-7.87V40.83h9.71V90.94h-10L204.9,56.32,205,90.94H195l.07-50.11h10.31Zm20.75,15.88V40.83h15.79q12.82,0,18.79,6t6,19q0,13-6,19t-18.79,6Zm9.78-8h5.41q8.6,0,11.93-3.71T277,65.88q0-9.41-3.37-13.23t-11.9-3.82h-5.41Zm70.56,8L323.39,79.6H305l-3.55,11.34H291.1l17.49-50.11h11.19l17.57,50.11Zm-12.69-40.1-6.69,20.75h13.38Z"/></clipPath><linearGradient id="31b6e080-7e58-45be-84b0-6e8ded35b81a" x1="0" y1="65.33" x2="424.8" y2="65.33" xlink:href="#3d1ef5a3-aa89-4b42-9285-1b0960108503"/></defs><title>Tiendalogo_1</title><g id="b9eebd7e-9c30-42fc-b544-cf6adf3825b9" data-name="Layer 2"><g id="542b92d1-41bc-4961-a094-79b5974cc238" data-name="Layer 1"><path class="f0dffd96-9397-40af-b02c-6d65af2f088a" d="M336.2,131.15"/><rect class="55f78260-6366-47c4-8ef5-380f1d658e3f" x="152.38" y="106.19" width="118.22" height="27.66"/><path class="e08a9916-457f-4afb-b1bf-d1e30229c343" d="M227.32,123.21a2.61,2.61,0,0,1-.82,2,3.21,3.21,0,0,1-2.24.75h-3.4c-.12,0-.17-.05-.17-.16v-9.69c0-.11.06-.16.17-.16h3.4a3.22,3.22,0,0,1,2.24.75,2.58,2.58,0,0,1,.82,2Zm-1.18-4.63a1.5,1.5,0,0,0-.15-.66,1.66,1.66,0,0,0-.4-.53,2.07,2.07,0,0,0-1.34-.49H222c-.12,0-.18.05-.18.16v7.87c0,.11.06.16.18.16h2.23A2,2,0,0,0,225,125a2,2,0,0,0,.59-.36,1.64,1.64,0,0,0,.4-.53,1.53,1.53,0,0,0,.15-.68Z"/><path class="e08a9916-457f-4afb-b1bf-d1e30229c343" d="M236,125.84q0,.16-.18.16h-5.75c-.12,0-.17-.05-.17-.16v-9.69c0-.11.06-.16.17-.16h5.75q.18,0,.18.16v.59c0,.11-.06.16-.18.16h-4.58c-.12,0-.18.05-.18.16v3.24q0,.16.18.16H235c.12,0,.18.05.18.16v.59c0,.11-.06.16-.18.16h-3.75c-.12,0-.18.05-.18.16v3.4c0,.11.06.16.18.16h4.58c.12,0,.18.05.18.16Z"/><path class="e08a9916-457f-4afb-b1bf-d1e30229c343" d="M240.69,116.72a2.11,2.11,0,0,0-.73.13,1.79,1.79,0,0,0-.59.35,1.77,1.77,0,0,0-.4.52,1.4,1.4,0,0,0-.15.64,1.29,1.29,0,0,0,.41.95,4.21,4.21,0,0,0,1.26.77l1.26.54a6.59,6.59,0,0,1,1.07.57,2.71,2.71,0,0,1,1.23,2.34,2.39,2.39,0,0,1-.82,1.9,3.31,3.31,0,0,1-2.24.72h-.75a4.08,4.08,0,0,1-1.13-.14,3.48,3.48,0,0,1-.85-.36,2.13,2.13,0,0,1-.54-.45.72.72,0,0,1-.19-.43c0-.05,0-.1.1-.13l.74-.35.09,0a.11.11,0,0,1,.08,0l.06.05.35.33a3.58,3.58,0,0,0,.36.29,1.54,1.54,0,0,0,.41.2,1.74,1.74,0,0,0,.52.07H241a2.13,2.13,0,0,0,.74-.13,1.83,1.83,0,0,0,.6-.36,1.74,1.74,0,0,0,.4-.54,1.53,1.53,0,0,0,.15-.68,1.38,1.38,0,0,0-.17-.69,1.79,1.79,0,0,0-.47-.53,4.12,4.12,0,0,0-.74-.45c-.29-.14-.62-.3-1-.45s-.86-.39-1.21-.57a3.88,3.88,0,0,1-.89-.6,2.32,2.32,0,0,1-.55-.77,2.58,2.58,0,0,1-.19-1,2.39,2.39,0,0,1,.82-1.89,3.28,3.28,0,0,1,2.23-.71H241a4,4,0,0,1,1.12.15,3.9,3.9,0,0,1,.87.36,2,2,0,0,1,.55.45.71.71,0,0,1,.19.43s0,.08-.12.11l-.74.33-.09,0a.15.15,0,0,1-.12-.06,8.26,8.26,0,0,0-.72-.61,1.56,1.56,0,0,0-1-.26Z"/><path class="e08a9916-457f-4afb-b1bf-d1e30229c343" d="M247.15,125.84q0,.16-.18.16h-.82c-.12,0-.17-.05-.17-.16v-9.69c0-.11.06-.16.17-.16H247q.18,0,.18.16Z"/><path class="e08a9916-457f-4afb-b1bf-d1e30229c343" d="M256.39,123.56a2.36,2.36,0,0,1-.83,1.89,3.32,3.32,0,0,1-2.24.71h-.54a3.28,3.28,0,0,1-2.23-.72,2.38,2.38,0,0,1-.82-1.89v-5.12a2.38,2.38,0,0,1,.82-1.89,3.28,3.28,0,0,1,2.23-.71h.88a4.13,4.13,0,0,1,1.11.14,4,4,0,0,1,.86.34,1.83,1.83,0,0,1,.55.45.74.74,0,0,1,.19.43c0,.05,0,.1-.12.13l-.72.33-.09,0a.15.15,0,0,1-.12-.06,9.17,9.17,0,0,0-.72-.61,1.53,1.53,0,0,0-.94-.26h-.88a2.09,2.09,0,0,0-.74.13,1.85,1.85,0,0,0-.59.36,1.61,1.61,0,0,0-.4.54,1.58,1.58,0,0,0-.14.66v5.13a1.52,1.52,0,0,0,.15.68,1.73,1.73,0,0,0,.4.53,1.94,1.94,0,0,0,.59.36,2,2,0,0,0,.73.13h.55a2,2,0,0,0,1.33-.5,1.77,1.77,0,0,0,.41-.54,1.5,1.5,0,0,0,.15-.66v-1.27c0-.1-.06-.16-.18-.16H253.2c-.12,0-.18-.05-.18-.16v-.59q0-.16.18-.16h3c.12,0,.17.05.17.16Z"/><path class="e08a9916-457f-4afb-b1bf-d1e30229c343" d="M265.87,125.84c0,.11-.06.16-.17.16h-.76l-.15-.08-4.72-7.84h0l.09,7.76q0,.16-.18.16h-.82c-.12,0-.17-.05-.17-.16v-9.69c0-.11.06-.16.17-.16h.75l.16.08,4.73,7.89h0l-.11-7.81c0-.11.06-.16.17-.16h.83c.12,0,.17.05.17.16Z"/><path class="e08a9916-457f-4afb-b1bf-d1e30229c343" d="M159.35,125.08h5.37V127h-7.67V115.17h7.62v1.88h-5.32v3h4.59V122h-4.59Z"/><path class="e08a9916-457f-4afb-b1bf-d1e30229c343" d="M174.15,116.74,172.58,118a2.52,2.52,0,0,0-2.25-1.06,1.76,1.76,0,0,0-1.23.41,1.36,1.36,0,0,0-.44,1.06q0,1,1.23,1.4l1.5.45a4.67,4.67,0,0,1,2.2,1.3,3,3,0,0,1,.67,2,3.24,3.24,0,0,1-1.18,2.64,4.66,4.66,0,0,1-3.06,1q-3.07,0-4.22-2.16l1.57-1.29a2.61,2.61,0,0,0,2.65,1.5,2.12,2.12,0,0,0,1.38-.4,1.33,1.33,0,0,0,.49-1.08q0-1-1.33-1.43l-1.48-.46q-2.79-.87-2.79-3.26a3.5,3.5,0,0,1,1-2.55,4.07,4.07,0,0,1,3-1A4.31,4.31,0,0,1,174.15,116.74Z"/><path class="e08a9916-457f-4afb-b1bf-d1e30229c343" d="M175.35,115.17h8.6v1.88h-3.16V127h-2.3v-9.91h-3.14Z"/><path class="e08a9916-457f-4afb-b1bf-d1e30229c343" d="M192.83,127,192,124.3h-4.32l-.83,2.67H184.4l4.12-11.79h2.63L195.29,127Zm-3-9.44-1.57,4.88h3.15Z"/><path class="e08a9916-457f-4afb-b1bf-d1e30229c343" d="M196.42,127V115.17h3.72a6,6,0,0,1,4.42,1.41,7.84,7.84,0,0,1,0,9,6,6,0,0,1-4.42,1.42Zm2.3-1.88H200a3.67,3.67,0,0,0,2.81-.87,6.59,6.59,0,0,0,0-6.25,3.61,3.61,0,0,0-2.8-.9h-1.27Z"/><path class="e08a9916-457f-4afb-b1bf-d1e30229c343" d="M217.42,121.09a7.23,7.23,0,0,1-1.22,4.41,5.28,5.28,0,0,1-7.64,0,8.77,8.77,0,0,1,0-8.87A4.44,4.44,0,0,1,212.4,115a5.59,5.59,0,0,1,2.34.45,3.72,3.72,0,0,1,1.57,1.3,6,6,0,0,1,.85,1.92A9.9,9.9,0,0,1,217.42,121.09Zm-7.69,0a6.47,6.47,0,0,0,.58,3.05,2.58,2.58,0,0,0,4.15,0,6.32,6.32,0,0,0,.59-3,6.42,6.42,0,0,0-.59-3.06,2.52,2.52,0,0,0-4.13,0A6.34,6.34,0,0,0,209.73,121.09Z"/><g class="cf10ad7e-f056-4cc5-874e-c208500d4209"><rect class="a48ab45b-5574-45c7-94a4-141d00026221" width="424.8" height="130.65"/></g></g></g></svg>