<svg xmlns="http://www.w3.org/2000/svg" width="96.71" height="102.6" viewBox="0 0 96.71 102.6"><title>unilevel</title><g id="Layer_2" data-name="Layer 2"><g id="Layer_1-2" data-name="Layer 1"><rect x="5" y="16.67" width="86.71" height="50.02" style="fill:#f4ebab"/><path d="M53.05,6.67A5,5,0,0,0,53.36,5a5,5,0,1,0-10,0,5,5,0,0,0,.31,1.67H0v10H96.71v-10ZM46.69,5a1.67,1.67,0,1,1,1.67,1.67A1.67,1.67,0,0,1,46.69,5Zm46.69,8.34h-90V10h90Z" style="fill:#333"/><path d="M0,76.7H33.68L18.6,100.83l2.83,1.77L37.61,76.7h9.08v25H50v-25h9.08l16.18,25.9,2.83-1.77L63,76.7H96.71v-10H0ZM3.33,70h90v3.33h-90Z" style="fill:#333"/><path d="M13.34,58.36v5h10v-5a5,5,0,0,0-2.25-4.17A5,5,0,0,0,20,45.33v-2H36.68v2a5,5,0,0,0-1.09,8.86,5,5,0,0,0-2.25,4.17v5h10v-5a5,5,0,0,0-2.25-4.17A5,5,0,0,0,40,45.33v-2H56.69v2a5,5,0,0,0-1.09,8.86,5,5,0,0,0-2.25,4.17v5h10v-5a5,5,0,0,0-2.25-4.17A5,5,0,0,0,60,45.33v-2H76.7v2a5,5,0,0,0-1.09,8.86,5,5,0,0,0-2.25,4.17v5h10v-5a5,5,0,0,0-2.25-4.17A5,5,0,0,0,80,45.33V40H50V36.68h3.33v-5a5,5,0,0,0-2.25-4.17,5,5,0,1,0-5.51,0,5,5,0,0,0-2.25,4.17v5h3.33V40h-30v5.31a5,5,0,0,0-1.09,8.86A5,5,0,0,0,13.34,58.36Zm25-10A1.67,1.67,0,1,1,36.68,50,1.67,1.67,0,0,1,38.35,48.36ZM40,60H36.68V58.36a1.67,1.67,0,1,1,3.33,0ZM58.36,48.36A1.67,1.67,0,1,1,56.69,50,1.67,1.67,0,0,1,58.36,48.36ZM60,60H56.69V58.36a1.67,1.67,0,1,1,3.33,0ZM78.37,48.36A1.67,1.67,0,1,1,76.7,50,1.67,1.67,0,0,1,78.37,48.36ZM80,60H76.7V58.36a1.67,1.67,0,1,1,3.33,0ZM50,33.35H46.69V31.68a1.67,1.67,0,1,1,3.33,0ZM48.36,21.68a1.67,1.67,0,1,1-1.67,1.67A1.67,1.67,0,0,1,48.36,21.68ZM20,60H16.67V58.36a1.67,1.67,0,1,1,3.33,0ZM18.34,48.36A1.67,1.67,0,1,1,16.67,50,1.67,1.67,0,0,1,18.34,48.36Z" style="fill:#333"/><rect x="3.33" y="70.03" width="90.04" height="3.33" style="fill:#26b999"/><rect x="3.33" y="9.44" width="90.04" height="3.33" style="fill:#26b999"/><circle cx="48.36" cy="4.87" r="1.67" style="fill:#fff"/><path d="M16.27,60H20.6S18.16,50,16.27,60Z" style="fill:#f9ba48"/><ellipse cx="18.44" cy="49.96" rx="1.69" ry="1.97" style="fill:#f9ba48"/><path d="M36.35,60h4.33S38.24,50,36.35,60Z" style="fill:#f9ba48"/><ellipse cx="38.52" cy="49.96" rx="1.69" ry="1.97" style="fill:#f9ba48"/><path d="M56.43,60h4.33S58.32,50,56.43,60Z" style="fill:#f9ba48"/><ellipse cx="58.6" cy="49.96" rx="1.69" ry="1.97" style="fill:#f9ba48"/><path d="M76.51,60h4.33S78.4,50,76.51,60Z" style="fill:#f9ba48"/><ellipse cx="78.68" cy="49.96" rx="1.69" ry="1.97" style="fill:#f9ba48"/><path d="M46.19,33.61h4.33S48.08,23.57,46.19,33.61Z" style="fill:#f9ba48"/><ellipse cx="48.36" cy="23.55" rx="1.69" ry="1.97" transform="translate(-2.49 41.09) rotate(-45)" style="fill:#f9ba48"/><ellipse cx="48.36" cy="4.87" rx="1.69" ry="1.97" transform="translate(10.72 35.62) rotate(-45)" style="fill:#f9ba48"/></g></g></svg>