<svg xmlns="http://www.w3.org/2000/svg" width="68px" height="128px" viewBox="0 0 68 128"><defs><style>.cls-1{fill:#bab7a6;}.cls-2{fill:#bfe291;}.cls-3{fill:#575a5b;}.cls-4{fill:#fff;}.cls-5{fill:#71b9ea;}.cls-6{fill:#a2e88b;}.cls-7{fill:#d85b65;}.cls-8{fill:#e0d985;}.cls-9{fill:#eaad63;}</style></defs><title>Webdesign</title><g id="Layer_2" data-name="Layer 2"><g id="Layer_1-2" data-name="Layer 1"><rect class="cls-1" y="12" width="32" height="40" rx="4.13" ry="4.13"/><path class="cls-2" d="M27.71,12H4.29c.85-.09,3.38-1.12,3.7-10a15.71,15.71,0,0,1,8-2,15.45,15.45,0,0,1,8,2C24.33,10.88,26.86,11.91,27.71,12Z"/><path class="cls-2" d="M4.29,52H27.71c-.85,0-3.38,1.12-3.7,10a15.71,15.71,0,0,1-8,2,15.45,15.45,0,0,1-8-2C7.67,53.12,5.14,52,4.29,52Z"/><path class="cls-2" d="M4.29,12A1,1,0,0,1,4,12Z"/><path class="cls-2" d="M28,12a1,1,0,0,1-.28,0Z"/><path class="cls-1" d="M32,20h1a1,1,0,0,1,1,1v4a1,1,0,0,1-1,1H32a0,0,0,0,1,0,0V20A0,0,0,0,1,32,20Z"/><rect class="cls-3" x="2" y="14.01" width="28" height="36" rx="2.82" ry="2.82"/><rect class="cls-1" x="32" y="34" width="1" height="10"/><circle class="cls-4" cx="16" cy="32" r="4"/><circle class="cls-5" cx="20" cy="25" r="3"/><circle class="cls-6" cx="20" cy="39" r="3"/><circle class="cls-7" cx="12" cy="25" r="3"/><circle class="cls-8" cx="12" cy="39" r="3"/><circle class="cls-9" cx="24" cy="32" r="3"/><circle class="cls-9" cx="8" cy="32" r="3"/></g></g></svg>