<svg xmlns="http://www.w3.org/2000/svg" width="139.2" height="75.7" viewBox="0 0 139.2 75.7"><title>Asset 6</title><g id="Layer_2" data-name="Layer 2"><g id="Layer_1-2" data-name="Layer 1"><path d="M29.3,24.1c-.5-3.1,1-4.9,3.6-6.2s5.3-2.9,7.9-4.3,5.6-1.2,8,1.5c.7.8,1.6,1.3,2.4.5,2.8-2.8,7.1-3.1,10-5.5s7.9-3.9,11.7-6.3L77.7.9c3.4-2,7.1,0,8.3,3.7a32.6,32.6,0,0,1,.8,4.2c.2,1.2.8,1.4,1.7.9l13.3-7.5A23.3,23.3,0,0,1,105.7.3a4.5,4.5,0,0,1,6,2.7,43.6,43.6,0,0,1,1.8,5c.5,1.8,1,2,2.6,1.1,4.1-2.3,8.1-4.7,12.3-6.8a4.8,4.8,0,0,1,3.8.1c2.1,1.1,4.1,2.7,4.9,5.2s2.9,7.9,1.8,12.2a4.3,4.3,0,0,1-.9,2,35.9,35.9,0,0,1-8.6,6.4c-6.2,3.1-12.2,6.5-18.4,9.7-2,1.1-4.1,1.8-6.1,2.9L90.3,48.5l-21,11.2L57.6,65.9c-5.3,2.9-10.7,5.9-15.9,9a3.2,3.2,0,0,1-4.1-.3c-2.2-1.7-2.3-1.7-4.4,0A5.8,5.8,0,0,1,24.8,73C20,65.5,15.1,58,10.3,50.4c-3.1-4.9-6.1-10-9.2-15s-.4-7.2,2.4-8.7,7.1-3.8,10.7-5.5,6.8-.1,8.7,2.6c.7,1,1.2,2.2,2,3.2s1.8,1.5,2,1.3a10.5,10.5,0,0,0,2.3-2.7C29.4,25.2,29.3,24.6,29.3,24.1ZM32,25.7c.5,1.6.2,2.9-1.9,3.8A4,4,0,0,0,28.5,32a47,47,0,0,0-.8,5,2.1,2.1,0,0,1-.4.6c-.2-.2-.6-.3-.7-.5-2.4-3.7-4.9-7.4-7.2-11.2s-2.8-3.2-5.5-1.8S8,27.2,5.1,28.8s-3.2,3.3-1.6,5.8l12.3,19c1.6,2.5,3.2,5.1,4.8,7.7s4.3,6.6,6.6,9.8,4.1,1.6,4.9-1.1a7.6,7.6,0,0,0,.2-1.2c.5-3.5.9-7,1.4-10.5a4.9,4.9,0,0,1,.5-1.2,6.2,6.2,0,0,1,.6,1,8.2,8.2,0,0,1,.2,1.2c.5,2.9,1,5.8,1.5,8.7s2.2,3.9,5.1,2.7l1.1-.6L61.6,59.9l14.9-7.8,9.9-5.4c1.8-1,3.7-1.7,5.5-2.7,6-3.3,11.9-6.7,18-9.8,3-1.5,5.9-3.4,9-5l13.4-6.9c2.6-1.3,3.3-3.7,3.1-6.4a42.9,42.9,0,0,0-1.3-6.9c-.9-3.6-3.2-4.8-6.6-3.4s-4.2,2.3-6.4,3.5l-7.8,4.1c-1.4.7-2.2.3-2.4-1.3s-.6-4.2-1.1-6.2-2.3-3.3-4.4-2.2c-4.2,2.1-8.4,4.4-12.6,6.6l-2.7,1.3-5.8,3-1.5.6a4.9,4.9,0,0,1-.1-1.7A14.9,14.9,0,0,0,83.4,7c-.4-3.4-2.7-4.7-5.9-2.9s-8.9,4.6-13.3,7a31.1,31.1,0,0,0-3.5,2.7,6.4,6.4,0,0,1-1.7.9c-1.4.5-2.9.9-4.3,1.4a53.1,53.1,0,0,0-5.2,2.5c-1.3.7-2,.5-2.7-.9s-2.8-2.8-5.3-1.7l-5.9,2.8C32.2,20.6,31.7,21.4,32,25.7Z"/><path d="M32,25.7c-.4-4.3.1-5.1,3.7-6.8l5.9-2.8c2.4-1.1,4-.7,5.3,1.7s1.4,1.6,2.7.9a53.1,53.1,0,0,1,5.2-2.5c1.4-.6,2.8-.9,4.3-1.4a6.4,6.4,0,0,0,1.7-.9,31.1,31.1,0,0,1,3.5-2.7c4.4-2.4,8.9-4.6,13.3-7s5.5-.5,5.9,2.9a14.9,14.9,0,0,1-.6,6.4,4.9,4.9,0,0,0,.1,1.7l1.5-.6,5.8-3,2.7-1.3c4.2-2.2,8.4-4.5,12.6-6.6,2.2-1.1,3.9-.2,4.4,2.2s.8,4.1,1.1,6.2,1.1,2,2.4,1.3l7.8-4.1c2.1-1.1,4.2-2.5,6.4-3.5s5.7-.2,6.6,3.4a42.9,42.9,0,0,1,1.3,6.9c.2,2.6-.6,5-3.1,6.4l-13.4,6.9c-3,1.6-5.9,3.5-9,5-6.1,3.1-12,6.5-18,9.8-1.8,1-3.7,1.8-5.5,2.7l-9.9,5.4L61.6,59.9,42.8,70l-1.1.6c-2.8,1.3-4.5.4-5.1-2.7s-1-5.8-1.5-8.7a8.2,8.2,0,0,0-.2-1.2,6.2,6.2,0,0,0-.6-1,4.9,4.9,0,0,0-.5,1.2c-.5,3.5-.9,7-1.4,10.5a7.6,7.6,0,0,1-.2,1.2c-.8,2.8-3.2,3.4-4.9,1.1s-4.5-6.5-6.6-9.8-3.2-5.1-4.8-7.7L3.5,34.6c-1.6-2.5-1.1-4.4,1.6-5.8s5.8-3.2,8.8-4.7,4-.8,5.5,1.8,4.8,7.5,7.2,11.2c.1.2.5.3.7.5a2.1,2.1,0,0,0,.4-.6,47,47,0,0,1,.8-5,4,4,0,0,1,1.6-2.5C32.3,28.6,32.6,27.3,32,25.7Zm68.9-2.8c.3-.5.9-1,.9-1.4a3.2,3.2,0,0,0-.6-2.3c-.4-.3-1.5.1-2.2.4s-2.2,1.4-3.4,2.1-1.6,2.4.3,3.7c-.3.7-.8,1.4-.7,2.1.5,3.2,1.1,6.5,1.7,9.7a1.4,1.4,0,0,0,1.2.6l4.6-2.5a2.1,2.1,0,0,0,1.3-2.4c-.5-2.8-1-5.6-1.5-8.4C102.4,23.3,102,22.7,100.9,22.9ZM34.5,32.1c.1-1.7-.3-1.9-2.2-1.1s-1.8,2.1-2,3.5c-.5,3.2-.8,6.5-1.2,9.7a4,4,0,0,1-.5,1.1,3.6,3.6,0,0,1-.7-.7l-4.6-7.5-6-9.3a2.1,2.1,0,0,0-3.1-.9c-2.7,1.4-5.4,2.7-8.2,3.9s-1.4,1.3-.6,2.6c2.5,3.7,4.8,7.4,7.2,11.2l15,23.2a8.4,8.4,0,0,0,1.6,1.4,9.6,9.6,0,0,0,.8-2c.7-4.8,1.3-9.6,1.9-14.5ZM64,30.5l-1.7-9.4c-.7-4-2.1-4.8-5.7-3s-6.2,3.3-9.3,5L39,27.7a5.4,5.4,0,0,0-2.9,6.1c.5,3.1,1.1,6.1,1.7,9.1s2.1,4,5,2.7,3.5-2,5.2-2.9L60.7,36A5.5,5.5,0,0,0,64,30.5Zm1,24c-.8-4.3-1.5-8.2-2.4-12-.4-1.8-1.7-2.3-3.6-1.4s-4.2,2.4-6.3,3.5L38.1,52.2a2,2,0,0,0-1.3,2.5c.8,4.1,1.4,8.2,2.1,12.4.2,1.4.9,1.7,2.1,1s2.6-1.8,4.1-2.4,1.6-1.4,1.3-2.8-1-5.8-1.5-8.7c-.2-1-.4-2,.9-2.1s.9,1.2,1.1,1.9.6,3.3.9,4.9c1.1,5.5,1.1,5.5,6,2.6l.4-.2a3,3,0,0,0,1.4-3.4c-.7-2.9-1.1-5.9-1.6-8.9-.2-1-.1-1.8,1-1.8s1,.9,1.1,1.5c.6,2.8,1,5.6,1.5,8.4s.7,2,2.2,1.2,2.6-1.2,3.8-1.9A8.4,8.4,0,0,0,65,54.5ZM103.1,25c.5,2,.8,4.1,1.4,6.1s2.1,2.4,3.9,1.2l1.4-1,3.6-1.8c1.1-.7,2.8-1.2,3.1-2.2s2.4.6,3-.8l.4-.3,4.6-2.6,7.3-4.3a3.4,3.4,0,0,0,1.7-3.6c-.3-2-.6-4-1.1-5.9s-1.8-2.6-3.9-1.5-5.4,3-8.2,4.4c-5.8,2.9-5.4,4.5-4.6,8.8s.5,3.1-1.9,4.7-1.9.4-2.1-.9c-.6-3.9-1.6-3.9,2.2-6.2.1-.1.4-.2.4-.3s.2-1.3.3-2-1.1-.3-1.5-.1a37.3,37.3,0,0,0-5.9,2.9C105.4,20.9,103,22,103.1,25ZM65.9,29.1l.3,2.4c.2,1.5.9,1.5,2.1.9L81.6,25c2.2-1.2,2.5-1.9,1.8-4.2s-.6-1.1-1.4-.5l-2.6,1.5c-1,.6-1.4.3-1.1-.9.9-3.3,1.8-6.6,2.6-10A8.6,8.6,0,0,0,81,7.7c-.3-2.2-.5-2.4-2.6-1.3L64.7,13.6c-.2.1-.6.3-.6.4a21.1,21.1,0,0,0,0,3.6c0,.2,1.1.5,1.6.4a22.4,22.4,0,0,0,3-1.2c-.2,1.2-.3,2.4-.6,3.6s-.9,3.1-1.2,4.6S66.1,28,65.9,29.1ZM64.3,45.5c.4,2,.6,4,1.1,5.9s1.4,2.6,3.3,1.7c3.7-1.8,7.3-3.8,10.8-5.8.5-.3.5-1.4.8-2.1s-1.4-.4-1.9-.2-3.4,1.5-5,2.3a2.7,2.7,0,0,1-.9.1c.2-.3.3-.8.5-.9l3.8-1.9c4.7-2.4,4.9-2.7,4.1-6.6s-1.5-3.4-4.2-2.1-6.6,3.7-9.9,5.3A4.2,4.2,0,0,0,64.3,45.5Zm24.7-3.2,3.1-1.5c5-2.5,5.1-2.6.9-6.2-.9-.8-1.2-1.5-.7-2.6s1.1-2.4,1.6-3.7a3.1,3.1,0,0,0,.1-.9c-.3,0-.7-.1-.9,0l-2.9,2.5c-.4.3-1.1.8-1.2.7s-2.2,0-3.2.5l-4.3,2.5c-1.1.6-1.4,1.2-.3,2l.9.8c2.7,2.5,2.7,2.5,1.2,5.9a14.7,14.7,0,0,0-.7,2.1,4.7,4.7,0,0,0,0,1.1l1.2-.2a3.6,3.6,0,0,0,2.4-2.6c.3-.9.7-1.9,1.9-.8A3.3,3.3,0,0,0,89.1,42.3ZM34.1,22.1c.3,1.5.5,2.7.7,4s.9,1.8,2.2,1.1l7-3.9c1.8-.9,1.2-2.4.8-3.7s-1.2-1.6-1.5-1.5a18.8,18.8,0,0,0-3.4,2.2c-.2.1,0,.6-.1,1a5,5,0,0,1-.6,2.1A11.1,11.1,0,0,1,36.8,25c-.3-.6-.7-1.1-1-1.8s-.1-.9-.3-1.2a5.4,5.4,0,0,0-.9-1Zm68-13.4v.9c.8,4.8.9,4,4.3,2.3.8-.4,1.8-1.3,1.9-2a15.8,15.8,0,0,0-.8-4.1l-3.2,1a3,3,0,0,0-1.1.5A12.6,12.6,0,0,0,102.2,8.7Zm-1.6,6c.1-4.5-.8-5.1-4.2-3.5-1.5.7-2.2,1.5-1.8,3.3.7,3.6.8,3.7,4,1.9A12.8,12.8,0,0,0,100.5,14.7Zm-8,3V17c-.5-3.2-.5-3.2-3.2-1.8l-1.3.7c-1.3.7-1.6,5-.4,5.9l.4.2C89.4,22.1,92.5,19.3,92.5,17.7ZM75.6,31.7c-.2-.1-.6-.3-.7-.2C73.2,33,70,33.2,70,36.5c0,.7,0,1.4,0,2.1s1.7-.2,2-.7,2.4-3.8,3.5-5.7C75.6,32,75.6,31.9,75.6,31.7Z" style="fill:#fff"/><path d="M34.5,32.1,31.8,52.8c-.6,4.8-1.2,9.6-1.9,14.5a9.6,9.6,0,0,1-.8,2,8.4,8.4,0,0,1-1.6-1.4l-15-23.2c-2.4-3.7-4.8-7.5-7.2-11.2-.8-1.2-.7-1.9.6-2.6s5.5-2.5,8.2-3.9a2.1,2.1,0,0,1,3.1.9l6,9.3,4.6,7.5a3.6,3.6,0,0,0,.7.7,4,4,0,0,0,.5-1.1c.4-3.2.8-6.5,1.2-9.7.2-1.4.4-2.8,2-3.5S34.6,30.4,34.5,32.1Z"/><path d="M64,30.5A5.5,5.5,0,0,1,60.7,36L48,42.7c-1.8.9-3.4,2.1-5.2,2.9s-4.4.5-5-2.7-1.1-6.1-1.7-9.1A5.4,5.4,0,0,1,39,27.7l8.3-4.6c3.1-1.7,6.1-3.5,9.3-5s5-1,5.7,3ZM52.9,34l-1-5.4c-.2-1-.1-2.2-1.6-2s-3.3,1.6-3.1,2.7.8,4.9,1.3,7.4a1.4,1.4,0,0,0,.7.9C50,37.9,52.9,35.2,52.9,34Z"/><path d="M65,54.5a8.4,8.4,0,0,1-1.6,1.7c-1.2.8-2.6,1.3-3.8,1.9s-1.9.2-2.2-1.2-.9-5.6-1.5-8.4c-.1-.6-.7-1.5-1.1-1.5s-1.2.8-1,1.8c.6,3,1,6,1.6,8.9a3,3,0,0,1-1.4,3.4l-.4.2c-4.9,3-4.9,2.9-6-2.6-.3-1.6-.5-3.3-.9-4.9S46,52,45.7,52.1s-1.1,1.2-.9,2.1c.5,2.9.9,5.8,1.5,8.7s0,2.2-1.3,2.8-2.7,1.6-4.1,2.4-1.9.4-2.1-1c-.7-4.1-1.4-8.3-2.1-12.4a2,2,0,0,1,1.3-2.5l14.7-7.6c2.1-1.1,4.2-2.5,6.3-3.5s3.1-.4,3.6,1.4C63.6,46.3,64.2,50.2,65,54.5Z"/><path d="M103.1,25c-.1-3,2.3-4.1,4.1-5.3a37.3,37.3,0,0,1,5.9-2.9c.4-.2,1,0,1.5.1s-.2,1.3-.3,2-.2.2-.4.3c-3.8,2.3-2.8,2.2-2.2,6.2.2,1.3.8,1.8,2.1.9s2.5-1.7,1.9-4.7-1.2-6,4.6-8.8c2.8-1.4,5.5-2.9,8.2-4.4s3.3-.8,3.9,1.5.8,3.9,1.1,5.9a3.4,3.4,0,0,1-1.7,3.6l-7.3,4.3L120,26.1l-.4.3c-.6,1.4-2.3-1.4-3,.8s-2,1.5-3.1,2.2l-3.6,1.8-1.4,1c-1.8,1.3-3.2.9-3.9-1.2S103.6,27,103.1,25ZM123,15.5c.3,1.7.5,2.9.8,4.1s.4.8,1.1.4.5-2.9.4-4.3-.7-1.1-1-1.7Z"/><path d="M65.9,29.1c.3-1.1.6-2.6.9-4.1s.9-3.1,1.2-4.6.4-2.4.6-3.6a22.4,22.4,0,0,1-3,1.2c-.5.1-1.6-.2-1.6-.4a21.1,21.1,0,0,1,0-3.6c0-.1.4-.3.6-.4L78.5,6.4c2-1,2.2-.9,2.6,1.3a8.6,8.6,0,0,1-.2,3.2c-.8,3.3-1.7,6.7-2.6,10-.3,1.2,0,1.4,1.1.9l2.6-1.5c.8-.6,1.2-.3,1.4.5s.5,3-1.8,4.2L68.2,32.4c-1.1.6-1.9.6-2.1-.9Z"/><path d="M64.3,45.5a4.2,4.2,0,0,1,2.6-4.3c3.4-1.7,6.6-3.6,9.9-5.3s3.6-.8,4.2,2.1.6,4.2-4.1,6.6l-3.8,1.9c-.3.1-.4.6-.5.9a2.7,2.7,0,0,0,.9-.1c1.7-.8,3.3-1.6,5-2.3s1.2.1,1.9.2-.3,1.8-.8,2.1c-3.6,2-7.2,4-10.8,5.8-1.9.9-2.8.4-3.3-1.7S64.7,47.5,64.3,45.5Zm9-4.7a18.1,18.1,0,0,0-1.8,1.8c-.1.1.5.7.8,1L74,42C74.1,41.9,73.7,41.4,73.3,40.8Z"/><path d="M89.1,42.3a3.3,3.3,0,0,1-1-.4c-1.2-1-1.6-.1-1.9.8a3.6,3.6,0,0,1-2.4,2.6l-1.2.2a4.7,4.7,0,0,1,0-1.1,14.7,14.7,0,0,1,.7-2.1c1.5-3.3,1.5-3.3-1.2-5.9l-.9-.8c-1.1-.9-.8-1.5.3-2l4.3-2.5c1-.5,1.9-1.4,3.2-.5s.9-.4,1.2-.7l2.9-2.5c.2-.2.6,0,.9,0a3.1,3.1,0,0,1-.1.9c-.5,1.2-1,2.5-1.6,3.7s-.2,1.8.7,2.6c4.2,3.6,4.1,3.6-.9,6.2Z"/><path d="M100.9,22.9c1.1-.2,1.5.5,1.6,1.4.5,2.8,1,5.6,1.5,8.4a2.1,2.1,0,0,1-1.3,2.4l-4.6,2.5a1.4,1.4,0,0,1-1.2-.6c-.6-3.2-1.2-6.4-1.7-9.7-.1-.6.5-1.4.7-2.1h0l1.1-.5h0l1.1-.5h-.1l1.1-.5h-.1l1.1-.5h-.1l1.1-.5Z"/><path d="M34.1,22.1l.5-1a5.4,5.4,0,0,1,.9,1c.2.4.1.8.3,1.2s.7,1.2,1,1.8a11.1,11.1,0,0,0,2.4-1.6,5,5,0,0,0,.6-2.1c.1-.3-.1-.8.1-1a18.8,18.8,0,0,1,3.4-2.2c.2-.1,1.3.9,1.5,1.5s1,2.8-.8,3.7l-7,3.9c-1.3.7-2,.5-2.2-1.1S34.4,23.6,34.1,22.1Zm9.3-.2v-.3h-.6l-1.4.9H42Z"/><path d="M102.2,8.7a12.6,12.6,0,0,1,1.1-1.3,3,3,0,0,1,1.1-.5l3.2-1a15.8,15.8,0,0,1,.8,4.1c0,.7-1.1,1.6-1.9,2-3.3,1.7-3.5,2.5-4.3-2.3Z"/><path d="M100.5,14.7a12.8,12.8,0,0,1-2.1,1.7c-3.2,1.8-3.3,1.7-4-1.9-.3-1.8.4-2.6,1.8-3.3C99.7,9.6,100.6,10.2,100.5,14.7Z"/><path d="M92.5,17.7c0,1.5-3.1,4.4-4.6,4.2l-.4-.2c-1.2-.9-.9-5.2.4-5.9l1.3-.7c2.7-1.4,2.7-1.4,3.2,1.8Z"/><path d="M95.9,25.4c-1.9-1.3-2.1-2.6-.3-3.7s2.2-1.5,3.4-2.1,1.8-.8,2.2-.4a3.2,3.2,0,0,1,.6,2.3c0,.5-.6,1-.9,1.4h0l-1.1.5h.1l-1.1.5H99l-1.1.5H98l-1.1.5h0l-1.1.5Z"/><path d="M75.6,31.7c0,.3,0,.4,0,.5-1.1,1.9-2.2,3.9-3.5,5.7s-1.3.5-2,.7,0-1.4,0-2.1c0-3.3,3.2-3.5,4.9-5.1C75,31.3,75.4,31.6,75.6,31.7Z"/><path d="M52.9,34c0,1.3-3,4-3.8,3.7a1.4,1.4,0,0,1-.7-.9c-.5-2.5-1-4.9-1.3-7.4s1.6-2.5,3.1-2.7,1.5,1,1.6,2Z" style="fill:#fff"/><path d="M123,15.5l1.2-1.5c.4.6,1,1.1,1,1.7s1.5,3-.4,4.3-1,.5-1.1-.4S123.3,17.2,123,15.5Z" style="fill:#fff"/><path d="M73.3,40.8c.4.6.8,1.1.7,1.2l-1.7,1.7c-.3-.4-.8-.9-.8-1A18.1,18.1,0,0,1,73.3,40.8Z" style="fill:#fff"/><path d="M99.9,23.4l1.1-.5Z" style="fill:#fff"/><path d="M98.9,23.9l1.1-.5Z" style="fill:#fff"/><path d="M97.9,24.4l1.1-.5Z" style="fill:#fff"/><path d="M96.9,24.9l1.1-.5Z" style="fill:#fff"/><path d="M95.9,25.4l1.1-.5Z" style="fill:#fff"/><path d="M43.5,21.9l-1.4.8h-.6l1.4-.9h.6Z" style="fill:#fff"/></g></g></svg>