<svg xmlns="http://www.w3.org/2000/svg" width="131.4" height="71.1" viewBox="0 0 131.4 71.1"><title>Asset 21</title><g data-name="Layer 1"><path d="M70.3 52.9l-6 1.1c-1.5.3-.8.7-.3 1.8.1 3.1-1.6 5.6-4.9 5.6a4.4 4.4 0 0 0-2.2.2c-.8.4-1.1 1.4-1.5 2.2s-1.8 3.7-3.5 5.1a11.8 11.8 0 0 1-10.1 1.8c-3.7-1-6.6-4.3-7.9-7.8-.3-.7-.3-2.2-1-2.7s-2.2.1-3 .3l-4 .8a16.9 16.9 0 0 0-4 .8c-1.1-.2-2 .7-3.1.5s-.8-1.7-1.4-2.6a47.6 47.6 0 0 0-1.5-7c-.6-2.4-1.1-4.9-1.7-7.4a119.4 119.4 0 0 0-4-14.2c-1.7-4.7-3.4-9.3-5-14S2 7.9 0 3.4c.4-1.7 3.5.3 3.8-1.5S3.1.6 4.3.3a16.5 16.5 0 0 1 3.5.1h14.4a6.4 6.4 0 0 0 1.9.1c2.6.3 5.3.2 8 .3h7.7c2.4 0 4.7.3 7.1.2s4.9.3 7.4 0a.9.9 0 0 0 .7 0 18.1 18.1 0 0 0 5.5 0 1 1 0 0 0 .8 0 29.2 29.2 0 0 0 6.2.3h3.2a6.3 6.3 0 0 1 2.3 0h.2c2.6.2 5.2-.2 7.8-.1s4.7-.2 7-.1l6.9-.6c2.4 0 4.8.1 7.2 0a28.8 28.8 0 0 1 3.5-.1 15.6 15.6 0 0 0 3.3 0 61 61 0 0 1 6.9-.3H126a20.4 20.4 0 0 1 3.8 0c-.1 1.9-.1 1.9 1.6 2.1-.2 1.5-.9 3-.8 4.6s-.5 1.8-.6 2.4l-.6 2.9c-.2 1-.4 1.9-.5 2.9s-.6 2.2-.1 2.9a4.1 4.1 0 0 0 0 1.7.6.6 0 0 0-.1.4 4.7 4.7 0 0 0-.2 1.3c-.1.3-.1.7-.2 1a19.1 19.1 0 0 0-.1 2.8c0 1.7-.8 3.4-.3 5.1a34.4 34.4 0 0 0-.4 5.2c.1.2.3.5.6.4-1.4.1-.8 3.6-.9 4.5a.6.6 0 0 0-.1.4l-.3.4-.7.2a1.4 1.4 0 0 0-1.3.2c-.9 0-.8.8-1.6 1.3a7.7 7.7 0 0 1-2.4.6l-3.1.6c-.8.1-1.6.1-2.1.9s-2.7-.1-3.8.2a35.1 35.1 0 0 1-3.6.6l-4.2.9c-1.4.3-2.8.3-4.2.6s-5.4 1.1-8.1 1.5l-3.8.7a29.8 29.8 0 0 0-4.3.9 15.3 15.3 0 0 0-3.3.5 20.7 20.7 0 0 0-3.5.8 1 1 0 0 0-.9.1 43.6 43.6 0 0 0-5.6 1.2zm-9.4.2a.5.5 0 0 0 .6-.3L93.1 47l16.1-3 8.2-1.5c1.9-.3 4.6-.3 5.3-2.5 1.7 0 2.8.2 2.8-1.8s.5-4 .5-6a56.1 56.1 0 0 1 .3-5.9q.2-1.5.4-2.9c.1-.6.5-1.6-.3-2 .5-3.4 1-6.8 1.6-10.3l1-5c.2-1.1.7-2.3-.9-2.3s0-2-.8-2.3a3.8 3.8 0 0 0-1.6 0l-2.9.2-11.9.2-12 .2h-6.1c-.9 0-4.7-.5-5.1.5-23.4.3-46.8-.2-70.2-.6H7.9c-2 0-2.2.4-2.2 2.3-.7 0-2.6-.4-3.2.1s.2 1.7.4 2.2L6 15.2l3 8.2 1.5 4.1c.3.8.5 2.5 1.5 2.8L16.6 49l2.2 9.4c.2.8.2 1.9 1.1 2.2s3-.5 4-.7l4.5-.9a28 28 0 0 1 5-1c1.2 0 1.2.9 1.3 1.9a11.5 11.5 0 0 0 1.1 3.5c2 4 6.2 6.7 10.8 6a9.4 9.4 0 0 0 5.7-3.1c1.7-2 1.8-4.7 4-6.4 2.1 0 6.1.3 6.3-2.8.1-1.2-1.1-1.4-1.9-2s-.4-1.1.1-2z" fill="#ededed"/><path d="M34.6 59.1c-.2-.6-.4-1.2-1.2-1 .1-2.1-4.5-.6-5.6-.4s-4.8 1.7-6.6.5-1.6-3.2-2-4.9-1.1-4.8-1.7-7.2-1-4.9-1.7-7.2-1.3-4.5-1.8-6.9-1.3-5.1-2.1-7.6a28 28 0 0 1-.9-3.9c-.2-1.3-.1-1.6-1.4-1.7-1.2-4.5-2.4-9-3.3-13.6 1.2 0 1.4-.8 2.4-1.2s2.4 0 3.6-.1l1.6-.4a7.8 7.8 0 0 1 1.9.3 24 24 0 0 0 4.6.2c1.4-.1 2.8-.4 4.1-.5s2.7.5 4 .5h17.8c2.7 0 5.3.3 8 .4 6 .2 12 0 18 0h20.5c-.1 1.2 1.4.4 1.5 1.3s-2.7.9-3.1.9c-2.2.1-4.3-.1-5.4 2.3a9.4 9.4 0 0 1-1.2 2.6c-.7.7-1.5.5-2.4.5a4.8 4.8 0 0 1-2.7-.6c-.9-.6-1-1.4-2.3-1.4s-.3-1.5-1.3-1.6a20.9 20.9 0 0 0-3.6-.1c-2 0-3.9-.2-5.3 1.5S65.6 13 63.3 13s-4.3 0-6.1 1.5-1.5 1.2-2.6.7-1.6-1.2-2.9-1.4a7.7 7.7 0 0 0-3.2.4c-1.1.4-2 1.2-3.3 1.3s-4.6-.7-6.9-.7-4 1.9-6 .1a9.8 9.8 0 0 0-6.9-2.6 31.5 31.5 0 0 0-4.2.4c-.9.1-1.7.5-1.7 1.6a1.6 1.6 0 0 0-1.2.9c-1.5 0-1.5 1.2-1.6 2.5a40.7 40.7 0 0 0-.1 5 3.9 3.9 0 0 1-.2 1.7 6.1 6.1 0 0 0-.7 2.3 9.5 9.5 0 0 0 1.4 4.2c1.1 0 2.8.3 3.8-.4s.7-1.6.9-2.5 1.7-1.1 2.7-1.5a4.7 4.7 0 0 1 1.5-.2l1.1-.2c2-.6 3.4.8 3.6 2.7-1.4.2-2.2-1.1-3.5-1.3a4.1 4.1 0 0 0-3.6 1.7c-1.5 1.8-2.3 4-5 3.9-.7 0-1.8-.5-2.2.2s.1 3.2.4 4.2c.8 3.6 1.8 7.2 2.5 10.8.3 1.7.9 3.4 1.3 5.1s.4 2.9 1.8 3.8 2.3.3 3.6 0 3.6-.2 5.2-.9 1.3-.6 1.2-1.1-1.1-.6-1.4-.7a10.7 10.7 0 0 1-3.9-2.4 7.6 7.6 0 0 1-2.4-8.1 26.2 26.2 0 0 1 2.1-4.8 28.4 28.4 0 0 1 2.8-3.9 23.4 23.4 0 0 1 1.7-2.1c.4-.4 1.3-1 1.1-1.7s-1.1-.9-1.5-1.3a1.7 1.7 0 0 1-.5-1.8h2.1l.6.4c-.2 1.1.2.9.9 1.1s.8.6.7 1.5-2.8 3.3-4 4.6a25.3 25.3 0 0 0-3.7 5.7c-.6 1.2-2.7 4.4-.1 4.7a5.1 5.1 0 0 0 3.9 5.2c.1 1.3 4.7.7 5.6.7a6.5 6.5 0 0 0-.9 2.5c-.9.3-1.1.7-.3 1.3a7 7 0 0 0 .3 2.9zM16.1 5.2c-1.7 0-4.8-.6-6.2.7s.1 3.6.5 5 1.2 4.5 1.8 6.8a15.6 15.6 0 0 0 1.1 3.2c.8 1.4.9-.2 1.2-1s.1-2.1.2-3.1a12.5 12.5 0 0 1 .9-2.9c.9-1.9 2.5-2.4 4.5-2.6s4.8-.7 7.4-.2l3.1.8c.9.3 1.3 1.1 2.1 1.6s4.1-.3 6.1-.2 4.4 1.4 6.5.5 4.1-1.8 6.6-1.2a7.8 7.8 0 0 0 6.4-.6c1.7-.9 3.9.1 5.5-1a11.8 11.8 0 0 0 1.9-2.3c.5-.5 1.8-1.4 1.4-2.2s-2.1-.4-2.9-.3-2.6-.2-3.9-.2h-8c-6 0-11.9-.4-17.9-.4s-12.2.1-18.3-.4z" fill="#0e0d0d"/><path d="M128.2 3.8c1.5-.1 1.1 1.2.9 2.3l-1 5c-.7 3.4-1.2 6.8-1.6 10.3-.7.3-.7 2.2-.8 2.8l-.8 4.2c-.5 2.5-.9 5-1.5 7.4a23.4 23.4 0 0 0-.6 3.4 2.7 2.7 0 0 1-1.2 2.3 8.6 8.6 0 0 1-3 .8l-4.4.8-32 5.9c-6 1.1-12 2.5-18 3.2.4-.7 0-1.6.4-2.3s3-1 3.9-2.3c.7.3 1.9-.4 2.5-.7 1.2 2.1 3.3 1.6 5.2 1.3s4.7-1 7-1.2l1.5-.2a3.8 3.8 0 0 1 1.2-.4c.4 0 .8.2 1.2.2L89 46c2.5-.6 5-1 7.5-1.5a60.6 60.6 0 0 1 7.4-1.1c2.5-.2 5-1.1 7.4-1.5s5.3-.7 7.6-1.6 2.4-2.2 2.8-3.9a26.8 26.8 0 0 0 1-3.8c0-.6-.1-1.2 0-1.7s.3-1.1.4-1.7a35.6 35.6 0 0 0 1.2-8.7c1.9-.4 1-4.5 1.4-5.9a15.6 15.6 0 0 0 .8-3.1c.1-.7.8-2.5.3-2.9v-.9a1.8 1.8 0 0 0 .2-1.9 2.4 2.4 0 0 0-1.9-1.1v-.9zm-35.4.5H56.5c-2.8 0-5.5-.4-8.3-.4H30.5a18.1 18.1 0 0 1-3.8-.2 9.7 9.7 0 0 0-3.9 0 23.6 23.6 0 0 1-4.9.2c-1.4-.1-3.1-.7-4.5-.4s-2.8.2-4.2.4-1.6 1.3-2.9 1.3-.1-.7-.5-.9S5.7 2 7.3 2s5.4.1 8 .1l17.6.3 35 .4h19.8c.4.7 1.9.4 2.6.4h3.6c2.5 0 4.9.1 7.4.4C101 5 99.8 5 98.6 4.8a44.3 44.3 0 0 0-5.8-.5zM9.6 18.8c.9.1 1.1 0 1.3.9s.4 2.5.8 3.7 1.4 4.3 1.9 6.5c1.1 4.8 2.4 9.5 3.5 14.3.5 2.4 1 4.7 1.6 7.1s.6 4.5 1.8 6 4.1.9 6.3.5l4.3-.7c1-.1 2.5-.6 2.4.9l-11.7 2.4c-1.4.3-2.3.7-2.8-.9s-.9-3.9-1.3-5.8c-1.8-7.8-3.8-15.6-5.7-23.4a5.4 5.4 0 0 0-.4-2.6l-.7-3a46.1 46.1 0 0 1-1.3-5.9z" fill="#272727"/><path d="M9.6 18.8c.4 3 1.3 6 2 8.9a5.6 5.6 0 0 1 .4 2.6c-.7-.2-.8-.9-1-1.5L2.8 6.2l-.2-.6c-.4-.8-.3-1.4.8-1.3h2.3c.5.1.4.6.5.9 1 4.5 2.2 9.1 3.4 13.6zm91.7-15.4c-2.5-.2-4.9-.3-7.4-.4h-3.5c-.7 0-2.2.3-2.6-.4s1.5-.4 2-.4H99l12-.2 11.9-.2 2.6-.2a4.5 4.5 0 0 1 1.9-.1c.8.4.6 1.6.8 2.3-2.1 0-4.1-.2-6.2-.2h-20.7z" fill="#878485"/><path d="M34.6 59.1h.8c.2 1 .8 1.8 1 2.9s.2 1 1.1 1.1.9 1.6 1.5 2.5a7.1 7.1 0 0 0 2.2 2.2 8.9 8.9 0 0 0 6.5.5 7.6 7.6 0 0 0 4.7-3.7 17.7 17.7 0 0 0 1.5-3.1 2.8 2.8 0 0 1 .9-1.5c.4-.3 1.3-.8 1.5 0-2.2 1.8-2.4 4.8-4.3 6.8a9.5 9.5 0 0 1-6.4 2.8c-5.8.2-10.5-5-11-10.5z" fill="#343434"/><path d="M61.4 52.8c-.3.6-1.5.3-2 .7s-.5 1.1-.5 1.7-.9-.3-1.2-.2-.6.7-1.3.7-1.2.1-1.7-.4v-1c.5.1 1 .3 1.2-.4a10.4 10.4 0 0 0-1.3-2.3c-.8-.9-1.1-.5-1.1.5H53c-.1-.3 0-.7-.4-.8s1.5-1.3 2.6-1.3c-.2.7.1 1.1.8 1.4s0 .7.4.9.1 1.8.4 1.9 1.2-.9 1.3-1.1c.2 0 .4-.1.4-.4h.8a3.1 3.1 0 0 1 2.6-.8z" fill="#6e6e6e"/><path d="M58.9 55.2c.1-1.8.1-1.8 1.9-2.1-.4.8-.9 1.3-.1 2s2 .8 2 2c-.2 3.1-4.2 2.8-6.3 2.8a.6.6 0 0 0-.5-.5 1 1 0 0 0 .1-.4c1.9-.1 4 .4 5.5-1.3s.2-1.3-.7-1.4a.9.9 0 0 0-1-.3c-.1-.5-.4-.5-.9-.4z" fill="#454545"/><path d="M61.4 52.8a5.1 5.1 0 0 0 .5-1.3c.4-.2.8-.4.8-1a1.1 1.1 0 0 0 1.1-.4h.6a5.3 5.3 0 0 1-.3 2 7.9 7.9 0 0 1-2.7.7zM98.3.5V.1a.5.5 0 0 1 .4.4z" fill="#343434"/><path d="M16.1 5.2c5.3.4 10.7.4 16.1.3s10.7.3 16 .4H60l3.9.3c.9 0 2.3-.7 3.1.2s-.8 1.7-1.3 2.3a15.8 15.8 0 0 1-1.8 2.3 4 4 0 0 1-2.6.5 6.2 6.2 0 0 0-2.9.4 7.9 7.9 0 0 1-3.4 1.3c-2.3.1-4.4-1.1-6.7-.6a14.8 14.8 0 0 0-2.8 1.1 4.4 4.4 0 0 1-3.2.2 19.7 19.7 0 0 0-3.5-.6 15.4 15.4 0 0 0-3.4.4 4.3 4.3 0 0 1-2.4-.2c-.9-.4-1.3-1.2-2.1-1.6a15.8 15.8 0 0 0-7-1.1l-3.4.4a6.7 6.7 0 0 0-3.1.7c-1.6.9-2.1 2.9-2.4 4.6s-.1 2.4-.4 3.6-.1 1.3-.5 1.4-.7-.7-.8-1a69.8 69.8 0 0 1-2.3-7.7c-.4-1.2-.7-2.5-1.1-3.7a3.4 3.4 0 0 1-.3-2.6c.9-2.1 4.8-1.3 6.5-1.3z" fill="#080707"/><path d="M30.8 51.6a5.2 5.2 0 0 1-3.9-5.2c.2-2.9 2.1-5.8 3.9-8a45.9 45.9 0 0 1 6.9-6.7 19.5 19.5 0 0 1 8.9-4.3 1.5 1.5 0 0 0 1.6 0l2.2.8v2.1c-.4.6-.6 1.3-.9 1.9s-.4.1-.5.4a21.5 21.5 0 0 0-1.9 1.8L44.9 36a22.3 22.3 0 0 0-3.9 4c-.1-.3-.1-1.5-.6-.8s.4.5.6.8v.8c-.3-.1-.4.1-.5.4s-.4.2-.4.4-.5.4-.5.8-.4.2-.4.4-.3 1.1.2.2a.5.5 0 0 0 .3-.5.7.7 0 0 0 .4-.9c.3 0 .4-.1.4-.4s.4-.2.4-.5a1.9 1.9 0 0 1 1.6.2l.3.7c-.1.3-.7 1.1-.7 1.4s.7.2.9-.1.2-.4.3-.7 1.2-1.6 2-2.4a3.9 3.9 0 0 1 2.4-.8c1 0 1.4.1 1.8 1s0 .8.6.4a2.7 2.7 0 0 0 .7-1.4 38.3 38.3 0 0 1 2.8-8.6 4.3 4.3 0 0 1 2.1-2.4c1-.3 2.3.1 2.2 1.3s-.1 1.6.4.4a10 10 0 0 1 .5-1.2c.3-.6 1-1.1 1.2-1.7s2.1-.6 3.3-.4c-.2 2.1-1.5 3.9-2.5 5.8s-.8 2-2 2.3v-.8c.6-.2 1.2-1.9 1.5-2.5a9.5 9.5 0 0 0 1.5-3.4c.4-.2 0-.6-.2-.2s-1.5 2.5-2.1 3.8a1.9 1.9 0 0 0-.5 1.2 1.4 1.4 0 0 0-.4.9.9.9 0 0 0-.2 1c-.2 0-.4 0-.2.3l.2-.3h.5c.3 1-3.1 4-2 4.6s3.4-3.3 3.7-4a1.7 1.7 0 0 1 2.4.6l-.4 1.2c-.2.1-1 .9-.2.8a6.1 6.1 0 0 0 1.4-1.2c.5-.7.8-1.8 1.6-2.2s.9.1 1.5.1.7-.6 1.1-.9a1.1 1.1 0 0 1 1.4-.1c.6.4.2.9.3 1.6s-.6.8-.3 1.1.7-.5.7-.7 1.3-3 3-3.6 3.1-.7 3.4.7-.5.8-.4 1.3-.3.1-.2.3l.2-.3h.5c.2 1-1.1 2.4-1.5 3.3a18.8 18.8 0 0 0-1.5 4.1c-.2.9-.2 2.3-.8 3s-1.1.4-1.8.3a.6.6 0 0 0-.2-.7 13.3 13.3 0 0 0 1.5-4c.2-.9 1.2-2.9.5-3.6l-1.2-.5c-.6 0-.7.6-1 1a2.5 2.5 0 0 1-2.9.7c-.8-1.2-1.1-.4-1.8.6s-1.1-.4-1.6-.3-.3.3-.6.5-1.1 1.2-2.1 1.1-1.5-1.2-2.4-.8-1.1 1.6-2.1 1.9-1.6-.6-2.4-.3-1 1.2-1.7 1.5-1.7-.3-2.5.1-.7 1-1.7 1.2-.8 0-1.3.2-.5.5-.9.6-1.7-.7-2.6-.2-1.1 1.4-2.1 1.3-1.3-1.1-2.1-.6-1.2 1.8-1.6 2.4a13.9 13.9 0 0 1-2.1 2.6 8 8 0 0 1-5.3 2.4zm30.7-14.5c.6-.6.1-1.2-.3-.3s0 .8.3.3zm-5.1-3.4a.8.8 0 0 0 .3-.9c.3 0 .6-.5.3-.7s-.7 1.4-.8 1.5.2 1.4.2.1zm-2.6 2.5c-.6.2.1.4.1.8s-.5.9-.7 1.3-1.3 2.8.4 1.5a5.8 5.8 0 0 0 2-2.9c.1-.3.5-1.5.3-1.8s-1.1.5-1.3.7.7-2.3 1-3 1.2-2.2.9-3.3c-1 .7-1.3 2.3-1.8 3.4s-1.1 2-.9 3.3zm-11.4-4.7c.9-.1 1.8-.2 2.4.5s.6 1.4 1.6.7 4.5-3.7 2.1-4.5-4.6 1.2-5.9 2.3-3.9 2.9-5.6 4.6a37.7 37.7 0 0 0-4.6 5.2c-1.3 1.8-2.9 3.9-3.4 6s-.1 4 1.7 3.9 4.1-2 5.4-3.3a4.7 4.7 0 0 0 1.3-1.5 8.9 8.9 0 0 0 .2-1.9 28.9 28.9 0 0 1 1.1-4.4c.8-2.6 1.6-5.6 3.7-7.6zm1.6 1.3c-.2-.9-1.7 1.6-1.6 2.1s1.5-1.7 1.6-2.1zm30.5.2c-.4-1.2-1.4.9-1.2 1.5s1.1-1.1 1.2-1.5zm-28.2 9.8c.5-.2 1.7-2.3.8-2.4s-1.1 2-.8 2.4zm11.2-11.5v-.2q-.2.2 0 .3zm-8.2 10.3q.3-.2 0-.3t0 .3zm17.6-6.5v-.2h-.1l.2.2z" fill="#ededed"/><path d="M30.4 28.5c-.4 1.5.8 1.7 1.7 2.6s-.9 2.3-1.6 3.2l-2.8 3.5a19.9 19.9 0 0 0-2.1 4c-1.2 2.6-1.8 5.8-.2 8.4a9.5 9.5 0 0 0 3 2.9l1.9 1c.4.2 1.7.3 1.8.8s-2.7 1.5-3.4 1.6l-2.5.3a19.6 19.6 0 0 1-2.6.5 3.1 3.1 0 0 1-2.6-1.6 8.7 8.7 0 0 1-.6-2.1l-.8-3c-1-3.6-1.5-7.2-2.4-10.8-.3-1.2-2.2-6.6-.5-7.1s1.3.2 1.9.2a3.7 3.7 0 0 0 1.7-.3 6.9 6.9 0 0 0 2.4-2.7c.8-1.2 1.9-2.4 3.4-2.6s2.7 1.5 4.3 1.3z" fill="#080707"/><path d="M19.4 14c0-2 3.3-1.8 4.6-1.9a10.3 10.3 0 0 1 6.7 1.4 23.2 23.2 0 0 0 2.4 1.9c1.1.5 1.9-.1 2.9-.4s4.9 0 7.4.3a6.2 6.2 0 0 0 3-.3 14.6 14.6 0 0 1 3.3-1.3 7 7 0 0 1 2.9.1c1 .3 1.7 1.5 2.8 1.4s1.7-1.1 2.6-1.5a7.4 7.4 0 0 1 3.2-.9c2-.1 3.6.5 4.8-1.6s2.3-3.1 4.7-3.1h4.4c1 0 1.9.1 2 1.3s-2.9-.4-4.2.4l-1.7-.2c-.2-.3-.3-.2-.5 0s-2.3-.2-3.1 1.2-.7 3 .3 3.3l-.3.3a2.2 2.2 0 0 0-1.6.9 9.5 9.5 0 0 0-4.9-.9c-1.2.2-2.9.6-3.6 1.7a1.1 1.1 0 0 0-.6.7c-.8.5-1.3 2.3-1.1 3.2s1.3 1.6 2.1 2.1.9.3 1.3.4.9 0 1.2.4-1.4 0-1.7.9-2-1.2-2.2-.3l-1.5 2-.3-.4c0-1 .5-3.1-.9-3.4-.4-1-1.3-1.1-2.1-1.4v-1c.7.2 2.3.3 2-.9.3 0 .4-.2.4-.5.6-.7 1.2-1.4.2-1.9a8.2 8.2 0 0 0-3.9-.7c-1.9.1-5.1 1.5-5.4 3.7l-.4.6-.6-.6c-.5-1.5-2.4-2.6-3.9-2.8a9 9 0 0 0-7.2 2.3c-.4.3-.9 1.2-1.4.7s0-1.5-.1-1.9a2.3 2.3 0 0 0-1.3-1.9c-.8-1.6-2.6-1.7-4.2-1.8s-4.3.6-6.5.4zm81.9-10.6h12.1a94.4 94.4 0 0 1 11.7.3c0 .7.1 1.1-.6 1.3a4.1 4.1 0 0 1-1.6 0 32.3 32.3 0 0 0-4.5-.4h-14.5c-.7 0-2.9-.3-2.5 1s.7.5 1.1.6l2 .4c1.1.2 1.8-.2 1.9 1.3-.8-.1-1.6-.5-2.1.4a1.4 1.4 0 0 0-1 .5h-1.6c0-1.2 0-1.4-1.2-1.4h-1.7a7.5 7.5 0 0 0-1.6.7c-1.8-.3-3-.6-4.8.3l-.4.9h-.5c0-1.4-.7-1.2-1.9-1.1s-2.2-.1-2.6 1.2-.6 1.9-.4 2.3 1.5.5 2 .9-1.3-.2-1.8.9a8.7 8.7 0 0 0-.4 3l-.4.5h-.3c-.1-.3-.1-.7-.4-.9a1.3 1.3 0 0 0-.5-.8 1.2 1.2 0 0 0-.8-.9c-1.9-2-4.9-1.2-7 .2-.7-.4-.3-1.3-.1-1.9a10.7 10.7 0 0 0 .1-2.9 2.5 2.5 0 0 1 1.9.9 3.8 3.8 0 0 0 2.8 1.1 5.3 5.3 0 0 0 2.6-.1c.8-.5 1-1.7 1.4-2.6s2.9-2.7 5.1-2.6c.7 0 3.3-.1 3.6-.8s-1.6-.3-1.5-1.4a39.9 39.9 0 0 1 5.8.4c1.1.2 2.3.1 2.6-1.3z" fill="#1a1a1a"/><path d="M64.8 37.7a2.3 2.3 0 0 0 1.3.2c.4.7 1.4-.3 1.8-.6a2.6 2.6 0 0 0 2.8-.6c.4-.5.5-1.1 1.1-1.2a3.4 3.4 0 0 1 1.2.5c.7.7-.3 2.6-.5 3.4a13.9 13.9 0 0 1-1.5 4.2h-1.7c-.7-1.4 2.3-3.6.3-4.6a6.5 6.5 0 0 0-3.1-.1c-1.3.3-2.4 1-3.7 1.3s-4.8.7-7.1 1.6-2.3 1-3.5 1.3a10 10 0 0 0-3.3 1.3c-2.1-.3-4.2.7-6.1 1.3a4.8 4.8 0 0 0-3.4 3.6c-.9.9-2.3 1.3-2.6 2.7a16 16 0 0 1-3.6 0c-.7 0-2.2.3-2.3-.7 4.4 0 6.5-3.6 8.7-6.7.5-.7.7-.9 1.6-.6s1.2.8 2.2.1 1-1.1 1.9-.9 1.3.6 2.3-.1 1.4-.2 2.2-.5.7-1 1.3-1.2 1.5.3 2.2 0 1-1.3 1.7-1.5 1.3.5 2 .4 1.4-1 2-1.6 1.1-.3 2.1.1a2.3 2.3 0 0 0 2.7-.5c.7.5 1 .1 1-.6zm-26.6-6.6c-4.8 4-10.3 8.7-11.3 15.2-3.3-.3 1.2-6.8 2.1-8.1a22 22 0 0 1 3.5-3.9c1.1-1 2.5-2.1 2.3-3.7.8.2 1.4-.5 2.1-.4s.8.6 1.3.9z" fill="#272727"/><path d="M16.9 30.6c-1-2.1-2.1-4.1-.6-6.5.4-.6.1-1.2.2-1.9a32.8 32.8 0 0 1 .4-6.5c.2-.9.7-.9 1.4-.8v3a.4.4 0 0 0 0 .3 89.8 89.8 0 0 0-1.4 12.4zm15.6-2.1h-2.1c-.1-1.9-1.6-3.3-3.6-2.7l-.9.3a7.1 7.1 0 0 0-1.6.1 24.3 24.3 0 0 0-2.8 1.5v-2a39.2 39.2 0 0 0 4.2-.6 13.1 13.1 0 0 0 4-2c.6-.4.4-.4.6.2a17.7 17.7 0 0 1 0 1.8c.3 1.5 1.4 2.2 2.2 3.4z" fill="#1a1a1a"/><path d="M36.4 52.3h.4a.6.6 0 0 0 .4.5 9.2 9.2 0 0 0-1.1 4.5c.1 1.6.8 3 1.1 4.5l-.7.4c0-1-.6-1.8-.9-2.7a6.7 6.7 0 0 1-.4-3.3c.5-.4.2-1.2.3-1.8a8.2 8.2 0 0 1 .9-2.1z" fill="#5a5a5a"/><path d="M33.1 28.8a12.9 12.9 0 0 0 3.8.6c.1.5 1 .2.1.7a6 6 0 0 1-2.3.4c-.2-1.2-1.9.1-1.6-1.7z" fill="#1a1a1a"/><path d="M20.7 30.2v-2.6l.5-2h.4v2c-.2 1 0 2-.9 2.6z" fill="#6e6e6e"/><path d="M73.3 9.8c1.2-.7 2.5-.3 3.8-.3v.4c-1-.3-2.9.5-3.8-.1z" fill="#878485"/><path d="M35.5 54.8c0 .5.2 1-.3 1.3s-.6-1 .3-1.3z" fill="#343434"/><path d="M106.4 8.1c0-1.3-.5-1.1-1.6-1.3l-1.8-.4c-.5-.1-1.1.1-1.5-.4s1.2-1.3 1.8-1.3h13.8a21.4 21.4 0 0 1 4.5.2c.7.2 3 .8 3.4-.2s.9.3 1.3.4a4 4 0 0 0 .4 2.6v.8c-.4.2-.4.5-.5.9a2.2 2.2 0 0 1-.7.9 3.7 3.7 0 0 0-1.5 2 5.4 5.4 0 0 0 .1 2.5c.2.6.7.8 1.3 1v.9c-1.7.2-1.2 5.1-1.4 6.4s-1.2 5.1-1.5 7.6a27.4 27.4 0 0 1-.3 3.3l-1 3.6c-.6 2.1-2.4 2.8-4.4 3.2l-8.4 1.6-3.7.9c-1.3.3-2.7.2-4.1.4l-8.1 1.5-3.5.8-1.8.5c-.5.1-.9-.2-1.4-.2s-1.1.5-1.7.6l-2 .2c-1.5.2-2.9.7-4.4 1S72.5 49.5 71 47c.2-.2.3-.3.2-.6a6.9 6.9 0 0 0 3-1l1.2-.9c.4-.2 1-.2 1.3-.7a1.6 1.6 0 0 0 1.2-.5v-.2a1.5 1.5 0 0 0 1-.4 2.2 2.2 0 0 0 1.5-.8c.5-.2 1.2-.3 1.1-1.1a.2.2 0 0 0 .1.2c.5 1.3 1.6 1 2.6.9s1.2 1.5 1.5.2 1.3.2 1.7-.4 2.1.2 1.2-.9 1-1 1-1.7l.4-.5c1.6.1 1.2 2.1.6 3.1s-1.3 1-1.5 1.6.6.9 1.2.9c4.3-.1 8.2-1.7 12.4-2s8-1.8 12.1-2.2c1.8-.1 3.2-.1 4.5-1.5s1.4-3.1 1.7-5 .8-3.9 1-5.9.2-1.7.3-2.6.8-2.3.5-3.3-.8-1.2-1.4-.7a13 13 0 0 0-1.2 1.8c-1 1.3-1 2.9-2.1 4.2s-6.2 3.6-8.2 1.9a9.3 9.3 0 0 0-3.7-2.3 16 16 0 0 0-5.6-.6c-2.1.2-3.7 1.5-5.9 1.1a11.7 11.7 0 0 0-2.9.1 15.7 15.7 0 0 0-3.3.4 4.5 4.5 0 0 1-2.3-.2 4.7 4.7 0 0 0-2.9.5c-1.9.7-4.1-.5-5.9 1a2.8 2.8 0 0 0-2 .4 6.9 6.9 0 0 1-2 .5 7.3 7.3 0 0 0-2.2.8 10.9 10.9 0 0 1-2 1.2c-.7.2-1.5 0-2.2.1s-1.3.8-2 .9c-2.5.2-1.2-2.7-1.2-3.9s.6-.7 1.3-1.1a3.9 3.9 0 0 1 1.7-.5c.2 1 1 .7 1.8.7h3c1.9-.1 3.6-.9 5.5-1.1s3.4 0 5-.5a10.9 10.9 0 0 0 2.3-1.2c1-.6.2.2 1.1.2a4.5 4.5 0 0 0 2.1.5c.4 0 1.9-.3 1.9-.9l.3-.4c1.3 1.4 3.2 1 4.7 0h.6c.7 0 1.1.4 1.8.5s.8-.3 1.3-.4 1.1.1 1.4-.4.4-.5.5-.9 1.6.7 2.5.3a8.4 8.4 0 0 0 2.1 1 9.2 9.2 0 0 0 2.1-.4l.3.2c.3-.7.8-.6 1.3-.9s.8 1.4 1.4 1.9 1.2 1.9 2.4 1.8a5.6 5.6 0 0 0 4-1.8c.6-.2.7-.8 1-1.3s.9-1.8 1.4-2.8 2-2.8 1.9-4.4c.5-.1.5-.5.4-.9.5-.1.5-.5.4-.9.5-.1.5-.5.4-.9.5-.1.5-.5.4-.9.5-.1.5-.5.4-.9a3.6 3.6 0 0 0 1.2-2.2c-.1-.5-.8-.4-1.2-.4s-3.3-.6-4.2.2-1.1 1.3-2.2 1a22.5 22.5 0 0 0-3.3-.4c-.2-.4.5-.6.4-1.1a1.3 1.3 0 0 0-1.3-.8c-.6 0-.9.4-1.5.3a4.1 4.1 0 0 1-1.2-.5 5.1 5.1 0 0 0-2.8-.5z" fill="#0e0d0d"/><path d="M61.9 51.6v.3a3.1 3.1 0 0 0-2.6.8.5.5 0 0 0-.4-.5v-.5c-.4 0-.3.8-.3 1a.4.4 0 0 0-.4.4 2.1 2.1 0 0 1-1.7-.6.4.4 0 0 1 0-.2c-.1-1-1.5-1.2-1.2-2.3s3.9-1 4.1-2.2a2.3 2.3 0 0 0 2.6-.7c1.4-.3 2.4-1.5 4-1.3v.9c-.6.2-.3.8-.4 1.2h-.1c-.4-.2-.9-.6-.8.4h-.1c-.9-.8-.9-.8-1.6-.1s0-.5-.3-.2l.3.2c.1 1.3.1 1.3 1.6 1.1l.3.4-.2.3c-.5-.1-1.5-.3-1.7.4h-.8c-.1-.2-.3-.7-.6-.7s.2.9.2 1c-1 .6-.1.8.1.9zm-1.5-.4l-.5-.4c-.2.4.1.6.5.4zm.4-2.1zm-2.6 1.7z" fill="#878485"/><path d="M125.5 15.8c-.6-.2-1.1-.3-1.3-1a5.4 5.4 0 0 1-.1-2.5 3.7 3.7 0 0 1 1.5-2 2.2 2.2 0 0 0 .7-.9c.2-.3.1-.7.5-.9s.1.8-.1 1.3a20 20 0 0 0-.3 2c-.1 1.5-.8 2.6-.9 4z" fill="#1a1a1a"/><path d="M68.4 47.7c-.9 1.4-2.5 1.7-3.8 2.3l-.3-.4a1.6 1.6 0 0 0 0-1.1h.1c.4.2.9.5.8-.4h.1c.3.1.6.7.9.2s-.4-1.2-.6-1.5h.8c.1.3.1 1.1.6 1.1s-.4-1-.6-1.2a.9.9 0 0 0-.7-.9c.5-1 1.5-1.1 2.4-1.2s.6 1.7.5 2.4l-1.1-.9c-.4.4.5 1.4.9 1.6z" fill="#878485"/><path d="M124.3 20.5a6.7 6.7 0 0 1 .4-2.4c.2-.8 0-1.3.9-1.4s-.1 3.5-1.3 3.8zm2.5-12.8a4 4 0 0 1-.4-2.6c1 1 1.1 1.3.4 2.6z" fill="#1a1a1a"/><path d="M71.2 46.4c.1.3-.1.4-.2.5l-1.4.5-.3-.3.6-.8z" fill="#878485"/><path d="M68.4 47.7c-.4-.2-1.3-1.1-.8-1.6l1.1.9z" fill="#4d4d4d"/><path d="M68.4 47.6l.2-.6h.6l.3.3a.9.9 0 0 1-1.1.3zM52.9 63.4a7.8 7.8 0 0 1-7.6 5c-.7-1.1-2 0-2.2-1.3 1.6 0 7.5 0 6.9-2.9 1.4.2 1.6-1.2 2.3-1.8s.6.6.6 1zm8.5-5.6c-1.5 1.7-3.6 1.2-5.5 1.3-.1-.4-.7-.3-.7-.2a.7.7 0 0 0 .7.2 1 1 0 0 1-.1.4c-.7 0-1.1.6-1.5 1s-1.2.4-1.6-.2.9-1.4 1.1-1.6 1.6-.8 2.7-.8a15.1 15.1 0 0 0 4-.5z" fill="#6e6e6e"/><path d="M43.1 67.2c.2 1.3 1.5.1 2.2 1.3a6.4 6.4 0 0 1-6.5-3.4l.2-.2c1.4.8 2.5 1.9 4.1 2.3zm9.8-6.9c.5.3 1-.8 1.4.1s-.5 2.2-1.3 3 0-.8-.5-1 .7-1.3.4-2.1zm-16.5 1.8l.7-.4.5 1.2h-.2c-.4 0-1.1.1-1-.8zm2 2.6a1.8 1.8 0 0 1-.9-1.7h.2a3.2 3.2 0 0 1 1 1.5z" fill="#878485"/><path d="M38.8 65.1l-.4-.4.3-.3.3.5z" fill="#878485"/><path d="M39.1 64.9c-.4-.6-.7-1.6-1.3-2a11.1 11.1 0 0 1-1.3-3.8c1.3.2 2.1 2.5 2.7 3.5s2.7 2.8 3.3 1.6h.4a.9.9 0 0 0 1.5-.2c.3-.5.1-1-.2-1.5s.1-2-.5-3.3-.6-2.1.8-1.9.7 2.9 1.6 3 .4-1.7.2-2.2h1.3c.9.8.8.8 2 .1l1.6-.8c.1-.1.9-.8.2-.6a.8.8 0 0 0 .2-.8c1.1.2 1.9-.5 2.8-.9l1.1.2c.4 0 .7-.2.9.3s-.9 1.3-.9 2.2a2.4 2.4 0 0 0-2 1.1c-.2.3-1.2 1.1-.6 1.4s-.4 1.4-.5 2.1-.9 2-2.3 1.8a1.1 1.1 0 0 0-.9-1.8c-.6 0-1.3 1.4-.5 1.3v.5c.4.6.9.4 1.4.1.4 2.2-3.4 2.8-4.8 2.8a6.1 6.1 0 0 1-3.3-.4c-1.1-.5-2-1.3-2.9-1.8zm11.4-3.7c-.1-.3-.1-.7-.4-.8s-.8-.8-.1.1.5 1.4 1.1 1.3-.3-.6-.7-.7zm-4.3 5.1c1-.5 1-2-.3-1.9s-.8 1.6.3 1.8zm.4-3.4c1.1-.2 1.2-1.9 0-1.9s-1.2 1.6-.1 1.8zm5.4-3.3v-.3c-.1.1-.2.5 0 .5zm7.3-11.7c-.3 1.3-3 2-4.1 2.2-.2-.5-.4-.3-.6 0s-2 .5-2 2-.8.1-.9.5a2.8 2.8 0 0 0-1.7.5c-.6-.3-1-.5-.8.4s-1.6-.3-1.9 0-.2.8-.6.9-.8-.4-.8.8h-1.4c-.4-.3-.1-1.3.1-1.6a3.2 3.2 0 0 1 1.3-1.2c1-.6 2.4-1 2.4-2.4h.8c.2.4.3.4.5 0 1.9-.6 2.8-2.3 3.8-3.8a5.2 5.2 0 0 1 5.1.6l.2.2c.1.3.2.6.6.6zm-3.3-.8c-.4-1.5-2.2 0-1.6 1.1s3.4-.6 1.6-1.1z" fill="#1a1a1a"/><path d="M52.5 52.1v-.7c.4.2.6 1.3.8 1.6a8.4 8.4 0 0 1 1 2.1c-.9.5-1.7 1.1-2.8.9s-.8-1.4-.7-2.1.6-.8.9-1.3c.3.1.7.1.8-.5z" fill="#343434"/><path d="M55.5 57.8c0-.8-.2-1.8.9-2.2s.7-.4 1.2-.6.5 0 .9.1a.5.5 0 0 0 .5.4c.1.5.4.6.9.4-.1.3.1.4.4.5l.4.4v.3a16.7 16.7 0 0 1-5.2.7z" fill="#272727"/><path d="M53.4 52.1c.1-.9.3-1.4 1.1-.5a10.4 10.4 0 0 1 1.4 2.4h-1.3c-.4-.6-.5-1.4-1.2-1.9z" fill="#454545"/><path d="M53.4 52.1c.7.5.8 1.3 1.2 1.9s0 .9 0 1.3h-.4a16.8 16.8 0 0 0-1.4-2.9z" fill="#878485"/><path d="M54.7 54.3a1.7 1.7 0 0 1 0-.4h1.2c-.3.7-.8.5-1.2.4z" fill="#272727"/><path d="M58.9 55.7a.5.5 0 0 1-.5-.4h.5zm-4.4-5.6c.2-.3.4-.5.6 0zm6 7.2v-.8h.1c1 .1.8.7.7 1.4z" fill="#878485"/><path d="M59.7 56.1c-.4.1-.7 0-.9-.4s.8-.1.9.4zm.4.5c-.2-.1-.5-.1-.4-.5a.9.9 0 0 1 1 .3h-.6z" fill="#878485"/><path d="M54.6 25.1l.3.4c0 .4-.2.8.4.9a4.3 4.3 0 0 0 1.8.9l-.8.6c-2.2.3-3.2 3.3-3.8 5.1a36.4 36.4 0 0 0-1.2 3.9c-.2 1-.2 2.7-1.1 3.4s-.5-.4-.9-.9-1.4-.4-2-.3a3.5 3.5 0 0 0-2 .8c-.7.8-.9 1.8-1.9 2.3a.7.7 0 0 0-.5-.6l-.3-.7c.1-1.7 1.1-2.7 2.4-3.7s3.5-2.5 3.1-3.8a2.1 2.1 0 0 1 .9-.9c.3 1 1.3.2.5-.4l.2-.4c.9 1 2-1.5.7-1.6v-2c.5 0 1 .1 1.3-.4 1 .1 2.3-1.4 2.6-2.4zM39.9 35.3c-.7 2.3-1.5 4.5-2 6.8s-.2 2.1-.4 3a5.1 5.1 0 0 1-1.9 2.3c-1.2 1.1-2.9 2.6-4.6 2.8s-2-1.2-2.1-2.6 1.4-2.1 1.7-2.9a19.3 19.3 0 0 1 2.6-4.1 44.9 44.9 0 0 1 3.1-3.4c1-1 2-2.1 3.6-1.9zm-4 7.2c0-.5.1-1.4-.2-1.8a1 1 0 0 0-1.6.2 13.8 13.8 0 0 0-1.1 2.2c-.4.7-1.1 1.4-1.3 2.2s1.2 1.7 2.2.8a5.7 5.7 0 0 0 2-3.6zm37.6 0a16.9 16.9 0 0 1 1.5-4.9 19 19 0 0 1 1-2.1c.4-.6.9-1.1.8-1.9h-.1c.6.1 1-.4 1.6-.2s1.2.8 2 .7 2.2-2.4 2.9-3.5.9 1.3 1.1 2.4a5.1 5.1 0 0 0 1.7 3.1h-1.1c.3 1.4-1.2.6-1.5 1.3h-.7c-1.1-.3-1.3.5-1.9 1.1a7.7 7.7 0 0 1-2.3 1.2c-.9.4-4.5 1.7-4.2 2.8zm9.7-6.1z" fill="#272727"/><path d="M64 28.9c0 1.3-1.3 3.8 1 3.9s1.3-.6 2-.8 1.6.1 2.4-.2 2.5-1.7 4.1-2a8.9 8.9 0 0 0 2.2-.6 2.8 2.8 0 0 1 2-.4c1.7-1.4 3.6-.6 5.5-.8v2a1.9 1.9 0 0 0-.8 1l-1.3 1.1-.2-.8a1.2 1.2 0 0 0-1.4-1.6c-1.1.1-1.8 1.8-2.3 2.6h-.4c-.3-1.4-2.3-1.1-3.4-.7s-1.8 2.5-3 3.6a.4.4 0 0 0-.4-.4c-.1-.7.3-1.6-.8-1.8s-1.1 1.1-1.9 1.3-1.2-.5-1.9.2-.7 1.1-1.1 1.6c-.2-1.1-.2-1.1-1.1-.5a1.7 1.7 0 0 0-2.4-.6c-.2-.9.5-1.6.8-2.4s1.1-3.3 2.5-3.8z" fill="#272727"/><path d="M54.2 25.3a3 3 0 0 1-1.1 1.5 1.3 1.3 0 0 0-1.5.9c-.5 0-1-.2-1.3.4a20.2 20.2 0 0 0-2.4-.8 6.5 6.5 0 0 0-2.2.2c-.3-.2-.7-.2-.8-.7s.6-1.2 1-1.3a1.9 1.9 0 0 1 1.6.4 3.7 3.7 0 0 0 2.4.5c1.1-.1 2.2-1.4 1.2-2.4s-3.2-1.4-4.6-1.4-.1-.4-.4-.5a5.6 5.6 0 0 1-.5-1.9 6.7 6.7 0 0 1 .6-1.9 11.4 11.4 0 0 1 3.4-1.6c.7-.2 2.5.2 2.9-.6s2.1.3 1.7 1.8a.4.4 0 0 0-.4.5l-.4.4c-1.7 0-3.4-2-4.7.1s.1 1.4 1.3 1.8l3.8 1.1c0 .8-.3 2.3.3 3zm9.2 1.1c-1.1-.2-2.3-.4-3.3.4a6.9 6.9 0 0 1-4.1-.9c0-.8 1.2-1 1-1.9l1.2.6c.6 1 3.1 1.4 4.1.6a1.9 1.9 0 0 0 .3-2c-.4-.8-1.3-.9-2.1-1.1s-3-.6-3.5-1.7.3-3 1.1-3.8 2.7-.9 4.1-.9 2.9 0 3 1.3c-1.7 1.3-4.7-1.4-5.6 1.1-.3 1 .3 1.1 1.1 1.4a28 28 0 0 1 4.5 1.7v3.6l-.2.2c-.8.1-1.2.8-1.7 1.3z" fill="#fb212f"/><path d="M63.4 26.4c.9 0 1.4-.6 1.7-1.3a2.5 2.5 0 0 0 .2-3.8c.3-2.5-5-1.2-5.1-3.3 1.4-.4 2.3.3 3.7.4s1.3-.4 1.4-1.3c.3 0 .4-.2.5-.4s.5-.8.4-1.3a2.1 2.1 0 0 1 1.7-.9h.1c-1 2.2-.7 4.5-1 6.8l-.3 3.4c-.1.7-.4 1.9.4 2.3a.8.8 0 0 1 0 .3 3.9 3.9 0 0 0-1.7.5c-.6.5-.5 1-1.3 1.1 0-.5.2-1.2-.7-1.3z" fill="#272727"/><path d="M39.9 35.3c-1.5-.1-2.5.8-3.4 1.8a46.3 46.3 0 0 0-3.3 3.6 20.1 20.1 0 0 0-2.5 3.9c-.4.8-.7 3.1-1.9 3.1-.2-1.8 1-3.5 1.9-5a38.1 38.1 0 0 1 3.2-4.4 38.9 38.9 0 0 1 8-7.2.7.7 0 0 0 .5.5 17.3 17.3 0 0 0-2.5 3.7z" fill="#454545"/><path d="M42.4 31.5a.7.7 0 0 1-.5-.5 11.7 11.7 0 0 1 4.5-2.6c1.7-.5 3.7-.1 2.3 2s-2.1 2.7-3 2.7-.7-.9-1.1-1.3a2.6 2.6 0 0 0-2.2-.3zm-5.6-1.3c1.2-.3.1-.3 0-.7s2.8-.3 3.8-1.4a1.3 1.3 0 0 0 1.3-.9.4.4 0 0 0 .4-.4.4.4 0 0 0 .4-.4l.8-.5c.1 1 .1 1.3 1 1.9a42.2 42.2 0 0 0-6.3 3.4c-.5-.4-1.1-.4-1.4-1z" fill="#343434"/><path d="M48.2 33.4c.4 1.3-2.2 3.1-3.1 3.8s-2.3 2-2.4 3.7a1.9 1.9 0 0 0-1.6-.2V40c1.9-2.7 4.5-4.5 7.1-6.6z" fill="#454545"/><path d="M61.4 32.8c-.3.8-.9 1.4-.8 2.4s-2.7 4.5-3.7 4 2.3-3.6 2-4.6c1.3-.2 1.1-1.7 2-2.3a.8.8 0 0 0 .5.5z" fill="#4d4d4d"/><path d="M54.6 35.8c.3-.3.8-1.1 1.2-.8s0 1.1 0 1.4a6 6 0 0 1-1.6 3c-.5.5-2.3 1.7-1.6 0s1.7-1.7 1.3-2.7c.4.1.5-.1.4-.4.4.1.4-.2.4-.4z" fill="#5a5a5a"/><path d="M73.5 42.5c.4 0 1.4.2 1.7-.3h1.5v1.7h-1.3l-2.3 1.4c-.7.5-1.4.6-1.9-.2s0-.4 0-.5c1.7.1 1.7.1 2.3-2.1zm1.7.8q.2-.1 0-.3t0 .3z" fill="#4d4d4d"/><path d="M61.4 32.8a.8.8 0 0 1-.5-.5l2.3-4.6c.9 0 .7.7.7 1.3s-1.3 2.9-2.5 3.8z" fill="#343434"/><path d="M54.3 34c.6-1.3 1.1-3.7 2.3-4.6.3 1.3-.9 3.4-1.6 4.6zm7.6-6.2a13.1 13.1 0 0 1-2.2 4.6v-1c.6-1.3 1-2.8 2.1-3.8z" fill="#6e6e6e"/><path d="M57.1 27.3l2.2.4-.9 1.6h-.5c.1-1.2-.8-1.3-1.6-1.4z" fill="#454545"/><path d="M44 32.8c-.1.4-1.5 3.4-1.6 2.1s1.4-3 1.6-2.1zm30.5.2c-.1.5-.8 2.6-1.2 1.5s.9-2.7 1.2-1.5z" fill="#6e6e6e"/><path d="M46.3 42.8c-.3-.4.2-2.5.8-2.4s-.3 2.2-.8 2.4z" fill="#5a5a5a"/><path d="M50.5 30.2c1.3.1.2 2.6-.7 1.6a3.3 3.3 0 0 1 .7-1.6z" fill="#454545"/><path d="M67.9 37.3c-.4.3-1.4 1.3-1.8.6s.9-1.8 1.8-.6z" fill="#4d4d4d"/><path d="M63 35.7c.9-.6.9-.6 1.1.5a2.3 2.3 0 0 1-1.1 1.1l-.3-.3z" fill="#343434"/><path d="M54.3 34h.7c-.1.6-.7 1.1-.3 1.8-.4-.1-.5.1-.4.4h-.4a2.6 2.6 0 0 1 .4-2.2zm-13.2 6c-.2-.3-1.3-.1-.6-.8s.6.5.6.8z" fill="#878485"/><path d="M64.8 37.7c0 .7-.3 1.1-1.1.8s.3-1.1 1.1-.8z" fill="#4d4d4d"/><path d="M57.9 29.4h.5c0 .2-.1 1-.4 1s-.4-.8-.1-1z" fill="#878485"/><path d="M76.7 32.3h.4c0 .5-.6.8-.4 1.3h-.4c-.1-.5-.2-1 .4-1.3z" fill="#6e6e6e"/><path d="M49.5 32.1c.8.6-.2 1.4-.5.4s.3-.3.5-.4zm13.4 5.2c-.6.8-1.1.4-.3-.3z" fill="#343434"/><path d="M56.5 32.8c.1-1.6 1.3 0 0 0z" fill="#878485"/><path d="M42.9 41.6a.8.8 0 0 1 .2 1.3.7.7 0 0 1-.5-.5z" fill="#454545"/><path d="M42.7 42.4a.7.7 0 0 0 .5.5c-.5.9-1.3.3-.5-.5z" fill="#6e6e6e"/><path d="M59.6 31.4v1l-.3.5-.3-.3a1.9 1.9 0 0 1 .6-1.2z" fill="#878485"/><path d="M70.3 35.2c-.3 1-1.2.7-.7 0h.7z" fill="#5a5a5a"/><path d="M56.5 32.8h.2a.8.8 0 0 1-.3.9h-.2z" fill="#6e6e6e"/><path d="M58.9 34.5h-.4a.9.9 0 0 1 .2-1l.2.2v.8z" fill="#878485"/><path d="M56.4 33.7c-.1 1.3-1 .2-.2-.1z" fill="#6e6e6e"/><path d="M59.4 32.9c-.1.3-.2.6-.5.8l-.2-.2a1.4 1.4 0 0 1 .4-.9zm1.8 3.9c.3-.9.9-.3.3.3zm9.4 6.9h.5a.6.6 0 0 1 .2.7.6.6 0 0 1 0 .3c-.5-.2-.6-.6-.7-1zm-31.2-.6c-.5.9-.6 0-.2-.2zm.3-.7c0-.3.1-.7.5-.8a.7.7 0 0 1-.4.9zm17.8-11.1v.2q-.2-.2 0-.3z" fill="#878485"/><path d="M61.8 27.6c.1-.4.5 0 .2.2z" fill="#6e6e6e"/><path d="M40.2 41.7c0-.3.1-.4.4-.4 0 .3-.1.5-.4.4zm9.1-.1q-.2-.2 0-.3t0 .3zm-10 1.3c.1-.2.2-.4.4-.4h.1a.5.5 0 0 1-.3.5z" fill="#878485"/><path d="M66.9 35.1v.2l-.2-.2h.1z" fill="#272727"/><path d="M70.3 35.2h-.6l.2-.4c.2.1.3.1.4.4z" fill="#454545"/><path d="M53.8 36.6c-.1-.1-.7-.2-.1-.5v.5z" fill="#878485"/><path d="M76.3 33.6l-.2.3c-.1-.2-.2-.5.2-.3z" fill="#6e6e6e"/><path d="M58.4 34.4l-.2.3c-.2-.3 0-.3.2-.3zM41 40.8c0 .3-.1.4-.4.5 0-.3.1-.5.5-.4zm20.5-3.7c-.3.5-.7.1-.3-.3z" fill="#878485"/><path d="M72.1 9.8h.8a52.1 52.1 0 0 0-.6 6.2 2.9 2.9 0 0 0-.3 2c0 .8-.2 1.6-.2 2.4a31.3 31.3 0 0 1-.6 5.1h-.5V23c.7-1.2.4-2.7.5-4.1s.3-3.2.4-4.8.5-.6 0-.9.5-.9.5-1.6a17.1 17.1 0 0 1 0-1.8z" fill="#454545"/><path d="M52.5 16.1c-1.2-.7-2.6-.3-3.8-.4a7 7 0 0 1 4.9 0c1.5.4 1.7.9.6 2.2.4-1.5-1-1.3-1.7-1.8zm1.3 5.6c-1-.3-6.6-1.1-5.1-2.9h.4c.2 2.2 3.9.9 4.7 2.9zm-12.4-4.4c-1.4-1.1-3.1-.6-4.7-.8 2.6-.8 5-.5 6.9 1.7l-.3.3z" fill="#6e6e6e"/><path d="M65.7 16.6c-.7-2.2-4.3-1.7-6-1.7 2.2-.9 4.3-.4 6.4.5.1.5.1.9-.4 1.2z" fill="#878485"/><path d="M71.5 13.2c.5.3.7.6 0 .9s-4 .6-4.2-.5l.4-.2h3c.2.3.3.2.4 0zm-22.4 5.6c.9-.1 1.9-.4 2.6.4v1.1c-.9-.4-2.4.2-2.6-1.5zM60.6 23c1.4.2 1.5.3.8 1.2s-1.8.3-2.5-.4 1.3 0 1.7-.8z" fill="#272727"/><path d="M58.8 23.9c.8.7 1.7.3 2.5.4-1 .8-2.1.3-3.2.4a5.7 5.7 0 0 1-1.5-1c.3-1 1.7.2 2.2.2zm9.2-9.7h3.6v3.3c-.9-.5.2-2.2-.6-2.8s-2.5-.2-3.1-.1h-.1zm.6-3.9h-.4c.8-.7 2.9-.5 3.9-.4v.5z" fill="#878485"/><path d="M54.2 25.3c-.2-.9.3-2.1-.4-2.8v-.8c1.4.3.9 2.5.9 3.4z" fill="#6e6e6e"/><path d="M67.8 10.7v2.7l-.4.2c0-1-.4-2 .4-2.9z" fill="#454545"/><path d="M44.8 19.6v.8H44v-1.2l.3-.2z" fill="#6e6e6e"/><path d="M58.1 22.3c.3 0 .7-.2.9.3s-.7.1-.9-.3zm1.3.4c.4 0 .8-.2 1 .3s-.8.1-1-.3z" fill="#272727"/><path d="M43.7 18.2a1.2 1.2 0 0 1 .5.8l-.3.2c-.3-.1-.4-.5-.5-.7z" fill="#6e6e6e"/><path d="M53.4 19.2v-.5l.4-.4a.7.7 0 0 1-.4.9z" fill="#878485"/><path d="M71.2 9.7h-.5c.2-.2.3-.3.5 0z" fill="#454545"/><path d="M53.8 18.3a.4.4 0 0 1 .4-.5c0 .4-.1.6-.4.5z" fill="#878485"/><path d="M52.4 19.5a.3.3 0 0 1 .5 0c-.2.1-.4.1-.5 0z" fill="#272727"/><path d="M101.6 9h1.8c-.6 1.4-.4 3.2-2.4 3.4s-3.2 0-4.8 0a23.9 23.9 0 0 1 .2-4.2h.8c-.1 1.1-.7 2.8.7 2.9a8.5 8.5 0 0 0 2.8-.1c1.1-.4.1-1.4.9-2zm-9.6.4a54.5 54.5 0 0 1-.8 8.5c-.3-.5.2-1.3-.5-1.7s0-1.4 0-2.1.6-.9 0-1.3h-2.1c-.5-.3-1.6-.3-1.9-.7s0-1.3.2-1.8 0 1.3.5 1.6 1.6.1 2.1.1 1.7-1.2 2.1-2.5z" fill="#343434"/><path d="M106.4 8.1h1.3a1.6 1.6 0 0 0 .7 1.6c.5.4 1.1.5 1 1.3s-1-.1-1.3.4-.5-1.7-.9-2.5-2.1-.5-2.8-.5 1.3-.4 2-.3z" fill="#272727"/><path d="M96.4 8.1a23.9 23.9 0 0 0-.2 4.2h-.1l-.3-.4c-.3-1.1.5-2.3-.4-3.4h-3a4.5 4.5 0 0 1 4-.4zm5.2.9c-.6.5.2 2.3-1.1 2.1v-.3a.3.3 0 0 0 0-.3 1.6 1.6 0 0 0 0-2.3 16.5 16.5 0 0 1-3 0c.9-.7 2.1-.5 3.1-.5s1.1.3 1 1.3zm2.7-.5c1.1 0 2.6-.4 2.9.9s-.1 1.3.2 1.7 1.9.4 2.5.5v.3h-1.4a8.9 8.9 0 0 0-1.5-.1c-.3-1 .4-2.1-.4-2.9h-3.2a1.4 1.4 0 0 1 .9-.4z" fill="#878485"/><path d="M77.1 14.5c-.1.5-.6.4-.9.5.1-1.7.1-3.4.2-5.2h.6a10.8 10.8 0 0 1-.1 2.8c-.1.6-.6 1.4.2 1.9zm5.9-.1c-1.3-1.2-2.9-.6-4.3-.8 1.9-.6 3.7-.9 5.3.8l-.2.3z" fill="#6e6e6e"/><path d="M88.6 12.7h2.2a9.2 9.2 0 0 1 0 1.7h-.3v-.9c-1-.8-2.3-.2-3.4-.4.2-.6.9-.2 1.5-.4z" fill="#878485"/><path d="M86.4 16.6c-.1.9.3 1.8-.3 2.6V17z" fill="#dd1718"/><path d="M86 17c0 .8.1 1.7 0 2.5h-.4v-2.4z" fill="#4d4d4d"/><path d="M84 14.3a1.2 1.2 0 0 1 .8.9l-.2.2-.8-.8zm1.3 1.8c.3.2.3.6.4.9h-.5l-.2-.8z" fill="#6e6e6e"/><path d="M84.9 15.2a1.3 1.3 0 0 1 .5.8l-.3.2h-.3v-.8z" fill="#6e6e6e"/><path d="M68.2 44.6c-.9.2-1.9.3-2.4 1.2s-2.6 1-4 1.3c0-1.3-2.5-.8-3.3-.9s-3.9-1.9-5.2 0c-1.1-.3-1.5.8-2 1.5a3.2 3.2 0 0 1-2.9 1.3 27.6 27.6 0 0 0-4.2-.7 12.2 12.2 0 0 0-4.8 1.1 4.8 4.8 0 0 1 3.4-3.4c1.9-.6 4-1.6 6.1-1.3a10 10 0 0 1 3.3-1.3c1.2-.3 2.3-.9 3.5-1.3s4.9-1 7.4-1.6 2.3-1 3.5-1.3 2.7-.3 3.3.2-2 3.8-.3 4.6c-.6.2-1.1.2-1.4.6z" fill="#0e0d0d"/><path d="M39.4 49.5a12.2 12.2 0 0 1 4.5-1.1c1.6-.1 2.9.5 4.5.7a3.1 3.1 0 0 0 2.8-1.1c.6-.7 1-2 2.2-1.7-.9 1.3-1.6 2.7-3 3.5s-3.1-.3-4.7-.5a8.9 8.9 0 0 0-8.4 3.4.6.6 0 0 1-.4-.5c.2-1.4 1.6-1.8 2.5-2.7z" fill="#6e6e6e"/><path d="M69.5 44l-.2-.2h.5c.2.6.5.5.7 0h.1c.2.4.2.8.6 1s0 .2 0 .2-.2.9 0 1.5h-1.3c0-.5 0-.9-.6-.9l-.2-.4c.5-.3.4-.8.4-1.2z" fill="#5a5a5a"/><path d="M70.5 43.8c-.3.5-.5.5-.7 0z" fill="#878485"/><path d="M18.5 20.9l.2-3c.7-.7-.2-1.9.8-2.4s1.5 0 2.1-.1l2.1-.4h3.9c.7 0 1 .4 1.5.6s.9-.2 1.2 0c1 2.7.9 5.9-1.6 7.8a7.8 7.8 0 0 1-4.2 1.4c-.7.1-2.2-.2-2.9.2s-.7 1.9-.9 2.7-.4 1.4-.5 2.1h-2.5a35.4 35.4 0 0 1 .4-4.5 19.6 19.6 0 0 0 .4-4.4zm3.1-1.3c-1 1.9-.2 3.3 2 3.5a4.1 4.1 0 0 0 4.3-2.4c1.4-3.8-3.3-5.1-5.8-3.1z" fill="#fb212f"/><path d="M20.3 29.7c.1-.7-.4-1.6.5-2.1v2.1h-.4z" fill="#dd1718"/><path d="M37.2 52.7a9 9 0 0 1 11.1-2.6c0 2.5-4.3 2-3.9 4.9-.2 0-.9-.3-1.1-.1s0 .5.3.6a4.9 4.9 0 0 0 .2 1.9c-1 .3-.3 1.7 0 2.4a3.5 3.5 0 0 1 .3 2.9c-1-.4-1.4.2-1.6 1.1s-1.2.6-2.1 0-1.2-1.5-1.8-2.5-1.3-2-2-2.2a8.2 8.2 0 0 1 .6-6.4z" fill="#0e0d0d"/><path d="M43.4 18.5c.1.3.2.6.5.7s.1 2.3.1 3.4a16 16 0 0 1-.5 2.4 1.2 1.2 0 0 0-.8 1.3.4.4 0 0 0-.4.4.4.4 0 0 0-.4.4 1.1 1.1 0 0 0-1.3.9c-1.2-.1-2.4.4-3.6.5a7.9 7.9 0 0 1-3.6-.6c-2.7-1.2-2.3-4.3-1.6-6.7.8-.1 1.4-1.4 2-1.9a7.4 7.4 0 0 1 2.4-1.3 8.4 8.4 0 0 1 2.7-.5c.5 0 2.4.4 2.6-.1zm-9.1 6.2l.7.5a1.4 1.4 0 0 0 1.4 1.1c.5 1.5 2.6.6 3.5-.1a4.6 4.6 0 0 0 1.6-4.1 3.4 3.4 0 0 0-6.4-1 .9.9 0 0 0-.4 1c-.8.8-1.4 1.7-.4 2.6z" fill="#fb212f"/><path d="M83.1 30v-1.9a5.3 5.3 0 0 1 2.4-.8 14.9 14.9 0 0 1 2.1.4 12.1 12.1 0 0 0 2.5-.4c.9-.1 1.9.1 2.9-.1a6 6 0 0 1 2.1 0 6.6 6.6 0 0 0 2.5-.1c.8-.2 1.4-.6 2.2-.8a10.3 10.3 0 0 1 3.4-.1 14.7 14.7 0 0 1 4.2.9 7.2 7.2 0 0 1 1.7 1c.6.5 1 1.2 1.8 1.4s2.8-.1 4-.5a6.8 6.8 0 0 0 3.9-2.6c.8-1.2.9-2.6 1.8-3.8a11.7 11.7 0 0 1 1-1.5c.7-.6 1.4.4 1.5 1.1a9.2 9.2 0 0 1-.5 2.3c-.2 1-.3 2-.4 3.1a48.7 48.7 0 0 1-1 5.5c-.4 1.6-.3 3.3-1.3 4.8A4.6 4.6 0 0 1 116 40c-4 .2-7.7 1.5-11.6 2.1-2.1.3-4.1.4-6.2.9a34.2 34.2 0 0 1-6.8 1.2c-.6 0-2.1.4-2.3-.4s.9-1.3 1.3-1.8 1.4-3.2-.4-3.3c.3-.8-.2-1.1-.8-1.4a1.2 1.2 0 0 0-.9-.9c-.5-.8-1.1-.9-1.8-.2s-1.8-1.9-2-3 .4-2.5-1.1-2.6z" fill="#080707"/><path d="M119.1 20.2l-2 4a1.2 1.2 0 0 0-1 1.3c-.7-.1-1.4.7-2.1.9a11.2 11.2 0 0 1-2 .4c-.5 0-1.1-.2-1.1-.8s1-.8 1.7-.9 2.1-.6 1.8-2a16 16 0 0 0-1.9-5.2c-.2-1.5-1.1-3-1.3-4.5s1.5-.8 2.4-1.5.1 1.7.9 2.2-.4 1.3.4 1.7c0 .5-.2 1 .4 1.3s.3 2.1 1 2.4.4-.6.3-1.1c1.3.4 2.3-4.1 2.6-4.9a3 3 0 0 1 3.6-1.9 2.6 2.6 0 0 0-.2 1.4c-.5.1-.5.5-.4.9-.5.1-.4.5-.4.9-.5.1-.4.5-.4.9-.4.1-.5.5-.4.9-.4.2-.5.5-.4.9a4.7 4.7 0 0 0-1.5 2.7z" fill="#fb212f"/><path d="M109.8 25.6c-.4-.4-1.1-.6-1.3-1.2s.4-1.2.5-1.9a4.2 4.2 0 0 0-.1-1.9c-.5-.5-1.5.3-2.1.2a3.2 3.2 0 0 1-.4-2.6c.2-1 .3-2.1.4-3.1s1.7 0 2.5-.4.4-1.3 1-1.6a50.1 50.1 0 0 1 1.8 5.2c.3 1.5 1 2.9 1.3 4.3s-.1 1.2-1.2 1.1-1.7.9-2.4 1.9zm-24.1-2.5v2.5c-.8 0-.1-.7-1.1-.2a14.1 14.1 0 0 1-2.3 1.2c-1.7.5-3.5.2-5.3.5s-3.8.9-5.8.9h-2.7c-1.2 0-1.4.2-1.5-1l.4-.2h.5a.7.7 0 0 0 1.2-.1c1-.2 1.6-.2 1.7-1.4h.5c0 .6.1.8.6 1H74c.8 0 1.2-.6 1.8-.7s1.4.4 2.1.5a5.9 5.9 0 0 0 4-.8c.8-.5 3.3-2.2 3-3.3.3 0 .4-.3.5-.5s.1 1.1.3 1.6zm28.8-12l1.6.3a1.7 1.7 0 0 0 1 0c.7-.2 1.1-1 1.7-1.3s3.3-1.2 3.8.1c-1.1.4-2.1-.2-3 .8s-.8 1.8-1.3 2.7-.3 1.1-.8 1.7a2.8 2.8 0 0 0-2-1.3 14.8 14.8 0 0 1-1-3z" fill="#1a1a1a"/><path d="M102.6 23.8c-.9.3-1.7-.3-2.5-.3v-1.4c.7-.5.4-2.2.5-3s.4-2.5.4-3.8h.3c.5.1 1.1-.2 1.4.5a33.8 33.8 0 0 0-.5 4.1c-.1 1.1-.3 2.5.5 3.4z" fill="#272727"/><path d="M77.4 40.3a27.8 27.8 0 0 0 3-1.4c.8-.6 1-1.8 2.3-1.4l.7 1.5-.2.4c-1 0-2.4.3-2.6 1.5s-1.2-.5-1.5-.3-.1 1 .2 1.1 1.1-.3 1.3.1-1.3.9-1.6 1l-.3-.3c-.2-1-.9-1.5-1.3-2.2zm12.3-1.2c-.1.7-1.1.9-1 1.7h-.5c-.6-.5-1.1-.8-1.3.3h-.7c-.4-.5-.7-.4-1.1 0s-.4.6-1.1.8a1.7 1.7 0 0 1-2.2-1c.6.2 1.6.6 2 0s.1-1 .2-1.4 1.2-.4 1.7-.4.7.5 1.2.3.4-.8.9-.7.7.8 1.2.4z" fill="#878485"/><path d="M109.4 11.1c0-.8-.5-.9-1-1.3a1.6 1.6 0 0 1-.7-1.6c.8-.1 1.6.8 2.3 1a2.2 2.2 0 0 0 1.3.1c.3-.1.7-.4 1-.3s1 .7 1 1-.8.4-.5.9a14.9 14.9 0 0 1-3.4.2z" fill="#1a1a1a"/><path d="M109.4 11.1c1.7.1 3.4-.2 5.1 0 .6 2.4 1.3 4.8 2.1 7.2-.5 0-.4.4-.5.7a3.3 3.3 0 0 1-.7-1.8c-.1-.5.1-1.2-.4-1.5 0-.5.1-1-.4-1.4a.3.3 0 0 0 0-.3c0-.5.1-1-.4-1.4s-1.6-1.3-2.6-1.2H108c.4-.4.9-.2 1.4-.3z" fill="#6e6e6e"/><path d="M96.2 12.3h.8a5.7 5.7 0 0 0-.4 2.6 29.4 29.4 0 0 1-.2 3.2l-.6 6.5H95l.5-5.1c.5-.3.3-1.5.3-1.9a17.8 17.8 0 0 1 .1-2.3c.4-.3.5-.5.1-.8v-.9c.4-.2.2-1 .2-1.3zm-5.4 3.9c.7.4.2 1.2.5 1.7s-.3 3.9-.5 5.8-.2 1.1.4 1.4 2.3 0 3 0c-1.5.6-2.9 1-4.2-.4v-1.3c.7-.5.4-2.4.5-3.2a37.1 37.1 0 0 0 .3-4z" fill="#272727"/><path d="M95.4 19.6l-.4 5.1h-.4c-.2-1.1.2-2.3 0-3.4s.3-3.4.4-5.1h.4l.3.4v2.1a.8.8 0 0 0-.3.9z" fill="#6e6e6e"/><path d="M71.2 46.4c-.1-.5-.9-.9 0-1.4s1.2.7 1.9.2l2.3-1.4v.7a7.2 7.2 0 0 1-4.2 1.9z" fill="#878485"/><path d="M80.5 40.7a2.4 2.4 0 0 1 2.6-1.4v.7s-.6.5-.9.7v.5q-.5.1-.5-.3z" fill="#272727"/><path d="M119.9 10.6c.8-.6 1.8-.2 2.6-.4s1.1-.1 1.2.4a3.6 3.6 0 0 1-1.2 2.2c-.1-.7.7-1.6.1-2.1s-2.1-.1-2.7-.1z" fill="#6e6e6e"/><path d="M89.7 39.1H89a2.6 2.6 0 0 0-.2-1.5l.4-.3c1.1.3 1.1 1 .5 1.8z" fill="#5a5a5a"/><path d="M84.3 41.9c.7-.2.9-1.8 1.8-.7v.9h-1.8z" fill="#272727"/><path d="M119.1 20.2a4.7 4.7 0 0 1 1.3-3.2 5.6 5.6 0 0 1-1.3 3.2z" fill="#6e6e6e"/><path d="M85.6 25.6l3.8-.2a3.9 3.9 0 0 1-3.8.2z" fill="#1a1a1a"/><path d="M86.8 41.2c.2-1.1.7-.8 1.3-.3v.8h-.7a.7.7 0 0 0-.6-.5z" fill="#272727"/><path d="M84.3 42h1.5c-.1.4-.2.8-.7.8s-.7-.3-.8-.8z" fill="#6e6e6e"/><path d="M86.8 41.2a.7.7 0 0 1 .7.5c-.4.6-.9.5-1.4.4v-.9z" fill="#5a5a5a"/><path d="M103.9 24.4h2a1.7 1.7 0 0 1-2 0z" fill="#1a1a1a"/><path d="M99.6 24.3a8.9 8.9 0 0 1 .1-2.2h.3c.1.5.4 2-.4 2.2zM76.7 43.8v-1.7c.5.1.4.6.7.9s.3.4.5.4a1.6 1.6 0 0 1-1.2.4z" fill="#878485"/><path d="M96.6 24.7h1.3a1.1 1.1 0 0 1-1.6.1z" fill="#272727"/><path d="M89.9 23.4v1.3l-.3.4-.2-.4v-1.3z" fill="#878485"/><path d="M88.1 41.7v-.8h.5c.6.7.3.9-.5.8zm32.4-24.6c0-.4 0-.7.4-.9s.1.8-.4.9z" fill="#6e6e6e"/><path d="M77.9 43.3c-.3 0-.5 0-.5-.4h.3l.3.2z" fill="#4d4d4d"/><path d="M79 42.7a1.5 1.5 0 0 1-1 .4l-.3-.2a1.5 1.5 0 0 1 .9-.5zm42.7-28.2c0-.4 0-.7.4-.9s.1.8-.4.9z" fill="#878485"/><path d="M122.1 13.7c0-.4 0-.7.4-.9s.1.7-.4.9z" fill="#878485"/><path d="M121.3 15.4c0-.4 0-.7.4-.9s.1.8-.4.9z" fill="#6e6e6e"/><path d="M120.9 16.2c0-.4 0-.7.4-.9s.1.8-.4.9z" fill="#6e6e6e"/><path d="M106.8 24.3h.4v.4z" fill="#1a1a1a"/><path d="M58.5 46.3c.9 0 3.3-.5 3.3.9a2.3 2.3 0 0 1-2.6.7c.3-.6 0-.9-.6-.7l-.2-.2z" fill="#272727"/><path d="M64.3 48.5a1.6 1.6 0 0 1 0 1.1c-1.5.2-1.5.2-1.6-1.1.7-.8.7-.8 1.6 0zm1.4-1.7c.2.3.8 1.2.6 1.5s-.6-.1-.9-.2-.4-1.1.3-1.3z" fill="#4d4d4d"/><path d="M61.9 50.6c-.1.2-.2.4-.4.3s-.7-1-.2-1 .5.5.6.7zm3.3-2.5c.1.9-.3.6-.8.4s.4-.6.8-.4z" fill="#5a5a5a"/><path d="M65.8 45.8a.9.9 0 0 1 .7.9h-.9z" fill="#454545"/><path d="M60.4 51.2c-.4.2-.7.1-.5-.4zm-1.6 1h-.4c.1-.2-.1-.5.3-.6z" fill="#6e6e6e"/><path d="M62.7 48.4l-.3-.2c.3-.3.2.1.3.2z" fill="#4d4d4d"/><path fill="#5a5a5a" d="M60.9 49.1l-.2.1.1-.2.1.1"/><path d="M61.4 51v.4c-.4-.1-.2-.3 0-.4zm-3.1-.2l-.1.1v-.2l.1.1" fill="#6e6e6e"/><path d="M69 45.1c.2.3.4 1.1.9 1.2l-.6.8h-.6c.2-.7-.4-1.2-.4-1.9a.8.8 0 0 1 .7-.1zm-2.4 1.6c.2.1 1.3 1 .6 1.2s-.6-.8-.6-1.1z" fill="#454545"/><path d="M48.3 63.4a1 1 0 0 1 2 0c.3 1-1.1 1.8-1.7.9s.5-.3 0-.5c0-.3 0-.4-.3-.4z" fill="#5a5a5a"/><path d="M55.9 59.1a.7.7 0 0 1-.7-.2s.5-.3.7.2z" fill="#4d4d4d"/><path d="M46.5 54.4c.6-.1.2-1 .9-.9s.9.6 1.3.9.9 2.9 2 2 .2.5.6.4a.8.8 0 0 1 0 .5 22 22 0 0 1-2.5 1.3c-.8.3-.8-.1-1.3-.6v-.4c1.7.5-.6-2.6-1-3.2z" fill="#6e6e6e"/><path d="M47.4 57.8v.4h-1.3c-.5-.5-.9-1.2-1.8-.8h-.6a4.9 4.9 0 0 1-.2-1.9c.3-.2.9.7.9-.2h1.2c.9.6 1.1 1.7 1.8 2.5z" fill="#5a5a5a"/><path d="M44.3 57.4c1.1-.4 2.7 1.5 2.5 2.5s-1 .6-1.4.2a9.3 9.3 0 0 1-1.1-2.7z" fill="#878485"/><path d="M42.3 63.3a1.1 1.1 0 0 1 1.6-.7c.3.5.6.9.2 1.5a.9.9 0 0 1-1.5.2c.9-.7.3-.8-.3-1zm3.9 2.9c-1-.3-1.9-1.8-.3-1.9s1.3 1.4.3 1.9z" fill="#5a5a5a"/><path d="M46.5 62.8c-1.1-.2-1.2-1.9 0-1.9s1.1 1.7 0 1.9z" fill="#6e6e6e"/><path d="M51.3 56.9c-.7 0-1-1.7-1.2-2.1h.7c.3.5 1 1.5.5 2.1zm-9 6.4c.5.1 1.1.2.3.9h-.4z" fill="#878485"/><path d="M49.9 60.4c-.7-.9 0-1.5.1-.1zm.5.7c.3 0 1.1 0 .9.4s-.9-.1-1-.3z" fill="#5a5a5a"/><path d="M50 60.3c.4.2.4.5.4.8h-.1c-.4-.2-.4-.5-.4-.9z" fill="#5a5a5a"/><path d="M52 59.6h-.1c-.2.1-.1-.4 0-.5z" fill="#4d4d4d"/><path d="M51.2 57.4v-.5c.5-.1.4.5 0 .5zm-2.9 6c.2 0 .3.2.4.4s-.4-.2-.4-.4z" fill="#878485"/><path d="M48.6 63.7c.5.2.4.3 0 .5z" fill="#878485"/><path d="M58.5 46.3v.7a5.2 5.2 0 0 0-5.1-.6c1.2-2 3.6-1.5 5.1-.1z" fill="#6e6e6e"/><path d="M56 47.1c1.8.4-.7 2.8-1.7 1.1s1.3-2.6 1.6-1.1c-1.2.3-.3 1.4.1 0zm-5.2 7.7h-.7a1.5 1.5 0 0 0-1.3-.4c-.4-.3-1.1-.3-1.3-.9h1.9c.4 0 .7.3.5-.5a2.8 2.8 0 0 1 1.7-.5c-.5 1.1-1.1 1.1-.8 2.3zm1.7-2.7c-.1.5-.4.6-.9.5s.6-.3.9-.5z" fill="#5a5a5a"/><path d="M49.1 50.1h.5c-.2.4-.4.5-.5 0z" fill="#0e0d0d"/><path d="M58.6 47.2c.7-.3.8 0 .6.6s-.5-.3-.6-.6z" fill="#878485"/><path d="M60.1 56.6h.5v.4z" fill="#6e6e6e"/><path d="M35.9 42.5A5.7 5.7 0 0 1 34 46c-.9.9-2.6 1.1-2.3-.7s.9-1.5 1.3-2.2a16 16 0 0 1 1.1-2.1c.4-.5 1-.9 1.6-.4s.2 1.4.2 1.9z" fill="#0e0d0d"/><path d="M76.7 33.6c-.2-.5.4-.9.4-1.3s1.1-2.2 2-2.5a1.4 1.4 0 0 1 1.8.9c.1.5-1.2 1.6-.7 1.9s1.8-1.3 2.1-1.6h.7c-.5 1.2-1.2 3.1-2.8 3.1s-1.2-.6-1.9-.7-1 .4-1.6.2zm2.7-1.6c.2-.3 1.1-1.5.2-1s-.9 1.8-.2 1.1z" fill="#ededed"/><path d="M86.1 36.1h.4l.2.6c-.1.9-.7.4-1.2.6s-.6 1.2-1.6.9l-.5-.9c.3-.7 1.8.1 1.5-1.3z" fill="#878485"/><path d="M78.7 42.4a1.5 1.5 0 0 0-.9.5h-.3c-.3-.2-.2-.8-.7-.9v-1.4l.7-.3c.3.7 1 1.2 1.2 2.1z" fill="#5a5a5a"/><path d="M76.7 40.6v1.5h-1.5l-.2-.7z" fill="#878485"/><path d="M83.4 37.3l.5.9c0 .4-.4.5-.6.7l-.7-1.5zm-.2-.9l.1-.1v.1h-.1m-2.3-4.2c-.1.2-.8.9-.9.2s.5-.8.7-1z" fill="#6e6e6e"/><path d="M53.8 22.5c.7.6.4 1.4.3 2.2s-.2-1.5-.3-2.2z" fill="#dd1718"/><path d="M60.2 18c.1 2.1 5.4.8 5.1 3.3a28.9 28.9 0 0 0-4.5-1.7c-.8-.3-1.6-.5-1-1.6zm5 3.3c1.2 1.3 1.2 1.6 0 3.6z" fill="#6e6e6e"/><path d="M45.9 22.4a8.4 8.4 0 0 0 2.1 1.1 23.7 23.7 0 0 1 2.5.6c.6 1-.7 1.1-1.4 1.1a7.9 7.9 0 0 1-2.6-.6c-1.4-.4-2 1.1-2.8 2a2.8 2.8 0 0 1 0-1 5.3 5.3 0 0 0 1.3-3.7z" fill="#272727"/><path d="M54.2 36.2c0-.3 0-.6.4-.4s0 .5-.4.4z" fill="#ededed"/><path d="M53.8 36.6v-.5h.5c0 .4-.1.6-.5.5z" fill="#ededed"/><path d="M75.2 43.3q-.2-.1 0-.3t0 .3z" fill="#878485"/><path d="M71.2 16.2c.1.4-.2.9.3 1.1s.1 4.1-.8 5.6h-.3a14.3 14.3 0 0 1-.1-1.6 4.8 4.8 0 0 0 .4-2.9c.1-.4 0-1.8.5-2.2z" fill="#6e6e6e"/><path d="M70.5 23h.3c0 .9.5 3.5-.8 3.7a4.3 4.3 0 0 0 0-1c.7-.8.1-1.8.5-2.7z" fill="#878485"/><path d="M71.6 10.3h.4c-.1.8.3 1.8-.4 2.5s0-1.9 0-2.5z" fill="#6e6e6e"/><path d="M72.5 18.2a21.5 21.5 0 0 0 .8-5.4h1c.2 0 .4-.3.7-.2s.5.5.8.7-.2 1.7.4 2.4 1.1.1 1.8-.3a6 6 0 0 1 2.5-.8c.7-.1 2.1.4 2.5-.1l.8.3.8.8c.2 1.6-.3 3.6.5 5v.9c-.4.2-.4.5-.4.9-.5.2-.5.6-.5 1.1L82.7 25c-1 0-2 .6-3 .8a4.8 4.8 0 0 1-3.4-.4c-.3-.2-.9-.9-1.3-.7s-.2.7-.3 1-1.6.6-2.5.7-.1-2.8 0-3.6.3-3.2.3-4.6zm2.9 1.4c-.5.8-.8 2.5.7 2.6a1.3 1.3 0 0 0 1.3 1.1c.3.9.7 1 1.7.8a3.8 3.8 0 0 0 2.2-1.4 5.6 5.6 0 0 0 .6-5.1 2.4 2.4 0 0 0-2.9-1.3 4.5 4.5 0 0 0-2.2.8 12.4 12.4 0 0 0-1.3 2.5z" fill="#fb212f"/><path d="M70.8 13.3h.4c-.1.2-.3.3-.4 0z" fill="#454545"/><path d="M71.2 12.6v-2.4h.4v2.1zm-1.3 13.1a.7.7 0 0 1 0 .4c-.9-.3-1.7.4-2.6.4a39 39 0 0 1 .7-8.8c.1-.6 0-1.7.5-2.1s1.9-.2 2.6-.2v.9c-.5.4-.3.8-.4 1.3s-.5.9-.5 1.5a23 23 0 0 0 .1 3.1c-.9 1-.2 2.3-.4 3.5z" fill="#fb212f"/><path d="M43.6 25.5c-.1-.8.6-1.6.5-2.4s.3-1.8.4-2.7h.2c.2 1.9.2 3.6-1.1 5.1z" fill="#878485"/><path d="M44.5 20.4c-.1.9.3 1.9-.4 2.7v-2.8z" fill="#dd1718"/><path d="M90.3 13.6v.9c-.2.5 0 1.1-.3 1.6s-.8 1.1-.8 2a9.8 9.8 0 0 0 .3 1.9 6.6 6.6 0 0 1-.2 2.1c-.9.7-.3 1.7-.5 2.5s-2.1.4-2.5-.4.3-3 .4-3.9.2-2.1.3-3.1a9.5 9.5 0 0 1 .2-2.4c.2-.4.2-.5.7-.7s1.7-.2 2.4-.5z" fill="#fb212f"/><path d="M85.7 23.1c-.1-.5.1-1.1-.4-1.4v-.4c.8-.4.4-1.1.5-1.7h.2c-.1 1.1.2 2.3-.3 3.5zm3.3 1.6c.1-.8-.5-1.8.5-2.5a14.9 14.9 0 0 1-.1 2.5z" fill="#dd1718"/><path d="M94.1 24.3a5.6 5.6 0 0 0-2.5.4c-.3-2.6.3-5.4.5-8s.2-2.5.4-3.8 0-3.3.7-4 1.7.6 2.2 1.4a10.7 10.7 0 0 1 0 1.7 8.9 8.9 0 0 1-.4 1.2c-.3 1 .1 2 0 3-1.3.4-.1 4.5-.5 5.5s-.2 1.7-.4 2.6z" fill="#fb212f"/><path d="M100.6 12.8v-.4h.6v3h-.2c-.3-.9.2-1.8-.4-2.6z" fill="#5a5a5a"/><path d="M101 12.3a11.3 11.3 0 0 1-3.2-.1 3.3 3.3 0 0 1 3.2.1z" fill="#878485"/><path d="M89.5 23.4a65.2 65.2 0 0 1 .5-7.2c.4-.5.1-1.2.4-1.8h.3a26.9 26.9 0 0 1-.2 4.7c-.1.7-.2 1.5-.2 2.2s.2 1.6-.4 2zm1.2-9.3v-1.3c.6.4.5.8 0 1.3z" fill="#6e6e6e"/><path d="M87.8 10.3c-.1-1.1.3-1.2 1.3-1.2s1.3-.2 1.6.5-3.1 2.9-2.9.7z" fill="#fb212f"/><path d="M76 15.2c-.4-.7-.1-1.8-.2-2.5s-.2-1.5.5-2.1v2.5c-.1.4.1 1.9-.3 2.1zm19.4-4.9V8.6c.8 1 .1 2.3.4 3.4h-.4z" fill="#dd1718"/><path d="M95.4 12h.4l.3.4v.9h-.3a2.4 2.4 0 0 1-.4-.9.8.8 0 0 0 0-.4z" fill="#6e6e6e"/><path d="M100.5 10.5V8.1a1.6 1.6 0 0 1 0 2.4zm2.7 5.3c.6-1-1-1.3-1-2.1s1.1-1 1.4-1.5 0-1.5.5-2.1 1.7-.3 2.3-.2-.4 1.5.4 2.1 1.7.4 2.6 0v.8c-.6.3-.4.8-.4 1.2s-2.2-.4-2.6 1.4-.3 2.6-.3 3.2-.5 2.5.7 2.6 1.2.3 1.8.1V23c-2 .5-3.6 1.3-5.5 0a7.3 7.3 0 0 1-.4-1.6 14.4 14.4 0 0 1 .3-1.7c.1-1.3 0-2.6.2-3.9z" fill="#fb212f"/><path d="M109.8 11.9c.2.4.6.6.5 1.1s-.1 1.2-.8 1.5a8.8 8.8 0 0 1 0-2.6z" fill="#6e6e6e"/><path d="M106.9 11.9c-.8-.5-.4-2.1-.4-2.9.8.9 0 2 .4 2.9z" fill="#dd1718"/><path d="M85.6 19.6c-.1.6.3 1.3-.5 1.7-.1-1.4 0-2.8.1-4.3h.3z" fill="#878485"/><path d="M85.3 17v3.4c-.8-1.3-.2-2.8-.4-4.2h.3z" fill="#dd1718"/><path d="M69.9 46.3c-.4-.1-.4-.6-.6-.9s.6.5.6.9z" fill="#878485"/><path d="M24.9 21.7c-1 .8-2.2.2-3.3.4a18.1 18.1 0 0 1 .4-4.5h.5c0 .7-.1 1.3-.2 2s-.3 1.1-.1 1.6 1.9.4 2.7.5z" fill="#6e6e6e"/><path d="M21.5 19.6v2.5a.8.8 0 0 0 .1.4c-.7-.9-.7-1.6-.1-2.9z" fill="#dd1718"/><path d="M43.6 54.8l-.3.5c-.2-.4-.1-.5.3-.5z" fill="#5a5a5a"/><path d="M37.6 25.9c-.5 1.1-2.4.1-2.6-.7h.2a4.2 4.2 0 0 0 2.4.7zm-3.4-3.3l.4-.4h.1a5.3 5.3 0 0 0 .4 2.9H35l-.7-.5z" fill="#878485"/><path d="M34.2 22.6v2.1a1.3 1.3 0 0 1 0-2.1z" fill="#dd1718"/><path d="M34.6 22.1a.9.9 0 0 1 .4-1 .9.9 0 0 1-.4 1z" fill="#878485"/><path d="M86.7 36.7l-.2-.6c.7-.7 1.3-.6 1.8.2l-.3.3a1.5 1.5 0 0 0-1.3.1zm1.6-.3a1.2 1.2 0 0 1 .9.9l-.4.3-.8-.9z" fill="#5a5a5a"/><path d="M114.9 15.8c.5.3.4.8.4 1.3s-.4-.9-.4-1.3zm-.4-1.4c.5.4.4.9.4 1.4s-.4-.9-.4-1.4zm-.4-1.7c.5.4.4.9.4 1.4s-.4-.9-.4-1.4z" fill="#dd1718"/><path d="M106.8 21.2c-1.5 0-.7-3.8-.6-4.7s.2-1.1.3-1.6h.4a30.8 30.8 0 0 1-.4 3.1 3.2 3.2 0 0 0 .4 2.6zm1.7.1a.6.6 0 0 1 .5-.4c-.2.8.4 1.8-.5 2.5s0-1.4 0-2.1z" fill="#6e6e6e"/><path d="M67.8 26.9a2.2 2.2 0 0 1 1.2-.1.7.7 0 0 1-1.2.1z" fill="#272727"/><path d="M84.3 23.2c0-.4 0-.8.5-1.1a1 1 0 0 1-.5 1.1z" fill="#878485"/><path d="M85.2 21.3c.1.3 0 .9-.4.9s-.1-.8.4-.9z" fill="#878485"/><path d="M117.4 15.3a11.8 11.8 0 0 1-1 2.5 14.4 14.4 0 0 1-1.1-3.7 2.8 2.8 0 0 1 2.1 1.2zm.8-1.7a2.5 2.5 0 0 1-.6 1.3c-.1-.5-.4-1.2.6-1.3z" fill="#272727"/><path d="M100.6 12.8c.8 1 .3 3.4.2 4.6s-.2 1.7-.3 2.5.2 1.8-.4 2.2h-.3c0-.8-.1-1.6 0-2.4s.4-2.2.4-3.3a10.8 10.8 0 0 1 .3-1.7c0-.5-.2-1.4.1-1.9z" fill="#6e6e6e"/><path d="M88 36.7a2.7 2.7 0 0 1 1 2.4c-.5.4-.8-.3-1.2-.4s-.4.5-.9.7-.8-.3-1.2-.3-1 .7-1.7.4l-.8.2c0-.8.8-.9.8-1.5s.9-.6 1.6-.9 1.1.3 1.2-.6a1.5 1.5 0 0 1 1.2 0z" fill="#1a1a1a"/><path d="M80.5 40.8v.8c-.4-.1-2 .3-1.6-.8s1.1 0 1.6 0z" fill="#5a5a5a"/><path d="M83.1 39.8l.8-.2c-.2.7.2 2-1.3 1.7l-.5-.6.3-.3a.6.6 0 0 0 .7-.6z" fill="#454545"/><path d="M82.2 40.7l.5.6h-.5z" fill="#6e6e6e"/><path d="M95.6 12.8l.3.5a.5.5 0 0 0 .1.4c-.1 1-.1 2-.3 2.9l-.3-.4a17.1 17.1 0 0 1 .2-3.4z" fill="#878485"/><path d="M95.8 15.3v-.8c.5.3.5.6 0 .8zm-.4 4.3a.8.8 0 0 1 .3-.9c.1.3.1.7-.3.9zm.6-6a.5.5 0 0 1-.1-.4h.3a.4.4 0 0 1-.2.4z" fill="#343434"/><path d="M100.5 13.2c.2 1.5-.7 2.6-.9 3.9a30.9 30.9 0 0 0 .1 3.3c-1 1-.2 2.3-.5 3.4l-2.5.4a28.5 28.5 0 0 1 .2-4.8c.2-1.5.1-3.1.4-4.5s1.5-1.7 3.2-1.7z" fill="#fb212f"/><path d="M94.6 21.4c0-.9-.6-4.8.4-5.1-.1 1.6.3 3.4-.4 5.1zm1-8.6a17.1 17.1 0 0 0-.2 3.4H95c.1-1.3-.5-2.7.4-3.9zm-1.5 11.5c.1-.8-.4-1.8.4-2.5v2.5z" fill="#dd1718"/><path d="M83.1 39.9c0 .3-.3.4-.6.4a.7.7 0 0 1 .6-.4z" fill="#6e6e6e"/><path d="M99.2 23.8c.2-1.1-.5-2.4.5-3.4a29 29 0 0 1-.1 3.4z" fill="#dd1718"/><path d="M48.7 54.4c1.4-.1 1.6.9 2 2-1.1.9-1.9-1-2-2z" fill="#343434"/><path d="M56 47.1c-.4 1.3-1.4.3 0 0zm23.5-15.8c.1-.2.2-.6.5-.4s-.1.5-.2.6zm.3.3l-.4.5-.3-.3.4-.5z" fill="#878485"/><path d="M79.4 32.1c-.3.3-.6.1-.3-.3z" fill="#878485"/><path d="M70.4 21.4c.1-1.2-.6-2.4.4-3.5-.1 1.2.3 2.4-.4 3.5zm-.5 4.3c.2-1.2-.6-2.5.4-3.6v.9c-.2.9.4 1.9-.4 2.7z" fill="#dd1718"/><path d="M76.2 22.2h-.3a11 11 0 0 1-.4-1.9 3.7 3.7 0 0 1 .8-2c.4 1.2-.3 2.5.2 3.8z" fill="#6e6e6e"/><path d="M79.6 22.6c-.5.8-1.6.1-2.2.8a1.3 1.3 0 0 1-1.3-1.1l.3-.2c1 .8 2.2.4 3.2.5z" fill="#5a5a5a"/><path d="M75.5 19.6a7.1 7.1 0 0 0 .4 2.6c-1.1-1-1.2-1.4-.4-2.6zM90 16.2l-.3 4.2c-.3-1.4-.8-2.8.3-4.2zm19.4-2.2h-.4c0-.4-.2-1 .4-1.2z" fill="#dd1718"/><path d="M24.9 21.7c-.8-.1-2.3.6-2.7-.4s0-1 .1-1.4.1-1.5.2-2.2 3.8-.8 4.5.7-.7 2.8-2.1 3.3zm9.8.5c.3-.2.4-.5.4-.8s2.8-2.2 4.8-1 1.1 2.9.1 4.1-3.1 1.6-4.8.6a5.3 5.3 0 0 1-.5-2.9z" fill="#1a1a1a"/><path d="M99.7 19.7c.1-1.3-.5-2.7.4-4-.2 1.4.3 2.8-.4 4z" fill="#dd1718"/><path d="M76.3 18.6a8.2 8.2 0 0 1 1.8-1.8c1.4-.1 2.8.1 3.2 1.6a4 4 0 0 1-1.7 4.2c-.9 0-2.2.4-3-.4s-.3-2.6-.3-3.6z" fill="#1a1a1a"/><g fill="#e61d2a"><path d="M104.5 37.4c-.9-.5-2.1-.4-4 .4s-2.6 1.1-3.6.6a1.6 1.6 0 0 1-.6-1.4 7.6 7.6 0 0 1 1.4-3.7 4.3 4.3 0 0 1 1.6-1.6c.5-.2.5.2.5.3h-.3a.7.7 0 0 0-.2.5c0 .4.4.2.5 0a1.1 1.1 0 0 0 .1-1.1l-.5-.2a3.2 3.2 0 0 0-1.7.8 7.8 7.8 0 0 0-2.3 3.6 3.5 3.5 0 0 0 .2 2.8 1.8 1.8 0 0 0 1.9.7l1.7-.6c.4-.2 2.7-1.3 3.7.1a1.1 1.1 0 0 1 .8-.6 3 3 0 0 1 1.9.3 4.8 4.8 0 0 0-1.3-.8z"/><path d="M100.2 33.1c-.5-.2-1.3.4-1.9 1.5s-.7 2-.3 2.4 1.3-.4 1.6-.9a5.3 5.3 0 0 0 .5-1v-.3h.4a3.4 3.4 0 0 0-.3 1.4c0 .1.1.6.6.7s1.1-.5 1.5-1h.1c-.1.7.2.8.3.8s1-.7 1-.7 0 .4.2.5a.7.7 0 0 0 .6-.2 6.6 6.6 0 0 0 1.3-1.9h-.3a4.6 4.6 0 0 1-.9 1.2h-.1c-.1 0 0-.1 0-.2l1.2-2.9h-.8c-.5-.6-1.5.5-2.1 1.7a7.5 7.5 0 0 1-.9 1.4s-.5.6-.8.3a.8.8 0 0 1-.1-.6 4.7 4.7 0 0 1 1.1-2.2l.4-.2a.2.2 0 0 1 .1.2l-.3.2a.5.5 0 0 0-.1.5c.3.3.7-.5.7-.9a.5.5 0 0 0-.3-.4.8.8 0 0 0-.7.1 3 3 0 0 0-.8.8c-.3.4-.7.8-.9.8s.4-1.1-.1-1.4zm3.7.9l.6-.9c.3-.3.5-.2.5-.1l-.8 1.9v.2a1.7 1.7 0 0 1-.5.7h-.2a3.8 3.8 0 0 1 .5-1.8zm-4 .8l-.3.6a2.5 2.5 0 0 1-.6.8h-.3c-.2-.1-.1-.4-.1-.6a5.4 5.4 0 0 1 .5-1.3 1.1 1.1 0 0 0 .7.4zm.2-.7v.3h-.2a.6.6 0 0 1-.4-.3.7.7 0 0 1 .2-.7h.4v.3a1.5 1.5 0 0 1 0 .5zm9.6-.1a.4.4 0 0 0-.5-.2 1.9 1.9 0 0 0-1.3 1.4 3.5 3.5 0 0 0-.2 1.2 3.1 3.1 0 0 1 .9-.9 2 2 0 0 1 .2-.9c.1-.2.3-.5.5-.4s.2.7 0 1.3a4.1 4.1 0 0 1-.7 1.3c-.3.3-.7.6-1.1.5a.8.8 0 0 1-.4-.8 6.8 6.8 0 0 1 .9-3.2 7.9 7.9 0 0 1 2.3-2.8h.6a4 4 0 0 0-1.3 1.8 1 1 0 0 0 0 .9.4.4 0 0 0 .4.1 2.3 2.3 0 0 0 1.1-1.4 2.8 2.8 0 0 0 .2-1.2v-.2c.3-.2.9 0 .9 0s1.5.7 1.9.8l.5-.7h-.2l-1.1-.5a2.1 2.1 0 0 0-1.8.1h-.2a1 1 0 0 0-1-.1 6.6 6.6 0 0 0-2.9 2.7 8.7 8.7 0 0 0-1.2 3 2 2 0 0 0 .5 1.9 1.2 1.2 0 0 0 1.4 0 4.3 4.3 0 0 0 1.7-2.6 1.6 1.6 0 0 0-.1-1.1zm1.5-3.5a2.6 2.6 0 0 1-1.1 2.3c-.1 0-.4 0-.2-.6a3.6 3.6 0 0 1 1.3-1.8zm5.9-.5a2.9 2.9 0 0 1-1.7.6l-.5.7a2.9 2.9 0 0 0 2.4-1.1 4 4 0 0 0 .8-1.3 4.7 4.7 0 0 1-1 1zm-9.9 2.3l-.7.1-.4.7.7-.1.4-.7"/><path d="M116.1 36.1c-.1.1-.2 0-.2-.1a6.2 6.2 0 0 1 .4-1l.9-2.1h-.7v.2l-.2-.2a.7.7 0 0 0-.6.1 6.4 6.4 0 0 0-1.6 2.4s-.4.9-.7 1-.2-.2-.2-.3a5.5 5.5 0 0 1 .3-1.4l1.1-1.2a12.5 12.5 0 0 0 1.5-2.2h-.3a12.2 12.2 0 0 1-2.2 2.8 16.3 16.3 0 0 1 2-3.9V30a2 2 0 0 1 .6-.6h.1a.9.9 0 0 1-.1.5v.2h.3a1.2 1.2 0 0 0 .1-.8l-.2-.2a1.4 1.4 0 0 0-.9.5 13 13 0 0 0-3 5.2h-.4a3.5 3.5 0 0 0 .2-.8 2.1 2.1 0 0 0 0-.3.5.5 0 0 0-.3-.5.7.7 0 0 0-.6.1 4.1 4.1 0 0 0-1.5 1.9 3.6 3.6 0 0 0-.3 1.3c0 .4.1.6.3.7a.7.7 0 0 0 .6-.1 4.6 4.6 0 0 0 1.4-2.1h.4v.3c-.2.8-.2 1.3.1 1.6s.9-.1 1.3-.8.4.8.6.7a2.2 2.2 0 0 0 .8-.7c0 .2 0 .6.3.6a.8.8 0 0 0 .5-.2 5.9 5.9 0 0 0 1.3-2h-.2a3.9 3.9 0 0 1-.9 1.3zm-5.5.6v-.2a3.5 3.5 0 0 1 .6-1.7 1.2 1.2 0 0 0 .7.5c-.2.5-.8 1.7-1.2 1.4zm1.3-1.6a.6.6 0 0 1-.5-.4.6.6 0 0 1 .3-.7h.3a.3.3 0 0 1 .1.3 1.7 1.7 0 0 1 0 .2 2.9 2.9 0 0 1-.2.7zm3.2.9h-.1c-.1.1-.2.2-.3.2h-.1a1.7 1.7 0 0 1 .1-.8 6 6 0 0 1 1.1-1.8h.4l-.4.8a10.9 10.9 0 0 1-.8 1.6z"/></g></g></svg>