<svg xmlns="http://www.w3.org/2000/svg" width="61.96" height="61.96" viewBox="0 0 61.96 61.96"><title>collaboration</title><g id="Layer_2" data-name="Layer 2"><g id="Layer_1-2" data-name="Layer 1"><path d="M31,13a9,9,0,0,0-5,16.46V33H36V29.46A9,9,0,0,0,31,13Zm0,11a2,2,0,1,1,2-2A2,2,0,0,1,31,24Z" style="fill:#f9ba48"/><path d="M14,18a7,7,0,0,0-4.52-6.54,6,6,0,1,0-4.94,0A7,7,0,0,0,0,18v3H14ZM3,6a4,4,0,1,1,4,4A4,4,0,0,1,3,6Zm9,13H2V18a5,5,0,1,1,10,0Z" style="fill:#333"/><path d="M33.45,52.42a6,6,0,1,0-4.94,0A7,7,0,0,0,24,59v3H38V59A7,7,0,0,0,33.45,52.42ZM27,47a4,4,0,1,1,4,4A4,4,0,0,1,27,47Zm9,13H26V59a5,5,0,0,1,10,0Z" style="fill:#333"/><path d="M57.44,11.45a6,6,0,1,0-4.94,0A7,7,0,0,0,48,18v3H62V18A7,7,0,0,0,57.44,11.45ZM51,6a4,4,0,1,1,4,4A4,4,0,0,1,51,6Zm9,13H50V18a5,5,0,1,1,10,0Z" style="fill:#333"/><rect x="34.17" y="33.98" width="26.61" height="2" transform="translate(-8.17 54.48) rotate(-55.7)" style="fill:#333"/><rect x="13.49" y="21.67" width="2" height="26.61" transform="translate(-17.19 14.24) rotate(-34.29)" style="fill:#333"/><rect x="16.79" y="2" width="28.38" height="2" style="fill:#333"/><path d="M35.48,31H32V24.8a3,3,0,1,0-2,0V31h-3.5a2.49,2.49,0,0,0-1.33,4.61A2.48,2.48,0,0,0,27.48,39h7a2.48,2.48,0,0,0,2.33-3.39A2.49,2.49,0,0,0,35.48,31ZM31,21a1,1,0,1,1-1,1A1,1,0,0,1,31,21Zm-4.5,12h9a.5.5,0,0,1,0,1h-9a.5.5,0,0,1,0-1Zm8,4h-7a.5.5,0,1,1,0-1h7a.5.5,0,0,1,0,1Z" style="fill:#333"/><rect x="29.98" y="7" width="2" height="4" style="fill:#333"/><rect x="23.48" y="8.74" width="2" height="4" transform="translate(-2.09 13.68) rotate(-29.99)" style="fill:#333"/><rect x="18.73" y="13.49" width="2" height="4" transform="translate(-3.55 24.83) rotate(-60.01)" style="fill:#333"/><rect x="15.99" y="20.99" width="4" height="2" style="fill:#333"/><rect x="17.73" y="27.48" width="4" height="2" transform="translate(-11.6 13.68) rotate(-29.99)" style="fill:#333"/><rect x="41.23" y="26.48" width="2" height="4" transform="translate(-3.55 50.82) rotate(-60.01)" style="fill:#333"/><rect x="41.97" y="20.99" width="4" height="2" style="fill:#333"/><rect x="40.23" y="14.49" width="4" height="2" transform="translate(-2.09 23.19) rotate(-29.99)" style="fill:#333"/><rect x="35.48" y="9.73" width="4" height="2" transform="translate(9.44 37.82) rotate(-60)" style="fill:#333"/></g></g></svg>