<svg xmlns="http://www.w3.org/2000/svg" width="157.3" height="50.12" viewBox="0 0 157.3 50.12"><defs><style>.cls-1,.cls-2,.cls-3,.cls-4,.cls-5,.cls-6,.cls-7{stroke:#000;stroke-miterlimit:10;}.cls-1,.cls-2,.cls-7{stroke-width:0.36px;}.cls-2{fill:#006837;}.cls-3,.cls-4,.cls-5,.cls-6,.cls-7{fill:none;}.cls-3{stroke-width:1.65px;}.cls-4{stroke-width:1.1px;}.cls-5{stroke-width:1.28px;}.cls-6{stroke-width:1.32px;}.cls-8{font-size:3.63px;font-family:MyriadPro-Regular, Myriad Pro;}</style></defs><title>Estadologo2</title><g id="Layer_2" data-name="Layer 2"><g id="Layer_1-2" data-name="Layer 1"><path class="cls-1" d="M45.82,28.15h4.26v1.5H44V20.29H50v1.5H45.82v2.41h3.64v1.5H45.82Z"/><path class="cls-1" d="M57.56,21.53l-1.25,1a2,2,0,0,0-1.79-.84,1.4,1.4,0,0,0-1,.32,1.08,1.08,0,0,0-.35.84q0,.81,1,1.11l1.19.36a3.71,3.71,0,0,1,1.75,1,2.38,2.38,0,0,1,.53,1.57,2.57,2.57,0,0,1-.93,2.1,3.7,3.7,0,0,1-2.43.77,3.45,3.45,0,0,1-3.35-1.72l1.25-1a2.07,2.07,0,0,0,2.1,1.19,1.68,1.68,0,0,0,1.09-.32,1.05,1.05,0,0,0,.39-.86q0-.8-1.05-1.13l-1.17-.37q-2.22-.69-2.22-2.59a2.78,2.78,0,0,1,.8-2,3.23,3.23,0,0,1,2.42-.82A3.42,3.42,0,0,1,57.56,21.53Z"/><path class="cls-1" d="M58.52,20.29h6.83v1.5H62.84v7.87H61V21.78H58.52Z"/><path class="cls-1" d="M72.39,29.65l-.66-2.12H68.31l-.66,2.12H65.7L69,20.29h2.09l3.28,9.36ZM70,22.16,68.77,26h2.5Z"/><path class="cls-1" d="M75.25,29.65V20.29h2.95a4.78,4.78,0,0,1,3.51,1.12A4.89,4.89,0,0,1,82.82,25a4.89,4.89,0,0,1-1.11,3.55,4.76,4.76,0,0,1-3.51,1.13Zm1.83-1.5h1a2.91,2.91,0,0,0,2.23-.69A3.77,3.77,0,0,0,80.94,25a3.75,3.75,0,0,0-.63-2.47,2.87,2.87,0,0,0-2.22-.71h-1Z"/><path class="cls-1" d="M91.92,25a5.74,5.74,0,0,1-1,3.5,4.19,4.19,0,0,1-6.07,0,5.79,5.79,0,0,1-1-3.51,5.85,5.85,0,0,1,1-3.53,3.53,3.53,0,0,1,3-1.3,4.44,4.44,0,0,1,1.86.36,3,3,0,0,1,1.25,1,4.75,4.75,0,0,1,.67,1.52A7.86,7.86,0,0,1,91.92,25Zm-6.11,0a5.14,5.14,0,0,0,.46,2.42,2,2,0,0,0,3.3,0A5,5,0,0,0,90,25a5.1,5.1,0,0,0-.47-2.43,2,2,0,0,0-3.27,0A5,5,0,0,0,85.81,25Z"/><path class="cls-1" d="M95.24,29.67V20.31h2.95a4.78,4.78,0,0,1,3.51,1.12A4.89,4.89,0,0,1,102.81,25a4.89,4.89,0,0,1-1.11,3.55,4.76,4.76,0,0,1-3.51,1.13Zm1.83-1.5h1a2.91,2.91,0,0,0,2.23-.69,3.77,3.77,0,0,0,.62-2.49,3.75,3.75,0,0,0-.63-2.47,2.87,2.87,0,0,0-2.22-.71h-1Z"/><path class="cls-1" d="M106.12,28.18h4.26v1.5h-6.09V20.31h6.05v1.5h-4.22v2.41h3.64v1.5h-3.64Z"/><path class="cls-1" d="M113.67,28.18h3.71v1.5h-5.54V20.31h1.83Z"/><path class="cls-1" d="M126.92,29.67l-.66-2.12h-3.43l-.66,2.12h-1.94l3.27-9.36h2.09l3.28,9.36Zm-2.37-7.49-1.25,3.88h2.5Z"/><path class="cls-1" d="M129.77,29.67V20.31h3.54a3.82,3.82,0,0,1,2.51.73,2.5,2.5,0,0,1,.87,2,2.58,2.58,0,0,1-.56,1.68,2.9,2.9,0,0,1-1.61,1l2.35,4h-2l-2.14-3.81H131.6v3.81Zm5-6.61a1.16,1.16,0,0,0-.38-.94,2.07,2.07,0,0,0-1.31-.32H131.6v2.56h1.52a2.06,2.06,0,0,0,1.32-.32A1.22,1.22,0,0,0,134.81,23.07Z"/><path class="cls-1" d="M137.57,20.31h6.83v1.5h-2.51v7.87h-1.83V21.81h-2.49Z"/><path class="cls-1" d="M147.52,28.18h4.26v1.5H145.7V20.31h6.05v1.5h-4.22v2.41h3.64v1.5h-3.64Z"/><path class="cls-2" d="M36.22,6.09s-1.69,1.74,1,2.15S36.22,6.09,36.22,6.09Z"/><path class="cls-3" d="M31.4,14.91c-.2-1.71-1.4-4.56-3.53-4.77a1.67,1.67,0,0,0-.33,0c-3.54.35-6.27,3.17-8.64,5.56a107,107,0,0,0-8.81,10.83c-3,4-5.93,8-8.53,12.21,5.85-.49,11.74-1.19,17-4a21.94,21.94,0,0,0,7.16-6.06C29,24.76,32,20,31.4,14.91Zm-4.07-4.3S32,1.23,37.12,4.71s4,7.68,4,7.68a4.84,4.84,0,0,0-1.85-1.74c-1.33-.62-2.37.52-2.83,1.65,1.1,1.44,2.47,3.06,2.76,4.89a10.34,10.34,0,0,1-1.42,6.25,35.54,35.54,0,0,1-5.82,7.94c-.93,1-2.66,2.81-3.66,3.75-.69.65-2.21,1.23-2.46,2.17l-1.31,4.9-4.85.33-.09-5.13"/><polyline class="cls-4" points="4.7 33.79 4.7 0.55 37.74 0.55 37.74 4.76"/><polyline class="cls-4" points="4.61 38.77 4.61 46.11 37.74 46.11 37.74 23.72"/><polyline class="cls-4" points="24.71 42.27 26.98 41.66 28.21 34.99"/><path class="cls-4" d="M25.07,29.14v.63c-1.89,6.84-11.79,11.9-17.49,14.64l-2.14,1,3.11-5.72,1-2.05"/><line class="cls-5" x1="22.19" y1="42.99" x2="22.78" y2="46.05"/><line class="cls-6" x1="24.8" y1="42.35" x2="25.59" y2="46.11"/><path d="M40.62,46.21a4.29,4.29,0,0,1,.8-.07,1.32,1.32,0,0,1,.93.26.8.8,0,0,1,.25.61.85.85,0,0,1-.61.82h0a.8.8,0,0,1,.47.65,5.11,5.11,0,0,0,.25.88h-.43a4.17,4.17,0,0,1-.22-.77c-.1-.44-.27-.61-.65-.63H41v1.4h-.42ZM41,47.68h.43c.44,0,.73-.24.73-.61s-.3-.6-.74-.6a1.73,1.73,0,0,0-.41,0Z"/><circle class="cls-7" cx="41.62" cy="47.58" r="2.36"/><text class="cls-8" transform="translate(154.29 21.4)">R</text><circle class="cls-7" cx="155.33" cy="20.03" r="1.79"/></g></g></svg>