<svg xmlns="http://www.w3.org/2000/svg" viewBox="0 0 71.94 103.11"><title>Estadologo</title><g id="Layer_2" data-name="Layer 2"><g id="Layer_1-2" data-name="Layer 1"><path d="M8.27,89.11h5.48V91H5.92V79.38h7.77v1.85H8.27v3h4.68v1.85H8.27Z" style="stroke:#000;stroke-miterlimit:10;stroke-width:0.0668757263953516px"/><path d="M23.34,80.92l-1.6,1.25a2.6,2.6,0,0,0-2.29-1,1.84,1.84,0,0,0-1.25.4,1.32,1.32,0,0,0-.45,1q0,1,1.26,1.37l1.53.45a4.79,4.79,0,0,1,2.24,1.27,2.87,2.87,0,0,1,.68,1.95,3.13,3.13,0,0,1-1.2,2.59,4.87,4.87,0,0,1-3.12,1q-3.13,0-4.3-2.12l1.6-1.27a3,3,0,0,0,1,1.09,3.16,3.16,0,0,0,1.72.39,2.22,2.22,0,0,0,1.4-.39,1.28,1.28,0,0,0,.5-1.06q0-1-1.35-1.4l-1.51-.45q-2.85-.85-2.85-3.2a3.37,3.37,0,0,1,1-2.5,4.25,4.25,0,0,1,3.1-1A4.46,4.46,0,0,1,23.34,80.92Z" style="stroke:#000;stroke-miterlimit:10;stroke-width:0.0668757263953516px"/><path d="M24.57,79.38h8.76v1.85H30.12V91H27.77V81.23h-3.2Z" style="stroke:#000;stroke-miterlimit:10;stroke-width:0.0668757263953516px"/><path d="M42.38,91l-.84-2.62h-4.4L36.28,91H33.8L38,79.38h2.68L44.89,91Zm-3-9.27-1.6,4.8h3.21Z" style="stroke:#000;stroke-miterlimit:10;stroke-width:0.0668757263953516px"/><path d="M46,91V79.38h3.79a6.28,6.28,0,0,1,4.51,1.39,5.91,5.91,0,0,1,1.43,4.4,5.91,5.91,0,0,1-1.43,4.39A6.26,6.26,0,0,1,49.83,91Zm2.35-1.85h1.3a3.83,3.83,0,0,0,2.86-.86,4.54,4.54,0,0,0,.8-3.08,4.52,4.52,0,0,0-.81-3.06,3.77,3.77,0,0,0-2.85-.88h-1.3Z" style="stroke:#000;stroke-miterlimit:10;stroke-width:0.0668757263953516px"/><path d="M67.45,85.18a6.91,6.91,0,0,1-1.24,4.33,4.61,4.61,0,0,1-3.89,1.61,4.59,4.59,0,0,1-3.89-1.6,8.34,8.34,0,0,1,0-8.71,4.6,4.6,0,0,1,3.91-1.61,5.88,5.88,0,0,1,2.38.45,3.76,3.76,0,0,1,1.6,1.28,5.77,5.77,0,0,1,.86,1.88A9.38,9.38,0,0,1,67.45,85.18Zm-7.84,0a6.15,6.15,0,0,0,.59,3,2.69,2.69,0,0,0,4.23,0,6,6,0,0,0,.6-3,6.11,6.11,0,0,0-.6-3,2.62,2.62,0,0,0-4.2,0A6,6,0,0,0,59.61,85.18Z" style="stroke:#000;stroke-miterlimit:10;stroke-width:0.0668757263953516px"/><path d="M61.83,9.75S58.51,13,63.77,13.81,61.83,9.75,61.83,9.75Z" style="fill:#024f29"/><path d="M53.77,24.61c-.35-2.83-2.39-7.52-6.05-7.87a3,3,0,0,0-.57,0c-6.05.57-10.74,5.23-14.79,9.18-5.64,5.5-10.25,11.72-15.08,17.86A248.42,248.42,0,0,0,2.67,63.92c10-.81,20.1-2,29.06-6.62,5.46-2.84,8.16-5.35,12.25-10C49.67,40.86,54.8,33,53.77,24.61Zm-7-7.09S54.74,2,63.56,7.78s6.79,12.66,6.79,12.66a8.17,8.17,0,0,0-3.16-2.86c-2.27-1-4.06.86-4.84,2.73,1.89,2.38,4.22,5,4.73,8.07.6,3.54-.75,7.21-2.43,10.31-2.83,5.21-5.87,8.75-10,13.09C53.09,53.44,50.11,56.4,48.4,58c-1.18,1.07-3.78,2-4.21,3.59L42,69.63l-8.3.54-.16-8.46" style="fill:none;stroke:#000;stroke-miterlimit:10;stroke-width:2.775238286809296px"/><polyline points="8.05 55.75 8.05 0.93 64.62 0.93 64.62 7.86" style="fill:none;stroke:#000;stroke-miterlimit:10;stroke-width:1.850158857872858px"/><polyline points="7.9 63.96 7.9 76.08 64.62 76.08 64.62 39.15" style="fill:none;stroke:#000;stroke-miterlimit:10;stroke-width:1.850158857872858px"/><polyline points="42.31 69.74 46.2 68.73 48.31 57.74" style="fill:none;stroke:#000;stroke-miterlimit:10;stroke-width:1.850158857872858px"/><path d="M42.92,48.09l0,1C39.67,60.41,22.71,68.77,13,73.28L9.3,75l5.33-9.43,1.7-3.38" style="fill:none;stroke:#000;stroke-miterlimit:10;stroke-width:1.850158857872858px"/><line x1="37.99" y1="70.93" x2="39.01" y2="75.97" style="fill:none;stroke:#000;stroke-miterlimit:10;stroke-width:2.1480344586926665px"/><line x1="42.47" y1="69.87" x2="43.83" y2="76.07" style="fill:none;stroke:#000;stroke-miterlimit:10;stroke-width:2.2201907176698756px"/><path d="M6.68,102.92V93.23H9.85a5.26,5.26,0,0,1,3.77,1.16,6.25,6.25,0,0,1,0,7.36,5.24,5.24,0,0,1-3.77,1.17Zm2-1.55H9.73a3.21,3.21,0,0,0,2.4-.72,5.24,5.24,0,0,0,0-5.14,3.15,3.15,0,0,0-2.39-.74H8.65Z" style="stroke:#000;stroke-miterlimit:10;stroke-width:0.3789258067098085px"/><path d="M18.38,101.37H23v1.55H16.41V93.23h6.5v1.55H18.38v2.49h3.91v1.55H18.38Z" style="stroke:#000;stroke-miterlimit:10;stroke-width:0.3789258067098085px"/><path d="M26.49,101.37h4v1.55h-6V93.23h2Z" style="stroke:#000;stroke-miterlimit:10;stroke-width:0.3789258067098085px"/><path d="M40.73,102.92,40,100.73H36.33l-.71,2.19H33.54l3.51-9.69H39.3l3.53,9.69Zm-2.55-7.75-1.34,4h2.69Z" style="stroke:#000;stroke-miterlimit:10;stroke-width:0.3789258067098085px"/><path d="M43.79,102.92V93.23H47.6a4.21,4.21,0,0,1,2.69.75,2.54,2.54,0,0,1,.94,2.1,2.6,2.6,0,0,1-.6,1.73,3.14,3.14,0,0,1-1.73,1l2.53,4.11h-2.2L46.92,99H45.75v3.94Zm5.42-6.84a1.18,1.18,0,0,0-.41-1,2.29,2.29,0,0,0-1.41-.33H45.75v2.65h1.64a2.28,2.28,0,0,0,1.41-.33A1.24,1.24,0,0,0,49.21,96.08Z" style="stroke:#000;stroke-miterlimit:10;stroke-width:0.3789258067098085px"/><path d="M52.17,93.23H59.5v1.55H56.81v8.14h-2V94.78H52.17Z" style="stroke:#000;stroke-miterlimit:10;stroke-width:0.3789258067098085px"/><path d="M62.87,101.37h4.58v1.55H60.9V93.23h6.5v1.55H62.87v2.49h3.91v1.55H62.87Z" style="stroke:#000;stroke-miterlimit:10;stroke-width:0.3789258067098085px"/></g></g></svg>