<svg xmlns="http://www.w3.org/2000/svg" width="68.68" height="103.38" viewBox="0 0 68.68 103.38"><title>Estadologo</title><g id="Layer_2" data-name="Layer 2"><g id="Layer_1-2" data-name="Layer 1"><path d="M5.94,89.39h5.18v1.85H3.72V79.66h7.36v1.85H5.94v3h4.43v1.85H5.94Z" style="stroke:#000;stroke-miterlimit:10;stroke-width:0.25px"/><path d="M20.21,81.2,18.7,82.45a2.42,2.42,0,0,0-2.17-1,1.68,1.68,0,0,0-1.19.4,1.35,1.35,0,0,0-.43,1q0,1,1.19,1.37l1.45.45a4.49,4.49,0,0,1,2.12,1.27,3,3,0,0,1,.65,1.95,3.2,3.2,0,0,1-1.14,2.59,4.45,4.45,0,0,1-3,1,4.18,4.18,0,0,1-4.07-2.12L13.67,88a3,3,0,0,0,.93,1.09,2.87,2.87,0,0,0,1.62.39,2,2,0,0,0,1.33-.39A1.31,1.31,0,0,0,18,88.06q0-1-1.28-1.4l-1.43-.45q-2.7-.85-2.7-3.2a3.47,3.47,0,0,1,1-2.5,3.89,3.89,0,0,1,2.94-1A4.13,4.13,0,0,1,20.21,81.2Z" style="stroke:#000;stroke-miterlimit:10;stroke-width:0.25px"/><path d="M21.38,79.66h8.3v1.85h-3v9.73H24.41V81.51h-3Z" style="stroke:#000;stroke-miterlimit:10;stroke-width:0.25px"/><path d="M38.24,91.24l-.8-2.62H33.27l-.8,2.62H30.11l4-11.58h2.54l4,11.58ZM35.36,82l-1.52,4.8h3Z" style="stroke:#000;stroke-miterlimit:10;stroke-width:0.25px"/><path d="M41.71,91.24V79.66h3.59A5.75,5.75,0,0,1,49.56,81a6.11,6.11,0,0,1,1.35,4.4,6.12,6.12,0,0,1-1.35,4.39,5.72,5.72,0,0,1-4.27,1.4Zm2.22-1.85h1.23a3.5,3.5,0,0,0,2.71-.86,4.73,4.73,0,0,0,.76-3.08,4.7,4.7,0,0,0-.77-3.06,3.45,3.45,0,0,0-2.7-.88H43.93Z" style="stroke:#000;stroke-miterlimit:10;stroke-width:0.25px"/><path d="M62,85.47A7.19,7.19,0,0,1,60.8,89.8a4.26,4.26,0,0,1-3.69,1.61,4.24,4.24,0,0,1-3.69-1.6,8.74,8.74,0,0,1,0-8.71,4.26,4.26,0,0,1,3.7-1.61,5.31,5.31,0,0,1,2.26.45,3.6,3.6,0,0,1,1.51,1.28,5.92,5.92,0,0,1,.82,1.88A9.89,9.89,0,0,1,62,85.47Zm-7.42,0a6.45,6.45,0,0,0,.56,3,2.46,2.46,0,0,0,4,0,6.29,6.29,0,0,0,.57-3,6.4,6.4,0,0,0-.57-3,2.41,2.41,0,0,0-4,0A6.32,6.32,0,0,0,54.55,85.47Z" style="stroke:#000;stroke-miterlimit:10;stroke-width:0.25px"/><path d="M59.7,10.66s-3.49,3.09,1.71,4.17S59.7,10.66,59.7,10.66Z" style="fill:#024f29"/><path d="M42.29,17.88a.57.57,0,0,0,.6-.39l.3-.52.62-1c.42-.67.87-1.34,1.33-2a28.31,28.31,0,0,1,3.13-3.67,16.09,16.09,0,0,1,4-3A8.39,8.39,0,0,1,60,7.2c.37.22.79.42,1.13.66l1,.7A17.66,17.66,0,0,1,65.78,12a13.4,13.4,0,0,1,2.41,4.52,11.33,11.33,0,0,1,.47,2.58,11.08,11.08,0,0,1,0,1.34,8.06,8.06,0,0,1-.22,1.44l-.75,2.93-1.79-2.52a8.79,8.79,0,0,0-1.5-1.68,3.52,3.52,0,0,0-1.59-.84,1.66,1.66,0,0,0-1.3.48,4.61,4.61,0,0,0-1.14,1.63l-.2-1.41a28.8,28.8,0,0,1,4.28,6.47,9.86,9.86,0,0,1,.61,2A12.58,12.58,0,0,1,65.25,31a13.9,13.9,0,0,1-.54,4c-1.47,5.17-5,9.21-8.38,12.73l-5.11,5.37c-1.7,1.78-3.4,3.61-5.17,5.34A24.74,24.74,0,0,0,41.59,64a17.4,17.4,0,0,0-2.07,6.7l-.07.71-.7,0-8.32.46-.79,0v-.78l0-4,0-2c0-.36,0-.61,0-1.06a2.45,2.45,0,0,0,0-.79l.81.45A10.19,10.19,0,0,0,26.13,67l-.88-.76a16.29,16.29,0,0,1,2.21-2.09,9.47,9.47,0,0,1,2.71-1.52l.64-.22L31,63a3.64,3.64,0,0,1,.07,1.2c0,.22,0,.63,0,.94l0,2,0,4-.78-.73,8.31-.63-.76.75A19.13,19.13,0,0,1,40,63.16a26.55,26.55,0,0,1,4.66-6.06c1.73-1.77,3.35-3.58,5-5.41l5-5.47a45.48,45.48,0,0,0,4.6-5.59,20.42,20.42,0,0,0,3-6.28A11.35,11.35,0,0,0,62.66,31a10.05,10.05,0,0,0-.18-1.62,7.22,7.22,0,0,0-.49-1.5,27.15,27.15,0,0,0-4-5.76l-.52-.65.33-.77a7.39,7.39,0,0,1,1.85-2.68,5,5,0,0,1,1.57-1,4.05,4.05,0,0,1,2-.23,6.19,6.19,0,0,1,3.08,1.49,11.13,11.13,0,0,1,2,2.25L65.71,21a6,6,0,0,0,.14-.85,8.33,8.33,0,0,0,0-1,8.55,8.55,0,0,0-.31-2,10.71,10.71,0,0,0-1.85-3.66,15.13,15.13,0,0,0-3.05-3l-.88-.65c-.3-.22-.58-.35-.86-.54a6.38,6.38,0,0,0-1.83-.62c-2.54-.46-5.21,1.08-7.3,3.09a26.14,26.14,0,0,0-2.92,3.36c-.45.6-.87,1.22-1.28,1.85L45,18l-.28.48a.43.43,0,0,0,0,.63Z"/><polyline points="5.35 61.74 5.35 0.92 61.35 0.92 61.35 7.86" style="fill:none;stroke:#000;stroke-miterlimit:10;stroke-width:1.840790295436057px"/><polyline points="5.35 65.96 5.35 76.07 61.35 76.07 61.35 39.14" style="fill:none;stroke:#000;stroke-miterlimit:10;stroke-width:1.8384379541061673px"/><polygon points="38.94 69.24 43.83 68.24 43.44 68.64 45.16 57.57 46.92 57.9 44.42 68.82 44.34 69.16 44.03 69.22 39.14 70.22 38.94 69.24"/><line x1="34.73" y1="70.92" x2="35.74" y2="76.97" style="fill:none;stroke:#000;stroke-miterlimit:10;stroke-width:3px"/><line x1="40.21" y1="69.86" x2="41.56" y2="77.06" style="fill:none;stroke:#000;stroke-miterlimit:10;stroke-width:3px"/><path d="M5.35,103.2V93.51h2.9a4.56,4.56,0,0,1,3.46,1.16,6.72,6.72,0,0,1,0,7.36,4.55,4.55,0,0,1-3.46,1.17Zm1.8-1.55h1a2.78,2.78,0,0,0,2.2-.72,5.66,5.66,0,0,0,0-5.14,2.74,2.74,0,0,0-2.19-.74h-1Z" style="stroke:#000;stroke-miterlimit:10;stroke-width:0.36276049379006px"/><path d="M16.07,101.65h4.2v1.55h-6V93.51h6v1.55H16.07v2.49h3.59V99.1H16.07Z" style="stroke:#000;stroke-miterlimit:10;stroke-width:0.36276049379006px"/><path d="M23.5,101.65h3.65v1.55H21.7V93.51h1.8Z" style="stroke:#000;stroke-miterlimit:10;stroke-width:0.36276049379006px"/><path d="M36.55,103.2,35.9,101H32.53l-.65,2.19H30l3.22-9.69h2.06l3.23,9.69Zm-2.33-7.75-1.23,4h2.46Z" style="stroke:#000;stroke-miterlimit:10;stroke-width:0.36276049379006px"/><path d="M39.36,103.2V93.51h3.49a3.64,3.64,0,0,1,2.47.75,2.65,2.65,0,0,1,.86,2.1,2.76,2.76,0,0,1-.55,1.73,2.84,2.84,0,0,1-1.59,1l2.32,4.11h-2l-2.11-3.94H41.16v3.94Zm5-6.84a1.23,1.23,0,0,0-.38-1,2,2,0,0,0-1.29-.33h-1.5v2.65h1.5a2,2,0,0,0,1.3-.33A1.3,1.3,0,0,0,44.32,96.36Z" style="stroke:#000;stroke-miterlimit:10;stroke-width:0.36276049379006px"/><path d="M47,93.51h6.72v1.55H51.29v8.14h-1.8V95.06H47Z" style="stroke:#000;stroke-miterlimit:10;stroke-width:0.36276049379006px"/><path d="M56.84,101.65H61v1.55H55V93.51h6v1.55H56.84v2.49h3.59V99.1H56.84Z" style="stroke:#000;stroke-miterlimit:10;stroke-width:0.36276049379006px"/><path d="M42,48.78a52.42,52.42,0,0,0,3.78-4.57c4-5.44,7.47-12.82,5.6-19.68a13,13,0,0,0-1-2.49C48,17.28,43.24,17.36,39.06,19.7,31.47,24,25.57,30.86,20.49,37.79,14.26,46.29,8.2,57.45,2.55,66.31A55.23,55.23,0,0,0,42,48.78Z" style="fill:none;stroke:#000;stroke-miterlimit:10;stroke-width:2.7752382868093px"/></g></g></svg>