<svg xmlns="http://www.w3.org/2000/svg" width="80.96" height="120.39" viewBox="0 0 80.96 120.39"><title>Estadologo</title><g id="Layer_2" data-name="Layer 2"><g id="Layer_1-2" data-name="Layer 1"><path d="M9.3,104h6.16v2.16H6.66V92.68H15.4v2.16H9.3v3.48h5.26v2.16H9.3Z" style="stroke:#000;stroke-miterlimit:10;stroke-width:0.07665519578306901px"/><path d="M26.26,94.48l-1.8,1.46a2.89,2.89,0,0,0-2.58-1.22,2,2,0,0,0-1.41.46A1.56,1.56,0,0,0,20,96.4q0,1.17,1.41,1.6l1.72.52A5.35,5.35,0,0,1,25.61,100a3.43,3.43,0,0,1,.77,2.27,3.71,3.71,0,0,1-1.35,3,5.35,5.35,0,0,1-3.51,1.11q-3.52,0-4.84-2.48l1.8-1.48a3.46,3.46,0,0,0,1.11,1.27,3.46,3.46,0,0,0,1.93.45,2.43,2.43,0,0,0,1.58-.46,1.52,1.52,0,0,0,.56-1.24q0-1.16-1.52-1.64l-1.7-.53q-3.2-1-3.2-3.74a4,4,0,0,1,1.15-2.92,4.67,4.67,0,0,1,3.49-1.18A4.94,4.94,0,0,1,26.26,94.48Z" style="stroke:#000;stroke-miterlimit:10;stroke-width:0.07665519578306901px"/><path d="M27.64,92.68H37.5v2.16H33.88V106.2H31.24V94.84h-3.6Z" style="stroke:#000;stroke-miterlimit:10;stroke-width:0.07665519578306901px"/><path d="M47.68,106.2l-.95-3.06h-5l-1,3.06H38l4.72-13.52h3L50.5,106.2ZM44.25,95.38,42.45,101h3.61Z" style="stroke:#000;stroke-miterlimit:10;stroke-width:0.07665519578306901px"/><path d="M51.8,106.2V92.68h4.26q3.46,0,5.07,1.62t1.61,5.14q0,3.5-1.61,5.13t-5.07,1.63ZM54.44,104H55.9a4.21,4.21,0,0,0,3.22-1,5.45,5.45,0,0,0,.9-3.6,5.42,5.42,0,0,0-.91-3.57,4.14,4.14,0,0,0-3.21-1H54.44Z" style="stroke:#000;stroke-miterlimit:10;stroke-width:0.07665519578306901px"/><path d="M75.88,99.46a8.29,8.29,0,0,1-1.4,5.06,5.1,5.1,0,0,1-4.38,1.88,5.08,5.08,0,0,1-4.38-1.87,10.06,10.06,0,0,1,0-10.17,5.09,5.09,0,0,1,4.4-1.88A6.41,6.41,0,0,1,72.8,93a4.27,4.27,0,0,1,1.8,1.49,6.86,6.86,0,0,1,1,2.2A11.36,11.36,0,0,1,75.88,99.46Zm-8.82,0a7.42,7.42,0,0,0,.66,3.5,3,3,0,0,0,4.76,0,7.24,7.24,0,0,0,.68-3.49A7.37,7.37,0,0,0,72.48,96a2.89,2.89,0,0,0-4.73,0A7.27,7.27,0,0,0,67.06,99.46Z" style="stroke:#000;stroke-miterlimit:10;stroke-width:0.07665519578306901px"/><path d="M69.55,11.36s-3.73,3.83,2.19,4.75S69.55,11.36,69.55,11.36Z" style="fill:#024f29"/><path d="M60.49,28.72c-.39-3.3-2.69-8.78-6.81-9.19a3.22,3.22,0,0,0-.64,0C46.23,20.2,41,25.64,36.4,30.25c-6.35,6.42-11.53,13.69-17,20.86C13.64,58.73,8,66.47,3,74.63c11.27-1,22.61-2.3,32.69-7.73,6.14-3.31,9.19-6.25,13.78-11.67C55.88,47.69,61.65,38.47,60.49,28.72Zm-7.85-8.28S61.58,2.37,71.5,9.06s7.64,14.79,7.64,14.79a9.32,9.32,0,0,0-3.56-3.34c-2.55-1.2-4.57,1-5.45,3.18,2.12,2.78,4.75,5.89,5.32,9.42.67,4.13-.84,8.42-2.74,12-3.19,6.09-6.6,10.22-11.22,15.29-1.78,2-5.13,5.41-7.05,7.23-1.32,1.25-4.25,2.36-4.74,4.19L47.19,81.3l-9.34.63-.18-9.88" style="fill:none;stroke:#000;stroke-miterlimit:10;stroke-width:3.181071005679906px"/><polyline points="9.05 65.09 9.05 1.06 72.7 1.06 72.7 9.16" style="fill:none;stroke:#000;stroke-miterlimit:10;stroke-width:2.1207140037865986px"/><polyline points="8.89 74.68 8.89 88.83 72.7 88.83 72.7 45.7" style="fill:none;stroke:#000;stroke-miterlimit:10;stroke-width:2.1207140037865986px"/><polyline points="47.59 81.42 51.97 80.25 54.34 67.41" style="fill:none;stroke:#000;stroke-miterlimit:10;stroke-width:2.1207140037865986px"/><path d="M48.29,56.14l0,1.22c-3.64,13.17-22.71,22.93-33.69,28.2l-4.11,2,6-11,1.91-3.95" style="fill:none;stroke:#000;stroke-miterlimit:10;stroke-width:2.1207140037865986px"/><line x1="42.74" y1="82.81" x2="43.88" y2="88.71" style="fill:none;stroke:#000;stroke-miterlimit:10;stroke-width:2.4621489867108215px"/><line x1="47.78" y1="81.58" x2="49.3" y2="88.82" style="fill:none;stroke:#000;stroke-miterlimit:10;stroke-width:2.5448569056674404px"/><path d="M7.51,120.17V108.86h3.57a5.78,5.78,0,0,1,4.24,1.36,7.53,7.53,0,0,1,0,8.6,5.75,5.75,0,0,1-4.24,1.36Zm2.21-1.81h1.22a3.52,3.52,0,0,0,2.7-.84,6.32,6.32,0,0,0,0-6,3.46,3.46,0,0,0-2.69-.86H9.72Z" style="stroke:#000;stroke-miterlimit:10;stroke-width:0.43433744149381986px"/><path d="M20.67,118.37h5.16v1.81H18.46V108.86h7.32v1.81H20.67v2.91h4.4v1.81h-4.4Z" style="stroke:#000;stroke-miterlimit:10;stroke-width:0.43433744149381986px"/><path d="M29.79,118.37h4.49v1.81h-6.7V108.86h2.21Z" style="stroke:#000;stroke-miterlimit:10;stroke-width:0.43433744149381986px"/><path d="M45.81,120.17,45,117.61H40.87l-.8,2.56H37.73l4-11.32h2.53l4,11.32Zm-2.87-9.06-1.51,4.69h3Z" style="stroke:#000;stroke-miterlimit:10;stroke-width:0.43433744149381986px"/><path d="M49.26,120.17V108.86h4.29a4.62,4.62,0,0,1,3,.88,3,3,0,0,1,1.05,2.45,3.11,3.11,0,0,1-.68,2,3.51,3.51,0,0,1-2,1.15l2.85,4.8H55.37l-2.59-4.6H51.47l0,4.6Zm6.09-8a1.4,1.4,0,0,0-.46-1.14,2.5,2.5,0,0,0-1.58-.38H51.47v3.1h1.84a2.49,2.49,0,0,0,1.59-.39A1.48,1.48,0,0,0,55.35,112.19Z" style="stroke:#000;stroke-miterlimit:10;stroke-width:0.43433744149381986px"/><path d="M58.69,108.86h8.25v1.81h-3v9.51H61.7v-9.51h-3Z" style="stroke:#000;stroke-miterlimit:10;stroke-width:0.43433744149381986px"/><path d="M70.72,118.37h5.16v1.81H68.51V108.86h7.32v1.81H70.72v2.91h4.4v1.81h-4.4Z" style="stroke:#000;stroke-miterlimit:10;stroke-width:0.43433744149381986px"/></g></g></svg>