<svg xmlns="http://www.w3.org/2000/svg" width="115.14" height="41.77" viewBox="0 0 115.14 41.77"><title>estadologo2</title><g id="Layer_2" data-name="Layer 2"><g id="Layer_1-2" data-name="Layer 1"><path d="M48.53,20.05h6.15v2.19H45.89V8.51h8.72v2.19H48.53v3.53h5.25v2.19H48.53Z" style="stroke:#000;stroke-miterlimit:10;stroke-width:0.2965210848386863px"/><path d="M65.46,10.34l-1.8,1.48a2.87,2.87,0,0,0-2.58-1.24,2,2,0,0,0-1.41.47,1.6,1.6,0,0,0-.51,1.23q0,1.18,1.41,1.63l1.72.53A5.33,5.33,0,0,1,64.81,16a3.53,3.53,0,0,1,.77,2.31,3.8,3.8,0,0,1-1.35,3.08,5.28,5.28,0,0,1-3.5,1.13q-3.51,0-4.83-2.52l1.8-1.5a3.5,3.5,0,0,0,1.11,1.29,3.4,3.4,0,0,0,1.93.46,2.39,2.39,0,0,0,1.58-.47,1.55,1.55,0,0,0,.56-1.26q0-1.18-1.52-1.66l-1.69-.54q-3.2-1-3.2-3.79a4.12,4.12,0,0,1,1.15-3,4.61,4.61,0,0,1,3.48-1.2A4.9,4.9,0,0,1,65.46,10.34Z" style="stroke:#000;stroke-miterlimit:10;stroke-width:0.2965210848386863px"/><path d="M66.84,8.51h9.84v2.19H73.07V22.24H70.43V10.71H66.84Z" style="stroke:#000;stroke-miterlimit:10;stroke-width:0.2965210848386863px"/><path d="M86.84,22.24l-.95-3.11H80.95l-1,3.11H77.2L81.91,8.51h3l4.73,13.73Zm-3.42-11-1.8,5.69h3.6Z" style="stroke:#000;stroke-miterlimit:10;stroke-width:0.2965210848386863px"/><path d="M91,22.24V8.51H95.2q3.45,0,5.06,1.65t1.61,5.22q0,3.55-1.61,5.21T95.2,22.24Zm2.64-2.19H95a4.15,4.15,0,0,0,3.21-1,5.61,5.61,0,0,0,.9-3.66,5.58,5.58,0,0,0-.91-3.63,4.09,4.09,0,0,0-3.2-1H93.59Z" style="stroke:#000;stroke-miterlimit:10;stroke-width:0.2965210848386863px"/><path d="M115,15.4a8.52,8.52,0,0,1-1.4,5.14,6,6,0,0,1-8.74,0,8.6,8.6,0,0,1-1.38-5.15,8.69,8.69,0,0,1,1.38-5.18,5,5,0,0,1,4.39-1.91,6.3,6.3,0,0,1,2.68.53,4.28,4.28,0,0,1,1.8,1.51,7,7,0,0,1,1,2.23A11.73,11.73,0,0,1,115,15.4Zm-8.8,0a7.65,7.65,0,0,0,.66,3.55,2.92,2.92,0,0,0,4.75,0,7.46,7.46,0,0,0,.68-3.54,7.59,7.59,0,0,0-.68-3.56,2.86,2.86,0,0,0-4.72,0A7.49,7.49,0,0,0,106.19,15.4Z" style="stroke:#000;stroke-miterlimit:10;stroke-width:0.2965210848386863px"/><path d="M30.1,5.75S28.24,7.42,31,8,30.1,5.75,30.1,5.75Z" style="fill:#024f29"/><path d="M21.84,9.71c.24,0,.27-.13.31-.24l.14-.3.29-.59c.2-.39.41-.77.64-1.15a15.45,15.45,0,0,1,1.54-2.16,8,8,0,0,1,2.1-1.78A4.17,4.17,0,0,1,29.74,3a4.54,4.54,0,0,1,1.38.54,13.68,13.68,0,0,1,1.13.78,9.69,9.69,0,0,1,1.88,2,7.37,7.37,0,0,1,1.19,5.44L35,13.51,33.94,12a4.92,4.92,0,0,0-.74-.85,2.25,2.25,0,0,0-.82-.49.29.29,0,0,0-.18,0,.42.42,0,0,0-.17.15,4.65,4.65,0,0,0-.5,1l-.1-.75a15.54,15.54,0,0,1,2.28,3.49,6.85,6.85,0,0,1,.14,4.36,16.74,16.74,0,0,1-4.47,6.88c-1.84,1.93-3.62,3.9-5.5,5.8a13.32,13.32,0,0,0-2.39,3,9.49,9.49,0,0,0-1.1,3.61l0,.38-.37,0-4.44.25-.43,0v-.42l0-2.16V35.21c0-.19,0-.33,0-.57a1.33,1.33,0,0,0,0-.43l.44.24a5.46,5.46,0,0,0-2.36,1.7l-.48-.41a6.61,6.61,0,0,1,2.63-1.95l.34-.13.1.37a2,2,0,0,1,0,.65v1.59l0,2.16-.42-.39,4.44-.34-.41.4a10.41,10.41,0,0,1,1.13-4,14.29,14.29,0,0,1,2.49-3.28C25,28.93,26.71,26.92,28.5,25a24.44,24.44,0,0,0,2.46-3,11.06,11.06,0,0,0,1.59-3.39,5.48,5.48,0,0,0-.15-3.47A14.65,14.65,0,0,0,30.24,12L30,11.62l.17-.41a5.82,5.82,0,0,1,.69-1.35,1.93,1.93,0,0,1,.85-.66,1.8,1.8,0,0,1,1.11,0,3.69,3.69,0,0,1,1.44.83,6.1,6.1,0,0,1,1,1.14l-1.37.25a5.7,5.7,0,0,0,0-2.19,6.28,6.28,0,0,0-.86-2.11,8.34,8.34,0,0,0-1.55-1.74,5,5,0,0,0-1.92-1.11c-1.35-.33-2.77.63-3.82,1.82A14.22,14.22,0,0,0,24.2,8c-.22.35-.42.71-.62,1.07l-.28.55-.13.28a.24.24,0,0,0,0,.34Z"/><polyline points="3.21 33.35 3.21 0.49 32.59 0.49 32.59 5.86" style="fill:none;stroke:#000;stroke-miterlimit:10;stroke-width:0.9798564018428595px"/><polyline points="3.21 36.7 3.21 41.09 32.59 41.09 32.59 19.52" style="fill:none;stroke:#000;stroke-miterlimit:10;stroke-width:0.9786042457894945px"/><polygon points="20.08 37.4 22.69 36.86 22.48 37.07 23.4 31.09 24.35 31.27 23.01 37.17 22.97 37.35 22.8 37.38 20.19 37.93 20.08 37.4"/><line x1="17.83" y1="38.31" x2="18.37" y2="41.57" style="fill:none;stroke:#000;stroke-miterlimit:10;stroke-width:1.611353613745783px"/><line x1="20.76" y1="37.73" x2="21.48" y2="41.62" style="fill:none;stroke:#000;stroke-miterlimit:10;stroke-width:1.611353613745783px"/><path d="M47.24,35.26V23.76h3.45a5.41,5.41,0,0,1,4.1,1.38,6.2,6.2,0,0,1,1.3,4.37,6.21,6.21,0,0,1-1.3,4.36,5.39,5.39,0,0,1-4.1,1.39Zm2.14-1.84h1.18a3.3,3.3,0,0,0,2.6-.85,4.81,4.81,0,0,0,.73-3.06,4.79,4.79,0,0,0-.74-3,3.25,3.25,0,0,0-2.6-.88H49.37Z" style="stroke:#000;stroke-miterlimit:10;stroke-width:0.4302645406209845px"/><path d="M60,33.42h5v1.84H57.82V23.76h7.07V25.6H60v3h4.25v1.84H60Z" style="stroke:#000;stroke-miterlimit:10;stroke-width:0.4302645406209845px"/><path d="M68.77,33.42H73.1v1.84H66.63V23.76h2.14Z" style="stroke:#000;stroke-miterlimit:10;stroke-width:0.4302645406209845px"/><path d="M84.25,35.26l-.77-2.6h-4l-.77,2.6H76.43l3.82-11.49h2.44l3.83,11.49Zm-2.77-9.2L80,30.82h2.92Z" style="stroke:#000;stroke-miterlimit:10;stroke-width:0.4302645406209845px"/><path d="M87.58,35.26V23.76h4.14a4.31,4.31,0,0,1,2.93.89,3.14,3.14,0,0,1,1,2.49A3.27,3.27,0,0,1,95,29.2a3.36,3.36,0,0,1-1.88,1.17l2.75,4.88H93.48L91,30.58H89.71l0,4.68Zm5.89-8.11A1.46,1.46,0,0,0,93,26a2.33,2.33,0,0,0-1.53-.39H89.71v3.15h1.78A2.32,2.32,0,0,0,93,28.35,1.54,1.54,0,0,0,93.46,27.15Z" style="stroke:#000;stroke-miterlimit:10;stroke-width:0.4302645406209845px"/><path d="M96.68,23.76h8V25.6h-2.93v9.66H99.6V25.6H96.68Z" style="stroke:#000;stroke-miterlimit:10;stroke-width:0.4302645406209845px"/><path d="M108.31,33.42h5v1.84h-7.12V23.76h7.07V25.6h-4.93v3h4.25v1.84h-4.25Z" style="stroke:#000;stroke-miterlimit:10;stroke-width:0.4302645406209845px"/><path d="M21.45,26.16a28.33,28.33,0,0,0,1.8-2.64c1.87-3.12,3.38-7.25,2.07-10.85a7,7,0,0,0-.63-1.29c-1.51-2.45-4-2.18-6.14-.73-3.84,2.65-6.66,6.64-9,10.61C6.59,26.13,3.88,32.42,1.29,37.45A29.41,29.41,0,0,0,21.45,26.16Z" style="fill:none;stroke:#000;stroke-miterlimit:10;stroke-width:1.4906300808186073px"/><path d="M33.12,14.28" style="fill:none;stroke:#000;stroke-miterlimit:10;stroke-width:0.9887213648996874px"/></g></g></svg>