<svg xmlns="http://www.w3.org/2000/svg" width="66.35" height="103.38" viewBox="0 0 66.35 103.38"><title>Estadologo</title><g id="Layer_2" data-name="Layer 2"><g id="Layer_1-2" data-name="Layer 1"><path d="M6.61,89.38h5.18v1.85H4.38V79.65h7.36V81.5H6.61v3H11v1.85H6.61Z" style="fill:#fff;stroke:#fff;stroke-miterlimit:10;stroke-width:0.25px"/><path d="M20.88,81.2l-1.51,1.25a2.42,2.42,0,0,0-2.17-1,1.68,1.68,0,0,0-1.19.4,1.35,1.35,0,0,0-.43,1q0,1,1.19,1.37l1.45.45a4.49,4.49,0,0,1,2.12,1.27A3,3,0,0,1,21,87.87a3.2,3.2,0,0,1-1.14,2.59,4.45,4.45,0,0,1-3,1,4.18,4.18,0,0,1-4.07-2.12L14.33,88a3,3,0,0,0,.93,1.09,2.87,2.87,0,0,0,1.62.39,2,2,0,0,0,1.33-.39A1.31,1.31,0,0,0,18.69,88q0-1-1.28-1.4L16,86.19q-2.7-.85-2.7-3.2a3.47,3.47,0,0,1,1-2.5,3.89,3.89,0,0,1,2.94-1A4.13,4.13,0,0,1,20.88,81.2Z" style="fill:#fff;stroke:#fff;stroke-miterlimit:10;stroke-width:0.25px"/><path d="M22,79.65h8.3V81.5h-3v9.73H25.07V81.5H22Z" style="fill:#fff;stroke:#fff;stroke-miterlimit:10;stroke-width:0.25px"/><path d="M38.91,91.23l-.8-2.62H33.94l-.8,2.62H30.78l4-11.58h2.54l4,11.58ZM36,82l-1.52,4.8h3Z" style="fill:#fff;stroke:#fff;stroke-miterlimit:10;stroke-width:0.25px"/><path d="M42.37,91.23V79.65H46A5.75,5.75,0,0,1,50.23,81a6.11,6.11,0,0,1,1.35,4.4,6.12,6.12,0,0,1-1.35,4.39A5.72,5.72,0,0,1,46,91.23Zm2.22-1.85h1.23a3.5,3.5,0,0,0,2.71-.86,4.73,4.73,0,0,0,.76-3.08,4.7,4.7,0,0,0-.77-3.06,3.45,3.45,0,0,0-2.7-.88H44.6Z" style="fill:#fff;stroke:#fff;stroke-miterlimit:10;stroke-width:0.25px"/><path d="M62.64,85.46a7.19,7.19,0,0,1-1.18,4.33,4.26,4.26,0,0,1-3.69,1.61,4.24,4.24,0,0,1-3.69-1.6,8.74,8.74,0,0,1,0-8.71,4.26,4.26,0,0,1,3.7-1.61,5.31,5.31,0,0,1,2.26.45,3.6,3.6,0,0,1,1.51,1.28,5.92,5.92,0,0,1,.82,1.88A9.89,9.89,0,0,1,62.64,85.46Zm-7.42,0a6.45,6.45,0,0,0,.56,3,2.46,2.46,0,0,0,4,0,6.29,6.29,0,0,0,.57-3,6.4,6.4,0,0,0-.57-3,2.41,2.41,0,0,0-4,0A6.32,6.32,0,0,0,55.22,85.46Z" style="fill:#fff;stroke:#fff;stroke-miterlimit:10;stroke-width:0.25px"/><path d="M56.36,10.65s-3.49,3.09,1.71,4.17S56.36,10.65,56.36,10.65Z" style="fill:#024f29"/><path d="M40.91,18a.58.58,0,0,0,.58-.44l.26-.55.55-1.09q.57-1.08,1.2-2.13a28.38,28.38,0,0,1,2.89-4,15.21,15.21,0,0,1,3.91-3.3,7.83,7.83,0,0,1,5.36-.95,8.45,8.45,0,0,1,2.57,1,21.06,21.06,0,0,1,2.1,1.44,17,17,0,0,1,3.53,3.71A14.2,14.2,0,0,1,66,16.42,14,14,0,0,1,66.34,19a11.23,11.23,0,0,1-.21,2.75l-.65,3.12-1.9-2.66a9.11,9.11,0,0,0-1.38-1.58,5.4,5.4,0,0,0-.78-.57,3,3,0,0,0-.75-.34.57.57,0,0,0-.36,0A.77.77,0,0,0,60,20,8.51,8.51,0,0,0,59,21.83l-.2-1.41a28.81,28.81,0,0,1,4.28,6.47,9.83,9.83,0,0,1,.61,2A12.58,12.58,0,0,1,63.91,31a13.9,13.9,0,0,1-.54,4c-1.47,5.17-5,9.21-8.38,12.73L49.88,53.1c-1.7,1.78-3.4,3.61-5.17,5.34A24.74,24.74,0,0,0,40.25,64a17.41,17.41,0,0,0-2.07,6.7l-.07.71-.7,0-8.32.46-.79,0v-.78l0-4,0-2c0-.36,0-.61,0-1.06a2.45,2.45,0,0,0,0-.79l.81.45A10.19,10.19,0,0,0,24.79,67l-.88-.76a16.29,16.29,0,0,1,2.21-2.09,9.47,9.47,0,0,1,2.71-1.52l.64-.22.18.67a3.64,3.64,0,0,1,.07,1.2c0,.22,0,.63,0,.94l0,2,0,4L29,70.44l8.31-.63-.76.75a19.13,19.13,0,0,1,2.13-7.41,26.55,26.55,0,0,1,4.66-6.06c1.73-1.77,3.35-3.58,5-5.41l5-5.47A45.53,45.53,0,0,0,58,40.63a20.43,20.43,0,0,0,3-6.28A11.35,11.35,0,0,0,61.32,31a10.05,10.05,0,0,0-.18-1.62,7.22,7.22,0,0,0-.49-1.5,27.15,27.15,0,0,0-4-5.76l-.52-.65.33-.76a10.7,10.7,0,0,1,1.3-2.52A3.59,3.59,0,0,1,59.34,17a3.4,3.4,0,0,1,2.06,0,5.8,5.8,0,0,1,1.49.65,8.31,8.31,0,0,1,1.2.88,11.34,11.34,0,0,1,1.84,2.11l-2.55.46a8.85,8.85,0,0,0,.18-2A11.19,11.19,0,0,0,63.32,17a11.51,11.51,0,0,0-1.63-3.9A14.41,14.41,0,0,0,58.77,9.9,18.87,18.87,0,0,0,57,8.61a6.05,6.05,0,0,0-1.82-.75,5.48,5.48,0,0,0-3.8.61A12.38,12.38,0,0,0,48,11.2a26.28,26.28,0,0,0-2.71,3.66c-.41.65-.79,1.32-1.15,2l-.53,1-.25.52a.45.45,0,0,0,.09.64Z" style="fill:#fff"/><polyline points="6.01 61.74 6.01 0.91 61.02 0.91 61.02 10.85" style="fill:none;stroke:#fff;stroke-miterlimit:10;stroke-width:1.82428560711463px"/><polyline points="6.01 67.95 6.01 76.07 61.02 76.07 61.02 36.13" style="fill:none;stroke:#fff;stroke-miterlimit:10;stroke-width:1.82195435708481px"/><polygon points="37.6 69.23 42.49 68.23 42.1 68.63 43.83 57.56 45.58 57.89 43.08 68.82 43.01 69.15 42.69 69.21 37.8 70.22 37.6 69.23" style="fill:#fff"/><line x1="33.39" y1="70.91" x2="34.41" y2="76.96" style="fill:none;stroke:#fff;stroke-miterlimit:10;stroke-width:3px"/><line x1="38.87" y1="69.86" x2="40.22" y2="77.06" style="fill:none;stroke:#fff;stroke-miterlimit:10;stroke-width:3px"/><path d="M6,103.19V93.5h2.9a4.56,4.56,0,0,1,3.46,1.16,6.72,6.72,0,0,1,0,7.36,4.55,4.55,0,0,1-3.46,1.17Zm1.8-1.55h1a2.78,2.78,0,0,0,2.2-.72,5.66,5.66,0,0,0,0-5.14,2.74,2.74,0,0,0-2.19-.74h-1Z" style="fill:#fff;stroke:#fff;stroke-miterlimit:10;stroke-width:0.36276049379006px"/><path d="M16.73,101.65h4.2v1.55h-6V93.5h6v1.55H16.73v2.49h3.59v1.55H16.73Z" style="fill:#fff;stroke:#fff;stroke-miterlimit:10;stroke-width:0.36276049379006px"/><path d="M24.17,101.65h3.65v1.55H22.36V93.5h1.8Z" style="fill:#fff;stroke:#fff;stroke-miterlimit:10;stroke-width:0.36276049379006px"/><path d="M37.22,103.19,36.57,101H33.19l-.65,2.19H30.63l3.22-9.69h2.06l3.23,9.69Zm-2.33-7.75-1.23,4h2.46Z" style="fill:#fff;stroke:#fff;stroke-miterlimit:10;stroke-width:0.36276049379006px"/><path d="M40,103.19V93.5h3.49a3.64,3.64,0,0,1,2.47.75,2.65,2.65,0,0,1,.86,2.1,2.76,2.76,0,0,1-.55,1.73,2.84,2.84,0,0,1-1.59,1L47,103.19H45l-2.11-3.94H41.82v3.94Zm5-6.84a1.23,1.23,0,0,0-.38-1,2,2,0,0,0-1.29-.33h-1.5V97.7h1.5a2,2,0,0,0,1.3-.33A1.3,1.3,0,0,0,45,96.36Z" style="fill:#fff;stroke:#fff;stroke-miterlimit:10;stroke-width:0.36276049379006px"/><path d="M47.7,93.5h6.72v1.55H52v8.14h-1.8V95.05H47.7Z" style="fill:#fff;stroke:#fff;stroke-miterlimit:10;stroke-width:0.36276049379006px"/><path d="M57.51,101.65h4.2v1.55h-6V93.5h6v1.55H57.51v2.49h3.59v1.55H57.51Z" style="fill:#fff;stroke:#fff;stroke-miterlimit:10;stroke-width:0.36276049379006px"/><path d="M40.17,48.44a52.42,52.42,0,0,0,3.36-4.88c3.51-5.77,6.33-13.42,3.87-20.09a13,13,0,0,0-1.17-2.39c-2.84-4.53-7.54-4-11.5-1.35C27.55,24.63,22.27,32,17.81,39.36c-5.46,9-10.54,20.65-15.39,30A55.23,55.23,0,0,0,40.17,48.44Z" style="fill:none;stroke:#fff;stroke-miterlimit:10;stroke-width:2.7752382868093px"/></g></g></svg>