<svg xmlns="http://www.w3.org/2000/svg" xmlns:xlink="http://www.w3.org/1999/xlink" width="40.73" height="42.13" viewBox="0 0 40.73 42.13"><defs><style>.ff0aa165-d9c5-409a-b078-0b894aa01153{isolation:isolate;}.\37 727824a-dc69-435c-aa19-1ad92b93e261{fill:url(#e1baeea7-d0af-41d6-98b1-a9a3e940f91b);}.\36 3e046aa-5d3f-4680-97ca-b0bd6c3f715c{fill:url(#3597287b-6fac-42e6-9e75-32f46a181024);}.\30 6c01d62-ec5a-4984-ae42-e7dc24e27aec{fill:url(#8dfd81ba-9f74-46c9-b7d4-8b8e916871dd);}.\32 b855585-c193-4cd2-b5da-f171de4a6b83{fill:url(#924574f8-66f7-45d4-b72c-089cf38beea8);}.\36 0f55f4f-5a3e-4f82-ac1e-7cd3e369d7ed{fill:url(#9bf6b05e-6450-4c9c-951b-155fd7869080);}.ba937502-4c81-4210-b004-32289d636874{opacity:0.6;mix-blend-mode:screen;fill:url(#fa18a976-0125-4591-acfe-5318a0a08412);}.\38 06435d7-83b5-4bba-896a-b9d3ac9766d1{fill-rule:evenodd;fill:url(#1ec82c6f-e9b6-4310-8709-ab145400c462);}</style><linearGradient id="e1baeea7-d0af-41d6-98b1-a9a3e940f91b" x1="0.34" y1="21.07" x2="41.64" y2="21.07" gradientUnits="userSpaceOnUse"><stop offset="0" stop-color="#b07515"/><stop offset="0.09" stop-color="#e1ba60"/><stop offset="0.14" stop-color="#f5d77f"/><stop offset="0.26" stop-color="#ffffd7"/><stop offset="0.36" stop-color="#f5d77f"/><stop offset="0.49" stop-color="#b07515"/><stop offset="0.57" stop-color="#e1ba60"/><stop offset="0.61" stop-color="#f5d77f"/><stop offset="0.74" stop-color="#ffffd7"/><stop offset="0.84" stop-color="#f5d77f"/><stop offset="1" stop-color="#b07515"/></linearGradient><linearGradient id="3597287b-6fac-42e6-9e75-32f46a181024" x1="5.68" y1="6.38" x2="34.71" y2="35.41" xlink:href="#e1baeea7-d0af-41d6-98b1-a9a3e940f91b"/><linearGradient id="8dfd81ba-9f74-46c9-b7d4-8b8e916871dd" x1="2.37" y1="21.07" x2="38.29" y2="21.07" xlink:href="#e1baeea7-d0af-41d6-98b1-a9a3e940f91b"/><linearGradient id="924574f8-66f7-45d4-b72c-089cf38beea8" x1="8" y1="33.43" x2="31.63" y2="9.81" gradientUnits="userSpaceOnUse"><stop offset="0" stop-color="#0f1115"/><stop offset="0.14" stop-color="#1c2228"/><stop offset="0.26" stop-color="#232a32"/><stop offset="0.36" stop-color="#1c2228"/><stop offset="0.49" stop-color="#0f1115"/><stop offset="0.61" stop-color="#1c2228"/><stop offset="0.74" stop-color="#232a32"/><stop offset="0.84" stop-color="#1c2228"/><stop offset="1" stop-color="#0f1115"/></linearGradient><linearGradient id="9bf6b05e-6450-4c9c-951b-155fd7869080" x1="9.8" y1="31.65" x2="29.99" y2="11.45" gradientUnits="userSpaceOnUse"><stop offset="0" stop-color="#161a1f"/><stop offset="0.14" stop-color="#2a323b"/><stop offset="0.26" stop-color="#343f4a"/><stop offset="0.36" stop-color="#2a323b"/><stop offset="0.49" stop-color="#161a1f"/><stop offset="0.61" stop-color="#2a323b"/><stop offset="0.74" stop-color="#343f4a"/><stop offset="0.84" stop-color="#2a323b"/><stop offset="1" stop-color="#161a1f"/></linearGradient><radialGradient id="fa18a976-0125-4591-acfe-5318a0a08412" cx="3.76" cy="16.34" r="53.86" gradientUnits="userSpaceOnUse"><stop offset="0" stop-color="#e8e8e8"/><stop offset="0.05" stop-color="#a6a6a6"/><stop offset="0.14" stop-color="#606060"/><stop offset="0.21" stop-color="#4c4c4c"/><stop offset="0.33" stop-color="#303030"/><stop offset="0.45" stop-color="#1b1b1b"/><stop offset="0.59" stop-color="#0c0c0c"/><stop offset="0.76" stop-color="#030303"/><stop offset="1"/></radialGradient><linearGradient id="1ec82c6f-e9b6-4310-8709-ab145400c462" x1="10.68" y1="34.24" x2="33.49" y2="5.45" xlink:href="#e1baeea7-d0af-41d6-98b1-a9a3e940f91b"/></defs><title>Facebook</title><g class="ff0aa165-d9c5-409a-b078-0b894aa01153"><g id="3862baa0-f97f-401d-995a-0f8eb6706c4a" data-name="Layer 2"><g id="153ab8a1-609a-4780-a56d-ccddb57e52ac" data-name="Layer 1"><path class="7727824a-dc69-435c-aa19-1ad92b93e261" d="M20.37,42.13C-6.8,42.13-6.78,0,20.37,0S47.54,42.13,20.37,42.13Z"/><path class="63e046aa-5d3f-4680-97ca-b0bd6c3f715c" d="M20.37,41.74C-6.29,41.74-6.28.39,20.37.39S47,41.74,20.37,41.74Z"/><path class="06c01d62-ec5a-4984-ae42-e7dc24e27aec" d="M20.37,39.69c-24,0-24-37.24,0-37.24S44.41,39.69,20.37,39.69Z"/><path class="2b855585-c193-4cd2-b5da-f171de4a6b83" d="M20.37,39.28c-23.5,0-23.5-36.44,0-36.44S43.86,39.28,20.37,39.28Z"/><path class="60f55f4f-5a3e-4f82-ac1e-7cd3e369d7ed" d="M20.37,36.65C.26,36.65.31,5.49,20.37,5.49S40.5,36.65,20.37,36.65Z"/><path class="ba937502-4c81-4210-b004-32289d636874" d="M31.38,32.09c14.71-14.69-9-36.87-22.7-21.32A46.74,46.74,0,0,1,31.38,32.09Z"/><path class="806435d7-83b5-4bba-896a-b9d3ac9766d1" d="M23.17,14.86h1.88V12c-5-.5-6.7,1.62-6.55,6.41H15.76v3.2h2.73v8.05h3.33v-8h2.72L25,18.4H21.8C21.63,17.18,21.46,14.92,23.17,14.86Z"/></g></g></g></svg>