<svg xmlns="http://www.w3.org/2000/svg" width="221.5" height="43.3" viewBox="0 0 221.5 43.3"><defs><style>.\39 a72f663-ea40-4547-ab78-7bea505ace28{fill:#0f2105;}.\30 68fcfa7-36b6-44de-a9b7-f0f78a6e7bc1{fill:#2bde73;}.\32 9a6e369-d3f2-4b89-bb9f-aebf90c78c06{fill:#fff;}</style></defs><title>Kickstarter</title><g id="8a861954-7eca-45bf-b0d0-08c1a158f70d" data-name="Layer 2"><g id="0b32a143-41d2-42ac-a1be-4867f4ff1504" data-name="Kickstarter logo"><path id="9f8bad54-4ce1-48bb-a9f6-f177facf357e" data-name="Grey" class="9a72f663-ea40-4547-ab78-7bea505ace28" d="M8.1,26.4l4.5-6.6A3.9,3.9,0,0,1,16,17.9a4,4,0,0,1,3.5,6.2l-4.1,6,5,6.4a3.3,3.3,0,0,1,.8,2.2A3.9,3.9,0,0,1,20,41.6a3.9,3.9,0,0,1-2.9,1.2,3.5,3.5,0,0,1-2.8-1.2L8.1,34v4.3a5.4,5.4,0,0,1-.6,2.8,3.7,3.7,0,0,1-3.4,1.8A3.7,3.7,0,0,1,1,41.6a5.7,5.7,0,0,1-1-3.4V22.5a4.9,4.9,0,0,1,1-3.2,3.8,3.8,0,0,1,3-1.3,4,4,0,0,1,3,1.3A3,3,0,0,1,8,20.7a8,8,0,0,1,.1,1.8v3.9Zm22.7-3.5V38.1a4.9,4.9,0,0,1-1,3.3,3.6,3.6,0,0,1-3,1.4,3.8,3.8,0,0,1-3-1.3,4.8,4.8,0,0,1-1-3.4V22.9a5.3,5.3,0,0,1,1-3.7,3.9,3.9,0,0,1,3-1.3,3.8,3.8,0,0,1,3,1.3A5.5,5.5,0,0,1,30.8,22.9Zm14.6-5.5a13,13,0,0,1,8.2,3c1.9,1.6,2.9,3.2,2.9,4.9a3.9,3.9,0,0,1-1.8,3.4,3.7,3.7,0,0,1-2.2.7,3.9,3.9,0,0,1-1.9-.5l-1.8-1.8a4.5,4.5,0,0,0-3.5-1.5A4.6,4.6,0,0,0,41.9,27a4.9,4.9,0,0,0,0,6.8,4.4,4.4,0,0,0,3.4,1.4A4.9,4.9,0,0,0,48.4,34l1.8-1.7a3.6,3.6,0,0,1,2.4-.8,4.2,4.2,0,0,1,2.9,1.1,3.7,3.7,0,0,1,1.2,2.8c0,1.5-.9,3-2.7,4.5a12.5,12.5,0,0,1-8.6,3.2,13.1,13.1,0,0,1-5.7-1.3,13,13,0,0,1-5.4-4.7,12.9,12.9,0,0,1,2.1-16.3A12.8,12.8,0,0,1,45.4,17.4Zm20.8,9,4.5-6.6A3.9,3.9,0,0,1,74,17.9a4,4,0,0,1,3.5,6.2l-4.1,6,5,6.4a3.3,3.3,0,0,1,.8,2.2A3.9,3.9,0,0,1,78,41.6a3.9,3.9,0,0,1-2.9,1.2,3.5,3.5,0,0,1-2.8-1.2L66.1,34v4.3a5.4,5.4,0,0,1-.6,2.8,4.1,4.1,0,0,1-6.4.5,5.1,5.1,0,0,1-1-3.3V22.5a4.9,4.9,0,0,1,1-3.2,4.2,4.2,0,0,1,6.2,0,3,3,0,0,1,.9,1.5,8,8,0,0,1,.1,1.8Z"/><path id="469011d3-774b-46be-826e-1ba92b9304d3" data-name="Green" class="068fcfa7-36b6-44de-a9b7-f0f78a6e7bc1" d="M84.2,33.4a4.8,4.8,0,0,1,2.9,1.2A5.9,5.9,0,0,0,89.7,36c.7,0,1-.4,1-1.1a1.2,1.2,0,0,0-.6-1l-3.6-1.4c-3.6-1.3-5.4-3.6-5.4-7.1a7.3,7.3,0,0,1,2.8-6.1,10,10,0,0,1,6.2-1.9,10.1,10.1,0,0,1,5.5,1.5A4.5,4.5,0,0,1,98,22.9a3.4,3.4,0,0,1-.9,2.4,3,3,0,0,1-2.3.9,5.6,5.6,0,0,1-3.3-1.4,3.7,3.7,0,0,0-1.7-.9.9.9,0,0,0-1,.9c0,.6.8,1.2,2.5,1.7a14.8,14.8,0,0,1,5.2,2.6,7,7,0,0,1,2.5,5.7,7.7,7.7,0,0,1-2.7,6.3,10.1,10.1,0,0,1-6.7,2.1,10.4,10.4,0,0,1-6.8-2.2A5.2,5.2,0,0,1,80.5,37a3.5,3.5,0,0,1,1-2.6A3.9,3.9,0,0,1,84.2,33.4Zm21.7-7.7h-2.1a4.6,4.6,0,0,1-2.9-.9,3.5,3.5,0,0,1-1.2-2.8,3.7,3.7,0,0,1,.6-2,3.3,3.3,0,0,1,1.5-1.4,13.5,13.5,0,0,1,4.4-.4h8.2a12.7,12.7,0,0,1,3.9.4,3.1,3.1,0,0,1,1.6,1.4,4.1,4.1,0,0,1,.6,2,3.7,3.7,0,0,1-1.3,2.9,4.6,4.6,0,0,1-3.1.9H114V37.9a6.1,6.1,0,0,1-.7,3.1,3.7,3.7,0,0,1-3.3,1.8,3.9,3.9,0,0,1-3.4-1.7,5.7,5.7,0,0,1-.8-3.2Zm19.7,13.8a6.6,6.6,0,0,1-1.2,2,3.8,3.8,0,0,1-3,1.3,3.8,3.8,0,0,1-3.3-1.7,4,4,0,0,1-.7-2.3,5,5,0,0,1,.5-2.1l7.7-16.3a3.8,3.8,0,0,1,3.7-2.4,3.9,3.9,0,0,1,3.8,2.5l7.8,16.4a4.3,4.3,0,0,1,.5,1.9,4,4,0,0,1-.9,2.6,4.1,4.1,0,0,1-5.7.5,7.8,7.8,0,0,1-1.6-2.4h-7.5Zm33.6-6.3,1.9,3.1a4.9,4.9,0,0,1,.8,2.6,3.7,3.7,0,0,1-1.2,2.8,4,4,0,0,1-2.9,1.1,3.6,3.6,0,0,1-3.3-1.8l-3.4-5.5v3.3a4,4,0,0,1-1.1,2.9,3.7,3.7,0,0,1-2.8,1.2,3.6,3.6,0,0,1-3.2-1.5,5.5,5.5,0,0,1-.9-3.5V22.7c0-3.1,1.7-4.6,5-4.6h5.2a8,8,0,0,1,4.7,1.5,8.5,8.5,0,0,1,3.2,3.8,8.7,8.7,0,0,1,.8,3.6A9.2,9.2,0,0,1,159.2,33.2Zm9.6-7.5h-2.1a4.6,4.6,0,0,1-2.9-.9,3.5,3.5,0,0,1-1.2-2.8,3.7,3.7,0,0,1,.6-2,3.3,3.3,0,0,1,1.5-1.4,13.5,13.5,0,0,1,4.4-.4h8.2a12.7,12.7,0,0,1,3.9.4,3.1,3.1,0,0,1,1.6,1.4,4.1,4.1,0,0,1,.6,2,3.7,3.7,0,0,1-1.3,2.9,4.6,4.6,0,0,1-3.1.9h-1.8V37.9a6.1,6.1,0,0,1-.7,3.1,3.7,3.7,0,0,1-3.3,1.8,3.9,3.9,0,0,1-3.4-1.7,5.7,5.7,0,0,1-.8-3.2Zm24,9.4h3.7a5.3,5.3,0,0,1,3.4.9,3.7,3.7,0,0,1,1.3,2.9,3.5,3.5,0,0,1-1.3,2.9,5.2,5.2,0,0,1-3.4.9h-6.3a9.3,9.3,0,0,1-3.1-.3,3.5,3.5,0,0,1-2.1-2.2,10.3,10.3,0,0,1-.3-3.2V23.6a19.5,19.5,0,0,1,.1-2.2,3.9,3.9,0,0,1,.9-2,4.1,4.1,0,0,1,2.2-1.2h9.7a4.3,4.3,0,0,1,2.1.8,3.4,3.4,0,0,1,1.5,2.9,3.7,3.7,0,0,1-1.3,3,4.8,4.8,0,0,1-3.1.9h-4v1.7H196a3.4,3.4,0,0,1,2.3.8,2.6,2.6,0,0,1,.9,2.2c0,1.9-1.2,2.9-3.6,2.9h-2.9v1.8Zm26-1.9,1.9,3.1a4.9,4.9,0,0,1,.8,2.6,3.7,3.7,0,0,1-1.2,2.8,4,4,0,0,1-2.9,1.1,3.6,3.6,0,0,1-3.3-1.8l-3.4-5.5v3.3a4,4,0,0,1-1.1,2.9,3.7,3.7,0,0,1-2.8,1.2,3.6,3.6,0,0,1-3.2-1.5,5.5,5.5,0,0,1-.9-3.5V22.7c0-3.1,1.7-4.6,5-4.6h5.2a8,8,0,0,1,4.7,1.5,8.5,8.5,0,0,1,3.2,3.8,8.7,8.7,0,0,1,.8,3.6A9.2,9.2,0,0,1,218.8,33.2Z"/><path class="29a6e369-d3f2-4b89-bb9f-aebf90c78c06" d="M7.3,6.5H3v4H7.8v1.2H1.6V.6h6V1.8H3V5.3H7.3Z"/><path class="29a6e369-d3f2-4b89-bb9f-aebf90c78c06" d="M9.6,5.9c0-.8,0-1.5-.1-2.2h1.3V5.1h0a2.9,2.9,0,0,1,2.6-1.5c1.1,0,2.8.7,2.8,3.4v4.8H15V7.1c0-1.3-.5-2.4-1.9-2.4a2.1,2.1,0,0,0-2,1.5,2.1,2.1,0,0,0-.1.7v4.8H9.6Z"/><path class="29a6e369-d3f2-4b89-bb9f-aebf90c78c06" d="M20.5,1.4V3.7h2.1V4.8H20.5V9.2c0,1,.3,1.6,1.1,1.6h.8v1.1l-1.3.2a2,2,0,0,1-1.6-.6,3,3,0,0,1-.6-2.1V4.8H17.9V3.7h1.2V1.8Z"/><path class="29a6e369-d3f2-4b89-bb9f-aebf90c78c06" d="M25,8a2.6,2.6,0,0,0,2.7,2.8,5.3,5.3,0,0,0,2.2-.4l.2,1a6.5,6.5,0,0,1-2.7.5,3.7,3.7,0,0,1-3.9-4c0-2.4,1.4-4.3,3.8-4.3s3.3,2.3,3.3,3.8a5.5,5.5,0,0,1,0,.7Zm4.3-1a2.1,2.1,0,0,0-2-2.4A2.4,2.4,0,0,0,25,7ZM29.6.3l-2,2.4h-1L28,.3Z"/><path class="29a6e369-d3f2-4b89-bb9f-aebf90c78c06" d="M32.4,6.2c0-.9,0-1.8-.1-2.5h1.3V5.3h.1A2.4,2.4,0,0,1,36,3.6h.4V5h-.5a2,2,0,0,0-2,1.9,4.1,4.1,0,0,0-.1.7v4.3H32.4Z"/><path class="29a6e369-d3f2-4b89-bb9f-aebf90c78c06" d="M42.2,11.7v-1h0a3,3,0,0,1-2.4,1.2,2.3,2.3,0,0,1-2.4-2.3c0-1.9,1.7-3,4.8-3V6.5a1.7,1.7,0,0,0-1.8-1.9,4,4,0,0,0-2.1.6l-.3-1a5,5,0,0,1,2.6-.7c2.4,0,3,1.7,3,3.3v3a11.2,11.2,0,0,0,.1,1.9ZM42,7.7c-1.6,0-3.4.2-3.4,1.8A1.3,1.3,0,0,0,40,10.9a2,2,0,0,0,1.9-1.3A1.5,1.5,0,0,0,42,9Z"/><path class="29a6e369-d3f2-4b89-bb9f-aebf90c78c06" d="M47.4,1.4V3.7h2.1V4.8H47.4V9.2c0,1,.3,1.6,1.1,1.6h.8v1.1l-1.3.2a2,2,0,0,1-1.6-.6A3,3,0,0,1,46,9.2V4.8H44.8V3.7H46V1.8Z"/><path class="29a6e369-d3f2-4b89-bb9f-aebf90c78c06" d="M51.9,8a2.6,2.6,0,0,0,2.7,2.8,5.3,5.3,0,0,0,2.2-.4l.2,1a6.5,6.5,0,0,1-2.7.5,3.7,3.7,0,0,1-3.9-4c0-2.4,1.4-4.3,3.8-4.3s3.3,2.3,3.3,3.8a5.5,5.5,0,0,1,0,.7Zm4.3-1a2.1,2.1,0,0,0-2-2.4A2.4,2.4,0,0,0,51.9,7Z"/><path class="29a6e369-d3f2-4b89-bb9f-aebf90c78c06" d="M63.4,3.7l1.8,4.7.5,1.6h0l.5-1.7,1.6-4.7h1.5L67.1,9.4c-1,2.7-1.8,4.2-2.7,5a3.9,3.9,0,0,1-1.8.9l-.4-1.2a3.9,3.9,0,0,0,1.3-.7,4.4,4.4,0,0,0,1.2-1.6v-.7l-3-7.4Z"/><path class="29a6e369-d3f2-4b89-bb9f-aebf90c78c06" d="M78.6,11.7v-1h0A3,3,0,0,1,76,11.9a2.3,2.3,0,0,1-2.4-2.3c0-1.9,1.7-3,4.8-3V6.5a1.7,1.7,0,0,0-1.8-1.9,4,4,0,0,0-2.1.6l-.3-1a5,5,0,0,1,2.6-.7c2.4,0,3,1.7,3,3.3v3a11.2,11.2,0,0,0,.1,1.9Zm-.2-4.1c-1.6,0-3.4.2-3.4,1.8a1.3,1.3,0,0,0,1.4,1.4,2,2,0,0,0,1.9-1.3,1.5,1.5,0,0,0,.1-.5Z"/><path class="29a6e369-d3f2-4b89-bb9f-aebf90c78c06" d="M82.1,6.4c0-1,0-1.9-.1-2.6h1.3V5.1h0a3.1,3.1,0,0,1,2.8-1.6c1.9,0,3.4,1.6,3.4,4.1s-1.8,4.3-3.6,4.3a2.8,2.8,0,0,1-2.5-1.3h0V15H82.1Zm1.4,2.1a3.3,3.3,0,0,0,.1.6,2.2,2.2,0,0,0,2.2,1.7c1.5,0,2.4-1.3,2.4-3.1s-.8-3-2.4-3a2.3,2.3,0,0,0-2.2,1.8,2.4,2.4,0,0,0-.1.6Z"/><path class="29a6e369-d3f2-4b89-bb9f-aebf90c78c06" d="M98.8,7.7a3.9,3.9,0,0,1-4,4.3A3.8,3.8,0,0,1,91,7.8a3.9,3.9,0,0,1,4-4.3A3.8,3.8,0,0,1,98.8,7.7Zm-6.4.1c0,1.8,1,3.1,2.4,3.1s2.4-1.3,2.4-3.1-.7-3.1-2.4-3.1S92.4,6.2,92.4,7.8Z"/><path class="29a6e369-d3f2-4b89-bb9f-aebf90c78c06" d="M101,3.7l1.8,4.7.5,1.6h0l.5-1.7,1.6-4.7H107l-2.2,5.7c-1,2.7-1.8,4.2-2.7,5a3.9,3.9,0,0,1-1.8.9l-.4-1.2a3.9,3.9,0,0,0,1.3-.7,4.4,4.4,0,0,0,1.2-1.6v-.7l-3-7.4Z"/><path class="29a6e369-d3f2-4b89-bb9f-aebf90c78c06" d="M112.7,11.7v-1h0a3,3,0,0,1-2.4,1.2,2.3,2.3,0,0,1-2.4-2.3c0-1.9,1.7-3,4.8-3V6.5a1.7,1.7,0,0,0-1.8-1.9,4,4,0,0,0-2.1.6l-.3-1a5,5,0,0,1,2.6-.7c2.4,0,3,1.7,3,3.3v3a11.4,11.4,0,0,0,.1,1.9Zm-.2-4.1c-1.6,0-3.4.2-3.4,1.8a1.3,1.3,0,0,0,1.4,1.4,2,2,0,0,0,1.9-1.3,1.5,1.5,0,0,0,.1-.5Z"/><path class="29a6e369-d3f2-4b89-bb9f-aebf90c78c06" d="M120.5,8a2.6,2.6,0,0,0,2.7,2.8,5.3,5.3,0,0,0,2.2-.4l.2,1a6.5,6.5,0,0,1-2.7.5,3.7,3.7,0,0,1-3.9-4c0-2.4,1.4-4.3,3.8-4.3s3.3,2.3,3.3,3.8a5.5,5.5,0,0,1,0,.7Zm4.3-1a2.1,2.1,0,0,0-2-2.4A2.4,2.4,0,0,0,120.6,7Z"/><path class="29a6e369-d3f2-4b89-bb9f-aebf90c78c06" d="M128,0h1.5V11.7H128Z"/><path class="29a6e369-d3f2-4b89-bb9f-aebf90c78c06" d="M135.4,5.9c0-.8,0-1.5-.1-2.2h1.3V5h0a2.8,2.8,0,0,1,2.5-1.5,2.4,2.4,0,0,1,2.3,1.6h0a3.3,3.3,0,0,1,.9-1,2.7,2.7,0,0,1,1.8-.6c1.1,0,2.6.7,2.6,3.5v4.7h-1.4V7.2c0-1.5-.6-2.5-1.7-2.5A1.9,1.9,0,0,0,142,6.1a2.4,2.4,0,0,0-.1.7v4.9h-1.4V6.9c0-1.3-.6-2.2-1.7-2.2A2,2,0,0,0,137,6.2a2,2,0,0,0-.1.7v4.8h-1.4Z"/><path class="29a6e369-d3f2-4b89-bb9f-aebf90c78c06" d="M156.5,7.7a3.9,3.9,0,0,1-4,4.3,3.8,3.8,0,0,1-3.8-4.1,3.9,3.9,0,0,1,4-4.3A3.8,3.8,0,0,1,156.5,7.7Zm-6.4.1c0,1.8,1,3.1,2.4,3.1S155,9.5,155,7.7s-.7-3.1-2.4-3.1S150.1,6.2,150.1,7.8Z"/><path class="29a6e369-d3f2-4b89-bb9f-aebf90c78c06" d="M158.8,3.7l1.6,4.5a20.9,20.9,0,0,1,.6,2.1h0c.2-.7.4-1.3.7-2.1l1.6-4.5h1.5l-3.1,8h-1.4l-3-8Z"/><path class="29a6e369-d3f2-4b89-bb9f-aebf90c78c06" d="M167.8,1.5a.9.9,0,0,1-1.8,0,.9.9,0,0,1,.9-.9A.9.9,0,0,1,167.8,1.5Zm-1.6,10.3v-8h1.5v8Z"/><path class="29a6e369-d3f2-4b89-bb9f-aebf90c78c06" d="M170,5.9c0-.8,0-1.5-.1-2.2h1.3V5h0a2.8,2.8,0,0,1,2.5-1.5,2.4,2.4,0,0,1,2.3,1.6h0a3.3,3.3,0,0,1,.9-1,2.7,2.7,0,0,1,1.8-.6c1.1,0,2.6.7,2.6,3.5v4.7H180V7.2c0-1.5-.6-2.5-1.7-2.5a1.9,1.9,0,0,0-1.7,1.3,2.4,2.4,0,0,0-.1.7v4.9H175V6.9c0-1.3-.6-2.2-1.7-2.2a2,2,0,0,0-1.8,1.5,2,2,0,0,0-.1.7v4.8H170Z"/><path class="29a6e369-d3f2-4b89-bb9f-aebf90c78c06" d="M185.5,1.5a.9.9,0,0,1-1.8,0,.9.9,0,0,1,.9-.9A.9.9,0,0,1,185.5,1.5Zm-1.6,10.3v-8h1.5v8Z"/><path class="29a6e369-d3f2-4b89-bb9f-aebf90c78c06" d="M188.5,8a2.6,2.6,0,0,0,2.7,2.8,5.3,5.3,0,0,0,2.2-.4l.2,1a6.5,6.5,0,0,1-2.7.5,3.7,3.7,0,0,1-3.9-4c0-2.4,1.4-4.3,3.8-4.3s3.3,2.3,3.3,3.8a5.5,5.5,0,0,1,0,.7Zm4.3-1a2.1,2.1,0,0,0-2-2.4A2.4,2.4,0,0,0,188.5,7Z"/><path class="29a6e369-d3f2-4b89-bb9f-aebf90c78c06" d="M196,5.9c0-.8,0-1.5-.1-2.2h1.3V5.1h0A2.9,2.9,0,0,1,200,3.6c1.1,0,2.8.7,2.8,3.4v4.8h-1.5V7.1c0-1.3-.5-2.4-1.9-2.4a2.1,2.1,0,0,0-2,1.5,2.1,2.1,0,0,0-.1.7v4.8H196Z"/><path class="29a6e369-d3f2-4b89-bb9f-aebf90c78c06" d="M206.9,1.4V3.7H209V4.8h-2.1V9.2c0,1,.3,1.6,1.1,1.6h.8v1.1l-1.3.2a2,2,0,0,1-1.6-.6,3,3,0,0,1-.6-2.1V4.8h-1.2V3.7h1.2V1.8Z"/><path class="29a6e369-d3f2-4b89-bb9f-aebf90c78c06" d="M217.7,7.7a3.9,3.9,0,0,1-4,4.3,3.8,3.8,0,0,1-3.8-4.1,3.9,3.9,0,0,1,4-4.3A3.8,3.8,0,0,1,217.7,7.7Zm-6.4.1c0,1.8,1,3.1,2.4,3.1s2.4-1.3,2.4-3.1-.7-3.1-2.4-3.1S211.4,6.2,211.4,7.8Z"/></g></g></svg>