<svg xmlns="http://www.w3.org/2000/svg" width="70.19" height="36.88" viewBox="0 0 70.19 36.88"><title>mexicanhat</title><g id="Layer_2" data-name="Layer 2"><g id="Layer_1-2" data-name="Layer 1"><path d="M43.08,13.79H27.16q-.18.72-.34,1.41H43.41C43.31,14.74,43.19,14.26,43.08,13.79Z" style="fill:#dc4437"/><path d="M42.72,12.37H27.53q-.19.71-.37,1.41H43.08C43,13.32,42.84,12.85,42.72,12.37Z" style="fill:#f2efdc"/><path d="M35.16,0c-3.47,0-6,6.38-7.63,12.37H42.72C41.13,6.38,38.62,0,35.16,0Z" style="fill:#663f30"/><path d="M30.11,22.74h.16l2.37-3.36L35,22.74h.16l2.37-3.36,2.37,3.36h.16l2.37-3.36,2.37,3.36h0s-.46-3.38-1.41-7.54H26.82c-1,4.16-1.45,7.54-1.45,7.54l2.37-3.36Z" style="fill:#663f30"/><path d="M27.74,19.37l-2.37,3.36H30.1Zm0,.77,1.56,2.21H26.18Z" style="fill:#f7c63b"/><path d="M30.26,22.74H35l-2.37-3.36Zm.81-.39,1.56-2.21,1.56,2.21Z" style="fill:#f7c63b"/><path d="M35.16,22.74h4.74l-2.37-3.36Zm.81-.39,1.56-2.21,1.56,2.21Z" style="fill:#f7c63b"/><path d="M40.05,22.74h4.74l-2.37-3.36Zm.81-.39,1.56-2.21L44,22.35Z" style="fill:#f7c63b"/><polygon points="40.87 22.35 43.98 22.35 42.42 20.14 40.87 22.35" style="fill:#f2efdc"/><polygon points="35.97 22.35 39.08 22.35 37.53 20.14 35.97 22.35" style="fill:#f2efdc"/><polygon points="31.08 22.35 34.19 22.35 32.63 20.14 31.08 22.35" style="fill:#f2efdc"/><polygon points="27.74 20.14 26.18 22.35 29.29 22.35 27.74 20.14" style="fill:#f2efdc"/><polygon points="4.97 27.98 1.25 27.98 3.11 30.62 4.97 27.98" style="fill:#dc4437"/><polygon points="10.83 27.98 7.11 27.98 8.97 30.62 10.83 27.98" style="fill:#dc4437"/><polygon points="16.69 27.98 12.96 27.98 14.83 30.62 16.69 27.98" style="fill:#dc4437"/><polygon points="22.55 27.98 18.82 27.98 20.68 30.62 22.55 27.98" style="fill:#dc4437"/><polygon points="28.21 27.98 24.49 27.98 26.35 30.62 28.21 27.98" style="fill:#dc4437"/><polygon points="34.07 27.98 30.34 27.98 32.21 30.62 34.07 27.98" style="fill:#dc4437"/><polygon points="39.92 27.98 36.2 27.98 38.06 30.62 39.92 27.98" style="fill:#dc4437"/><polygon points="45.78 27.98 42.06 27.98 43.92 30.62 45.78 27.98" style="fill:#dc4437"/><polygon points="51.41 27.98 47.68 27.98 49.55 30.62 51.41 27.98" style="fill:#dc4437"/><polygon points="57.27 27.98 53.54 27.98 55.4 30.62 57.27 27.98" style="fill:#dc4437"/><polygon points="63.12 27.98 59.4 27.98 61.26 30.62 63.12 27.98" style="fill:#dc4437"/><polygon points="67.12 30.62 68.98 27.98 65.25 27.98 67.12 30.62" style="fill:#dc4437"/><path d="M67.12,31.54l2.83-4H64.28Zm0-.92L65.25,28H69Z" style="fill:#f2efdc"/><path d="M64.09,27.51H58.43l2.83,4Zm-1,.46-1.86,2.65L59.4,28Z" style="fill:#f2efdc"/><path d="M58.23,27.51H52.57l2.83,4Zm-1,.46L55.4,30.62,53.54,28Z" style="fill:#f2efdc"/><path d="M49.54,31.54l2.83-4H46.75l0,0ZM51.41,28l-1.86,2.65L47.68,28Z" style="fill:#f2efdc"/><path d="M46.73,27.54l0,0H41.09l2.83,4Zm-1,.44-1.86,2.65L42.06,28Z" style="fill:#f2efdc"/><path d="M40.9,27.51H35.23l2.83,4Zm-1,.46-1.86,2.65L36.2,28Z" style="fill:#f2efdc"/><path d="M35,27.51H29.37l2.83,4Zm-1,.46-1.86,2.65L30.34,28Z" style="fill:#f2efdc"/><path d="M29.18,27.51H23.52l2.83,4Zm-1,.46-1.86,2.65L24.49,28Z" style="fill:#f2efdc"/><path d="M23.52,27.51H17.85l2.83,4Zm-1,.46-1.86,2.65L18.82,28Z" style="fill:#f2efdc"/><path d="M17.66,27.51H12l2.83,4Zm-1,.46-1.86,2.65L13,28Z" style="fill:#f2efdc"/><path d="M11.8,27.51H6.14l2.83,4Zm-1,.46L9,30.62,7.11,28Z" style="fill:#f2efdc"/><path d="M5.95,27.51H.28l2.83,4ZM5,28,3.11,30.62,1.25,28Z" style="fill:#f2efdc"/><path d="M.24,27.51h69.7a9.15,9.15,0,0,0,.2-1.23H0A9.15,9.15,0,0,0,.24,27.51Z" style="fill:#f7c63b"/><path d="M44.82,22.74H0v2.63q0,.46,0,.92h70.1a9.12,9.12,0,0,0,0-.92V22.74Z" style="fill:#dc4437"/><path d="M64.28,27.51h-.19l-2.83,4-2.83-4h-.19l-2.83,4-2.83-4h-.19l-2.83,4-2.81-4-2.81,4-2.83-4H40.9l-2.83,4-2.83-4H35l-2.83,4-2.83-4h-.19l-2.83,4-2.83-4-2.83,4-2.83-4h-.19l-2.83,4-2.83-4H11.8L9,31.54l-2.83-4H5.94l-2.83,4-2.83-4h0C1.47,32.85,7.17,36.88,14,36.88H56.16c6.85,0,12.55-4,13.78-9.35l-2.83,4Z" style="fill:#109d59"/><path d="M43.08,13.79H39c.19.46.37.93.51,1.41h3.89C43.31,14.74,43.19,14.26,43.08,13.79Z" style="fill:#c43d31"/><path d="M42.72,12.37H38.35c.24.46.46.93.65,1.41h4.07C43,13.32,42.84,12.85,42.72,12.37Z" style="fill:#dad8c6"/><path d="M35.16,0c-1.82,0-3.38,1.75-4.69,4.28a21.08,21.08,0,0,1,7.88,8.09h4.36C41.13,6.38,38.62,0,35.16,0Z" style="fill:#4e3025"/><path d="M43.41,15.2H39.52v0a7.27,7.27,0,0,1-.64,6.08l1,1.43h.16l2.37-3.36,2.37,3.36h0S44.36,19.36,43.41,15.2Z" style="fill:#4e3025"/><path d="M32.63,19.37l-2.37,3.36H35Zm0,.77,1.56,2.21H31.08Z" style="fill:#dfb335"/><path d="M38.89,21.3l-.24.42.44.63h-.85l-.28.39h2Z" style="fill:#dfb335"/><path d="M40.05,22.74h4.74l-2.37-3.36Zm.81-.39,1.56-2.21L44,22.35Z" style="fill:#dfb335"/><polygon points="40.87 22.35 43.98 22.35 42.42 20.14 40.87 22.35" style="fill:#dad8c6"/><path d="M38.64,21.73c-.13.21-.27.42-.41.63h.85Z" style="fill:#dad8c6"/><polygon points="32.63 20.14 31.08 22.35 34.19 22.35 32.63 20.14" style="fill:#dad8c6"/><polygon points="63.12 27.98 59.4 27.98 61.26 30.62 63.12 27.98" style="fill:#c43d31"/><polygon points="67.12 30.62 68.98 27.98 65.25 27.98 67.12 30.62" style="fill:#c43d31"/><path d="M67.12,31.54l2.83-4H64.28Zm0-.92L65.25,28H69Z" style="fill:#dad8c6"/><path d="M64.09,27.51H58.43l2.83,4Zm-1,.46-1.86,2.65L59.4,28Z" style="fill:#dad8c6"/><path d="M57.56,27.51c0,.33,0,.67,0,1l.71-1Z" style="fill:#dad8c6"/><path d="M57.49,26.29c0,.41.07.82.07,1.23H69.95a9.15,9.15,0,0,0,.2-1.23Z" style="fill:#dfb335"/><path d="M56.88,22.74a34.31,34.31,0,0,1,.61,3.55H70.14a9.12,9.12,0,0,0,0-.92V22.74H56.88Z" style="fill:#c43d31"/><path d="M67.12,31.54l-2.83-4h-.19l-2.83,4-2.83-4h-.19l-.71,1c0,.07,0,.13,0,.2-.28,3.56-2.5,6.28-5.63,8.15h4.29c6.85,0,12.55-4,13.78-9.35Z" style="fill:#0e854c"/></g></g></svg>