<svg xmlns="http://www.w3.org/2000/svg" width="74.58" height="42.91" viewBox="0 0 74.58 42.91"><title>mexicanhat</title><g id="Layer_2" data-name="Layer 2"><g id="Layer_1-2" data-name="Layer 1"><path d="M45.77,16H28.86q-.19.84-.36,1.64H46.13C46,17.15,45.9,16.6,45.77,16Z" style="fill:#dc4437"/><path d="M45.39,14.4H29.25q-.2.83-.39,1.64H45.78C45.65,15.5,45.53,15,45.39,14.4Z" style="fill:#f2efdc"/><path d="M37.36,0C33.68,0,31,7.42,29.25,14.4H45.39C43.7,7.42,41,0,37.36,0Z" style="fill:#663f30"/><path d="M32,26.46h.17l2.52-3.91,2.52,3.91h.17l2.52-3.91,2.52,3.91h.17l2.52-3.91,2.52,3.91h0s-.49-3.94-1.5-8.77H28.5c-1,4.84-1.54,8.77-1.54,8.77l2.52-3.91Z" style="fill:#663f30"/><path d="M29.47,22.54,27,26.46h5Zm0,.89L31.13,26H27.82Z" style="fill:#f7c63b"/><path d="M32.16,26.46h5l-2.52-3.91ZM33,26l1.65-2.57L36.33,26Z" style="fill:#f7c63b"/><path d="M37.36,26.46h5l-2.52-3.91Zm.86-.45,1.65-2.57L41.53,26Z" style="fill:#f7c63b"/><path d="M42.56,26.46h5l-2.52-3.91Zm.86-.45,1.65-2.57L46.73,26Z" style="fill:#f7c63b"/><polygon points="43.42 26.01 46.73 26.01 45.08 23.44 43.42 26.01" style="fill:#f2efdc"/><polygon points="38.22 26.01 41.53 26.01 39.88 23.44 38.22 26.01" style="fill:#f2efdc"/><polygon points="33.02 26.01 36.33 26.01 34.67 23.44 33.02 26.01" style="fill:#f2efdc"/><polygon points="29.47 23.44 27.82 26.01 31.13 26.01 29.47 23.44" style="fill:#f2efdc"/><polygon points="5.29 32.56 1.33 32.56 3.31 35.63 5.29 32.56" style="fill:#dc4437"/><polygon points="11.51 32.56 7.55 32.56 9.53 35.63 11.51 32.56" style="fill:#dc4437"/><polygon points="17.73 32.56 13.78 32.56 15.76 35.63 17.73 32.56" style="fill:#dc4437"/><polygon points="23.96 32.56 20 32.56 21.98 35.63 23.96 32.56" style="fill:#dc4437"/><polygon points="29.98 32.56 26.02 32.56 28 35.63 29.98 32.56" style="fill:#dc4437"/><polygon points="36.2 32.56 32.24 32.56 34.22 35.63 36.2 32.56" style="fill:#dc4437"/><polygon points="42.42 32.56 38.47 32.56 40.45 35.63 42.42 32.56" style="fill:#dc4437"/><polygon points="48.65 32.56 44.69 32.56 46.67 35.63 48.65 32.56" style="fill:#dc4437"/><polygon points="54.62 32.56 50.67 32.56 52.65 35.63 54.62 32.56" style="fill:#dc4437"/><polygon points="60.85 32.56 56.89 32.56 58.87 35.63 60.85 32.56" style="fill:#dc4437"/><polygon points="67.07 32.56 63.11 32.56 65.09 35.63 67.07 32.56" style="fill:#dc4437"/><polygon points="71.32 35.63 73.3 32.56 69.34 32.56 71.32 35.63" style="fill:#dc4437"/><path d="M71.32,36.7l3-4.67h-6Zm0-1.07-2-3.08h4Z" style="fill:#f2efdc"/><path d="M68.1,32h-6l3,4.69Zm-1,.54-2,3.08-2-3.08Z" style="fill:#f2efdc"/><path d="M61.88,32h-6l3,4.69Zm-1,.54-2,3.08-2-3.08Z" style="fill:#f2efdc"/><path d="M52.65,36.7l3-4.69h-6l0,0Zm2-4.14-2,3.08-2-3.08Z" style="fill:#f2efdc"/><path d="M49.66,32l0,0h-6l3,4.69Zm-1,.51-2,3.08-2-3.08Z" style="fill:#f2efdc"/><path d="M43.46,32h-6l3,4.69Zm-1,.54-2,3.08-2-3.08Z" style="fill:#f2efdc"/><path d="M37.23,32h-6l3,4.69Zm-1,.54-2,3.08-2-3.08Z" style="fill:#f2efdc"/><path d="M31,32H25l3,4.69Zm-1,.54-2,3.08-2-3.08Z" style="fill:#f2efdc"/><path d="M25,32H19l3,4.69Zm-1,.54-2,3.08-2-3.08Z" style="fill:#f2efdc"/><path d="M18.76,32h-6l3,4.69Zm-1,.54-2,3.08-2-3.08Z" style="fill:#f2efdc"/><path d="M12.54,32h-6l3,4.69Zm-1,.54-2,3.08-2-3.08Z" style="fill:#f2efdc"/><path d="M6.32,32H.3l3,4.69Zm-1,.54-2,3.08-2-3.08Z" style="fill:#f2efdc"/><path d="M.26,32H74.32a11.59,11.59,0,0,0,.21-1.43H0A11.58,11.58,0,0,0,.26,32Z" style="fill:#f7c63b"/><path d="M47.63,26.46H0v3.06q0,.54,0,1.06H74.53q0-.53,0-1.06V26.46Z" style="fill:#dc4437"/><path d="M68.31,32h-.2l-3,4.69-3-4.69h-.2l-3,4.69-3-4.69h-.21l-3,4.69-3-4.65-3,4.65-3-4.69h-.2l-3,4.69-3-4.69h-.2l-3,4.69-3-4.69H31L28,36.7,25,32,22,36.7,19,32h-.2l-3,4.69-3-4.69h-.2l-3,4.69L6.52,32h-.2l-3,4.69L.3,32h0c1.3,6.2,7.36,10.9,14.64,10.9H59.68C67,42.91,73,38.23,74.32,32l-3,4.67Z" style="fill:#109d59"/><path d="M45.77,16H41.45c.2.54.39,1.09.54,1.64h4.13C46,17.15,45.9,16.6,45.77,16Z" style="fill:#c43d31"/><path d="M45.39,14.4H40.76c.26.54.49,1.09.69,1.64h4.32C45.65,15.5,45.53,15,45.39,14.4Z" style="fill:#dad8c6"/><path d="M37.36,0c-1.93,0-3.59,2-5,5a23.68,23.68,0,0,1,8.38,9.42h4.64C43.7,7.42,41,0,37.36,0Z" style="fill:#4e3025"/><path d="M46.13,17.69H42v0a9.16,9.16,0,0,1-.68,7.07l1.07,1.67h.17l2.52-3.91,2.52,3.91h0S47.13,22.52,46.13,17.69Z" style="fill:#4e3025"/><path d="M34.67,22.54l-2.52,3.91h5Zm0,.89L36.33,26H33Z" style="fill:#dfb335"/><path d="M41.32,24.79l-.26.49.47.73h-.91l-.3.45h2.07Z" style="fill:#dfb335"/><path d="M42.56,26.46h5l-2.52-3.91Zm.86-.45,1.65-2.57L46.73,26Z" style="fill:#dfb335"/><polygon points="43.42 26.01 46.73 26.01 45.08 23.44 43.42 26.01" style="fill:#dad8c6"/><path d="M41.06,25.28c-.14.25-.29.49-.44.73h.91Z" style="fill:#dad8c6"/><polygon points="34.67 23.44 33.02 26.01 36.33 26.01 34.67 23.44" style="fill:#dad8c6"/><polygon points="67.07 32.56 63.11 32.56 65.09 35.63 67.07 32.56" style="fill:#c43d31"/><polygon points="71.32 35.63 73.3 32.56 69.34 32.56 71.32 35.63" style="fill:#c43d31"/><path d="M71.32,36.7l3-4.67h-6Zm0-1.07-2-3.08h4Z" style="fill:#dad8c6"/><path d="M68.1,32h-6l3,4.69Zm-1,.54-2,3.08-2-3.08Z" style="fill:#dad8c6"/><path d="M61.16,32c0,.39,0,.78,0,1.18L61.88,32Z" style="fill:#dad8c6"/><path d="M61.08,30.59c0,.47.07.95.08,1.43H74.32a11.59,11.59,0,0,0,.21-1.43Z" style="fill:#dfb335"/><path d="M60.44,26.46c.26,1.38.52,2.74.65,4.13H74.53q0-.53,0-1.06V26.46H60.44Z" style="fill:#c43d31"/><path d="M71.32,36.7l-3-4.69h-.2l-3,4.69-3-4.69h-.2l-.76,1.18c0,.08,0,.16,0,.23a12.27,12.27,0,0,1-6,9.49h4.56C67,42.91,73,38.23,74.32,32Z" style="fill:#0e854c"/></g></g></svg>