<svg xmlns="http://www.w3.org/2000/svg" xmlns:xlink="http://www.w3.org/1999/xlink" width="58.4" height="122.4" viewBox="0 0 58.4 122.4"><defs><clipPath id="clip-path"><ellipse cx="33" cy="56.5" rx="1.5" ry="1.4" transform="translate(-32.2 52.5) rotate(-56.2)" style="fill:none"/></clipPath><clipPath id="clip-path-2"><path d="M48.4,42.5s-8.1-3.6-14.3-4.7-18.3-2.2-18.3-2.2-.6,6.9,4.4,10.1S34.7,48,38.4,48.2C47.2,48.6,48.4,42.5,48.4,42.5Z" style="fill:none"/></clipPath><clipPath id="clip-path-3"><path d="M42.6,4.2s-2.5-1.3-8.9-1.5-11.5,1.5-13,7.2-4.9,26-4.9,26,10.1,1,18.6,2.2c0-.5,0-4.9,2.2-14.5A157.6,157.6,0,0,1,42.6,4.2Z" style="fill:none"/></clipPath><clipPath id="clip-path-4"><path d="M54.2,16.7c-1.5,10.2-1.7,10.2-5.7,25.8a6.8,6.8,0,0,1-.7,1.7c-2-.9-7.3-5.2-13.3-6.1,0-1.5.3-6,2.2-14.8A175.4,175.4,0,0,1,42.3,4.1S55.4,8.1,54.2,16.7Z" style="fill:none"/></clipPath></defs><title>Microphone</title><g id="Layer_2" data-name="Layer 2"><g id="Layer_1-2" data-name="Layer 1"><path d="M25.3,75.2V86.4l3.8-.3,4-.2v-32H25.3V74.6c.3-.1.7.1.4.3Z" style="fill:#201514"/><path d="M25.3,83.2v20.8H33V82.5Z" style="fill:#201514"/><path d="M58.4,108.2H46.9a89.7,89.7,0,0,0-17.7-1.6,90,90,0,0,0-17.5,1.6H0v6.3c0,4.4,13.1,7.9,29.2,7.9s29.2-3.5,29.2-7.9v-6.3Z" style="fill:#201514"/><ellipse cx="29.2" cy="108.2" rx="29.2" ry="7.9" style="fill:#837059"/><rect x="24" y="95.4" width="9.9" height="7.42" style="fill:#837059"/><rect x="22.5" y="97.4" width="13.4" height="10.04" style="fill:#998773"/><path d="M23.5,45.6A20.4,20.4,0,0,0,21,52.7c-.9,4.8,1.6,6.3,2.8,6.4l9.2.8.6-13.4Z" style="fill:#998773"/><path d="M35.9,58h0c.5-1.3,4.8-11.4,4.5-11.4L34,45.6l-4.3,9.6a3.4,3.4,0,1,0,6.1,2.8h0Z" style="fill:#837059"/><ellipse cx="33" cy="56.5" rx="2" ry="1.9" transform="translate(-32.2 52.5) rotate(-56.2)" style="fill:#fdfdfd"/><ellipse cx="33" cy="56.5" rx="1.5" ry="1.4" transform="translate(-32.2 52.5) rotate(-56.2)" style="fill:#3b3e43"/><g style="clip-path:url(#clip-path)"><rect x="32.6" y="54.9" width="0.9" height="3.04" transform="translate(-32.1 50.4) rotate(-54.3)" style="fill:#272a2f"/></g><path d="M48.3,42.5S40.2,38.9,34,37.9c-13-2.1-18.3-1.4-18.3-1.4s-.1,5.3,3.6,8.4l1,.7c2.3,1.5,6.4,2.1,10.5,2.3l7.7.2C47.1,48.6,48.3,42.5,48.3,42.5Z" style="fill:#c99226"/><path d="M42.4,4.2s-2.3-1.3-8.7-1.5-11.5,1.5-13,7.2-4.8,25.6-4.9,26.5a118.6,118.6,0,0,1,18.6,1.7c0-.5,0-4.9,2.2-14.5A178.9,178.9,0,0,1,42.4,4.2Z" style="fill:#e6a52e"/><path d="M48.5,42.4a40.7,40.7,0,0,0-5.7-2.3,39.5,39.5,0,0,0-8.4-2.1,29.8,29.8,0,0,0,1,7,4.3,4.3,0,0,0,2.9,3.1,13.4,13.4,0,0,0,6.3-1.1A7.4,7.4,0,0,0,48.5,42.4Z" style="fill:#d49929"/><g style="clip-path:url(#clip-path-2)"><path d="M31.4,40.5c-.2,4.8,1.2,7.6,2.9,8.8" style="fill:none;stroke:#3b3e43;stroke-linecap:round;stroke-linejoin:round;stroke-width:9px"/><path d="M28.1,40.2c-.4,7.8,2,9,3.6,9.8" style="fill:none;stroke:#3b3e43;stroke-linecap:round;stroke-linejoin:round;stroke-width:9px"/><path d="M24.5,39.9c-.3,8.2,2.1,9,2.7,9.1" style="fill:none;stroke:#3b3e43;stroke-linecap:round;stroke-linejoin:round;stroke-width:9px"/><path d="M21.3,39.4c-.3,8.9,1.6,8.9,2.4,9.5" style="fill:none;stroke:#3b3e43;stroke-linecap:round;stroke-linejoin:round;stroke-width:9px"/><path d="M18.1,38.8c-.6,8.4,2.4,10.3,2.4,10.3" style="fill:none;stroke:#3b3e43;stroke-linecap:round;stroke-linejoin:round;stroke-width:9px"/></g><g style="clip-path:url(#clip-path-3)"><path d="M37.7,8.7h-.1a1.1,1.1,0,0,1-1-1.2,7.2,7.2,0,0,1,1.2-3.3c.8-1.1,1.8-2.1,1.9-2.2a1.1,1.1,0,0,1,1.6,1.5s-.9,1-1.7,2a5.1,5.1,0,0,0-.8,2.2A1.1,1.1,0,0,1,37.7,8.7Z" style="fill:#3b3e43"/><path d="M34.1,7.9A1.1,1.1,0,0,1,33,6.9a7.1,7.1,0,0,1,.8-3.2A12.7,12.7,0,0,1,36.5.8a1.1,1.1,0,0,1,1.3,1.7,10.7,10.7,0,0,0-2.2,2.2,5,5,0,0,0-.5,2.1,1.1,1.1,0,0,1-1.1,1.1Z" style="fill:#3b3e43"/><path d="M30.6,7.7a1.1,1.1,0,0,1-1.1-1,7.1,7.1,0,0,1,.6-3.3,12.7,12.7,0,0,1,2.6-3,1.1,1.1,0,0,1,1.4,1.7,10.7,10.7,0,0,0-2.1,2.3,5,5,0,0,0-.4,2.1,1.1,1.1,0,0,1-1,1.2Z" style="fill:#3b3e43"/><path d="M27.2,7.8a1.1,1.1,0,0,1-1.1-.9,7.1,7.1,0,0,1,.4-3.3A12.7,12.7,0,0,1,28.8.4a1.1,1.1,0,0,1,1.6,1.5,10.7,10.7,0,0,0-1.9,2.5,5,5,0,0,0-.2,2.2,1.1,1.1,0,0,1-.9,1.2Z" style="fill:#3b3e43"/><path d="M23.9,7.9A1.1,1.1,0,0,1,22.8,7,7.1,7.1,0,0,1,23,3.7,12.7,12.7,0,0,1,25.1.4a1.1,1.1,0,0,1,1.6,1.5A10.7,10.7,0,0,0,25,4.4a5,5,0,0,0-.1,2.2,1.1,1.1,0,0,1-.9,1.3Z" style="fill:#3b3e43"/><path d="M56,22.2a1.2,1.2,0,0,1-.8-.3c-3-2.8-10-6.4-15.2-8s-21.6-2.1-23.9-1.7a1.2,1.2,0,1,1-.4-2.4c2.8-.5,19.7.3,25,1.8s12.8,5.5,16.1,8.5a1.2,1.2,0,0,1-.8,2.1Z" style="fill:#3b3e43"/><path d="M55.1,25.6a1.2,1.2,0,0,1-.8-.3c-3-2.8-10-6.4-15.2-8s-21.6-2.1-23.9-1.7a1.2,1.2,0,1,1-.4-2.4c2.8-.5,19.7.3,25,1.8S52.7,20.4,56,23.4a1.2,1.2,0,0,1-.8,2.1Z" style="fill:#3b3e43"/><path d="M54.3,28.9a1.2,1.2,0,0,1-.8-.3c-3-2.8-10-6.4-15.2-8s-21.6-2.1-23.9-1.7a1.2,1.2,0,1,1-.4-2.4c2.8-.5,19.7.3,25,1.8s12.8,5.5,16.1,8.5a1.2,1.2,0,0,1-.8,2.1Z" style="fill:#3b3e43"/><path d="M53.5,32.3a1.2,1.2,0,0,1-.8-.3c-3-2.8-10-6.4-15.2-8s-21.6-2.1-23.9-1.7a1.2,1.2,0,1,1-.4-2.4c2.8-.5,19.7.3,25,1.8S51,27.1,54.3,30.1a1.2,1.2,0,0,1-.8,2.1Z" style="fill:#3b3e43"/><path d="M52.7,35.6a1.2,1.2,0,0,1-.8-.3c-3-2.8-10-6.4-15.2-8s-21.6-2.1-23.9-1.7a1.2,1.2,0,1,1-.4-2.4c2.8-.5,19.7.3,25,1.8s12.8,5.5,16.1,8.5a1.2,1.2,0,0,1-.8,2.1Z" style="fill:#3b3e43"/><path d="M51.8,38.9a1.2,1.2,0,0,1-.8-.3c-3-2.8-10-6.4-15.2-8S14.2,28.5,12,28.9a1.2,1.2,0,0,1-.4-2.4c2.8-.5,19.7.3,25,1.8s12.8,5.5,16.1,8.5a1.2,1.2,0,0,1-.8,2.1Z" style="fill:#3b3e43"/><path d="M51,42.3a1.2,1.2,0,0,1-.8-.3c-3-2.8-10-6.4-15.2-8s-21.6-2.1-23.9-1.7a1.2,1.2,0,0,1-.4-2.4c2.8-.5,19.7.3,25,1.8s12.8,5.5,16.1,8.5a1.2,1.2,0,0,1-.8,2.1Z" style="fill:#3b3e43"/><path d="M50.2,45.6a1.2,1.2,0,0,1-.8-.3c-3-2.8-10-6.4-15.2-8s-21.6-2.1-23.9-1.7a1.2,1.2,0,1,1-.4-2.4c2.8-.5,19.7.3,25,1.8S47.7,40.4,51,43.5a1.2,1.2,0,0,1-.8,2.1Z" style="fill:#3b3e43"/></g><polygon points="26.5 8.8 21.4 36.1 24.5 36.5 29.3 9.4 26.5 8.8" style="fill:#e6a52e"/><path d="M54.2,16.7c-.3,2.4-.7,5-1.2,7.7s-1,4.5-1.5,6.6c-1.6,6.3-3,11.5-3,11.5a51.3,51.3,0,0,0-14.1-4.4,80,80,0,0,1,2.2-14.8c2.1-8.9,5.6-19.2,5.6-19.2S55.3,8.1,54.2,16.7Z" style="fill:#d49929"/><g style="clip-path:url(#clip-path-4)"><path d="M56,22.2a1.2,1.2,0,0,1-.8-.3c-3-2.8-10-6.4-15.2-8s-21.6-2.1-23.9-1.7a1.2,1.2,0,1,1-.4-2.4c2.8-.5,19.7.3,25,1.8s12.8,5.5,16.1,8.5a1.2,1.2,0,0,1-.8,2.1Z" style="fill:#3b3e43"/><path d="M55.1,25.6a1.2,1.2,0,0,1-.8-.3c-3-2.8-10-6.4-15.2-8s-21.6-2.1-23.9-1.7a1.2,1.2,0,1,1-.4-2.4c2.8-.5,19.7.3,25,1.8S52.7,20.4,56,23.4a1.2,1.2,0,0,1-.8,2.1Z" style="fill:#3b3e43"/><path d="M54.3,28.9a1.2,1.2,0,0,1-.8-.3c-3-2.8-10-6.4-15.2-8s-21.6-2.1-23.9-1.7a1.2,1.2,0,1,1-.4-2.4c2.8-.5,19.7.3,25,1.8s12.8,5.5,16.1,8.5a1.2,1.2,0,0,1-.8,2.1Z" style="fill:#3b3e43"/><path d="M53.5,32.3a1.2,1.2,0,0,1-.8-.3c-3-2.8-10-6.4-15.2-8s-21.6-2.1-23.9-1.7a1.2,1.2,0,1,1-.4-2.4c2.8-.5,19.7.3,25,1.8S51,27.1,54.3,30.1a1.2,1.2,0,0,1-.8,2.1Z" style="fill:#3b3e43"/><path d="M52.7,35.6a1.2,1.2,0,0,1-.8-.3c-3-2.8-10-6.4-15.2-8s-21.6-2.1-23.9-1.7a1.2,1.2,0,1,1-.4-2.4c2.8-.5,19.7.3,25,1.8s12.8,5.5,16.1,8.5a1.2,1.2,0,0,1-.8,2.1Z" style="fill:#3b3e43"/><path d="M51.8,38.9a1.2,1.2,0,0,1-.8-.3c-3-2.8-10-6.4-15.2-8S14.2,28.5,12,28.9a1.2,1.2,0,0,1-.4-2.4c2.8-.5,19.7.3,25,1.8s12.8,5.5,16.1,8.5a1.2,1.2,0,0,1-.8,2.1Z" style="fill:#3b3e43"/><path d="M51,42.3a1.2,1.2,0,0,1-.8-.3c-3-2.8-10-6.4-15.2-8s-21.6-2.1-23.9-1.7a1.2,1.2,0,0,1-.4-2.4c2.8-.5,19.7.3,25,1.8s12.8,5.5,16.1,8.5a1.2,1.2,0,0,1-.8,2.1Z" style="fill:#3b3e43"/><path d="M50.2,45.6a1.2,1.2,0,0,1-.8-.3c-3-2.8-10-6.4-15.2-8s-21.6-2.1-23.9-1.7a1.2,1.2,0,1,1-.4-2.4c2.8-.5,19.7.3,25,1.8S47.7,40.4,51,43.5a1.2,1.2,0,0,1-.8,2.1Z" style="fill:#3b3e43"/></g><polygon points="47.1 12.3 39.6 42 43.1 43.9 50.5 14 47.1 12.3" style="fill:#d49929"/><path d="M40.7,11.6l-3.5-.7-.5,2.4L40,14l1.9.6.5-2.4Z" style="fill:#3b3e43"/><path d="M39.8,14.9l-3.4-.7L36,16.7l3.2.6,2,.7.5-2.4Z" style="fill:#3b3e43"/><path d="M39,18.3l-3.3-.7L35.3,20l3,.6,2.1.7.5-2.4Z" style="fill:#3b3e43"/><path d="M38.2,21.6,35.1,21l-.5,2.4,2.9.6,2.2.7.5-2.4Z" style="fill:#3b3e43"/><path d="M37.4,25l-3-.6-.5,2.4,2.8.6,2.2.8.5-2.4Z" style="fill:#3b3e43"/><path d="M36.5,28.3l-2.8-.6-.5,2.4,2.6.6,2.3.8.5-2.4Z" style="fill:#3b3e43"/><path d="M35.7,31.6,33,31l-.5,2.4L35,34l2.4.8.5-2.4Z" style="fill:#3b3e43"/><path d="M34.9,35l-2.6-.6-.5,2.4,2.3.5,2.5.9.5-2.4Z" style="fill:#3b3e43"/></g></g></svg>