<?xml version="1.0" encoding="utf-8"?>
<!-- Generator: Adobe Illustrator 21.0.0, SVG Export Plug-In . SVG Version: 6.00 Build 0)  -->
<svg version="1.1" id="Layer_1" xmlns="http://www.w3.org/2000/svg" xmlns:xlink="http://www.w3.org/1999/xlink" x="0px" y="0px"
	 viewBox="0 0 461.2 240" style="enable-background:new 0 0 461.2 240;" xml:space="preserve">
<style type="text/css">
	.st0{opacity:0.24;fill:url(#SVGID_1_);enable-background:new    ;}
	.st1{fill:#FFFFFF;}
</style>
<rect id="Black" x="0" width="461.2" height="240"/>
<g id="Fade">
	<g id="ba77532e-de9b-448a-b0e5-a23d17d27938">
		<g id="e75bd0a5-d110-43ea-9084-f826969af4dc">
			
				<radialGradient id="SVGID_1_" cx="230.62" cy="35.1479" r="197.4306" gradientTransform="matrix(1 0 0 -0.76 0 146.33)" gradientUnits="userSpaceOnUse">
				<stop  offset="0" style="stop-color:#FFFFFF"/>
				<stop  offset="0.11" style="stop-color:#FFFFFF;stop-opacity:0.7"/>
				<stop  offset="0.2" style="stop-color:#CACACA;stop-opacity:0.76"/>
				<stop  offset="0.32" style="stop-color:#8D8D8D;stop-opacity:0.83"/>
				<stop  offset="0.45" style="stop-color:#5A5A5A;stop-opacity:0.89"/>
				<stop  offset="0.57" style="stop-color:#323232;stop-opacity:0.94"/>
				<stop  offset="0.7" style="stop-color:#161616;stop-opacity:0.97"/>
				<stop  offset="0.82" style="stop-color:#060606;stop-opacity:0.99"/>
				<stop  offset="0.95" style="stop-color:#000000"/>
			</radialGradient>
			<rect y="0" class="st0" width="461.2" height="240"/>
		</g>
	</g>
</g>
<g id="Text">
	
		<image style="overflow:visible;opacity:0.75;" width="126" height="40" xlink:href="A5F4C383B744A361.png"  transform="matrix(1 0 0 1 168 110.02)">
	</image>
	<g>
		<g>
			<path class="st1" d="M184.6,125.8h3.7v1.3H183v-8.2h5.3v1.3h-3.7v2.1h3.2v1.3h-3.2L184.6,125.8z"/>
			<path class="st1" d="M194.9,120l-1.1,0.9c-0.4-0.5-0.9-0.8-1.6-0.7c-0.3,0-0.6,0.1-0.9,0.3c-0.2,0.2-0.3,0.5-0.3,0.7
				c0,0.5,0.3,0.8,0.9,1l1,0.3c0.6,0.2,1.1,0.5,1.5,0.9c0.3,0.4,0.5,0.9,0.5,1.4c0,0.7-0.3,1.4-0.8,1.8c-0.6,0.5-1.4,0.7-2.1,0.7
				c-1.2,0.1-2.3-0.5-2.9-1.5l1.1-0.9c0.3,0.7,1.1,1.1,1.8,1c0.4,0,0.7-0.1,1-0.3c0.2-0.2,0.4-0.5,0.3-0.8c0-0.5-0.3-0.8-0.9-1
				l-1-0.3c-1.1-0.2-1.9-1.1-1.9-2.3c0-0.7,0.2-1.3,0.7-1.8c0.6-0.5,1.3-0.8,2.1-0.7C193.3,118.7,194.3,119.2,194.9,120z"/>
			<path class="st1" d="M195.7,118.9h6v1.3h-2.2v6.9h-1.6v-6.9h-2.2L195.7,118.9z"/>
			<path class="st1" d="M207.9,127.1l-0.6-1.8h-3l-0.6,1.8h-1.7l2.9-8.2h1.8l2.9,8.2L207.9,127.1z M205.8,120.5l-1.1,3.4h2.2
				L205.8,120.5z"/>
			<path class="st1" d="M210.4,127.1v-8.2h2.5c1.1-0.1,2.2,0.3,3.1,1c1.3,1.9,1.3,4.4,0,6.2c-0.8,0.7-2,1.1-3.1,1L210.4,127.1z
				 M212,125.8h0.9c0.7,0.1,1.4-0.1,1.9-0.6c0.7-1.4,0.7-3,0-4.3c-0.5-0.5-1.2-0.7-1.9-0.6H212L212,125.8z"/>
			<path class="st1" d="M224.9,123c0.1,1.1-0.2,2.2-0.9,3.1c-1.4,1.5-3.7,1.5-5.2,0.1c0,0-0.1-0.1-0.1-0.1c-1.1-1.9-1.1-4.3,0-6.2
				c0.6-0.8,1.6-1.2,2.7-1.1c0.6,0,1.1,0.1,1.6,0.3c0.4,0.2,0.8,0.5,1.1,0.9c0.3,0.4,0.5,0.9,0.6,1.3
				C224.8,121.9,224.9,122.4,224.9,123z M219.6,123c0,0.7,0.1,1.5,0.4,2.1c0.6,0.8,1.7,1,2.5,0.4c0.1-0.1,0.3-0.2,0.4-0.4
				c0.3-0.7,0.5-1.4,0.4-2.1c0.1-0.7-0.1-1.4-0.4-2.1c-0.6-0.8-1.6-1-2.4-0.4c-0.2,0.1-0.3,0.3-0.4,0.4
				C219.7,121.6,219.6,122.3,219.6,123L219.6,123z"/>
			<path class="st1" d="M228.6,127.1v-8.2h2.6c1.1-0.1,2.2,0.3,3.1,1c1.3,1.9,1.3,4.4,0,6.2c-0.8,0.7-2,1.1-3.1,1L228.6,127.1z
				 M230.2,125.8h0.9c0.7,0.1,1.4-0.1,1.9-0.6c0.7-1.4,0.7-3,0-4.3c-0.5-0.5-1.2-0.7-1.9-0.6h-0.9L230.2,125.8z"/>
			<path class="st1" d="M238.1,125.8h3.7v1.3h-5.3v-8.2h5.3v1.3h-3.7v2.1h3.2v1.3h-3.2V125.8z"/>
			<path class="st1" d="M244.7,125.8h3.2v1.3h-4.8v-8.2h1.6V125.8z"/>
			<path class="st1" d="M256.3,127.1l-0.6-1.8h-3l-0.6,1.8h-1.7l2.9-8.2h1.8l2.9,8.2H256.3z M254.2,120.5l-1.1,3.4h2.2L254.2,120.5z
				"/>
			<path class="st1" d="M258.8,127.1v-8.2h3.1c0.8-0.1,1.6,0.2,2.2,0.6c0.5,0.4,0.8,1.1,0.8,1.8c0,0.5-0.2,1.1-0.5,1.5
				c-0.4,0.4-0.9,0.7-1.4,0.8l2.1,3.5h-1.8l-1.9-3.3h-0.9v3.3L258.8,127.1z M263.2,121.3c0-0.3-0.1-0.6-0.3-0.8
				c-0.3-0.2-0.7-0.3-1.1-0.3h-1.3v2.2h1.3c0.4,0,0.8-0.1,1.1-0.3C263.1,121.9,263.2,121.6,263.2,121.3L263.2,121.3z"/>
			<path class="st1" d="M265.6,118.9h6v1.3h-2.2v6.9h-1.6v-6.9h-2.2V118.9z"/>
			<path class="st1" d="M274.3,125.8h3.7v1.3h-5.3v-8.2h5.3v1.3h-3.7v2.1h3.2v1.3h-3.2V125.8z"/>
		</g>
	</g>
</g>
<g>
</g>
</svg>
