<svg xmlns="http://www.w3.org/2000/svg" width="52.96" height="69.82" viewBox="0 0 52.96 69.82"><title>support</title><g id="Layer_2" data-name="Layer 2"><g id="Layer_1-2" data-name="Layer 1"><path d="M49.35,43a2.44,2.44,0,0,1-1.43,2.22c-5.46,2.53-13,4.1-21.44,4.1S10.5,47.78,5,45.25A2.44,2.44,0,0,1,3.62,43C3.79,20.05,8,0,26.48,0S49.18,20.05,49.35,43Z" style="fill:#5a4146"/><path d="M34.91,46.75V40.93H18.06v5.82a3.61,3.61,0,0,1-2.47,3.43L4.12,54A6,6,0,0,0,0,59.71v7.7a2.41,2.41,0,0,0,2.41,2.41H50.56A2.41,2.41,0,0,0,53,67.41v-7.7A6,6,0,0,0,48.85,54L37.38,50.18A3.61,3.61,0,0,1,34.91,46.75Z" style="fill:#e6af78"/><path d="M18.06,46.75a3.6,3.6,0,0,1-2.2,3.31c13.49,2.3,19.05-7.33,19.05-7.33h0v-1.8H18.06Z" style="fill:#d29b6e"/><path d="M48.85,54l-9.37-3.12c-4.46,6.05-9.67,9.43-13,10.51-3.32-1.08-8.53-4.46-13-10.51L4.12,54A6,6,0,0,0,0,59.71v7.7a2.41,2.41,0,0,0,2.41,2.41H50.56A2.41,2.41,0,0,0,53,67.41v-7.7A6,6,0,0,0,48.85,54Z" style="fill:#e4eaf6"/><path d="M8.22,62.39,1.54,55.71a6,6,0,0,0-1.54,4v7.7a2.41,2.41,0,0,0,2.41,2.41H9.63v-4A4.81,4.81,0,0,0,8.22,62.39Z" style="fill:#d7deed"/><path d="M44.74,62.39l6.68-6.68a6,6,0,0,1,1.54,4v7.7a2.41,2.41,0,0,1-2.41,2.41H43.33v-4A4.81,4.81,0,0,1,44.74,62.39Z" style="fill:#d7deed"/><path d="M11.55,52.3C16.39,58.86,22,62.48,25.74,63.68l.74.24.74-.24c3.69-1.2,9.35-4.82,14.19-11.38l.43-.64-2.37-.79c-4.46,6.05-9.67,9.43-13,10.51-3.32-1.08-8.53-4.46-13-10.51l-2.37.79Z" style="fill:#d7deed"/><path d="M11,25.29H9.64a2.41,2.41,0,0,0-2.42,2.41v4.76a2.41,2.41,0,0,0,2.46,2.41l2.07,0Z" style="fill:#707487"/><path d="M9.64,25.29h0v9.57h0l2.07,0L11,25.29Z" style="fill:#65687a"/><path d="M41.93,25.29h1.4a2.41,2.41,0,0,1,2.42,2.41v4.76a2.41,2.41,0,0,1-2.46,2.41l-2.07,0Z" style="fill:#707487"/><path d="M43.33,25.29h0v9.57h0l-2.07,0,.72-9.53Z" style="fill:#65687a"/><path d="M10.83,14.44v5.19q0,3.23.25,6.46l.69,9a7.22,7.22,0,0,0,3.06,5.36l7.27,5.09a7.63,7.63,0,0,0,4.38,1.38h0a7.63,7.63,0,0,0,4.38-1.38l7.27-5.09a7.22,7.22,0,0,0,3.06-5.36l.69-9q.25-3.23.25-6.46V14.44Z" style="fill:#f0c087"/><path d="M42,14.44H10.83v5.19c0,.67,0,1.34,0,2h0q0,1.21.09,2.41h0c0,.68.07,1.36.12,2l.69,9a7.22,7.22,0,0,0,3.06,5.36l7.27,5.09a7.63,7.63,0,0,0,4.38,1.38c-1.93,0-4.05-3.32-5.39-5.85a12,12,0,0,1-1.38-5.38l-.2-10.9A1.75,1.75,0,0,1,21,23.07a64.31,64.31,0,0,0,14.51-4.24,11.77,11.77,0,0,0,5.78,5.12l.38.13H42q.06-1.2.09-2.41Z" style="fill:#e6af78"/><path d="M9.63,13.24v8.43c14.26,0,25.12-5,26.94-6.06,2,4.86,5.47,6.06,5.47,6.06h1.29V13.24Z" style="fill:#5a4146"/><path d="M43.29,34.86l-2.07,0c-.92,1.67-3.67,4.4-11.88,4.4v2.41c11,0,13.78-4.67,14.5-6.83A2.41,2.41,0,0,1,43.29,34.86Z" style="fill:#464655"/><path d="M28.29,42.13h-1.2a1.81,1.81,0,0,1-1.81-1.81h0a1.81,1.81,0,0,1,1.81-1.81h1.2a1.81,1.81,0,0,1,1.81,1.81h0A1.81,1.81,0,0,1,28.29,42.13Z" style="fill:#5b5d6e"/></g></g></svg>