<svg xmlns="http://www.w3.org/2000/svg" xmlns:xlink="http://www.w3.org/1999/xlink" width="40.73" height="42.13" viewBox="0 0 40.73 42.13"><defs><style>.ee6efb3d-bf43-413e-8db2-d519986fc5a6{isolation:isolate;}.\35 47713bd-6f1d-465d-9264-07f50f7e49f2{fill:url(#068b26b9-273f-4eeb-b9a1-e3aacfc7c8fc);}.\36 ce35dba-ca65-473a-b563-2518679701a6{fill:url(#09a13b4d-acfd-4ee2-85e3-c81b81051319);}.\33 e0cabb1-98d7-4650-ac1c-5c2c9902979d{fill:url(#7fa5d8fb-d3e9-4454-a076-fa6f0d073924);}.c07d6bfc-59ae-4987-8ccd-1ceef0839f23{fill:url(#1182fa31-6632-4f83-a5f0-7a46a9597f49);}.f05520df-f81f-4005-9008-36d027bb3a87{fill:url(#10c47567-7715-4b67-a19b-9eed44285978);}.\35 2a36314-45ae-42a0-b576-2538555d9847{opacity:0.6;mix-blend-mode:screen;fill:url(#c8480c15-b641-4d3e-a777-d01a96250a9f);}.\33 3068de0-74c8-40d2-b464-c2019470d08c{fill-rule:evenodd;fill:url(#e9b1505e-2369-43d1-beac-be6cc7293f8b);}</style><linearGradient id="068b26b9-273f-4eeb-b9a1-e3aacfc7c8fc" x1="0.34" y1="21.07" x2="41.64" y2="21.07" gradientUnits="userSpaceOnUse"><stop offset="0" stop-color="#b07515"/><stop offset="0.09" stop-color="#e1ba60"/><stop offset="0.14" stop-color="#f5d77f"/><stop offset="0.26" stop-color="#ffffd7"/><stop offset="0.36" stop-color="#f5d77f"/><stop offset="0.49" stop-color="#b07515"/><stop offset="0.57" stop-color="#e1ba60"/><stop offset="0.61" stop-color="#f5d77f"/><stop offset="0.74" stop-color="#ffffd7"/><stop offset="0.84" stop-color="#f5d77f"/><stop offset="1" stop-color="#b07515"/></linearGradient><linearGradient id="09a13b4d-acfd-4ee2-85e3-c81b81051319" x1="5.68" y1="6.38" x2="34.71" y2="35.41" xlink:href="#068b26b9-273f-4eeb-b9a1-e3aacfc7c8fc"/><linearGradient id="7fa5d8fb-d3e9-4454-a076-fa6f0d073924" x1="2.37" y1="21.07" x2="38.29" y2="21.07" xlink:href="#068b26b9-273f-4eeb-b9a1-e3aacfc7c8fc"/><linearGradient id="1182fa31-6632-4f83-a5f0-7a46a9597f49" x1="8" y1="33.43" x2="31.63" y2="9.81" gradientUnits="userSpaceOnUse"><stop offset="0" stop-color="#0f1115"/><stop offset="0.14" stop-color="#1c2228"/><stop offset="0.26" stop-color="#232a32"/><stop offset="0.36" stop-color="#1c2228"/><stop offset="0.49" stop-color="#0f1115"/><stop offset="0.61" stop-color="#1c2228"/><stop offset="0.74" stop-color="#232a32"/><stop offset="0.84" stop-color="#1c2228"/><stop offset="1" stop-color="#0f1115"/></linearGradient><linearGradient id="10c47567-7715-4b67-a19b-9eed44285978" x1="9.8" y1="31.65" x2="29.99" y2="11.45" gradientUnits="userSpaceOnUse"><stop offset="0" stop-color="#161a1f"/><stop offset="0.14" stop-color="#2a323b"/><stop offset="0.26" stop-color="#343f4a"/><stop offset="0.36" stop-color="#2a323b"/><stop offset="0.49" stop-color="#161a1f"/><stop offset="0.61" stop-color="#2a323b"/><stop offset="0.74" stop-color="#343f4a"/><stop offset="0.84" stop-color="#2a323b"/><stop offset="1" stop-color="#161a1f"/></linearGradient><radialGradient id="c8480c15-b641-4d3e-a777-d01a96250a9f" cx="3.76" cy="16.34" r="53.86" gradientUnits="userSpaceOnUse"><stop offset="0" stop-color="#e8e8e8"/><stop offset="0.05" stop-color="#a6a6a6"/><stop offset="0.14" stop-color="#606060"/><stop offset="0.21" stop-color="#4c4c4c"/><stop offset="0.33" stop-color="#303030"/><stop offset="0.45" stop-color="#1b1b1b"/><stop offset="0.59" stop-color="#0c0c0c"/><stop offset="0.76" stop-color="#030303"/><stop offset="1"/></radialGradient><linearGradient id="e9b1505e-2369-43d1-beac-be6cc7293f8b" x1="12.64" y1="27.3" x2="29.68" y2="10.25" xlink:href="#068b26b9-273f-4eeb-b9a1-e3aacfc7c8fc"/></defs><title>Twitter</title><g class="ee6efb3d-bf43-413e-8db2-d519986fc5a6"><g id="cfa15086-7c47-48a5-a244-e8b76e35a96c" data-name="Layer 2"><g id="03ae101a-23aa-429e-bc89-9ace47eb0ebd" data-name="Layer 1"><path class="547713bd-6f1d-465d-9264-07f50f7e49f2" d="M20.37,42.13C-6.8,42.13-6.78,0,20.37,0S47.54,42.13,20.37,42.13Z"/><path class="6ce35dba-ca65-473a-b563-2518679701a6" d="M20.37,41.74C-6.3,41.74-6.28.39,20.37.39S47,41.74,20.37,41.74Z"/><path class="3e0cabb1-98d7-4650-ac1c-5c2c9902979d" d="M20.37,39.69c-24,0-24-37.24,0-37.24S44.41,39.69,20.37,39.69Z"/><path class="c07d6bfc-59ae-4987-8ccd-1ceef0839f23" d="M20.37,39.28c-23.5,0-23.5-36.44,0-36.44S43.86,39.28,20.37,39.28Z"/><path class="f05520df-f81f-4005-9008-36d027bb3a87" d="M20.37,36.65C.26,36.65.31,5.49,20.37,5.49S40.5,36.65,20.37,36.65Z"/><path class="52a36314-45ae-42a0-b576-2538555d9847" d="M31.38,32.09c14.71-14.69-9-36.87-22.7-21.32A46.74,46.74,0,0,1,31.38,32.09Z"/><path class="33068de0-74c8-40d2-b464-c2019470d08c" d="M17.85,25.46a3.4,3.4,0,0,1-3.15-2.35,1.94,1.94,0,0,0,1.5-.06,3.49,3.49,0,0,1-2.7-3.36,3.33,3.33,0,0,0,1.51.41,3.46,3.46,0,0,1-1-4.51,9.69,9.69,0,0,0,7,3.54c-.89-6,5.35-2.43,7.85-3.88l0,0h0a3.47,3.47,0,0,1-1.45,1.85,6.53,6.53,0,0,0,1.89-.51h0c-.27.35-1.68,1.44-1.68,1.79a9.71,9.71,0,0,1-14.73,8.56l-.08-.05A7.07,7.07,0,0,0,17.85,25.46Z"/></g></g></g></svg>