<svg xmlns="http://www.w3.org/2000/svg" width="81.92" height="86.9" viewBox="0 0 81.92 86.9"><title>unilevel</title><g id="Layer_2" data-name="Layer 2"><g id="Layer_1-2" data-name="Layer 1"><rect x="4.24" y="14.12" width="73.44" height="42.37" style="fill:#2293ba"/><path d="M44.94,5.65a4.19,4.19,0,0,0,.26-1.41,4.24,4.24,0,0,0-8.47,0A4.19,4.19,0,0,0,37,5.65H0v8.47H81.92V5.65ZM39.55,4.24A1.41,1.41,0,1,1,41,5.65,1.41,1.41,0,0,1,39.55,4.24ZM79.09,11.3H2.82V8.47H79.09Z" style="fill:#333"/><path d="M0,65H28.52L15.75,85.41l2.39,1.5L31.85,65h7.69V86.15h2.82V65h7.69L63.77,86.9l2.39-1.5L53.39,65H81.92V56.49H0Zm2.82-5.65H79.09v2.82H2.82Z" style="fill:#333"/><path d="M11.3,49.43v4.24h8.47V49.43a4.23,4.23,0,0,0-1.9-3.53,4.22,4.22,0,0,0-.92-7.51V36.72H31.07v1.67a4.22,4.22,0,0,0-.92,7.51,4.23,4.23,0,0,0-1.9,3.53v4.24h8.47V49.43a4.23,4.23,0,0,0-1.9-3.53,4.22,4.22,0,0,0-.92-7.51V36.72H48v1.67a4.22,4.22,0,0,0-.92,7.51,4.23,4.23,0,0,0-1.9,3.53v4.24h8.47V49.43a4.23,4.23,0,0,0-1.9-3.53,4.22,4.22,0,0,0-.92-7.51V36.72H65v1.67A4.22,4.22,0,0,0,64,45.9a4.23,4.23,0,0,0-1.9,3.53v4.24h8.47V49.43a4.23,4.23,0,0,0-1.9-3.53,4.22,4.22,0,0,0-.92-7.51V33.9H42.37V31.07H45.2V26.84a4.23,4.23,0,0,0-1.9-3.53,4.24,4.24,0,1,0-4.67,0,4.23,4.23,0,0,0-1.9,3.53v4.24h2.82V33.9H14.12v4.5a4.22,4.22,0,0,0-.92,7.51A4.23,4.23,0,0,0,11.3,49.43ZM32.48,41a1.41,1.41,0,1,1-1.41,1.41A1.41,1.41,0,0,1,32.48,41Zm1.41,9.89H31.07V49.43a1.41,1.41,0,0,1,2.82,0ZM49.43,41A1.41,1.41,0,1,1,48,42.37,1.41,1.41,0,0,1,49.43,41Zm1.41,9.89H48V49.43a1.41,1.41,0,1,1,2.82,0ZM66.38,41A1.41,1.41,0,1,1,65,42.37,1.41,1.41,0,0,1,66.38,41Zm1.41,9.89H65V49.43a1.41,1.41,0,1,1,2.82,0ZM42.37,28.25H39.55V26.84a1.41,1.41,0,1,1,2.82,0ZM41,18.36a1.41,1.41,0,1,1-1.41,1.41A1.41,1.41,0,0,1,41,18.36Zm-24,32.48H14.12V49.43a1.41,1.41,0,0,1,2.82,0ZM15.54,41a1.41,1.41,0,1,1-1.41,1.41A1.41,1.41,0,0,1,15.54,41Z" style="fill:#333"/></g></g></svg>