<svg xmlns="http://www.w3.org/2000/svg" width="55.35" height="104.18" viewBox="0 0 55.35 104.18"><defs><style>.f0a59ad6-a6c3-4507-ad1e-32b9fb5b9b20{fill:#bab7a6;}.\33 a404b24-33bb-4686-9837-ad6da4d09874{fill:#bfe291;}.c5b9aebf-9894-41d2-9d0f-d73a4b76592b{fill:#575a5b;}.\30 35f6aa6-c6c4-46e5-ae8c-a0d7cf37d9d0{fill:#fff;}.a7a664bb-15bf-41e1-97df-6e427aeae003{fill:#71b9ea;}.\35 9ca2426-69a1-4b9b-adca-d377a31fa499{fill:#a2e88b;}.\30 e1a3220-5520-4667-b640-2a14f7da87db{fill:#d85b65;}.\39 1581720-e9b1-49af-9b4b-fa3b18b488d1{fill:#e0d985;}.\34 90c25d5-7fb0-47f8-8ba4-dd8573362057{fill:#eaad63;}</style></defs><title>Web</title><g id="07c210de-2d83-4b8b-9421-95ce76393b93" data-name="Layer 2"><g id="c64ead07-0eac-4e86-91da-15ceec1bed3e" data-name="Layer 1"><rect class="f0a59ad6-a6c3-4507-ad1e-32b9fb5b9b20" y="19.53" width="52.09" height="65.11" rx="4.13" ry="4.13"/><path class="3a404b24-33bb-4686-9837-ad6da4d09874" d="M45.11,19.53H7c1.38-.15,5.5-1.82,6-16.28A25.58,25.58,0,0,1,26,0c8.14,0,13,3.26,13,3.26C39.61,17.71,43.72,19.39,45.11,19.53Z"/><path class="3a404b24-33bb-4686-9837-ad6da4d09874" d="M7,84.65H45.11c-1.38,0-5.5,1.82-6,16.28a25.58,25.58,0,0,1-13,3.26c-8.14,0-13-3.26-13-3.26C12.49,86.47,8.37,84.65,7,84.65Z"/><path class="3a404b24-33bb-4686-9837-ad6da4d09874" d="M45.56,19.53a1.65,1.65,0,0,1-.46,0Z"/><path class="f0a59ad6-a6c3-4507-ad1e-32b9fb5b9b20" d="M52.09,32.56h2.26a1,1,0,0,1,1,1v7.77a1,1,0,0,1-1,1H52.09a0,0,0,0,1,0,0V32.56A0,0,0,0,1,52.09,32.56Z"/><rect class="c5b9aebf-9894-41d2-9d0f-d73a4b76592b" x="3.26" y="22.8" width="45.58" height="58.6" rx="2.82" ry="2.82"/><rect class="f0a59ad6-a6c3-4507-ad1e-32b9fb5b9b20" x="52.09" y="55.35" width="1.63" height="16.28"/><circle class="035f6aa6-c6c4-46e5-ae8c-a0d7cf37d9d0" cx="26.05" cy="52.09" r="6.51"/><circle class="a7a664bb-15bf-41e1-97df-6e427aeae003" cx="32.56" cy="40.7" r="4.88"/><circle class="59ca2426-69a1-4b9b-adca-d377a31fa499" cx="32.56" cy="63.49" r="4.88"/><circle class="0e1a3220-5520-4667-b640-2a14f7da87db" cx="19.53" cy="40.7" r="4.88"/><circle class="91581720-e9b1-49af-9b4b-fa3b18b488d1" cx="19.53" cy="63.49" r="4.88"/><circle class="490c25d5-7fb0-47f8-8ba4-dd8573362057" cx="39.07" cy="52.09" r="4.88"/><circle class="490c25d5-7fb0-47f8-8ba4-dd8573362057" cx="13.02" cy="52.09" r="4.88"/></g></g></svg>