<svg xmlns="http://www.w3.org/2000/svg" xmlns:xlink="http://www.w3.org/1999/xlink" width="40.73" height="42.13" viewBox="0 0 40.73 42.13"><defs><style>.ab313bd7-9407-49e3-8e4a-e14aade18bcb{isolation:isolate;}.\31 be676ef-0c7e-4c25-8c74-f70ab30aec2d{fill:url(#d7dcfcb2-8fd2-46f2-b730-0d05f5353c23);}.abf4203e-474b-4767-ba4b-b27d250cd835{fill:url(#50820450-2cc6-41d8-9755-f7f0f3d2aed5);}.\35 d7f2c70-103f-4fde-9c35-4ba000744470{fill:url(#a0c797be-1de8-443d-b6be-f5e671c314d8);}.fc204f12-f4d1-4e3a-8009-116534c869e7{fill:url(#75617390-c8f5-4c44-9108-f494fb4ffc10);}.\37 91ba164-18e4-4b0a-81e0-f15c395717d4{fill:url(#ecb384ab-f5cd-485b-a154-727b4acd50a0);}.bbea3a66-42b9-4aff-9289-df8662f1a8be{opacity:0.6;mix-blend-mode:screen;fill:url(#a84f15bb-50e1-4cf9-bec9-5018c29d345e);}.\36 6f74175-e23f-4688-9af6-302af7215e44{fill-rule:evenodd;fill:url(#6a2b0f49-2ae0-4a02-9dcc-a97aca179120);}</style><linearGradient id="d7dcfcb2-8fd2-46f2-b730-0d05f5353c23" x1="0.34" y1="21.07" x2="41.64" y2="21.07" gradientUnits="userSpaceOnUse"><stop offset="0" stop-color="#b07515"/><stop offset="0.09" stop-color="#e1ba60"/><stop offset="0.14" stop-color="#f5d77f"/><stop offset="0.26" stop-color="#ffffd7"/><stop offset="0.36" stop-color="#f5d77f"/><stop offset="0.49" stop-color="#b07515"/><stop offset="0.57" stop-color="#e1ba60"/><stop offset="0.61" stop-color="#f5d77f"/><stop offset="0.74" stop-color="#ffffd7"/><stop offset="0.84" stop-color="#f5d77f"/><stop offset="1" stop-color="#b07515"/></linearGradient><linearGradient id="50820450-2cc6-41d8-9755-f7f0f3d2aed5" x1="5.68" y1="6.38" x2="34.71" y2="35.41" xlink:href="#d7dcfcb2-8fd2-46f2-b730-0d05f5353c23"/><linearGradient id="a0c797be-1de8-443d-b6be-f5e671c314d8" x1="2.37" y1="21.07" x2="38.29" y2="21.07" xlink:href="#d7dcfcb2-8fd2-46f2-b730-0d05f5353c23"/><linearGradient id="75617390-c8f5-4c44-9108-f494fb4ffc10" x1="8" y1="33.43" x2="31.63" y2="9.81" gradientUnits="userSpaceOnUse"><stop offset="0" stop-color="#0f1115"/><stop offset="0.14" stop-color="#1c2228"/><stop offset="0.26" stop-color="#232a32"/><stop offset="0.36" stop-color="#1c2228"/><stop offset="0.49" stop-color="#0f1115"/><stop offset="0.61" stop-color="#1c2228"/><stop offset="0.74" stop-color="#232a32"/><stop offset="0.84" stop-color="#1c2228"/><stop offset="1" stop-color="#0f1115"/></linearGradient><linearGradient id="ecb384ab-f5cd-485b-a154-727b4acd50a0" x1="9.8" y1="31.65" x2="29.99" y2="11.45" gradientUnits="userSpaceOnUse"><stop offset="0" stop-color="#161a1f"/><stop offset="0.14" stop-color="#2a323b"/><stop offset="0.26" stop-color="#343f4a"/><stop offset="0.36" stop-color="#2a323b"/><stop offset="0.49" stop-color="#161a1f"/><stop offset="0.61" stop-color="#2a323b"/><stop offset="0.74" stop-color="#343f4a"/><stop offset="0.84" stop-color="#2a323b"/><stop offset="1" stop-color="#161a1f"/></linearGradient><radialGradient id="a84f15bb-50e1-4cf9-bec9-5018c29d345e" cx="3.76" cy="16.34" r="53.86" gradientUnits="userSpaceOnUse"><stop offset="0" stop-color="#e8e8e8"/><stop offset="0.05" stop-color="#a6a6a6"/><stop offset="0.14" stop-color="#606060"/><stop offset="0.21" stop-color="#4c4c4c"/><stop offset="0.33" stop-color="#303030"/><stop offset="0.45" stop-color="#1b1b1b"/><stop offset="0.59" stop-color="#0c0c0c"/><stop offset="0.76" stop-color="#030303"/><stop offset="1"/></radialGradient><linearGradient id="6a2b0f49-2ae0-4a02-9dcc-a97aca179120" x1="11.4" y1="31.09" x2="30.07" y2="12.43" xlink:href="#d7dcfcb2-8fd2-46f2-b730-0d05f5353c23"/></defs><title>Youtube</title><g class="ab313bd7-9407-49e3-8e4a-e14aade18bcb"><g id="e1374a6c-8f40-4294-86e0-8670e48ee187" data-name="Layer 2"><g id="e8fccccc-a5db-41db-aa59-96e7ccdc3476" data-name="Layer 1"><path class="1be676ef-0c7e-4c25-8c74-f70ab30aec2d" d="M20.37,42.13C-6.8,42.13-6.78,0,20.37,0S47.54,42.13,20.37,42.13Z"/><path class="abf4203e-474b-4767-ba4b-b27d250cd835" d="M20.37,41.74C-6.3,41.74-6.28.39,20.37.39S47,41.74,20.37,41.74Z"/><path class="5d7f2c70-103f-4fde-9c35-4ba000744470" d="M20.37,39.69c-24,0-24-37.24,0-37.24S44.41,39.69,20.37,39.69Z"/><path class="fc204f12-f4d1-4e3a-8009-116534c869e7" d="M20.37,39.28c-23.5,0-23.5-36.44,0-36.44S43.86,39.28,20.37,39.28Z"/><path class="791ba164-18e4-4b0a-81e0-f15c395717d4" d="M20.37,36.65C.26,36.65.31,5.49,20.37,5.49S40.5,36.65,20.37,36.65Z"/><path class="bbea3a66-42b9-4aff-9289-df8662f1a8be" d="M31.38,32.09c14.71-14.69-9-36.87-22.7-21.32A46.74,46.74,0,0,1,31.38,32.09Z"/><path class="66f74175-e23f-4688-9af6-302af7215e44" d="M13.39,28c-2.27-.74-1.94-4.71-1.89-6.54.09-3.36.06-4.86,3.42-5.84,2.72-.8,12.21-1.23,14.22,1.12,2.32,2.71,1.14,10.2-1.93,11.39S16.55,29,13.39,28Zm5-3.3,5.72-3-5.72-3Z"/></g></g></g></svg>